<svg width="3000" height="3000" viewBox="0 0 3000 3000" fill="none" xmlns="http://www.w3.org/2000/svg">
<path d="M2726.13 2743.87H443.13C442.334 2743.87 441.571 2743.55 441.009 2742.99C440.446 2742.43 440.13 2741.67 440.13 2740.87C440.13 2740.07 440.446 2739.31 441.009 2738.75C441.571 2738.19 442.334 2737.87 443.13 2737.87H2726.13C2726.93 2737.87 2727.69 2738.19 2728.25 2738.75C2728.81 2739.31 2729.13 2740.07 2729.13 2740.87C2729.13 2741.67 2728.81 2742.43 2728.25 2742.99C2727.69 2743.55 2726.93 2743.87 2726.13 2743.87Z" fill="black"/>
<path d="M2281.19 1445.51C2279.54 1445.51 2277.93 1445.02 2276.56 1444.11C2275.19 1443.19 2274.12 1441.89 2273.49 1440.37C2272.86 1438.85 2272.7 1437.17 2273.02 1435.56C2273.34 1433.94 2274.13 1432.45 2275.3 1431.29C2276.46 1430.12 2277.95 1429.33 2279.56 1429.01C2281.18 1428.69 2282.86 1428.85 2284.38 1429.48C2285.9 1430.11 2287.2 1431.18 2288.12 1432.55C2289.03 1433.92 2289.52 1435.53 2289.52 1437.18C2289.52 1439.39 2288.64 1441.51 2287.08 1443.07C2285.52 1444.63 2283.4 1445.51 2281.19 1445.51ZM2281.19 1434.85C2280.73 1434.85 2280.28 1434.99 2279.9 1435.24C2279.51 1435.5 2279.21 1435.86 2279.04 1436.29C2278.86 1436.71 2278.81 1437.18 2278.9 1437.63C2278.99 1438.09 2279.22 1438.5 2279.54 1438.83C2279.87 1439.15 2280.28 1439.38 2280.74 1439.47C2281.19 1439.56 2281.66 1439.51 2282.08 1439.33C2282.51 1439.16 2282.87 1438.86 2283.13 1438.47C2283.38 1438.09 2283.52 1437.64 2283.52 1437.18C2283.52 1436.56 2283.27 1435.97 2282.84 1435.53C2282.4 1435.1 2281.81 1434.85 2281.19 1434.85Z" fill="black"/>
<path d="M1163.63 1445.51C1161.98 1445.51 1160.37 1445.02 1159 1444.11C1157.63 1443.19 1156.56 1441.89 1155.93 1440.37C1155.3 1438.85 1155.14 1437.17 1155.46 1435.56C1155.78 1433.94 1156.57 1432.45 1157.74 1431.29C1158.9 1430.12 1160.39 1429.33 1162 1429.01C1163.62 1428.69 1165.3 1428.85 1166.82 1429.48C1168.34 1430.11 1169.64 1431.18 1170.56 1432.55C1171.47 1433.92 1171.96 1435.53 1171.96 1437.18C1171.96 1439.39 1171.08 1441.51 1169.52 1443.07C1167.96 1444.63 1165.84 1445.51 1163.63 1445.51ZM1163.63 1434.85C1163.17 1434.85 1162.72 1434.99 1162.34 1435.24C1161.95 1435.5 1161.65 1435.86 1161.48 1436.29C1161.3 1436.71 1161.25 1437.18 1161.34 1437.63C1161.43 1438.09 1161.66 1438.5 1161.98 1438.83C1162.31 1439.15 1162.72 1439.38 1163.18 1439.47C1163.63 1439.56 1164.1 1439.51 1164.52 1439.33C1164.95 1439.16 1165.31 1438.86 1165.57 1438.47C1165.82 1438.09 1165.96 1437.64 1165.96 1437.18C1165.96 1436.56 1165.71 1435.97 1165.28 1435.53C1164.84 1435.1 1164.25 1434.85 1163.63 1434.85Z" fill="black"/>
<path d="M899.61 2280.42C897.962 2280.42 896.352 2279.93 894.982 2279.02C893.612 2278.1 892.544 2276.8 891.914 2275.28C891.283 2273.76 891.118 2272.08 891.44 2270.46C891.761 2268.85 892.555 2267.36 893.72 2266.2C894.885 2265.03 896.369 2264.24 897.985 2263.92C899.601 2263.6 901.275 2263.76 902.798 2264.39C904.32 2265.02 905.621 2266.09 906.536 2267.46C907.451 2268.83 907.94 2270.44 907.94 2272.09C907.935 2274.3 907.055 2276.41 905.494 2277.97C903.933 2279.54 901.817 2280.41 899.61 2280.42ZM899.61 2269.76C899.149 2269.76 898.699 2269.9 898.315 2270.15C897.932 2270.41 897.633 2270.77 897.457 2271.2C897.281 2271.62 897.235 2272.09 897.325 2272.54C897.414 2273 897.636 2273.41 897.962 2273.74C898.288 2274.06 898.703 2274.29 899.155 2274.38C899.607 2274.47 900.076 2274.42 900.501 2274.24C900.927 2274.07 901.291 2273.77 901.547 2273.38C901.803 2273 901.94 2272.55 901.94 2272.09C901.94 2271.47 901.694 2270.88 901.257 2270.44C900.82 2270.01 900.228 2269.76 899.61 2269.76Z" fill="black"/>
<path d="M812.16 443.85C810.513 443.848 808.903 443.358 807.535 442.441C806.166 441.525 805.1 440.223 804.471 438.701C803.842 437.178 803.679 435.504 804.001 433.889C804.324 432.274 805.118 430.79 806.283 429.626C807.449 428.462 808.933 427.67 810.548 427.349C812.164 427.029 813.838 427.194 815.36 427.825C816.881 428.456 818.182 429.523 819.097 430.893C820.012 432.263 820.5 433.873 820.5 435.52C820.497 437.73 819.617 439.849 818.054 441.411C816.49 442.973 814.37 443.85 812.16 443.85ZM812.16 433.19C811.699 433.192 811.25 433.33 810.868 433.587C810.486 433.845 810.189 434.209 810.014 434.635C809.84 435.061 809.795 435.529 809.886 435.981C809.977 436.432 810.2 436.846 810.526 437.171C810.852 437.496 811.267 437.717 811.719 437.806C812.171 437.895 812.639 437.848 813.064 437.672C813.489 437.495 813.852 437.196 814.108 436.813C814.363 436.43 814.5 435.98 814.5 435.52C814.497 434.901 814.249 434.308 813.811 433.872C813.372 433.435 812.779 433.19 812.16 433.19Z" fill="black"/>
<path d="M1092.15 1969.63C1076.89 1969.63 1062.02 1968.96 1047.7 1967.63C1046.9 1967.56 1046.17 1967.17 1045.66 1966.55C1045.15 1965.94 1044.91 1965.15 1044.98 1964.35C1045.05 1963.55 1045.44 1962.82 1046.06 1962.31C1046.67 1961.8 1047.46 1961.56 1048.26 1961.63C1073.42 1963.87 1098.71 1964.2 1123.92 1962.63C1124.72 1962.58 1125.5 1962.85 1126.09 1963.38C1126.69 1963.91 1127.05 1964.65 1127.1 1965.45C1127.15 1966.25 1126.88 1967.03 1126.35 1967.62C1125.82 1968.22 1125.08 1968.58 1124.28 1968.63C1113.41 1969.31 1102.68 1969.63 1092.15 1969.63ZM1035.79 1966.32H1035.42C1023.61 1964.86 1012 1962.93 1000.92 1960.56C1000.17 1960.36 999.53 1959.89 999.126 1959.23C998.721 1958.57 998.586 1957.78 998.749 1957.03C998.911 1956.27 999.358 1955.61 999.997 1955.18C1000.64 1954.74 1001.42 1954.57 1002.18 1954.7C1013.08 1957.03 1024.51 1958.93 1036.18 1960.36C1036.57 1960.38 1036.96 1960.49 1037.31 1960.66C1037.67 1960.83 1037.99 1961.07 1038.25 1961.37C1038.51 1961.67 1038.71 1962.01 1038.84 1962.38C1038.97 1962.76 1039.02 1963.15 1038.99 1963.55C1038.97 1963.94 1038.87 1964.32 1038.7 1964.68C1038.52 1965.03 1038.28 1965.35 1037.99 1965.61C1037.69 1965.87 1037.35 1966.07 1036.97 1966.2C1036.6 1966.33 1036.2 1966.38 1035.81 1966.36L1035.79 1966.32ZM988.24 1957.51C987.99 1957.51 987.742 1957.48 987.5 1957.42C976.6 1954.67 965.8 1951.37 955.38 1947.62C954.982 1947.51 954.611 1947.32 954.29 1947.06C953.969 1946.8 953.705 1946.48 953.515 1946.12C953.324 1945.75 953.21 1945.35 953.182 1944.94C953.153 1944.53 953.209 1944.11 953.347 1943.72C953.484 1943.34 953.701 1942.98 953.983 1942.68C954.264 1942.38 954.605 1942.14 954.983 1941.97C955.362 1941.81 955.77 1941.73 956.182 1941.73C956.595 1941.73 957.002 1941.81 957.38 1941.98C967.6 1945.66 978.22 1948.9 988.93 1951.6C989.64 1951.78 990.26 1952.21 990.675 1952.81C991.089 1953.42 991.268 1954.15 991.178 1954.88C991.088 1955.6 990.736 1956.27 990.187 1956.76C989.639 1957.24 988.932 1957.51 988.2 1957.51H988.24ZM943.33 1942.77C942.938 1942.77 942.55 1942.69 942.19 1942.54C936.38 1940.15 930.56 1937.54 924.89 1934.81C924.524 1934.65 924.195 1934.41 923.922 1934.12C923.649 1933.82 923.438 1933.48 923.301 1933.1C923.163 1932.72 923.103 1932.32 923.123 1931.92C923.144 1931.52 923.244 1931.13 923.419 1930.77C923.593 1930.41 923.838 1930.08 924.139 1929.82C924.441 1929.56 924.792 1929.35 925.172 1929.23C925.553 1929.1 925.955 1929.05 926.355 1929.08C926.754 1929.11 927.144 1929.23 927.5 1929.41C933.06 1932.09 938.77 1934.65 944.5 1937C945.139 1937.27 945.667 1937.75 945.994 1938.36C946.32 1938.97 946.425 1939.67 946.291 1940.35C946.157 1941.03 945.791 1941.64 945.257 1942.08C944.723 1942.52 944.052 1942.77 943.36 1942.77H943.33ZM902.45 1922.25C901.904 1922.25 901.368 1922.1 900.9 1921.82C848.34 1890.15 808.19 1843.93 781.58 1784.43C761.44 1739.43 750.02 1686.89 750.25 1640.33V1640.21C750.97 1623.42 752.56 1603.89 755.15 1582.63C727.64 1585.63 698.55 1583.38 668.09 1574.1C649.03 1568.29 632.79 1559.92 619.82 1549.21C619.488 1548.97 619.209 1548.66 619 1548.31C618.791 1547.96 618.657 1547.57 618.605 1547.16C618.553 1546.75 618.585 1546.34 618.699 1545.95C618.812 1545.55 619.006 1545.19 619.266 1544.87C619.527 1544.56 619.85 1544.3 620.214 1544.11C620.579 1543.92 620.978 1543.81 621.387 1543.79C621.796 1543.76 622.206 1543.82 622.591 1543.96C622.977 1544.09 623.331 1544.31 623.63 1544.59C636 1554.78 651.54 1562.78 669.84 1568.36C699.94 1577.53 728.74 1579.68 755.93 1576.48C771.02 1459.92 816.26 1295.29 916.93 1238.22C960.69 1213.42 992.69 1209.49 1012.04 1226.52C1038.63 1249.92 1033.1 1309.67 1013.9 1356.6V1356.69C978.15 1436.28 886.62 1564.23 761.28 1581.86C758.6 1603.51 756.98 1623.38 756.28 1640.41C756.07 1686.14 767.28 1737.73 787.09 1781.98C813.19 1840.34 852.53 1885.66 904.03 1916.68C904.592 1917.02 905.027 1917.53 905.27 1918.14C905.512 1918.75 905.548 1919.42 905.372 1920.05C905.197 1920.69 904.818 1921.24 904.296 1921.64C903.774 1922.04 903.136 1922.25 902.48 1922.25H902.45ZM982.26 1222.25C965.78 1222.25 944.76 1229.33 919.93 1243.4C821.63 1299.11 777.14 1460.4 762.07 1575.62C884.07 1557.49 973.36 1432.24 1008.4 1354.24C1017.79 1331.24 1023.55 1305.61 1024.21 1283.83C1024.72 1266.64 1022.35 1243.51 1008.11 1230.98C1001.49 1225.19 992.81 1222.29 982.26 1222.29V1222.25ZM613.56 1542.39C613.161 1542.39 612.767 1542.31 612.399 1542.16C612.032 1542 611.699 1541.77 611.42 1541.49C603.18 1533.09 596.4 1523.37 591.36 1512.73C591.018 1512.01 590.975 1511.19 591.241 1510.44C591.508 1509.69 592.061 1509.07 592.78 1508.73C593.499 1508.39 594.324 1508.35 595.074 1508.61C595.824 1508.88 596.438 1509.43 596.78 1510.15C601.531 1520.19 607.926 1529.36 615.7 1537.29C616.262 1537.85 616.577 1538.62 616.577 1539.41C616.577 1540.21 616.262 1540.97 615.7 1541.53C615.421 1541.81 615.088 1542.04 614.72 1542.2C614.353 1542.35 613.958 1542.43 613.56 1542.43V1542.39ZM588.21 1499.39C587.57 1499.39 586.948 1499.18 586.434 1498.8C585.919 1498.42 585.539 1497.89 585.35 1497.28C582.358 1487.51 580.414 1477.46 579.55 1467.28C579.514 1466.89 579.557 1466.49 579.675 1466.11C579.793 1465.73 579.984 1465.38 580.238 1465.08C580.749 1464.47 581.484 1464.08 582.28 1464.01C583.075 1463.94 583.867 1464.19 584.48 1464.7C585.093 1465.21 585.478 1465.94 585.55 1466.74C586.378 1476.48 588.238 1486.1 591.1 1495.45C591.217 1495.83 591.258 1496.23 591.221 1496.62C591.184 1497.01 591.069 1497.4 590.883 1497.75C590.697 1498.1 590.444 1498.41 590.138 1498.66C589.832 1498.91 589.479 1499.1 589.1 1499.21C588.819 1499.35 588.519 1499.43 588.21 1499.47V1499.39ZM582.13 1443H582C581.606 1442.98 581.219 1442.88 580.863 1442.71C580.507 1442.54 580.188 1442.3 579.924 1442.01C579.66 1441.72 579.457 1441.37 579.326 1441C579.195 1440.63 579.138 1440.23 579.16 1439.84C581.4 1397.3 596.03 1346.84 622.63 1289.98C644.464 1243.77 670.454 1199.64 700.28 1158.13C700.747 1157.49 701.45 1157.05 702.236 1156.93C703.022 1156.8 703.825 1156.99 704.47 1157.46C705.114 1157.93 705.547 1158.63 705.673 1159.42C705.798 1160.2 705.607 1161.01 705.14 1161.65C675.508 1202.85 649.688 1246.67 628 1292.55C601.72 1348.75 587.28 1398.42 585.08 1440.19C585.032 1440.94 584.702 1441.65 584.155 1442.17C583.608 1442.69 582.885 1442.99 582.13 1443Z" fill="black"/>
<path d="M2536.93 1000.07C2529.85 1000.07 2522.93 999.76 2516.32 999.14C2516.16 998.539 2515.82 998.001 2515.35 997.595C2514.88 997.19 2514.3 996.937 2513.68 996.87C2513.07 996.803 2512.44 996.924 2511.9 997.219C2511.35 997.514 2510.9 997.967 2510.62 998.52C2505.18 997.86 2499.8 996.96 2494.62 995.86C2493.84 995.693 2493.16 995.223 2492.73 994.555C2492.3 993.886 2492.15 993.073 2492.31 992.295C2492.48 991.517 2492.95 990.836 2493.62 990.404C2494.29 989.972 2495.1 989.823 2495.88 989.99C2500.88 991.05 2506.09 991.92 2511.36 992.57C2511.5 993.165 2511.82 993.702 2512.27 994.107C2512.73 994.512 2513.3 994.765 2513.91 994.831C2514.51 994.897 2515.13 994.772 2515.66 994.475C2516.19 994.177 2516.62 993.721 2516.88 993.17C2528.37 994.194 2539.92 994.351 2551.44 993.64C2552.24 993.592 2553.02 993.863 2553.61 994.391C2554.21 994.92 2554.57 995.664 2554.62 996.46C2554.67 997.256 2554.4 998.038 2553.87 998.634C2553.34 999.23 2552.6 999.592 2551.8 999.64C2546.77 999.92 2541.8 1000.07 2536.93 1000.07ZM2489.12 994.5C2488.87 994.501 2488.62 994.467 2488.38 994.4C2483.27 993.11 2478.25 991.58 2473.46 989.85C2472.77 989.545 2472.21 988.989 2471.91 988.294C2471.61 987.598 2471.58 986.815 2471.84 986.1C2472.09 985.386 2472.61 984.794 2473.28 984.443C2473.95 984.093 2474.73 984.009 2475.46 984.21C2480.06 985.87 2484.89 987.34 2489.82 988.59C2490.53 988.768 2491.15 989.2 2491.57 989.805C2491.98 990.41 2492.16 991.145 2492.07 991.873C2491.98 992.6 2491.62 993.269 2491.07 993.753C2490.52 994.237 2489.81 994.503 2489.08 994.5H2489.12ZM2468.47 987.71C2468.08 987.712 2467.69 987.637 2467.33 987.49C2464.65 986.39 2461.94 985.18 2459.33 983.89C2458.98 983.718 2458.66 983.478 2458.4 983.183C2458.13 982.888 2457.93 982.545 2457.8 982.173C2457.68 981.8 2457.62 981.406 2457.64 981.013C2457.67 980.619 2457.77 980.235 2457.94 979.88C2458.11 979.525 2458.35 979.208 2458.65 978.946C2458.94 978.685 2459.28 978.483 2459.66 978.354C2460.03 978.225 2460.42 978.171 2460.82 978.194C2461.21 978.217 2461.6 978.318 2461.95 978.49C2464.5 979.73 2467.09 980.88 2469.66 981.94C2470.3 982.206 2470.83 982.685 2471.15 983.296C2471.48 983.907 2471.59 984.612 2471.45 985.291C2471.32 985.971 2470.95 986.583 2470.42 987.024C2469.88 987.465 2469.21 987.707 2468.52 987.71H2468.47ZM2449.66 978.28C2449.11 978.28 2448.58 978.132 2448.11 977.85C2396.11 946.49 2377.84 887.75 2378.04 846.97V846.86C2378.35 839.63 2379.04 831.31 2380.04 822.26C2367 823.388 2353.87 821.965 2341.37 818.07C2333.08 815.693 2325.34 811.699 2318.6 806.32C2318.2 805.976 2317.89 805.531 2317.71 805.03C2317.54 804.529 2317.5 803.991 2317.6 803.47C2317.08 803.613 2316.54 803.615 2316.02 803.476C2315.51 803.337 2315.03 803.062 2314.66 802.68C2310.74 798.685 2307.52 794.065 2305.12 789.01C2304.95 788.654 2304.85 788.268 2304.83 787.875C2304.81 787.481 2304.87 787.087 2305 786.716C2305.27 785.966 2305.82 785.352 2306.54 785.01C2307.26 784.668 2308.08 784.625 2308.83 784.892C2309.58 785.158 2310.2 785.711 2310.54 786.43C2312.66 790.868 2315.49 794.923 2318.94 798.43C2318.82 798.904 2318.84 799.4 2318.98 799.867C2319.12 800.333 2319.39 800.753 2319.75 801.082C2320.11 801.412 2320.55 801.638 2321.03 801.738C2321.5 801.838 2322 801.807 2322.46 801.65C2328.59 806.522 2335.62 810.138 2343.15 812.29C2355.33 816.089 2368.15 817.382 2380.84 816.09C2388 762.26 2409 687 2455.54 660.62C2476.34 648.83 2491.69 647.09 2501.16 655.43C2507.36 660.88 2510.43 670.43 2510.05 683.15C2509.48 694.815 2506.91 706.295 2502.45 717.09V717.18C2485.97 753.86 2443.93 812.63 2386.25 821.51C2384.81 833.51 2384.25 842.51 2384.08 847.06C2383.9 886.26 2401.38 942.66 2451.25 972.71C2451.81 973.048 2452.25 973.561 2452.49 974.171C2452.73 974.78 2452.77 975.452 2452.59 976.084C2452.42 976.716 2452.04 977.273 2451.52 977.669C2450.99 978.066 2450.36 978.28 2449.7 978.28H2449.66ZM2486.34 656.28C2479.09 656.28 2469.69 659.48 2458.5 665.83C2434.97 679.16 2415.33 708.22 2401.72 749.83C2394.88 771.166 2389.95 793.069 2387 815.28C2441.32 805.91 2481.14 749.85 2496.91 714.77C2504.91 695.12 2507.77 669.24 2497.2 659.93C2494.44 657.5 2490.79 656.29 2486.34 656.29V656.28ZM2305.12 783.81C2304.48 783.809 2303.86 783.604 2303.34 783.224C2302.83 782.845 2302.45 782.311 2302.26 781.7C2300.85 777.106 2299.93 772.377 2299.52 767.59C2299.45 766.794 2299.69 766.002 2300.2 765.388C2300.72 764.774 2301.45 764.388 2302.24 764.315C2303.04 764.242 2303.83 764.488 2304.45 764.999C2305.06 765.51 2305.45 766.244 2305.52 767.04C2305.89 771.408 2306.72 775.725 2308 779.92C2308.14 780.369 2308.17 780.844 2308.09 781.307C2308.02 781.77 2307.83 782.209 2307.55 782.587C2307.27 782.965 2306.91 783.273 2306.49 783.486C2306.07 783.698 2305.61 783.809 2305.14 783.81H2305.12ZM2302.32 757.81H2302.16C2301.77 757.789 2301.38 757.691 2301.02 757.521C2300.67 757.352 2300.35 757.113 2300.08 756.819C2299.82 756.526 2299.62 756.183 2299.49 755.811C2299.35 755.439 2299.3 755.044 2299.32 754.65C2300.32 734.88 2307.15 711.48 2319.48 685.12C2329.56 663.77 2341.57 643.383 2355.35 624.21C2355.83 623.601 2356.52 623.201 2357.29 623.094C2358.06 622.986 2358.84 623.179 2359.46 623.632C2360.09 624.086 2360.52 624.764 2360.66 625.526C2360.8 626.288 2360.64 627.074 2360.21 627.72C2336.21 660.94 2307.47 714.19 2305.32 754.97C2305.29 755.745 2304.96 756.477 2304.4 757.014C2303.84 757.551 2303.1 757.851 2302.32 757.85V757.81Z" fill="#FEDA00"/>
<path d="M2483.57 2240.22C2482.41 2240.22 2481.26 2240.22 2480.12 2240.22C2451.12 2239.71 2425.63 2232.81 2404.29 2219.7C2362.75 2194.2 2344.29 2149.04 2340.8 2115.29C2340.76 2114.9 2340.8 2114.5 2340.91 2114.12C2341.02 2113.74 2341.21 2113.39 2341.46 2113.08C2341.71 2112.77 2342.02 2112.52 2342.37 2112.33C2342.71 2112.14 2343.1 2112.02 2343.49 2111.98C2343.88 2111.94 2344.28 2111.98 2344.66 2112.09C2345.04 2112.2 2345.39 2112.39 2345.7 2112.64C2346.01 2112.89 2346.26 2113.2 2346.45 2113.55C2346.64 2113.89 2346.76 2114.28 2346.8 2114.67C2350.12 2147 2367.8 2190.23 2407.46 2214.58C2427.89 2227.13 2452.38 2233.73 2480.26 2234.22C2512.6 2234.8 2549.76 2227.1 2590.68 2211.36C2591.42 2211.07 2592.25 2211.09 2592.98 2211.42C2593.7 2211.74 2594.27 2212.34 2594.56 2213.08C2594.85 2213.82 2594.83 2214.65 2594.5 2215.38C2594.18 2216.1 2593.58 2216.67 2592.84 2216.96C2552.6 2232.39 2515.87 2240.22 2483.57 2240.22Z" fill="black"/>
<path d="M2578 1418.2C2577.37 1418.2 2576.75 1418 2576.24 1417.63L2546.88 1396.27C2546.56 1396.04 2546.29 1395.75 2546.08 1395.41C2545.88 1395.08 2545.74 1394.7 2545.68 1394.31C2545.61 1393.92 2545.63 1393.53 2545.72 1393.14C2545.81 1392.76 2545.98 1392.4 2546.21 1392.08C2546.44 1391.76 2546.73 1391.49 2547.07 1391.28C2547.4 1391.08 2547.78 1390.94 2548.17 1390.88C2548.56 1390.82 2548.95 1390.83 2549.34 1390.92C2549.72 1391.01 2550.08 1391.18 2550.4 1391.41L2579.77 1412.77C2580.28 1413.14 2580.67 1413.67 2580.86 1414.27C2581.06 1414.88 2581.06 1415.53 2580.86 1416.13C2580.67 1416.73 2580.28 1417.26 2579.77 1417.63C2579.25 1418 2578.63 1418.2 2578 1418.2Z" fill="black"/>
<path d="M1085.62 924.32C1084.99 924.32 1084.37 924.121 1083.86 923.75L1054.5 902.4C1054.18 902.169 1053.91 901.877 1053.7 901.542C1053.5 901.206 1053.36 900.833 1053.3 900.444C1053.24 900.055 1053.25 899.657 1053.34 899.274C1053.43 898.891 1053.6 898.529 1053.83 898.21C1054.06 897.891 1054.35 897.621 1054.69 897.414C1055.02 897.208 1055.4 897.07 1055.79 897.007C1056.18 896.945 1056.57 896.96 1056.96 897.052C1057.34 897.143 1057.7 897.309 1058.02 897.54L1087.38 918.9C1087.89 919.273 1088.27 919.798 1088.46 920.399C1088.66 920.999 1088.66 921.646 1088.46 922.247C1088.27 922.847 1087.89 923.371 1087.38 923.743C1086.87 924.116 1086.25 924.317 1085.62 924.32Z" fill="black"/>
<path d="M413.33 1990.39C412.691 1990.39 412.069 1990.19 411.554 1989.81C411.039 1989.43 410.658 1988.9 410.466 1988.29C410.274 1987.68 410.281 1987.03 410.487 1986.42C410.693 1985.82 411.086 1985.3 411.61 1984.93L441.4 1964.18C442.053 1963.75 442.847 1963.59 443.614 1963.74C444.381 1963.89 445.06 1964.33 445.507 1964.97C445.953 1965.61 446.132 1966.4 446.006 1967.17C445.88 1967.94 445.458 1968.64 444.83 1969.1L415 1989.85C414.511 1990.2 413.929 1990.38 413.33 1990.39Z" fill="black"/>
<path d="M2696.34 2018.13C2695.7 2018.13 2695.08 2017.93 2694.56 2017.55C2694.05 2017.17 2693.67 2016.64 2693.48 2016.03C2693.28 2015.42 2693.29 2014.77 2693.5 2014.16C2693.7 2013.56 2694.1 2013.04 2694.62 2012.67L2724.42 1991.92C2725.07 1991.51 2725.86 1991.38 2726.61 1991.53C2727.36 1991.69 2728.03 1992.13 2728.47 1992.76C2728.9 1993.39 2729.08 1994.16 2728.97 1994.92C2728.85 1995.68 2728.45 1996.37 2727.84 1996.84L2698.05 2017.59C2697.55 2017.94 2696.95 2018.13 2696.34 2018.13Z" fill="black"/>
<path d="M347.72 586.7C347.082 586.699 346.461 586.494 345.948 586.116C345.434 585.738 345.055 585.206 344.864 584.597C344.674 583.988 344.682 583.335 344.888 582.731C345.094 582.128 345.487 581.605 346.01 581.24L375.79 560.49C376.112 560.252 376.479 560.08 376.869 559.986C377.259 559.892 377.664 559.876 378.06 559.941C378.456 560.006 378.834 560.15 379.174 560.364C379.513 560.577 379.806 560.857 380.035 561.186C380.265 561.515 380.426 561.887 380.509 562.279C380.592 562.672 380.596 563.077 380.52 563.471C380.444 563.864 380.29 564.239 380.066 564.572C379.843 564.905 379.555 565.19 379.22 565.41L349.44 586.16C348.936 586.512 348.335 586.701 347.72 586.7Z" fill="black"/>
<path d="M2153.3 611.46C2152.6 611.46 2151.93 611.216 2151.39 610.77C2150.85 610.325 2150.49 609.706 2150.36 609.02C2150.23 608.334 2150.34 607.625 2150.67 607.013C2151.01 606.402 2151.55 605.927 2152.2 605.67L2186 592.39C2186.37 592.246 2186.76 592.175 2187.15 592.182C2187.55 592.189 2187.94 592.274 2188.3 592.431C2188.66 592.589 2188.99 592.816 2189.26 593.099C2189.54 593.383 2189.75 593.718 2189.9 594.085C2190.04 594.452 2190.11 594.844 2190.1 595.239C2190.1 595.633 2190.01 596.022 2189.85 596.384C2189.7 596.746 2189.47 597.073 2189.19 597.347C2188.9 597.621 2188.57 597.836 2188.2 597.98L2154.41 611.25C2154.06 611.39 2153.68 611.461 2153.3 611.46Z" fill="black"/>
<path d="M2617.57 220.65C2617.07 220.65 2616.58 220.525 2616.14 220.286C2615.7 220.046 2615.32 219.701 2615.05 219.28L2595.3 188.82C2594.95 188.159 2594.86 187.392 2595.05 186.668C2595.23 185.944 2595.68 185.315 2596.31 184.906C2596.93 184.497 2597.69 184.336 2598.43 184.455C2599.17 184.574 2599.83 184.965 2600.3 185.55L2620.09 216C2620.3 216.331 2620.45 216.701 2620.52 217.089C2620.59 217.476 2620.59 217.874 2620.5 218.26C2620.42 218.645 2620.26 219.01 2620.04 219.335C2619.82 219.659 2619.53 219.936 2619.2 220.15C2618.72 220.471 2618.15 220.645 2617.57 220.65Z" fill="black"/>
<path d="M256.25 2572.08C255.749 2572.08 255.256 2571.95 254.816 2571.72C254.375 2571.48 254.002 2571.13 253.73 2570.71L234 2540.25C233.66 2539.59 233.576 2538.83 233.766 2538.11C233.956 2537.39 234.406 2536.77 235.028 2536.36C235.65 2535.96 236.401 2535.8 237.135 2535.91C237.868 2536.03 238.533 2536.41 239 2536.99L258.75 2567.45C259.043 2567.9 259.209 2568.43 259.229 2568.97C259.25 2569.51 259.124 2570.04 258.866 2570.51C258.608 2570.99 258.227 2571.38 257.763 2571.66C257.299 2571.93 256.77 2572.08 256.23 2572.08H256.25Z" fill="black"/>
<path d="M796.51 1152.4L533.84 1074.35L577.32 920.51L580.2 921.32L581.03 918.44L835.43 991.44L834.6 994.33L837.5 995.08L796.51 1152.4ZM541.22 1070.29L792.22 1144.88L830.3 999L679.3 1049.61L581.51 927.74L541.22 1070.29ZM588.46 926.81L681.35 1042.55L824.5 994.55L588.46 926.81Z" fill="black"/>
<path d="M2361.2 2096.24L2212.55 2088.24L2216.04 2001.73L2219.04 2001.85L2219.17 1998.85L2360.08 2005.11L2359.95 2008.11L2362.95 2008.17L2361.2 2096.24ZM2218.79 2082.59L2355.32 2089.92L2356.84 2013.62L2286.23 2057.74L2221.8 2007.82L2218.79 2082.59ZM2228.35 2005.3L2286.59 2050.44L2350.18 2010.71L2228.35 2005.3Z" fill="black"/>
<path d="M1368 540.46L1242.64 426.05L1308.26 352.21L1310.5 354.21L1312.5 351.97L1432.87 459.84L1430.87 462.07L1433.15 464.02L1368 540.46ZM1251.1 425.61L1367.46 531.85L1425 464.34L1329.87 452.12L1308.87 360.55L1251.1 425.61ZM1334.82 446.7L1421.72 457.87L1315.58 362.75L1334.82 446.7Z" fill="black"/>
<path d="M1751.42 467C1792.35 501.43 1786.94 573.44 1779.11 605.14C1765.63 605.14 1758.65 609.35 1756.84 611.46C1766.17 581.66 1774.9 539.53 1747.51 542.84C1688.28 549.58 1656.92 537.43 1650.4 530.61C1653.91 517.44 1700.26 424 1751.42 467Z" fill="black"/>
<path d="M1734.25 689.51C1733.61 689.51 1732.98 689.303 1732.47 688.92C1731.95 688.537 1731.57 687.998 1731.38 687.383C1731.2 686.769 1731.21 686.11 1731.43 685.504C1731.64 684.899 1732.05 684.379 1732.58 684.02C1739.95 678.803 1746.41 672.411 1751.7 665.1C1755.26 660.1 1763.01 647.84 1766.7 637.85C1766.99 637.115 1767.55 636.521 1768.27 636.198C1768.99 635.875 1769.81 635.849 1770.55 636.125C1771.29 636.401 1771.89 636.958 1772.22 637.674C1772.55 638.39 1772.59 639.208 1772.32 639.95C1768.37 650.52 1760.32 663.31 1756.54 668.59C1750.8 676.49 1742.9 684.3 1735.88 689C1735.4 689.325 1734.83 689.502 1734.25 689.51ZM1674.02 689.51C1673.36 689.512 1672.72 689.298 1672.2 688.9C1667.56 685.312 1663.57 680.948 1660.42 676L1660.35 675.88C1629.79 623.48 1641.53 556.99 1652.01 529.15C1652.15 528.781 1652.36 528.443 1652.63 528.156C1652.9 527.868 1653.22 527.636 1653.58 527.474C1653.94 527.311 1654.33 527.221 1654.72 527.209C1655.12 527.196 1655.51 527.261 1655.88 527.4C1656.25 527.54 1656.59 527.75 1656.87 528.02C1657.16 528.29 1657.39 528.613 1657.56 528.973C1657.72 529.332 1657.81 529.72 1657.82 530.114C1657.83 530.508 1657.77 530.901 1657.63 531.27C1647.5 558.17 1636.12 622.36 1665.5 672.8C1668.27 677.137 1671.77 680.96 1675.84 684.1C1676.34 684.48 1676.71 685.008 1676.89 685.609C1677.08 686.21 1677.07 686.854 1676.87 687.45C1676.67 688.046 1676.28 688.563 1675.77 688.929C1675.26 689.296 1674.65 689.492 1674.02 689.49V689.51Z" fill="black"/>
<path d="M1762.14 642.52C1760.19 642.53 1758.24 642.376 1756.31 642.06C1755.91 642.01 1755.52 641.88 1755.17 641.676C1754.82 641.472 1754.51 641.2 1754.27 640.875C1754.03 640.55 1753.86 640.179 1753.76 639.785C1753.67 639.391 1753.65 638.982 1753.72 638.582C1753.79 638.183 1753.94 637.801 1754.15 637.46C1754.37 637.119 1754.66 636.826 1755 636.599C1755.33 636.372 1755.71 636.215 1756.11 636.138C1756.5 636.061 1756.91 636.065 1757.31 636.15C1764.55 637.4 1781.68 635.97 1785.44 623.54C1787.58 616.48 1786.54 610.37 1782.57 606.78C1778.82 603.39 1773.03 602.85 1767.09 605.34C1766.36 605.648 1765.53 605.651 1764.79 605.349C1764.05 605.047 1763.47 604.465 1763.16 603.73C1762.85 602.995 1762.85 602.169 1763.15 601.432C1763.45 600.695 1764.04 600.108 1764.77 599.8C1772.92 596.4 1781.08 597.34 1786.59 602.33C1792.27 607.46 1793.99 616.04 1791.18 625.33C1789.03 632.43 1783.52 637.66 1775.24 640.46C1771.01 641.846 1766.59 642.542 1762.14 642.52Z" fill="black"/>
<path d="M1770.35 635.25L1752.77 669.59C1752.77 669.59 1750.69 658.43 1750.77 651.22C1750.77 644.51 1752.77 634.17 1752.77 634.17C1759.07 636.05 1766.42 635.65 1770.35 635.25Z" fill="black"/>
<path d="M1659.1 653L1662.9 646.54C1672.67 629.93 1678.42 597.93 1673.7 586.48C1669.19 575.57 1653.19 571.9 1646.58 571.9C1645.78 571.9 1645.02 571.584 1644.46 571.022C1643.9 570.459 1643.58 569.696 1643.58 568.9C1643.58 568.105 1643.9 567.342 1644.46 566.779C1645.02 566.216 1645.78 565.9 1646.58 565.9C1653.09 565.9 1673.07 569.26 1679.24 584.19C1684.51 596.96 1679.45 625.19 1671.37 643.13C1675.64 641.37 1680.98 637.85 1687.82 629.07C1688.31 628.442 1689.03 628.033 1689.82 627.935C1690.61 627.836 1691.41 628.056 1692.04 628.545C1692.66 629.035 1693.07 629.754 1693.17 630.544C1693.27 631.335 1693.05 632.132 1692.56 632.76C1681.47 646.99 1673.28 649.12 1667.86 650.53L1666.32 650.94L1659.1 653Z" fill="black"/>
<path d="M1740.79 583.64C1740.01 583.637 1739.26 583.328 1738.7 582.78C1733.47 577.68 1720.36 570.84 1708.17 581.47C1707.57 581.96 1706.8 582.196 1706.02 582.129C1705.25 582.062 1704.53 581.697 1704.02 581.111C1703.51 580.525 1703.25 579.764 1703.28 578.988C1703.32 578.212 1703.66 577.481 1704.23 576.95C1711 571.04 1727.79 563.77 1742.88 578.49C1743.31 578.906 1743.6 579.44 1743.72 580.024C1743.85 580.608 1743.79 581.216 1743.57 581.768C1743.34 582.321 1742.96 582.795 1742.46 583.128C1741.97 583.461 1741.39 583.64 1740.79 583.64Z" fill="black"/>
<path d="M1696.77 661.35C1696.01 661.352 1695.25 661.309 1694.49 661.22C1694.1 661.17 1693.72 661.043 1693.37 660.846C1693.03 660.65 1692.72 660.387 1692.48 660.073C1691.99 659.439 1691.77 658.636 1691.87 657.84C1691.97 657.045 1692.38 656.321 1693.02 655.83C1693.65 655.339 1694.45 655.119 1695.25 655.22C1699.06 655.7 1707.53 654.62 1712.25 647.1C1712.46 646.767 1712.73 646.478 1713.06 646.25C1713.38 646.022 1713.74 645.86 1714.13 645.773C1714.51 645.685 1714.91 645.675 1715.3 645.741C1715.68 645.808 1716.06 645.95 1716.39 646.16C1716.72 646.37 1717.01 646.644 1717.24 646.966C1717.47 647.288 1717.63 647.651 1717.72 648.036C1717.8 648.42 1717.82 648.818 1717.75 649.206C1717.68 649.595 1717.54 649.967 1717.33 650.3C1711.82 659.13 1702.47 661.35 1696.77 661.35Z" fill="black"/>
<path d="M1757.77 626.13C1757.24 626.13 1756.71 625.987 1756.25 625.716C1755.79 625.445 1755.41 625.056 1755.15 624.589C1754.89 624.122 1754.76 623.594 1754.77 623.06C1754.78 622.526 1754.94 622.004 1755.22 621.55C1757.95 617.15 1766.22 609.22 1778.07 610.65C1778.87 610.746 1779.59 611.153 1780.09 611.783C1780.58 612.413 1780.81 613.214 1780.71 614.01C1780.61 614.806 1780.21 615.531 1779.58 616.026C1778.95 616.521 1778.15 616.746 1777.35 616.65C1768.52 615.6 1762.35 621.49 1760.35 624.76C1760.07 625.189 1759.69 625.541 1759.24 625.78C1758.79 626.02 1758.28 626.14 1757.77 626.13Z" fill="black"/>
<path d="M1706.81 601.54C1706.14 601.54 1705.49 601.315 1704.96 600.9C1704.65 600.657 1704.39 600.355 1704.19 600.011C1704 599.667 1703.88 599.288 1703.83 598.896C1703.78 598.504 1703.81 598.107 1703.92 597.726C1704.02 597.346 1704.21 596.991 1704.45 596.68C1708 592.18 1714.55 587.29 1722.3 587.1C1728.94 586.91 1735.18 590.1 1740.81 596.57C1741.3 597.174 1741.54 597.944 1741.47 598.718C1741.4 599.492 1741.04 600.21 1740.45 600.721C1739.86 601.232 1739.1 601.495 1738.33 601.456C1737.55 601.416 1736.82 601.077 1736.29 600.51C1731.89 595.51 1727.23 592.98 1722.45 593.1C1716.78 593.24 1711.75 597.1 1709.17 600.4C1708.89 600.757 1708.53 601.044 1708.12 601.242C1707.71 601.439 1707.26 601.541 1706.81 601.54Z" fill="black"/>
<path d="M1645 600.39C1644.32 600.389 1643.67 600.16 1643.14 599.74C1642.52 599.248 1642.11 598.528 1642.02 597.738C1641.93 596.949 1642.15 596.155 1642.64 595.53C1646.19 591.02 1652.75 586.14 1660.5 585.94C1667.12 585.8 1673.38 588.94 1679 595.41C1679.26 595.707 1679.46 596.052 1679.59 596.427C1679.72 596.802 1679.78 597.198 1679.75 597.594C1679.73 597.989 1679.63 598.376 1679.45 598.733C1679.28 599.089 1679.04 599.407 1678.74 599.67C1678.44 599.933 1678.1 600.134 1677.72 600.263C1677.35 600.392 1676.95 600.446 1676.56 600.422C1676.16 600.398 1675.77 600.296 1675.42 600.123C1675.06 599.949 1674.74 599.707 1674.48 599.41C1670.08 594.41 1665.4 591.87 1660.65 591.99C1654.97 592.13 1649.94 595.99 1647.36 599.29C1647.07 599.639 1646.71 599.919 1646.31 600.109C1645.9 600.3 1645.45 600.396 1645 600.39Z" fill="black"/>
<path d="M1722.68 604.22C1726.26 604.22 1729.17 601.315 1729.17 597.73C1729.17 594.146 1726.26 591.24 1722.68 591.24C1719.1 591.24 1716.19 594.146 1716.19 597.73C1716.19 601.315 1719.1 604.22 1722.68 604.22Z" fill="black"/>
<path d="M1660.85 603.07C1664.43 603.07 1667.34 600.165 1667.34 596.58C1667.34 592.996 1664.43 590.09 1660.85 590.09C1657.27 590.09 1654.36 592.996 1654.36 596.58C1654.36 600.165 1657.27 603.07 1660.85 603.07Z" fill="black"/>
<path d="M2088.53 2423.11L2086 2421.57C2052.24 2401.05 1910.62 2304.03 1834.61 2204.29C1770.07 2119.59 1724.36 2012.82 1698.76 1886.94C1683.96 1814.15 1677.95 1744.94 1676.18 1687.1L1621.7 2406.54H1242.46L1340.68 1945.11L1346.54 1946.35L1249.88 2400.54H1616.14L1676.25 1606.77L1682.25 1607.1C1680.09 1673.34 1682.25 1775.46 1704.65 1885.75C1730.07 2010.75 1775.4 2116.68 1839.4 2200.65C1913.07 2297.34 2049.05 2391.55 2086.61 2414.9L2253.8 2148.9L2014.44 1938.68L2018.44 1934.18L2261.64 2147.76L2088.53 2423.11Z" fill="black"/>
<path d="M1911.45 1923.99L1906.12 1926.74L2126.29 2354.04L2131.62 2351.29L1911.45 1923.99Z" fill="black"/>
<path d="M1501.32 788.62H1501.11C1475.84 786.85 1439.74 780.36 1384.38 745.62C1352.67 725.74 1320.61 720.95 1317.06 720.47L1312.76 719.89L1365.49 622.28L1367.94 623.19C1368.81 623.51 1389.56 631.26 1403.35 639.83C1417.57 648.65 1429.44 657.22 1440.92 665.51C1462.84 681.34 1481.78 695.01 1509.26 704.69C1537.67 714.69 1571.88 718.9 1595.57 720.69C1595.96 720.719 1596.35 720.825 1596.7 721.003C1597.05 721.18 1597.37 721.425 1597.63 721.724C1597.88 722.023 1598.08 722.37 1598.21 722.745C1598.33 723.12 1598.38 723.516 1598.35 723.91C1598.32 724.304 1598.21 724.689 1598.04 725.042C1597.86 725.394 1597.61 725.709 1597.32 725.967C1597.02 726.225 1596.67 726.422 1596.29 726.546C1595.92 726.67 1595.52 726.719 1595.13 726.69C1571.07 724.91 1536.3 720.69 1507.26 710.41C1478.97 700.41 1459.71 686.54 1437.41 670.41C1426.01 662.19 1414.23 653.68 1400.19 644.96C1389.6 638.39 1374.19 632.1 1368.28 629.79L1322.11 715.24C1345.31 719.545 1367.51 728.138 1387.56 740.58C1441.8 774.58 1476.96 780.93 1501.56 782.65C1501.95 782.664 1502.34 782.755 1502.7 782.919C1503.06 783.082 1503.38 783.315 1503.65 783.603C1503.92 783.891 1504.13 784.23 1504.27 784.599C1504.4 784.968 1504.47 785.361 1504.45 785.755C1504.44 786.149 1504.35 786.537 1504.19 786.895C1504.02 787.254 1503.79 787.577 1503.5 787.846C1503.21 788.115 1502.88 788.324 1502.51 788.462C1502.14 788.6 1501.74 788.664 1501.35 788.65L1501.32 788.62Z" fill="black"/>
<path d="M1506.05 728.22C1505.9 728.23 1505.74 728.23 1505.59 728.22C1463.86 721.82 1401.59 685.12 1387.48 669.08C1386.95 668.484 1386.68 667.7 1386.72 666.903C1386.77 666.106 1387.13 665.361 1387.73 664.83C1388.33 664.3 1389.11 664.028 1389.91 664.075C1390.7 664.122 1391.45 664.484 1391.98 665.08C1405.64 680.57 1465.98 716.08 1506.5 722.26C1507.3 722.32 1508.03 722.693 1508.56 723.298C1509.08 723.903 1509.33 724.69 1509.27 725.485C1509.22 726.281 1508.84 727.02 1508.24 727.541C1507.63 728.061 1506.85 728.32 1506.05 728.26V728.22ZM1407.28 721.7C1406.91 721.697 1406.55 721.629 1406.2 721.5C1385.72 713.62 1361.1 706.98 1350.94 704.57C1350.17 704.387 1349.5 703.904 1349.08 703.227C1348.66 702.55 1348.53 701.735 1348.71 700.96C1348.89 700.186 1349.38 699.516 1350.05 699.098C1350.73 698.679 1351.55 698.547 1352.32 698.73C1362.62 701.18 1387.57 707.91 1408.32 715.9C1408.97 716.152 1409.52 716.625 1409.86 717.236C1410.2 717.848 1410.32 718.56 1410.19 719.249C1410.06 719.939 1409.7 720.561 1409.16 721.009C1408.62 721.456 1407.94 721.701 1407.24 721.7H1407.28Z" fill="black"/>
<path d="M1272.56 726.12C1271.89 726.119 1271.23 725.891 1270.71 725.474C1270.18 725.057 1269.81 724.474 1269.65 723.82C1269.49 723.166 1269.56 722.478 1269.84 721.867C1270.12 721.256 1270.6 720.757 1271.2 720.45C1284.2 713.83 1306.2 712.71 1317.2 714.45C1317.6 714.496 1317.99 714.623 1318.34 714.823C1318.7 715.024 1319 715.293 1319.25 715.616C1319.49 715.938 1319.67 716.307 1319.77 716.7C1319.87 717.093 1319.89 717.501 1319.82 717.902C1319.76 718.302 1319.62 718.685 1319.4 719.028C1319.18 719.371 1318.9 719.666 1318.57 719.897C1318.24 720.128 1317.86 720.289 1317.46 720.37C1317.07 720.451 1316.66 720.451 1316.26 720.37C1306.37 718.8 1285.62 719.82 1273.94 725.78C1273.51 726.003 1273.04 726.119 1272.56 726.12ZM1323.9 707.27C1314.41 707.27 1280.77 696.83 1276.85 695.61C1276.47 695.492 1276.12 695.301 1275.82 695.048C1275.52 694.795 1275.27 694.484 1275.09 694.135C1274.91 693.785 1274.79 693.403 1274.76 693.01C1274.72 692.617 1274.77 692.222 1274.89 691.845C1275 691.469 1275.19 691.12 1275.45 690.817C1275.7 690.515 1276.01 690.266 1276.36 690.083C1276.71 689.901 1277.09 689.789 1277.49 689.754C1277.88 689.719 1278.27 689.762 1278.65 689.88C1297.25 695.7 1319.55 701.68 1324.21 701.26C1324.6 701.226 1325 701.27 1325.38 701.389C1325.75 701.508 1326.1 701.701 1326.41 701.955C1326.71 702.21 1326.96 702.521 1327.14 702.872C1327.32 703.223 1327.44 703.606 1327.47 704C1327.5 704.394 1327.46 704.791 1327.34 705.168C1327.22 705.545 1327.03 705.895 1326.78 706.198C1326.52 706.501 1326.21 706.75 1325.86 706.932C1325.51 707.115 1325.12 707.226 1324.73 707.26C1324.48 707.26 1324.2 707.27 1323.9 707.27ZM1332.26 692.36H1331.9C1320.09 690.92 1294.31 686.17 1281.29 678.36C1280.61 677.952 1280.11 677.289 1279.92 676.517C1279.73 675.745 1279.85 674.928 1280.26 674.245C1280.66 673.562 1281.33 673.07 1282.1 672.876C1282.87 672.682 1283.69 672.802 1284.37 673.21C1296.52 680.45 1321.25 684.97 1332.62 686.35C1333.42 686.398 1334.16 686.76 1334.69 687.356C1335.22 687.953 1335.49 688.735 1335.44 689.53C1335.39 690.326 1335.03 691.07 1334.43 691.599C1333.84 692.128 1333.06 692.398 1332.26 692.35V692.36ZM1341.47 672.75C1326.97 672.75 1287.91 663.57 1286.2 663.16C1285.8 663.088 1285.42 662.935 1285.08 662.71C1284.74 662.485 1284.45 662.193 1284.22 661.852C1284 661.511 1283.85 661.128 1283.78 660.727C1283.71 660.325 1283.72 659.913 1283.81 659.517C1283.91 659.12 1284.08 658.747 1284.32 658.419C1284.57 658.092 1284.87 657.817 1285.23 657.613C1285.58 657.408 1285.97 657.278 1286.37 657.229C1286.78 657.181 1287.19 657.215 1287.58 657.33C1304.69 661.33 1333.47 667.22 1342.58 666.73C1343.38 666.688 1344.16 666.963 1344.75 667.496C1345.34 668.029 1345.7 668.775 1345.74 669.57C1345.78 670.366 1345.51 671.146 1344.97 671.739C1344.44 672.331 1343.7 672.688 1342.9 672.73C1342.46 672.744 1341.98 672.75 1341.47 672.75ZM1352.23 656.14C1351.98 656.141 1351.73 656.107 1351.49 656.04C1328.4 650.15 1302.03 644.73 1297.84 645.87C1297.45 645.998 1297.05 646.045 1296.64 646.01C1296.23 645.974 1295.84 645.857 1295.48 645.664C1295.12 645.471 1294.81 645.208 1294.55 644.89C1294.3 644.571 1294.11 644.205 1294.01 643.812C1293.9 643.42 1293.87 643.009 1293.93 642.606C1293.99 642.203 1294.12 641.816 1294.33 641.468C1294.55 641.119 1294.82 640.818 1295.16 640.581C1295.49 640.344 1295.86 640.177 1296.26 640.09C1304.08 637.95 1344.87 648.16 1352.97 650.23C1353.68 650.409 1354.3 650.841 1354.72 651.446C1355.13 652.05 1355.31 652.786 1355.22 653.513C1355.13 654.24 1354.77 654.909 1354.22 655.393C1353.67 655.877 1352.96 656.143 1352.23 656.14ZM1359 642.6C1358.48 642.599 1357.96 642.461 1357.51 642.2C1349 637.3 1327.4 628 1306.87 628C1306.07 628 1305.31 627.684 1304.75 627.122C1304.19 626.559 1303.87 625.796 1303.87 625C1303.87 624.205 1304.19 623.442 1304.75 622.879C1305.31 622.316 1306.07 622 1306.87 622C1328.66 622 1351.48 631.78 1360.49 637C1361.07 637.327 1361.52 637.837 1361.78 638.448C1362.03 639.06 1362.08 639.739 1361.91 640.38C1361.74 641.022 1361.36 641.588 1360.84 641.992C1360.31 642.395 1359.66 642.613 1359 642.61V642.6ZM1365.77 628.04C1365.35 628.043 1364.94 627.954 1364.56 627.78C1355.71 623.88 1334.15 616.22 1315.84 615.17C1315.04 615.125 1314.3 614.766 1313.77 614.172C1313.24 613.577 1312.96 612.796 1313.01 612C1313.06 611.205 1313.41 610.46 1314.01 609.929C1314.6 609.398 1315.38 609.125 1316.18 609.17C1335.35 610.26 1357.79 618.23 1366.98 622.28C1367.61 622.556 1368.13 623.042 1368.45 623.655C1368.76 624.269 1368.86 624.973 1368.72 625.648C1368.57 626.324 1368.2 626.929 1367.67 627.363C1367.13 627.797 1366.46 628.033 1365.77 628.03V628.04Z" fill="black"/>
<path d="M1788.05 1249.31V1193.79H1756.12V1249.31H1788.05Z" fill="black"/>
<path d="M1608.54 1193.79V1249.31H1637.22V1193.79H1608.54Z" fill="black"/>
<path d="M1653 1249.31V1193.79H1738.13V1249.31H1653Z" fill="black"/>
<path d="M1782.31 1194.41H1617.71L1655.09 760.93H1744.93L1782.31 1194.41Z" fill="black"/>
<path d="M1785.58 1197.41H1614.44L1614.72 1194.15L1652.34 757.93H1747.68L1747.92 760.67L1785.58 1197.41ZM1620.98 1191.41H1779L1742.14 763.93H1657.8L1620.98 1191.41Z" fill="black"/>
<path d="M1738.41 760.28H1843.73C1863.73 759.58 1913.66 772.92 1953.26 831.89C1986.96 879.08 2094.39 1025.68 2143.89 1093.08C2167.76 1120.08 2208.34 1185.97 2179.7 1233.16C2151.06 1280.35 2030.14 1423.43 1973.27 1489.08L2072.48 1954.62H1843L1738.41 760.28ZM1901.17 1038L1933.59 1201.79L1980 1151L1901.17 1038Z" fill="#FEDA00"/>
<path d="M1936.58 1526.64C1936.11 1526.64 1935.65 1526.53 1935.23 1526.32C1934.81 1526.11 1934.45 1525.81 1934.17 1525.43L1804.27 1350.22L1929.27 1206.12C1929.53 1205.82 1929.84 1205.58 1930.2 1205.4C1930.55 1205.22 1930.93 1205.12 1931.33 1205.09C1931.72 1205.06 1932.12 1205.11 1932.49 1205.24C1932.87 1205.36 1933.21 1205.56 1933.51 1205.82C1933.81 1206.08 1934.05 1206.39 1934.23 1206.75C1934.41 1207.1 1934.51 1207.48 1934.54 1207.88C1934.57 1208.27 1934.52 1208.67 1934.39 1209.04C1934.27 1209.42 1934.07 1209.76 1933.81 1210.06L1812 1350.52L1939 1521.85C1939.33 1522.3 1939.53 1522.83 1939.58 1523.38C1939.63 1523.93 1939.52 1524.49 1939.27 1524.99C1939.02 1525.49 1938.64 1525.9 1938.17 1526.19C1937.69 1526.49 1937.15 1526.64 1936.59 1526.64H1936.58Z" fill="black"/>
<path d="M1899.2 1031.33C1898.54 1031.33 1897.89 1031.11 1897.37 1030.7C1896.84 1030.29 1896.47 1029.72 1896.3 1029.08L1884.6 983.94C1884.48 983.551 1884.43 983.141 1884.47 982.735C1884.51 982.329 1884.64 981.936 1884.83 981.579C1885.03 981.222 1885.3 980.909 1885.62 980.659C1885.94 980.409 1886.31 980.227 1886.71 980.125C1887.1 980.023 1887.51 980.002 1887.92 980.065C1888.32 980.127 1888.71 980.271 1889.05 980.488C1889.4 980.704 1889.7 980.989 1889.93 981.325C1890.16 981.66 1890.32 982.04 1890.4 982.44L1902.1 1027.58C1902.3 1028.35 1902.18 1029.17 1901.78 1029.85C1901.38 1030.53 1900.72 1031.03 1899.95 1031.23C1899.71 1031.3 1899.45 1031.33 1899.2 1031.33Z" fill="black"/>
<path d="M2035.42 1166C2035.22 1166 2035.02 1165.98 2034.83 1165.94L1989.11 1156.73C1988.35 1156.55 1987.69 1156.09 1987.27 1155.43C1986.84 1154.78 1986.69 1153.98 1986.85 1153.22C1987 1152.45 1987.45 1151.78 1988.09 1151.34C1988.73 1150.89 1989.52 1150.72 1990.29 1150.85L2036 1160C2036.73 1160.15 2037.38 1160.56 2037.82 1161.16C2038.26 1161.76 2038.46 1162.5 2038.39 1163.24C2038.31 1163.98 2037.97 1164.66 2037.42 1165.16C2036.87 1165.66 2036.15 1165.94 2035.41 1165.94L2035.42 1166Z" fill="black"/>
<path d="M1844 1956.08C1843.25 1956.08 1842.52 1955.8 1841.97 1955.3C1841.41 1954.79 1841.07 1954.09 1841 1953.34L1735.79 761.62C1735.72 760.824 1735.97 760.033 1736.48 759.421C1736.99 758.809 1737.73 758.425 1738.52 758.355C1739.32 758.285 1740.11 758.533 1740.72 759.046C1741.34 759.559 1741.72 760.294 1741.79 761.09L1847 1952.82C1847.03 1953.21 1846.99 1953.61 1846.87 1953.98C1846.75 1954.36 1846.56 1954.71 1846.31 1955.01C1846.05 1955.31 1845.74 1955.56 1845.39 1955.74C1845.04 1955.93 1844.66 1956.04 1844.27 1956.07L1844 1956.08Z" fill="black"/>
<path d="M1758.52 989.68C1758.02 989.68 1757.52 989.553 1757.08 989.311C1756.64 989.069 1756.26 988.719 1755.99 988.295C1755.72 987.871 1755.56 987.385 1755.53 986.882C1755.5 986.38 1755.59 985.877 1755.8 985.42L1820.51 845.57L1768.87 825.14L1818.25 759.31C1818.73 758.674 1819.44 758.253 1820.23 758.141C1821.01 758.028 1821.81 758.233 1822.45 758.71C1823.09 759.188 1823.51 759.898 1823.62 760.686C1823.73 761.474 1823.53 762.274 1823.05 762.91L1778.39 822.45L1828.63 842.33L1761.24 987.94C1761 988.46 1760.62 988.899 1760.13 989.208C1759.65 989.516 1759.09 989.68 1758.52 989.68Z" fill="black"/>
<path d="M1663.43 760.28H1558.12C1538.12 759.58 1488.18 772.92 1448.59 831.89C1414.88 879.08 1307.46 1025.68 1257.96 1093.08C1234.09 1120.08 1193.51 1185.97 1222.15 1233.16C1250.79 1280.35 1371.7 1423.43 1428.57 1489.08L1329.37 1954.62H1558.89L1663.43 760.28ZM1500.68 1038L1468.26 1201.79L1421.86 1150.92L1500.68 1038Z" fill="#FEDA00"/>
<path d="M1360.2 1161.35C1359.46 1161.35 1358.74 1161.07 1358.19 1160.57C1357.64 1160.07 1357.3 1159.39 1357.22 1158.65C1357.15 1157.91 1357.35 1157.17 1357.79 1156.57C1358.23 1155.97 1358.88 1155.56 1359.61 1155.41L1405.33 1146.2C1405.72 1146.11 1406.13 1146.1 1406.52 1146.17C1406.92 1146.23 1407.3 1146.38 1407.63 1146.6C1407.97 1146.82 1408.26 1147.1 1408.49 1147.43C1408.71 1147.76 1408.87 1148.14 1408.95 1148.53C1409.03 1148.93 1409.03 1149.33 1408.95 1149.72C1408.87 1150.12 1408.71 1150.49 1408.48 1150.82C1408.25 1151.15 1407.96 1151.43 1407.62 1151.65C1407.28 1151.87 1406.91 1152.01 1406.51 1152.08L1360.79 1161.29C1360.6 1161.33 1360.4 1161.35 1360.2 1161.35Z" fill="black"/>
<path d="M1465.27 1526.64C1464.71 1526.64 1464.17 1526.49 1463.69 1526.19C1463.22 1525.9 1462.84 1525.49 1462.59 1524.99C1462.34 1524.49 1462.23 1523.93 1462.28 1523.38C1462.33 1522.83 1462.53 1522.3 1462.86 1521.85L1589.86 1350.52L1468.05 1210.06C1467.53 1209.46 1467.27 1208.67 1467.32 1207.88C1467.38 1207.08 1467.75 1206.34 1468.35 1205.82C1468.95 1205.3 1469.74 1205.04 1470.53 1205.09C1471.33 1205.15 1472.07 1205.52 1472.59 1206.12L1597.59 1350.22L1467.7 1525.43C1467.42 1525.81 1467.05 1526.12 1466.63 1526.33C1466.21 1526.54 1465.74 1526.64 1465.27 1526.64Z" fill="black"/>
<path d="M1502.65 1031.33C1502.4 1031.33 1502.14 1031.3 1501.9 1031.23C1501.13 1031.03 1500.47 1030.53 1500.07 1029.85C1499.67 1029.17 1499.55 1028.35 1499.75 1027.58L1511.45 982.44C1511.53 982.04 1511.69 981.66 1511.92 981.325C1512.15 980.989 1512.45 980.704 1512.8 980.488C1513.14 980.271 1513.53 980.127 1513.93 980.065C1514.34 980.002 1514.75 980.023 1515.14 980.125C1515.54 980.227 1515.91 980.409 1516.23 980.659C1516.55 980.909 1516.82 981.222 1517.02 981.579C1517.21 981.936 1517.34 982.329 1517.38 982.735C1517.42 983.141 1517.37 983.551 1517.25 983.94L1505.55 1029.08C1505.38 1029.72 1505.01 1030.29 1504.48 1030.7C1503.96 1031.11 1503.31 1031.33 1502.65 1031.33Z" fill="black"/>
<path d="M1557.85 1956.08H1557.58C1557.19 1956.04 1556.81 1955.93 1556.46 1955.75C1556.11 1955.57 1555.8 1955.32 1555.54 1955.01C1555.29 1954.71 1555.1 1954.36 1554.98 1953.99C1554.87 1953.61 1554.82 1953.21 1554.86 1952.82L1660.59 761.44C1660.66 760.644 1661.04 759.909 1661.66 759.396C1662.27 758.883 1663.06 758.635 1663.86 758.705C1664.65 758.775 1665.39 759.159 1665.9 759.771C1666.41 760.383 1666.66 761.174 1666.59 761.97L1560.84 1953.35C1560.77 1954.1 1560.43 1954.79 1559.88 1955.3C1559.32 1955.8 1558.6 1956.08 1557.85 1956.08Z" fill="black"/>
<path d="M1643.74 990.28C1643.17 990.279 1642.61 990.115 1642.13 989.807C1641.64 989.499 1641.26 989.059 1641.02 988.54L1573.63 842.92L1623.89 823L1578.2 761.49C1577.87 760.852 1577.77 760.117 1577.94 759.416C1578.1 758.716 1578.51 758.099 1579.1 757.676C1579.68 757.253 1580.39 757.053 1581.11 757.112C1581.82 757.172 1582.5 757.487 1583 758L1633.35 825.79L1581.73 846.21L1646.46 986C1646.67 986.457 1646.76 986.96 1646.73 987.462C1646.7 987.964 1646.54 988.45 1646.27 988.874C1645.99 989.299 1645.62 989.648 1645.18 989.89C1644.74 990.132 1644.24 990.26 1643.74 990.26V990.28Z" fill="black"/>
<path d="M1070.94 2740.87H1616.52L1602.36 2536.51L1413.75 2516.22L1091.36 2685.44L1070.94 2740.87Z" fill="black"/>
<path d="M1968.47 2690.81L1992.78 2742.09H2109.41L2479.77 2423.64L2327 2287.17L2177.76 2404.29L2067.25 2623.62L1968.47 2690.81Z" fill="black"/>
<path d="M1421.1 2531L1414 2522.71C1408.08 2515.8 1356.39 2454.63 1363.23 2434.1C1363.79 2432.35 1364.83 2430.8 1366.22 2429.6C1367.61 2428.4 1369.3 2427.61 1371.11 2427.31C1373.2 2426.87 1375.36 2426.88 1377.44 2427.33C1379.53 2427.78 1381.5 2428.66 1383.22 2429.92C1391.44 2435.41 1399.22 2448.79 1406.44 2469.7C1411.97 2486.21 1416.24 2503.1 1419.24 2520.25L1421.1 2531ZM1374.22 2433C1373.61 2433 1373.01 2433.06 1372.42 2433.2C1369.97 2433.74 1369.26 2434.99 1368.92 2436.02C1366.17 2444.3 1379.92 2471.94 1411.17 2510.02C1404.49 2477.89 1392.7 2443.48 1379.89 2434.92C1378.24 2433.7 1376.27 2433 1374.22 2432.93V2433Z" fill="black"/>
<path d="M2095.66 2453.1C2093.78 2453.14 2091.9 2452.82 2090.14 2452.16C2088.44 2451.47 2086.96 2450.34 2085.86 2448.87C2084.76 2447.41 2084.09 2445.67 2083.9 2443.85C2083.6 2441.74 2083.75 2439.58 2084.33 2437.53C2084.92 2435.48 2085.93 2433.57 2087.3 2431.93C2093.3 2424.1 2107.2 2417.19 2128.54 2411.4C2145.37 2406.99 2162.52 2403.84 2179.82 2401.99L2190.68 2400.84L2181.94 2407.37C2175.22 2412.39 2120 2453.1 2095.66 2453.1ZM2169.07 2409.35C2136.57 2413.89 2101.46 2423.35 2092.07 2435.59C2091.2 2436.59 2090.55 2437.76 2090.17 2439.02C2089.78 2440.29 2089.67 2441.62 2089.84 2442.93C2090.22 2445.41 2091.42 2446.19 2092.42 2446.6C2093.48 2446.99 2094.61 2447.18 2095.74 2447.14C2106.78 2447.14 2133.3 2434.94 2169.07 2409.35Z" fill="black"/>
<path d="M1423.47 2528.44L1413.8 2523.38C1405.74 2519.16 1335.03 2481.55 1333.8 2459.95C1333.68 2458.12 1334.07 2456.29 1334.91 2454.67C1335.76 2453.04 1337.03 2451.67 1338.6 2450.72C1340.38 2449.54 1342.38 2448.74 1344.49 2448.39C1346.6 2448.03 1348.75 2448.12 1350.82 2448.65C1360.49 2450.65 1372.71 2460.23 1387.15 2476.96C1398.41 2490.24 1408.65 2504.34 1417.79 2519.15L1423.47 2528.44ZM1346.83 2454.21C1345.08 2454.18 1343.37 2454.69 1341.93 2455.68C1339.87 2457.09 1339.68 2458.51 1339.74 2459.59C1340.26 2468.3 1363.26 2488.87 1406.45 2512.59C1388.33 2485.25 1364.61 2457.68 1349.52 2454.48C1348.63 2454.3 1347.73 2454.21 1346.83 2454.21Z" fill="black"/>
<path d="M2114.1 2483.29H2114C2112.17 2483.28 2110.37 2482.78 2108.81 2481.83C2107.24 2480.87 2105.97 2479.51 2105.12 2477.89C2104.05 2476.04 2103.39 2473.98 2103.17 2471.85C2102.96 2469.73 2103.19 2467.58 2103.86 2465.55C2106.54 2456.04 2116.86 2444.48 2134.52 2431.18C2148.51 2420.83 2163.26 2411.55 2178.64 2403.41L2188.29 2398.31L2182.6 2407.62C2177.88 2415.38 2135.75 2483.29 2114.1 2483.29ZM2171.41 2414.24C2142.92 2430.51 2113.84 2452.35 2109.65 2467.24C2109.21 2468.49 2109.04 2469.81 2109.16 2471.13C2109.27 2472.45 2109.66 2473.72 2110.3 2474.88C2111.58 2477.04 2112.98 2477.33 2114.07 2477.34C2122.85 2477.29 2144.87 2455.7 2171.41 2414.24Z" fill="black"/>
<path d="M1307.5 2526.47C1304.39 2526.48 1301.29 2526.16 1298.24 2525.54C1285.47 2522.75 1274.33 2515.01 1267.24 2504.03C1266.86 2503.36 1266.76 2502.57 1266.95 2501.82C1267.14 2501.07 1267.61 2500.43 1268.26 2500.02C1268.92 2499.61 1269.7 2499.47 1270.46 2499.62C1271.21 2499.78 1271.88 2500.22 1272.32 2500.85C1278.53 2510.46 1288.3 2517.23 1299.48 2519.66C1312.18 2522.25 1325.71 2518.6 1339.71 2508.82C1355.17 2498.02 1370.25 2494.07 1384.55 2497.05C1399.22 2500.12 1409.92 2510.18 1415.05 2518.57C1415.27 2518.91 1415.43 2519.28 1415.5 2519.68C1415.57 2520.08 1415.56 2520.49 1415.48 2520.88C1415.39 2521.27 1415.22 2521.65 1414.99 2521.97C1414.75 2522.3 1414.45 2522.58 1414.11 2522.79C1413.77 2523 1413.38 2523.14 1412.98 2523.2C1412.58 2523.25 1412.18 2523.23 1411.79 2523.13C1411.4 2523.03 1411.03 2522.85 1410.71 2522.6C1410.39 2522.35 1410.13 2522.04 1409.93 2521.69C1406.95 2516.96 1403.06 2512.87 1398.5 2509.65C1393.93 2506.43 1388.77 2504.15 1383.32 2502.93C1370.7 2500.29 1357.19 2503.93 1343.15 2513.74C1331 2522.21 1319 2526.47 1307.5 2526.47Z" fill="black"/>
<path d="M2109.77 2537.28C2108.97 2537.35 2108.18 2537.1 2107.57 2536.59C2106.96 2536.07 2106.58 2535.34 2106.51 2534.54C2106.44 2533.74 2106.69 2532.95 2107.2 2532.34C2107.72 2531.73 2108.45 2531.35 2109.25 2531.28C2120.49 2529.13 2130.42 2522.61 2136.87 2513.16C2144.03 2502.36 2145.73 2488.44 2141.87 2471.79C2137.65 2453.42 2139.63 2437.95 2147.75 2425.79C2156.09 2413.34 2169.43 2407.18 2179.13 2405.56C2179.52 2405.49 2179.92 2405.51 2180.3 2405.59C2180.69 2405.68 2181.05 2405.85 2181.37 2406.07C2181.69 2406.3 2181.96 2406.59 2182.17 2406.93C2182.38 2407.26 2182.52 2407.63 2182.59 2408.02C2182.66 2408.41 2182.64 2408.81 2182.56 2409.19C2182.47 2409.58 2182.31 2409.94 2182.08 2410.26C2181.85 2410.58 2181.56 2410.85 2181.22 2411.06C2180.89 2411.27 2180.52 2411.41 2180.13 2411.48C2174.63 2412.47 2169.38 2414.54 2164.68 2417.57C2159.98 2420.6 2155.93 2424.53 2152.75 2429.13C2145.59 2439.83 2143.9 2453.72 2147.75 2470.42C2151.96 2488.73 2149.98 2504.22 2141.87 2516.42C2134.5 2527.23 2123.14 2534.67 2110.29 2537.12C2110.12 2537.19 2109.95 2537.25 2109.77 2537.28Z" fill="black"/>
<path d="M1597.5 2538.8L1589.62 2404.45L1595.62 2404.09L1603.51 2538.44L1597.5 2538.8ZM1538.72 2535.11L1536.4 2404.32L1542.4 2404.22L1544.72 2535.01L1538.72 2535.11ZM1469.06 2525.01L1463.12 2524.19L1479.76 2403.86L1485.7 2404.68L1469.06 2525.01ZM1418.13 2519.21L1412.25 2518.03L1435.11 2403.68L1440.99 2404.86L1418.13 2519.21Z" fill="black"/>
<path d="M2178 2406.64L2135.59 2341.77L2140.59 2338.49L2183 2403.36L2178 2406.64ZM2218.72 2375.54L2161.61 2298.63L2166.43 2295.05L2223.5 2372L2218.72 2375.54ZM2280.47 2330.54L2195.29 2244.68L2199.55 2240.46L2284.73 2326.32L2280.47 2330.54ZM2325.15 2292.17L2225.73 2201.47L2229.73 2197.03L2329.15 2287.73L2325.15 2292.17Z" fill="black"/>
<path d="M1832.78 759.73H1569.86L1574.86 754.63C1587.63 741.63 1597.38 708.46 1597.38 698.96V696.96L1599.24 696.2C1624.76 685.72 1726.24 673.34 1807.06 696.95L1809.27 697.6V699.9C1808.8 719.9 1812.55 746.1 1824.66 754.25L1832.78 759.73ZM1583.44 753.73H1815.44C1811.24 748.44 1808.07 740.92 1805.97 731.26C1804.03 721.653 1803.1 711.87 1803.2 702.07C1727.03 680.57 1630.04 691.37 1603.29 701.07C1602.32 711.93 1594.78 738.27 1583.44 753.73Z" fill="black"/>
<path d="M1653.17 744.22C1652.45 744.236 1651.75 743.993 1651.2 743.535C1650.64 743.077 1650.27 742.435 1650.15 741.726C1650.03 741.017 1650.16 740.288 1650.53 739.672C1650.91 739.056 1651.49 738.594 1652.17 738.37C1667.99 733.1 1711.94 726.3 1765.07 738.29C1765.85 738.465 1766.52 738.942 1766.95 739.615C1767.37 740.288 1767.51 741.103 1767.34 741.88C1767.16 742.657 1766.69 743.333 1766.02 743.759C1765.34 744.184 1764.53 744.325 1763.75 744.15C1711.91 732.44 1669.34 738.98 1654.07 744.07C1653.78 744.163 1653.48 744.213 1653.17 744.22ZM1764.77 723.55C1751.56 723.446 1738.39 722.231 1725.38 719.92C1724.6 719.774 1723.91 719.323 1723.46 718.667C1723 718.011 1722.83 717.202 1722.98 716.42C1723.13 715.638 1723.58 714.945 1724.23 714.495C1724.89 714.045 1725.7 713.874 1726.48 714.02C1738.62 716.28 1766.33 719.6 1784.31 715.93C1785.09 715.771 1785.9 715.928 1786.56 716.367C1787.23 716.806 1787.69 717.49 1787.85 718.27C1788.01 719.05 1787.85 719.861 1787.41 720.525C1786.97 721.189 1786.29 721.651 1785.51 721.81C1778.67 723.064 1771.72 723.647 1764.77 723.55Z" fill="black"/>
<path d="M1770.11 631.9C1769.58 631.901 1769.06 631.76 1768.6 631.492C1768.14 631.224 1767.76 630.839 1767.5 630.376C1767.23 629.913 1767.1 629.389 1767.11 628.857C1767.12 628.326 1767.27 627.806 1767.54 627.35C1769.12 624.74 1769.65 622.54 1769.07 620.98C1768.87 620.488 1768.56 620.045 1768.17 619.68C1767.79 619.316 1767.32 619.04 1766.82 618.87C1766.09 618.602 1765.5 618.062 1765.16 617.364C1764.82 616.665 1764.76 615.862 1765 615.125C1765.25 614.387 1765.76 613.771 1766.45 613.406C1767.13 613.042 1767.93 612.957 1768.68 613.17C1770.04 613.614 1771.29 614.359 1772.33 615.349C1773.37 616.339 1774.17 617.549 1774.68 618.89C1775.94 622.27 1775.26 626.15 1772.68 630.45C1772.41 630.893 1772.04 631.259 1771.59 631.513C1771.14 631.767 1770.63 631.901 1770.11 631.9Z" fill="black"/>
</svg>
