<svg width="3000" height="3000" viewBox="0 0 3000 3000" fill="none" xmlns="http://www.w3.org/2000/svg">
<path d="M1905.91 1358.56C1904.26 1358.56 1902.65 1358.07 1901.28 1357.16C1899.91 1356.24 1898.84 1354.94 1898.21 1353.42C1897.58 1351.9 1897.42 1350.22 1897.74 1348.6C1898.06 1346.99 1898.85 1345.5 1900.02 1344.34C1901.18 1343.17 1902.67 1342.38 1904.28 1342.06C1905.9 1341.74 1907.58 1341.9 1909.1 1342.53C1910.62 1343.16 1911.92 1344.23 1912.84 1345.6C1913.75 1346.97 1914.24 1348.58 1914.24 1350.23C1914.24 1352.44 1913.36 1354.56 1911.8 1356.12C1910.24 1357.68 1908.12 1358.56 1905.91 1358.56ZM1905.91 1347.9C1905.45 1347.9 1905 1348.04 1904.62 1348.29C1904.23 1348.55 1903.93 1348.91 1903.76 1349.34C1903.58 1349.76 1903.53 1350.23 1903.62 1350.68C1903.71 1351.14 1903.94 1351.55 1904.26 1351.88C1904.59 1352.2 1905 1352.43 1905.46 1352.52C1905.91 1352.61 1906.38 1352.56 1906.8 1352.38C1907.23 1352.21 1907.59 1351.91 1907.85 1351.52C1908.1 1351.14 1908.24 1350.69 1908.24 1350.23C1908.24 1349.61 1907.99 1349.02 1907.56 1348.58C1907.12 1348.15 1906.53 1347.9 1905.91 1347.9Z" fill="black"/>
<path d="M1507.67 195.52C1506.02 195.522 1504.41 195.034 1503.03 194.119C1501.66 193.203 1500.59 191.901 1499.96 190.376C1499.32 188.852 1499.16 187.174 1499.48 185.555C1499.8 183.937 1500.6 182.45 1501.76 181.283C1502.93 180.116 1504.42 179.321 1506.03 179C1507.65 178.678 1509.33 178.844 1510.86 179.477C1512.38 180.109 1513.68 181.18 1514.6 182.553C1515.51 183.926 1516 185.54 1516 187.19C1516 189.399 1515.12 191.516 1513.56 193.077C1511.99 194.639 1509.88 195.517 1507.67 195.52ZM1507.67 184.85C1507.21 184.848 1506.75 184.984 1506.37 185.24C1505.98 185.495 1505.68 185.86 1505.5 186.288C1505.32 186.715 1505.27 187.186 1505.36 187.64C1505.45 188.095 1505.67 188.513 1506 188.841C1506.33 189.169 1506.74 189.393 1507.2 189.484C1507.65 189.575 1508.12 189.53 1508.55 189.353C1508.98 189.176 1509.35 188.876 1509.6 188.491C1509.86 188.106 1510 187.653 1510 187.19C1510 186.883 1509.94 186.579 1509.82 186.295C1509.71 186.012 1509.54 185.753 1509.32 185.536C1509.1 185.319 1508.85 185.146 1508.56 185.028C1508.28 184.911 1507.98 184.85 1507.67 184.85Z" fill="black"/>
<path d="M321.05 1114.18C319.402 1114.18 317.792 1113.69 316.422 1112.78C315.052 1111.86 313.984 1110.56 313.354 1109.04C312.723 1107.52 312.558 1105.84 312.88 1104.22C313.201 1102.61 313.995 1101.12 315.16 1099.96C316.324 1098.79 317.809 1098 319.425 1097.68C321.04 1097.36 322.715 1097.52 324.237 1098.15C325.76 1098.78 327.061 1099.85 327.976 1101.22C328.891 1102.59 329.38 1104.2 329.38 1105.85C329.377 1108.06 328.499 1110.18 326.937 1111.74C325.375 1113.3 323.258 1114.18 321.05 1114.18ZM321.05 1103.52C320.589 1103.52 320.138 1103.66 319.755 1103.91C319.372 1104.17 319.073 1104.53 318.897 1104.96C318.721 1105.38 318.675 1105.85 318.764 1106.3C318.854 1106.76 319.076 1107.17 319.402 1107.5C319.728 1107.82 320.143 1108.05 320.595 1108.14C321.047 1108.23 321.516 1108.18 321.941 1108C322.367 1107.83 322.731 1107.53 322.987 1107.14C323.243 1106.76 323.38 1106.31 323.38 1105.85C323.38 1105.23 323.134 1104.64 322.697 1104.2C322.26 1103.77 321.668 1103.52 321.05 1103.52Z" fill="black"/>
<path d="M2087.79 874.58C2086.14 874.58 2084.53 874.091 2083.16 873.176C2081.79 872.261 2080.72 870.96 2080.09 869.438C2079.46 867.916 2079.3 866.241 2079.62 864.625C2079.94 863.009 2080.73 861.525 2081.9 860.36C2083.06 859.195 2084.55 858.402 2086.16 858.08C2087.78 857.759 2089.46 857.924 2090.98 858.554C2092.5 859.185 2093.8 860.252 2094.72 861.622C2095.63 862.992 2096.12 864.603 2096.12 866.25C2096.12 868.458 2095.24 870.576 2093.68 872.137C2092.12 873.699 2090 874.577 2087.79 874.58ZM2087.79 863.92C2087.33 863.92 2086.88 864.057 2086.5 864.313C2086.11 864.569 2085.81 864.933 2085.64 865.358C2085.46 865.784 2085.41 866.253 2085.5 866.705C2085.59 867.157 2085.82 867.572 2086.14 867.898C2086.47 868.223 2086.88 868.445 2087.34 868.535C2087.79 868.625 2088.26 868.579 2088.68 868.403C2089.11 868.226 2089.47 867.928 2089.73 867.545C2089.98 867.161 2090.12 866.711 2090.12 866.25C2090.12 865.944 2090.06 865.641 2089.94 865.358C2089.83 865.076 2089.65 864.819 2089.44 864.602C2089.22 864.386 2088.96 864.214 2088.68 864.097C2088.4 863.98 2088.1 863.92 2087.79 863.92Z" fill="black"/>
<path d="M2754.81 1195.46C2753.16 1195.46 2751.55 1194.97 2750.18 1194.06C2748.81 1193.14 2747.74 1191.84 2747.11 1190.32C2746.48 1188.8 2746.32 1187.12 2746.64 1185.5C2746.96 1183.89 2747.75 1182.4 2748.92 1181.24C2750.08 1180.07 2751.57 1179.28 2753.18 1178.96C2754.8 1178.64 2756.48 1178.8 2758 1179.43C2759.52 1180.06 2760.82 1181.13 2761.74 1182.5C2762.65 1183.87 2763.14 1185.48 2763.14 1187.13C2763.14 1189.34 2762.26 1191.46 2760.7 1193.02C2759.14 1194.58 2757.02 1195.46 2754.81 1195.46ZM2754.81 1184.8C2754.35 1184.8 2753.9 1184.94 2753.52 1185.19C2753.13 1185.45 2752.83 1185.81 2752.66 1186.24C2752.48 1186.66 2752.43 1187.13 2752.52 1187.58C2752.61 1188.04 2752.84 1188.45 2753.16 1188.78C2753.49 1189.1 2753.9 1189.33 2754.35 1189.42C2754.81 1189.51 2755.28 1189.46 2755.7 1189.28C2756.13 1189.11 2756.49 1188.81 2756.75 1188.42C2757 1188.04 2757.14 1187.59 2757.14 1187.13C2757.14 1186.51 2756.89 1185.92 2756.46 1185.48C2756.02 1185.05 2755.43 1184.8 2754.81 1184.8Z" fill="black"/>
<path d="M620.49 2424.35C618.842 2424.35 617.232 2423.86 615.862 2422.95C614.492 2422.03 613.424 2420.73 612.794 2419.21C612.163 2417.69 611.998 2416.01 612.32 2414.4C612.641 2412.78 613.434 2411.29 614.599 2410.13C615.764 2408.96 617.249 2408.17 618.865 2407.85C620.48 2407.53 622.155 2407.69 623.677 2408.32C625.2 2408.95 626.5 2410.02 627.416 2411.39C628.331 2412.76 628.82 2414.37 628.82 2416.02C628.817 2418.23 627.939 2420.35 626.377 2421.91C624.815 2423.47 622.698 2424.35 620.49 2424.35ZM620.49 2413.69C620.029 2413.69 619.578 2413.83 619.195 2414.08C618.812 2414.34 618.513 2414.7 618.337 2415.13C618.161 2415.55 618.115 2416.02 618.204 2416.47C618.294 2416.93 618.516 2417.34 618.842 2417.67C619.168 2417.99 619.583 2418.22 620.035 2418.31C620.487 2418.4 620.956 2418.35 621.381 2418.17C621.807 2418 622.171 2417.7 622.427 2417.31C622.683 2416.93 622.82 2416.48 622.82 2416.02C622.82 2415.71 622.759 2415.41 622.642 2415.13C622.525 2414.85 622.354 2414.59 622.137 2414.37C621.921 2414.16 621.664 2413.98 621.381 2413.87C621.099 2413.75 620.796 2413.69 620.49 2413.69Z" fill="black"/>
<path d="M1189.71 629.58C1188.06 629.58 1186.45 629.091 1185.08 628.176C1183.71 627.261 1182.64 625.96 1182.01 624.438C1181.38 622.916 1181.22 621.241 1181.54 619.625C1181.86 618.009 1182.65 616.525 1183.82 615.36C1184.98 614.195 1186.47 613.402 1188.08 613.08C1189.7 612.759 1191.38 612.924 1192.9 613.554C1194.42 614.185 1195.72 615.252 1196.64 616.622C1197.55 617.992 1198.04 619.603 1198.04 621.25C1198.04 623.458 1197.16 625.576 1195.6 627.137C1194.04 628.699 1191.92 629.577 1189.71 629.58ZM1189.71 618.92C1189.25 618.92 1188.8 619.057 1188.42 619.313C1188.03 619.569 1187.73 619.933 1187.56 620.358C1187.38 620.784 1187.33 621.253 1187.42 621.705C1187.51 622.157 1187.74 622.572 1188.06 622.898C1188.39 623.223 1188.8 623.445 1189.26 623.535C1189.71 623.625 1190.18 623.579 1190.6 623.403C1191.03 623.226 1191.39 622.928 1191.65 622.545C1191.9 622.161 1192.04 621.711 1192.04 621.25C1192.04 620.632 1191.79 620.039 1191.36 619.602C1190.92 619.165 1190.33 618.92 1189.71 618.92Z" fill="black"/>
<path d="M2651 2295.58C2649.35 2295.58 2647.74 2295.09 2646.37 2294.18C2645 2293.26 2643.93 2291.96 2643.3 2290.44C2642.67 2288.92 2642.51 2287.24 2642.83 2285.63C2643.15 2284.01 2643.94 2282.52 2645.11 2281.36C2646.27 2280.19 2647.76 2279.4 2649.37 2279.08C2650.99 2278.76 2652.67 2278.92 2654.19 2279.55C2655.71 2280.18 2657.01 2281.25 2657.93 2282.62C2658.84 2283.99 2659.33 2285.6 2659.33 2287.25C2659.33 2289.46 2658.45 2291.58 2656.89 2293.14C2655.33 2294.7 2653.21 2295.58 2651 2295.58ZM2651 2284.92C2650.54 2284.92 2650.09 2285.06 2649.71 2285.31C2649.32 2285.57 2649.02 2285.93 2648.85 2286.36C2648.67 2286.78 2648.62 2287.25 2648.71 2287.7C2648.8 2288.16 2649.03 2288.57 2649.35 2288.9C2649.68 2289.22 2650.09 2289.45 2650.55 2289.54C2651 2289.63 2651.47 2289.58 2651.89 2289.4C2652.32 2289.23 2652.68 2288.93 2652.94 2288.54C2653.19 2288.16 2653.33 2287.71 2653.33 2287.25C2653.33 2286.63 2653.08 2286.04 2652.65 2285.6C2652.21 2285.17 2651.62 2284.92 2651 2284.92Z" fill="black"/>
<path d="M1955 2369.09C1953.35 2369.09 1951.74 2368.6 1950.37 2367.69C1949 2366.77 1947.93 2365.47 1947.3 2363.95C1946.67 2362.43 1946.51 2360.75 1946.83 2359.14C1947.15 2357.52 1947.94 2356.03 1949.11 2354.87C1950.27 2353.7 1951.76 2352.91 1953.37 2352.59C1954.99 2352.27 1956.67 2352.43 1958.19 2353.06C1959.71 2353.69 1961.01 2354.76 1961.93 2356.13C1962.84 2357.5 1963.33 2359.11 1963.33 2360.76C1963.33 2362.97 1962.45 2365.09 1960.89 2366.65C1959.33 2368.21 1957.21 2369.09 1955 2369.09ZM1955 2358.43C1954.54 2358.43 1954.09 2358.57 1953.71 2358.82C1953.32 2359.08 1953.02 2359.44 1952.85 2359.87C1952.67 2360.29 1952.62 2360.76 1952.71 2361.21C1952.8 2361.67 1953.03 2362.08 1953.35 2362.41C1953.68 2362.73 1954.09 2362.96 1954.55 2363.05C1955 2363.14 1955.47 2363.09 1955.89 2362.91C1956.32 2362.74 1956.68 2362.44 1956.94 2362.05C1957.19 2361.67 1957.33 2361.22 1957.33 2360.76C1957.33 2360.14 1957.08 2359.55 1956.65 2359.11C1956.21 2358.68 1955.62 2358.43 1955 2358.43Z" fill="black"/>
<path d="M2425 1867.12C2424.37 1867.12 2423.75 1866.92 2423.24 1866.55L2393.88 1845.2C2393.24 1844.73 2392.8 1844.03 2392.68 1843.24C2392.55 1842.46 2392.74 1841.65 2393.21 1841.01C2393.68 1840.37 2394.38 1839.93 2395.17 1839.81C2395.95 1839.68 2396.76 1839.87 2397.4 1840.34L2426.77 1861.69C2427.28 1862.06 2427.67 1862.59 2427.86 1863.19C2428.06 1863.8 2428.06 1864.45 2427.86 1865.05C2427.67 1865.65 2427.28 1866.18 2426.77 1866.55C2426.25 1866.92 2425.63 1867.12 2425 1867.12Z" fill="black"/>
<path d="M718.25 155.84C717.613 155.839 716.993 155.636 716.48 155.26L687.12 133.91C686.792 133.682 686.513 133.391 686.299 133.053C686.085 132.716 685.941 132.34 685.874 131.946C685.808 131.552 685.821 131.149 685.912 130.76C686.004 130.371 686.172 130.005 686.407 129.682C686.642 129.359 686.939 129.086 687.281 128.88C687.623 128.673 688.002 128.537 688.398 128.479C688.793 128.421 689.195 128.443 689.582 128.542C689.969 128.642 690.332 128.818 690.65 129.06L720 150.41C720.513 150.782 720.896 151.307 721.092 151.91C721.289 152.512 721.29 153.162 721.094 153.765C720.899 154.368 720.517 154.894 720.004 155.267C719.491 155.639 718.874 155.84 718.24 155.84H718.25Z" fill="black"/>
<path d="M1541.88 2777.38C1541.24 2777.38 1540.62 2777.17 1540.11 2776.8C1539.59 2776.42 1539.21 2775.89 1539.02 2775.28C1538.83 2774.67 1538.84 2774.01 1539.05 2773.41C1539.25 2772.81 1539.65 2772.29 1540.17 2771.92L1569.96 2751.17C1570.61 2750.76 1571.4 2750.63 1572.15 2750.78C1572.9 2750.94 1573.57 2751.38 1574.01 2752.01C1574.44 2752.64 1574.62 2753.41 1574.51 2754.17C1574.39 2754.93 1573.99 2755.62 1573.38 2756.09L1543.59 2776.84C1543.09 2777.19 1542.49 2777.38 1541.88 2777.38Z" fill="black"/>
<path d="M2410.3 2684.13C2409.66 2684.13 2409.04 2683.93 2408.52 2683.55C2408.01 2683.17 2407.63 2682.64 2407.44 2682.03C2407.24 2681.42 2407.25 2680.77 2407.46 2680.16C2407.66 2679.56 2408.06 2679.04 2408.58 2678.67L2438.38 2657.92C2439.03 2657.51 2439.82 2657.38 2440.57 2657.53C2441.32 2657.69 2441.99 2658.13 2442.43 2658.76C2442.86 2659.39 2443.04 2660.16 2442.93 2660.92C2442.81 2661.68 2442.41 2662.37 2441.8 2662.84L2412 2683.59C2411.5 2683.94 2410.91 2684.13 2410.3 2684.13Z" fill="black"/>
<path d="M347.72 586.7C347.082 586.699 346.461 586.494 345.948 586.116C345.434 585.737 345.055 585.205 344.864 584.597C344.674 583.988 344.682 583.335 344.888 582.731C345.094 582.127 345.487 581.605 346.01 581.24L375.79 560.49C376.112 560.251 376.479 560.08 376.869 559.986C377.259 559.891 377.664 559.876 378.06 559.941C378.456 560.006 378.834 560.15 379.174 560.363C379.513 560.577 379.806 560.857 380.035 561.186C380.265 561.515 380.426 561.887 380.509 562.279C380.592 562.671 380.596 563.076 380.52 563.47C380.444 563.864 380.29 564.239 380.066 564.572C379.843 564.905 379.555 565.19 379.22 565.41L349.44 586.16C348.936 586.512 348.335 586.701 347.72 586.7Z" fill="black"/>
<path d="M698.07 1552.08C697.432 1552.08 696.811 1551.87 696.298 1551.5C695.784 1551.12 695.404 1550.59 695.214 1549.98C695.023 1549.37 695.031 1548.71 695.238 1548.11C695.444 1547.51 695.837 1546.99 696.36 1546.62L726.15 1525.87C726.803 1525.46 727.586 1525.33 728.339 1525.48C729.092 1525.64 729.756 1526.08 730.195 1526.71C730.634 1527.34 730.813 1528.11 730.697 1528.87C730.581 1529.63 730.177 1530.32 729.57 1530.79L699.79 1551.54C699.285 1551.89 698.685 1552.08 698.07 1552.08Z" fill="black"/>
<path d="M221.79 1961.63C221.092 1961.63 220.416 1961.39 219.878 1960.94C219.341 1960.49 218.975 1959.88 218.845 1959.19C218.715 1958.5 218.828 1957.79 219.165 1957.18C219.501 1956.57 220.041 1956.1 220.69 1955.84L254.48 1942.56C254.848 1942.4 255.245 1942.32 255.645 1942.32C256.046 1942.32 256.442 1942.4 256.811 1942.56C257.181 1942.71 257.515 1942.94 257.795 1943.22C258.075 1943.51 258.295 1943.85 258.442 1944.22C258.589 1944.59 258.66 1944.99 258.65 1945.39C258.641 1945.79 258.552 1946.19 258.387 1946.55C258.223 1946.92 257.987 1947.25 257.694 1947.52C257.401 1947.79 257.056 1948 256.68 1948.14L222.89 1961.42C222.54 1961.56 222.166 1961.63 221.79 1961.63Z" fill="black"/>
<path d="M2570.22 386.09C2569.72 386.09 2569.23 385.965 2568.79 385.726C2568.34 385.486 2567.97 385.141 2567.7 384.72L2548 354.26C2547.66 353.6 2547.58 352.837 2547.77 352.119C2547.96 351.4 2548.41 350.778 2549.03 350.373C2549.65 349.967 2550.4 349.806 2551.13 349.922C2551.87 350.038 2552.53 350.422 2553 351L2572.75 381.46C2573.04 381.913 2573.21 382.437 2573.23 382.976C2573.25 383.515 2573.12 384.05 2572.87 384.524C2572.61 384.998 2572.23 385.394 2571.76 385.669C2571.3 385.945 2570.77 386.09 2570.23 386.09H2570.22Z" fill="black"/>
<path d="M2377.59 1262C2377.09 1262 2376.6 1261.88 2376.16 1261.64C2375.72 1261.4 2375.34 1261.05 2375.07 1260.63L2355.32 1230.16C2355.06 1229.83 2354.86 1229.46 2354.76 1229.05C2354.65 1228.64 2354.62 1228.22 2354.69 1227.81C2354.76 1227.39 2354.91 1227 2355.14 1226.64C2355.36 1226.29 2355.66 1225.99 2356.01 1225.76C2356.37 1225.53 2356.76 1225.38 2357.18 1225.31C2357.59 1225.25 2358.01 1225.27 2358.42 1225.37C2358.83 1225.48 2359.2 1225.67 2359.53 1225.94C2359.86 1226.2 2360.13 1226.53 2360.32 1226.9L2380.07 1257.37C2380.36 1257.82 2380.53 1258.35 2380.55 1258.89C2380.57 1259.43 2380.44 1259.96 2380.19 1260.43C2379.93 1260.91 2379.55 1261.3 2379.08 1261.58C2378.62 1261.85 2378.09 1262 2377.55 1262H2377.59Z" fill="black"/>
<path d="M783.26 2807.84C782.759 2807.84 782.266 2807.71 781.826 2807.48C781.385 2807.24 781.012 2806.89 780.74 2806.47L761 2776C760.66 2775.34 760.576 2774.58 760.766 2773.86C760.956 2773.14 761.406 2772.52 762.028 2772.11C762.65 2771.71 763.401 2771.55 764.135 2771.66C764.868 2771.78 765.533 2772.16 766 2772.74L785.75 2803.2C786.043 2803.65 786.209 2804.18 786.229 2804.72C786.25 2805.26 786.124 2805.79 785.866 2806.26C785.608 2806.74 785.227 2807.13 784.763 2807.41C784.299 2807.69 783.77 2807.83 783.23 2807.83L783.26 2807.84Z" fill="black"/>
<path d="M2331.83 717.51C2330.88 717.51 2329.94 717.51 2329 717.51C2328.21 717.497 2327.46 717.175 2326.91 716.614C2326.36 716.053 2326.05 715.297 2326.05 714.51C2326.05 713.714 2326.37 712.951 2326.93 712.389C2327.49 711.826 2328.25 711.51 2329.05 711.51C2332.53 711.57 2336.05 711.51 2339.6 711.36C2339.99 711.342 2340.39 711.401 2340.76 711.535C2341.13 711.669 2341.47 711.874 2341.76 712.14C2342.05 712.405 2342.29 712.726 2342.46 713.083C2342.63 713.44 2342.72 713.826 2342.74 714.22C2342.76 714.614 2342.7 715.008 2342.56 715.379C2342.43 715.75 2342.23 716.091 2341.96 716.382C2341.69 716.674 2341.37 716.91 2341.02 717.078C2340.66 717.246 2340.27 717.342 2339.88 717.36C2337.23 717.45 2334.52 717.51 2331.83 717.51ZM2347.83 716.8C2347.03 716.836 2346.26 716.554 2345.67 716.017C2345.08 715.48 2344.73 714.731 2344.69 713.935C2344.66 713.139 2344.94 712.362 2345.48 711.774C2346.02 711.186 2346.76 710.836 2347.56 710.8C2353.67 710.25 2359.92 709.38 2366.13 708.2C2366.52 708.127 2366.92 708.13 2367.3 708.21C2367.69 708.291 2368.05 708.446 2368.38 708.668C2368.71 708.89 2368.98 709.174 2369.2 709.504C2369.42 709.834 2369.57 710.203 2369.64 710.59C2369.71 710.978 2369.71 711.376 2369.63 711.762C2369.55 712.148 2369.39 712.514 2369.17 712.84C2368.95 713.166 2368.67 713.445 2368.34 713.661C2368.01 713.877 2367.64 714.027 2367.25 714.1C2360.85 715.31 2354.4 716.21 2348.1 716.78L2347.83 716.8ZM2313.67 716.54H2313.35C2238.48 708.47 2187.35 651.95 2166.26 606.01V605.91C2162.73 597.38 2159.02 587.37 2155.38 576.28C2141.14 584.597 2125.39 590.001 2109.04 592.18C2097.59 593.79 2086.97 593.35 2077.48 590.88C2076.71 590.679 2076.05 590.179 2075.65 589.492C2075.25 588.805 2075.13 587.986 2075.33 587.215C2075.54 586.445 2076.04 585.786 2076.72 585.384C2077.41 584.981 2078.23 584.869 2079 585.07C2087.71 587.34 2097.54 587.73 2108.2 586.24C2124.22 584.105 2139.64 578.711 2153.5 570.39C2133.3 505.99 2117.41 409.87 2156.01 355.84C2173.1 331.92 2189.23 322 2204.01 326.35C2224.01 332.25 2235.89 365.15 2237.26 394.58V394.69C2237.9 444.69 2221.26 533.07 2160.69 573C2165.41 587.54 2169.63 598.24 2171.83 603.56C2192.25 648.07 2241.74 702.77 2314.08 710.56C2314.47 710.581 2314.86 710.68 2315.22 710.85C2315.57 711.02 2315.89 711.258 2316.15 711.552C2316.42 711.845 2316.62 712.188 2316.75 712.56C2316.88 712.932 2316.94 713.326 2316.92 713.72C2316.9 714.114 2316.8 714.5 2316.63 714.856C2316.46 715.212 2316.22 715.531 2315.93 715.795C2315.63 716.058 2315.29 716.262 2314.92 716.393C2314.55 716.524 2314.15 716.581 2313.76 716.56L2313.67 716.54ZM2197.22 331.38C2186.43 331.38 2173.96 340.91 2160.81 359.32C2141.14 386.85 2134.17 430.11 2140.66 484.42C2144.16 512.439 2150.19 540.084 2158.66 567.02C2215.95 528.02 2231.73 443.02 2231.13 394.8C2229.88 368.16 2219.32 337.15 2202.13 332.09C2200.53 331.623 2198.88 331.384 2197.22 331.38ZM2374.31 712.56C2373.58 712.556 2372.87 712.282 2372.32 711.792C2371.78 711.301 2371.43 710.627 2371.35 709.897C2371.26 709.168 2371.45 708.434 2371.87 707.833C2372.3 707.233 2372.93 706.808 2373.64 706.64C2379.86 705.22 2386.21 703.46 2392.53 701.42C2393.28 701.191 2394.1 701.268 2394.79 701.633C2395.49 701.997 2396.02 702.622 2396.26 703.371C2396.5 704.119 2396.44 704.933 2396.08 705.636C2395.73 706.34 2395.11 706.876 2394.37 707.13C2387.89 709.22 2381.37 711.03 2374.98 712.49C2374.76 712.538 2374.54 712.561 2374.31 712.56ZM2400.1 705C2399.39 705.001 2398.71 704.751 2398.16 704.295C2397.62 703.839 2397.26 703.206 2397.14 702.507C2397.02 701.809 2397.15 701.091 2397.51 700.48C2397.87 699.869 2398.43 699.405 2399.1 699.17C2412.64 694.296 2425.8 688.402 2438.45 681.54C2439.15 681.163 2439.97 681.081 2440.74 681.311C2441.5 681.54 2442.14 682.064 2442.51 682.765C2442.89 683.467 2442.97 684.289 2442.74 685.051C2442.51 685.814 2441.99 686.453 2441.29 686.83C2428.37 693.838 2414.94 699.855 2401.11 704.83C2400.79 704.945 2400.44 705.003 2400.1 705ZM2072.1 589C2071.74 589.001 2071.38 588.937 2071.04 588.81C2064.61 586.383 2058.62 582.902 2053.33 578.51C2053.01 578.266 2052.74 577.958 2052.54 577.607C2052.34 577.256 2052.21 576.867 2052.16 576.466C2052.12 576.064 2052.15 575.657 2052.27 575.269C2052.38 574.881 2052.57 574.52 2052.83 574.208C2053.09 573.897 2053.41 573.64 2053.77 573.454C2054.13 573.269 2054.52 573.158 2054.92 573.128C2055.33 573.098 2055.73 573.151 2056.11 573.282C2056.5 573.412 2056.85 573.619 2057.15 573.89C2061.93 577.853 2067.34 580.999 2073.15 583.2C2073.8 583.451 2074.35 583.922 2074.69 584.532C2075.03 585.142 2075.15 585.852 2075.02 586.539C2074.9 587.227 2074.54 587.85 2074 588.299C2073.46 588.748 2072.79 588.996 2072.09 589H2072.1ZM2048.58 572.82C2048.16 572.818 2047.75 572.728 2047.36 572.555C2046.98 572.383 2046.64 572.133 2046.36 571.82C2042.4 567.404 2038.91 562.584 2035.96 557.44C2035.56 556.751 2035.45 555.931 2035.66 555.162C2035.87 554.393 2036.37 553.738 2037.06 553.34C2037.75 552.942 2038.57 552.835 2039.34 553.041C2040.11 553.247 2040.76 553.751 2041.16 554.44C2043.89 559.22 2047.12 563.695 2050.8 567.79C2051.18 568.221 2051.44 568.753 2051.53 569.324C2051.62 569.895 2051.54 570.479 2051.31 571.008C2051.07 571.536 2050.69 571.985 2050.21 572.301C2049.72 572.617 2049.16 572.787 2048.58 572.79V572.82ZM2031.84 545C2031.24 544.999 2030.66 544.82 2030.16 544.485C2029.67 544.15 2029.28 543.675 2029.06 543.12C2019.9 520.34 2015.31 490.49 2015.4 454.38C2015.59 425.052 2018.45 395.802 2023.93 366.99C2024.08 366.208 2024.53 365.517 2025.19 365.07C2025.85 364.622 2026.66 364.455 2027.44 364.605C2028.23 364.755 2028.92 365.209 2029.37 365.869C2029.81 366.528 2029.98 367.338 2029.83 368.12C2020.16 418.26 2015.62 493.59 2034.62 540.88C2034.8 541.335 2034.87 541.828 2034.82 542.316C2034.77 542.804 2034.6 543.271 2034.32 543.678C2034.05 544.085 2033.68 544.418 2033.25 544.648C2032.81 544.879 2032.33 545 2031.84 545Z" fill="black"/>
<path d="M623.07 1995.78H622.2C621.771 1995.77 621.349 1995.67 620.963 1995.48C620.576 1995.3 620.234 1995.03 619.96 1994.7C619.644 1995 619.268 1995.22 618.858 1995.36C618.447 1995.5 618.011 1995.55 617.58 1995.5C595.52 1993.12 580.47 1976.5 574.29 1963.02V1962.92C573.55 1961.11 572.77 1959.06 571.99 1956.84C568.343 1958.62 564.433 1959.81 560.41 1960.35C557.164 1960.85 553.851 1960.71 550.66 1959.93C550.302 1959.85 549.963 1959.7 549.66 1959.49C549.318 1959.48 548.98 1959.42 548.66 1959.3C546.602 1958.52 544.689 1957.41 543 1956C542.595 1955.67 542.284 1955.23 542.1 1954.74C541.599 1954.58 541.15 1954.29 540.8 1953.9C539.58 1952.54 538.507 1951.06 537.6 1949.47C537.861 1948.62 537.79 1947.7 537.403 1946.9C537.015 1946.09 536.339 1945.47 535.51 1945.14C529.83 1931.02 530.98 1909.55 533.94 1894.14C534.015 1893.75 534.165 1893.38 534.383 1893.05C534.6 1892.73 534.88 1892.44 535.207 1892.22C535.534 1892 535.901 1891.85 536.288 1891.77C536.674 1891.69 537.072 1891.69 537.46 1891.76C537.847 1891.83 538.216 1891.99 538.545 1892.2C538.875 1892.42 539.158 1892.7 539.379 1893.03C539.6 1893.35 539.754 1893.72 539.833 1894.11C539.912 1894.49 539.915 1894.89 539.84 1895.28C537.16 1909.16 535.84 1929.96 541.07 1942.88C541.351 1943.59 541.351 1944.38 541.07 1945.09C541.787 1945.31 542.393 1945.8 542.77 1946.45C543.474 1947.67 544.302 1948.81 545.24 1949.86C545.496 1950.15 545.693 1950.49 545.82 1950.86C546.185 1950.97 546.524 1951.16 546.82 1951.4C547.987 1952.37 549.308 1953.14 550.73 1953.67C550.96 1953.76 551.178 1953.88 551.38 1954.02C551.63 1954.02 551.879 1954.05 552.12 1954.12C554.552 1954.69 557.072 1954.79 559.54 1954.4C563.225 1953.9 566.793 1952.76 570.08 1951.02C564.51 1932.41 560.56 1905.62 571.6 1890.17C577.02 1882.58 582.37 1879.51 587.51 1881.02C592.65 1882.53 597.86 1889.65 598.44 1902.27V1902.37C598.63 1916.61 593.96 1941.49 577.2 1953.66C578.03 1956.12 578.9 1958.44 579.78 1960.56C585.32 1972.62 598.7 1987.41 618.23 1989.56C619.009 1989.64 619.727 1990.02 620.23 1990.62C620.505 1990.34 620.836 1990.12 621.202 1989.98C621.567 1989.84 621.959 1989.78 622.35 1989.8C623.18 1989.8 624.09 1989.8 625.21 1989.8C625.569 1989.79 625.928 1989.84 626.27 1989.95C626.585 1989.8 626.923 1989.7 627.27 1989.66C628.947 1989.51 630.616 1989.27 632.27 1988.95C632.627 1988.89 632.992 1988.89 633.35 1988.95C633.657 1988.75 633.995 1988.61 634.35 1988.53C636.02 1988.16 637.76 1987.68 639.5 1987.11C639.821 1987 640.16 1986.95 640.5 1986.96C640.752 1986.77 641.032 1986.62 641.33 1986.51C645.056 1985.16 648.676 1983.54 652.16 1981.65C652.508 1981.44 652.894 1981.31 653.294 1981.26C653.695 1981.21 654.101 1981.24 654.491 1981.34C654.88 1981.45 655.243 1981.64 655.558 1981.89C655.874 1982.14 656.135 1982.46 656.326 1982.81C656.517 1983.17 656.635 1983.56 656.672 1983.96C656.708 1984.36 656.663 1984.77 656.54 1985.15C656.416 1985.54 656.215 1985.89 655.951 1986.2C655.686 1986.5 655.363 1986.75 655 1986.93C651.252 1988.96 647.358 1990.71 643.35 1992.16C642.629 1992.15 641.925 1992.38 641.35 1992.81C639.43 1993.44 637.52 1993.97 635.67 1994.39C635.28 1994.46 634.88 1994.46 634.49 1994.39C634.162 1994.61 633.795 1994.76 633.41 1994.83C631.58 1995.18 629.74 1995.44 627.79 1995.62C627.378 1995.66 626.962 1995.61 626.57 1995.48C626.193 1995.66 625.785 1995.76 625.37 1995.78C624.54 1995.76 623.78 1995.78 623.07 1995.78ZM585 1886.67C582.73 1886.67 579.68 1889.15 576.46 1893.67C567.46 1906.2 570.07 1929.38 575.27 1947.55C588.77 1936.39 592.57 1914.97 592.43 1902.55C592.06 1894.85 589.08 1887.8 585.79 1886.83C585.536 1886.74 585.27 1886.68 585 1886.67Z" fill="#FEDA00"/>
<path d="M1513.74 2507.81L1544.2 2477.34L1367.51 2283.34L1354.31 2368.64L903.45 2452L922.74 2486.52L1331 2630.68L1386.8 2588V2642.83L1482.26 2674.31L1513.74 2507.81Z" fill="black"/>
<path d="M1134.46 2334.16L1164.93 2303.7L988.24 2109.75L975.04 2195.05L524.17 2278.31L543.47 2312.84L951.68 2457L1007.53 2414.35V2469.19L1103 2500.7L1134.46 2334.16Z" fill="black"/>
<path d="M1524.92 2466.15C1524.79 2466.16 1524.67 2466.16 1524.54 2466.15C1524.15 2466.1 1523.77 2465.98 1523.42 2465.78C1523.08 2465.59 1522.78 2465.33 1522.54 2465.01C1522.29 2464.7 1522.12 2464.34 1522.01 2463.96C1521.91 2463.58 1521.88 2463.18 1521.93 2462.79C1522.93 2454.42 1592.43 2293.45 1600.35 2275.12C1600.69 2274.43 1601.28 2273.9 1602.01 2273.63C1602.73 2273.36 1603.53 2273.39 1604.23 2273.69C1604.94 2274 1605.5 2274.56 1605.8 2275.27C1606.1 2275.98 1606.12 2276.78 1605.85 2277.5C1568.85 2363.21 1528.93 2457.55 1527.85 2463.56C1527.75 2464.27 1527.4 2464.92 1526.86 2465.4C1526.33 2465.87 1525.64 2466.14 1524.92 2466.15ZM1384.77 2314.82C1384.43 2314.82 1384.09 2314.76 1383.77 2314.65C1383.4 2314.52 1383.06 2314.32 1382.76 2314.05C1382.47 2313.79 1382.23 2313.47 1382.06 2313.11C1381.89 2312.76 1381.79 2312.37 1381.77 2311.98C1381.75 2311.59 1381.81 2311.19 1381.94 2310.82L1407.33 2238.72C1407.46 2238.35 1407.66 2238.01 1407.93 2237.71C1408.19 2237.42 1408.51 2237.18 1408.87 2237.01C1409.22 2236.84 1409.61 2236.74 1410 2236.72C1410.39 2236.7 1410.79 2236.76 1411.16 2236.89C1411.53 2237.02 1411.87 2237.22 1412.17 2237.49C1412.46 2237.75 1412.7 2238.07 1412.87 2238.43C1413.04 2238.78 1413.14 2239.17 1413.16 2239.56C1413.18 2239.95 1413.12 2240.35 1412.99 2240.72L1387.6 2312.82C1387.39 2313.41 1387.01 2313.91 1386.5 2314.27C1386 2314.63 1385.39 2314.82 1384.77 2314.82Z" fill="black"/>
<path d="M1145.64 2292.5H1145.25C1144.86 2292.45 1144.48 2292.32 1144.13 2292.13C1143.79 2291.93 1143.49 2291.67 1143.25 2291.35C1143 2291.04 1142.83 2290.68 1142.72 2290.3C1142.62 2289.91 1142.6 2289.51 1142.65 2289.12C1143.1 2285.55 1152.72 2264.37 1176.23 2213.22C1191.84 2179.28 1209.53 2140.8 1221.51 2113.06C1221.85 2112.37 1222.44 2111.83 1223.17 2111.57C1223.89 2111.3 1224.69 2111.32 1225.39 2111.63C1226.1 2111.94 1226.66 2112.5 1226.96 2113.21C1227.26 2113.92 1227.28 2114.72 1227.01 2115.44C1215.01 2143.24 1197.3 2181.75 1181.69 2215.73C1165.76 2250.37 1149.3 2286.19 1148.6 2289.92C1148.5 2290.63 1148.14 2291.29 1147.6 2291.76C1147.06 2292.24 1146.36 2292.5 1145.64 2292.5ZM1005.5 2141.18C1005.19 2141.18 1004.89 2141.14 1004.6 2141.04C1004.22 2140.93 1003.87 2140.74 1003.56 2140.49C1003.26 2140.24 1003 2139.93 1002.82 2139.58C1002.63 2139.23 1002.52 2138.84 1002.48 2138.45C1002.44 2138.06 1002.48 2137.66 1002.6 2137.28L1030.19 2049.93C1030.3 2049.54 1030.48 2049.18 1030.73 2048.86C1030.98 2048.55 1031.3 2048.29 1031.65 2048.1C1032 2047.9 1032.39 2047.79 1032.79 2047.75C1033.19 2047.71 1033.6 2047.75 1033.98 2047.87C1034.37 2047.99 1034.72 2048.19 1035.03 2048.45C1035.33 2048.71 1035.58 2049.03 1035.76 2049.39C1035.94 2049.75 1036.05 2050.14 1036.07 2050.55C1036.1 2050.95 1036.04 2051.35 1035.91 2051.73L1008.32 2139.08C1008.13 2139.68 1007.76 2140.21 1007.25 2140.59C1006.74 2140.96 1006.13 2141.17 1005.5 2141.18Z" fill="black"/>
<path d="M2611.92 2078.17C2608.42 2078.08 2604.97 2077.37 2601.73 2076.07C2599.67 2075.45 2594.46 2074.22 2587.3 2072.51C2556 2065.06 2490.85 2049.51 2457.1 2032.6L2456.68 2032.39L2456.34 2032.06L2419.08 1995.31L2376.64 1887.52L2382.22 1885.32L2424.22 1991.93L2460.22 2027.45C2493.47 2044.01 2557.74 2059.31 2588.69 2066.68C2596.34 2068.49 2601.39 2069.68 2603.55 2070.35L2603.75 2070.41C2607.91 2071.98 2615.36 2073.89 2618.57 2069.07C2621.03 2065.38 2620.3 2058.87 2617.09 2055.2L2556.88 2018.11L2558.77 2012.58L2687.55 2026.49H2687.72C2693.07 2026.49 2696.46 2024.37 2697.03 2020.64C2697.57 2017.14 2695.48 2013.42 2692.47 2012.51L2663.23 2003.73L2663.75 1997.88C2670.65 1997.1 2682.26 1995.57 2685.97 1994.56C2688.46 1993.89 2690.72 1992.56 2692.52 1990.72C2695.41 1987.27 2696.19 1983.86 2694.77 1980.87C2693.85 1979.18 2692.48 1977.77 2690.81 1976.8C2689.15 1975.82 2687.25 1975.32 2685.32 1975.35L2678.55 1975.43L2683.03 1970.36C2686.14 1966.85 2689.23 1961.61 2686.28 1956.65C2683.81 1952.5 2677.52 1949.81 2672.82 1950.89L2670.44 1945.51C2673.78 1943.18 2675 1941.15 2674.72 1940.17C2674.44 1939.19 2671.72 1936.93 2663.72 1936.46L2509.43 1923.15L2506.52 1899.51L2512.52 1898.77L2514.83 1917.59L2664.2 1930.47C2673.41 1931.01 2679.25 1933.88 2680.56 1938.54C2680.84 1939.66 2680.88 1940.83 2680.67 1941.96C2680.46 1943.1 2680.01 1944.18 2679.34 1945.12C2681.82 1945.66 2684.18 1946.68 2686.26 1948.13C2688.35 1949.58 2690.12 1951.44 2691.49 1953.58C2693.34 1956.68 2695.34 1962.58 2690.69 1970.2C2692.74 1970.84 2694.65 1971.89 2696.29 1973.28C2697.93 1974.67 2699.28 1976.38 2700.25 1978.3C2701.68 1981.3 2703.17 1987.41 2697.18 1994.57C2694.6 1997.36 2691.28 1999.36 2687.61 2000.34C2684.59 2001.05 2681.53 2001.62 2678.45 2002.02L2694.25 2006.77C2700.18 2008.54 2704.03 2015.04 2703.02 2021.56C2702.19 2026.94 2697.64 2032.68 2687.39 2032.49H2687.11L2571.33 2020L2620.93 2050.55L2621.2 2050.84C2626.52 2056.46 2627.61 2066.34 2623.57 2072.42C2621.92 2074.88 2618.48 2078.17 2611.92 2078.17Z" fill="black"/>
<path d="M1290.57 1183.18C1289.99 1183.18 1289.42 1183.01 1288.93 1182.69C1288.45 1182.37 1288.06 1181.92 1287.83 1181.39C1268.83 1138.39 1233.83 1048.55 1237.42 1016.08C1239.09 1000.81 1243.85 991.33 1251.56 987.89C1259.96 984.16 1268.01 989.19 1270.27 990.82L1270.92 991.29L1271.25 992.02C1275.01 1000.33 1278.82 1010.54 1282.51 1020.4C1286.42 1030.88 1290.12 1040.79 1293.25 1047.06C1294.79 1050.13 1301.77 1059.68 1327.25 1053.78H1327.41C1341.21 1050.59 1347.32 1027.15 1348.19 1011.42L1305.27 961.09C1299.04 961.45 1281.83 961.79 1250.8 960.99C1233 960.54 1222.19 956.6 1218.67 949.28C1216.52 944.84 1217.37 939.38 1220.92 934.68L1221.55 933.84L1315.55 910.05L1413.11 991.82L1422.55 1151.91C1422.6 1152.71 1422.33 1153.49 1421.8 1154.08C1421.27 1154.68 1420.53 1155.04 1419.73 1155.09C1418.93 1155.14 1418.15 1154.87 1417.56 1154.34C1416.96 1153.81 1416.6 1153.07 1416.55 1152.27L1407.25 994.75L1314.03 916.62L1225.03 939.12C1224.03 940.72 1222.58 943.79 1223.97 946.67C1225.36 949.55 1230.7 954.48 1250.86 955C1284.77 955.87 1301.86 955.38 1306.21 955L1307.75 954.86L1354.18 1009.32V1010.49C1353.53 1026.7 1347.44 1055.29 1328.69 1059.61H1328.55C1321.03 1061.35 1295.87 1065.78 1287.84 1049.72C1284.56 1043.16 1280.84 1033.12 1276.84 1022.48C1273.3 1013.01 1269.64 1003.23 1266.08 995.23C1262.77 993.06 1258.03 991.54 1253.95 993.36C1248.41 995.83 1244.73 1003.9 1243.33 1016.72C1241.85 1030.25 1247.66 1056.95 1260.13 1093.96C1273.34 1133.12 1288.83 1168.96 1293.26 1178.96C1293.43 1179.32 1293.52 1179.71 1293.53 1180.11C1293.54 1180.51 1293.48 1180.91 1293.33 1181.28C1293.19 1181.65 1292.98 1181.99 1292.7 1182.28C1292.43 1182.57 1292.1 1182.8 1291.73 1182.96C1291.36 1183.11 1290.97 1183.19 1290.57 1183.18Z" fill="black"/>
<path d="M2667.62 2004.54C2667.45 2004.55 2667.28 2004.55 2667.11 2004.54L2608.8 1994.54C2608.41 1994.47 2608.04 1994.33 2607.71 1994.12C2607.37 1993.91 2607.08 1993.64 2606.85 1993.32C2606.63 1993 2606.46 1992.64 2606.37 1992.25C2606.29 1991.87 2606.27 1991.47 2606.34 1991.08C2606.41 1990.69 2606.55 1990.32 2606.76 1989.99C2606.97 1989.65 2607.24 1989.36 2607.56 1989.13C2607.88 1988.9 2608.25 1988.74 2608.63 1988.65C2609.01 1988.57 2609.41 1988.55 2609.8 1988.62L2668.11 1998.62C2668.91 1998.69 2669.64 1999.07 2670.16 1999.68C2670.67 2000.29 2670.92 2001.08 2670.86 2001.88C2670.79 2002.67 2670.41 2003.41 2669.8 2003.92C2669.19 2004.44 2668.4 2004.69 2667.6 2004.62L2667.62 2004.54ZM2599.62 1976.19C2598.82 1976.19 2598.06 1975.87 2597.5 1975.31C2596.94 1974.75 2596.62 1973.99 2596.62 1973.19C2596.62 1972.39 2596.94 1971.63 2597.5 1971.07C2598.06 1970.51 2598.82 1970.19 2599.62 1970.19L2686.2 1969.31C2687 1969.31 2687.76 1969.63 2688.32 1970.19C2688.88 1970.75 2689.2 1971.51 2689.2 1972.31C2689.2 1973.11 2688.88 1973.87 2688.32 1974.43C2687.76 1974.99 2687 1975.31 2686.2 1975.31L2599.62 1976.19ZM2592.95 1951.39C2592.15 1951.39 2591.39 1951.07 2590.83 1950.51C2590.27 1949.95 2589.95 1949.19 2589.95 1948.39C2589.95 1947.59 2590.27 1946.83 2590.83 1946.27C2591.39 1945.71 2592.15 1945.39 2592.95 1945.39L2672.74 1944.86C2673.54 1944.86 2674.3 1945.18 2674.86 1945.74C2675.42 1946.3 2675.74 1947.06 2675.74 1947.86C2675.74 1948.66 2675.42 1949.42 2674.86 1949.98C2674.3 1950.54 2673.54 1950.86 2672.74 1950.86L2592.95 1951.39Z" fill="black"/>
<path d="M1961.05 1042.09C1986.89 1042.89 1999.36 1065.09 2000.53 1073.65C2025.88 1073.65 2090.97 1078.65 2148.53 1098.65C2206.09 1118.65 2250 1185.21 2264.75 1216L2581.33 1897.85L2357.73 1927.74L2200.55 1503.47L2297.49 1851.14C2177.14 1732.79 1911.43 1472.14 1813.14 1429.63C1714.85 1387.12 1634.31 1461.15 1606.32 1503.47C1597.93 1494.62 1577.32 1475.55 1562.18 1470.06C1468.38 1436.84 1390.38 1483.9 1363.11 1511.58L1211.67 1184.27L1451 1108.48L1543.82 1382.11C1576.39 1334.89 1653.49 1229.21 1701.37 1184.26C1749.25 1139.31 1817.37 1115.02 1845.52 1108.48C1845.52 1103.48 1846.23 1091.02 1849.06 1081.73C1852.63 1070.12 1928.74 1041.08 1961.05 1042.09Z" fill="#FEDA00"/>
<path d="M2191.6 1478.93C2190.95 1478.93 2190.31 1478.72 2189.79 1478.32C2189.26 1477.93 2188.89 1477.37 2188.71 1476.74L2150.57 1340C2150.36 1339.23 2150.45 1338.41 2150.84 1337.72C2151.23 1337.03 2151.88 1336.51 2152.65 1336.3C2153.42 1336.09 2154.24 1336.18 2154.93 1336.57C2155.62 1336.96 2156.14 1337.61 2156.35 1338.38L2194.49 1475.16C2194.6 1475.54 2194.63 1475.94 2194.58 1476.33C2194.53 1476.72 2194.41 1477.1 2194.22 1477.44C2194.02 1477.78 2193.76 1478.09 2193.45 1478.33C2193.14 1478.57 2192.79 1478.75 2192.41 1478.86C2192.14 1478.92 2191.87 1478.94 2191.6 1478.93ZM1756.28 1418.43C1756.05 1418.43 1755.82 1418.4 1755.6 1418.35C1754.83 1418.17 1754.16 1417.69 1753.74 1417.01C1753.32 1416.34 1753.18 1415.52 1753.36 1414.75L1777 1313.48C1777.08 1313.08 1777.23 1312.71 1777.46 1312.38C1777.69 1312.04 1777.98 1311.76 1778.31 1311.54C1778.65 1311.32 1779.03 1311.17 1779.43 1311.1C1779.83 1311.03 1780.23 1311.04 1780.62 1311.14C1781.02 1311.23 1781.39 1311.4 1781.71 1311.63C1782.04 1311.87 1782.31 1312.17 1782.52 1312.52C1782.73 1312.86 1782.86 1313.25 1782.92 1313.65C1782.97 1314.04 1782.95 1314.45 1782.84 1314.84L1759.17 1416.11C1759.02 1416.76 1758.65 1417.35 1758.13 1417.77C1757.6 1418.19 1756.95 1418.42 1756.28 1418.43Z" fill="black"/>
<path d="M1530.48 1442C1530.25 1442 1530.02 1441.97 1529.8 1441.92C1529.03 1441.74 1528.36 1441.26 1527.94 1440.58C1527.52 1439.91 1527.38 1439.09 1527.56 1438.32L1538 1393.7C1538.2 1392.95 1538.69 1392.31 1539.36 1391.91C1540.02 1391.51 1540.82 1391.38 1541.58 1391.56C1542.33 1391.74 1542.99 1392.2 1543.41 1392.85C1543.84 1393.51 1543.99 1394.3 1543.84 1395.06L1533.39 1439.64C1533.24 1440.31 1532.88 1440.9 1532.35 1441.33C1531.82 1441.76 1531.16 1442 1530.48 1442Z" fill="black"/>
<path d="M2024.94 1028.1L1942.58 1052.23L1945.01 1020.05C1908.01 998.97 1906.19 958.57 1896.87 945.51C1868.08 967.64 1830.46 970.67 1817.92 970.31C1816.41 978.15 1817.1 987.75 1817.63 991.57C1821.19 1011.23 1835.93 1053.57 1866.63 1068.86C1862.89 1071.1 1854.7 1076.16 1851.79 1078.48L1778.31 1091.22C1774.83 1065.89 1798.89 1051.58 1797.25 1006.82C1794.42 929.82 1832.04 883.37 1876.47 883.82C1904.6 884.11 1920.76 898.12 1941.69 916.42C1952.69 926.05 1963.1 928.61 1982.49 946.15C2014.32 984.13 1989.3 1007.79 2024.94 1028.1Z" fill="black"/>
<path d="M1866.62 1115C1865.89 1115.01 1865.19 1114.75 1864.64 1114.28C1864.09 1113.81 1863.73 1113.16 1863.62 1112.44L1858.89 1080.44C1858.83 1080.05 1858.85 1079.65 1858.95 1079.27C1859.04 1078.89 1859.21 1078.53 1859.45 1078.21C1859.68 1077.89 1859.98 1077.63 1860.32 1077.42C1860.65 1077.22 1861.03 1077.09 1861.42 1077.03C1861.81 1076.97 1862.21 1076.99 1862.59 1077.09C1862.97 1077.18 1863.33 1077.35 1863.65 1077.59C1863.97 1077.82 1864.23 1078.12 1864.44 1078.46C1864.64 1078.8 1864.77 1079.17 1864.83 1079.56L1869.56 1111.56C1869.62 1111.95 1869.6 1112.35 1869.5 1112.73C1869.41 1113.11 1869.24 1113.47 1869 1113.79C1868.77 1114.11 1868.47 1114.37 1868.13 1114.58C1867.79 1114.78 1867.42 1114.91 1867.03 1114.97L1866.62 1115ZM1890.27 1101.93C1889.6 1101.93 1888.94 1101.7 1888.41 1101.29C1887.88 1100.87 1887.51 1100.29 1887.35 1099.63L1880.82 1072.37C1880.73 1071.99 1880.71 1071.59 1880.77 1071.2C1880.84 1070.81 1880.97 1070.44 1881.18 1070.1C1881.39 1069.76 1881.66 1069.47 1881.98 1069.24C1882.29 1069.01 1882.66 1068.84 1883.04 1068.75C1883.42 1068.66 1883.82 1068.64 1884.21 1068.7C1884.6 1068.77 1884.97 1068.9 1885.31 1069.11C1885.65 1069.32 1885.94 1069.59 1886.17 1069.91C1886.4 1070.23 1886.57 1070.59 1886.66 1070.97L1893.19 1098.23C1893.28 1098.61 1893.3 1099.01 1893.24 1099.4C1893.17 1099.79 1893.04 1100.16 1892.83 1100.5C1892.62 1100.84 1892.35 1101.13 1892.03 1101.36C1891.72 1101.59 1891.35 1101.76 1890.97 1101.85C1890.74 1101.89 1890.5 1101.91 1890.27 1101.9V1101.93ZM1919.34 1091.57C1918.75 1091.57 1918.17 1091.39 1917.67 1091.06C1917.18 1090.74 1916.8 1090.27 1916.57 1089.72L1906.43 1065.39C1906.27 1065.02 1906.18 1064.63 1906.17 1064.23C1906.17 1063.83 1906.24 1063.43 1906.39 1063.06C1906.54 1062.69 1906.76 1062.35 1907.04 1062.07C1907.32 1061.79 1907.65 1061.56 1908.02 1061.41C1908.39 1061.25 1908.79 1061.18 1909.19 1061.18C1909.59 1061.18 1909.98 1061.26 1910.35 1061.42C1910.72 1061.57 1911.05 1061.8 1911.33 1062.09C1911.61 1062.38 1911.82 1062.72 1911.97 1063.09L1922.11 1087.42C1922.41 1088.15 1922.42 1088.98 1922.11 1089.72C1921.81 1090.45 1921.22 1091.03 1920.49 1091.34C1920.12 1091.48 1919.73 1091.55 1919.34 1091.54V1091.57ZM1942.99 1089.32C1942.39 1089.32 1941.81 1089.14 1941.32 1088.81C1940.82 1088.48 1940.44 1088.01 1940.21 1087.46L1926.92 1055C1926.62 1054.26 1926.62 1053.44 1926.93 1052.7C1927.24 1051.97 1927.82 1051.38 1928.56 1051.08C1929.3 1050.78 1930.12 1050.78 1930.86 1051.09C1931.59 1051.4 1932.18 1051.98 1932.48 1052.72L1945.77 1085.17C1945.92 1085.54 1946 1085.93 1946 1086.32C1945.99 1086.72 1945.92 1087.11 1945.76 1087.47C1945.61 1087.83 1945.39 1088.17 1945.11 1088.44C1944.83 1088.72 1944.5 1088.94 1944.13 1089.09C1943.77 1089.23 1943.39 1089.29 1943 1089.29L1942.99 1089.32ZM1976.99 1081.43C1976.48 1081.43 1975.98 1081.3 1975.54 1081.05C1975.09 1080.81 1974.72 1080.45 1974.45 1080.02L1958.23 1054.11C1958 1053.78 1957.84 1053.4 1957.76 1053C1957.67 1052.6 1957.67 1052.19 1957.76 1051.8C1957.84 1051.4 1958 1051.02 1958.23 1050.69C1958.46 1050.35 1958.76 1050.07 1959.1 1049.86C1959.45 1049.64 1959.83 1049.5 1960.23 1049.44C1960.63 1049.37 1961.04 1049.39 1961.44 1049.49C1961.83 1049.59 1962.2 1049.77 1962.52 1050.02C1962.84 1050.27 1963.11 1050.58 1963.31 1050.93L1979.53 1076.84C1979.81 1077.29 1979.97 1077.82 1979.98 1078.35C1980 1078.89 1979.87 1079.41 1979.61 1079.88C1979.35 1080.35 1978.97 1080.74 1978.51 1081.01C1978.05 1081.29 1977.52 1081.43 1976.99 1081.43Z" fill="black"/>
<path d="M1844.79 1048.33H1844.58L1839.39 1047.96L1842.32 1043.65C1851.32 1030.49 1851.14 1011.98 1841.99 998.65C1835.55 989.27 1825.12 987.65 1817.52 989.18C1817.13 989.278 1816.72 989.295 1816.32 989.231C1815.92 989.167 1815.54 989.024 1815.2 988.809C1814.86 988.594 1814.56 988.312 1814.33 987.981C1814.1 987.649 1813.94 987.275 1813.86 986.879C1813.78 986.484 1813.77 986.076 1813.85 985.68C1813.93 985.284 1814.09 984.908 1814.32 984.575C1814.55 984.242 1814.84 983.958 1815.18 983.74C1815.52 983.523 1815.9 983.377 1816.3 983.31C1825.81 981.31 1838.84 983.45 1846.93 995.25C1851.34 1001.83 1854.02 1009.42 1854.71 1017.32C1855.41 1025.21 1854.11 1033.15 1850.93 1040.41C1856.31 1038.09 1861.08 1034.53 1864.83 1030.03C1865.34 1029.44 1866.06 1029.07 1866.84 1029.01C1867.62 1028.94 1868.39 1029.18 1868.99 1029.68C1869.6 1030.17 1869.99 1030.88 1870.07 1031.66C1870.16 1032.43 1869.95 1033.21 1869.47 1033.83C1860.41 1044.9 1847.75 1048.33 1844.79 1048.33Z" fill="black"/>
<path d="M1896.25 987C1895.83 986.999 1895.41 986.91 1895.03 986.737C1894.64 986.565 1894.3 986.314 1894.02 986C1889.71 981.21 1878.59 974.43 1867.25 983.08C1866.94 983.319 1866.58 983.494 1866.2 983.595C1865.82 983.696 1865.42 983.721 1865.03 983.668C1864.64 983.616 1864.26 983.487 1863.92 983.289C1863.58 983.091 1863.28 982.828 1863.04 982.515C1862.81 982.202 1862.63 981.845 1862.53 981.464C1862.43 981.083 1862.4 980.686 1862.46 980.295C1862.51 979.905 1862.64 979.529 1862.84 979.188C1863.03 978.847 1863.3 978.549 1863.61 978.31C1870.09 973.31 1885.72 967.78 1898.48 981.99C1898.87 982.421 1899.12 982.955 1899.21 983.527C1899.3 984.098 1899.22 984.684 1898.98 985.212C1898.75 985.74 1898.36 986.189 1897.88 986.505C1897.39 986.82 1896.83 986.989 1896.25 986.99V987Z" fill="black"/>
<path d="M1870.85 1056.67H1870.35C1869.55 1056.64 1868.8 1056.3 1868.26 1055.71C1867.72 1055.13 1867.43 1054.36 1867.46 1053.56C1867.49 1052.76 1867.83 1052.01 1868.42 1051.47C1869 1050.93 1869.77 1050.64 1870.57 1050.67C1873.97 1050.79 1881.26 1049.19 1884.82 1042.25C1885.18 1041.54 1885.81 1041.01 1886.57 1040.76C1886.95 1040.64 1887.34 1040.6 1887.73 1040.63C1888.13 1040.66 1888.51 1040.77 1888.86 1040.95C1889.21 1041.13 1889.52 1041.38 1889.78 1041.68C1890.03 1041.98 1890.23 1042.33 1890.35 1042.7C1890.47 1043.08 1890.51 1043.47 1890.48 1043.86C1890.45 1044.26 1890.34 1044.64 1890.16 1044.99C1885.39 1054.28 1875.74 1056.67 1870.85 1056.67Z" fill="black"/>
<path d="M1878 1005.06C1875.04 1005.1 1872.09 1004.66 1869.27 1003.78C1868.52 1003.52 1867.9 1002.98 1867.55 1002.26C1867.19 1001.55 1867.14 1000.72 1867.4 999.97C1867.66 999.217 1868.2 998.597 1868.92 998.246C1869.63 997.895 1870.46 997.843 1871.21 998.1C1875.48 999.331 1879.99 999.425 1884.3 998.372C1888.62 997.32 1892.58 995.157 1895.8 992.1C1896.08 991.82 1896.42 991.599 1896.79 991.451C1897.16 991.303 1897.56 991.23 1897.96 991.237C1898.36 991.244 1898.75 991.331 1899.12 991.492C1899.48 991.653 1899.81 991.886 1900.09 992.176C1900.36 992.466 1900.57 992.808 1900.71 993.182C1900.85 993.556 1900.92 993.954 1900.9 994.353C1900.89 994.752 1900.79 995.144 1900.62 995.506C1900.45 995.867 1900.22 996.192 1899.92 996.46C1894 1002.05 1886.14 1005.13 1878 1005.06Z" fill="black"/>
<path d="M1832 1018.68C1826.42 1018.51 1821.1 1016.32 1817 1012.54C1816.71 1012.27 1816.48 1011.95 1816.31 1011.59C1816.14 1011.24 1816.05 1010.85 1816.03 1010.46C1816.02 1010.06 1816.08 1009.67 1816.21 1009.3C1816.35 1008.93 1816.55 1008.59 1816.82 1008.3C1817.09 1008.01 1817.41 1007.77 1817.77 1007.61C1818.12 1007.44 1818.51 1007.35 1818.9 1007.33C1819.3 1007.32 1819.69 1007.38 1820.06 1007.51C1820.43 1007.65 1820.77 1007.85 1821.06 1008.12C1823.71 1010.56 1828.57 1013.2 1833.52 1012.59C1837.69 1012.07 1841.43 1009.34 1844.62 1004.48C1844.83 1004.13 1845.1 1003.82 1845.43 1003.58C1845.76 1003.34 1846.13 1003.16 1846.53 1003.07C1846.93 1002.98 1847.34 1002.97 1847.74 1003.04C1848.14 1003.11 1848.52 1003.26 1848.86 1003.49C1849.2 1003.71 1849.5 1004 1849.72 1004.35C1849.94 1004.69 1850.1 1005.07 1850.17 1005.47C1850.24 1005.87 1850.22 1006.28 1850.13 1006.68C1850.04 1007.08 1849.86 1007.45 1849.62 1007.78C1845.41 1014.18 1840.24 1017.78 1834.23 1018.54C1833.49 1018.63 1832.75 1018.68 1832 1018.68Z" fill="black"/>
<path d="M1741.23 2304.24L1603.89 2278.62L1367.6 2234.52L1460.79 1866.52L1324.61 2152.1L1255.07 2128.57H1255L975.63 2034L977.79 2030.75C1005.11 1989.75 1102 1845.13 1202.12 1708.11C1299.01 1575.48 1361.51 1501.23 1387.88 1487.43C1503 1422.65 1578.08 1465.09 1604.35 1499.28C1610.99 1489.84 1625.13 1472.28 1644.35 1454.96C1670.88 1431.71 1699.84 1418.36 1730.46 1415.25C1757.4 1412.51 1785.38 1417.33 1816.01 1429.98C1871.45 1452.87 1924.42 1497.74 1967.01 1533.79C1976.81 1542.1 1986.07 1549.94 1994.86 1557.11L1995.04 1557.27L2206.87 1760.63L2206.94 1760.69L2299.12 1849.2L2299.2 1850.37C2304.61 1941.43 2241 2013.06 2206.6 2038.21L2205.88 2038.74H2204.99L1764.12 2062.3L1741.23 2304.24ZM1608 2273.29L1735.85 2297.14L1758.38 2059.27C1758.37 2059.21 1758.37 2059.16 1758.38 2059.1L1800.05 1714.65C1800.15 1713.85 1800.55 1713.13 1801.18 1712.63C1801.81 1712.14 1802.61 1711.91 1803.41 1712.01C1804.21 1712.11 1804.93 1712.51 1805.43 1713.14C1805.92 1713.77 1806.15 1714.57 1806.05 1715.37L1764.8 2056.37L2203.8 2032.91C2237.29 2008.08 2297.92 1939.26 2293.3 1851.97L2206.75 1768.88L2163.07 1993L1763.07 1551L1608 2273.29ZM1375 2229.79L1602.16 2272.19L1759.73 1538.38L2159.51 1980.12L2201.62 1763.88L1991 1561.7C1982.2 1554.52 1973 1546.7 1963.16 1538.39C1920.92 1502.61 1868.35 1458.08 1813.78 1435.54C1750.62 1409.46 1696.52 1417.29 1648.4 1459.47C1626.85 1478.85 1611.94 1498.41 1607.02 1506.09C1607.02 1506.17 1606.92 1506.24 1606.87 1506.32C1599.87 1516.22 1581.2 1544.32 1557.59 1592.23L1557.53 1592.35C1530.44 1647.35 1494 1734.65 1474.11 1838.29L1474.05 1838.58L1375 2229.79ZM1259.57 2123.72L1321.51 2144.72L1468.3 1836.89C1487.91 1734.89 1523.44 1648.66 1550.46 1593.21L1391.57 1562.97L1259.57 2123.72ZM985 2030.84L1253.87 2121.84L1387 1556L1553.16 1587.62C1575.29 1542.96 1593.05 1515.7 1600.76 1504.62C1576.88 1471.73 1504.2 1428.95 1390.76 1492.8C1365.5 1506.03 1301.98 1581.72 1206.98 1711.8C1109.41 1845.18 1014.91 1985.88 985 2030.84Z" fill="black"/>
<path d="M1252.48 929.73C1252.69 930.074 1252.96 930.374 1253.28 930.611C1253.61 930.848 1253.97 931.017 1254.36 931.11C1254.75 931.202 1255.16 931.216 1255.55 931.149C1255.95 931.082 1256.33 930.937 1256.67 930.722C1257 930.506 1257.3 930.225 1257.52 929.895C1257.75 929.565 1257.91 929.193 1257.99 928.801C1258.07 928.408 1258.08 928.003 1258 927.609C1257.92 927.216 1257.76 926.842 1257.54 926.51L1252.48 929.73ZM1278.26 1015.97C1278.26 1059.3 1261.05 1100.86 1230.41 1131.5C1199.77 1162.14 1158.21 1179.35 1114.88 1179.35V1185.35C1159.8 1185.35 1202.88 1167.51 1234.64 1135.75C1266.41 1103.99 1284.26 1060.92 1284.26 1016L1278.26 1015.97ZM1114.88 852.58C1172.78 852.58 1223.44 884.17 1252.48 929.73L1257.54 926.51C1227.54 879.39 1175.03 846.58 1114.88 846.58V852.58ZM1268.45 960.07C1274.96 977.986 1278.28 996.906 1278.26 1015.97H1284.26C1284.29 996.191 1280.85 976.56 1274.09 957.97L1268.45 960.07ZM952 1028.55C951.69 1024.4 951.52 1020.2 951.52 1015.97H945.52C945.52 1020.35 945.687 1024.68 946.02 1028.97L952 1028.55ZM1034 1157.92C1014.63 1146.88 997.714 1131.99 984.301 1114.18C970.888 1096.36 961.257 1075.99 956 1054.32L950.17 1055.72C955.616 1078.19 965.595 1099.3 979.495 1117.77C993.395 1136.24 1010.92 1151.68 1031 1163.13L1034 1157.92ZM1115 1179.35C1089.51 1179.39 1064.37 1173.44 1041.6 1161.98L1038.9 1167.34C1062.51 1179.22 1088.57 1185.38 1115 1185.34V1179.35ZM951.49 1016C951.475 998.03 954.424 980.18 960.22 963.17L954.55 961.23C948.534 978.863 945.473 997.369 945.49 1016H951.49ZM962 958.17C973.75 927.132 994.668 900.406 1021.98 881.544C1049.28 862.683 1081.68 852.581 1114.87 852.58V846.58C1080.47 846.582 1046.88 857.056 1018.57 876.611C990.263 896.165 968.578 923.873 956.4 956.05L962 958.17Z" fill="black"/>
<path d="M1058.06 1255.68C1047.84 1255.68 1037.84 1252.65 1029.34 1246.97C1020.84 1241.29 1014.22 1233.22 1010.3 1223.77C1006.39 1214.33 1005.37 1203.93 1007.36 1193.91C1009.36 1183.88 1014.28 1174.67 1021.51 1167.44C1028.74 1160.21 1037.95 1155.29 1047.98 1153.29C1058 1151.3 1068.4 1152.32 1077.84 1156.23C1087.29 1160.15 1095.36 1166.77 1101.04 1175.27C1106.72 1183.77 1109.75 1193.77 1109.75 1203.99C1109.73 1217.69 1104.28 1230.83 1094.59 1240.52C1084.9 1250.21 1071.76 1255.66 1058.06 1255.68ZM1058.06 1158.3C1049.02 1158.3 1040.19 1160.98 1032.68 1166C1025.16 1171.02 1019.31 1178.16 1015.85 1186.51C1012.39 1194.85 1011.49 1204.04 1013.25 1212.9C1015.01 1221.77 1019.36 1229.91 1025.75 1236.3C1032.14 1242.69 1040.28 1247.04 1049.15 1248.8C1058.01 1250.57 1067.2 1249.66 1075.54 1246.2C1083.89 1242.74 1091.03 1236.89 1096.05 1229.37C1101.07 1221.86 1103.75 1213.03 1103.75 1203.99C1103.74 1191.88 1098.92 1180.26 1090.36 1171.69C1081.79 1163.13 1070.17 1158.31 1058.06 1158.3Z" fill="black"/>
<path d="M967.55 965.83H967.32C957.19 965.641 947.541 961.476 940.455 954.236C933.368 946.995 929.413 937.258 929.442 927.127C929.47 916.995 933.481 907.282 940.609 900.081C947.737 892.881 957.409 888.772 967.54 888.64H967.77C977.9 888.829 987.549 892.994 994.635 900.235C1001.72 907.475 1005.68 917.212 1005.65 927.343C1005.62 937.475 1001.61 947.189 994.481 954.389C987.353 961.589 977.681 965.699 967.55 965.83ZM967.55 894.64C959.002 894.763 950.845 898.238 944.835 904.317C938.825 910.397 935.443 918.593 935.418 927.142C935.393 935.69 938.727 943.907 944.702 950.021C950.676 956.135 958.813 959.658 967.36 959.83C975.913 959.741 984.087 956.293 990.122 950.232C996.156 944.17 999.567 935.98 999.618 927.427C999.669 918.874 996.357 910.644 990.395 904.51C984.434 898.377 976.301 894.832 967.75 894.64H967.55Z" fill="black"/>
<path d="M1058.06 1248.62C1049.23 1248.62 1040.6 1246 1033.27 1241.1C1025.93 1236.19 1020.21 1229.22 1016.83 1221.07C1013.45 1212.91 1012.57 1203.94 1014.29 1195.28C1016.01 1186.63 1020.26 1178.67 1026.5 1172.43C1032.74 1166.19 1040.7 1161.94 1049.35 1160.22C1058.01 1158.5 1066.98 1159.38 1075.14 1162.76C1083.29 1166.14 1090.26 1171.86 1095.17 1179.2C1100.07 1186.53 1102.69 1195.16 1102.69 1203.99C1102.68 1215.82 1097.97 1227.17 1089.6 1235.53C1081.24 1243.9 1069.89 1248.61 1058.06 1248.62ZM1058.06 1165.36C1050.42 1165.36 1042.95 1167.63 1036.6 1171.87C1030.25 1176.12 1025.29 1182.15 1022.37 1189.21C1019.45 1196.27 1018.68 1204.03 1020.17 1211.53C1021.66 1219.02 1025.34 1225.9 1030.74 1231.31C1036.15 1236.71 1043.03 1240.39 1050.52 1241.88C1058.02 1243.37 1065.78 1242.6 1072.84 1239.68C1079.9 1236.76 1085.94 1231.8 1090.18 1225.45C1094.42 1219.1 1096.69 1211.63 1096.69 1203.99C1096.68 1193.75 1092.61 1183.93 1085.36 1176.69C1078.12 1169.44 1068.3 1165.37 1058.06 1165.36Z" fill="black"/>
<path d="M967.55 960.56H967.35C958.51 960.535 950.043 956.999 943.81 950.731C937.577 944.462 934.09 935.975 934.115 927.135C934.14 918.295 937.676 909.828 943.944 903.595C950.213 897.362 958.7 893.875 967.54 893.9H967.74C976.479 894.074 984.8 897.675 990.91 903.926C997.02 910.176 1000.43 918.577 1000.41 927.318C1000.38 936.059 996.923 944.441 990.777 950.657C984.632 956.873 976.29 960.426 967.55 960.55V960.56ZM967.55 899.9C960.302 899.879 953.342 902.738 948.201 907.848C943.061 912.959 940.161 919.902 940.14 927.15C940.119 934.398 942.978 941.358 948.088 946.499C953.198 951.639 960.142 954.539 967.39 954.56H967.56C974.776 954.55 981.697 951.689 986.814 946.6C991.931 941.511 994.83 934.606 994.88 927.39C994.917 920.146 992.078 913.183 986.985 908.031C981.893 902.878 974.964 899.958 967.72 899.91L967.55 899.9Z" fill="black"/>
<path d="M933.05 1111.62C924.336 1111.63 915.812 1109.07 908.55 1104.25L911.87 1099.25C918.62 1103.72 926.611 1105.94 934.699 1105.59C942.787 1105.23 950.556 1102.33 956.893 1097.3C963.23 1092.26 967.81 1085.34 969.977 1077.54C972.144 1069.74 971.786 1061.46 968.955 1053.87C966.125 1046.29 960.966 1039.8 954.218 1035.32C947.471 1030.85 939.481 1028.63 931.393 1028.98C923.305 1029.32 915.534 1032.22 909.195 1037.26C902.855 1042.29 898.271 1049.2 896.1 1057L890.32 1055.4C892.538 1047.44 896.933 1040.27 903.01 1034.68C909.087 1029.08 916.604 1025.3 924.716 1023.75C932.827 1022.2 941.211 1022.94 948.922 1025.9C956.632 1028.86 963.364 1033.91 968.359 1040.49C973.354 1047.06 976.414 1054.9 977.193 1063.12C977.973 1071.35 976.441 1079.62 972.771 1087.02C969.101 1094.42 963.438 1100.64 956.42 1105C949.403 1109.35 941.309 1111.66 933.05 1111.66V1111.62Z" fill="black"/>
<path d="M894.22 1058.8C894.609 1058.71 894.975 1058.54 895.297 1058.3C895.62 1058.06 895.891 1057.77 896.097 1057.42C896.302 1057.08 896.436 1056.7 896.492 1056.3C896.548 1055.91 896.525 1055.5 896.423 1055.12C896.321 1054.73 896.142 1054.37 895.898 1054.05C895.655 1053.74 895.35 1053.47 895.002 1053.27C894.654 1053.08 894.271 1052.95 893.874 1052.9C893.477 1052.86 893.074 1052.89 892.69 1053L894.22 1058.8ZM746 1094.86L745.23 1091.96L735.31 1094.58L745.08 1097.72L746 1094.86ZM806.71 1114.36L805.79 1117.21L807.58 1117.79L808.88 1116.43L806.71 1114.36ZM818.96 1101.55L820.04 1098.74L818.17 1098.03L816.79 1099.47L818.96 1101.55ZM852.38 1114.36L851.31 1117.16L853.66 1118.06L854.95 1115.9L852.38 1114.36ZM865.75 1092.08L867.75 1089.85L865.04 1087.41L863.17 1090.53L865.75 1092.08ZM883 1107.67L881 1109.9L882.16 1110.9L883.67 1110.56L883 1107.67ZM911 1104.47C911.748 1104.27 912.389 1103.79 912.79 1103.13C913.191 1102.46 913.321 1101.67 913.152 1100.92C912.982 1100.16 912.528 1099.5 911.883 1099.07C911.237 1098.64 910.452 1098.48 909.69 1098.62L911 1104.47ZM892.69 1053L745.2 1092L746.73 1097.8L894.22 1058.8L892.69 1053ZM745.05 1097.72L805.76 1117.21L807.59 1111.5L746.88 1092L745.05 1097.72ZM808.85 1116.43L821.1 1103.62L816.76 1099.47L804.51 1112.28L808.85 1116.43ZM817.85 1104.35L851.27 1117.16L853.41 1111.55L820 1098.74L817.85 1104.35ZM854.91 1115.9L868.28 1093.62L863.14 1090.53L849.77 1112.81L854.91 1115.9ZM863.7 1094.3L881 1109.9L885 1105.45L867.73 1089.85L863.7 1094.3ZM883.63 1110.6L910.95 1104.47L909.64 1098.62L882.32 1104.74L883.63 1110.6Z" fill="black"/>
<path d="M1026.48 1412.77L965.93 1378.12L1034.39 1249.43L1039.69 1252.25L1007.47 1312.8L1073.15 1352.4L1068.15 1354.81C1061.57 1357.99 1052.1 1358.61 1045.31 1358.6C1047.67 1361.27 1049.79 1364.6 1049.97 1368.11C1050.04 1369.36 1049.84 1370.62 1049.37 1371.79C1048.91 1372.95 1048.19 1374 1047.27 1374.86C1042.27 1379.77 1030.66 1380.28 1024.27 1380.15C1026.06 1386.92 1029.11 1400.5 1027.27 1408.76L1026.48 1412.77ZM973.96 1375.77L1021.89 1403.2C1021.97 1394.72 1018.89 1382.5 1017.4 1377.82L1016.1 1373.58L1020.52 1373.94C1027.32 1374.5 1039.52 1374.06 1043.11 1370.53C1043.41 1370.27 1043.65 1369.94 1043.8 1369.56C1043.95 1369.19 1044.01 1368.79 1043.98 1368.39C1043.8 1364.81 1038.58 1359.9 1035.33 1357.65L1037.33 1352.2C1037.48 1352.2 1049.94 1353.44 1059.72 1351.29L1004.63 1318.07L973.96 1375.77Z" fill="black"/>
<path d="M856.59 939.44L854.21 934.44C852.05 929.9 851.47 923.62 851.41 918.64C849.604 920.112 847.4 921.013 845.08 921.23C844.034 921.29 842.987 921.117 842.016 920.725C841.044 920.332 840.171 919.73 839.46 918.96C835.86 915.2 835.31 907.32 835.38 902.23C829.98 903.58 820.62 905.47 814.62 904.13L810.62 903.25L837.62 856.66L934.04 908.66L931.23 914L886.8 890L856.59 939.44ZM852.27 909.15L857.71 911.2C857.251 916.044 857.324 920.923 857.93 925.75L881.51 887.14L839.93 864.7L820.27 898.58C826.37 898.39 834.46 896.36 837.7 895.38L842 894.1L841.61 898.52C841.14 903.83 841.53 912.39 843.84 914.81C843.961 914.955 844.115 915.07 844.289 915.145C844.462 915.22 844.651 915.252 844.84 915.24C847.06 915.14 850.6 911.54 852.27 909.15Z" fill="black"/>
<path d="M949.91 1081.12C947.171 1081.12 944.493 1080.31 942.215 1078.79C939.938 1077.26 938.163 1075.1 937.114 1072.57C936.066 1070.04 935.792 1067.25 936.326 1064.57C936.861 1061.88 938.18 1059.41 940.117 1057.48C942.054 1055.54 944.521 1054.22 947.208 1053.69C949.895 1053.15 952.679 1053.43 955.21 1054.47C957.741 1055.52 959.904 1057.3 961.426 1059.58C962.948 1061.85 963.76 1064.53 963.76 1067.27C963.755 1070.94 962.294 1074.46 959.698 1077.06C957.101 1079.65 953.582 1081.11 949.91 1081.12ZM949.91 1059.42C948.357 1059.42 946.84 1059.88 945.549 1060.74C944.258 1061.61 943.252 1062.83 942.658 1064.27C942.063 1065.7 941.908 1067.28 942.211 1068.8C942.514 1070.32 943.261 1071.72 944.359 1072.82C945.457 1073.92 946.856 1074.67 948.379 1074.97C949.901 1075.27 951.48 1075.12 952.914 1074.52C954.349 1073.93 955.575 1072.92 956.437 1071.63C957.3 1070.34 957.76 1068.82 957.76 1067.27C957.757 1065.19 956.93 1063.19 955.458 1061.72C953.986 1060.25 951.991 1059.42 949.91 1059.42Z" fill="black"/>
<path d="M1500 460.42H1259.38V643.6H1500V460.42Z" fill="black"/>
<path d="M1485.67 477.27H1450.3V474.27C1450.23 462.43 1449 431.98 1439.21 405.08C1429.11 377.32 1413.21 362.24 1392.04 360.25C1376.04 358.75 1361.94 364.69 1350.22 377.91C1339.95 389.5 1331.86 406.34 1326.83 426.62L1326 430L1291.34 415.8L1292.16 413.17C1302.83 378.94 1329.65 321.92 1389.45 324.73C1467.16 328.39 1486.45 424.17 1485.73 474.3L1485.67 477.27ZM1456.24 471.27H1479.73C1479.61 422.43 1460.8 334.1 1389.15 330.74C1366.26 329.66 1346.34 337.99 1329.95 355.48C1317.15 369.15 1306.37 388.77 1298.7 412.35L1321.86 421.84C1327.17 402.11 1335.38 385.6 1345.71 373.95C1358.71 359.22 1374.53 352.61 1392.58 354.3C1449.88 359.67 1455.73 446.9 1456.24 471.27Z" fill="black"/>
<path d="M1379.69 554.21C1393.06 554.21 1403.9 543.371 1403.9 530C1403.9 516.629 1393.06 505.79 1379.69 505.79C1366.32 505.79 1355.48 516.629 1355.48 530C1355.48 543.371 1366.32 554.21 1379.69 554.21Z" fill="white"/>
<path d="M1349.69 607.51L1372.87 540.68H1385.87L1409.73 607.51H1349.69Z" fill="white"/>
<path d="M508.135 922.931L394.576 980.792L438.627 1067.25L552.186 1009.39L508.135 922.931Z" fill="black"/>
<path d="M407.1 983.33L406 980.72C394.92 954.97 384.17 901.65 422.74 884.23C461.27 866.83 494.04 908.08 505.98 932.33L507.29 934.99L488.11 944.76L486.74 942.11C479.3 927.73 454.84 892.46 431.23 901.83C428.607 902.825 426.223 904.359 424.23 906.333C422.237 908.307 420.68 910.677 419.66 913.29C413.37 928.29 419.61 953.71 427.54 972.49L428.76 975.39L407.1 983.33ZM425.19 889.7C392.08 904.65 400.55 951.03 410.4 975.7L420.8 971.88C415.94 959.65 406.03 930.22 414.11 910.94C415.441 907.596 417.451 904.564 420.014 902.037C422.577 899.51 425.637 897.543 429 896.26C454.59 886.1 479.66 916.92 490.64 936.73L499.23 932.35C487.23 909.69 458.23 874.78 425.23 889.7H425.19Z" fill="black"/>
<path d="M473.904 996.113C480.212 992.899 482.721 985.179 479.506 978.87C476.292 972.562 468.572 970.053 462.264 973.268C455.955 976.482 453.447 984.202 456.661 990.511C459.875 996.819 467.595 999.328 473.904 996.113Z" fill="white"/>
<path d="M472.53 1028.53L467.4 991.41L473.52 988.3L500.85 1014.1L472.53 1028.53Z" fill="white"/>
<path d="M839.009 1570.96L759.591 1705.3L936.062 1809.62L1015.48 1675.28L839.009 1570.96Z" fill="black"/>
<path d="M997.82 1682L971.12 1666.22L972.62 1663.64C980.62 1649.94 990.47 1627.64 994.19 1606.17C998.67 1580.24 993.54 1561.73 978.96 1551.17C975.143 1548.34 970.781 1546.33 966.15 1545.27C961.518 1544.21 956.718 1544.12 952.05 1545.01C925.69 1549.51 896.13 1580.25 877.26 1607.52L875.47 1610.1L848.91 1589.78L850.51 1587.43C875.59 1550.69 937.74 1490.89 993.51 1527.43C1049.28 1563.97 1021.73 1642.86 999.41 1679.43L997.82 1682ZM979.28 1664.07L995.76 1673.81C1016.76 1637.94 1040.76 1565.69 990.17 1532.46C939.48 1499.19 881.98 1553.28 857.09 1588.46L874.09 1601.46C885.55 1585.39 917.5 1544.74 951 1539.03C956.455 1538 962.064 1538.1 967.475 1539.34C972.886 1540.58 977.982 1542.93 982.44 1546.24C1017.89 1572 996.62 1633.08 979.28 1664.1V1664.07Z" fill="black"/>
<path d="M914.837 1684.65C920.632 1674.85 917.383 1662.2 907.58 1656.41C897.777 1650.61 885.131 1653.86 879.336 1663.66C873.541 1673.47 876.79 1686.11 886.593 1691.91C896.396 1697.7 909.041 1694.45 914.837 1684.65Z" fill="white"/>
<path d="M841.48 1718L887.48 1679L896.98 1684.62L885.48 1744L841.48 1718Z" fill="white"/>
</svg>
