<svg width="3000" height="3000" viewBox="0 0 3000 3000" fill="none" xmlns="http://www.w3.org/2000/svg">
<path d="M2281.19 1445.51C2279.54 1445.51 2277.93 1445.02 2276.56 1444.11C2275.19 1443.19 2274.12 1441.89 2273.49 1440.37C2272.86 1438.85 2272.7 1437.17 2273.02 1435.56C2273.34 1433.94 2274.13 1432.45 2275.3 1431.29C2276.46 1430.12 2277.95 1429.33 2279.56 1429.01C2281.18 1428.69 2282.86 1428.85 2284.38 1429.48C2285.9 1430.11 2287.2 1431.18 2288.12 1432.55C2289.03 1433.92 2289.52 1435.53 2289.52 1437.18C2289.52 1439.39 2288.64 1441.51 2287.08 1443.07C2285.52 1444.63 2283.4 1445.51 2281.19 1445.51ZM2281.19 1434.85C2280.73 1434.85 2280.28 1434.99 2279.9 1435.24C2279.51 1435.5 2279.21 1435.86 2279.04 1436.29C2278.86 1436.71 2278.81 1437.18 2278.9 1437.63C2278.99 1438.09 2279.22 1438.5 2279.54 1438.83C2279.87 1439.15 2280.28 1439.38 2280.74 1439.47C2281.19 1439.56 2281.66 1439.51 2282.08 1439.33C2282.51 1439.16 2282.87 1438.86 2283.13 1438.47C2283.38 1438.09 2283.52 1437.64 2283.52 1437.18C2283.52 1436.56 2283.27 1435.97 2282.84 1435.53C2282.4 1435.1 2281.81 1434.85 2281.19 1434.85Z" fill="black"/>
<path d="M1163.63 1445.51C1161.98 1445.51 1160.37 1445.02 1159 1444.11C1157.63 1443.19 1156.56 1441.89 1155.93 1440.37C1155.3 1438.85 1155.14 1437.17 1155.46 1435.56C1155.78 1433.94 1156.57 1432.45 1157.74 1431.29C1158.9 1430.12 1160.39 1429.33 1162 1429.01C1163.62 1428.69 1165.3 1428.85 1166.82 1429.48C1168.34 1430.11 1169.64 1431.18 1170.56 1432.55C1171.47 1433.92 1171.96 1435.53 1171.96 1437.18C1171.96 1439.39 1171.08 1441.51 1169.52 1443.07C1167.96 1444.63 1165.84 1445.51 1163.63 1445.51ZM1163.63 1434.85C1163.17 1434.85 1162.72 1434.99 1162.34 1435.24C1161.95 1435.5 1161.65 1435.86 1161.48 1436.29C1161.3 1436.71 1161.25 1437.18 1161.34 1437.63C1161.43 1438.09 1161.66 1438.5 1161.98 1438.83C1162.31 1439.15 1162.72 1439.38 1163.18 1439.47C1163.63 1439.56 1164.1 1439.51 1164.52 1439.33C1164.95 1439.16 1165.31 1438.86 1165.57 1438.47C1165.82 1438.09 1165.96 1437.64 1165.96 1437.18C1165.96 1436.56 1165.71 1435.97 1165.28 1435.53C1164.84 1435.1 1164.25 1434.85 1163.63 1434.85Z" fill="black"/>
<path d="M899.61 2280.42C897.962 2280.42 896.352 2279.93 894.982 2279.02C893.612 2278.1 892.544 2276.8 891.914 2275.28C891.283 2273.76 891.118 2272.08 891.44 2270.46C891.761 2268.85 892.555 2267.36 893.72 2266.2C894.885 2265.03 896.369 2264.24 897.985 2263.92C899.601 2263.6 901.275 2263.76 902.798 2264.39C904.32 2265.02 905.621 2266.09 906.536 2267.46C907.451 2268.83 907.94 2270.44 907.94 2272.09C907.935 2274.3 907.055 2276.41 905.494 2277.97C903.933 2279.54 901.817 2280.41 899.61 2280.42ZM899.61 2269.76C899.149 2269.76 898.699 2269.9 898.315 2270.15C897.932 2270.41 897.633 2270.77 897.457 2271.2C897.281 2271.62 897.235 2272.09 897.325 2272.54C897.414 2273 897.636 2273.41 897.962 2273.74C898.288 2274.06 898.703 2274.29 899.155 2274.37C899.607 2274.46 900.076 2274.42 900.501 2274.24C900.927 2274.07 901.291 2273.77 901.547 2273.38C901.803 2273 901.94 2272.55 901.94 2272.09C901.94 2271.47 901.694 2270.88 901.257 2270.44C900.82 2270.01 900.228 2269.76 899.61 2269.76Z" fill="black"/>
<path d="M812.16 443.85C810.513 443.848 808.903 443.358 807.535 442.441C806.166 441.525 805.1 440.223 804.471 438.701C803.842 437.178 803.679 435.504 804.001 433.889C804.324 432.274 805.118 430.79 806.283 429.626C807.449 428.462 808.933 427.67 810.548 427.349C812.164 427.029 813.838 427.194 815.36 427.825C816.881 428.456 818.182 429.523 819.097 430.893C820.012 432.263 820.5 433.873 820.5 435.52C820.497 437.73 819.617 439.849 818.054 441.411C816.49 442.973 814.37 443.85 812.16 443.85ZM812.16 433.19C811.699 433.192 811.25 433.33 810.868 433.587C810.486 433.845 810.189 434.209 810.014 434.635C809.84 435.061 809.795 435.529 809.886 435.981C809.977 436.432 810.2 436.846 810.526 437.171C810.852 437.496 811.267 437.717 811.719 437.806C812.171 437.895 812.639 437.848 813.064 437.672C813.489 437.495 813.852 437.196 814.108 436.813C814.363 436.43 814.5 435.98 814.5 435.52C814.497 434.901 814.249 434.308 813.811 433.872C813.372 433.435 812.779 433.19 812.16 433.19Z" fill="black"/>
<path d="M2578 1418.2C2577.37 1418.2 2576.75 1418 2576.24 1417.63L2546.88 1396.27C2546.56 1396.04 2546.29 1395.75 2546.08 1395.41C2545.88 1395.08 2545.74 1394.7 2545.68 1394.31C2545.61 1393.92 2545.63 1393.53 2545.72 1393.14C2545.81 1392.76 2545.98 1392.4 2546.21 1392.08C2546.44 1391.76 2546.73 1391.49 2547.07 1391.28C2547.4 1391.08 2547.78 1390.94 2548.17 1390.88C2548.56 1390.81 2548.95 1390.83 2549.34 1390.92C2549.72 1391.01 2550.08 1391.18 2550.4 1391.41L2579.77 1412.77C2580.28 1413.14 2580.67 1413.67 2580.86 1414.27C2581.06 1414.88 2581.06 1415.53 2580.86 1416.13C2580.67 1416.73 2580.28 1417.26 2579.77 1417.63C2579.25 1418 2578.63 1418.2 2578 1418.2Z" fill="black"/>
<path d="M1012 801.13C1011.37 801.127 1010.75 800.924 1010.24 800.55L980.89 779.2C980.571 778.968 980.3 778.676 980.094 778.34C979.888 778.003 979.75 777.63 979.688 777.24C979.627 776.851 979.642 776.453 979.734 776.069C979.826 775.686 979.993 775.324 980.225 775.005C980.456 774.686 980.749 774.415 981.085 774.209C981.421 774.003 981.795 773.865 982.184 773.804C982.574 773.742 982.972 773.757 983.355 773.849C983.739 773.942 984.101 774.108 984.42 774.34L1013.77 795.7C1014.28 796.072 1014.67 796.597 1014.86 797.199C1015.06 797.802 1015.06 798.452 1014.86 799.055C1014.67 799.658 1014.29 800.184 1013.77 800.557C1013.26 800.929 1012.64 801.13 1012.01 801.13H1012Z" fill="black"/>
<path d="M413.33 1990.39C412.691 1990.39 412.069 1990.19 411.554 1989.81C411.039 1989.43 410.658 1988.9 410.466 1988.29C410.274 1987.68 410.281 1987.03 410.487 1986.42C410.693 1985.82 411.086 1985.3 411.61 1984.93L441.4 1964.18C442.053 1963.75 442.847 1963.59 443.614 1963.74C444.381 1963.89 445.06 1964.33 445.507 1964.97C445.953 1965.61 446.132 1966.4 446.006 1967.17C445.88 1967.94 445.458 1968.64 444.83 1969.1L415 1989.85C414.511 1990.2 413.929 1990.38 413.33 1990.39Z" fill="black"/>
<path d="M2696.34 2018.13C2695.7 2018.13 2695.08 2017.93 2694.56 2017.55C2694.05 2017.17 2693.67 2016.64 2693.48 2016.03C2693.28 2015.42 2693.29 2014.77 2693.5 2014.16C2693.7 2013.56 2694.1 2013.04 2694.62 2012.67L2724.42 1991.92C2725.07 1991.51 2725.86 1991.38 2726.61 1991.53C2727.36 1991.69 2728.03 1992.13 2728.47 1992.76C2728.9 1993.39 2729.08 1994.16 2728.97 1994.92C2728.85 1995.68 2728.45 1996.37 2727.84 1996.84L2698.05 2017.59C2697.55 2017.94 2696.95 2018.13 2696.34 2018.13Z" fill="black"/>
<path d="M347.72 586.7C347.082 586.699 346.461 586.494 345.948 586.116C345.434 585.737 345.055 585.205 344.864 584.597C344.674 583.988 344.682 583.335 344.888 582.731C345.094 582.127 345.487 581.605 346.01 581.24L375.79 560.49C376.112 560.251 376.479 560.08 376.869 559.986C377.259 559.891 377.664 559.876 378.06 559.941C378.456 560.006 378.834 560.15 379.174 560.363C379.513 560.577 379.806 560.857 380.035 561.186C380.265 561.515 380.426 561.887 380.509 562.279C380.592 562.671 380.596 563.076 380.52 563.47C380.444 563.864 380.29 564.239 380.066 564.572C379.843 564.905 379.555 565.19 379.22 565.41L349.44 586.16C348.936 586.512 348.335 586.701 347.72 586.7Z" fill="black"/>
<path d="M2153.3 611.46C2152.6 611.459 2151.93 611.215 2151.39 610.77C2150.85 610.325 2150.49 609.706 2150.36 609.02C2150.23 608.334 2150.34 607.624 2150.67 607.013C2151.01 606.402 2151.55 605.927 2152.2 605.67L2186 592.39C2186.37 592.246 2186.76 592.175 2187.15 592.182C2187.55 592.189 2187.94 592.273 2188.3 592.431C2188.66 592.588 2188.99 592.815 2189.26 593.099C2189.54 593.383 2189.75 593.718 2189.9 594.085C2190.04 594.452 2190.11 594.844 2190.1 595.238C2190.1 595.633 2190.01 596.022 2189.85 596.384C2189.7 596.745 2189.47 597.072 2189.19 597.346C2188.9 597.62 2188.57 597.836 2188.2 597.98L2154.41 611.25C2154.06 611.39 2153.68 611.461 2153.3 611.46Z" fill="black"/>
<path d="M2090.15 504.83L2039.54 386.51L1950.25 483.15L1945.4 479.71L2004.58 368.81L1916.58 339.24L1917.34 333.4L2000.34 328.2L1975.98 275.89L1980.56 272.27L2027.56 309.48L2050.16 185.63H2056.06L2080.21 316.16L2182.57 273.64L2185.57 278.77L2091.2 352.85L2174.61 393.85L2172.74 399.49L2075.33 381.33L2095.91 503.13L2090.15 504.83ZM2041.42 375.63L2085.75 479.29L2068 373.87L2152.35 389.6L2079.94 354L2164.57 287.57L2075.57 324.57L2053.05 202.8L2031.58 320.42L1986.69 284.86L2009.42 333.67L1933 338.43L2013.25 365.38L1961.72 461.93L2041.42 375.63Z" fill="black"/>
<path d="M595.35 1675L531.62 1526L419.2 1647.7L414.35 1644.25L488.77 1504.82L377.83 1467.56L378.59 1461.73L483.48 1455.16L452.55 1388.76L457.13 1385.14L516.87 1432.44L545.35 1276.36H551.25L581.61 1440.47L710.45 1386.95L713.45 1392.08L594.51 1485.44L699.88 1537.26L698.01 1542.9L575.17 1520L601.07 1673.35L595.35 1675ZM533.5 1515.14L591 1649.48L567.87 1512.48L677.61 1533L583.3 1486.63L692.49 1400.92L577.06 1448.86L548.32 1293.5L521 1443.34L463.36 1397.7L492.65 1460.6L394.29 1466.76L497.42 1501.39L430.66 1626.48L533.5 1515.14Z" fill="black"/>
<path d="M2354.7 2298.81L2327.75 2235.81L2280.16 2287.32L2275.31 2283.87L2307 2224.4L2260.19 2208.68L2260.96 2202.85L2304.54 2200.12L2292 2173.21L2296.58 2169.59L2320.58 2188.59L2332.58 2122.83H2338.48L2351.43 2192.83L2406.06 2170.13L2409.06 2175.26L2359 2214.6L2402.85 2236.17L2400.98 2241.81L2349.42 2232.2L2360.42 2297.13L2354.7 2298.81ZM2329.63 2224.92L2350.3 2273.27L2342.11 2224.72L2380.61 2231.9L2347.81 2215.78L2388.17 2184.1L2346.94 2201.22L2335.62 2140L2324.75 2199.52L2302.83 2182.17L2313.74 2205.57L2276.68 2207.89L2315.68 2220.98L2291.6 2266.1L2329.63 2224.92Z" fill="black"/>
<path d="M2617.57 220.65C2617.07 220.65 2616.58 220.525 2616.14 220.286C2615.7 220.046 2615.32 219.701 2615.05 219.28L2595.3 188.82C2594.95 188.159 2594.86 187.391 2595.05 186.668C2595.23 185.944 2595.68 185.315 2596.31 184.906C2596.93 184.497 2597.69 184.336 2598.43 184.455C2599.17 184.574 2599.83 184.965 2600.3 185.55L2620.09 216C2620.3 216.331 2620.45 216.701 2620.52 217.088C2620.59 217.476 2620.59 217.874 2620.5 218.259C2620.42 218.645 2620.26 219.01 2620.04 219.335C2619.82 219.659 2619.53 219.936 2619.2 220.15C2618.72 220.471 2618.15 220.644 2617.57 220.65Z" fill="black"/>
<path d="M256.25 2572.08C255.749 2572.08 255.256 2571.95 254.816 2571.72C254.375 2571.48 254.002 2571.13 253.73 2570.71L234 2540.25C233.66 2539.59 233.576 2538.83 233.766 2538.11C233.956 2537.39 234.406 2536.77 235.028 2536.36C235.65 2535.96 236.401 2535.8 237.135 2535.91C237.868 2536.03 238.533 2536.41 239 2536.99L258.75 2567.45C259.043 2567.9 259.209 2568.43 259.229 2568.97C259.25 2569.51 259.124 2570.04 258.866 2570.51C258.608 2570.99 258.227 2571.38 257.763 2571.66C257.299 2571.93 256.77 2572.08 256.23 2572.08H256.25Z" fill="black"/>
<path d="M1579.21 1847L1593.03 1437.3L1438.57 1825.6L1124.11 1766.33L1399.26 1146.62C1399.42 1146.25 1399.64 1145.92 1399.93 1145.64C1400.21 1145.36 1400.55 1145.14 1400.92 1144.99C1401.29 1144.85 1401.69 1144.77 1402.09 1144.78C1402.49 1144.79 1402.88 1144.88 1403.25 1145.04C1403.61 1145.2 1403.94 1145.44 1404.21 1145.73C1404.49 1146.02 1404.7 1146.36 1404.84 1146.74C1404.98 1147.11 1405.04 1147.51 1405.02 1147.91C1405.01 1148.31 1404.91 1148.7 1404.74 1149.06L1132.67 1761.8L1434.83 1818.8L1593.62 1419.58L1599 1260.4C1599.03 1259.6 1599.37 1258.85 1599.95 1258.31C1600.53 1257.76 1601.3 1257.47 1602.1 1257.5C1602.9 1257.53 1603.65 1257.87 1604.19 1258.45C1604.74 1259.03 1605.03 1259.8 1605 1260.6L1599.62 1420.06C1599.62 1420.18 1599.62 1420.3 1599.62 1420.42L1585.47 1839.83L1929.38 1782L1862.32 1218.88L1707.79 994.88C1707.37 994.225 1707.22 993.431 1707.37 992.667C1707.53 991.903 1707.97 991.229 1708.61 990.788C1709.26 990.346 1710.04 990.171 1710.81 990.3C1711.58 990.43 1712.27 990.853 1712.73 991.48L1868.1 1216.67L1868.19 1217.41L1936 1786.94L1933.18 1787.42L1579.21 1847Z" fill="black"/>
<path d="M1331.19 662.19C1323.14 662.236 1315.19 660.364 1308 656.73C1291.65 648.43 1280.75 631.32 1278.08 609.73L1277.98 608.91L1277.16 608.86C1272.54 608.56 1267.04 607.86 1263.25 607.38L1256.35 606.46L1261.76 602.08C1271.14 594.48 1277.7 584.25 1281.76 570.8C1283.59 564.826 1285.93 559.021 1288.76 553.45C1298.86 533.56 1314.31 517.88 1332.25 509.31C1350.19 500.74 1368.25 500.31 1383.43 508.02C1398.61 515.73 1408.94 530.66 1412.6 550.1C1416.26 569.54 1412.71 591.35 1402.6 611.25C1392.49 631.15 1377.05 646.83 1359.11 655.39C1350.43 659.714 1340.89 662.037 1331.19 662.19ZM1270.53 602.28C1272.88 602.54 1275.32 602.78 1277.53 602.92L1283.31 603.3L1284.03 609.05C1286.44 628.57 1296.17 644.05 1310.71 651.38C1324.17 658.22 1340.47 657.74 1356.59 650.03C1373.34 642.03 1387.8 627.31 1397.3 608.58C1406.8 589.85 1410.16 569.5 1406.74 551.25C1403.44 533.69 1394.21 520.25 1380.74 513.42C1367.27 506.59 1350.99 507.07 1334.86 514.77C1318.11 522.77 1303.65 537.5 1294.15 556.22C1291.47 561.478 1289.26 566.958 1287.53 572.6C1283.84 584.75 1278.24 594.52 1270.53 602.28Z" fill="black"/>
<path d="M1347.5 593.12C1319.09 565.92 1321.4 527.23 1325.41 513.69C1329.53 509.45 1342.74 501.43 1362.56 503.24C1387.34 505.52 1402.56 519.08 1412.56 552.65C1420.56 579.51 1400.07 616.27 1388.82 631.3C1375.48 631.3 1366.31 621.21 1363.39 616.16C1373.52 611.82 1386.11 598.78 1376.94 587.09C1367.77 575.4 1346.24 591.88 1347.5 593.12Z" fill="black"/>
<path d="M1458 464.06C1414.25 455.37 1389.62 490.7 1382.78 509.45L1386.9 519.45C1388.72 515.45 1409.53 510.64 1424.47 511.76C1469.78 515.14 1477.88 591.58 1482.22 612.76L1556 515.6C1541.54 502 1501.73 472.75 1458 464.06Z" fill="black"/>
<path d="M1329.53 570.07C1328.75 570.067 1328 569.758 1327.44 569.21C1322.83 564.72 1311.27 558.7 1300.53 568.08C1300.24 568.356 1299.89 568.569 1299.51 568.708C1299.13 568.846 1298.73 568.907 1298.33 568.887C1297.93 568.866 1297.53 568.765 1297.17 568.589C1296.81 568.413 1296.48 568.166 1296.22 567.862C1295.95 567.558 1295.75 567.204 1295.63 566.821C1295.5 566.438 1295.46 566.033 1295.49 565.632C1295.53 565.23 1295.64 564.84 1295.83 564.484C1296.02 564.128 1296.28 563.814 1296.59 563.56C1302.72 558.2 1317.95 551.56 1331.59 564.92C1332.02 565.336 1332.31 565.87 1332.43 566.454C1332.56 567.038 1332.5 567.645 1332.28 568.198C1332.05 568.751 1331.67 569.224 1331.17 569.558C1330.68 569.891 1330.1 570.07 1329.5 570.07H1329.53Z" fill="black"/>
<path d="M1296.69 635.87C1296.02 635.873 1295.35 635.833 1294.69 635.75C1294.3 635.701 1293.92 635.576 1293.57 635.38C1293.22 635.184 1292.92 634.923 1292.68 634.61C1292.43 634.297 1292.25 633.939 1292.15 633.556C1292.04 633.174 1292.01 632.774 1292.06 632.38C1292.11 631.986 1292.23 631.606 1292.43 631.26C1292.63 630.915 1292.89 630.611 1293.2 630.367C1293.51 630.123 1293.87 629.943 1294.25 629.837C1294.64 629.731 1295.04 629.701 1295.43 629.75C1298.78 630.17 1306.22 629.22 1310.37 622.61C1310.58 622.267 1310.85 621.969 1311.17 621.732C1311.49 621.495 1311.86 621.325 1312.24 621.232C1312.63 621.139 1313.04 621.124 1313.43 621.189C1313.83 621.253 1314.2 621.396 1314.54 621.608C1314.88 621.821 1315.17 622.099 1315.4 622.426C1315.63 622.753 1315.79 623.122 1315.88 623.513C1315.96 623.903 1315.97 624.307 1315.89 624.7C1315.82 625.092 1315.67 625.466 1315.45 625.8C1310.39 633.84 1301.88 635.87 1296.69 635.87Z" fill="black"/>
<path d="M1299.12 586.13C1298.56 586.13 1298.01 585.971 1297.53 585.673C1297.05 585.375 1296.67 584.948 1296.42 584.443C1296.18 583.937 1296.08 583.373 1296.14 582.813C1296.2 582.254 1296.41 581.723 1296.76 581.28C1299.98 577.18 1305.93 572.74 1312.98 572.55C1319.05 572.42 1324.69 575.28 1329.8 581.12C1330.06 581.417 1330.26 581.763 1330.39 582.137C1330.52 582.512 1330.58 582.908 1330.55 583.304C1330.53 583.7 1330.43 584.087 1330.25 584.443C1330.08 584.799 1329.84 585.118 1329.54 585.38C1329.24 585.643 1328.9 585.844 1328.52 585.973C1328.15 586.103 1327.75 586.157 1327.36 586.132C1326.96 586.108 1326.57 586.006 1326.22 585.833C1325.86 585.659 1325.54 585.417 1325.28 585.12C1321.41 580.69 1317.28 578.51 1313.13 578.6C1308.13 578.73 1303.75 582.15 1301.48 585.03C1301.19 585.379 1300.83 585.659 1300.43 585.85C1300.02 586.04 1299.57 586.136 1299.12 586.13Z" fill="black"/>
<path d="M1313.33 588.2C1316.54 588.2 1319.14 585.599 1319.14 582.39C1319.14 579.181 1316.54 576.58 1313.33 576.58C1310.12 576.58 1307.52 579.181 1307.52 582.39C1307.52 585.599 1310.12 588.2 1313.33 588.2Z" fill="black"/>
<path d="M1351.5 606.3C1350.94 606.3 1350.39 606.144 1349.92 605.85C1349.58 605.645 1349.29 605.375 1349.06 605.057C1348.82 604.738 1348.66 604.376 1348.56 603.993C1348.47 603.609 1348.45 603.211 1348.51 602.821C1348.58 602.431 1348.71 602.057 1348.92 601.72C1351.4 597.72 1358.92 590.51 1369.66 591.79C1370.46 591.883 1371.18 592.288 1371.68 592.916C1372.18 593.544 1372.4 594.344 1372.31 595.14C1372.22 595.936 1371.81 596.662 1371.18 597.159C1370.56 597.656 1369.76 597.883 1368.96 597.79C1361.2 596.86 1355.8 602.05 1354.02 604.92C1353.75 605.343 1353.38 605.69 1352.94 605.931C1352.5 606.172 1352 606.299 1351.5 606.3Z" fill="black"/>
<path d="M1362.55 611.46C1362.02 611.46 1361.5 611.319 1361.04 611.051C1360.58 610.784 1360.2 610.398 1359.94 609.936C1359.67 609.473 1359.54 608.948 1359.55 608.417C1359.56 607.885 1359.71 607.365 1359.98 606.91C1361.32 604.68 1361.8 602.75 1361.32 601.47C1361.16 601.073 1360.91 600.716 1360.59 600.422C1360.28 600.129 1359.91 599.907 1359.5 599.77C1359.11 599.659 1358.75 599.472 1358.44 599.218C1358.12 598.964 1357.86 598.65 1357.67 598.294C1357.48 597.937 1357.37 597.547 1357.33 597.145C1357.3 596.743 1357.35 596.338 1357.47 595.955C1357.6 595.571 1357.8 595.217 1358.06 594.913C1358.33 594.609 1358.65 594.362 1359.01 594.186C1359.38 594.01 1359.77 593.909 1360.18 593.889C1360.58 593.869 1360.98 593.931 1361.36 594.07C1362.63 594.481 1363.79 595.17 1364.75 596.087C1365.72 597.004 1366.46 598.126 1366.94 599.37C1367.74 601.51 1368.07 605.09 1365.12 610C1364.85 610.445 1364.48 610.813 1364.03 611.069C1363.58 611.324 1363.07 611.459 1362.55 611.46Z" fill="black"/>
<path d="M1360.25 704.82C1359.74 704.82 1359.24 704.69 1358.79 704.441C1358.34 704.193 1357.97 703.834 1357.7 703.4L1333 663.46C1332.77 663.125 1332.62 662.748 1332.54 662.35C1332.46 661.953 1332.46 661.544 1332.55 661.148C1332.63 660.752 1332.8 660.377 1333.03 660.046C1333.26 659.715 1333.56 659.435 1333.91 659.222C1334.25 659.009 1334.63 658.869 1335.03 658.808C1335.43 658.748 1335.84 658.769 1336.24 658.871C1336.63 658.972 1336.99 659.152 1337.31 659.4C1337.64 659.647 1337.9 659.957 1338.1 660.31L1362.78 700.24C1362.99 700.577 1363.12 700.951 1363.19 701.341C1363.25 701.731 1363.23 702.129 1363.14 702.513C1363.04 702.896 1362.88 703.258 1362.64 703.577C1362.41 703.895 1362.12 704.165 1361.78 704.37C1361.32 704.658 1360.79 704.814 1360.25 704.82ZM1414.25 671.7C1413.76 671.7 1413.28 671.581 1412.85 671.353C1412.42 671.124 1412.05 670.794 1411.77 670.39L1386.41 633.32C1385.96 632.657 1385.79 631.843 1385.94 631.056C1386.09 630.269 1386.55 629.575 1387.22 629.125C1387.88 628.676 1388.69 628.508 1389.48 628.659C1390.27 628.81 1390.96 629.267 1391.41 629.93L1416.76 667C1416.98 667.326 1417.14 667.692 1417.22 668.078C1417.3 668.464 1417.3 668.862 1417.23 669.249C1417.16 669.636 1417.01 670.005 1416.79 670.335C1416.57 670.664 1416.3 670.948 1415.97 671.17C1415.48 671.518 1414.88 671.703 1414.28 671.7H1414.25Z" fill="black"/>
<path d="M1348.51 683.75L1335.74 662.75C1358.06 659.14 1377.46 644.24 1384.37 637.25C1373.72 663.42 1356 679.16 1348.51 683.75Z" fill="black"/>
<path d="M945.05 1213.51C900.98 1213.51 859.31 1182.07 838.71 1159.09L838.38 1158.66L669.25 883.06L620.56 849.17C599.21 852.79 557.82 859.3 546.17 859.3C529.48 859.3 519.64 855.3 516.92 847.3C514.75 840.92 517.97 833.9 522.85 828.04C509.46 829.23 501.68 823.33 498.68 816.41C495.45 808.94 497.02 798.6 504.94 789.87C494.39 791.23 483.1 790.18 479.4 780.81C476.3 772.95 480.59 761.61 488.83 752.7C479.78 753.85 474.62 751.41 471.99 749.37C470.072 747.876 468.595 745.891 467.714 743.625C466.834 741.359 466.584 738.897 466.99 736.5C467.99 729.44 473.48 723.11 481.34 719.96L599.55 672.38L691.81 702.44C684.73 687.76 673.88 657.95 673.4 644.94C672.87 630.94 679.33 626.52 683.22 625.1C691.09 622.23 701.62 626.67 708.84 635.91C758.53 699.51 802.11 769.91 844.27 837.91C883.27 900.81 923.49 965.83 968.83 1026.04C983.71 1012.04 1029.56 964.32 1114.59 866.26C1115.11 865.658 1115.85 865.288 1116.64 865.23C1117.44 865.173 1118.22 865.434 1118.83 865.955C1119.43 866.476 1119.8 867.215 1119.85 868.009C1119.91 868.804 1119.65 869.588 1119.13 870.19C1028.66 974.52 982.3 1022.13 970.43 1032.73L968 1035L966 1032.41C919.67 971.23 878.73 905.12 839.13 841.18C797.08 773.21 753.58 703 704.09 639.63C698.64 632.63 690.54 628.83 685.26 630.76C681.18 632.26 679.09 637.22 679.37 644.76C679.9 658.94 695.18 698.34 700.5 705.95L705.65 713.3L599.75 678.8L483.56 725.56C476.56 728.37 473.45 733.5 472.91 737.36C472.658 738.713 472.783 740.109 473.269 741.396C473.756 742.683 474.586 743.812 475.67 744.66C477.94 746.42 485.01 749.77 501.67 742.9L504.2 748.33C491.39 755 481.68 770.28 485 778.64C487.6 785.23 498.85 786.27 515.87 781.5L518.18 786.99C508.18 792.74 499.93 804.18 504.18 814.06C507.59 821.93 518.04 824.3 531.46 820.24L534.16 825.49C525.61 832.1 520.85 840.29 522.59 845.39C524.33 850.49 532.7 853.3 546.16 853.3C557.63 853.3 599.97 846.59 620.75 843.05L621.97 842.84L673.7 878.84L674.03 879.37L843.34 1155.28C871.21 1186.28 938.58 1233.13 995.41 1190.21C1054.01 1145.94 1143.3 1070.76 1182.32 1037.21C1182.62 1036.94 1182.96 1036.73 1183.34 1036.6C1183.72 1036.47 1184.12 1036.41 1184.52 1036.44C1184.92 1036.46 1185.31 1036.57 1185.67 1036.74C1186.03 1036.92 1186.35 1037.17 1186.61 1037.47C1186.87 1037.77 1187.07 1038.13 1187.19 1038.51C1187.31 1038.89 1187.36 1039.29 1187.33 1039.69C1187.29 1040.09 1187.18 1040.47 1186.99 1040.83C1186.8 1041.18 1186.55 1041.5 1186.24 1041.75C1147.16 1075.37 1057.75 1150.65 999.02 1195C981.5 1208.25 963.07 1213.51 945.05 1213.51Z" fill="black"/>
<path d="M968.62 1081.85C967.824 1081.85 967.061 1081.53 966.499 1080.97C965.936 1080.41 965.62 1079.65 965.62 1078.85V1029.6C965.62 1028.8 965.936 1028.04 966.499 1027.48C967.061 1026.92 967.824 1026.6 968.62 1026.6C969.416 1026.6 970.179 1026.92 970.741 1027.48C971.304 1028.04 971.62 1028.8 971.62 1029.6V1078.85C971.62 1079.65 971.304 1080.41 970.741 1080.97C970.179 1081.53 969.416 1081.85 968.62 1081.85Z" fill="black"/>
<path d="M527.17 828.17C526.471 828.158 525.799 827.903 525.268 827.449C524.737 826.994 524.382 826.368 524.263 825.679C524.145 824.991 524.27 824.282 524.618 823.676C524.967 823.07 525.515 822.605 526.17 822.36L599.23 795.05L630.23 799.29C631.026 799.399 631.746 799.819 632.231 800.459C632.717 801.098 632.929 801.904 632.82 802.7C632.711 803.496 632.291 804.216 631.652 804.701C631.012 805.187 630.206 805.399 629.41 805.29L599.95 801.29L528.22 828C527.883 828.119 527.527 828.176 527.17 828.17Z" fill="black"/>
<path d="M2224.43 1034.12C2223.63 1034.15 2222.86 1033.85 2222.28 1033.31C2221.7 1032.76 2221.36 1032.01 2221.34 1031.22C2221.31 1030.42 2221.6 1029.65 2222.15 1029.07C2222.69 1028.49 2223.44 1028.15 2224.24 1028.12L2253.93 1026.25L2318.93 985.86C2319.27 985.627 2319.65 985.466 2320.05 985.386C2320.46 985.306 2320.87 985.31 2321.27 985.398C2321.67 985.485 2322.05 985.653 2322.39 985.893C2322.72 986.133 2323 986.438 2323.21 986.791C2323.42 987.143 2323.56 987.535 2323.61 987.942C2323.66 988.349 2323.63 988.763 2323.52 989.158C2323.4 989.552 2323.21 989.919 2322.95 990.236C2322.69 990.553 2322.37 990.813 2322 991L2255.77 1032.2L2224.58 1034.15L2224.43 1034.12Z" fill="black"/>
<path d="M515.48 788C514.776 788.002 514.094 787.757 513.553 787.307C513.012 786.857 512.646 786.231 512.519 785.539C512.393 784.846 512.514 784.131 512.862 783.519C513.209 782.907 513.761 782.437 514.42 782.19L587.49 754.88L618.49 759.13C618.893 759.168 619.283 759.287 619.639 759.48C619.994 759.673 620.306 759.936 620.558 760.253C620.809 760.57 620.993 760.934 621.1 761.324C621.207 761.714 621.234 762.121 621.179 762.522C621.125 762.923 620.99 763.308 620.782 763.655C620.575 764.002 620.3 764.304 619.973 764.542C619.646 764.78 619.274 764.949 618.88 765.04C618.486 765.131 618.078 765.141 617.68 765.07L588.22 761.07L516.58 787.85C516.226 787.968 515.853 788.019 515.48 788Z" fill="black"/>
<path d="M2243.83 1071.21C2243.44 1071.22 2243.04 1071.16 2242.68 1071.02C2242.31 1070.88 2241.97 1070.67 2241.68 1070.4C2241.39 1070.13 2241.16 1069.81 2241 1069.45C2240.84 1069.09 2240.75 1068.7 2240.74 1068.31C2240.72 1067.91 2240.79 1067.52 2240.93 1067.15C2241.07 1066.78 2241.28 1066.44 2241.55 1066.16C2241.82 1065.87 2242.14 1065.64 2242.5 1065.47C2242.86 1065.31 2243.25 1065.22 2243.64 1065.21L2273.33 1063.35L2338.33 1022.95C2339.01 1022.53 2339.82 1022.4 2340.6 1022.58C2341.37 1022.76 2342.05 1023.24 2342.47 1023.91C2342.89 1024.59 2343.02 1025.41 2342.84 1026.18C2342.66 1026.96 2342.18 1027.63 2341.5 1028.05L2275.26 1069.25L2244 1071.2L2243.83 1071.21Z" fill="black"/>
<path d="M500.13 749.72C499.427 749.72 498.747 749.473 498.207 749.022C497.668 748.571 497.304 747.945 497.179 747.254C497.054 746.562 497.176 745.848 497.523 745.237C497.871 744.626 498.422 744.156 499.08 743.91L572.14 716.61L603.14 720.85C603.906 720.983 604.591 721.409 605.049 722.037C605.508 722.664 605.704 723.446 605.598 724.216C605.492 724.986 605.091 725.685 604.479 726.165C603.868 726.645 603.094 726.869 602.32 726.79L572.86 722.79L501.22 749.57C500.869 749.687 500.5 749.738 500.13 749.72Z" fill="black"/>
<path d="M2266.43 1105.68C2265.63 1105.71 2264.86 1105.41 2264.28 1104.87C2263.7 1104.32 2263.36 1103.57 2263.34 1102.78C2263.31 1101.98 2263.6 1101.21 2264.15 1100.63C2264.69 1100.05 2265.44 1099.71 2266.24 1099.68L2295.92 1097.81L2360.87 1057.42C2361.55 1057.01 2362.36 1056.89 2363.12 1057.07C2363.89 1057.26 2364.56 1057.74 2364.97 1058.41C2365.39 1059.08 2365.52 1059.89 2365.35 1060.66C2365.17 1061.43 2364.7 1062.1 2364.03 1062.52L2297.8 1103.71L2266.62 1105.71L2266.43 1105.68Z" fill="black"/>
<path d="M735.08 806.47C736.033 806.936 737.133 807.003 738.136 806.658C739.139 806.313 739.964 805.584 740.43 804.63C740.895 803.677 740.963 802.577 740.618 801.574C740.273 800.571 739.543 799.746 738.59 799.28L735.08 806.47ZM700.68 711.64C694.128 725.952 692.09 741.921 694.84 757.42C698.3 775.57 709.6 794.02 735.08 806.47L738.59 799.28C715.38 787.94 705.68 771.6 702.69 755.92C700.263 742.089 702.083 727.847 707.91 715.07L700.68 711.64Z" fill="black"/>
<path d="M2187.93 1208.57C2181.69 1208.57 2174.6 1205.5 2168.73 1199.93C2165.65 1198.13 2153.47 1186.73 2036.44 1028.15C1978.99 950.32 1922.33 872.27 1915.56 862.94L1699.56 815.41C1699.17 815.334 1698.79 815.181 1698.46 814.958C1698.13 814.736 1697.84 814.449 1697.62 814.115C1697.4 813.781 1697.25 813.406 1697.18 813.013C1697.11 812.619 1697.11 812.215 1697.2 811.824C1697.28 811.433 1697.45 811.063 1697.68 810.736C1697.91 810.409 1698.2 810.131 1698.54 809.919C1698.88 809.707 1699.26 809.566 1699.65 809.502C1700.05 809.439 1700.45 809.455 1700.84 809.55L1919.12 857.55L1919.79 858.48C2015.23 990.1 2161.13 1188.29 2171.93 1194.8L2172.35 1195.01L2172.64 1195.31C2179 1201.49 2187.53 1204.16 2192.5 1201.53C2196.34 1199.53 2197.74 1194.3 2196.43 1186.88C2193.98 1172.88 2173.5 1135.94 2167.19 1129.12L2161.1 1122.53L2270.7 1142.33L2379.46 1080.23C2386.04 1076.5 2388.39 1071 2388.41 1067.09C2388.47 1065.72 2388.16 1064.35 2387.5 1063.14C2386.85 1061.94 2385.87 1060.93 2384.68 1060.24C2382.19 1058.8 2374.73 1056.44 2359.14 1065.51L2355.9 1060.51C2367.7 1052.18 2375.25 1035.71 2370.85 1027.88C2367.38 1021.7 2356.08 1022.2 2339.85 1029.23L2336.85 1024.11C2345.95 1017.11 2352.6 1004.59 2347.03 995.39C2342.58 988.05 2331.9 987.13 2319.16 992.97L2315.77 988.14C2323.35 980.43 2326.95 971.67 2324.53 966.85C2322.11 962.03 2313.44 960.39 2300.11 962.21C2288.77 963.77 2247.71 976.16 2227.59 982.5L2226.72 982.77L2155.09 961.77L2154.52 960.54C2135.61 919.85 2069.77 783.54 2016.43 738.54C1995.43 720.86 1939.1 698.22 1857.72 674.81C1792.39 656.01 1727.87 641.81 1710.83 640.72C1710.03 640.672 1709.29 640.31 1708.76 639.714C1708.23 639.118 1707.96 638.336 1708.01 637.54C1708.06 636.744 1708.42 636 1709.02 635.471C1709.61 634.943 1710.39 634.672 1711.19 634.72C1746.1 636.84 1970.19 691.72 2020.29 733.95C2074.05 779.3 2139.62 914.33 2159.39 956.76L2226.66 976.52C2247.24 970.06 2287.72 957.87 2299.29 956.29C2315.83 954.02 2326.12 956.68 2329.89 964.18C2332.89 970.18 2330.67 977.6 2326.63 984.06C2339.73 981.06 2348.25 985.85 2352.16 992.3C2356.38 999.3 2356.22 1009.72 2349.56 1019.45C2359.83 1016.67 2371.16 1016.18 2376.1 1024.96C2380.24 1032.33 2377.53 1044.14 2370.57 1054.09C2379.37 1051.72 2384.82 1053.44 2387.7 1055.09C2389.81 1056.31 2391.55 1058.07 2392.73 1060.2C2393.92 1062.32 2394.5 1064.73 2394.43 1067.16C2394.43 1074.29 2389.81 1081.31 2382.43 1085.5L2271.78 1148.68L2176.29 1131.43C2185.29 1145.01 2200.09 1173.07 2202.34 1185.89C2204.75 1199.64 2198.97 1204.95 2195.34 1206.89C2193.05 1208.05 2190.5 1208.63 2187.93 1208.57Z" fill="black"/>
<path d="M1729.55 635.28L1719.04 835.28H1617.64L1719 996.83L1392.52 1159.08L1283.48 968.2L1181.22 1066.37L1074.87 906.84C1187.22 776 1304.13 708.43 1348.54 691C1399.74 709.07 1410.07 673.63 1408.84 653.65C1537.12 608.47 1676.1 622.58 1729.55 635.28Z" fill="#FEDA00"/>
<path d="M1409.28 961.83C1406.9 961.83 1404.48 961.75 1402.03 961.61C1401.23 961.562 1400.49 961.2 1399.96 960.604C1399.43 960.008 1399.16 959.226 1399.21 958.43C1399.26 957.634 1399.62 956.89 1400.22 956.361C1400.81 955.833 1401.59 955.562 1402.39 955.61C1407.85 955.95 1413.33 955.877 1418.78 955.39C1419.58 955.316 1420.37 955.561 1420.98 956.071C1421.6 956.581 1421.99 957.314 1422.06 958.11C1422.13 958.906 1421.89 959.698 1421.38 960.313C1420.87 960.928 1420.14 961.316 1419.34 961.39C1416.1 961.67 1412.73 961.83 1409.28 961.83ZM1451.28 951.34C1450.62 951.341 1449.99 951.126 1449.46 950.73C1448.94 950.333 1448.56 949.776 1448.39 949.144C1448.21 948.512 1448.25 947.84 1448.49 947.231C1448.73 946.621 1449.17 946.108 1449.73 945.77C1473.16 931.66 1481.38 905.14 1481.3 886.69C1481.16 883.49 1480.87 879.78 1480.4 875.69C1452.6 870.69 1432.4 842.51 1424.49 824.78C1420.03 813.88 1418.49 799.44 1425.49 793.26C1430.59 788.77 1438.58 789.55 1449.23 795.58C1471.75 808.34 1482.12 844.15 1485.78 870.31C1491.29 870.709 1496.82 870.071 1502.09 868.43C1505.52 867.459 1508.72 865.818 1511.51 863.6C1512.13 863.093 1512.92 862.852 1513.71 862.929C1514.5 863.006 1515.23 863.395 1515.74 864.01C1516.25 864.625 1516.49 865.417 1516.41 866.21C1516.33 867.003 1515.95 867.733 1515.33 868.24C1511.92 870.952 1508.02 872.967 1503.83 874.17C1498.24 875.907 1492.38 876.658 1486.53 876.39C1486.93 880.07 1487.18 883.46 1487.31 886.47V886.58C1487.41 906.58 1478.45 935.47 1452.84 950.89C1452.37 951.184 1451.82 951.34 1451.26 951.34H1451.28ZM1433.64 796.43C1432.12 796.348 1430.62 796.832 1429.44 797.79C1425.06 801.65 1426.29 813.35 1430.01 822.44C1437.2 838.44 1455.14 863.96 1479.57 869.44C1478.14 859.606 1475.89 849.907 1472.87 840.44C1466.44 820.78 1457.24 807.1 1446.26 800.88C1441.12 797.91 1436.81 796.43 1433.62 796.43H1433.64ZM1522.17 845.29C1521.4 845.291 1520.66 844.997 1520.1 844.469C1519.55 843.94 1519.21 843.218 1519.17 842.45C1518.17 823.17 1504.47 797.87 1493.06 782.06C1492.59 781.416 1492.4 780.612 1492.53 779.826C1492.65 779.04 1493.09 778.337 1493.73 777.87C1494.37 777.403 1495.18 777.212 1495.96 777.337C1496.75 777.463 1497.45 777.895 1497.92 778.54C1510.39 795.8 1524.09 821.54 1525.17 842.13C1525.19 842.524 1525.14 842.919 1525 843.291C1524.87 843.663 1524.67 844.006 1524.41 844.299C1524.14 844.593 1523.82 844.832 1523.47 845.002C1523.11 845.172 1522.72 845.27 1522.33 845.29H1522.17Z" fill="black"/>
<path d="M1278.22 961.83C1277.68 961.831 1277.15 961.685 1276.68 961.409C1276.22 961.132 1275.84 960.735 1275.58 960.26L1247.71 908.8C1247.4 908.106 1247.37 907.321 1247.62 906.603C1247.87 905.886 1248.38 905.289 1249.05 904.934C1249.72 904.579 1250.5 904.491 1251.23 904.689C1251.97 904.887 1252.6 905.355 1253 906L1280.87 957.45C1281.12 957.907 1281.24 958.421 1281.23 958.941C1281.22 959.461 1281.08 959.969 1280.81 960.416C1280.54 960.863 1280.17 961.232 1279.71 961.489C1279.26 961.746 1278.75 961.881 1278.23 961.88L1278.22 961.83ZM1609.43 822.48C1608.89 822.48 1608.35 822.333 1607.88 822.053C1607.42 821.772 1607.04 821.371 1606.78 820.89L1578.91 768.37C1578.72 768.022 1578.61 767.641 1578.57 767.249C1578.53 766.856 1578.57 766.46 1578.69 766.083C1578.8 765.706 1578.99 765.356 1579.24 765.051C1579.49 764.747 1579.8 764.495 1580.15 764.31C1580.5 764.125 1580.88 764.01 1581.27 763.972C1581.66 763.934 1582.06 763.974 1582.44 764.089C1582.81 764.204 1583.16 764.393 1583.47 764.643C1583.77 764.894 1584.02 765.202 1584.21 765.55L1612.08 818.07C1612.32 818.527 1612.44 819.04 1612.43 819.558C1612.42 820.076 1612.27 820.581 1612 821.025C1611.74 821.469 1611.36 821.837 1610.91 822.092C1610.46 822.347 1609.95 822.48 1609.43 822.48Z" fill="black"/>
<path d="M1716.11 1823.13C1715.92 1823.13 1715.74 1823.11 1715.55 1823.08C1715.16 1823.01 1714.79 1822.86 1714.46 1822.64C1714.13 1822.43 1713.85 1822.15 1713.63 1821.82C1713.41 1821.49 1713.25 1821.13 1713.17 1820.74C1713.09 1820.36 1713.09 1819.96 1713.16 1819.57L1824.72 1232.4C1798.46 1230.61 1772.86 1223.42 1749.51 1211.28C1728.18 1200.01 1709.05 1185.01 1693 1167C1654.87 1124.65 1641.55 1078.4 1638.37 1065.23C1638.18 1064.46 1638.31 1063.64 1638.73 1062.96C1639.15 1062.28 1639.82 1061.8 1640.59 1061.61C1641.36 1061.42 1642.18 1061.55 1642.86 1061.97C1643.54 1062.39 1644.02 1063.06 1644.21 1063.83C1647.3 1076.65 1660.28 1121.68 1697.46 1162.99C1732.85 1202.3 1776.9 1223.73 1828.39 1226.68H1828.48C1836.66 1227.14 1844.85 1227.14 1853.03 1226.68C1853.83 1226.64 1854.61 1226.91 1855.2 1227.45C1855.79 1227.98 1856.15 1228.72 1856.19 1229.52C1856.23 1230.32 1855.96 1231.1 1855.42 1231.69C1854.89 1232.28 1854.15 1232.64 1853.35 1232.68C1845.69 1233.09 1838.09 1233.14 1830.73 1232.81L1719.03 1820.74C1718.89 1821.41 1718.52 1822.02 1717.99 1822.45C1717.46 1822.89 1716.8 1823.13 1716.11 1823.13ZM1285.49 1794.46C1284.94 1794.46 1284.41 1794.31 1283.94 1794.03C1283.47 1793.74 1283.09 1793.34 1282.84 1792.86C1282.58 1792.37 1282.47 1791.83 1282.5 1791.28C1282.53 1790.74 1282.71 1790.21 1283.02 1789.76L1596.78 1333.88C1597 1333.54 1597.28 1333.25 1597.61 1333.02C1597.94 1332.8 1598.32 1332.64 1598.71 1332.56C1599.11 1332.48 1599.51 1332.48 1599.91 1332.56C1600.3 1332.64 1600.67 1332.8 1601.01 1333.03C1601.34 1333.26 1601.62 1333.55 1601.83 1333.89C1602.05 1334.23 1602.2 1334.61 1602.26 1335C1602.33 1335.4 1602.32 1335.81 1602.22 1336.2C1602.13 1336.59 1601.96 1336.96 1601.72 1337.28L1288 1793.16C1287.72 1793.57 1287.35 1793.9 1286.91 1794.12C1286.47 1794.35 1285.98 1794.47 1285.49 1794.46Z" fill="black"/>
<path d="M1071.15 2483.61L1065.63 2481.24L1147.41 2291.22L884.21 2247.71L789.08 2433.29L783.74 2430.55L1126.56 1761.72L1131.9 1764.46L887.08 2242.1L1149.85 2285.54L1356.02 1806.45L1361.54 1808.83L1154.44 2290.07L1151.68 2288.88L1154.44 2290.07L1071.15 2483.61Z" fill="black"/>
<path d="M1044 2427.62C1043.49 2427.62 1042.99 2427.49 1042.55 2427.25C1042.11 2427 1041.73 2426.65 1041.46 2426.22C1041.19 2425.79 1041.03 2425.3 1041 2424.8C1040.97 2424.29 1041.07 2423.79 1041.29 2423.33L1098.19 2303.56C1098.53 2302.84 1099.15 2302.29 1099.9 2302.02C1100.65 2301.76 1101.47 2301.8 1102.19 2302.14C1102.91 2302.48 1103.46 2303.1 1103.73 2303.85C1103.99 2304.6 1103.95 2305.42 1103.61 2306.14L1046.71 2425.91C1046.47 2426.42 1046.08 2426.85 1045.6 2427.16C1045.12 2427.46 1044.57 2427.62 1044 2427.62ZM936.71 2427.62C936.257 2427.62 935.809 2427.52 935.4 2427.32C934.686 2426.97 934.139 2426.36 933.879 2425.61C933.618 2424.86 933.665 2424.04 934.01 2423.32L991.9 2303.55C992.247 2302.83 992.865 2302.29 993.617 2302.02C994.369 2301.76 995.194 2301.81 995.91 2302.16C996.626 2302.51 997.175 2303.13 997.436 2303.88C997.696 2304.63 997.647 2305.45 997.3 2306.17L939.41 2425.94C939.165 2426.44 938.785 2426.86 938.314 2427.16C937.842 2427.46 937.297 2427.62 936.74 2427.62H936.71ZM864.35 2408.16C863.855 2408.16 863.368 2408.04 862.932 2407.81C862.496 2407.57 862.124 2407.23 861.85 2406.82C861.575 2406.41 861.407 2405.94 861.36 2405.45C861.313 2404.95 861.389 2404.46 861.58 2404L909 2291.22C909.144 2290.84 909.361 2290.5 909.64 2290.21C909.919 2289.92 910.253 2289.69 910.622 2289.53C910.992 2289.38 911.39 2289.29 911.792 2289.29C912.194 2289.29 912.592 2289.37 912.963 2289.53C913.333 2289.68 913.669 2289.91 913.95 2290.2C914.231 2290.48 914.45 2290.83 914.597 2291.2C914.743 2291.58 914.812 2291.98 914.801 2292.38C914.789 2292.78 914.697 2293.17 914.53 2293.54L867.12 2406.32C866.893 2406.86 866.513 2407.32 866.026 2407.65C865.539 2407.98 864.967 2408.15 864.38 2408.16H864.35Z" fill="black"/>
<path d="M810 2377.3L1080.39 2465.37L1000.8 2659.15L313.6 2563.28C327.6 2527.14 369.15 2445.18 422.91 2406.48C605.69 2281.04 746.96 2354.21 794.74 2406.48L810 2377.3Z" fill="black"/>
<path d="M2380.38 1804.26L2282.55 1585.1L2441.68 1473.55L2869.77 2019.63C2834.58 2035.9 2747.77 2066.07 2682.24 2056.63C2463.6 2020 2416.09 1835.73 2418 1764.94L2380.38 1804.26Z" fill="black"/>
<path d="M1889.23 2139.66C1859.63 2139.81 1830.3 2134 1802.99 2122.56C1751.59 2100.93 1707.83 2059.56 1672.99 1999.56C1636.13 1936.21 1620.79 1871.7 1614.93 1838.89L1620.83 1837.83C1626.63 1870.26 1641.83 1933.99 1678.18 1996.54C1712.4 2055.36 1755.18 2095.88 1805.36 2116.99C1890.48 2152.8 1992.83 2130.67 2109.59 2051.22C2165.59 2014.16 2312.91 1864.35 2382.98 1790.31L2387.34 1794.43C2317.11 1868.64 2169.34 2018.86 2112.94 2056.2C2031.26 2111.78 1956.39 2139.66 1889.23 2139.66ZM1889.07 1867.66L1897.07 1792.13L1903.07 1792.77L1896.45 1855.22L2300 1574.06L2303.43 1578.98L1889.07 1867.66Z" fill="black"/>
<path d="M1854.45 1930.75C1853.92 1930.75 1853.4 1930.61 1852.95 1930.35C1852.49 1930.08 1852.11 1929.7 1851.85 1929.24C1851.59 1928.79 1851.45 1928.27 1851.45 1927.74C1851.45 1927.21 1851.59 1926.7 1851.86 1926.24L1891.65 1857.72C1891.83 1857.35 1892.09 1857.02 1892.4 1856.76C1892.71 1856.49 1893.08 1856.29 1893.47 1856.17C1893.86 1856.05 1894.28 1856.02 1894.69 1856.06C1895.1 1856.11 1895.49 1856.24 1895.85 1856.45C1896.2 1856.65 1896.51 1856.93 1896.76 1857.26C1897 1857.59 1897.17 1857.97 1897.27 1858.37C1897.36 1858.77 1897.37 1859.19 1897.29 1859.59C1897.22 1859.99 1897.06 1860.38 1896.83 1860.72L1857 1929.26C1856.74 1929.71 1856.37 1930.08 1855.92 1930.34C1855.47 1930.6 1854.97 1930.74 1854.45 1930.75Z" fill="black"/>
<path d="M2312.81 1869.41C2312.3 1869.41 2311.8 1869.28 2311.36 1869.03C2310.91 1868.79 2310.54 1868.43 2310.27 1868L2217.57 1720.19L2217.51 1720.09L2179.65 1659.72C2179.42 1659.39 2179.26 1659.01 2179.18 1658.61C2179.09 1658.21 2179.09 1657.8 2179.18 1657.41C2179.26 1657.01 2179.42 1656.63 2179.65 1656.3C2179.88 1655.96 2180.18 1655.68 2180.52 1655.47C2180.87 1655.25 2181.25 1655.11 2181.65 1655.05C2182.05 1654.98 2182.46 1655 2182.86 1655.1C2183.25 1655.2 2183.62 1655.38 2183.94 1655.63C2184.26 1655.88 2184.53 1656.19 2184.73 1656.54L2220.73 1713.93L2310.81 1632.6C2311.1 1632.31 2311.44 1632.08 2311.82 1631.93C2312.2 1631.78 2312.61 1631.71 2313.01 1631.72C2313.42 1631.73 2313.82 1631.83 2314.19 1632C2314.56 1632.17 2314.89 1632.41 2315.17 1632.72C2315.44 1633.02 2315.65 1633.38 2315.78 1633.76C2315.91 1634.15 2315.96 1634.56 2315.92 1634.97C2315.89 1635.37 2315.77 1635.77 2315.58 1636.13C2315.39 1636.49 2315.13 1636.8 2314.81 1637.06L2223.95 1719.06L2289.73 1824C2289.79 1823.91 2289.85 1823.81 2289.92 1823.72L2351.34 1740.41C2351.81 1739.77 2352.52 1739.34 2353.31 1739.22C2354.09 1739.1 2354.89 1739.3 2355.53 1739.78C2356.18 1740.25 2356.6 1740.95 2356.72 1741.74C2356.84 1742.53 2356.64 1743.33 2356.17 1743.97L2294.75 1827.28C2294.49 1827.63 2294.16 1827.92 2293.78 1828.13C2293.4 1828.34 2292.98 1828.46 2292.55 1828.49L2315.35 1864.86C2315.63 1865.31 2315.79 1865.84 2315.8 1866.37C2315.82 1866.91 2315.69 1867.43 2315.43 1867.9C2315.17 1868.37 2314.79 1868.76 2314.33 1869.03C2313.87 1869.31 2313.35 1869.45 2312.81 1869.45V1869.41ZM2262 1757.15C2261.4 1757.15 2260.82 1756.98 2260.32 1756.64C2259.83 1756.31 2259.44 1755.84 2259.22 1755.29C2258.99 1754.74 2258.93 1754.13 2259.05 1753.55C2259.17 1752.96 2259.46 1752.43 2259.89 1752.01L2317.08 1695.54C2317.65 1695.01 2318.4 1694.73 2319.18 1694.74C2319.96 1694.76 2320.7 1695.08 2321.25 1695.63C2321.79 1696.19 2322.11 1696.93 2322.12 1697.71C2322.13 1698.48 2321.83 1699.23 2321.3 1699.8L2264.11 1756.28C2263.55 1756.84 2262.79 1757.15 2262 1757.15Z" fill="black"/>
<path d="M1609.43 2736.47C1554.3 2736.47 1500.87 2717.36 1458.25 2682.38C1415.63 2647.41 1386.46 2598.74 1375.7 2544.66C1364.95 2490.59 1373.27 2434.46 1399.26 2385.84C1425.25 2337.21 1467.29 2299.11 1518.23 2278.01C1569.17 2256.91 1625.84 2254.13 1678.6 2270.13C1731.36 2286.14 1776.94 2319.94 1807.56 2365.78C1838.19 2411.62 1851.98 2466.67 1846.57 2521.53C1841.17 2576.4 1816.91 2627.7 1777.92 2666.68C1755.84 2688.88 1729.59 2706.47 1700.67 2718.45C1671.74 2730.43 1640.73 2736.55 1609.43 2736.47ZM1609.43 2265.89C1555.69 2265.9 1503.61 2284.54 1462.06 2318.64C1420.52 2352.74 1392.09 2400.19 1381.61 2452.9C1371.14 2505.62 1379.26 2560.33 1404.61 2607.73C1429.95 2655.12 1470.94 2692.26 1520.6 2712.82C1570.26 2733.38 1625.51 2736.09 1676.93 2720.47C1728.36 2704.86 1772.79 2671.9 1802.64 2627.21C1832.49 2582.52 1845.91 2528.85 1840.63 2475.37C1835.35 2421.88 1811.69 2371.88 1773.68 2333.89C1752.16 2312.26 1726.56 2295.11 1698.37 2283.44C1670.17 2271.76 1639.94 2265.8 1609.43 2265.89Z" fill="black"/>
<path d="M1325.3 2804C1324.72 2803.99 1324.16 2803.82 1323.68 2803.5C1323.2 2803.18 1322.82 2802.74 1322.59 2802.21C1322.36 2801.68 1322.28 2801.1 1322.37 2800.53C1322.46 2799.96 1322.72 2799.43 1323.1 2799L1404.8 2710.62C1405.07 2710.33 1405.39 2710.1 1405.75 2709.93C1406.11 2709.77 1406.49 2709.68 1406.89 2709.66C1407.28 2709.65 1407.67 2709.71 1408.04 2709.85C1408.41 2709.98 1408.75 2710.19 1409.04 2710.46C1409.33 2710.73 1409.56 2711.05 1409.73 2711.41C1409.89 2711.77 1409.98 2712.15 1410 2712.55C1410.01 2712.94 1409.95 2713.33 1409.81 2713.7C1409.68 2714.07 1409.47 2714.41 1409.2 2714.7L1327.5 2803.08C1327.22 2803.38 1326.87 2803.61 1326.5 2803.77C1326.12 2803.93 1325.71 2804.01 1325.3 2804ZM1057.87 2779.68C1057.21 2779.68 1056.56 2779.46 1056.04 2779.05C1055.52 2778.64 1055.14 2778.07 1054.98 2777.43C1054.81 2776.79 1054.86 2776.11 1055.12 2775.5C1055.38 2774.89 1055.84 2774.38 1056.42 2774.06L1357.51 2607.51C1358.2 2607.15 1359.01 2607.08 1359.76 2607.3C1360.51 2607.53 1361.14 2608.04 1361.51 2608.72C1361.89 2609.41 1361.99 2610.21 1361.78 2610.97C1361.58 2611.72 1361.08 2612.36 1360.41 2612.76L1059.32 2779.31C1058.88 2779.56 1058.38 2779.7 1057.87 2779.71V2779.68ZM1443.87 2216.25C1443.43 2216.25 1443 2216.15 1442.6 2215.97C1442.2 2215.78 1441.85 2215.51 1441.57 2215.17L1311.67 2059.61C1311.39 2059.31 1311.18 2058.96 1311.04 2058.58C1310.91 2058.19 1310.85 2057.79 1310.88 2057.38C1310.9 2056.97 1311.01 2056.58 1311.2 2056.21C1311.38 2055.85 1311.64 2055.53 1311.95 2055.27C1312.26 2055.01 1312.62 2054.81 1313.01 2054.7C1313.4 2054.58 1313.81 2054.55 1314.22 2054.59C1314.62 2054.64 1315.01 2054.77 1315.36 2054.97C1315.72 2055.17 1316.03 2055.44 1316.27 2055.77L1446.17 2211.33C1446.53 2211.77 1446.77 2212.3 1446.84 2212.87C1446.91 2213.43 1446.82 2214 1446.58 2214.52C1446.34 2215.04 1445.96 2215.47 1445.48 2215.78C1445 2216.09 1444.44 2216.25 1443.87 2216.25Z" fill="#FEDA00"/>
<path d="M1554.22 2388.35L1498.77 2288.54C1628.62 2236.12 1718.89 2280.82 1747.77 2309.72L1691.31 2411.54L1554.22 2388.35Z" fill="black"/>
<path d="M1557.58 2379.98L1483.21 2442.3L1487.06 2446.9L1561.43 2384.58L1557.58 2379.98Z" fill="black"/>
<path d="M1479.48 2552.59L1475.62 2557.19L1549.93 2619.58L1553.79 2614.99L1479.48 2552.59Z" fill="black"/>
<path d="M1749.94 2553.89L1666.34 2603.15L1669.39 2608.32L1752.99 2559.06L1749.94 2553.89Z" fill="black"/>
<path d="M1677.52 2388.02L1673.29 2392.27L1742.05 2460.73L1746.29 2456.48L1677.52 2388.02Z" fill="black"/>
<path d="M1491.77 2563.91L1412.1 2625.08C1349.68 2518.88 1376.88 2434.55 1398.29 2405.66L1494.2 2441.66L1491.77 2563.91Z" fill="black"/>
<path d="M1730.73 2563.91L1810.4 2625.08C1872.82 2518.88 1845.61 2434.55 1824.2 2405.66L1728.3 2441.66L1730.73 2563.91Z" fill="black"/>
<path d="M1540.65 2601L1474 2693.72C1596.87 2760.88 1691.72 2726.98 1723.78 2701.64L1679.55 2593.94L1540.65 2601Z" fill="black"/>
</svg>
