<svg width="3000" height="3000" viewBox="0 0 3000 3000" fill="none" xmlns="http://www.w3.org/2000/svg">
<path d="M2281.19 1445.51C2279.54 1445.51 2277.93 1445.02 2276.56 1444.11C2275.19 1443.19 2274.12 1441.89 2273.49 1440.37C2272.86 1438.85 2272.7 1437.17 2273.02 1435.56C2273.34 1433.94 2274.13 1432.45 2275.3 1431.29C2276.46 1430.12 2277.95 1429.33 2279.56 1429.01C2281.18 1428.69 2282.86 1428.85 2284.38 1429.48C2285.9 1430.11 2287.2 1431.18 2288.12 1432.55C2289.03 1433.92 2289.52 1435.53 2289.52 1437.18C2289.52 1439.39 2288.64 1441.51 2287.08 1443.07C2285.52 1444.63 2283.4 1445.51 2281.19 1445.51ZM2281.19 1434.85C2280.73 1434.85 2280.28 1434.99 2279.9 1435.24C2279.51 1435.5 2279.21 1435.86 2279.04 1436.29C2278.86 1436.71 2278.81 1437.18 2278.9 1437.63C2278.99 1438.09 2279.22 1438.5 2279.54 1438.83C2279.87 1439.15 2280.28 1439.38 2280.74 1439.47C2281.19 1439.56 2281.66 1439.51 2282.08 1439.33C2282.51 1439.16 2282.87 1438.86 2283.13 1438.47C2283.38 1438.09 2283.52 1437.64 2283.52 1437.18C2283.52 1436.56 2283.27 1435.97 2282.84 1435.53C2282.4 1435.1 2281.81 1434.85 2281.19 1434.85Z" fill="#FFFFFF"/>
<path d="M1163.63 1445.51C1161.98 1445.51 1160.37 1445.02 1159 1444.11C1157.63 1443.19 1156.56 1441.89 1155.93 1440.37C1155.3 1438.85 1155.14 1437.17 1155.46 1435.56C1155.78 1433.94 1156.57 1432.45 1157.74 1431.29C1158.9 1430.12 1160.39 1429.33 1162.01 1429.01C1163.62 1428.69 1165.3 1428.85 1166.82 1429.48C1168.34 1430.11 1169.64 1431.18 1170.56 1432.55C1171.47 1433.92 1171.96 1435.53 1171.96 1437.18C1171.96 1439.39 1171.08 1441.51 1169.52 1443.07C1167.96 1444.63 1165.84 1445.51 1163.63 1445.51ZM1163.63 1434.85C1163.17 1434.85 1162.72 1434.99 1162.34 1435.24C1161.95 1435.5 1161.65 1435.86 1161.48 1436.29C1161.3 1436.71 1161.25 1437.18 1161.34 1437.63C1161.43 1438.09 1161.66 1438.5 1161.98 1438.83C1162.31 1439.15 1162.72 1439.38 1163.18 1439.47C1163.63 1439.56 1164.1 1439.51 1164.52 1439.33C1164.95 1439.16 1165.31 1438.86 1165.57 1438.47C1165.82 1438.09 1165.96 1437.64 1165.96 1437.18C1165.96 1436.56 1165.71 1435.97 1165.28 1435.53C1164.84 1435.1 1164.25 1434.85 1163.63 1434.85Z" fill="#FFFFFF"/>
<path d="M899.61 2280.42C897.963 2280.42 896.352 2279.93 894.982 2279.02C893.612 2278.1 892.545 2276.8 891.914 2275.28C891.284 2273.76 891.119 2272.08 891.44 2270.46C891.762 2268.85 892.555 2267.36 893.72 2266.2C894.885 2265.03 896.369 2264.24 897.985 2263.92C899.601 2263.6 901.276 2263.76 902.798 2264.39C904.32 2265.02 905.621 2266.09 906.536 2267.46C907.451 2268.83 907.94 2270.44 907.94 2272.09C907.935 2274.3 907.055 2276.41 905.494 2277.97C903.933 2279.54 901.818 2280.41 899.61 2280.42ZM899.61 2269.76C899.149 2269.76 898.699 2269.9 898.316 2270.15C897.932 2270.41 897.634 2270.77 897.457 2271.2C897.281 2271.62 897.235 2272.09 897.325 2272.54C897.415 2273 897.637 2273.41 897.962 2273.74C898.288 2274.06 898.704 2274.29 899.155 2274.37C899.607 2274.46 900.076 2274.42 900.502 2274.24C900.927 2274.07 901.291 2273.77 901.547 2273.38C901.803 2273 901.94 2272.55 901.94 2272.09C901.94 2271.47 901.695 2270.88 901.258 2270.44C900.821 2270.01 900.228 2269.76 899.61 2269.76Z" fill="#FFFFFF"/>
<path d="M501.73 362.38C500.08 362.382 498.467 361.894 497.094 360.979C495.721 360.064 494.651 358.762 494.018 357.238C493.385 355.715 493.218 354.038 493.539 352.419C493.86 350.801 494.653 349.314 495.819 348.146C496.985 346.979 498.471 346.184 500.089 345.861C501.707 345.538 503.385 345.703 504.909 346.334C506.434 346.965 507.737 348.034 508.654 349.405C509.571 350.777 510.06 352.39 510.06 354.04C510.057 356.249 509.179 358.368 507.618 359.931C506.057 361.494 503.939 362.375 501.73 362.38ZM501.73 351.71C501.266 351.708 500.813 351.844 500.426 352.1C500.04 352.356 499.739 352.722 499.56 353.15C499.382 353.578 499.335 354.049 499.425 354.504C499.515 354.959 499.738 355.377 500.066 355.705C500.393 356.032 500.811 356.255 501.266 356.345C501.721 356.435 502.192 356.388 502.62 356.21C503.048 356.032 503.414 355.73 503.67 355.344C503.926 354.957 504.062 354.504 504.06 354.04C504.057 353.423 503.811 352.832 503.375 352.395C502.938 351.959 502.347 351.713 501.73 351.71Z" fill="#FFFFFF"/>
<path d="M1965.78 628.27C1964.13 628.27 1962.52 627.781 1961.15 626.866C1959.78 625.951 1958.71 624.65 1958.08 623.128C1957.45 621.606 1957.29 619.931 1957.61 618.315C1957.93 616.699 1958.72 615.215 1959.89 614.05C1961.05 612.885 1962.54 612.091 1964.16 611.77C1965.77 611.449 1967.45 611.614 1968.97 612.244C1970.49 612.875 1971.79 613.942 1972.71 615.312C1973.62 616.682 1974.11 618.292 1974.11 619.94C1974.11 622.148 1973.23 624.266 1971.67 625.827C1970.11 627.389 1967.99 628.267 1965.78 628.27ZM1965.78 617.61C1965.32 617.61 1964.87 617.747 1964.49 618.003C1964.1 618.259 1963.8 618.623 1963.63 619.048C1963.45 619.474 1963.41 619.943 1963.49 620.395C1963.58 620.846 1963.81 621.262 1964.13 621.588C1964.46 621.913 1964.87 622.135 1965.33 622.225C1965.78 622.315 1966.25 622.269 1966.67 622.093C1967.1 621.916 1967.46 621.618 1967.72 621.234C1967.97 620.851 1968.11 620.401 1968.11 619.94C1968.11 619.322 1967.86 618.729 1967.43 618.292C1966.99 617.855 1966.4 617.61 1965.78 617.61Z" fill="#FFFFFF"/>
<path d="M1797 2261.76C1795.35 2261.76 1793.74 2261.27 1792.37 2260.36C1791 2259.44 1789.93 2258.14 1789.3 2256.62C1788.67 2255.1 1788.51 2253.42 1788.83 2251.8C1789.15 2250.19 1789.94 2248.7 1791.11 2247.54C1792.27 2246.37 1793.76 2245.58 1795.38 2245.26C1796.99 2244.94 1798.67 2245.1 1800.19 2245.73C1801.71 2246.36 1803.01 2247.43 1803.93 2248.8C1804.84 2250.17 1805.33 2251.78 1805.33 2253.43C1805.33 2255.64 1804.45 2257.76 1802.89 2259.32C1801.33 2260.88 1799.21 2261.76 1797 2261.76ZM1797 2251.1C1796.54 2251.1 1796.09 2251.24 1795.71 2251.49C1795.32 2251.75 1795.02 2252.11 1794.85 2252.54C1794.67 2252.96 1794.62 2253.43 1794.71 2253.88C1794.8 2254.34 1795.03 2254.75 1795.35 2255.08C1795.68 2255.4 1796.09 2255.63 1796.55 2255.71C1797 2255.8 1797.47 2255.76 1797.89 2255.58C1798.32 2255.41 1798.68 2255.11 1798.94 2254.72C1799.19 2254.34 1799.33 2253.89 1799.33 2253.43C1799.33 2253.12 1799.27 2252.82 1799.15 2252.54C1799.04 2252.26 1798.86 2252 1798.65 2251.78C1798.43 2251.57 1798.17 2251.39 1797.89 2251.28C1797.61 2251.16 1797.31 2251.1 1797 2251.1Z" fill="#FFFFFF"/>
<path d="M2599.38 805.91C2598.75 805.91 2598.13 805.711 2597.62 805.34L2568.25 784C2567.61 783.532 2567.17 782.827 2567.05 782.04C2566.92 781.254 2567.12 780.449 2567.59 779.805C2568.05 779.161 2568.76 778.728 2569.54 778.604C2570.33 778.479 2571.14 778.672 2571.78 779.14L2601.14 800.5C2601.65 800.873 2602.03 801.398 2602.22 801.998C2602.42 802.599 2602.42 803.246 2602.22 803.847C2602.03 804.447 2601.65 804.971 2601.14 805.343C2600.63 805.715 2600.01 805.917 2599.38 805.92V805.91Z" fill="#FFFFFF"/>
<path d="M1604.9 1861.07C1604.27 1861.07 1603.65 1860.87 1603.14 1860.5L1573.78 1839.15C1573.46 1838.92 1573.19 1838.63 1572.98 1838.29C1572.78 1837.96 1572.64 1837.58 1572.58 1837.19C1572.52 1836.8 1572.53 1836.41 1572.62 1836.02C1572.71 1835.64 1572.88 1835.28 1573.11 1834.96C1573.34 1834.64 1573.63 1834.37 1573.97 1834.16C1574.3 1833.96 1574.68 1833.82 1575.07 1833.76C1575.46 1833.7 1575.85 1833.71 1576.24 1833.8C1576.62 1833.89 1576.98 1834.06 1577.3 1834.29L1606.67 1855.64C1607.18 1856.01 1607.57 1856.54 1607.76 1857.14C1607.96 1857.75 1607.96 1858.4 1607.76 1859C1607.57 1859.6 1607.18 1860.13 1606.67 1860.5C1606.15 1860.87 1605.54 1861.07 1604.9 1861.07Z" fill="#FFFFFF"/>
<path d="M955.68 2042.5C955.037 2042.5 954.41 2042.29 953.893 2041.91C953.377 2041.53 952.997 2040.99 952.81 2040.37L942.34 2005.61C942.111 2004.85 942.194 2004.03 942.571 2003.32C942.948 2002.62 943.588 2002.1 944.35 2001.87C945.113 2001.64 945.935 2001.72 946.636 2002.1C947.338 2002.48 947.861 2003.12 948.09 2003.88L958.56 2038.63C958.791 2039.39 958.709 2040.21 958.334 2040.91C957.959 2041.62 957.321 2042.14 956.56 2042.37C956.275 2042.46 955.978 2042.5 955.68 2042.5Z" fill="#FFFFFF"/>
<path d="M1384.24 608.06C1383.61 608.057 1382.99 607.854 1382.48 607.48L1353.12 586.13C1352.78 585.908 1352.49 585.619 1352.26 585.28C1352.04 584.942 1351.88 584.562 1351.81 584.162C1351.74 583.762 1351.74 583.352 1351.83 582.955C1351.92 582.559 1352.09 582.185 1352.33 581.856C1352.57 581.527 1352.87 581.25 1353.22 581.042C1353.57 580.834 1353.96 580.699 1354.36 580.645C1354.77 580.591 1355.18 580.62 1355.57 580.729C1355.96 580.838 1356.32 581.025 1356.64 581.28L1386 602.63C1386.51 603.002 1386.9 603.527 1387.09 604.13C1387.29 604.732 1387.29 605.382 1387.09 605.985C1386.9 606.588 1386.52 607.114 1386 607.487C1385.49 607.859 1384.87 608.06 1384.24 608.06Z" fill="#FFFFFF"/>
<path d="M1498.86 214.31C1498.2 214.312 1497.55 214.093 1497.02 213.687C1496.49 213.282 1496.12 212.712 1495.95 212.069C1495.78 211.426 1495.83 210.745 1496.09 210.133C1496.35 209.522 1496.81 209.014 1497.39 208.69L1529 190.9C1529.69 190.51 1530.52 190.412 1531.28 190.628C1532.05 190.844 1532.7 191.355 1533.09 192.05C1533.48 192.745 1533.58 193.566 1533.36 194.333C1533.15 195.1 1532.63 195.75 1531.94 196.14L1500.3 213.92C1499.86 214.174 1499.37 214.308 1498.86 214.31Z" fill="#FFFFFF"/>
<path d="M1056.26 1962.65C1055.63 1962.65 1055.01 1962.45 1054.5 1962.08L1025.14 1940.72C1024.82 1940.49 1024.55 1940.2 1024.34 1939.86C1024.14 1939.53 1024 1939.15 1023.94 1938.76C1023.88 1938.37 1023.89 1937.98 1023.98 1937.59C1024.07 1937.21 1024.24 1936.85 1024.47 1936.53C1024.7 1936.21 1024.99 1935.94 1025.33 1935.73C1025.66 1935.53 1026.04 1935.39 1026.43 1935.33C1026.82 1935.26 1027.21 1935.28 1027.6 1935.37C1027.98 1935.46 1028.34 1935.63 1028.66 1935.86L1058.02 1957.22C1058.53 1957.59 1058.92 1958.12 1059.11 1958.72C1059.31 1959.32 1059.31 1959.97 1059.11 1960.57C1058.92 1961.18 1058.54 1961.7 1058.02 1962.08C1057.51 1962.45 1056.89 1962.65 1056.26 1962.65Z" fill="#FFFFFF"/>
<path d="M1056.26 1850.39C1055.63 1850.39 1055.01 1850.19 1054.5 1849.82L1025.14 1828.47C1024.82 1828.24 1024.55 1827.95 1024.34 1827.61C1024.14 1827.28 1024 1826.9 1023.94 1826.51C1023.88 1826.12 1023.89 1825.73 1023.98 1825.34C1024.07 1824.96 1024.24 1824.6 1024.47 1824.28C1024.7 1823.96 1024.99 1823.69 1025.33 1823.48C1025.66 1823.28 1026.04 1823.14 1026.43 1823.08C1026.82 1823.01 1027.21 1823.03 1027.6 1823.12C1027.98 1823.21 1028.34 1823.38 1028.66 1823.61L1058 1845C1058.51 1845.37 1058.9 1845.9 1059.09 1846.5C1059.29 1847.1 1059.29 1847.75 1059.09 1848.35C1058.9 1848.96 1058.52 1849.48 1058 1849.86C1057.49 1850.23 1056.87 1850.43 1056.24 1850.43L1056.26 1850.39Z" fill="#FFFFFF"/>
<path d="M955.91 1912.29C955.169 1912.29 954.452 1912.02 953.898 1911.53C953.344 1911.04 952.992 1910.36 952.91 1909.62L948.91 1873.54C948.867 1873.15 948.902 1872.75 949.012 1872.37C949.123 1871.99 949.308 1871.63 949.556 1871.32C949.803 1871.01 950.11 1870.76 950.457 1870.56C950.805 1870.37 951.186 1870.25 951.58 1870.21C951.974 1870.17 952.373 1870.2 952.753 1870.31C953.134 1870.42 953.489 1870.61 953.798 1870.86C954.107 1871.1 954.365 1871.41 954.556 1871.76C954.746 1872.1 954.867 1872.49 954.91 1872.88L958.91 1908.96C958.953 1909.35 958.919 1909.75 958.808 1910.13C958.698 1910.51 958.514 1910.86 958.267 1911.17C958.019 1911.47 957.714 1911.73 957.368 1911.92C957.022 1912.11 956.642 1912.23 956.25 1912.27L955.91 1912.29Z" fill="#FFFFFF"/>
<path d="M236.76 1761C236.122 1761 235.502 1760.79 234.988 1760.42C234.474 1760.04 234.095 1759.51 233.904 1758.9C233.714 1758.29 233.722 1757.63 233.928 1757.03C234.134 1756.43 234.527 1755.91 235.05 1755.54L264.84 1734.79C265.493 1734.36 266.287 1734.2 267.054 1734.35C267.821 1734.5 268.5 1734.94 268.947 1735.58C269.393 1736.22 269.572 1737.01 269.446 1737.78C269.32 1738.55 268.898 1739.25 268.27 1739.71L238.48 1760.46C237.976 1760.81 237.375 1761 236.76 1761Z" fill="#FFFFFF"/>
<path d="M1580.61 2477C1579.97 2477 1579.35 2476.79 1578.84 2476.42C1578.32 2476.04 1577.94 2475.51 1577.75 2474.9C1577.56 2474.29 1577.57 2473.63 1577.78 2473.03C1577.98 2472.43 1578.38 2471.91 1578.9 2471.54L1608.69 2450.79C1609.34 2450.36 1610.14 2450.2 1610.9 2450.35C1611.67 2450.5 1612.35 2450.94 1612.8 2451.58C1613.24 2452.22 1613.42 2453.01 1613.3 2453.78C1613.17 2454.55 1612.75 2455.25 1612.12 2455.71L1582.33 2476.46C1581.83 2476.81 1581.23 2477 1580.61 2477Z" fill="#FFFFFF"/>
<path d="M2696.34 2018.13C2695.7 2018.13 2695.08 2017.93 2694.56 2017.55C2694.05 2017.17 2693.67 2016.64 2693.48 2016.03C2693.28 2015.42 2693.29 2014.77 2693.5 2014.16C2693.7 2013.56 2694.1 2013.04 2694.62 2012.67L2724.42 1991.92C2725.07 1991.51 2725.86 1991.38 2726.61 1991.53C2727.36 1991.69 2728.03 1992.13 2728.47 1992.76C2728.9 1993.39 2729.08 1994.16 2728.97 1994.92C2728.85 1995.68 2728.45 1996.37 2727.84 1996.84L2698.05 2017.59C2697.55 2017.94 2696.95 2018.13 2696.34 2018.13Z" fill="#FFFFFF"/>
<path d="M382.23 851C381.751 851.001 381.278 850.887 380.852 850.668C380.426 850.449 380.058 850.13 379.78 849.74L358.78 820.16C358.319 819.512 358.134 818.706 358.266 817.922C358.398 817.137 358.837 816.436 359.485 815.975C360.134 815.514 360.939 815.329 361.724 815.461C362.508 815.593 363.209 816.032 363.67 816.68L384.72 846.26C385.039 846.708 385.229 847.236 385.269 847.785C385.308 848.334 385.196 848.884 384.944 849.373C384.692 849.863 384.31 850.273 383.84 850.56C383.37 850.847 382.831 850.999 382.28 851H382.23Z" fill="#FFFFFF"/>
<path d="M2742.39 479.32C2741.69 479.325 2741.01 479.084 2740.46 478.638C2739.92 478.192 2739.55 477.569 2739.42 476.879C2739.29 476.189 2739.4 475.474 2739.75 474.86C2740.09 474.247 2740.63 473.772 2741.29 473.52L2775.08 460.25C2775.82 459.982 2776.63 460.011 2777.34 460.332C2778.05 460.653 2778.61 461.24 2778.9 461.968C2779.19 462.696 2779.18 463.507 2778.88 464.228C2778.57 464.95 2778 465.524 2777.28 465.83L2743.49 479.11C2743.14 479.247 2742.77 479.318 2742.39 479.32Z" fill="#FFFFFF"/>
<path d="M1198.25 540L1147.64 421.67L1058.35 518.32L1053.5 514.87L1112.69 404L1024.63 374.43L1025.4 368.59L1108.4 363.39L1084.04 311.07L1088.62 307.46L1135.62 344.67L1158.22 220.82H1164.12L1188.27 351.35L1290.63 308.83L1293.63 313.96L1199.26 388.04L1282.67 429.04L1280.8 434.68L1183.39 416.51L1204 538.36L1198.25 540ZM1149.52 410.8L1193.85 514.46L1176.05 409.04L1260.41 424.77L1188 389.22L1272.63 322.79L1183.69 359.74L1161.19 238L1139.72 355.6L1094.84 320L1117.57 368.81L1041.08 373.6L1121.33 400.55L1069.79 497.1L1149.52 410.8Z" fill="#FEDA00"/>
<path d="M2775.38 2406.47L2733.26 2308L2659 2388.44L2654.15 2384.99L2703.47 2292.56L2630.22 2267.96L2630.99 2262.13L2699.85 2257.82L2679.73 2214.63L2684.31 2211.01L2723.06 2241.69L2741.85 2138.69H2747.75L2767.88 2247.49L2853.1 2212.09L2856.1 2217.22L2777.63 2278.82L2846.84 2312.82L2844.97 2318.46L2763.97 2303.37L2781.1 2404.76L2775.38 2406.47ZM2735.14 2297.12L2770.98 2380.93L2756.63 2295.93L2824.52 2308.59L2766.36 2280L2835.09 2226.05L2763.29 2255.87L2744.77 2155.87L2727.12 2252.63L2690.47 2223.63L2708.96 2263.31L2646.62 2267.21L2712.06 2289.21L2670.39 2367.3L2735.14 2297.12Z" fill="#FFFFFF"/>
<path d="M364.41 1150.11L386.23 1268.11L479.23 1229.48L393 1297.15L470.09 1335.06L380.75 1318.4L399.47 1429.2L353.38 1321.44L272.13 1409.44L325.62 1309.21L245.26 1282.21L322.09 1277.4L299 1227.87L343.75 1263.31L364.41 1150.11Z" fill="#FFFFFF"/>
<path d="M2617.57 220.65C2617.07 220.65 2616.58 220.525 2616.14 220.286C2615.7 220.046 2615.32 219.701 2615.05 219.28L2595.3 188.82C2594.95 188.159 2594.86 187.391 2595.05 186.668C2595.23 185.944 2595.68 185.315 2596.31 184.906C2596.94 184.497 2597.69 184.336 2598.43 184.455C2599.17 184.574 2599.83 184.965 2600.3 185.55L2620.09 216C2620.3 216.331 2620.45 216.701 2620.52 217.088C2620.59 217.476 2620.59 217.874 2620.5 218.259C2620.42 218.645 2620.26 219.01 2620.04 219.335C2619.82 219.659 2619.53 219.936 2619.2 220.15C2618.72 220.471 2618.15 220.644 2617.57 220.65Z" fill="#FFFFFF"/>
<path d="M256.25 2572.08C255.749 2572.08 255.256 2571.95 254.816 2571.72C254.376 2571.48 254.002 2571.13 253.73 2570.71L234 2540.25C233.66 2539.59 233.577 2538.83 233.766 2538.11C233.956 2537.39 234.406 2536.77 235.028 2536.36C235.651 2535.96 236.401 2535.8 237.135 2535.91C237.869 2536.03 238.533 2536.41 239 2536.99L258.75 2567.45C259.043 2567.9 259.209 2568.43 259.229 2568.97C259.25 2569.51 259.125 2570.04 258.867 2570.51C258.609 2570.99 258.227 2571.38 257.764 2571.66C257.3 2571.93 256.77 2572.08 256.23 2572.08H256.25Z" fill="#FFFFFF"/>
<path d="M2892.29 2781.44H138.37C137.574 2781.44 136.811 2781.12 136.249 2780.56C135.686 2780 135.37 2779.24 135.37 2778.44C135.37 2777.64 135.686 2776.88 136.249 2776.32C136.811 2775.76 137.574 2775.44 138.37 2775.44H2892.29C2893.09 2775.44 2893.85 2775.76 2894.41 2776.32C2894.97 2776.88 2895.29 2777.64 2895.29 2778.44C2895.29 2779.24 2894.97 2780 2894.41 2780.56C2893.85 2781.12 2893.09 2781.44 2892.29 2781.44Z" fill="#FFFFFF"/>
<path d="M1284.27 2749.72L1282.06 2748.89L252.93 2360.35L253.23 2358.01C253.34 2357.11 264.91 2266.84 294.5 2158.87C311.89 2095.43 332.01 2038.35 354.31 1989.24C382.24 1927.71 413.7 1878.53 447.81 1843.06C479.98 1809.62 524.9 1777.57 581.32 1747.79C626.32 1724.02 678.83 1701.63 737.24 1681.25C795.878 1660.83 855.643 1643.8 916.24 1630.25C879.721 1580.03 846.119 1527.76 815.6 1473.68C785.24 1419.78 760.67 1368.31 742.6 1320.68C719.93 1261.04 707.4 1207.3 705.36 1160.94C703.19 1111.78 712.09 1054.08 731.79 989.45C747.51 937.85 770.13 881.72 799.01 822.61C848.15 722.03 899.13 646.61 899.63 645.88L900.96 643.93L1569.55 896.34L1567.4 902L903.25 651.24C894.96 663.71 848.89 734.12 804.33 825.34C775.6 884.15 753.11 940 737.48 991.26C717.99 1055.26 709.19 1112.26 711.32 1160.7C713.32 1206.4 725.73 1259.5 748.16 1318.53C766.16 1365.85 790.58 1417.03 820.79 1470.67C872.27 1562.07 923.33 1629.74 923.84 1630.41L926.72 1634.21L922.05 1635.21C921.22 1635.38 838.18 1652.42 739.14 1686.99C681.03 1707.28 628.86 1729.54 584.14 1753.17C528.29 1782.64 483.9 1814.3 452.14 1847.27C418.51 1882.27 387.44 1930.84 359.8 1991.73C337.64 2040.54 317.63 2097.3 300.32 2160.43C273.48 2258.34 261.52 2341.62 259.5 2356.43L1281.96 2742.43C1290.26 2729.96 1336.32 2659.55 1380.88 2568.33C1409.61 2509.52 1432.11 2453.7 1447.74 2402.41C1467.23 2338.41 1476.03 2281.41 1473.9 2232.97C1471.9 2187.26 1459.5 2134.16 1437.06 2075.14C1419.06 2027.82 1394.64 1976.63 1364.43 1923C1312.95 1831.6 1261.89 1763.93 1261.38 1763.26L1258.5 1759.46L1263.17 1758.46C1264 1758.29 1347.04 1741.25 1446.08 1706.68C1504.2 1686.39 1556.36 1664.12 1601.14 1640.5C1656.98 1611.03 1701.37 1579.36 1733.09 1546.39C1777.19 1500.54 1859.03 1384.16 1911.58 1119.92L1917.46 1121.08C1906.59 1175.75 1887.39 1257.91 1857.64 1338.87C1823.44 1432 1783 1503.21 1737.4 1550.6C1705.24 1584.04 1660.31 1616.1 1603.89 1645.87C1558.84 1669.64 1506.38 1692.03 1447.97 1712.42C1389.33 1732.84 1329.57 1749.87 1268.97 1763.42C1305.49 1813.64 1339.09 1865.92 1369.61 1920C1399.97 1973.91 1424.55 2025.38 1442.61 2073C1465.28 2132.63 1477.81 2186.38 1479.85 2232.74C1482.01 2281.9 1473.11 2339.6 1453.41 2404.23C1437.69 2455.83 1415.07 2511.96 1386.19 2571.07C1337.05 2671.65 1286.07 2747.07 1285.56 2747.8L1284.27 2749.72Z" fill="#FFFFFF"/>
<path d="M1797 1456.23L754.24 1336.13C745.93 1362.2 863.85 1546.13 923.84 1634.78L1059.38 1800.89C1059.38 1800.89 1145.8 1791.48 1259.38 1761.98C1636.91 1695.62 1775.48 1530.59 1797 1456.23Z" fill="#FFFFFF"/>
<path d="M234.54 2332L1316.8 2740.62C1318.89 2741.41 1320.8 2742.6 1322.43 2744.13C1324.06 2745.66 1325.37 2747.49 1326.29 2749.53C1327.21 2751.56 1327.72 2753.76 1327.79 2755.99C1327.86 2758.23 1327.49 2760.45 1326.7 2762.54C1325.91 2764.63 1324.72 2766.54 1323.19 2768.17C1321.66 2769.8 1319.83 2771.11 1317.79 2772.03C1315.76 2772.95 1313.56 2773.46 1311.33 2773.53C1309.09 2773.6 1306.87 2773.23 1304.78 2772.44L222.53 2363.85C220.441 2363.06 218.528 2361.87 216.9 2360.34C215.272 2358.81 213.961 2356.98 213.042 2354.95C212.123 2352.91 211.613 2350.72 211.542 2348.48C211.472 2346.25 211.841 2344.03 212.63 2341.94C213.415 2339.85 214.604 2337.93 216.13 2336.3C217.656 2334.67 219.489 2333.35 221.524 2332.43C223.559 2331.5 225.756 2330.99 227.99 2330.92C230.223 2330.84 232.449 2331.21 234.54 2332Z" fill="#FFFFFF"/>
<path d="M1562.8 878.85L880.42 621.24C878.326 620.425 876.091 620.033 873.844 620.088C871.597 620.142 869.384 620.641 867.331 621.557C865.279 622.472 863.428 623.785 861.887 625.42C860.345 627.055 859.143 628.98 858.35 631.082C857.556 633.185 857.188 635.424 857.266 637.67C857.343 639.916 857.865 642.124 858.802 644.167C859.738 646.21 861.071 648.047 862.722 649.572C864.372 651.096 866.309 652.279 868.42 653.05L1578.22 921.05L1562.8 878.85Z" fill="#FFFFFF"/>
<path d="M1866.26 1184.75C1695.8 1148.57 1593.14 981.51 1563 903C1569.09 917.79 1594.93 943.9 1655.8 999.56C1704.51 1044.09 1848.87 1099.86 1914.97 1122.18C1911.49 1137.26 1900.36 1183.41 1883.66 1247.42C1834.96 1410.92 1793.05 1464.12 1791.4 1464.12C1854.71 1375.71 1866.84 1240.41 1866.26 1184.75Z" fill="#FFFFFF"/>
<path d="M929.1 2090.13L260 2348.82C591.3 2484.98 1279.2 2741.72 1279.2 2741.72C1332.53 2678.99 1357.64 2614.65 1384.2 2558.89L929.1 2090.13Z" fill="#FFFFFF"/>
<path d="M2842.4 2723L2862.82 2778.44H2423.88L2403.49 2731.73L2388.84 2778.44H2317.24L2331.4 2574.08L2520 2553.79L2842.4 2723Z" fill="#FFFFFF"/>
<path d="M1662 2723L1641.58 2778.44H2080.52L2100.91 2731.73L2115.57 2778.44H2187.16L2173 2574.08L1984.39 2553.79L1662 2723Z" fill="#FFFFFF"/>
<path d="M2519.92 2581.86C2519.16 2581.86 2518.42 2581.57 2517.86 2581.05C2517.31 2580.53 2516.97 2579.81 2516.92 2579.05L2488.25 2128.73C2488.23 2128.34 2488.28 2127.94 2488.41 2127.57C2488.53 2127.19 2488.73 2126.85 2488.99 2126.55C2489.26 2126.26 2489.57 2126.01 2489.93 2125.84C2490.28 2125.67 2490.67 2125.56 2491.06 2125.54C2491.45 2125.52 2491.85 2125.57 2492.22 2125.7C2492.6 2125.82 2492.94 2126.02 2493.24 2126.28C2493.53 2126.55 2493.78 2126.86 2493.95 2127.22C2494.12 2127.57 2494.23 2127.96 2494.25 2128.35L2522.92 2578.67C2522.97 2579.46 2522.7 2580.24 2522.18 2580.84C2521.65 2581.43 2520.91 2581.8 2520.12 2581.85L2519.92 2581.86ZM2335.66 2581.86C2334.86 2581.86 2334.1 2581.54 2333.54 2580.98C2332.98 2580.42 2332.66 2579.66 2332.66 2578.86V2128.54C2332.66 2127.74 2332.98 2126.98 2333.54 2126.42C2334.1 2125.86 2334.86 2125.54 2335.66 2125.54C2336.46 2125.54 2337.22 2125.86 2337.78 2126.42C2338.34 2126.98 2338.66 2127.74 2338.66 2128.54V2578.86C2338.66 2579.66 2338.34 2580.42 2337.78 2580.98C2337.22 2581.54 2336.46 2581.86 2335.66 2581.86Z" fill="#FFFFFF"/>
<path d="M1984.52 2581.86H1984.33C1983.54 2581.81 1982.8 2581.45 1982.27 2580.85C1981.75 2580.25 1981.48 2579.47 1981.53 2578.68L2010.19 2128.36C2010.24 2127.56 2010.6 2126.82 2011.2 2126.29C2011.8 2125.77 2012.58 2125.5 2013.38 2125.55C2014.18 2125.6 2014.92 2125.96 2015.45 2126.56C2015.97 2127.16 2016.24 2127.94 2016.19 2128.74L1987.53 2579.06C1987.48 2579.82 1987.14 2580.54 1986.58 2581.06C1986.02 2581.58 1985.28 2581.86 1984.52 2581.86ZM2168.77 2581.86C2167.97 2581.86 2167.21 2581.54 2166.65 2580.98C2166.09 2580.42 2165.77 2579.66 2165.77 2578.86V2128.54C2165.77 2127.74 2166.09 2126.98 2166.65 2126.42C2167.21 2125.86 2167.97 2125.54 2168.77 2125.54C2169.57 2125.54 2170.33 2125.86 2170.89 2126.42C2171.45 2126.98 2171.77 2127.74 2171.77 2128.54V2578.86C2171.77 2579.66 2171.45 2580.42 2170.89 2580.98C2170.33 2581.54 2169.57 2581.86 2168.77 2581.86Z" fill="#FFFFFF"/>
<path d="M2094.34 2580.65H2094.15C2093.36 2580.6 2092.62 2580.24 2092.09 2579.64C2091.57 2579.04 2091.3 2578.26 2091.35 2577.47L2116.55 2186.84C2116.6 2186.04 2116.96 2185.3 2117.56 2184.77C2118.16 2184.25 2118.94 2183.98 2119.74 2184.03C2120.54 2184.08 2121.28 2184.44 2121.81 2185.04C2122.33 2185.64 2122.6 2186.42 2122.55 2187.22L2097.35 2577.85C2097.3 2578.61 2096.96 2579.33 2096.4 2579.85C2095.84 2580.37 2095.1 2580.65 2094.34 2580.65ZM2053.34 2580.65C2052.54 2580.65 2051.78 2580.33 2051.22 2579.77C2050.66 2579.21 2050.34 2578.45 2050.34 2577.65V2314.65C2050.34 2313.85 2050.66 2313.09 2051.22 2312.53C2051.78 2311.97 2052.54 2311.65 2053.34 2311.65C2054.14 2311.65 2054.9 2311.97 2055.46 2312.53C2056.02 2313.09 2056.34 2313.85 2056.34 2314.65V2577.65C2056.34 2578.44 2056.03 2579.19 2055.48 2579.75C2054.93 2580.32 2054.18 2580.64 2053.39 2580.65H2053.34ZM2467.59 2574.35C2466.79 2574.35 2466.03 2574.03 2465.47 2573.47C2464.91 2572.91 2464.59 2572.15 2464.59 2571.35V2204.35C2464.59 2203.55 2464.91 2202.79 2465.47 2202.23C2466.03 2201.67 2466.79 2201.35 2467.59 2201.35C2468.39 2201.35 2469.15 2201.67 2469.71 2202.23C2470.27 2202.79 2470.59 2203.55 2470.59 2204.35V2571.35C2470.59 2572.14 2470.28 2572.89 2469.73 2573.45C2469.18 2574.02 2468.43 2574.34 2467.64 2574.35H2467.59ZM2388.83 2517.64C2388.05 2517.64 2387.3 2517.34 2386.74 2516.79C2386.18 2516.24 2385.85 2515.5 2385.83 2514.72L2376.38 2168.2C2376.37 2167.81 2376.44 2167.41 2376.58 2167.05C2376.72 2166.68 2376.93 2166.34 2377.2 2166.06C2377.47 2165.77 2377.8 2165.54 2378.16 2165.38C2378.52 2165.22 2378.91 2165.13 2379.3 2165.12C2379.69 2165.11 2380.09 2165.18 2380.45 2165.32C2380.82 2165.46 2381.16 2165.67 2381.44 2165.94C2381.73 2166.21 2381.96 2166.54 2382.12 2166.9C2382.28 2167.26 2382.37 2167.65 2382.38 2168.04L2391.83 2514.56C2391.84 2514.95 2391.77 2515.35 2391.63 2515.71C2391.49 2516.08 2391.28 2516.42 2391.01 2516.71C2390.74 2516.99 2390.41 2517.22 2390.05 2517.38C2389.69 2517.54 2389.3 2517.63 2388.91 2517.64H2388.83Z" fill="#FFFFFF"/>
<path d="M2512.66 2568.52L2514.52 2557.77C2517.52 2540.62 2521.8 2523.73 2527.32 2507.22C2534.51 2486.32 2542.32 2472.93 2550.54 2467.44C2552.26 2466.18 2554.23 2465.3 2556.32 2464.85C2558.4 2464.4 2560.56 2464.39 2562.65 2464.83C2564.46 2465.14 2566.15 2465.93 2567.54 2467.13C2568.93 2468.32 2569.97 2469.88 2570.54 2471.62C2577.37 2492.16 2525.68 2553.33 2519.76 2560.23L2512.66 2568.52ZM2559.54 2470.52C2557.5 2470.58 2555.52 2471.26 2553.87 2472.46C2546.87 2477.14 2539.65 2489.85 2532.99 2509.21C2528.77 2521.76 2525.3 2534.56 2522.61 2547.53C2553.88 2509.45 2567.61 2481.82 2564.84 2473.53C2564.5 2472.53 2563.79 2471.25 2561.35 2470.7C2560.76 2470.56 2560.15 2470.49 2559.54 2470.49V2470.52Z" fill="#FFFFFF"/>
<path d="M1991.78 2568.52L1984.67 2560.23C1978.75 2553.33 1927.06 2492.16 1933.9 2471.62C1934.47 2469.88 1935.5 2468.33 1936.89 2467.13C1938.28 2465.93 1939.96 2465.14 1941.77 2464.83C1943.86 2464.39 1946.02 2464.4 1948.11 2464.85C1950.19 2465.3 1952.16 2466.18 1953.89 2467.44C1962.1 2472.93 1969.89 2486.32 1977.11 2507.22C1982.63 2523.73 1986.91 2540.62 1989.91 2557.77L1991.78 2568.52ZM1944.89 2470.52C1944.28 2470.52 1943.67 2470.58 1943.08 2470.72C1940.64 2471.26 1939.93 2472.52 1939.59 2473.54C1936.84 2481.82 1950.59 2509.46 1981.84 2547.54C1975.16 2515.42 1963.37 2481.02 1950.56 2472.45C1948.91 2471.24 1946.93 2470.56 1944.89 2470.49V2470.52Z" fill="#FFFFFF"/>
<path d="M2510.29 2566L2516.02 2556.71C2525.16 2541.9 2535.41 2527.8 2546.66 2514.52C2561.1 2497.79 2573.33 2488.26 2582.99 2486.21C2585.06 2485.68 2587.21 2485.59 2589.32 2485.95C2591.42 2486.3 2593.43 2487.1 2595.21 2488.28C2596.78 2489.23 2598.06 2490.59 2598.9 2492.22C2599.75 2493.85 2600.13 2495.68 2600.01 2497.51C2598.73 2519.12 2528.01 2556.72 2519.96 2560.94L2510.29 2566ZM2586.93 2491.77C2586.02 2491.78 2585.12 2491.88 2584.24 2492.08C2569.16 2495.28 2545.44 2522.85 2527.31 2550.19C2570.5 2526.44 2593.51 2505.86 2594.02 2497.19C2594.09 2496.1 2593.89 2494.68 2591.83 2493.27C2590.39 2492.27 2588.68 2491.75 2586.93 2491.77Z" fill="#FFFFFF"/>
<path d="M1994.15 2566L1984.47 2560.94C1976.41 2556.72 1905.69 2519.11 1904.47 2497.51C1904.35 2495.68 1904.73 2493.85 1905.58 2492.22C1906.42 2490.59 1907.7 2489.23 1909.27 2488.28C1911.05 2487.1 1913.06 2486.3 1915.16 2485.95C1917.27 2485.59 1919.42 2485.68 1921.49 2486.21C1931.15 2488.26 1943.38 2497.79 1957.82 2514.52C1969.07 2527.8 1979.32 2541.9 1988.46 2556.71L1994.15 2566ZM1917.5 2491.77C1915.75 2491.74 1914.04 2492.25 1912.6 2493.24C1910.54 2494.65 1910.34 2496.07 1910.41 2497.15C1910.92 2505.86 1933.93 2526.43 1977.12 2550.15C1958.99 2522.8 1935.26 2495.24 1920.19 2492.04C1919.3 2491.86 1918.4 2491.77 1917.5 2491.77Z" fill="#FFFFFF"/>
<path d="M2626.26 2564C2614.71 2564 2602.78 2559.74 2590.65 2551.27C2576.65 2541.46 2563.1 2537.82 2550.49 2540.45C2545.03 2541.67 2539.87 2543.96 2535.31 2547.18C2530.74 2550.4 2526.85 2554.49 2523.87 2559.22C2523.45 2559.9 2522.78 2560.38 2522.01 2560.57C2521.24 2560.76 2520.42 2560.63 2519.74 2560.21C2519.06 2559.79 2518.58 2559.12 2518.39 2558.35C2518.2 2557.58 2518.33 2556.76 2518.75 2556.08C2523.89 2547.7 2534.6 2537.64 2549.26 2534.58C2563.55 2531.58 2578.63 2535.58 2594.09 2546.35C2608.09 2556.13 2621.61 2559.77 2634.31 2557.19C2645.5 2554.75 2655.26 2547.98 2661.48 2538.37C2661.68 2538.02 2661.95 2537.71 2662.27 2537.46C2662.59 2537.21 2662.96 2537.03 2663.35 2536.93C2663.75 2536.83 2664.16 2536.81 2664.56 2536.88C2664.96 2536.94 2665.34 2537.08 2665.69 2537.3C2666.03 2537.51 2666.33 2537.79 2666.56 2538.13C2666.79 2538.46 2666.95 2538.84 2667.03 2539.24C2667.12 2539.63 2667.12 2540.04 2667.03 2540.44C2666.95 2540.84 2666.79 2541.22 2666.56 2541.55C2659.47 2552.53 2648.33 2560.27 2635.56 2563.07C2632.5 2563.69 2629.38 2564 2626.26 2564Z" fill="#FFFFFF"/>
<path d="M1878.17 2564C1875.06 2564 1871.96 2563.69 1868.92 2563.07C1856.13 2560.28 1844.97 2552.54 1837.87 2541.55C1837.49 2540.88 1837.39 2540.09 1837.58 2539.34C1837.77 2538.59 1838.24 2537.95 1838.89 2537.54C1839.55 2537.13 1840.33 2536.99 1841.09 2537.14C1841.84 2537.3 1842.51 2537.74 1842.95 2538.37C1849.17 2547.98 1858.93 2554.75 1870.12 2557.19C1882.81 2559.77 1896.34 2556.13 1910.34 2546.35C1925.8 2535.55 1940.88 2531.59 1955.18 2534.58C1961.43 2535.98 1967.34 2538.6 1972.58 2542.29C1977.81 2545.98 1982.26 2550.67 1985.68 2556.09C1986.06 2556.77 1986.16 2557.57 1985.96 2558.32C1985.77 2559.07 1985.28 2559.71 1984.62 2560.12C1983.96 2560.52 1983.17 2560.65 1982.41 2560.48C1981.65 2560.31 1980.99 2559.86 1980.56 2559.21C1977.58 2554.49 1973.69 2550.4 1969.13 2547.18C1964.56 2543.96 1959.4 2541.67 1953.95 2540.45C1941.34 2537.82 1927.83 2541.45 1913.78 2551.27C1901.65 2559.78 1889.72 2564 1878.17 2564Z" fill="#FFFFFF"/>
<path d="M2165 760.2C2157.94 760.229 2150.95 758.774 2144.49 755.93C2127.72 748.53 2115.9 732.03 2112.07 710.67L2111.92 709.86H2111.1C2106.47 709.81 2100.95 709.44 2097.1 709.14L2090.17 708.59L2095.33 703.92C2104.28 695.83 2110.27 685.26 2113.66 671.6C2115.17 665.54 2117.19 659.621 2119.72 653.91C2128.72 633.49 2143.29 617 2160.72 607.48C2178.15 597.96 2196.21 596.56 2211.72 603.42C2227.23 610.28 2238.42 624.64 2243.12 643.86C2247.82 663.08 2245.47 685.05 2236.46 705.46C2227.45 725.87 2212.89 742.37 2195.46 751.89C2185.35 757.41 2175 760.2 2165 760.2ZM2118 709.61C2121.48 728.98 2132 743.86 2146.94 750.44C2160.75 756.53 2176.99 755.17 2192.68 746.61C2208.98 737.71 2222.62 722.23 2231.1 703.02C2239.58 683.81 2241.82 663.3 2237.42 645.27C2233.17 627.9 2223.22 614.98 2209.42 608.89C2195.62 602.8 2179.42 604.16 2163.68 612.72C2147.38 621.62 2133.74 637.1 2125.26 656.31C2122.88 661.708 2120.96 667.302 2119.54 673.03C2116.54 685.36 2111.43 695.42 2104.15 703.58C2106.51 703.72 2108.97 703.82 2111.15 703.84L2116.95 703.91L2118 709.61Z" fill="#FFFFFF"/>
<path d="M2180.44 690.27C2150.6 664.65 2150.82 625.89 2154.09 612.15C2157.98 607.69 2170.73 598.97 2190.62 599.71C2215.49 600.64 2231.41 613.36 2243.2 646.34C2252.64 672.73 2234.2 710.55 2223.75 726.16C2210.43 726.9 2200.75 717.31 2197.53 712.42C2207.42 707.54 2219.29 693.83 2209.53 682.66C2199.77 671.49 2179.11 689.11 2180.44 690.27Z" fill="#FFFFFF"/>
<path d="M2283.78 555.43C2239.63 549.12 2216.94 585.73 2211.12 604.82L2215.79 614.57C2217.39 610.49 2237.91 604.57 2252.88 604.85C2298.3 605.78 2310.53 681.67 2316.01 702.58L2384.42 601.58C2369.27 588.83 2327.94 561.74 2283.78 555.43Z" fill="#FFFFFF"/>
<path d="M2130.1 668.66C2129.5 668.659 2128.92 668.481 2128.43 668.148C2127.93 667.814 2127.55 667.341 2127.32 666.788C2127.1 666.235 2127.04 665.628 2127.17 665.044C2127.29 664.46 2127.58 663.926 2128.01 663.51C2133.84 657.83 2148.68 650.39 2163.01 662.97C2163.58 663.501 2163.92 664.232 2163.96 665.008C2163.99 665.784 2163.73 666.545 2163.22 667.131C2162.71 667.717 2161.99 668.081 2161.22 668.148C2160.44 668.215 2159.67 667.979 2159.07 667.49C2154.22 663.25 2142.35 657.86 2132.14 667.81C2131.59 668.343 2130.86 668.647 2130.1 668.66Z" fill="#FFFFFF"/>
<path d="M2131 735.74C2130.62 735.74 2130.27 735.74 2129.95 735.74C2129.15 735.684 2128.41 735.315 2127.89 734.713C2127.37 734.111 2127.1 733.326 2127.16 732.53C2127.22 731.734 2127.59 730.993 2128.19 730.47C2128.79 729.947 2129.57 729.684 2130.37 729.74C2133.74 729.98 2141.1 728.62 2144.9 721.8C2145.08 721.437 2145.33 721.114 2145.64 720.852C2145.95 720.589 2146.31 720.391 2146.7 720.271C2147.08 720.151 2147.49 720.11 2147.89 720.152C2148.3 720.193 2148.69 720.316 2149.04 720.513C2149.4 720.71 2149.71 720.977 2149.96 721.297C2150.21 721.617 2150.39 721.985 2150.49 722.377C2150.59 722.769 2150.61 723.178 2150.55 723.579C2150.49 723.98 2150.35 724.365 2150.14 724.71C2145.27 733.5 2136.05 735.74 2131 735.74Z" fill="#FFFFFF"/>
<path d="M2131.6 685.91C2130.98 685.914 2130.38 685.726 2129.88 685.37C2129.56 685.144 2129.28 684.857 2129.07 684.525C2128.86 684.192 2128.71 683.821 2128.64 683.433C2128.57 683.045 2128.58 682.647 2128.67 682.262C2128.75 681.877 2128.91 681.513 2129.14 681.19C2132.14 676.93 2137.83 672.19 2144.86 671.61C2150.86 671.12 2156.71 673.69 2162.13 679.25C2162.69 679.82 2162.99 680.588 2162.98 681.384C2162.97 682.18 2162.65 682.939 2162.07 683.495C2161.5 684.051 2160.74 684.357 2159.94 684.347C2159.15 684.336 2158.39 684.01 2157.83 683.44C2153.72 679.22 2149.52 677.25 2145.34 677.59C2140.34 677.99 2136.16 681.59 2134.06 684.59C2133.79 684.993 2133.42 685.324 2132.99 685.554C2132.56 685.783 2132.09 685.906 2131.6 685.91Z" fill="#FFFFFF"/>
<path d="M2145.75 687.22C2148.96 687.22 2151.56 684.619 2151.56 681.41C2151.56 678.201 2148.96 675.6 2145.75 675.6C2142.54 675.6 2139.94 678.201 2139.94 681.41C2139.94 684.619 2142.54 687.22 2145.75 687.22Z" fill="#FFFFFF"/>
<path d="M2185 703.22C2184.48 703.22 2183.97 703.084 2183.52 702.826C2183.06 702.568 2182.69 702.197 2182.42 701.749C2182.16 701.301 2182.01 700.792 2182 700.271C2181.99 699.751 2182.12 699.237 2182.37 698.78C2184.63 694.66 2191.73 687.04 2202.54 687.78C2203.34 687.83 2204.08 688.195 2204.61 688.793C2205.13 689.391 2205.4 690.174 2205.35 690.97C2205.3 691.766 2204.94 692.509 2204.34 693.036C2203.74 693.563 2202.96 693.83 2202.16 693.78C2194.39 693.28 2189.25 698.78 2187.63 701.71C2187.37 702.173 2186.98 702.556 2186.52 702.822C2186.06 703.087 2185.53 703.225 2185 703.22Z" fill="#FFFFFF"/>
<path d="M2196.31 707.77C2195.82 707.773 2195.34 707.652 2194.91 707.42C2194.22 707.048 2193.7 706.422 2193.47 705.674C2193.24 704.927 2193.3 704.118 2193.66 703.42C2194.88 701.12 2195.25 699.17 2194.66 697.92C2194.48 697.53 2194.21 697.185 2193.88 696.907C2193.55 696.629 2193.17 696.425 2192.75 696.31C2192.35 696.223 2191.98 696.057 2191.65 695.821C2191.32 695.585 2191.04 695.285 2190.83 694.939C2190.62 694.593 2190.48 694.207 2190.42 693.806C2190.37 693.405 2190.39 692.996 2190.5 692.604C2190.6 692.213 2190.78 691.846 2191.03 691.527C2191.28 691.209 2191.6 690.944 2191.95 690.749C2192.31 690.554 2192.7 690.434 2193.1 690.394C2193.51 690.355 2193.91 690.398 2194.3 690.52C2195.59 690.868 2196.78 691.497 2197.79 692.361C2198.81 693.226 2199.61 694.305 2200.16 695.52C2201.07 697.61 2201.6 701.17 2198.92 706.22C2198.66 706.687 2198.28 707.077 2197.83 707.35C2197.37 707.622 2196.84 707.767 2196.31 707.77Z" fill="#FFFFFF"/>
<path d="M2227.3 805.66C2226.56 805.666 2225.85 805.401 2225.3 804.916C2224.75 804.431 2224.39 803.76 2224.3 803.03L2215.59 733.9C2215.54 733.506 2215.57 733.106 2215.67 732.723C2215.78 732.341 2215.96 731.982 2216.2 731.669C2216.45 731.355 2216.75 731.093 2217.1 730.897C2217.44 730.701 2217.82 730.574 2218.22 730.525C2218.61 730.476 2219.01 730.505 2219.39 730.61C2219.77 730.715 2220.13 730.895 2220.45 731.139C2220.76 731.382 2221.02 731.685 2221.22 732.031C2221.41 732.376 2221.54 732.756 2221.59 733.15L2230.3 802.28C2230.35 802.671 2230.32 803.069 2230.22 803.449C2230.11 803.829 2229.93 804.185 2229.69 804.496C2229.45 804.807 2229.15 805.068 2228.8 805.262C2228.46 805.457 2228.08 805.582 2227.69 805.63C2227.56 805.651 2227.43 805.661 2227.3 805.66ZM2161.1 793.39C2160.36 793.395 2159.64 793.126 2159.09 792.635C2158.54 792.144 2158.18 791.465 2158.1 790.73L2154.62 760.22C2154.53 759.424 2154.76 758.625 2155.26 757.999C2155.76 757.373 2156.48 756.97 2157.28 756.88C2158.08 756.79 2158.87 757.019 2159.5 757.518C2160.13 758.017 2160.53 758.744 2160.62 759.54L2164.1 790.05C2164.19 790.84 2163.96 791.634 2163.47 792.257C2162.97 792.879 2162.25 793.28 2161.46 793.37L2161.1 793.39Z" fill="#FFFFFF"/>
<path d="M2163.2 779.16L2156.2 755.58C2178.71 757.75 2201.25 748.25 2209.7 743.23C2192.74 765.89 2171.64 776.62 2163.2 779.16Z" fill="#FFFFFF"/>
<path d="M2176.91 949.17C2277.8 969.25 2305.17 883.88 2306.91 833.47L2227.84 803.47C2227.84 803.47 2215.05 825.78 2188.51 818.93C2161.97 812.08 2160.83 788.11 2160.83 788.11L2068.1 761.95C2061.43 814.91 2076 929.1 2176.91 949.17Z" fill="white"/>
<path d="M2205.63 955.18C2195.78 955.121 2185.97 954.092 2176.32 952.11C2131.5 943.2 2097.98 914.47 2079.38 869.03C2063.7 830.75 2061.72 788.42 2065.09 761.56L2065.53 758.1L2163.69 785.8L2163.8 787.96C2163.8 788.84 2165.25 809.83 2189.23 816.02C2213.21 822.21 2224.73 802.79 2225.23 801.96L2226.51 799.76L2228.89 800.65L2310 831.43L2309.93 833.58C2309.28 851.712 2305.78 869.628 2299.56 886.67C2291.77 907.5 2280.38 923.95 2265.71 935.57C2249.2 948.62 2229.08 955.18 2205.63 955.18ZM2070.63 765.78C2067.94 791.96 2070.34 831.16 2084.91 866.78C2093.16 886.93 2104.43 903.78 2118.41 916.72C2134.58 931.72 2154.41 941.67 2177.47 946.25C2211.97 953.12 2240.39 947.95 2261.92 930.89C2271.12 923.6 2301.06 895.35 2303.78 835.53L2229 807.1C2224.73 812.87 2211.05 827.83 2187.78 821.83C2164.32 815.77 2159.2 796.93 2158.13 790.45L2070.63 765.78Z" fill="#FFFFFF"/>
<path d="M2075.69 1169.86L2073 1169.31C1953.1 1144.5 1699.34 1067.18 1597.13 952.11C1564.41 914.48 1553.71 876.69 1565.31 839.77C1576.1 805.44 1604.1 779.58 1625.68 763.93C1653.93 743.45 1683.45 731.27 1701.68 726.7C1709.68 724.7 1752.68 714.7 1816.41 713.84C1887.15 712.93 1955.94 723.35 2020.88 744.84L2019 750.54C1954.69 729.27 1886.56 718.93 1816.49 719.85C1753.39 720.67 1711 730.55 1703.14 732.52C1685.48 736.96 1656.78 748.82 1629.22 768.8C1608.37 783.92 1581.36 808.8 1571.06 841.58C1560.12 876.37 1570.41 912.23 1601.65 948.16C1702.05 1061.16 1951.27 1137.63 2071.56 1162.88L2126.95 980.16L1774.8 865.05L1776.66 859.35L2134.37 976.27L2075.69 1169.86Z" fill="#FFFFFF"/>
<path d="M2567.22 1579.85L2471.93 1377.85L2473.19 1376.38L2612 1214.25L2386.51 1109.5L2389.03 1104.06L2621.65 1212.15L2479 1378.85L2569.31 1570.24C2632.25 1516.77 2756.59 1390.52 2796.16 1277.77C2816.05 1221.1 2811.6 1168.29 2782.95 1120.77C2759.9 1082.57 2727.43 1058.46 2713.56 1048.16C2711.45 1046.59 2709.78 1045.35 2708.56 1044.38C2592.74 951.44 2343.15 847.38 2340.64 846.33L2342.94 840.79C2345.46 841.79 2595.83 946.24 2712.32 1039.7C2713.43 1040.6 2715.07 1041.81 2717.13 1043.34C2731.28 1053.85 2764.42 1078.46 2788.07 1117.67C2817.7 1166.76 2822.32 1221.29 2801.81 1279.67C2761.18 1395.46 2632.53 1524.97 2570.18 1577.27L2567.22 1579.85Z" fill="#FFFFFF"/>
<path d="M2482.44 1650.77L2477.5 1647.37L2551.5 1539.92L2556.44 1543.32L2482.44 1650.77ZM2439.22 1443.06L2435.78 1438.14L2485.32 1403.39L2488.76 1408.31L2439.22 1443.06Z" fill="#FFFFFF"/>
<path d="M2009.45 739.74L2086.11 762.13C2070.42 811.03 2093.32 913.62 2157.69 933.6C2260.89 965.6 2288.69 868.55 2288.14 821.88L2345.49 839.88L2582.2 2148.38H1824.1L1941.74 1136L2076.19 1171.33L2096.28 1104.84L2128.35 1125.09C2136.06 1151.85 2153.35 1207.76 2160.88 1217.21C2173.35 1231.82 2178.43 1219.72 2179.42 1211.84L2170.02 1159.46C2178.52 1175.04 2198.02 1208.4 2207.89 1217.21C2217.76 1226.02 2222.21 1215.15 2223.2 1208.62C2235.44 1217.86 2244.2 1204.77 2247.1 1197.07C2258.49 1204.16 2262.1 1194.07 2262.41 1188.2L2231.25 1099L2202.79 1080.94C2207.98 1080.94 2226.36 1085.04 2237.97 1085.04C2261.17 1083.1 2250.68 1067.4 2242.53 1059.79L2128.35 998.62L2135.25 975.79L1992.25 928.2L2009.45 739.74Z" fill="#FEDA00"/>
<path d="M2309.52 2137.41H2309.38C2308.99 2137.39 2308.6 2137.3 2308.24 2137.13C2307.88 2136.96 2307.56 2136.72 2307.3 2136.43C2307.03 2136.14 2306.83 2135.8 2306.69 2135.43C2306.56 2135.06 2306.5 2134.66 2306.52 2134.27L2344.18 1350.59H1922.43C1921.63 1350.59 1920.87 1350.27 1920.31 1349.71C1919.75 1349.15 1919.43 1348.39 1919.43 1347.59C1919.43 1346.79 1919.75 1346.03 1920.31 1345.47C1920.87 1344.91 1921.63 1344.59 1922.43 1344.59H2423.06C2423.86 1344.59 2424.62 1344.91 2425.18 1345.47C2425.74 1346.03 2426.06 1346.79 2426.06 1347.59C2426.06 1348.39 2425.74 1349.15 2425.18 1349.71C2424.62 1350.27 2423.86 1350.59 2423.06 1350.59H2350.19L2312.52 2134.59C2312.47 2135.35 2312.14 2136.07 2311.58 2136.6C2311.02 2137.12 2310.29 2137.41 2309.52 2137.41Z" fill="#FFFFFF"/>
<path d="M2030.75 1554.23C2017.14 1554.42 2003.9 1549.79 1993.37 1541.16C1965.59 1518.57 1957.25 1472.39 1954.75 1446.87C1953.58 1434.97 1953.21 1423.01 1953.63 1411.07L1953.75 1408.19H2133.69L2133.58 1411.3C2133.07 1423.37 2131.56 1435.37 2129.07 1447.19C2125.22 1465.76 2117.31 1492.57 2101.47 1514.87C2085.05 1537.97 2063.9 1551.07 2038.6 1553.8C2035.99 1554.09 2033.37 1554.23 2030.75 1554.23ZM1961.07 1449.58C1963.85 1474.67 1972.19 1516.21 1997.16 1536.51C2008.49 1545.73 2022.22 1549.51 2037.96 1547.84C2061.48 1545.29 2081.2 1533.03 2096.57 1511.4C2110.83 1491.34 2118.44 1467.33 2122.41 1449.58H1961.07ZM1960.48 1443.58H2123.67C2125.59 1433.88 2126.85 1424.06 2127.44 1414.19H1959.53C1959.3 1424 1959.62 1433.81 1960.48 1443.58Z" fill="#FFFFFF"/>
<path d="M2172.49 1228C2169.14 1228 2164.24 1226.17 2158.68 1218.3C2151.97 1210.1 2132.08 1142.21 2128.6 1130.21L2091.23 1104.78L2123.69 996.7L2235.35 1056.07C2247.85 1062.59 2254.61 1071.86 2252.15 1079.16C2251.1 1082.29 2246.7 1089.26 2228.67 1086.16H2228.47C2222.61 1084.71 2216.83 1082.95 2211.15 1080.89L2233.15 1097.19L2264.03 1181.73C2266.36 1191.55 2264.44 1199.04 2258.9 1201.73C2255.04 1203.64 2250.39 1202.73 2245.76 1199.24C2245.25 1205.47 2242.66 1211.39 2237.76 1213.79C2234.56 1215.36 2229.76 1215.79 2223.45 1210.79C2222.79 1216.38 2219.94 1221.21 2215.64 1223.12C2212.73 1224.41 2205.08 1226 2197 1212.91C2195.69 1210.8 2184.32 1189.71 2174.58 1171.12L2182.53 1213.74V1214.02C2182.53 1220.91 2179.67 1226.09 2175.07 1227.54C2174.24 1227.82 2173.37 1227.98 2172.49 1228ZM2098.25 1102.3L2133.76 1126.47L2134.06 1127.47C2145.27 1166.26 2159.33 1209.93 2163.31 1214.47L2163.52 1214.73C2167.85 1220.9 2171.42 1222.46 2173.31 1221.86C2175.2 1221.26 2176.52 1218.25 2176.58 1214.33L2164.98 1152.17L2170.61 1150.27C2180.61 1170.19 2200.61 1207.39 2202.15 1209.79C2206.04 1216.09 2210.15 1219.04 2213.25 1217.68C2216.51 1216.23 2218.81 1210.01 2217.03 1203.84L2222.21 1201.09C2227.35 1207.26 2232.08 1209.92 2235.21 1208.4C2238.96 1206.56 2240.93 1199.04 2239.43 1192.31L2244.69 1189.77C2249.62 1195.84 2254.09 1197.45 2256.32 1196.35C2258.55 1195.25 2260.04 1190.77 2258.32 1183.25L2228.22 1100.92L2189.81 1072.47L2192.26 1067.14C2194.7 1067.88 2197.1 1068.78 2199.43 1069.83C2206.3 1072.64 2217.78 1077.35 2229.83 1080.27C2240.77 1082.11 2245.66 1079.79 2246.53 1077.27C2247.72 1073.71 2243.26 1066.94 2232.63 1061.41L2127.42 1005.47L2098.25 1102.3Z" fill="#FFFFFF"/>
<path d="M2122.61 1143.21L2158.91 1216.36L2131.28 1127.5L2093.89 1103.66L2074.12 1167.32L1941.91 1134.54L1935.68 1189.81L2080.08 1214.46L2096.87 1127.46L2122.61 1143.21Z" fill="#FFFFFF"/>
<path d="M2220.09 1206.68C2219.48 1206.68 2218.89 1206.5 2218.39 1206.15C2217.89 1205.81 2217.51 1205.33 2217.29 1204.76L2193.72 1143.59C2193.43 1142.85 2193.45 1142.02 2193.78 1141.29C2194.1 1140.57 2194.7 1140 2195.44 1139.71C2196.18 1139.42 2197.01 1139.44 2197.74 1139.77C2198.46 1140.09 2199.03 1140.69 2199.32 1141.43L2222.89 1202.6C2223.03 1202.97 2223.1 1203.36 2223.09 1203.75C2223.08 1204.15 2222.99 1204.54 2222.83 1204.9C2222.67 1205.26 2222.45 1205.58 2222.16 1205.85C2221.87 1206.13 2221.54 1206.34 2221.17 1206.48C2220.83 1206.61 2220.46 1206.68 2220.09 1206.68ZM2243.43 1198.04C2242.82 1198.04 2242.23 1197.85 2241.73 1197.51C2241.23 1197.17 2240.85 1196.68 2240.63 1196.11L2216.39 1132.69C2216.14 1131.96 2216.19 1131.15 2216.52 1130.45C2216.85 1129.75 2217.44 1129.21 2218.16 1128.93C2218.89 1128.66 2219.69 1128.67 2220.4 1128.97C2221.12 1129.27 2221.68 1129.84 2221.99 1130.55L2246.23 1193.97C2246.51 1194.71 2246.49 1195.54 2246.17 1196.26C2245.84 1196.99 2245.24 1197.56 2244.5 1197.84C2244.16 1197.96 2243.79 1198.02 2243.43 1198V1198.04Z" fill="#FFFFFF"/>
</svg>
