<svg width="3000" height="3000" viewBox="0 0 3000 3000" fill="none" xmlns="http://www.w3.org/2000/svg">
<path d="M2892.29 2781.44H138.37C137.574 2781.44 136.811 2781.12 136.249 2780.56C135.686 2780 135.37 2779.24 135.37 2778.44C135.37 2777.64 135.686 2776.88 136.249 2776.32C136.811 2775.76 137.574 2775.44 138.37 2775.44H2892.29C2893.09 2775.44 2893.85 2775.76 2894.41 2776.32C2894.97 2776.88 2895.29 2777.64 2895.29 2778.44C2895.29 2779.24 2894.97 2780 2894.41 2780.56C2893.85 2781.12 2893.09 2781.44 2892.29 2781.44Z" fill="black"/>
<path d="M2802 1556.1C2800.35 1556.1 2798.74 1555.61 2797.37 1554.7C2796 1553.78 2794.93 1552.48 2794.3 1550.96C2793.67 1549.44 2793.51 1547.76 2793.83 1546.14C2794.15 1544.53 2794.94 1543.04 2796.11 1541.88C2797.27 1540.71 2798.76 1539.92 2800.37 1539.6C2801.99 1539.28 2803.67 1539.44 2805.19 1540.07C2806.71 1540.7 2808.01 1541.77 2808.93 1543.14C2809.84 1544.51 2810.33 1546.12 2810.33 1547.77C2810.33 1549.98 2809.45 1552.1 2807.89 1553.66C2806.33 1555.22 2804.21 1556.1 2802 1556.1ZM2802 1545.44C2801.54 1545.44 2801.09 1545.58 2800.71 1545.83C2800.32 1546.09 2800.02 1546.45 2799.85 1546.88C2799.67 1547.3 2799.62 1547.77 2799.71 1548.22C2799.8 1548.68 2800.03 1549.09 2800.35 1549.42C2800.68 1549.74 2801.09 1549.97 2801.55 1550.06C2802 1550.14 2802.47 1550.1 2802.89 1549.92C2803.32 1549.75 2803.68 1549.45 2803.94 1549.06C2804.19 1548.68 2804.33 1548.23 2804.33 1547.77C2804.33 1547.15 2804.08 1546.56 2803.65 1546.12C2803.21 1545.69 2802.62 1545.44 2802 1545.44Z" fill="black"/>
<path d="M684.48 1361.58C682.833 1361.58 681.223 1361.09 679.855 1360.17C678.486 1359.25 677.42 1357.95 676.791 1356.43C676.162 1354.91 675.999 1353.23 676.321 1351.62C676.644 1350 677.438 1348.52 678.603 1347.36C679.769 1346.19 681.253 1345.4 682.869 1345.08C684.484 1344.76 686.159 1344.92 687.68 1345.55C689.202 1346.19 690.502 1347.25 691.417 1348.62C692.332 1349.99 692.82 1351.6 692.82 1353.25C692.817 1355.46 691.937 1357.58 690.374 1359.14C688.81 1360.7 686.69 1361.58 684.48 1361.58ZM684.48 1350.92C684.02 1350.92 683.57 1351.06 683.188 1351.32C682.806 1351.57 682.509 1351.94 682.335 1352.37C682.16 1352.79 682.115 1353.26 682.206 1353.71C682.297 1354.16 682.52 1354.58 682.846 1354.9C683.172 1355.23 683.587 1355.45 684.039 1355.54C684.491 1355.62 684.959 1355.58 685.384 1355.4C685.809 1355.22 686.172 1354.93 686.428 1354.54C686.684 1354.16 686.82 1353.71 686.82 1353.25C686.817 1352.63 686.57 1352.04 686.131 1351.6C685.693 1351.17 685.099 1350.92 684.48 1350.92Z" fill="black"/>
<path d="M492.4 2243.1C490.752 2243.1 489.142 2242.61 487.772 2241.7C486.402 2240.78 485.335 2239.48 484.704 2237.96C484.074 2236.44 483.909 2234.76 484.23 2233.14C484.551 2231.53 485.345 2230.04 486.51 2228.88C487.675 2227.71 489.159 2226.92 490.775 2226.6C492.391 2226.28 494.066 2226.44 495.588 2227.07C497.11 2227.7 498.411 2228.77 499.326 2230.14C500.241 2231.51 500.73 2233.12 500.73 2234.77C500.727 2236.98 499.849 2239.1 498.287 2240.66C496.726 2242.22 494.608 2243.1 492.4 2243.1ZM492.4 2232.44C491.939 2232.44 491.489 2232.58 491.106 2232.83C490.722 2233.09 490.424 2233.45 490.247 2233.88C490.071 2234.3 490.025 2234.77 490.115 2235.22C490.205 2235.68 490.427 2236.09 490.752 2236.42C491.078 2236.74 491.493 2236.97 491.945 2237.06C492.397 2237.15 492.866 2237.1 493.292 2236.92C493.717 2236.75 494.081 2236.45 494.337 2236.06C494.593 2235.68 494.73 2235.23 494.73 2234.77C494.73 2234.15 494.485 2233.56 494.048 2233.12C493.611 2232.69 493.018 2232.44 492.4 2232.44Z" fill="black"/>
<path d="M501.73 362.38C500.08 362.382 498.467 361.894 497.094 360.979C495.721 360.064 494.651 358.762 494.018 357.238C493.385 355.715 493.218 354.038 493.539 352.419C493.86 350.801 494.653 349.314 495.819 348.146C496.985 346.979 498.471 346.184 500.089 345.861C501.707 345.538 503.385 345.703 504.909 346.334C506.434 346.965 507.737 348.034 508.654 349.405C509.571 350.777 510.06 352.39 510.06 354.04C510.057 356.249 509.179 358.368 507.618 359.931C506.057 361.494 503.939 362.375 501.73 362.38ZM501.73 351.71C501.266 351.708 500.813 351.844 500.426 352.1C500.04 352.356 499.738 352.722 499.56 353.15C499.382 353.578 499.335 354.049 499.425 354.504C499.514 354.959 499.738 355.377 500.065 355.705C500.393 356.032 500.811 356.255 501.266 356.345C501.721 356.435 502.192 356.388 502.62 356.21C503.048 356.032 503.413 355.73 503.67 355.344C503.926 354.957 504.062 354.504 504.06 354.04C504.057 353.423 503.811 352.832 503.375 352.395C502.938 351.959 502.347 351.713 501.73 351.71Z" fill="black"/>
<path d="M1965.78 628.27C1964.13 628.27 1962.52 627.781 1961.15 626.866C1959.78 625.951 1958.71 624.65 1958.08 623.128C1957.45 621.606 1957.29 619.931 1957.61 618.315C1957.93 616.699 1958.72 615.215 1959.89 614.05C1961.05 612.885 1962.54 612.091 1964.16 611.77C1965.77 611.449 1967.45 611.614 1968.97 612.244C1970.49 612.875 1971.79 613.942 1972.71 615.312C1973.62 616.682 1974.11 618.292 1974.11 619.94C1974.11 622.148 1973.23 624.266 1971.67 625.827C1970.11 627.389 1967.99 628.267 1965.78 628.27ZM1965.78 617.61C1965.32 617.61 1964.87 617.747 1964.49 618.003C1964.1 618.259 1963.8 618.623 1963.63 619.048C1963.45 619.474 1963.41 619.943 1963.49 620.395C1963.58 620.846 1963.81 621.262 1964.13 621.588C1964.46 621.913 1964.87 622.135 1965.33 622.225C1965.78 622.315 1966.25 622.269 1966.67 622.093C1967.1 621.916 1967.46 621.618 1967.72 621.234C1967.97 620.851 1968.11 620.401 1968.11 619.94C1968.11 619.322 1967.86 618.729 1967.43 618.292C1966.99 617.855 1966.4 617.61 1965.78 617.61Z" fill="black"/>
<path d="M1272.21 2050C1270.56 2050 1268.95 2049.51 1267.58 2048.6C1266.21 2047.68 1265.14 2046.38 1264.51 2044.86C1263.88 2043.34 1263.72 2041.66 1264.04 2040.04C1264.36 2038.43 1265.15 2036.94 1266.32 2035.78C1267.48 2034.61 1268.97 2033.82 1270.58 2033.5C1272.2 2033.18 1273.88 2033.34 1275.4 2033.97C1276.92 2034.6 1278.22 2035.67 1279.14 2037.04C1280.05 2038.41 1280.54 2040.02 1280.54 2041.67C1280.54 2043.88 1279.66 2046 1278.1 2047.56C1276.54 2049.12 1274.42 2050 1272.21 2050ZM1272.21 2039.34C1271.75 2039.34 1271.3 2039.48 1270.92 2039.73C1270.53 2039.99 1270.23 2040.35 1270.06 2040.78C1269.88 2041.2 1269.83 2041.67 1269.92 2042.12C1270.01 2042.58 1270.24 2042.99 1270.56 2043.32C1270.89 2043.64 1271.3 2043.87 1271.76 2043.96C1272.21 2044.04 1272.68 2044 1273.1 2043.82C1273.53 2043.65 1273.89 2043.35 1274.15 2042.96C1274.4 2042.58 1274.54 2042.13 1274.54 2041.67C1274.55 2041.36 1274.49 2041.05 1274.38 2040.76C1274.26 2040.47 1274.09 2040.21 1273.88 2039.99C1273.66 2039.77 1273.4 2039.59 1273.11 2039.47C1272.83 2039.35 1272.52 2039.29 1272.21 2039.29V2039.34Z" fill="black"/>
<path d="M2346 1346.92C2345.37 1346.92 2344.75 1346.72 2344.24 1346.35L2314.83 1325C2314.19 1324.53 2313.75 1323.83 2313.63 1323.04C2313.5 1322.26 2313.69 1321.45 2314.16 1320.81C2314.63 1320.17 2315.33 1319.73 2316.12 1319.61C2316.9 1319.48 2317.71 1319.67 2318.35 1320.14L2347.71 1341.49C2348.22 1341.86 2348.61 1342.39 2348.8 1342.99C2349 1343.59 2349 1344.24 2348.8 1344.85C2348.61 1345.45 2348.23 1345.97 2347.71 1346.35C2347.2 1346.72 2346.58 1346.92 2345.95 1346.92H2346Z" fill="black"/>
<path d="M1604.9 1861.07C1604.27 1861.07 1603.65 1860.87 1603.14 1860.5L1573.78 1839.15C1573.46 1838.92 1573.19 1838.63 1572.98 1838.29C1572.78 1837.96 1572.64 1837.58 1572.58 1837.19C1572.52 1836.8 1572.53 1836.41 1572.62 1836.02C1572.71 1835.64 1572.88 1835.28 1573.11 1834.96C1573.34 1834.64 1573.63 1834.37 1573.97 1834.16C1574.3 1833.96 1574.68 1833.82 1575.07 1833.76C1575.46 1833.7 1575.85 1833.71 1576.24 1833.8C1576.62 1833.89 1576.98 1834.06 1577.3 1834.29L1606.67 1855.64C1607.18 1856.01 1607.57 1856.54 1607.76 1857.14C1607.96 1857.75 1607.96 1858.4 1607.76 1859C1607.57 1859.6 1607.18 1860.13 1606.67 1860.5C1606.15 1860.87 1605.53 1861.07 1604.9 1861.07Z" fill="black"/>
<path d="M1540.32 536.58C1539.69 536.58 1539.07 536.381 1538.56 536.01L1509.2 514.66C1508.88 514.429 1508.61 514.137 1508.4 513.801C1508.2 513.466 1508.06 513.093 1508 512.704C1507.93 512.315 1507.95 511.917 1508.04 511.534C1508.13 511.151 1508.3 510.789 1508.53 510.47C1508.76 510.151 1509.05 509.88 1509.39 509.674C1509.72 509.468 1510.1 509.329 1510.49 509.267C1510.88 509.205 1511.27 509.22 1511.66 509.311C1512.04 509.403 1512.4 509.569 1512.72 509.8L1542.08 531.16C1542.59 531.533 1542.97 532.057 1543.16 532.658C1543.36 533.259 1543.36 533.906 1543.16 534.507C1542.97 535.107 1542.59 535.631 1542.08 536.003C1541.57 536.375 1540.95 536.577 1540.32 536.58Z" fill="black"/>
<path d="M1498.86 214.31C1498.2 214.312 1497.55 214.093 1497.02 213.687C1496.49 213.282 1496.12 212.712 1495.95 212.069C1495.78 211.426 1495.83 210.745 1496.09 210.133C1496.35 209.522 1496.81 209.014 1497.39 208.69L1529 190.9C1529.69 190.51 1530.52 190.412 1531.28 190.628C1532.05 190.844 1532.7 191.355 1533.09 192.05C1533.48 192.745 1533.58 193.566 1533.36 194.333C1533.15 195.1 1532.63 195.75 1531.94 196.14L1500.3 213.92C1499.86 214.174 1499.37 214.308 1498.86 214.31Z" fill="black"/>
<path d="M1092.44 2623C1091.81 2623 1091.19 2622.8 1090.68 2622.43L1061.32 2601.08C1060.68 2600.61 1060.24 2599.91 1060.12 2599.12C1059.99 2598.34 1060.18 2597.53 1060.65 2596.89C1061.12 2596.25 1061.82 2595.81 1062.61 2595.69C1063.39 2595.56 1064.2 2595.75 1064.84 2596.22L1094.2 2617.57C1094.71 2617.94 1095.1 2618.47 1095.29 2619.07C1095.49 2619.67 1095.49 2620.32 1095.29 2620.92C1095.1 2621.53 1094.72 2622.05 1094.2 2622.43C1093.69 2622.8 1093.07 2623 1092.44 2623Z" fill="black"/>
<path d="M236.76 1761C236.122 1761 235.502 1760.79 234.988 1760.42C234.474 1760.04 234.095 1759.51 233.904 1758.9C233.714 1758.29 233.722 1757.63 233.928 1757.03C234.134 1756.43 234.527 1755.91 235.05 1755.54L264.84 1734.79C265.493 1734.36 266.287 1734.2 267.054 1734.35C267.821 1734.5 268.5 1734.94 268.947 1735.58C269.393 1736.22 269.572 1737.01 269.446 1737.78C269.32 1738.55 268.898 1739.25 268.27 1739.71L238.48 1760.46C237.976 1760.81 237.375 1761 236.76 1761Z" fill="black"/>
<path d="M1580.61 2477C1579.97 2477 1579.35 2476.79 1578.84 2476.42C1578.32 2476.04 1577.94 2475.51 1577.75 2474.9C1577.56 2474.29 1577.57 2473.63 1577.78 2473.03C1577.98 2472.43 1578.38 2471.91 1578.9 2471.54L1608.69 2450.79C1609.34 2450.36 1610.14 2450.2 1610.9 2450.35C1611.67 2450.5 1612.35 2450.94 1612.8 2451.58C1613.24 2452.22 1613.42 2453.01 1613.3 2453.78C1613.17 2454.55 1612.75 2455.25 1612.12 2455.71L1582.33 2476.46C1581.83 2476.81 1581.23 2477 1580.61 2477Z" fill="black"/>
<path d="M2696.34 2018.13C2695.7 2018.13 2695.08 2017.93 2694.56 2017.55C2694.05 2017.17 2693.67 2016.64 2693.48 2016.03C2693.28 2015.42 2693.29 2014.77 2693.5 2014.16C2693.7 2013.56 2694.1 2013.04 2694.62 2012.67L2724.42 1991.92C2725.07 1991.51 2725.86 1991.38 2726.61 1991.53C2727.36 1991.69 2728.03 1992.13 2728.47 1992.76C2728.9 1993.39 2729.08 1994.16 2728.97 1994.92C2728.85 1995.68 2728.45 1996.37 2727.84 1996.84L2698.05 2017.59C2697.55 2017.94 2696.95 2018.13 2696.34 2018.13Z" fill="black"/>
<path d="M307.38 702.18C306.901 702.181 306.428 702.067 306.002 701.848C305.576 701.629 305.208 701.31 304.93 700.92L283.88 671.35C283.652 671.029 283.489 670.666 283.4 670.282C283.312 669.898 283.3 669.5 283.366 669.111C283.431 668.723 283.573 668.351 283.782 668.017C283.991 667.683 284.264 667.393 284.585 667.165C284.906 666.936 285.269 666.773 285.653 666.685C286.037 666.597 286.435 666.585 286.824 666.651C287.212 666.716 287.584 666.858 287.918 667.067C288.252 667.276 288.542 667.549 288.77 667.87L309.82 697.45C310.281 698.097 310.466 698.901 310.334 699.685C310.203 700.468 309.766 701.168 309.12 701.63C308.611 701.99 308.003 702.182 307.38 702.18Z" fill="black"/>
<path d="M2609.44 827.3C2608.74 827.305 2608.06 827.064 2607.51 826.618C2606.97 826.172 2606.6 825.549 2606.47 824.859C2606.34 824.169 2606.45 823.454 2606.8 822.84C2607.14 822.227 2607.68 821.752 2608.34 821.5L2642.13 808.23C2642.87 807.962 2643.68 807.991 2644.39 808.312C2645.1 808.633 2645.66 809.22 2645.95 809.948C2646.24 810.676 2646.23 811.487 2645.93 812.208C2645.62 812.93 2645.05 813.504 2644.33 813.81L2610.54 827.09C2610.19 827.227 2609.82 827.298 2609.44 827.3Z" fill="black"/>
<path d="M2716.09 396.84C2715.59 396.84 2715.1 396.715 2714.66 396.476C2714.22 396.236 2713.84 395.891 2713.57 395.47L2693.82 365C2693.47 364.339 2693.38 363.572 2693.57 362.848C2693.75 362.124 2694.2 361.495 2694.83 361.086C2695.46 360.677 2696.21 360.516 2696.95 360.635C2697.69 360.754 2698.35 361.145 2698.82 361.73L2718.57 392.2C2719 392.868 2719.15 393.678 2718.98 394.454C2718.81 395.23 2718.35 395.908 2717.68 396.34C2717.21 396.654 2716.66 396.827 2716.09 396.84Z" fill="black"/>
<path d="M256.25 2572.08C255.749 2572.08 255.256 2571.95 254.816 2571.72C254.375 2571.48 254.002 2571.13 253.73 2570.71L234 2540.25C233.66 2539.59 233.576 2538.83 233.766 2538.11C233.956 2537.39 234.406 2536.77 235.028 2536.36C235.65 2535.96 236.401 2535.8 237.135 2535.91C237.868 2536.03 238.533 2536.41 239 2536.99L258.75 2567.45C259.043 2567.9 259.209 2568.43 259.229 2568.97C259.25 2569.51 259.124 2570.04 258.866 2570.51C258.608 2570.99 258.227 2571.38 257.763 2571.66C257.299 2571.93 256.77 2572.08 256.23 2572.08H256.25Z" fill="black"/>
<path d="M330.1 1783.86L300.6 1714.86L248.52 1771.23L243.67 1767.78L278.36 1702.78L227.1 1685.6L227.87 1679.77L275.7 1676.77L261.89 1647.12L266.47 1643.5L292.97 1664.5L306.11 1592.5H312L326.17 1669L385.94 1644.16L388.94 1649.29L334.06 1692.36L382.19 1716L380.31 1721.64L323.82 1711.11L335.82 1782.17L330.1 1783.86ZM302.48 1704L325.71 1758.31L316.47 1703.63L359.92 1711.73L322.86 1693.51L368 1658.1L321.64 1677.36L309.1 1609.6L297.1 1675.39L272.7 1656.07L284.87 1682.21L243.57 1684.8L287 1699.38L260 1750L302.48 1704Z" fill="black"/>
<path d="M2722 2057.62L2742.81 2170.06L2831.45 2133.23L2749.22 2197.78L2822.71 2233.93L2737.55 2218.05L2755.39 2323.67L2711.45 2220.94L2634 2304.79L2685 2209.24L2608.39 2183.51L2681.63 2178.92L2659.63 2131.74L2702.29 2165.53L2722 2057.62Z" fill="black"/>
<path d="M981 339.73L1002.82 457.73L1095.82 419.1L1009.56 486.82L1086.65 524.73L997.34 508L1016.05 618.8L970 511.06L888.71 599L942.2 498.78L861.84 471.78L938.67 467L915.67 417.51L960.42 452.95L981 339.73Z" fill="black"/>
<path d="M917 990.12H362L362.55 986.65C366.26 963.65 374.2 949.91 386.18 945.94C397.18 942.28 409.43 948 418.18 955.37C453 883.2 490.09 847.25 528.53 848.45C572.09 849.84 608.18 899.64 628.37 947.69C644.71 923 662.74 910.59 682.05 910.78C705.81 911.01 726.46 930.7 738.53 949.98C774.53 926.79 809.23 919.18 841.59 927.36C877.33 936.36 902.77 963.43 914.66 985.71L917 990.12ZM369.09 984.12H906.86C894.73 963.94 871.64 941.12 840.11 933.12C808.58 925.12 774.74 933.12 739.23 956.64L736.59 958.39L734.99 955.66C724 937 704.35 917 682 916.78H681.63C663.47 916.78 646.22 929.89 630.36 955.78L627.22 960.89L625 955.3C614.77 929.52 600.9 905.69 585.94 888.21C567.31 866.43 547.94 855.07 528.34 854.45C511.58 853.93 494.64 861.45 478.04 876.94C458.91 894.76 440.04 923.23 421.91 961.57L420.12 965.36L417.12 962.44C409.54 955.08 397.93 948.37 388.12 951.64C379.09 954.62 372.56 965.82 369.1 984.12H369.09Z" fill="black"/>
<path d="M2320.11 452.74H1963.77L1966.12 448.33C1973.8 433.94 1990.24 416.48 2013.34 410.64C2033.96 405.43 2055.98 410.13 2078.85 424.64C2086.77 412.42 2099.95 400.25 2115.13 400.1C2127.36 399.99 2138.76 407.48 2149.08 422.41C2162.21 392.1 2185.13 361.32 2212.8 360.41C2237.59 359.64 2261.29 382.31 2283.44 427.84C2289.17 423.4 2296.79 420.2 2303.79 422.52C2311.79 425.18 2317.13 434.19 2319.55 449.29L2320.11 452.74ZM1974.01 446.74H2313.01C2310.84 436.28 2307.01 429.89 2301.92 428.19C2296.11 426.27 2288.92 430.56 2284.54 434.81L2281.54 437.74L2279.75 433.94C2258.23 388.4 2235.75 365.67 2213.02 366.39C2200.88 366.78 2188.81 373.88 2177.16 387.5C2167.72 398.5 2158.95 413.59 2152.49 429.89L2150.28 435.46L2147.14 430.35C2137.26 414.23 2126.59 406.06 2115.44 406.06H2115.22C2106.59 406.14 2092.83 412.54 2082.41 430.3L2080.8 433.03L2078.16 431.28C2055.83 416.47 2034.53 411.49 2014.84 416.46C1995.92 421.23 1981.86 434.52 1974 446.74H1974.01Z" fill="black"/>
<path d="M764.39 1666.73C757.83 1666.73 754.39 1663.44 752.74 1660.95C748.74 1654.87 749.74 1644.95 755.11 1639.37L755.38 1639.08L804.98 1608.54L689.13 1621.05H689C678.72 1621.18 674.19 1615.5 673.36 1610.12C672.36 1603.6 676.21 1597.12 682.14 1595.33L697.92 1590.59C694.24 1590.04 690.74 1589.44 688.77 1588.9C685.108 1587.91 681.797 1585.91 679.21 1583.14C673.21 1575.97 674.71 1569.86 676.13 1566.86C677.106 1564.94 678.455 1563.24 680.098 1561.84C681.741 1560.45 683.646 1559.41 685.7 1558.76C681.05 1551.17 683.05 1545.24 684.89 1542.14C686.255 1540 688.032 1538.14 690.117 1536.69C692.203 1535.24 694.556 1534.22 697.04 1533.68C696.374 1532.74 695.92 1531.66 695.709 1530.52C695.498 1529.39 695.536 1528.22 695.82 1527.1C697.13 1522.44 702.97 1519.57 712.26 1519.02L861.55 1506.15L863.86 1487.33L869.86 1488.07L866.95 1511.71L712.69 1525C704.58 1525.48 701.89 1527.64 701.59 1528.72C701.29 1529.8 702.53 1531.72 705.87 1534.06L703.49 1539.44C698.79 1538.36 692.49 1541.05 690.04 1545.2C687.09 1550.2 690.17 1555.4 693.28 1558.91L697.76 1563.98L691 1563.9C689.07 1563.87 687.168 1564.37 685.5 1565.34C683.833 1566.31 682.463 1567.72 681.54 1569.42C680.12 1572.42 680.9 1575.82 683.8 1579.28C685.603 1581.11 687.86 1582.43 690.34 1583.11C694.04 1584.11 705.66 1585.65 712.56 1586.43L713.08 1592.28L683.85 1601.06C680.85 1601.97 678.74 1605.69 679.28 1609.19C679.85 1612.92 683.28 1615.04 688.6 1615.04H688.77L817.54 1601.14L819.43 1606.67L759.22 1643.75C756.01 1647.42 755.28 1653.93 757.74 1657.62C760.95 1662.44 768.4 1660.53 772.56 1658.96L772.76 1658.9C774.92 1658.25 779.98 1657.04 787.63 1655.22C818.63 1647.85 882.85 1632.56 916.1 1616L952.1 1580.48L994.1 1473.87L999.69 1476.07L957.24 1583.86L919.64 1621L919.21 1621.21C885.47 1638.16 820.32 1653.67 789.02 1661.12C781.85 1662.82 776.64 1664.06 774.58 1664.68C771.333 1665.97 767.882 1666.66 764.39 1666.73Z" fill="black"/>
<path d="M708.69 1593.1C708.296 1593.13 707.899 1593.09 707.523 1592.97C707.146 1592.85 706.796 1592.66 706.494 1592.4C705.884 1591.89 705.503 1591.15 705.435 1590.36C705.367 1589.56 705.619 1588.77 706.133 1588.16C706.648 1587.55 707.384 1587.17 708.18 1587.1L766.5 1577.1C767.285 1576.97 768.091 1577.15 768.74 1577.61C769.388 1578.07 769.827 1578.78 769.96 1579.56C770.093 1580.35 769.908 1581.15 769.447 1581.8C768.985 1582.45 768.285 1582.89 767.5 1583.02L709.19 1593.02C709.026 1593.06 708.859 1593.09 708.69 1593.1ZM776.69 1564.75L690.1 1563.87C689.304 1563.87 688.541 1563.55 687.979 1562.99C687.416 1562.43 687.1 1561.67 687.1 1560.87C687.1 1560.07 687.416 1559.31 687.979 1558.75C688.541 1558.19 689.304 1557.87 690.1 1557.87L776.69 1558.75C777.486 1558.75 778.249 1559.07 778.811 1559.63C779.374 1560.19 779.69 1560.95 779.69 1561.75C779.69 1562.55 779.374 1563.31 778.811 1563.87C778.249 1564.43 777.486 1564.75 776.69 1564.75ZM783.36 1539.95L703.56 1539.42C702.764 1539.42 702.001 1539.1 701.439 1538.54C700.876 1537.98 700.56 1537.22 700.56 1536.42C700.56 1535.62 700.876 1534.86 701.439 1534.3C702.001 1533.74 702.764 1533.42 703.56 1533.42L783.36 1533.95C784.156 1533.95 784.919 1534.27 785.481 1534.83C786.044 1535.39 786.36 1536.15 786.36 1536.95C786.36 1537.75 786.044 1538.51 785.481 1539.07C784.919 1539.63 784.156 1539.95 783.36 1539.95Z" fill="black"/>
<path d="M1349.22 809.65C1348.42 809.65 1347.66 809.334 1347.1 808.771C1346.54 808.209 1346.22 807.446 1346.22 806.65V790.17C1345.46 790.85 1344.67 791.49 1343.87 792.1C1322.8 808.21 1301.08 801.1 1286.56 792.28L1286.45 792.21C1281.63 788.857 1277.22 784.943 1273.32 780.55V802.43C1273.32 803.226 1273 803.989 1272.44 804.551C1271.88 805.114 1271.12 805.43 1270.32 805.43C1269.52 805.43 1268.76 805.114 1268.2 804.551C1267.64 803.989 1267.32 803.226 1267.32 802.43V773.07C1263.79 767.96 1257.1 757.21 1253.7 748.14C1253.42 747.395 1253.45 746.569 1253.78 745.844C1254.11 745.119 1254.71 744.555 1255.45 744.275C1256.2 743.995 1257.03 744.023 1257.75 744.352C1258.48 744.681 1259.04 745.285 1259.32 746.03C1262.68 755.03 1269.56 765.85 1272.75 770.36C1277.46 776.851 1283.2 782.526 1289.75 787.16C1308.52 798.52 1325.51 798.57 1340.25 787.3C1342.72 785.411 1344.95 783.225 1346.88 780.79C1347.78 779.667 1348.62 778.499 1349.4 777.29C1375.65 732.23 1365.48 674.88 1356.4 650.84C1356.12 650.095 1356.15 649.268 1356.47 648.543C1356.8 647.817 1357.4 647.251 1358.15 646.97C1358.9 646.689 1359.72 646.715 1360.45 647.044C1361.17 647.372 1361.74 647.975 1362.02 648.72C1371.42 673.72 1381.94 733.36 1354.52 780.37L1354.45 780.49C1353.73 781.6 1352.97 782.68 1352.18 783.72V806.65C1352.18 807.439 1351.87 808.196 1351.32 808.757C1350.76 809.319 1350.01 809.64 1349.22 809.65Z" fill="black"/>
<path d="M1454.79 819.61C1420.17 807 1374 799.4 1353.35 799.54C1330.66 818.39 1284.35 807.39 1265.97 799.54C1265.97 799.54 1229.27 806.54 1206.11 815.27C1127.9 836.27 1085.11 905.6 1070.43 939.43L842.84 1487.66H1005.41V1563.28H1090.61C1164.23 1423.14 1323.24 1126.5 1367.19 1048.47C1411.14 970.44 1476.36 880 1511 855.91C1508.58 855.91 1489.4 832.2 1454.79 819.61Z" fill="#FEDA00"/>
<path d="M2014 951.74C2013.46 951.74 2012.92 951.74 2012.36 951.67C2002.08 950.81 1991.25 940.78 1991.44 923.9L1991.2 911.8C1991.19 911.406 1991.26 911.015 1991.41 910.648C1991.55 910.281 1991.76 909.945 1992.04 909.661C1992.31 909.377 1992.64 909.15 1993 908.991C1993.36 908.833 1993.75 908.748 1994.14 908.74C1994.53 908.732 1994.93 908.802 1995.29 908.945C1995.66 909.089 1995.99 909.303 1996.28 909.576C1996.56 909.849 1996.79 910.176 1996.95 910.537C1997.11 910.898 1997.19 911.286 1997.2 911.68L1997.44 923.87C1997.29 937.22 2005.28 945.05 2012.86 945.69C2020.6 946.33 2026.54 939.61 2028.4 928.11C2029.1 910.11 2027.17 860.27 2024.9 820.17C2024.52 816.949 2023.19 813.914 2021.08 811.447C2018.98 808.979 2016.19 807.188 2013.07 806.3C2010.26 805.445 2007.26 805.378 2004.41 806.106C2001.56 806.834 1998.97 808.33 1996.91 810.43L2000.91 889.65C2000.93 890.044 2000.87 890.438 2000.74 890.81C2000.61 891.182 2000.4 891.524 2000.14 891.816C1999.87 892.109 1999.55 892.347 1999.2 892.515C1998.84 892.684 1998.45 892.781 1998.06 892.8C1997.67 892.82 1997.27 892.763 1996.9 892.63C1996.53 892.498 1996.19 892.293 1995.89 892.029C1995.6 891.764 1995.36 891.444 1995.19 891.087C1995.03 890.731 1994.93 890.344 1994.91 889.95L1990.91 809.49L1990.12 793.78C1989.68 785.02 1985.35 777.01 1979.59 774.29C1976.01 772.6 1972.18 773.03 1968.18 775.57L1973 871.9C1973.02 872.294 1972.96 872.688 1972.83 873.06C1972.7 873.431 1972.49 873.773 1972.23 874.065C1971.96 874.358 1971.64 874.595 1971.29 874.764C1970.93 874.933 1970.54 875.03 1970.15 875.05C1969.76 875.07 1969.36 875.012 1968.99 874.879C1968.62 874.747 1968.28 874.542 1967.98 874.278C1967.69 874.013 1967.45 873.693 1967.29 873.337C1967.12 872.98 1967.02 872.594 1967 872.2L1962.09 774.2C1962.09 774.174 1962.09 774.147 1962.09 774.12C1961.8 768.51 1959.43 760.61 1953.69 756.75C1949.33 753.8 1943.57 753.54 1936.6 755.95C1920.31 762.32 1899.67 776.16 1873.48 798.27C1873.18 798.525 1872.83 798.718 1872.46 798.838C1872.08 798.958 1871.69 799.004 1871.29 798.971C1870.9 798.939 1870.52 798.829 1870.17 798.649C1869.82 798.468 1869.5 798.221 1869.25 797.92C1869 797.619 1868.8 797.271 1868.68 796.896C1868.56 796.521 1868.52 796.125 1868.55 795.733C1868.58 795.34 1868.69 794.957 1868.87 794.607C1869.05 794.256 1869.3 793.945 1869.6 793.69C1896.34 771.12 1917.6 756.94 1934.47 750.34H1934.57C1943.45 747.25 1951.02 747.75 1957.05 751.81C1963.08 755.87 1966.25 762.81 1967.49 769.11C1969.75 767.958 1972.25 767.336 1974.78 767.291C1977.32 767.246 1979.84 767.779 1982.14 768.85C1989.94 772.53 1995.55 782.42 1996.14 793.46L1996.62 803.05C1999.3 801.353 2002.31 800.251 2005.45 799.819C2008.59 799.388 2011.78 799.637 2014.82 800.55C2019.06 801.783 2022.85 804.232 2025.71 807.595C2028.58 810.958 2030.4 815.086 2030.94 819.47V819.72C2033.23 860.11 2035.17 910.46 2034.45 928.54V928.89C2032.66 939.63 2026.32 951.74 2014 951.74ZM1932.49 882.19C1931.73 882.192 1930.99 881.903 1930.44 881.383C1929.88 880.863 1929.54 880.151 1929.49 879.39L1924.37 803.32C1924.34 802.926 1924.39 802.531 1924.52 802.157C1924.65 801.782 1924.84 801.436 1925.1 801.139C1925.36 800.841 1925.68 800.598 1926.03 800.422C1926.39 800.246 1926.77 800.142 1927.16 800.115C1927.56 800.088 1927.95 800.139 1928.33 800.265C1928.7 800.391 1929.05 800.589 1929.35 800.849C1929.64 801.108 1929.89 801.424 1930.06 801.778C1930.24 802.131 1930.34 802.516 1930.37 802.91L1935.49 878.99C1935.52 879.383 1935.47 879.778 1935.34 880.152C1935.22 880.526 1935.02 880.871 1934.76 881.169C1934.5 881.466 1934.18 881.709 1933.83 881.884C1933.48 882.06 1933.09 882.163 1932.7 882.19H1932.49Z" fill="black"/>
<path d="M1009.72 1473C1009.32 1473 1008.92 1472.92 1008.55 1472.76C1007.82 1472.45 1007.24 1471.86 1006.94 1471.12C1006.64 1470.39 1006.65 1469.56 1006.96 1468.83L1190.27 1034.74C1190.6 1034.04 1191.19 1033.49 1191.91 1033.21C1192.64 1032.94 1193.44 1032.95 1194.16 1033.25C1194.87 1033.56 1195.44 1034.13 1195.74 1034.84C1196.05 1035.55 1196.06 1036.35 1195.79 1037.08L1012.48 1471.17C1012.25 1471.71 1011.87 1472.18 1011.38 1472.5C1010.88 1472.83 1010.31 1473 1009.72 1473Z" fill="black"/>
<path d="M1356.08 760.22L1348.87 758.16L1347.49 757.79C1342.6 756.52 1335.2 754.6 1325.2 741.79C1324.71 741.161 1324.49 740.364 1324.59 739.574C1324.69 738.783 1325.1 738.064 1325.72 737.575C1326.35 737.086 1327.15 736.866 1327.94 736.965C1328.73 737.063 1329.45 737.471 1329.94 738.1C1335.63 745.41 1340.15 748.62 1343.81 750.28C1336.74 734.09 1332.41 709.28 1337.09 697.99C1342.68 684.46 1360.73 681.42 1366.62 681.42C1367.42 681.42 1368.18 681.736 1368.74 682.299C1369.3 682.861 1369.62 683.624 1369.62 684.42C1369.62 685.216 1369.3 685.979 1368.74 686.541C1368.18 687.104 1367.42 687.42 1366.62 687.42C1360.77 687.42 1346.62 690.65 1342.62 700.28C1338.41 710.47 1343.55 738.96 1352.27 753.78L1356.08 760.22Z" fill="black"/>
<path d="M1282.27 697.92C1281.67 697.922 1281.09 697.745 1280.59 697.412C1280.1 697.079 1279.71 696.606 1279.48 696.053C1279.26 695.5 1279.2 694.892 1279.33 694.307C1279.45 693.722 1279.74 693.187 1280.17 692.77C1293.85 679.42 1309.07 686.02 1315.17 691.38C1315.74 691.911 1316.08 692.642 1316.12 693.418C1316.15 694.194 1315.89 694.955 1315.38 695.541C1314.87 696.127 1314.15 696.491 1313.38 696.558C1312.6 696.625 1311.83 696.389 1311.23 695.9C1306.53 691.8 1294.86 686.78 1284.33 697.06C1283.78 697.601 1283.04 697.909 1282.27 697.92Z" fill="black"/>
<path d="M1323.28 767.89C1322.87 767.891 1322.47 767.81 1322.1 767.652C1321.73 767.494 1321.39 767.262 1321.11 766.97C1315.72 761.34 1308.24 761.91 1305.05 762.97C1304.3 763.227 1303.47 763.174 1302.75 762.823C1302.04 762.471 1301.49 761.85 1301.24 761.095C1300.98 760.34 1301.03 759.515 1301.38 758.799C1301.73 758.084 1302.36 757.537 1303.11 757.28C1307.56 755.77 1317.96 754.98 1325.45 762.79C1325.86 763.215 1326.13 763.749 1326.23 764.327C1326.34 764.905 1326.27 765.501 1326.04 766.04C1325.81 766.58 1325.42 767.04 1324.93 767.364C1324.44 767.687 1323.87 767.86 1323.28 767.86V767.89Z" fill="black"/>
<path d="M1267.06 736C1266.55 736.001 1266.05 735.872 1265.6 735.625C1265.16 735.379 1264.78 735.022 1264.51 734.59C1262.73 731.72 1257.32 726.59 1249.57 727.47C1249.18 727.517 1248.78 727.487 1248.39 727.379C1248.01 727.272 1247.66 727.091 1247.34 726.846C1247.03 726.601 1246.77 726.297 1246.58 725.951C1246.38 725.605 1246.26 725.224 1246.21 724.83C1246.16 724.436 1246.19 724.037 1246.3 723.655C1246.41 723.273 1246.59 722.915 1246.83 722.603C1247.08 722.291 1247.38 722.031 1247.73 721.836C1248.08 721.642 1248.46 721.517 1248.85 721.47C1259.61 720.18 1267.13 727.39 1269.61 731.38C1269.82 731.717 1269.95 732.091 1270.02 732.481C1270.08 732.871 1270.06 733.269 1269.97 733.653C1269.87 734.036 1269.71 734.398 1269.47 734.717C1269.24 735.035 1268.95 735.305 1268.61 735.51C1268.15 735.816 1267.61 735.986 1267.06 736Z" fill="black"/>
<path d="M1256 741.14C1255.48 741.139 1254.97 741.004 1254.52 740.749C1254.07 740.493 1253.7 740.125 1253.43 739.68C1250.43 734.79 1250.81 731.21 1251.6 729.06C1252.08 727.817 1252.83 726.696 1253.79 725.778C1254.76 724.86 1255.91 724.167 1257.18 723.75C1257.56 723.611 1257.96 723.549 1258.36 723.569C1258.77 723.589 1259.16 723.69 1259.53 723.866C1259.89 724.041 1260.21 724.289 1260.48 724.593C1260.74 724.897 1260.94 725.251 1261.07 725.635C1261.19 726.018 1261.24 726.423 1261.21 726.825C1261.17 727.227 1261.06 727.617 1260.87 727.974C1260.68 728.33 1260.42 728.644 1260.1 728.898C1259.79 729.152 1259.43 729.339 1259.04 729.45C1258.63 729.588 1258.26 729.811 1257.95 730.104C1257.64 730.397 1257.39 730.754 1257.23 731.15C1256.75 732.43 1257.23 734.36 1258.57 736.59C1258.98 737.268 1259.1 738.081 1258.92 738.851C1258.73 739.621 1258.25 740.286 1257.57 740.7C1257.1 740.993 1256.55 741.145 1256 741.14Z" fill="black"/>
<path d="M1375.25 668.87C1411 690.69 1384.92 713.21 1368.09 720.58C1369.6 708.98 1366.66 687.77 1366.66 686.69C1359.79 683.43 1359.66 678.03 1360.43 675.69L1342.14 657.41L1280.14 659.86C1283.41 679.97 1265.44 700.86 1257.35 707.91C1261.22 711.13 1259.93 716.29 1259.93 715.21C1244.93 710.57 1239.38 719.44 1238.45 724.45C1233.15 719.08 1222.77 705.33 1223.63 693.3C1224.49 681.27 1239.45 671.97 1246.83 668.82C1232.39 618.98 1262.01 611.53 1278.62 614.04C1277.33 607.81 1279.48 589.12 1294.94 584.82C1343.49 575.37 1347.36 626.28 1347.36 625.21C1377.4 622.16 1378.48 653 1375.25 668.87Z" fill="black"/>
<path d="M1259.18 748.55C1249.75 748.55 1237.75 745.6 1234.34 734.34C1232.08 726.9 1233.46 720.43 1238.22 716.13C1243.76 711.13 1252.83 710.19 1261.35 713.75C1261.73 713.894 1262.07 714.111 1262.36 714.39C1262.65 714.669 1262.88 715.003 1263.04 715.372C1263.19 715.742 1263.28 716.14 1263.28 716.542C1263.28 716.944 1263.2 717.342 1263.04 717.713C1262.89 718.083 1262.66 718.419 1262.37 718.7C1262.09 718.981 1261.74 719.2 1261.37 719.347C1260.99 719.493 1260.59 719.562 1260.19 719.551C1259.79 719.539 1259.4 719.447 1259.03 719.28C1252.75 716.66 1246.03 717.18 1242.24 720.58C1239.24 723.27 1238.51 727.43 1240.08 732.58C1241.43 737.02 1245 740.04 1250.69 741.58C1255.45 742.713 1260.38 742.886 1265.21 742.09C1265.61 742.005 1266.02 742 1266.41 742.078C1266.81 742.155 1267.19 742.312 1267.52 742.539C1267.86 742.766 1268.15 743.059 1268.37 743.4C1268.58 743.741 1268.73 744.123 1268.8 744.522C1268.87 744.922 1268.85 745.331 1268.76 745.725C1268.66 746.119 1268.49 746.49 1268.25 746.815C1268.01 747.14 1267.7 747.412 1267.35 747.616C1267 747.82 1266.61 747.95 1266.21 748C1263.89 748.377 1261.53 748.561 1259.18 748.55Z" fill="black"/>
<path d="M1263.77 761C1269.44 754.47 1269.14 748.68 1268.28 746.61H1256L1263.77 761Z" fill="black"/>
<path d="M1268.2 702.91L1326.63 707.85L1313.52 735.77L1277.87 738.14L1268.2 702.91Z" fill="black"/>
<path d="M1308 706.27L1313.57 706.75L1303.32 736.45L1298.2 736.83L1308 706.27Z" fill="white"/>
<path d="M1298.87 705.49L1304.18 705.95L1293.45 737.1L1289.11 737.42L1298.87 705.49Z" fill="white"/>
<path d="M1397.65 702.91L1339.22 707.85L1352.32 735.77L1387.98 738.14L1397.65 702.91Z" fill="black"/>
<path d="M1375.07 704.85L1380.92 704.24L1369.79 736.92L1364.85 736.59L1375.07 704.85Z" fill="white"/>
<path d="M1365.29 705.64L1371.17 705.16L1360.37 736.31L1356.07 736.02L1365.29 705.64Z" fill="white"/>
<path d="M1346.25 714.2H1318.54V720.2H1346.25V714.2Z" fill="black"/>
<path d="M1254.04 705.727L1252.48 711.521L1274.82 717.537L1276.38 711.744L1254.04 705.727Z" fill="black"/>
<path d="M1349 799.85L1350 784.97C1335 801.84 1301.56 796.91 1286.74 792.34C1310 818.36 1338.13 806.37 1349 799.85Z" fill="black"/>
<path d="M1691.51 1173.87L1754.51 1308.46C1695.39 1376.3 1632.89 1352.29 1609.03 1331.8L1691.51 1173.87Z" fill="#FEDA00"/>
<path d="M1487.89 1562.11H1381.61H1156.92H1085.52L1087.87 1557.7C1089.98 1553.7 1299.67 1161.42 1387.87 1009.88C1437.29 924.99 1482.87 868.88 1531.32 833.3C1586.6 792.7 1644.98 780.13 1709.81 794.89C1768.81 808.31 1818.73 839.05 1858.27 886.26C1891.27 925.59 1911.19 969.16 1924.91 1002.76C1940.41 1031.63 2079.65 1383.76 2085.58 1398.76L2086.99 1402.33L1819.3 1437.7L1689.48 1181.49L1487.89 1562.11ZM1386.89 1556.11H1484.24L1686.17 1174.87L1655.01 1111.07L1386.89 1556.11ZM1163.14 1556.11H1379.89L1655.56 1098.53L1692.23 1173.59L1822.72 1431.15L1876.02 1424.1L1688.56 901L1163.14 1556.11ZM1095.5 1556.11H1155.5L1690.6 888.85L1882.16 1423.3L2078.64 1397.3C2063.56 1359.2 1933.73 1031.42 1919.64 1005.43L1919.5 1005.13C1905.95 971.92 1886.23 928.83 1853.76 890.07C1815.08 843.89 1766.23 813.82 1708.56 800.7C1645.56 786.35 1588.75 798.59 1534.96 838.09C1487.2 873.17 1442.13 928.71 1393.14 1012.86C1310 1155.63 1119 1512.27 1095.53 1556.11H1095.5Z" fill="black"/>
<path d="M2081.17 1395.32L2080.17 1389.41L2187.9 1370.56C2155.65 1251.89 2092.51 1071.56 2019.11 948.56L2024.27 945.49C2098.64 1070.05 2162.48 1253.18 2194.55 1372.16L2195.4 1375.33L2081.17 1395.32ZM1927.17 835.32C1881.17 800.32 1834.94 782.09 1789.67 781.23C1743.79 780.36 1718.16 797.65 1713.49 801.13L1709.91 796.31C1724.23 785.66 1752.74 774.53 1789.79 775.23C1836.35 776.12 1883.79 794.73 1930.79 830.55L1927.17 835.32Z" fill="black"/>
<path d="M1958.66 1563.28H1878.66L1886.66 1427.35L2026.38 1408.93V1441.66L2261.8 1563.28H1989.9L1963.83 1527.67L1958.66 1563.28Z" fill="black"/>
<path d="M2261.84 1566.28H1988.42L1965.78 1535.35L1961.25 1566.28H1875.49L1883.85 1424.7L2029.42 1405.51V1439.83L2263.22 1560.62L2261.84 1566.28ZM1991.46 1560.28H2249.46L2023.38 1443.49V1412.35L1889.55 1430L1881.85 1560.28H1956.07L1962 1520L1991.46 1560.28Z" fill="black"/>
<path d="M2383.2 1566.28H2109.77L2087.14 1535.36L2082.61 1566.28H1996.85L2005.21 1424.7L2144.78 1406.3V1381.92C2144.78 1381.12 2145.1 1380.36 2145.66 1379.8C2146.22 1379.24 2146.98 1378.92 2147.78 1378.92C2148.58 1378.92 2149.34 1379.24 2149.9 1379.8C2150.46 1380.36 2150.78 1381.12 2150.78 1381.92V1439.83L2384.58 1560.62L2383.2 1566.28ZM2112.81 1560.28H2370.86L2144.78 1443.49V1412.35L2010.91 1430L2003.21 1560.28H2077.43L2083.32 1519.98L2112.81 1560.28Z" fill="black"/>
<path d="M938.74 2780.86H756.29V2503H155.85V2404.17L157.14 2402.35L715.83 1612.25L720.73 1615.71L161.85 2406.07V2497H762.29V2774.86H932.74V2497H1115.68V2370.87H932.74V1610.09H927.74V1604.09H938.74V2364.87H1121.68V2503H938.74V2780.86ZM770.29 2378.86H339.55L347.32 2367.86L737.51 1814L770.29 1759.9V2378.86ZM351.11 2372.86H764.29V1781.31L742.47 1817.31L352.22 2371.31L351.11 2372.86Z" fill="black"/>
<path d="M2549.8 2778.12H2367.35V2500.26H1766.92V2401.41L1768.22 2399.59L2358.69 1570.11L2360.79 1567.17H2549.79V2362.17H2732.73V2500.3H2549.8V2778.12ZM2373.35 2772.12H2543.8V2494.26H2726.74V2368.13H2543.8V1573.13H2363.87L2363.57 1573.55L1772.92 2403.29V2494.22H2373.35V2772.12ZM2373.35 2368.12H1966L1969.33 2363.39L2355.23 1815.58L2373.32 1785.73L2373.35 2368.12ZM1977.59 2362.12H2367.35V1807.22L2360.14 1819.08L1977.59 2362.12Z" fill="black"/>
<path d="M1471.89 2776.72C1400.89 2776.72 1338.1 2766.15 1285.34 2745.3C1232.34 2724.3 1187.9 2692.41 1153.41 2650.41C1119.08 2608.34 1092.68 2555.31 1074.96 2492.8C1057.33 2430.63 1047.78 2357.29 1046.56 2274.8V2076.25C1046.56 1990.07 1055.11 1913.84 1071.97 1849.68C1088.97 1785.14 1114.79 1730.93 1148.83 1688.57C1183.02 1646.02 1227.5 1613.68 1281.02 1592.43C1334.24 1571.31 1397.85 1560.6 1470.08 1560.6C1541.69 1560.6 1604.81 1570.96 1657.71 1591.4C1710.92 1611.96 1755.24 1643.27 1789.43 1684.46C1823.49 1725.22 1849.59 1777.73 1867.02 1840.55C1884.34 1902.99 1893.59 1977.4 1894.5 2061.72V2254.64C1894.5 2341.88 1885.95 2419.05 1869.09 2484.01C1852.14 2549.34 1826.28 2604.22 1792.25 2647.11C1758.07 2690.2 1713.68 2722.96 1660.31 2744.47C1607.23 2765.87 1543.84 2776.72 1471.89 2776.72ZM1158.05 2646.61C1191.88 2687.8 1235.45 2719.13 1287.54 2739.72C1339.63 2760.31 1401.62 2770.72 1471.89 2770.72C1543.06 2770.72 1605.7 2760.02 1658.06 2738.91C1710.42 2717.8 1754.06 2685.65 1787.55 2643.39C1821.04 2601.13 1846.55 2547.02 1863.29 2482.5C1880.03 2417.98 1888.5 2341.37 1888.5 2254.64V2061.79C1887.6 1977.98 1878.42 1904.09 1861.24 1842.16C1844.06 1780.23 1818.33 1728.4 1784.82 1688.3C1751.28 1647.9 1707.82 1617.19 1655.55 1597C1603.28 1576.81 1540.94 1566.6 1470.08 1566.6C1398.61 1566.6 1335.74 1577.17 1283.23 1598.01C1230.72 1618.85 1187.04 1650.6 1153.51 1692.33C1119.98 1734.06 1094.51 1787.48 1077.77 1851.2C1061.03 1914.92 1052.56 1990.59 1052.56 2076.2V2274.68C1053.77 2356.63 1063.25 2429.44 1080.73 2491.12C1098.21 2552.8 1124.24 2605.12 1158.05 2646.56V2646.61ZM1471.89 2768.72C1401.89 2768.72 1340.09 2758.34 1288.28 2737.86C1236.47 2717.38 1193.21 2686.27 1159.61 2645.35C1125.97 2604.13 1100.09 2552.08 1082.66 2490.63C1065.23 2429.18 1055.77 2356.5 1054.56 2274.74V2076.25C1054.56 1990.76 1063.02 1915.25 1079.71 1851.71C1096.4 1788.17 1121.71 1735.06 1155.07 1693.58C1188.43 1652.1 1231.74 1620.58 1283.97 1599.87C1336.2 1579.16 1398.85 1568.6 1470.08 1568.6C1540.71 1568.6 1602.87 1578.78 1654.83 1598.87C1706.79 1618.96 1749.83 1649.37 1783.14 1689.41L1783.28 1689.58C1816.61 1729.46 1842.18 1780.97 1859.28 1842.68C1876.38 1904.39 1885.56 1978.15 1886.47 2061.78V2254.64C1886.47 2341.2 1878.01 2417.7 1861.32 2482C1844.63 2546.3 1819.32 2600.13 1785.96 2642.14C1752.6 2684.15 1709.36 2716.05 1657.28 2737.05C1605.2 2758.05 1542.82 2768.72 1471.89 2768.72ZM1470.08 1574.6C1399.61 1574.6 1337.74 1584.98 1286.18 1605.44C1234.93 1625.79 1192.39 1656.71 1159.75 1697.34C1126.95 1738.15 1101.97 1790.61 1085.51 1853.23C1068.96 1916.23 1060.51 1991.23 1060.51 2076.23V2274.7C1061.71 2355.89 1071.09 2428 1088.38 2488.99C1105.58 2549.65 1131.09 2600.99 1164.2 2641.55C1197.2 2681.66 1239.62 2712.19 1290.44 2732.28C1341.54 2752.48 1402.57 2762.72 1471.84 2762.72C1542 2762.72 1603.63 2752.21 1655.02 2731.49C1706.12 2710.88 1748.58 2679.57 1781.24 2638.42C1814.04 2597.06 1839.03 2543.93 1855.49 2480.49C1872.05 2416.68 1880.49 2340.69 1880.49 2254.64V2061.81C1879.59 1978.74 1870.49 1905.54 1853.49 1844.28C1836.61 1783.48 1811.49 1732.78 1778.77 1693.58L1778.62 1693.41C1745.98 1654.08 1703.62 1624.16 1652.62 1604.41C1601.4 1584.65 1540 1574.6 1470.08 1574.6ZM1471.89 2655.39C1385.77 2655.39 1320.33 2624.1 1277.4 2562.39L1277.25 2562.17C1256.33 2531.33 1240.44 2491.7 1230.03 2444.39C1219.69 2397.39 1214.44 2341.39 1214.44 2277.96V2040C1215.05 1980.31 1220.52 1927.56 1230.72 1883.21C1241.01 1838.5 1256.4 1801 1276.47 1771.74C1316.99 1712.67 1382.13 1682.74 1470.08 1682.74C1558.62 1682.74 1624.36 1712.96 1665.49 1772.55C1685.88 1801.83 1701.36 1840.25 1711.49 1886.74C1721.49 1932.81 1726.62 1988.19 1726.62 2051.34V2294.93C1725.71 2356.21 1719.84 2410.11 1709.19 2455.13C1698.45 2500.53 1682.51 2538.26 1661.81 2567.26C1620.69 2625.73 1556.79 2655.39 1471.89 2655.39ZM1282.46 2559.15C1303.31 2589.06 1329.81 2611.82 1361.21 2626.79C1392.61 2641.76 1429.9 2649.39 1471.89 2649.39C1513.27 2649.39 1549.82 2642.19 1580.52 2628C1611.22 2613.81 1636.94 2592.2 1656.92 2563.79C1697.38 2507.09 1718.81 2416.6 1720.62 2294.84V2051.34C1720.62 1925.85 1700.41 1833.2 1660.56 1775.96C1641.1 1747.45 1614.2 1724.82 1582.78 1710.53C1551.18 1696.07 1513.26 1688.74 1470.08 1688.74C1427.19 1688.74 1389.58 1696 1358.28 1710.33C1327.18 1724.46 1300.59 1746.89 1281.41 1775.16C1242.16 1832.37 1221.65 1921.51 1220.41 2040.07V2278C1220.41 2403.85 1241.17 2498.3 1282.11 2558.74L1282.28 2558.9L1282.46 2559.15ZM1471.89 2647.39C1430.19 2647.39 1393.24 2639.85 1362.08 2624.99C1330.92 2610.13 1304.65 2587.54 1283.98 2557.83C1243.14 2497.74 1222.44 2403.58 1222.44 2277.95V2040.11C1223.65 1921.91 1244.04 1833.16 1283.07 1776.29C1302.03 1748.34 1328.33 1726.14 1359.07 1712.14C1390.07 1697.94 1427.43 1690.74 1470.07 1690.74C1512.98 1690.74 1550.62 1698.01 1581.94 1712.35C1612.92 1726.44 1639.46 1748.73 1658.69 1776.8L1658.9 1777.09C1698.52 1833.98 1718.61 1926.25 1718.61 2051.34V2294.79C1716.82 2415.61 1695.7 2505.44 1655.83 2561.85V2562.05L1655.17 2562.78C1635.42 2590.78 1610.02 2612.15 1579.67 2626.19C1549.32 2640.23 1513 2647.39 1471.89 2647.39ZM1470.08 1696.74C1428.33 1696.74 1391.83 1703.74 1361.6 1717.6C1331.83 1731.14 1306.37 1752.63 1288.01 1779.69C1249.68 1835.56 1229.63 1923.19 1228.44 2040.14V2278C1228.44 2402.4 1248.79 2495.43 1288.92 2554.48C1308.92 2583.3 1334.46 2605.22 1364.66 2619.62C1394.86 2634.02 1431.09 2641.44 1471.89 2641.44C1512.12 2641.44 1547.54 2634.49 1577.17 2620.79C1606.32 2607.31 1630.76 2586.85 1649.84 2559.99L1650.4 2559.2C1689.9 2503.85 1710.84 2414.89 1712.62 2294.8V2051.34C1712.62 1928.45 1693.19 1837.78 1654.88 1781.81H1653.45V1779.74C1634.84 1752.78 1609.27 1731.37 1579.45 1717.8C1548.92 1703.83 1512.12 1696.74 1470.08 1696.74Z" fill="#FEDA00"/>
</svg>
