<svg width="3000" height="3000" viewBox="0 0 3000 3000" fill="none" xmlns="http://www.w3.org/2000/svg">
<path d="M2696.34 2815.34H180.65C179.854 2815.34 179.091 2815.02 178.529 2814.46C177.966 2813.9 177.65 2813.14 177.65 2812.34C177.65 2811.54 177.966 2810.78 178.529 2810.22C179.091 2809.66 179.854 2809.34 180.65 2809.34H2696.34C2697.14 2809.34 2697.9 2809.66 2698.46 2810.22C2699.02 2810.78 2699.34 2811.54 2699.34 2812.34C2699.34 2813.14 2699.02 2813.9 2698.46 2814.46C2697.9 2815.02 2697.14 2815.34 2696.34 2815.34Z" fill="#FFFFFF"/>
<path d="M2281.19 1445.51C2279.54 1445.51 2277.93 1445.02 2276.56 1444.11C2275.19 1443.19 2274.12 1441.89 2273.49 1440.37C2272.86 1438.85 2272.7 1437.17 2273.02 1435.56C2273.34 1433.94 2274.13 1432.45 2275.3 1431.29C2276.46 1430.12 2277.95 1429.33 2279.56 1429.01C2281.18 1428.69 2282.86 1428.85 2284.38 1429.48C2285.9 1430.11 2287.2 1431.18 2288.12 1432.55C2289.03 1433.92 2289.52 1435.53 2289.52 1437.18C2289.52 1439.39 2288.64 1441.51 2287.08 1443.07C2285.52 1444.63 2283.4 1445.51 2281.19 1445.51ZM2281.19 1434.85C2280.73 1434.85 2280.28 1434.99 2279.9 1435.24C2279.51 1435.5 2279.21 1435.86 2279.04 1436.29C2278.86 1436.71 2278.81 1437.18 2278.9 1437.63C2278.99 1438.09 2279.22 1438.5 2279.54 1438.83C2279.87 1439.15 2280.28 1439.38 2280.74 1439.47C2281.19 1439.56 2281.66 1439.51 2282.08 1439.33C2282.51 1439.16 2282.87 1438.86 2283.13 1438.47C2283.38 1438.09 2283.52 1437.64 2283.52 1437.18C2283.52 1436.56 2283.27 1435.97 2282.84 1435.53C2282.4 1435.1 2281.81 1434.85 2281.19 1434.85Z" fill="#FFFFFF"/>
<path d="M1163.63 1445.51C1161.98 1445.51 1160.37 1445.02 1159 1444.11C1157.63 1443.19 1156.56 1441.89 1155.93 1440.37C1155.3 1438.85 1155.14 1437.17 1155.46 1435.56C1155.78 1433.94 1156.57 1432.45 1157.74 1431.29C1158.9 1430.12 1160.39 1429.33 1162 1429.01C1163.62 1428.69 1165.3 1428.85 1166.82 1429.48C1168.34 1430.11 1169.64 1431.18 1170.56 1432.55C1171.47 1433.92 1171.96 1435.53 1171.96 1437.18C1171.96 1439.39 1171.08 1441.51 1169.52 1443.07C1167.96 1444.63 1165.84 1445.51 1163.63 1445.51ZM1163.63 1434.85C1163.17 1434.85 1162.72 1434.99 1162.34 1435.24C1161.95 1435.5 1161.65 1435.86 1161.48 1436.29C1161.3 1436.71 1161.25 1437.18 1161.34 1437.63C1161.43 1438.09 1161.66 1438.5 1161.98 1438.83C1162.31 1439.15 1162.72 1439.38 1163.18 1439.47C1163.63 1439.56 1164.1 1439.51 1164.52 1439.33C1164.95 1439.16 1165.31 1438.86 1165.57 1438.47C1165.82 1438.09 1165.96 1437.64 1165.96 1437.18C1165.96 1436.56 1165.71 1435.97 1165.28 1435.53C1164.84 1435.1 1164.25 1434.85 1163.63 1434.85Z" fill="#FFFFFF"/>
<path d="M492.4 2243.1C490.752 2243.1 489.142 2242.61 487.772 2241.7C486.402 2240.78 485.334 2239.48 484.704 2237.96C484.073 2236.44 483.908 2234.76 484.23 2233.14C484.551 2231.53 485.345 2230.04 486.51 2228.88C487.675 2227.71 489.159 2226.92 490.775 2226.6C492.391 2226.28 494.065 2226.44 495.588 2227.07C497.11 2227.7 498.411 2228.77 499.326 2230.14C500.241 2231.51 500.73 2233.12 500.73 2234.77C500.727 2236.98 499.849 2239.1 498.287 2240.66C496.725 2242.22 494.608 2243.1 492.4 2243.1ZM492.4 2232.44C491.939 2232.44 491.489 2232.58 491.105 2232.83C490.722 2233.09 490.424 2233.45 490.247 2233.88C490.071 2234.3 490.025 2234.77 490.115 2235.22C490.205 2235.68 490.426 2236.09 490.752 2236.42C491.078 2236.74 491.493 2236.97 491.945 2237.06C492.397 2237.15 492.866 2237.1 493.291 2236.92C493.717 2236.75 494.081 2236.45 494.337 2236.06C494.593 2235.68 494.73 2235.23 494.73 2234.77C494.73 2234.15 494.484 2233.56 494.047 2233.12C493.61 2232.69 493.018 2232.44 492.4 2232.44Z" fill="#FFFFFF"/>
<path d="M501.73 362.38C500.08 362.382 498.467 361.894 497.094 360.979C495.721 360.064 494.65 358.762 494.018 357.238C493.385 355.715 493.218 354.038 493.539 352.419C493.86 350.801 494.653 349.314 495.819 348.146C496.985 346.979 498.471 346.184 500.089 345.861C501.707 345.538 503.385 345.703 504.909 346.334C506.434 346.965 507.737 348.034 508.654 349.405C509.57 350.777 510.06 352.39 510.06 354.04C510.057 356.249 509.179 358.368 507.618 359.931C506.056 361.494 503.939 362.375 501.73 362.38ZM501.73 351.71C501.266 351.708 500.812 351.844 500.426 352.1C500.04 352.356 499.738 352.722 499.56 353.15C499.382 353.578 499.334 354.049 499.424 354.504C499.514 354.959 499.737 355.377 500.065 355.705C500.393 356.032 500.811 356.255 501.266 356.345C501.721 356.435 502.192 356.388 502.62 356.21C503.048 356.032 503.413 355.73 503.67 355.344C503.926 354.957 504.062 354.504 504.06 354.04C504.057 353.423 503.811 352.832 503.375 352.395C502.938 351.959 502.347 351.713 501.73 351.71Z" fill="#FFFFFF"/>
<path d="M1965.79 628.27C1964.14 628.27 1962.53 627.781 1961.16 626.866C1959.79 625.951 1958.72 624.65 1958.09 623.128C1957.46 621.606 1957.3 619.931 1957.62 618.315C1957.94 616.699 1958.73 615.215 1959.9 614.05C1961.06 612.885 1962.55 612.091 1964.16 611.77C1965.78 611.449 1967.46 611.614 1968.98 612.244C1970.5 612.875 1971.8 613.942 1972.72 615.312C1973.63 616.682 1974.12 618.292 1974.12 619.94C1974.12 622.148 1973.24 624.266 1971.68 625.827C1970.12 627.389 1968 628.267 1965.79 628.27ZM1965.79 617.61C1965.33 617.61 1964.88 617.747 1964.5 618.003C1964.11 618.259 1963.81 618.623 1963.64 619.048C1963.46 619.474 1963.41 619.943 1963.5 620.395C1963.59 620.846 1963.82 621.262 1964.14 621.588C1964.47 621.913 1964.88 622.135 1965.34 622.225C1965.79 622.315 1966.26 622.269 1966.68 622.093C1967.11 621.916 1967.47 621.618 1967.73 621.234C1967.98 620.851 1968.12 620.401 1968.12 619.94C1968.12 619.634 1968.06 619.331 1967.94 619.048C1967.83 618.766 1967.65 618.509 1967.44 618.292C1967.22 618.076 1966.96 617.904 1966.68 617.787C1966.4 617.67 1966.1 617.61 1965.79 617.61Z" fill="#FFFFFF"/>
<path d="M1249.59 2372.43C1247.94 2372.43 1246.33 2371.94 1244.96 2371.03C1243.59 2370.11 1242.52 2368.81 1241.89 2367.29C1241.26 2365.77 1241.1 2364.09 1241.42 2362.47C1241.74 2360.86 1242.53 2359.37 1243.7 2358.21C1244.86 2357.04 1246.35 2356.25 1247.96 2355.93C1249.58 2355.61 1251.26 2355.77 1252.78 2356.4C1254.3 2357.03 1255.6 2358.1 1256.52 2359.47C1257.43 2360.84 1257.92 2362.45 1257.92 2364.1C1257.92 2366.31 1257.04 2368.43 1255.48 2369.99C1253.92 2371.55 1251.8 2372.43 1249.59 2372.43ZM1249.59 2361.77C1249.13 2361.77 1248.68 2361.91 1248.3 2362.16C1247.91 2362.42 1247.61 2362.78 1247.44 2363.21C1247.26 2363.63 1247.21 2364.1 1247.3 2364.55C1247.39 2365.01 1247.62 2365.42 1247.94 2365.75C1248.27 2366.07 1248.68 2366.3 1249.14 2366.39C1249.59 2366.48 1250.06 2366.43 1250.48 2366.25C1250.91 2366.08 1251.27 2365.78 1251.53 2365.39C1251.78 2365.01 1251.92 2364.56 1251.92 2364.1C1251.92 2363.48 1251.67 2362.89 1251.24 2362.45C1250.8 2362.02 1250.21 2361.77 1249.59 2361.77Z" fill="#FFFFFF"/>
<path d="M2599.38 805.91C2598.75 805.91 2598.13 805.711 2597.62 805.34L2568.25 784C2567.61 783.532 2567.17 782.827 2567.05 782.04C2566.92 781.254 2567.12 780.449 2567.59 779.805C2568.05 779.161 2568.76 778.728 2569.54 778.604C2570.33 778.479 2571.14 778.672 2571.78 779.14L2601.14 800.5C2601.65 800.873 2602.03 801.398 2602.22 801.998C2602.42 802.599 2602.42 803.246 2602.22 803.847C2602.03 804.447 2601.65 804.971 2601.14 805.343C2600.63 805.715 2600.01 805.917 2599.38 805.92V805.91Z" fill="#FFFFFF"/>
<path d="M843.4 2186.69C838.23 2186.69 833.19 2186.46 828.33 2186.01C827.559 2185.95 826.843 2185.59 826.33 2185.01C825.712 2185.47 824.938 2185.68 824.17 2185.59C820.27 2185.12 816.32 2184.46 812.45 2183.59C812.24 2183.2 811.949 2182.86 811.597 2182.59C811.246 2182.32 810.841 2182.13 810.409 2182.03C809.978 2181.93 809.53 2181.92 809.096 2182.01C808.661 2182.09 808.25 2182.27 807.89 2182.53C804.185 2181.61 800.53 2180.49 796.94 2179.19C796.79 2178.76 796.547 2178.36 796.228 2178.03C795.909 2177.7 795.521 2177.44 795.093 2177.28C794.664 2177.11 794.204 2177.04 793.746 2177.08C793.288 2177.11 792.842 2177.24 792.44 2177.46C790.38 2176.61 788.39 2175.73 786.54 2174.83C785.824 2174.48 785.275 2173.86 785.014 2173.11C784.754 2172.36 784.802 2171.54 785.15 2170.82C785.497 2170.1 786.115 2169.55 786.867 2169.29C787.619 2169.03 788.444 2169.08 789.16 2169.43C790.9 2170.27 792.77 2171.11 794.73 2171.92C795.133 2172.09 795.495 2172.34 795.79 2172.66C796.086 2172.98 796.307 2173.36 796.44 2173.78C796.82 2173.56 797.245 2173.42 797.684 2173.38C798.123 2173.34 798.566 2173.4 798.98 2173.55C802.377 2174.78 805.835 2175.83 809.34 2176.71C809.53 2177.09 809.803 2177.43 810.138 2177.69C810.473 2177.95 810.863 2178.14 811.279 2178.24C811.695 2178.33 812.126 2178.33 812.543 2178.24C812.96 2178.15 813.352 2177.97 813.69 2177.71C817.4 2178.49 821.16 2179.12 824.89 2179.57C825.371 2180.15 826.057 2180.51 826.803 2180.59C827.549 2180.67 828.297 2180.46 828.89 2180C837.202 2180.75 845.56 2180.87 853.89 2180.35C854.284 2180.33 854.678 2180.38 855.051 2180.51C855.424 2180.64 855.768 2180.84 856.062 2181.1C856.357 2181.37 856.597 2181.68 856.769 2182.04C856.941 2182.4 857.042 2182.78 857.065 2183.17C857.088 2183.57 857.033 2183.96 856.903 2184.34C856.774 2184.71 856.572 2185.05 856.31 2185.35C856.048 2185.64 855.73 2185.88 855.375 2186.05C855.019 2186.23 854.634 2186.33 854.24 2186.35C850.6 2186.58 847 2186.69 843.4 2186.69ZM779.9 2170.83C779.354 2170.83 778.818 2170.68 778.35 2170.4C740.19 2147.4 726.82 2104.35 726.97 2074.47V2074.35C727.18 2069.35 727.63 2063.61 728.34 2057.35C719.069 2058.02 709.755 2056.94 700.88 2054.18C694.748 2052.42 689.025 2049.47 684.04 2045.49C683.498 2045.02 683.144 2044.37 683.04 2043.66C682.315 2043.61 681.635 2043.29 681.13 2042.77C678.213 2039.8 675.813 2036.37 674.03 2032.61C674.401 2032.15 674.644 2031.6 674.735 2031.02C674.826 2030.44 674.761 2029.84 674.547 2029.29C674.333 2028.74 673.977 2028.25 673.516 2027.89C673.054 2027.52 672.504 2027.28 671.92 2027.19C670.886 2023.79 670.216 2020.28 669.92 2016.74C669.884 2016.35 669.927 2015.95 670.045 2015.57C670.163 2015.19 670.354 2014.84 670.608 2014.54C670.861 2014.24 671.172 2013.99 671.522 2013.8C671.873 2013.62 672.256 2013.51 672.65 2013.47C673.044 2013.43 673.441 2013.48 673.818 2013.59C674.196 2013.71 674.547 2013.9 674.85 2014.16C675.154 2014.41 675.405 2014.72 675.588 2015.07C675.772 2015.42 675.884 2015.81 675.92 2016.2C676.179 2019.32 676.772 2022.4 677.69 2025.39C677.297 2025.76 677.024 2026.23 676.905 2026.75C676.785 2027.28 676.826 2027.82 677.021 2028.32C677.216 2028.82 677.556 2029.25 677.998 2029.56C678.44 2029.86 678.963 2030.03 679.5 2030.03C681.012 2033.19 683.04 2036.08 685.5 2038.57C685.938 2039.01 686.225 2039.57 686.32 2040.18C686.935 2040.23 687.522 2040.46 688 2040.85C692.38 2044.33 697.402 2046.91 702.78 2048.44C711.334 2051.1 720.328 2052.05 729.25 2051.24C734.58 2011.91 750.03 1957.33 783.93 1938.12C799.4 1929.35 810.93 1928.12 818.06 1934.44C828.11 1943.28 825.7 1964.38 819.21 1980.24V1980.33C807.21 2007.06 776.65 2049.79 734.66 2056.62C733.66 2064.96 733.3 2071.28 733.16 2074.51C733.04 2102.82 745.66 2143.51 781.64 2165.22C782.202 2165.56 782.637 2166.07 782.88 2166.68C783.122 2167.29 783.158 2167.96 782.982 2168.59C782.807 2169.23 782.428 2169.78 781.906 2170.18C781.384 2170.58 780.746 2170.79 780.09 2170.79L779.9 2170.83ZM806.59 1936.53C800.41 1936.53 792.86 1939.91 786.73 1943.38C769.79 1952.98 755.63 1973.97 745.79 2004.08C740.943 2019.19 737.423 2034.69 735.27 2050.41C773.89 2043.09 802.27 2003.08 813.53 1977.96C821.21 1959.16 819.53 1943.85 813.95 1938.96C811.882 1937.27 809.259 1936.4 806.59 1936.53ZM672.69 2010.44H672.53C671.736 2010.4 670.991 2010.04 670.461 2009.45C669.93 2008.85 669.656 2008.07 669.7 2007.28C670.76 1987.11 682.06 1951.47 710.61 1911.93C710.841 1911.61 711.133 1911.34 711.468 1911.13C711.804 1910.93 712.177 1910.79 712.566 1910.73C712.955 1910.66 713.353 1910.68 713.736 1910.77C714.119 1910.86 714.481 1911.03 714.8 1911.26C715.119 1911.49 715.389 1911.78 715.596 1912.12C715.802 1912.45 715.94 1912.83 716.003 1913.22C716.065 1913.61 716.05 1914 715.958 1914.39C715.867 1914.77 715.701 1915.13 715.47 1915.45C698.09 1939.52 677.24 1978.1 675.69 2007.6C675.649 2008.37 675.315 2009.09 674.757 2009.62C674.198 2010.15 673.459 2010.44 672.69 2010.44Z" fill="#FFFFFF"/>
<path d="M2522.24 1156.65C2512.24 1156.65 2502.59 1156.21 2493.24 1155.34C2492.85 1155.3 2492.46 1155.19 2492.11 1155C2491.76 1154.82 2491.45 1154.57 2491.2 1154.26C2490.95 1153.96 2490.76 1153.61 2490.64 1153.23C2490.52 1152.85 2490.48 1152.45 2490.52 1152.06C2490.56 1151.67 2490.67 1151.28 2490.86 1150.93C2491.04 1150.58 2491.29 1150.27 2491.6 1150.02C2491.9 1149.77 2492.25 1149.58 2492.63 1149.46C2493.01 1149.34 2493.41 1149.3 2493.8 1149.34C2510.09 1150.8 2526.47 1151.03 2542.8 1150.02C2543.6 1149.97 2544.38 1150.24 2544.97 1150.77C2545.57 1151.3 2545.93 1152.04 2545.98 1152.84C2546.03 1153.64 2545.76 1154.42 2545.23 1155.01C2544.7 1155.61 2543.96 1155.97 2543.16 1156.02C2536.12 1156.44 2529.11 1156.65 2522.24 1156.65ZM2485.63 1154.5H2485.26C2477.54 1153.5 2469.97 1152.28 2462.75 1150.74C2462.35 1150.67 2461.97 1150.53 2461.63 1150.31C2461.29 1150.09 2460.99 1149.8 2460.77 1149.47C2460.54 1149.13 2460.38 1148.75 2460.3 1148.35C2460.23 1147.96 2460.23 1147.55 2460.32 1147.15C2460.4 1146.75 2460.56 1146.38 2460.8 1146.05C2461.03 1145.72 2461.33 1145.44 2461.68 1145.23C2462.02 1145.01 2462.41 1144.87 2462.81 1144.81C2463.21 1144.75 2463.62 1144.78 2464.01 1144.88C2471.01 1146.38 2478.45 1147.61 2486.01 1148.54C2486.4 1148.56 2486.79 1148.67 2487.14 1148.84C2487.5 1149.01 2487.82 1149.25 2488.08 1149.55C2488.34 1149.85 2488.54 1150.19 2488.67 1150.56C2488.8 1150.94 2488.85 1151.33 2488.82 1151.72C2488.8 1152.12 2488.7 1152.5 2488.53 1152.86C2488.35 1153.21 2488.11 1153.53 2487.82 1153.79C2487.52 1154.05 2487.18 1154.25 2486.8 1154.38C2486.43 1154.51 2486.03 1154.56 2485.64 1154.54L2485.63 1154.5ZM2454.72 1148.77C2454.47 1148.77 2454.23 1148.74 2453.99 1148.68C2446.8 1146.86 2439.74 1144.68 2432.99 1142.28C2432.59 1142.17 2432.22 1141.98 2431.9 1141.72C2431.58 1141.46 2431.32 1141.14 2431.12 1140.78C2430.93 1140.41 2430.82 1140.01 2430.79 1139.6C2430.76 1139.19 2430.82 1138.77 2430.96 1138.38C2431.09 1138 2431.31 1137.64 2431.59 1137.34C2431.87 1137.04 2432.21 1136.8 2432.59 1136.63C2432.97 1136.47 2433.38 1136.39 2433.79 1136.39C2434.2 1136.39 2434.61 1136.47 2434.99 1136.64C2441.53 1139 2448.4 1141.09 2455.39 1142.86C2456.1 1143.04 2456.72 1143.47 2457.13 1144.07C2457.55 1144.68 2457.73 1145.41 2457.64 1146.14C2457.55 1146.86 2457.2 1147.53 2456.65 1148.02C2456.1 1148.5 2455.39 1148.77 2454.66 1148.77H2454.72ZM2425.53 1139.19C2425.14 1139.19 2424.75 1139.12 2424.39 1138.97C2420.55 1137.39 2416.75 1135.69 2413.08 1133.91C2412.36 1133.56 2411.81 1132.94 2411.55 1132.19C2411.29 1131.44 2411.34 1130.62 2411.69 1129.9C2412.04 1129.18 2412.66 1128.64 2413.41 1128.37C2414.16 1128.11 2414.98 1128.16 2415.7 1128.51C2419.25 1130.23 2422.94 1131.88 2426.7 1133.42C2427.34 1133.69 2427.87 1134.17 2428.19 1134.78C2428.52 1135.39 2428.63 1136.09 2428.49 1136.77C2428.36 1137.45 2427.99 1138.06 2427.46 1138.5C2426.92 1138.94 2426.25 1139.19 2425.56 1139.19H2425.53ZM2399 1125.85C2398.45 1125.85 2397.92 1125.7 2397.45 1125.42C2324.36 1081.42 2298.74 998.85 2299.01 941.54V941.43C2299.47 930.83 2300.45 918.58 2302.01 905.23C2283.25 907.065 2264.31 905.117 2246.32 899.5C2233.8 895.69 2223.12 890.18 2214.57 883.13C2214.27 882.879 2214.01 882.571 2213.83 882.223C2213.64 881.875 2213.53 881.494 2213.49 881.101C2213.45 880.709 2213.49 880.313 2213.61 879.936C2213.73 879.559 2213.91 879.209 2214.16 878.905C2214.42 878.601 2214.72 878.349 2215.07 878.164C2215.42 877.98 2215.8 877.865 2216.19 877.827C2216.59 877.79 2216.98 877.83 2217.36 877.945C2217.74 878.061 2218.09 878.249 2218.39 878.5C2226.32 885.05 2236.31 890.18 2248.06 893.76C2265.74 899.279 2284.37 901.093 2302.79 899.09C2312.79 823.15 2342.32 716.4 2407.88 679.26C2436.76 662.89 2457.97 660.37 2470.88 671.77C2488.53 687.31 2484.98 726.67 2472.36 757.51V757.61C2449.11 809.38 2389.65 892.49 2308.16 904.47C2306.04 921.87 2305.25 935.05 2304.97 941.63C2304.73 997.36 2329.6 1077.56 2400.51 1120.28C2401.07 1120.62 2401.51 1121.13 2401.75 1121.74C2401.99 1122.35 2402.03 1123.02 2401.85 1123.65C2401.68 1124.29 2401.3 1124.84 2400.78 1125.24C2400.25 1125.64 2399.62 1125.85 2398.96 1125.85H2399ZM2450.86 670.85C2440.36 670.85 2426.86 675.41 2410.86 684.47C2377.33 703.47 2349.38 744.78 2330.05 803.93C2320.2 834.669 2313.15 866.238 2309 898.25C2387.13 885.8 2444.36 805.38 2466.91 755.19C2478.43 727.03 2482.38 689.81 2467 676.27C2462.83 672.65 2457.42 670.85 2450.82 670.85H2450.86ZM2211.18 879C2210.78 879.001 2210.39 878.923 2210.02 878.77C2209.65 878.617 2209.32 878.393 2209.04 878.11C2203.6 872.556 2199.12 866.135 2195.79 859.11C2195.45 858.391 2195.4 857.565 2195.67 856.814C2195.93 856.063 2196.49 855.448 2197.2 855.105C2197.92 854.761 2198.75 854.718 2199.5 854.983C2200.25 855.248 2200.87 855.801 2201.21 856.52C2204.25 862.939 2208.35 868.806 2213.32 873.88C2213.88 874.442 2214.2 875.205 2214.2 876C2214.2 876.795 2213.88 877.557 2213.32 878.12C2213.04 878.401 2212.71 878.623 2212.34 878.775C2211.97 878.926 2211.58 879.002 2211.18 879ZM2194.7 851C2194.06 851 2193.44 850.796 2192.93 850.418C2192.41 850.04 2192.03 849.509 2191.84 848.9C2189.87 842.484 2188.59 835.877 2188.02 829.19C2187.95 828.394 2188.2 827.603 2188.71 826.99C2189.22 826.376 2189.95 825.992 2190.75 825.92C2191.55 825.848 2192.34 826.096 2192.95 826.608C2193.56 827.12 2193.95 827.854 2194.02 828.65C2194.55 834.909 2195.74 841.094 2197.58 847.1C2197.7 847.478 2197.74 847.876 2197.7 848.27C2197.66 848.664 2197.55 849.047 2197.36 849.396C2197.18 849.746 2196.92 850.055 2196.62 850.306C2196.31 850.558 2195.96 850.746 2195.58 850.86C2195.29 850.948 2195 850.995 2194.7 851ZM2190.7 814.31H2190.54C2189.75 814.269 2189 813.914 2188.47 813.323C2187.94 812.732 2187.66 811.954 2187.7 811.16C2189.17 783.37 2198.7 750.47 2216.06 713.36C2230.28 683.258 2247.2 654.512 2266.63 627.48C2267.1 626.835 2267.8 626.403 2268.59 626.277C2269.37 626.152 2270.18 626.343 2270.82 626.81C2271.46 627.277 2271.9 627.98 2272.02 628.766C2272.15 629.552 2271.96 630.355 2271.49 631C2237.49 678.06 2196.75 753.57 2193.7 811.48C2193.67 812.246 2193.34 812.97 2192.79 813.504C2192.24 814.038 2191.51 814.34 2190.74 814.35L2190.7 814.31Z" fill="#FEDA00"/>
<path d="M1178.31 1783.8C1177.68 1783.8 1177.06 1783.6 1176.55 1783.23L1147.19 1761.88C1146.87 1761.65 1146.6 1761.36 1146.39 1761.02C1146.19 1760.69 1146.05 1760.31 1145.99 1759.92C1145.92 1759.53 1145.94 1759.14 1146.03 1758.75C1146.12 1758.37 1146.29 1758.01 1146.52 1757.69C1146.75 1757.37 1147.04 1757.1 1147.38 1756.89C1147.71 1756.69 1148.09 1756.55 1148.48 1756.49C1148.86 1756.43 1149.26 1756.44 1149.65 1756.53C1150.03 1756.62 1150.39 1756.79 1150.71 1757.02L1180.07 1778.37C1180.58 1778.74 1180.97 1779.27 1181.16 1779.87C1181.36 1780.47 1181.36 1781.12 1181.16 1781.73C1180.97 1782.33 1180.59 1782.85 1180.07 1783.23C1179.56 1783.6 1178.94 1783.8 1178.31 1783.8Z" fill="#FFFFFF"/>
<path d="M1323.37 512.15C1322.74 512.147 1322.12 511.944 1321.61 511.57L1292.25 490.22C1291.91 489.998 1291.62 489.709 1291.39 489.37C1291.17 489.032 1291.01 488.651 1290.94 488.252C1290.87 487.852 1290.87 487.442 1290.96 487.045C1291.05 486.649 1291.22 486.275 1291.46 485.946C1291.7 485.617 1292 485.34 1292.35 485.132C1292.7 484.924 1293.09 484.789 1293.49 484.735C1293.9 484.681 1294.31 484.709 1294.7 484.819C1295.09 484.928 1295.45 485.115 1295.77 485.37L1325.13 506.72C1325.64 507.092 1326.03 507.617 1326.22 508.219C1326.42 508.822 1326.42 509.472 1326.22 510.075C1326.03 510.678 1325.65 511.204 1325.13 511.577C1324.62 511.949 1324 512.15 1323.37 512.15Z" fill="#FFFFFF"/>
<path d="M1498.86 214.31C1498.19 214.312 1497.55 214.093 1497.02 213.687C1496.49 213.282 1496.12 212.712 1495.95 212.069C1495.78 211.426 1495.83 210.745 1496.09 210.133C1496.35 209.522 1496.81 209.014 1497.39 208.69L1529 190.9C1529.69 190.51 1530.52 190.412 1531.28 190.628C1532.05 190.844 1532.7 191.355 1533.09 192.05C1533.48 192.745 1533.58 193.566 1533.36 194.333C1533.15 195.1 1532.63 195.75 1531.94 196.14L1500.3 213.92C1499.86 214.174 1499.37 214.308 1498.86 214.31Z" fill="#FFFFFF"/>
<path d="M1092.44 2623C1091.81 2623 1091.19 2622.8 1090.68 2622.43L1061.32 2601.08C1060.68 2600.61 1060.24 2599.91 1060.12 2599.12C1059.99 2598.34 1060.18 2597.53 1060.65 2596.89C1061.12 2596.25 1061.82 2595.81 1062.61 2595.69C1063.39 2595.56 1064.2 2595.75 1064.84 2596.22L1094.2 2617.57C1094.71 2617.94 1095.1 2618.47 1095.29 2619.07C1095.49 2619.67 1095.49 2620.32 1095.29 2620.92C1095.1 2621.53 1094.72 2622.05 1094.2 2622.43C1093.69 2622.8 1093.07 2623 1092.44 2623Z" fill="#FFFFFF"/>
<path d="M236.77 1761C236.131 1761 235.509 1760.8 234.994 1760.42C234.479 1760.04 234.098 1759.51 233.906 1758.9C233.714 1758.29 233.721 1757.64 233.927 1757.03C234.133 1756.43 234.526 1755.91 235.05 1755.54L264.84 1734.79C265.493 1734.36 266.287 1734.2 267.054 1734.35C267.821 1734.5 268.5 1734.94 268.947 1735.58C269.393 1736.22 269.572 1737.01 269.446 1737.78C269.32 1738.55 268.898 1739.25 268.27 1739.71L238.48 1760.46C237.978 1760.81 237.382 1761 236.77 1761Z" fill="#FFFFFF"/>
<path d="M1950.89 2527C1950.25 2527 1949.63 2526.8 1949.11 2526.42C1948.6 2526.04 1948.22 2525.51 1948.03 2524.9C1947.83 2524.29 1947.84 2523.64 1948.05 2523.03C1948.25 2522.43 1948.65 2521.91 1949.17 2521.54L1978.96 2500.79C1979.28 2500.55 1979.65 2500.38 1980.04 2500.29C1980.43 2500.19 1980.83 2500.18 1981.23 2500.24C1981.63 2500.31 1982 2500.45 1982.34 2500.66C1982.68 2500.88 1982.98 2501.16 1983.21 2501.49C1983.43 2501.81 1983.6 2502.19 1983.68 2502.58C1983.76 2502.97 1983.77 2503.38 1983.69 2503.77C1983.61 2504.16 1983.46 2504.54 1983.24 2504.87C1983.01 2505.2 1982.72 2505.49 1982.39 2505.71L1952.6 2526.46C1952.1 2526.81 1951.5 2527 1950.89 2527Z" fill="#FFFFFF"/>
<path d="M2696.34 2018.13C2695.7 2018.13 2695.08 2017.93 2694.56 2017.55C2694.05 2017.17 2693.67 2016.64 2693.48 2016.03C2693.28 2015.42 2693.29 2014.77 2693.5 2014.16C2693.7 2013.56 2694.1 2013.04 2694.62 2012.67L2724.42 1991.92C2725.07 1991.51 2725.86 1991.38 2726.61 1991.53C2727.36 1991.69 2728.03 1992.13 2728.47 1992.76C2728.9 1993.39 2729.08 1994.16 2728.97 1994.92C2728.85 1995.68 2728.45 1996.37 2727.84 1996.84L2698.05 2017.59C2697.55 2017.94 2696.95 2018.13 2696.34 2018.13Z" fill="#FFFFFF"/>
<path d="M382.23 851C381.751 851.001 381.278 850.887 380.852 850.668C380.425 850.449 380.058 850.13 379.78 849.74L358.78 820.16C358.318 819.512 358.133 818.706 358.266 817.922C358.398 817.137 358.836 816.436 359.485 815.975C360.133 815.514 360.939 815.329 361.723 815.461C362.508 815.593 363.208 816.032 363.67 816.68L384.72 846.26C385.039 846.708 385.229 847.236 385.268 847.785C385.308 848.334 385.195 848.884 384.943 849.373C384.691 849.863 384.31 850.273 383.84 850.56C383.37 850.847 382.83 850.999 382.28 851H382.23Z" fill="#FFFFFF"/>
<path d="M2742.39 479.32C2741.69 479.325 2741.01 479.084 2740.46 478.638C2739.92 478.192 2739.55 477.569 2739.42 476.879C2739.29 476.189 2739.4 475.474 2739.75 474.86C2740.09 474.247 2740.63 473.772 2741.29 473.52L2775.08 460.25C2775.82 459.982 2776.63 460.011 2777.34 460.332C2778.05 460.653 2778.61 461.24 2778.9 461.968C2779.19 462.696 2779.18 463.507 2778.88 464.228C2778.57 464.95 2778 465.524 2777.28 465.83L2743.49 479.11C2743.14 479.247 2742.77 479.318 2742.39 479.32Z" fill="#FFFFFF"/>
<path d="M2617.57 220.65C2617.07 220.65 2616.58 220.525 2616.14 220.286C2615.7 220.046 2615.32 219.701 2615.05 219.28L2595.3 188.82C2594.95 188.159 2594.86 187.391 2595.05 186.668C2595.23 185.944 2595.68 185.315 2596.31 184.906C2596.94 184.497 2597.69 184.336 2598.43 184.455C2599.17 184.574 2599.83 184.965 2600.3 185.55L2620.09 216C2620.3 216.331 2620.45 216.701 2620.52 217.088C2620.59 217.476 2620.59 217.874 2620.5 218.259C2620.42 218.645 2620.26 219.01 2620.04 219.335C2619.82 219.659 2619.53 219.936 2619.2 220.15C2618.72 220.471 2618.15 220.644 2617.57 220.65Z" fill="#FFFFFF"/>
<path d="M256.25 2572.08C255.749 2572.08 255.256 2571.95 254.816 2571.72C254.375 2571.48 254.002 2571.13 253.73 2570.71L234 2540.25C233.66 2539.59 233.576 2538.83 233.766 2538.11C233.956 2537.39 234.406 2536.77 235.028 2536.36C235.65 2535.96 236.401 2535.8 237.135 2535.91C237.868 2536.03 238.533 2536.41 239 2536.99L258.75 2567.45C259.043 2567.9 259.209 2568.43 259.229 2568.97C259.25 2569.51 259.124 2570.04 258.866 2570.51C258.608 2570.99 258.227 2571.38 257.763 2571.66C257.299 2571.93 256.77 2572.08 256.23 2572.08H256.25Z" fill="#FFFFFF"/>
<path d="M2470.38 1633.17C2455.15 1633.08 2440 1630.95 2425.33 1626.84C2397.18 1619.12 2367.78 1604.31 2337.96 1582.84C2298.68 1554.53 2240.96 1523.55 2188.79 1536.74C2151.18 1546.25 2135.39 1573.57 2131.45 1581.74C2131.1 1582.46 2130.48 1583 2129.73 1583.27C2128.98 1583.53 2128.16 1583.48 2127.44 1583.13C2126.72 1582.78 2126.18 1582.16 2125.91 1581.41C2125.65 1580.66 2125.7 1579.84 2126.05 1579.12C2130.28 1570.39 2147.19 1541.12 2187.32 1530.94C2207.19 1525.94 2229.32 1526.6 2253.01 1532.94C2280.55 1540.35 2310.31 1555.49 2341.46 1577.94C2370.71 1599.02 2399.46 1613.53 2426.92 1621.05C2450.43 1627.49 2473.08 1628.86 2494.23 1625.11C2540.96 1616.83 2564.04 1587.49 2570 1578.69C2570.45 1578.03 2571.14 1577.57 2571.92 1577.41C2572.7 1577.26 2573.52 1577.42 2574.18 1577.87C2574.84 1578.32 2575.3 1579.01 2575.46 1579.79C2575.61 1580.57 2575.45 1581.39 2575 1582.05C2568.71 1591.34 2544.36 1622.33 2495.32 1631.05C2487.09 1632.49 2478.74 1633.2 2470.38 1633.17Z" fill="#FFFFFF"/>
<path d="M2513.17 1793C2492.28 1793 2472.67 1782.3 2459.17 1772.54C2437.11 1756.64 2417.02 1750.37 2401.06 1754.41C2396.43 1755.5 2392.08 1757.59 2388.33 1760.53C2384.58 1763.46 2381.52 1767.17 2379.34 1771.41C2379.17 1771.76 2378.93 1772.08 2378.63 1772.34C2378.34 1772.61 2378 1772.81 2377.62 1772.94C2377.25 1773.06 2376.86 1773.12 2376.46 1773.1C2376.07 1773.07 2375.68 1772.97 2375.33 1772.8C2374.98 1772.63 2374.66 1772.39 2374.4 1772.09C2374.13 1771.8 2373.93 1771.46 2373.8 1771.08C2373.68 1770.71 2373.62 1770.32 2373.64 1769.92C2373.67 1769.53 2373.77 1769.14 2373.94 1768.79C2376.5 1763.77 2380.12 1759.36 2384.54 1755.87C2388.97 1752.38 2394.1 1749.9 2399.58 1748.58C2421.99 1742.9 2446.26 1755.83 2462.67 1767.67C2483.87 1782.95 2504.5 1789.36 2522.34 1786.2C2536.63 1783.67 2546.74 1775.35 2551.44 1768.42C2551.89 1767.76 2552.58 1767.3 2553.36 1767.14C2554.14 1766.99 2554.96 1767.15 2555.62 1767.6C2556.28 1768.05 2556.74 1768.74 2556.9 1769.52C2557.05 1770.3 2556.89 1771.12 2556.44 1771.78C2553.83 1775.64 2543.72 1788.51 2523.44 1792.1C2520.05 1792.71 2516.61 1793.01 2513.17 1793Z" fill="#FFFFFF"/>
<path d="M1746.94 2711H1832.23L1789.17 2472.33H1628.56L1647.65 2532.79L1302.65 2711H1701.08L1739.26 2658.81L1746.94 2711Z" fill="#FFFFFF"/>
<path d="M1835.82 2714H1744.35L1737.35 2666.5L1702.6 2714H1302.6L1301.22 2708.33L1643.94 2531.33L1625.63 2473.33V2473.28L1564.94 2299C1564.67 2298.25 1564.72 2297.42 1565.06 2296.71C1565.4 2295.99 1566.02 2295.44 1566.77 2295.17C1567.52 2294.9 1568.35 2294.95 1569.06 2295.29C1569.78 2295.63 1570.33 2296.25 1570.6 2297L1630.69 2469.33H1785.36L1742 2289.81C1741.91 2289.43 1741.89 2289.03 1741.95 2288.64C1742.02 2288.25 1742.15 2287.88 1742.36 2287.54C1742.57 2287.2 1742.84 2286.91 1743.16 2286.68C1743.47 2286.45 1743.84 2286.28 1744.22 2286.19C1744.6 2286.1 1745 2286.08 1745.39 2286.14C1745.78 2286.21 1746.15 2286.34 1746.49 2286.55C1746.83 2286.76 1747.12 2287.03 1747.35 2287.35C1747.58 2287.67 1747.75 2288.03 1747.84 2288.41L1792.07 2471.54C1792.1 2471.64 1792.12 2471.73 1792.13 2471.83L1835.82 2714ZM1749.53 2708H1828.64L1786.64 2475.33H1632.64L1651.26 2534.33L1315 2708H1699.6L1741.21 2651.12L1749.53 2708Z" fill="#FFFFFF"/>
<path d="M2380.17 2326.68L2437.6 2263.68L2232.16 2134.8L2124 2253.49L2181.56 2280.09L2081.02 2655.09L2349.31 2360.53L2336.44 2297.16L2380.17 2326.68Z" fill="#FFFFFF"/>
<path d="M2083.25 2657.14L2078.13 2654.34L2178 2281.75L2122.8 2256.24H2122.72L2024.17 2212.9C2023.44 2212.58 2022.87 2211.98 2022.58 2211.24C2022.29 2210.5 2022.31 2209.67 2022.63 2208.94C2022.95 2208.21 2023.55 2207.64 2024.29 2207.35C2025.03 2207.06 2025.86 2207.08 2026.59 2207.4L2123.22 2249.91L2227.39 2135.55L2128.26 2079.73C2127.61 2079.32 2127.15 2078.67 2126.96 2077.93C2126.78 2077.18 2126.88 2076.4 2127.26 2075.73C2127.64 2075.06 2128.25 2074.56 2128.99 2074.33C2129.72 2074.11 2130.51 2074.17 2131.2 2074.51L2233.56 2132.13L2233.78 2132.27L2442.23 2263L2380.64 2330.62L2340.85 2303.78L2352.56 2361.45L2083.25 2657.14ZM2129 2252.48L2185.14 2278.43L2087.14 2643.97L2346.14 2359.67L2332.14 2290.6L2379.79 2322.74L2433.05 2264.26L2232.78 2138.62L2129 2252.48Z" fill="#FFFFFF"/>
<path d="M1536.35 1643.71H1536C1531.18 1643.59 1526.85 1640.9 1523.07 1635.71C1521.56 1637.8 1519.63 1639.56 1517.4 1640.87C1515.18 1642.18 1512.7 1643.02 1510.14 1643.32C1506.36 1643.66 1499.2 1642.84 1493.86 1633.51C1491.89 1629.6 1491.05 1625.22 1491.45 1620.86C1491.69 1618.16 1492.69 1613 1493.85 1607.66L1480.63 1625.21C1476.39 1630.84 1467.91 1632.39 1461.33 1628.73C1455.89 1625.73 1451.6 1618.57 1455.85 1607.57L1456 1607.25L1512.89 1499.25L1461.89 1526.05C1453.68 1529.55 1442.57 1526.79 1437.63 1520.05C1434.76 1516.11 1431.63 1507.62 1442.5 1494.99C1452.8 1481.5 1568.5 1373.44 1573.38 1368.84L1573.7 1368.54L1616.36 1347.32L1619.04 1352.7L1577.16 1373.52C1535.35 1412.52 1454.84 1488.52 1447.23 1498.68L1447.1 1498.85C1440.96 1505.91 1439.32 1512.18 1442.48 1516.51C1445.76 1521.01 1453.81 1522.95 1459.48 1520.62L1527.23 1484.97L1461.41 1609.97C1459.02 1616.28 1460.05 1621.23 1464.26 1623.57C1468.15 1625.73 1473.46 1624.86 1475.85 1621.68L1497.57 1592.85L1502.88 1595.38C1500.88 1603.38 1497.88 1616.91 1497.45 1621.46C1497.16 1624.6 1497.72 1627.76 1499.08 1630.61C1501.85 1635.44 1505.49 1637.8 1509.62 1637.42C1514.06 1637.03 1518.46 1633.42 1520.08 1628.84L1522.35 1622.46L1525.55 1628.46C1528.85 1634.59 1532.42 1637.75 1536.17 1637.85H1536.34C1542.18 1637.85 1548.64 1630.6 1552.77 1623.77L1558.3 1625.77C1558.09 1627 1557.6 1631.06 1559.88 1631.77C1562.64 1632.59 1568.4 1629.27 1572.07 1620.89L1649.19 1457L1680.33 1434.63L1683.83 1439.51L1654 1460.93L1577.58 1623.23C1573.86 1631.73 1565.79 1639.64 1558.22 1637.38C1557.17 1637.07 1556.2 1636.54 1555.36 1635.84C1554.52 1635.14 1553.84 1634.27 1553.35 1633.29C1549.18 1638.36 1543.2 1643.71 1536.35 1643.71Z" fill="#FFFFFF"/>
<path d="M1522.58 1633.79C1522.24 1633.79 1521.9 1633.73 1521.58 1633.61C1520.83 1633.34 1520.22 1632.79 1519.88 1632.07C1519.54 1631.35 1519.5 1630.53 1519.77 1629.78L1554.28 1533.38C1554.58 1532.69 1555.14 1532.13 1555.84 1531.83C1556.53 1531.53 1557.32 1531.5 1558.03 1531.76C1558.74 1532.01 1559.34 1532.53 1559.69 1533.2C1560.04 1533.87 1560.12 1534.65 1559.92 1535.38L1525.41 1631.78C1525.2 1632.37 1524.82 1632.88 1524.32 1633.24C1523.81 1633.6 1523.2 1633.79 1522.58 1633.79ZM1555.21 1628.88C1554.87 1628.88 1554.53 1628.82 1554.21 1628.7C1553.46 1628.43 1552.85 1627.87 1552.52 1627.15C1552.18 1626.43 1552.14 1625.61 1552.41 1624.86L1584.54 1536.13C1584.65 1535.73 1584.84 1535.36 1585.1 1535.04C1585.36 1534.72 1585.68 1534.46 1586.04 1534.26C1586.41 1534.07 1586.81 1533.96 1587.22 1533.93C1587.63 1533.9 1588.05 1533.96 1588.44 1534.1C1588.82 1534.23 1589.18 1534.45 1589.48 1534.73C1589.78 1535.01 1590.02 1535.35 1590.19 1535.73C1590.35 1536.11 1590.43 1536.52 1590.43 1536.93C1590.43 1537.34 1590.35 1537.75 1590.18 1538.13L1558 1626.9C1557.79 1627.48 1557.41 1627.97 1556.91 1628.33C1556.42 1628.68 1555.82 1628.87 1555.21 1628.88ZM1497.77 1601.19C1497.24 1601.19 1496.73 1601.05 1496.27 1600.79C1495.81 1600.53 1495.43 1600.15 1495.17 1599.69C1494.91 1599.23 1494.77 1598.72 1494.77 1598.19C1494.77 1597.66 1494.91 1597.15 1495.17 1596.69L1530.17 1536.09C1530.57 1535.4 1531.22 1534.9 1531.99 1534.69C1532.76 1534.48 1533.58 1534.59 1534.27 1534.99C1534.96 1535.39 1535.46 1536.04 1535.67 1536.81C1535.88 1537.58 1535.77 1538.4 1535.37 1539.09L1500.37 1599.69C1500.11 1600.15 1499.73 1600.53 1499.27 1600.79C1498.81 1601.05 1498.3 1601.19 1497.77 1601.19Z" fill="#FFFFFF"/>
<path d="M1366.19 849.34C1365.46 849.333 1364.76 849.06 1364.22 848.573C1363.67 848.086 1363.33 847.417 1363.24 846.693C1363.15 845.968 1363.33 845.237 1363.75 844.637C1364.16 844.036 1364.78 843.607 1365.49 843.43L1382.88 839.24L1376.27 811.79C1376.08 811.015 1376.21 810.198 1376.63 809.519C1377.04 808.839 1377.71 808.352 1378.48 808.165C1379.26 807.978 1380.08 808.106 1380.76 808.522C1381.44 808.937 1381.92 809.605 1382.11 810.38L1390.11 843.67L1366.88 849.26C1366.65 849.315 1366.42 849.342 1366.19 849.34ZM1460.59 826.7L1448.92 778.26C1448.73 777.486 1448.86 776.669 1449.28 775.989C1449.69 775.309 1450.36 774.822 1451.13 774.635C1451.91 774.448 1452.73 774.576 1453.41 774.992C1454.09 775.407 1454.57 776.075 1454.76 776.85L1465 819.46L1481.64 815.46C1482.03 815.351 1482.43 815.322 1482.84 815.373C1483.24 815.425 1483.62 815.557 1483.97 815.761C1484.32 815.966 1484.62 816.238 1484.86 816.562C1485.1 816.886 1485.27 817.256 1485.37 817.648C1485.46 818.04 1485.48 818.448 1485.41 818.846C1485.34 819.243 1485.2 819.624 1484.98 819.964C1484.76 820.304 1484.48 820.596 1484.14 820.824C1483.81 821.052 1483.44 821.211 1483.04 821.29L1460.59 826.7Z" fill="#FFFFFF"/>
<path d="M1453.6 791.84L1449.99 776.84L1455.8 763.09C1401.62 725.76 1370.8 689.41 1362.13 675.89C1354.14 686.737 1344.37 696.154 1333.24 703.74C1331.34 711.49 1331.54 721.12 1331.87 724.96C1334.49 745.22 1347.58 789.73 1378.97 805.71C1410.36 821.69 1436.35 797.58 1445.42 783.53C1444.31 789.1 1441.85 799.53 1435.98 807.87C1422.98 826.28 1391.74 832.25 1382.78 830.09L1378.3 811.46L1299.49 818.15C1298.32 804.59 1317.67 794.7 1313.63 772.06C1295.29 669.39 1339.34 616.87 1396.13 620.34C1437.9 622.89 1466.13 659.52 1504.29 697.68C1530.92 724.33 1569.29 724.96 1574.48 757.39L1453.6 791.84Z" fill="#FFFFFF"/>
<path d="M1356.36 783H1355.94L1350.73 782.39L1353.9 778.21C1363.51 765.51 1364.31 747.02 1355.85 733.21C1349.9 723.52 1339.56 721.34 1331.85 722.52C1331.06 722.642 1330.26 722.447 1329.62 721.977C1328.98 721.507 1328.55 720.801 1328.43 720.015C1328.3 719.229 1328.5 718.426 1328.97 717.784C1329.44 717.141 1330.14 716.712 1330.93 716.59C1340.52 715.11 1353.44 717.88 1360.93 730.07C1365 736.867 1367.29 744.581 1367.6 752.498C1367.9 760.416 1366.2 768.282 1362.66 775.37C1368.16 773.323 1373.09 770.01 1377.07 765.7C1377.32 765.367 1377.64 765.09 1378 764.886C1378.36 764.682 1378.76 764.555 1379.18 764.515C1379.59 764.475 1380.01 764.522 1380.41 764.652C1380.8 764.782 1381.17 764.994 1381.48 765.272C1381.79 765.551 1382.03 765.891 1382.21 766.271C1382.38 766.651 1382.47 767.062 1382.47 767.479C1382.47 767.895 1382.39 768.308 1382.22 768.69C1382.06 769.073 1381.82 769.417 1381.51 769.7C1372.16 780.08 1359.68 783 1356.36 783Z" fill="#FFFFFF"/>
<path d="M1410.78 724.39C1410.33 724.39 1409.89 724.29 1409.49 724.098C1409.09 723.906 1408.73 723.627 1408.45 723.28C1404.39 718.28 1393.61 710.95 1381.86 719.01C1381.2 719.461 1380.38 719.63 1379.59 719.48C1378.81 719.33 1378.11 718.873 1377.66 718.21C1377.21 717.547 1377.04 716.732 1377.19 715.944C1377.34 715.157 1377.8 714.461 1378.46 714.01C1385.19 709.4 1401.08 704.61 1413.11 719.45C1413.47 719.89 1413.69 720.423 1413.76 720.985C1413.83 721.548 1413.73 722.119 1413.49 722.63C1413.24 723.142 1412.86 723.574 1412.38 723.877C1411.9 724.179 1411.35 724.34 1410.78 724.34V724.39Z" fill="#FFFFFF"/>
<path d="M1382.58 792.67C1382.1 792.67 1381.65 792.67 1381.24 792.61C1380.85 792.576 1380.46 792.464 1380.11 792.282C1379.76 792.1 1379.45 791.85 1379.19 791.547C1378.94 791.245 1378.75 790.895 1378.63 790.518C1378.51 790.141 1378.47 789.744 1378.5 789.35C1378.53 788.956 1378.65 788.573 1378.83 788.222C1379.01 787.871 1379.26 787.559 1379.56 787.305C1379.87 787.05 1380.22 786.858 1380.59 786.739C1380.97 786.62 1381.37 786.576 1381.76 786.61C1385.13 786.91 1392.51 785.68 1396.42 778.92C1396.82 778.23 1397.47 777.727 1398.24 777.521C1399.01 777.315 1399.83 777.422 1400.52 777.82C1401.21 778.218 1401.71 778.873 1401.92 779.642C1402.13 780.411 1402.02 781.23 1401.62 781.92C1396.67 790.5 1387.67 792.67 1382.58 792.67Z" fill="#FFFFFF"/>
<path d="M1445 694.92L1363.39 747.31L1419.64 742.9L1445 694.92Z" fill="#FFFFFF"/>
<path d="M1271.62 748.84L1368.54 745.32L1319.82 773.78L1271.62 748.84Z" fill="#FFFFFF"/>
<path d="M1410.57 717.05L1405.21 720.54L1410.57 743.54L1416.31 743.1L1410.57 717.05Z" fill="white"/>
<path d="M1312.46 747.36L1318.8 747.13L1327.61 769.13L1322.61 772.04L1312.46 747.36Z" fill="white"/>
<path d="M1423.2 709L1415.55 713.95L1421.4 739.55L1424.79 733.08L1423.2 709Z" fill="white"/>
<path d="M1297.4 747.91L1306.57 747.55L1316.41 772.02L1309.94 768.64L1297.4 747.91Z" fill="white"/>
<path d="M1476.23 2398.29L1472 2391C1430.21 2318.82 1349.52 2124.93 1343.31 1907.74C1337.42 1701.55 1354.51 1381.67 1366.67 1228.47L1372.67 1228.95C1360.52 1382.02 1343.44 1701.62 1349.33 1907.56C1355.33 2116.91 1430.82 2304.39 1473.33 2381.04C1479.01 2357.36 1493.63 2328.49 1519.92 2310.66C1544.04 2294.3 1573.77 2289.83 1608.28 2297.4C1647.94 2306.09 1680.09 2307.23 1706.58 2300.89C1729.23 2295.47 1743.93 2285.53 1756.9 2276.76C1763.73 2272.14 1770.19 2267.76 1776.9 2264.76C1798.08 2255.23 1821.55 2257.96 1835.74 2262.05L1635.89 1908.46V1596.36L1641.89 1595.96C1655.39 1695.3 1701.78 1916.43 1780.7 2042.21C1852.9 2157.28 1918.26 2247.77 1949.29 2288.21C1948.96 2279.68 1950.67 2271.19 1954.29 2263.46C1962.51 2245.11 1984.59 2219.03 2043.13 2198.98C2102.91 2178.51 2107.5 2147.86 2111.94 2118.23C2115.78 2092.64 2119.74 2066.23 2160.35 2050.39H2160.47C2199.3 2037.11 2224.47 2029.76 2236.37 2026.67L1988.45 1815.67L1988.17 1815.05L1674.8 1111.91L1680.28 1109.47L1993.36 1812L2249.36 2029.82L2243.42 2031.1C2235.86 2032.73 2209.22 2040.03 2162.47 2056.02C2125.15 2070.55 2121.78 2093.02 2117.88 2119.13C2113.39 2149.07 2108.3 2183.02 2045.07 2204.67C1988.57 2224.02 1967.49 2248.67 1959.76 2265.93C1954.57 2277.52 1953.76 2289.93 1957.69 2299.23L1952.58 2302.23C1926.05 2268.68 1854.92 2171.82 1775.58 2045.39C1705.23 1933.27 1660.58 1746.27 1641.88 1635.61V1906.9L1849.24 2273.78L1841.08 2270.28C1830.14 2265.58 1803.16 2259.54 1779.35 2270.28C1773.07 2273.1 1766.82 2277.28 1760.21 2281.8C1734.21 2299.36 1698.64 2323.41 1606.95 2303.32C1574.11 2296.12 1545.95 2300.32 1523.23 2315.69C1495.49 2334.51 1481.46 2366.44 1477.58 2390.05L1476.23 2398.29Z" fill="#FFFFFF"/>
<path d="M2177.71 2050.19C2177.05 2050.19 2176.41 2049.97 2175.89 2049.57L1861.41 1809.64L1861.11 1808.78L1688.78 1304.78C1647.72 1291.29 1611.41 1260.25 1593.78 1240.21C1593.52 1239.91 1593.32 1239.57 1593.19 1239.2C1593.06 1238.82 1593 1238.43 1593.02 1238.03C1593.05 1237.64 1593.15 1237.25 1593.32 1236.9C1593.49 1236.54 1593.73 1236.22 1594.03 1235.96C1594.33 1235.7 1594.67 1235.5 1595.04 1235.37C1595.42 1235.24 1595.81 1235.18 1596.21 1235.2C1596.6 1235.23 1596.99 1235.33 1597.34 1235.5C1597.7 1235.67 1598.02 1235.91 1598.28 1236.21C1615.43 1255.71 1650.74 1285.98 1690.42 1299.04C1690.92 1298.94 1691.43 1298.97 1691.91 1299.12C1692.39 1299.27 1692.83 1299.54 1693.18 1299.91C1709.63 1304.97 1726.77 1306.98 1743.63 1303.99C1744.03 1303.89 1744.45 1303.88 1744.85 1303.95C1745.26 1304.02 1745.65 1304.17 1745.99 1304.4C1746.34 1304.62 1746.63 1304.92 1746.86 1305.26C1747.08 1305.61 1747.23 1306 1747.3 1306.4C1747.37 1306.81 1747.36 1307.23 1747.26 1307.63C1747.16 1308.03 1746.98 1308.4 1746.73 1308.73C1746.48 1309.06 1746.16 1309.33 1745.8 1309.53C1745.44 1309.73 1745.04 1309.85 1744.63 1309.89C1728.3 1312.79 1711.76 1311.25 1695.8 1306.89L1866.49 1806L2179.49 2044.82C2179.99 2045.2 2180.36 2045.73 2180.54 2046.33C2180.73 2046.93 2180.72 2047.57 2180.52 2048.17C2180.32 2048.77 2179.93 2049.28 2179.42 2049.65C2178.91 2050.02 2178.3 2050.21 2177.67 2050.21L2177.71 2050.19Z" fill="#FFFFFF"/>
<path d="M695.05 1603.3L693.91 1601.41L479.7 1246L719.18 1231.82L914.46 1549.9L695.05 1603.3ZM490 1251.43L698 1596.43L905 1546L716 1238.05L490 1251.43Z" fill="#FFFFFF"/>
<path d="M883.1 1503.58L880.55 1498.16L936.2 1471.93L957.75 1473.38L957.35 1479.38L937.35 1478.05L883.1 1503.58ZM979.45 1372.31L933.91 1361.69C896.71 1363.96 839.4 1367.69 799.6 1370.85L799.13 1364.85C839.13 1361.69 896.77 1357.92 933.98 1355.66H934.42L980.82 1366.48L979.45 1372.31Z" fill="#FFFFFF"/>
<path d="M1468.59 937.89L1377.78 839.38C1360.64 842.89 1335.45 850.64 1298.1 859.67C1225 879 1191.2 948.49 1183.84 978.93L1133.05 1301.65L912.94 1345.26L951.94 1496.62C992.82 1489.26 1095.71 1470.45 1180.26 1454.03C1264.81 1437.61 1291.08 1395.2 1293.65 1376.03L1335.21 1142.58L1365 1237L1682.59 1110.78L1658.48 1049.21L1766.22 1169.27L1588.22 1340.12L1692.88 1459.12C1924.38 1316.29 1935.74 1187.2 1912.48 1140.51C1888.19 1090.23 1827.41 966.78 1778.57 875.25C1729.73 783.72 1642.57 776.92 1605.15 784.95L1478.94 814.71L1468.59 937.89Z" fill="#FEDA00"/>
<path d="M1331.65 1128.5C1331.02 1128.5 1330.4 1128.3 1329.89 1127.93C1329.38 1127.56 1329 1127.04 1328.8 1126.44L1308.18 1063.84C1308.06 1063.47 1308.01 1063.07 1308.04 1062.68C1308.07 1062.28 1308.17 1061.9 1308.35 1061.55C1308.53 1061.2 1308.77 1060.88 1309.07 1060.63C1309.37 1060.37 1309.72 1060.17 1310.09 1060.05C1310.46 1059.93 1310.86 1059.88 1311.25 1059.91C1311.65 1059.94 1312.03 1060.04 1312.38 1060.22C1312.73 1060.4 1313.05 1060.64 1313.3 1060.94C1313.56 1061.24 1313.76 1061.59 1313.88 1061.96L1334.5 1124.56C1334.62 1124.93 1334.67 1125.33 1334.64 1125.72C1334.61 1126.12 1334.51 1126.5 1334.33 1126.85C1334.15 1127.2 1333.91 1127.52 1333.61 1127.77C1333.31 1128.03 1332.96 1128.23 1332.59 1128.35C1332.29 1128.45 1331.97 1128.5 1331.65 1128.5Z" fill="#FFFFFF"/>
<path d="M1651.55 1032.3C1650.92 1032.3 1650.3 1032.1 1649.79 1031.73C1649.28 1031.36 1648.9 1030.84 1648.7 1030.24L1628.08 967.64C1627.96 967.266 1627.91 966.871 1627.94 966.478C1627.97 966.085 1628.07 965.701 1628.25 965.349C1628.43 964.997 1628.67 964.684 1628.97 964.427C1629.27 964.169 1629.62 963.973 1629.99 963.85C1630.36 963.727 1630.76 963.678 1631.15 963.707C1631.54 963.736 1631.93 963.843 1632.28 964.02C1632.63 964.197 1632.95 964.442 1633.2 964.741C1633.46 965.039 1633.66 965.386 1633.78 965.76L1654.4 1028.36C1654.52 1028.73 1654.57 1029.13 1654.54 1029.52C1654.51 1029.92 1654.41 1030.3 1654.23 1030.65C1654.05 1031 1653.81 1031.32 1653.51 1031.57C1653.21 1031.83 1652.86 1032.03 1652.49 1032.15C1652.19 1032.25 1651.87 1032.3 1651.55 1032.3Z" fill="#FFFFFF"/>
<path d="M1774.81 1170.71C1774.13 1170.71 1773.47 1170.48 1772.94 1170.05C1772.41 1169.62 1772.04 1169.03 1771.89 1168.37C1771.74 1167.7 1771.82 1167.01 1772.12 1166.4C1772.42 1165.78 1772.91 1165.29 1773.53 1165L1833.15 1136.89C1833.51 1136.7 1833.9 1136.59 1834.3 1136.55C1834.71 1136.52 1835.11 1136.57 1835.5 1136.7C1835.88 1136.83 1836.24 1137.03 1836.54 1137.3C1836.84 1137.57 1837.09 1137.9 1837.26 1138.26C1837.43 1138.63 1837.53 1139.03 1837.55 1139.43C1837.56 1139.84 1837.5 1140.24 1837.35 1140.62C1837.21 1141 1836.99 1141.34 1836.7 1141.63C1836.42 1141.92 1836.08 1142.15 1835.71 1142.31L1776.09 1170.42C1775.69 1170.61 1775.25 1170.71 1774.81 1170.71Z" fill="#FFFFFF"/>
<path d="M595.93 1267.38L581 1243L651.91 1239.79L663.26 1259.26L595.93 1267.38Z" fill="#FFFFFF"/>
<path d="M1734.57 2812.33C1767.36 2812.33 1793.94 2785.75 1793.94 2752.96C1793.94 2720.17 1767.36 2693.59 1734.57 2693.59C1701.78 2693.59 1675.2 2720.17 1675.2 2752.96C1675.2 2785.75 1701.78 2812.33 1734.57 2812.33Z" fill="#FFFFFF"/>
<path d="M2402.88 2423.48C2435.67 2423.48 2462.26 2396.89 2462.26 2364.1C2462.26 2331.31 2435.67 2304.72 2402.88 2304.72C2370.09 2304.72 2343.5 2331.31 2343.5 2364.1C2343.5 2396.89 2370.09 2423.48 2402.88 2423.48Z" fill="#FFFFFF"/>
<path d="M1432.91 2812.33C1465.7 2812.33 1492.28 2785.75 1492.28 2752.96C1492.28 2720.17 1465.7 2693.59 1432.91 2693.59C1400.12 2693.59 1373.54 2720.17 1373.54 2752.96C1373.54 2785.75 1400.12 2812.33 1432.91 2812.33Z" fill="#FFFFFF"/>
<path d="M2199.76 2646.5C2232.55 2646.5 2259.14 2619.91 2259.14 2587.12C2259.14 2554.33 2232.55 2527.74 2199.76 2527.74C2166.97 2527.74 2140.38 2554.33 2140.38 2587.12C2140.38 2619.91 2166.97 2646.5 2199.76 2646.5Z" fill="#FFFFFF"/>
<path d="M563 1104.94L558.46 1101.25L647.36 923.71L646.74 923.2C616.64 898.78 592.97 870.03 576.38 837.76C559.396 805.114 550.523 768.859 550.51 732.06C550.51 661.55 582.81 595.22 641.51 545.29C700.21 495.36 778.22 467.85 861.3 467.85C944.38 467.85 1022.42 495.36 1081.09 545.29C1139.76 595.22 1172.09 661.55 1172.09 732.06C1172.09 802.57 1139.79 868.89 1081.09 918.82C1022.39 968.75 944.37 996.26 861.3 996.26C816.976 996.431 773.014 988.29 731.69 972.26L731.15 972.05L563 1104.94ZM861.22 473.85C779.57 473.85 702.89 500.85 645.31 549.85C588.02 598.62 556.47 663.33 556.47 732.05C556.479 767.91 565.126 803.24 581.68 835.05C597.88 866.57 621.03 894.67 650.48 918.57L654.84 922.12L569.84 1091.9L730.05 965.2L733.79 966.66C774.418 982.423 817.642 990.428 861.22 990.26C942.86 990.26 1019.54 963.26 1077.12 914.26C1134.41 865.49 1165.96 800.79 1165.96 732.07C1165.96 663.35 1134.41 598.64 1077.12 549.87C1019.54 500.85 942.86 473.85 861.22 473.85Z" fill="#FEDA00"/>
<path d="M894.19 822.74C888.19 822.74 882.09 819.83 876.97 814.41C867.17 804.04 868.58 788.74 880.48 776.35C881.663 775.11 882.918 773.941 884.24 772.85C882.153 771.33 879.93 769.84 877.57 768.38C866.43 761.48 857.11 760.46 849.85 765.32C844.34 769.01 840.67 775.43 838.31 781.74L838.19 782.95C836.02 802.95 834.52 803.2 832.44 803.56C831.761 803.68 831.062 803.572 830.451 803.254C829.84 802.935 829.351 802.424 829.06 801.8C827.76 799.12 829.48 790.24 830.87 785.27C831.29 783.77 831.8 782.14 832.41 780.44C833.63 766.73 830.68 763.97 829.3 763.44C822.95 760.9 804.3 777.16 785.9 801.27L780.83 798.11C784.45 790.85 796.54 764.76 799.75 733.55C802.81 703.88 796.63 681.11 781.39 665.87C776.49 660.97 771.13 659.21 765 660.5C735.27 666.79 692.9 744.19 666.12 813.45C665.978 813.818 665.765 814.154 665.494 814.439C665.222 814.725 664.896 814.954 664.536 815.114C664.176 815.273 663.788 815.361 663.394 815.37C663 815.38 662.608 815.312 662.24 815.17C661.872 815.028 661.536 814.815 661.251 814.544C660.965 814.272 660.736 813.947 660.576 813.586C660.417 813.226 660.329 812.838 660.32 812.444C660.31 812.05 660.378 811.658 660.52 811.29C673.41 777.96 690.37 742.29 705.89 715.93C727.77 678.75 747.24 658.13 763.76 654.63C771.91 652.91 779.27 655.26 785.63 661.63C816.35 692.35 807.46 745.98 794.4 781.63C798.51 777.06 802.55 772.95 806.25 769.57C817.42 759.39 825.68 755.57 831.53 757.91C835.19 759.37 837.44 762.91 838.29 768.76C839.763 766.566 841.488 764.552 843.43 762.76C850.19 756.65 862.14 751.76 880.73 763.29C883.05 764.73 886.08 766.72 889.32 769.19C902.87 760.71 921.1 758.9 935.39 771.33C943.39 778.28 949.88 785.74 955.6 792.33C964.54 802.6 971.6 810.69 978.92 810.58C984.1 810.48 990.01 806.23 997 797.58C1018.13 771.43 1042.21 687.17 1052 646.27C1052.09 645.887 1052.26 645.525 1052.49 645.206C1052.72 644.887 1053.01 644.616 1053.35 644.41C1053.69 644.204 1054.06 644.066 1054.45 644.004C1054.84 643.943 1055.24 643.958 1055.62 644.05C1056 644.142 1056.37 644.309 1056.68 644.54C1057 644.772 1057.27 645.064 1057.48 645.4C1057.69 645.736 1057.82 646.11 1057.89 646.499C1057.95 646.889 1057.93 647.287 1057.84 647.67C1055.51 657.38 1046.97 691.97 1034.57 728.95C1022.51 764.95 1011.45 789.26 1001.68 801.35C993.39 811.61 986.2 816.45 979.04 816.59C968.9 816.74 961.04 807.73 951.09 796.28C945.49 789.85 939.15 782.56 931.47 775.88C920.09 765.99 905.62 766.94 894.3 773.24C903.87 781.54 913.3 793.3 911.78 806.53C910.92 813.84 906.33 819.72 899.78 821.88C897.974 822.461 896.087 822.751 894.19 822.74ZM889.11 776.63C887.581 777.814 886.141 779.107 884.8 780.5C877.45 788.16 872.13 800.56 881.33 810.29C886.44 815.7 892.64 817.89 897.91 816.14C902.27 814.7 905.22 810.83 905.81 805.78C906.88 796.78 900.78 786.35 889.11 776.63Z" fill="#FFFFFF"/>
</svg>
