<svg width="3000" height="3000" viewBox="0 0 3000 3000" fill="none" xmlns="http://www.w3.org/2000/svg">
<path d="M2904.7 2815.34H389C388.204 2815.34 387.441 2815.02 386.879 2814.46C386.316 2813.9 386 2813.14 386 2812.34C386 2811.54 386.316 2810.78 386.879 2810.22C387.441 2809.66 388.204 2809.34 389 2809.34H2904.7C2905.5 2809.34 2906.26 2809.66 2906.82 2810.22C2907.38 2810.78 2907.7 2811.54 2907.7 2812.34C2907.7 2813.14 2907.38 2813.9 2906.82 2814.46C2906.26 2815.02 2905.5 2815.34 2904.7 2815.34Z" fill="black"/>
<path d="M2608.71 1583.1C2607.06 1583.1 2605.45 1582.61 2604.08 1581.7C2602.71 1580.78 2601.64 1579.48 2601.01 1577.96C2600.38 1576.44 2600.22 1574.76 2600.54 1573.14C2600.86 1571.53 2601.65 1570.04 2602.82 1568.88C2603.98 1567.71 2605.47 1566.92 2607.08 1566.6C2608.7 1566.28 2610.38 1566.44 2611.9 1567.07C2613.42 1567.7 2614.72 1568.77 2615.64 1570.14C2616.55 1571.51 2617.04 1573.12 2617.04 1574.77C2617.04 1576.98 2616.16 1579.1 2614.6 1580.66C2613.04 1582.22 2610.92 1583.1 2608.71 1583.1ZM2608.71 1572.44C2608.25 1572.44 2607.8 1572.58 2607.42 1572.83C2607.03 1573.09 2606.73 1573.45 2606.56 1573.88C2606.38 1574.3 2606.33 1574.77 2606.42 1575.22C2606.51 1575.68 2606.74 1576.09 2607.06 1576.42C2607.39 1576.74 2607.8 1576.97 2608.26 1577.06C2608.71 1577.14 2609.18 1577.1 2609.6 1576.92C2610.03 1576.75 2610.39 1576.45 2610.65 1576.06C2610.9 1575.68 2611.04 1575.23 2611.04 1574.77C2611.04 1574.15 2610.79 1573.56 2610.36 1573.12C2609.92 1572.69 2609.33 1572.44 2608.71 1572.44Z" fill="black"/>
<path d="M895.72 2086.64C894.072 2086.64 892.462 2086.15 891.092 2085.24C889.722 2084.32 888.654 2083.02 888.024 2081.5C887.393 2079.98 887.228 2078.3 887.55 2076.68C887.871 2075.07 888.664 2073.58 889.829 2072.42C890.994 2071.25 892.479 2070.46 894.095 2070.14C895.71 2069.82 897.385 2069.98 898.907 2070.61C900.43 2071.24 901.73 2072.31 902.646 2073.68C903.561 2075.05 904.05 2076.66 904.05 2078.31C904.047 2080.52 903.169 2082.64 901.607 2084.2C900.045 2085.76 897.928 2086.64 895.72 2086.64ZM895.72 2075.98C895.259 2075.98 894.808 2076.12 894.425 2076.37C894.042 2076.63 893.743 2076.99 893.567 2077.42C893.391 2077.84 893.345 2078.31 893.434 2078.76C893.524 2079.22 893.746 2079.63 894.072 2079.96C894.398 2080.28 894.813 2080.51 895.265 2080.6C895.717 2080.69 896.186 2080.64 896.611 2080.46C897.037 2080.29 897.401 2079.99 897.657 2079.6C897.913 2079.22 898.05 2078.77 898.05 2078.31C898.044 2077.7 897.797 2077.11 897.36 2076.68C896.924 2076.24 896.334 2076 895.72 2076V2075.98Z" fill="black"/>
<path d="M492.4 2243.1C490.752 2243.1 489.142 2242.61 487.772 2241.7C486.402 2240.78 485.334 2239.48 484.704 2237.96C484.073 2236.44 483.908 2234.76 484.23 2233.14C484.551 2231.53 485.345 2230.04 486.51 2228.88C487.675 2227.71 489.159 2226.92 490.775 2226.6C492.391 2226.28 494.065 2226.44 495.588 2227.07C497.11 2227.7 498.411 2228.77 499.326 2230.14C500.241 2231.51 500.73 2233.12 500.73 2234.77C500.727 2236.98 499.849 2239.1 498.287 2240.66C496.725 2242.22 494.608 2243.1 492.4 2243.1ZM492.4 2232.44C491.939 2232.44 491.489 2232.58 491.105 2232.83C490.722 2233.09 490.424 2233.45 490.247 2233.88C490.071 2234.3 490.025 2234.77 490.115 2235.22C490.205 2235.68 490.426 2236.09 490.752 2236.42C491.078 2236.74 491.493 2236.97 491.945 2237.06C492.397 2237.15 492.866 2237.1 493.291 2236.92C493.717 2236.75 494.081 2236.45 494.337 2236.06C494.593 2235.68 494.73 2235.23 494.73 2234.77C494.73 2234.15 494.484 2233.56 494.047 2233.12C493.61 2232.69 493.018 2232.44 492.4 2232.44Z" fill="black"/>
<path d="M501.73 362.38C500.08 362.382 498.467 361.894 497.094 360.979C495.721 360.064 494.65 358.762 494.018 357.238C493.385 355.715 493.218 354.038 493.539 352.419C493.86 350.801 494.653 349.314 495.819 348.146C496.985 346.979 498.471 346.184 500.089 345.861C501.707 345.538 503.385 345.703 504.909 346.334C506.434 346.965 507.737 348.034 508.654 349.405C509.57 350.777 510.06 352.39 510.06 354.04C510.057 356.249 509.179 358.368 507.618 359.931C506.056 361.494 503.939 362.375 501.73 362.38ZM501.73 351.71C501.266 351.708 500.812 351.844 500.426 352.1C500.04 352.356 499.738 352.722 499.56 353.15C499.382 353.578 499.334 354.049 499.424 354.504C499.514 354.959 499.737 355.377 500.065 355.705C500.393 356.032 500.811 356.255 501.266 356.345C501.721 356.435 502.192 356.388 502.62 356.21C503.048 356.032 503.413 355.73 503.67 355.344C503.926 354.957 504.062 354.504 504.06 354.04C504.057 353.423 503.811 352.832 503.375 352.395C502.938 351.959 502.347 351.713 501.73 351.71Z" fill="black"/>
<path d="M1965.78 628.27C1964.13 628.27 1962.52 627.781 1961.15 626.866C1959.78 625.951 1958.71 624.65 1958.08 623.128C1957.45 621.606 1957.29 619.931 1957.61 618.315C1957.93 616.699 1958.72 615.215 1959.89 614.05C1961.05 612.885 1962.54 612.091 1964.16 611.77C1965.77 611.449 1967.45 611.614 1968.97 612.244C1970.49 612.875 1971.79 613.942 1972.71 615.312C1973.62 616.682 1974.11 618.292 1974.11 619.94C1974.11 622.148 1973.23 624.266 1971.67 625.827C1970.11 627.389 1967.99 628.267 1965.78 628.27ZM1965.78 617.61C1965.32 617.61 1964.87 617.747 1964.49 618.003C1964.1 618.259 1963.8 618.623 1963.63 619.048C1963.45 619.474 1963.41 619.943 1963.49 620.395C1963.58 620.846 1963.81 621.262 1964.13 621.588C1964.46 621.913 1964.87 622.135 1965.33 622.225C1965.78 622.315 1966.25 622.269 1966.67 622.093C1967.1 621.916 1967.46 621.618 1967.72 621.234C1967.97 620.851 1968.11 620.401 1968.11 619.94C1968.11 619.322 1967.86 618.729 1967.43 618.292C1966.99 617.855 1966.4 617.61 1965.78 617.61Z" fill="black"/>
<path d="M1249.59 2372.43C1247.94 2372.43 1246.33 2371.94 1244.96 2371.03C1243.59 2370.11 1242.52 2368.81 1241.89 2367.29C1241.26 2365.77 1241.1 2364.09 1241.42 2362.47C1241.74 2360.86 1242.53 2359.37 1243.7 2358.21C1244.86 2357.04 1246.35 2356.25 1247.96 2355.93C1249.58 2355.61 1251.26 2355.77 1252.78 2356.4C1254.3 2357.03 1255.6 2358.1 1256.52 2359.47C1257.43 2360.84 1257.92 2362.45 1257.92 2364.1C1257.92 2366.31 1257.04 2368.43 1255.48 2369.99C1253.92 2371.55 1251.8 2372.43 1249.59 2372.43ZM1249.59 2361.77C1249.13 2361.77 1248.68 2361.91 1248.3 2362.16C1247.91 2362.42 1247.61 2362.78 1247.44 2363.21C1247.26 2363.63 1247.21 2364.1 1247.3 2364.55C1247.39 2365.01 1247.62 2365.42 1247.94 2365.75C1248.27 2366.07 1248.68 2366.3 1249.14 2366.39C1249.59 2366.48 1250.06 2366.43 1250.48 2366.25C1250.91 2366.08 1251.27 2365.78 1251.53 2365.39C1251.78 2365.01 1251.92 2364.56 1251.92 2364.1C1251.92 2363.48 1251.67 2362.89 1251.24 2362.45C1250.8 2362.02 1250.21 2361.77 1249.59 2361.77Z" fill="black"/>
<path d="M2599.38 805.91C2598.75 805.91 2598.13 805.711 2597.62 805.34L2568.25 784C2567.61 783.532 2567.17 782.827 2567.05 782.04C2566.92 781.254 2567.12 780.449 2567.59 779.805C2568.05 779.161 2568.76 778.728 2569.54 778.604C2570.33 778.479 2571.14 778.672 2571.78 779.14L2601.14 800.5C2601.65 800.873 2602.03 801.398 2602.22 801.998C2602.42 802.599 2602.42 803.246 2602.22 803.847C2602.03 804.447 2601.65 804.971 2601.14 805.343C2600.63 805.715 2600.01 805.917 2599.38 805.92V805.91Z" fill="black"/>
<path d="M874.93 2664.28C864.93 2664.28 855.28 2663.84 845.93 2662.97C845.134 2662.9 844.401 2662.51 843.89 2661.89C843.38 2661.28 843.136 2660.49 843.21 2659.69C843.284 2658.89 843.671 2658.16 844.286 2657.65C844.902 2657.14 845.694 2656.9 846.49 2656.97C862.783 2658.43 879.163 2658.66 895.49 2657.65C896.285 2657.6 897.067 2657.87 897.664 2658.4C898.26 2658.93 898.622 2659.67 898.67 2660.47C898.717 2661.27 898.447 2662.05 897.918 2662.64C897.389 2663.24 896.645 2663.6 895.85 2663.65C888.783 2664.07 881.81 2664.28 874.93 2664.28ZM838.32 2662.13H837.95C830.23 2661.13 822.65 2659.91 815.43 2658.37C815.028 2658.31 814.643 2658.16 814.299 2657.94C813.955 2657.73 813.658 2657.44 813.428 2657.1C813.198 2656.77 813.038 2656.39 812.959 2655.99C812.88 2655.59 812.883 2655.18 812.968 2654.78C813.053 2654.38 813.218 2654.01 813.453 2653.67C813.688 2653.34 813.989 2653.06 814.336 2652.85C814.683 2652.64 815.07 2652.5 815.473 2652.44C815.876 2652.38 816.287 2652.4 816.68 2652.51C823.73 2654.01 831.13 2655.24 838.68 2656.17C839.475 2656.22 840.22 2656.58 840.748 2657.18C841.277 2657.77 841.547 2658.55 841.5 2659.35C841.452 2660.15 841.09 2660.89 840.494 2661.42C839.897 2661.95 839.115 2662.22 838.32 2662.17V2662.13ZM807.41 2656.4C807.16 2656.4 806.912 2656.37 806.67 2656.31C799.48 2654.49 792.42 2652.31 785.67 2649.91C784.976 2649.61 784.423 2649.05 784.122 2648.35C783.821 2647.66 783.795 2646.87 784.048 2646.16C784.301 2645.45 784.815 2644.85 785.487 2644.5C786.159 2644.15 786.939 2644.07 787.67 2644.27C794.21 2646.63 801.08 2648.72 808.08 2650.49C808.79 2650.67 809.41 2651.1 809.824 2651.7C810.239 2652.31 810.418 2653.04 810.328 2653.77C810.238 2654.49 809.886 2655.16 809.337 2655.65C808.789 2656.13 808.082 2656.4 807.35 2656.4H807.41ZM778.21 2646.82C777.821 2646.82 777.437 2646.74 777.08 2646.59C773.23 2645.01 769.42 2643.31 765.77 2641.54C765.076 2641.18 764.55 2640.56 764.303 2639.82C764.057 2639.08 764.109 2638.27 764.449 2637.57C764.789 2636.87 765.39 2636.32 766.124 2636.06C766.858 2635.79 767.667 2635.82 768.38 2636.14C771.93 2637.86 775.62 2639.51 779.38 2641.05C780.02 2641.32 780.548 2641.8 780.875 2642.41C781.201 2643.02 781.305 2643.73 781.17 2644.41C781.034 2645.09 780.667 2645.7 780.131 2646.14C779.595 2646.58 778.923 2646.82 778.23 2646.82H778.21ZM751.64 2633.48C751.094 2633.48 750.558 2633.33 750.09 2633.05C676.99 2589.05 651.38 2506.48 651.66 2449.18V2449.06C652.12 2438.47 653.1 2426.21 654.66 2412.86C635.897 2414.7 616.956 2412.75 598.96 2407.13C586.43 2403.31 575.75 2397.81 567.22 2390.76C566.888 2390.52 566.609 2390.21 566.4 2389.86C566.191 2389.51 566.057 2389.12 566.005 2388.71C565.953 2388.3 565.985 2387.89 566.099 2387.5C566.212 2387.1 566.406 2386.74 566.666 2386.42C566.927 2386.11 567.249 2385.85 567.614 2385.66C567.979 2385.47 568.378 2385.36 568.787 2385.34C569.196 2385.31 569.606 2385.37 569.991 2385.51C570.377 2385.64 570.731 2385.86 571.03 2386.14C578.96 2392.67 588.94 2397.8 600.7 2401.39C618.383 2406.91 637.014 2408.72 655.43 2406.72C665.38 2330.78 694.95 2224.04 760.52 2186.89C789.4 2170.52 810.61 2168.01 823.52 2179.4C841.17 2194.94 837.63 2234.3 825 2265.15V2265.24C801.75 2317.02 742.29 2400.12 660.81 2412.09C658.69 2429.51 657.9 2442.69 657.62 2449.26C657.36 2504.99 682.23 2585.19 753.15 2627.91C753.712 2628.25 754.147 2628.76 754.39 2629.37C754.632 2629.98 754.668 2630.65 754.492 2631.28C754.316 2631.92 753.938 2632.47 753.416 2632.87C752.894 2633.27 752.256 2633.48 751.6 2633.48H751.64ZM803.5 2178.48C793 2178.48 779.5 2183.05 763.5 2192.11C729.97 2211.11 702.02 2252.42 682.69 2311.56C671.3 2346.4 665.05 2380.05 661.62 2405.88C739.76 2393.43 797 2313 819.55 2262.83C831.06 2234.66 835 2197.44 819.63 2183.91C815.51 2180.28 810.1 2178.48 803.5 2178.48ZM563.86 2386.59C563.461 2386.59 563.067 2386.51 562.699 2386.36C562.332 2386.2 561.999 2385.97 561.72 2385.69C556.278 2380.14 551.803 2373.72 548.48 2366.69C548.138 2365.97 548.095 2365.15 548.361 2364.4C548.628 2363.65 549.181 2363.03 549.9 2362.69C550.619 2362.35 551.444 2362.31 552.194 2362.57C552.944 2362.84 553.558 2363.39 553.9 2364.11C556.936 2370.53 561.026 2376.39 566 2381.46C566.413 2381.88 566.693 2382.42 566.804 2383C566.915 2383.58 566.852 2384.18 566.624 2384.72C566.395 2385.27 566.011 2385.73 565.519 2386.06C565.028 2386.38 564.45 2386.56 563.86 2386.56V2386.59ZM547.38 2358.67C546.739 2358.67 546.114 2358.47 545.598 2358.09C545.081 2357.71 544.7 2357.17 544.51 2356.56C542.544 2350.15 541.267 2343.54 540.7 2336.86C540.628 2336.06 540.876 2335.27 541.388 2334.66C541.899 2334.05 542.634 2333.66 543.43 2333.59C544.225 2333.52 545.017 2333.77 545.63 2334.28C546.243 2334.79 546.628 2335.52 546.7 2336.32C547.231 2342.58 548.425 2348.77 550.26 2354.78C550.375 2355.16 550.415 2355.55 550.377 2355.95C550.339 2356.34 550.224 2356.72 550.038 2357.07C549.853 2357.42 549.6 2357.73 549.295 2357.98C548.989 2358.23 548.638 2358.42 548.26 2358.53C547.976 2358.62 547.679 2358.67 547.38 2358.67ZM543.38 2321.98H543.22C542.425 2321.94 541.681 2321.58 541.15 2320.99C540.62 2320.39 540.346 2319.61 540.39 2318.82C541.85 2291.03 551.39 2258.13 568.74 2221.02C582.963 2190.92 599.889 2162.18 619.31 2135.14C619.777 2134.49 620.481 2134.06 621.267 2133.93C622.054 2133.81 622.859 2134 623.505 2134.47C624.151 2134.93 624.584 2135.64 624.711 2136.42C624.838 2137.21 624.647 2138.01 624.18 2138.66C590.18 2185.72 549.43 2261.23 546.38 2319.14C546.344 2319.9 546.018 2320.63 545.468 2321.16C544.917 2321.69 544.185 2321.99 543.42 2322L543.38 2321.98Z" fill="#FEDA00"/>
<path d="M2135.22 514.75C2134.64 514.747 2134.07 514.577 2133.59 514.26C2133.26 514.046 2132.97 513.769 2132.75 513.445C2132.52 513.12 2132.37 512.755 2132.28 512.369C2132.2 511.984 2132.2 511.586 2132.27 511.198C2132.34 510.811 2132.49 510.441 2132.7 510.11C2151.12 481.71 2199.64 409.21 2252.37 349.75C2275.58 323.57 2296.37 303.75 2314.02 290.75C2334.75 275.57 2351.7 269.66 2364.39 273.2C2377.5 276.84 2385.83 290.2 2389.28 313.13C2401.14 302.162 2414.9 293.443 2429.89 287.4C2465.99 273.07 2505.62 276.35 2544.49 296.89C2544.86 297.063 2545.18 297.309 2545.45 297.612C2545.72 297.915 2545.92 298.27 2546.05 298.654C2546.18 299.038 2546.23 299.445 2546.2 299.848C2546.16 300.252 2546.05 300.645 2545.86 301.003C2545.67 301.361 2545.41 301.677 2545.1 301.933C2544.78 302.188 2544.42 302.376 2544.03 302.487C2543.64 302.598 2543.23 302.629 2542.83 302.578C2542.43 302.527 2542.04 302.395 2541.69 302.19C2504.42 282.5 2466.53 279.31 2432.1 292.97C2416.45 299.305 2402.21 308.664 2390.19 320.51C2390.58 324.41 2390.84 328.543 2390.98 332.91C2392.34 375 2391.68 447 2371.98 456.17C2367.87 458.08 2363.37 457.11 2359.29 453.45C2353.02 447.81 2347.73 435.92 2345.16 421.65C2342.33 406 2343.21 390.25 2347.63 377.3C2355.17 355.16 2367.58 334.997 2383.96 318.3C2381.32 295.38 2374.23 282.19 2362.81 279.01C2348.29 275.01 2318.14 284.65 2256.88 353.73C2204.42 412.89 2156.1 485.08 2137.76 513.38C2137.49 513.803 2137.11 514.151 2136.67 514.39C2136.22 514.63 2135.72 514.754 2135.22 514.75ZM2384.65 326.25C2370.66 341.567 2359.98 359.611 2353.29 379.25C2344.23 405.78 2353.11 439.85 2363.29 449C2366.65 452 2368.74 451.06 2369.43 450.74C2378.64 446.45 2387.57 413.3 2384.98 333.11C2384.91 330.76 2384.79 328.46 2384.65 326.25Z" fill="black"/>
<path d="M2021.2 1085.58C2020.57 1085.58 2019.95 1085.38 2019.44 1085.01L1990.08 1063.65C1989.76 1063.42 1989.49 1063.13 1989.28 1062.79C1989.08 1062.46 1988.94 1062.08 1988.88 1061.69C1988.82 1061.3 1988.83 1060.91 1988.92 1060.52C1989.01 1060.14 1989.18 1059.78 1989.41 1059.46C1989.64 1059.14 1989.93 1058.87 1990.27 1058.66C1990.6 1058.46 1990.98 1058.32 1991.37 1058.26C1991.76 1058.2 1992.15 1058.21 1992.54 1058.3C1992.92 1058.39 1993.28 1058.56 1993.6 1058.79L2022.96 1080.15C2023.47 1080.52 2023.86 1081.05 2024.05 1081.65C2024.25 1082.25 2024.25 1082.9 2024.05 1083.51C2023.86 1084.11 2023.48 1084.63 2022.96 1085.01C2022.45 1085.38 2021.83 1085.58 2021.2 1085.58Z" fill="black"/>
<path d="M1498.86 214.31C1498.2 214.312 1497.55 214.093 1497.02 213.687C1496.49 213.282 1496.12 212.712 1495.95 212.069C1495.78 211.426 1495.83 210.745 1496.09 210.133C1496.35 209.522 1496.81 209.014 1497.39 208.69L1529 190.9C1529.7 190.51 1530.52 190.412 1531.28 190.628C1532.05 190.844 1532.7 191.355 1533.09 192.05C1533.48 192.745 1533.58 193.566 1533.36 194.333C1533.15 195.1 1532.64 195.75 1531.94 196.14L1500.3 213.92C1499.86 214.174 1499.37 214.308 1498.86 214.31Z" fill="black"/>
<path d="M1092.44 2623C1091.81 2623 1091.19 2622.8 1090.68 2622.43L1061.32 2601.08C1060.68 2600.61 1060.24 2599.91 1060.12 2599.12C1059.99 2598.34 1060.18 2597.53 1060.65 2596.89C1061.12 2596.25 1061.82 2595.81 1062.61 2595.69C1063.39 2595.56 1064.2 2595.75 1064.84 2596.22L1094.2 2617.57C1094.71 2617.94 1095.1 2618.47 1095.29 2619.07C1095.49 2619.67 1095.49 2620.32 1095.29 2620.92C1095.1 2621.53 1094.72 2622.05 1094.2 2622.43C1093.69 2622.8 1093.07 2623 1092.44 2623Z" fill="black"/>
<path d="M236.76 1761C236.122 1761 235.502 1760.79 234.988 1760.42C234.474 1760.04 234.095 1759.51 233.904 1758.9C233.714 1758.29 233.722 1757.63 233.928 1757.03C234.134 1756.43 234.527 1755.91 235.05 1755.54L264.84 1734.79C265.493 1734.36 266.287 1734.2 267.054 1734.35C267.821 1734.5 268.5 1734.94 268.947 1735.58C269.393 1736.22 269.572 1737.01 269.446 1737.78C269.32 1738.55 268.898 1739.25 268.27 1739.71L238.48 1760.46C237.976 1760.81 237.375 1761 236.76 1761Z" fill="black"/>
<path d="M1950.89 2527C1950.25 2527 1949.63 2526.8 1949.11 2526.42C1948.6 2526.04 1948.22 2525.51 1948.03 2524.9C1947.83 2524.29 1947.84 2523.64 1948.05 2523.03C1948.25 2522.43 1948.65 2521.91 1949.17 2521.54L1978.96 2500.79C1979.28 2500.55 1979.65 2500.38 1980.04 2500.29C1980.43 2500.19 1980.83 2500.18 1981.23 2500.24C1981.63 2500.31 1982 2500.45 1982.34 2500.66C1982.68 2500.88 1982.98 2501.16 1983.21 2501.49C1983.43 2501.81 1983.6 2502.19 1983.68 2502.58C1983.76 2502.97 1983.77 2503.38 1983.69 2503.77C1983.61 2504.16 1983.46 2504.54 1983.24 2504.87C1983.01 2505.2 1982.72 2505.49 1982.39 2505.71L1952.6 2526.46C1952.1 2526.81 1951.5 2527 1950.89 2527Z" fill="black"/>
<path d="M2696.34 2018.13C2695.7 2018.13 2695.08 2017.93 2694.56 2017.55C2694.05 2017.17 2693.67 2016.64 2693.48 2016.03C2693.28 2015.42 2693.29 2014.77 2693.5 2014.16C2693.7 2013.56 2694.1 2013.04 2694.62 2012.67L2724.42 1991.92C2725.07 1991.51 2725.86 1991.38 2726.61 1991.53C2727.36 1991.69 2728.03 1992.13 2728.47 1992.76C2728.9 1993.39 2729.08 1994.16 2728.97 1994.92C2728.85 1995.68 2728.45 1996.37 2727.84 1996.84L2698.05 2017.59C2697.55 2017.94 2696.95 2018.13 2696.34 2018.13Z" fill="black"/>
<path d="M382.23 851C381.751 851.001 381.278 850.887 380.852 850.668C380.426 850.449 380.058 850.13 379.78 849.74L358.78 820.16C358.319 819.512 358.134 818.706 358.266 817.922C358.398 817.137 358.837 816.436 359.485 815.975C360.134 815.514 360.939 815.329 361.724 815.461C362.508 815.593 363.209 816.032 363.67 816.68L384.72 846.26C385.039 846.708 385.229 847.236 385.269 847.785C385.308 848.334 385.196 848.884 384.944 849.373C384.692 849.863 384.31 850.273 383.84 850.56C383.37 850.847 382.831 850.999 382.28 851H382.23Z" fill="black"/>
<path d="M2742.39 479.32C2741.69 479.325 2741.01 479.084 2740.46 478.638C2739.92 478.192 2739.55 477.569 2739.42 476.879C2739.29 476.189 2739.4 475.474 2739.75 474.86C2740.09 474.247 2740.63 473.772 2741.29 473.52L2775.08 460.25C2775.82 459.982 2776.63 460.011 2777.34 460.332C2778.05 460.653 2778.61 461.24 2778.9 461.968C2779.19 462.696 2779.18 463.507 2778.88 464.228C2778.57 464.95 2778 465.524 2777.28 465.83L2743.49 479.11C2743.14 479.247 2742.77 479.318 2742.39 479.32Z" fill="black"/>
<path d="M2617.57 220.65C2617.07 220.65 2616.58 220.525 2616.14 220.286C2615.69 220.046 2615.32 219.701 2615.05 219.28L2595.3 188.82C2594.95 188.159 2594.86 187.391 2595.05 186.668C2595.23 185.944 2595.68 185.315 2596.31 184.906C2596.93 184.497 2597.69 184.336 2598.43 184.455C2599.17 184.574 2599.83 184.965 2600.3 185.55L2620.09 216C2620.3 216.331 2620.45 216.701 2620.52 217.088C2620.59 217.476 2620.59 217.874 2620.5 218.259C2620.42 218.645 2620.26 219.01 2620.04 219.335C2619.82 219.659 2619.53 219.936 2619.2 220.15C2618.72 220.471 2618.15 220.644 2617.57 220.65Z" fill="black"/>
<path d="M256.25 2572.08C255.749 2572.08 255.256 2571.95 254.816 2571.72C254.375 2571.48 254.002 2571.13 253.73 2570.71L234 2540.25C233.66 2539.59 233.576 2538.83 233.766 2538.11C233.956 2537.39 234.406 2536.77 235.028 2536.36C235.65 2535.96 236.401 2535.8 237.135 2535.91C237.868 2536.03 238.533 2536.41 239 2536.99L258.75 2567.45C259.043 2567.9 259.209 2568.43 259.229 2568.97C259.25 2569.51 259.124 2570.04 258.866 2570.51C258.608 2570.99 258.227 2571.38 257.763 2571.66C257.299 2571.93 256.77 2572.08 256.23 2572.08H256.25Z" fill="black"/>
<path d="M2491.52 2378.49L2248.63 2373.78L2248.75 2367.78L2485.52 2372.37V1194.88L2270.34 1189.77L2270.48 1183.77L2491.48 1189.02L2491.52 2378.49ZM2154.69 2372.07L1664.22 2362.46L1664.34 2356.46L2154.81 2366.07L2154.69 2372.07ZM2108.1 1185.92L1899.7 1181L1899.84 1175L2108.24 1179.94L2108.1 1185.92Z" fill="#FEDA00"/>
<path d="M2197.82 2039.18H2197.64L1944.71 2024C1943.91 2023.95 1943.17 2023.59 1942.64 2022.99C1942.11 2022.4 1941.84 2021.62 1941.89 2020.82C1941.94 2020.02 1942.3 2019.28 1942.9 2018.75C1943.49 2018.22 1944.27 2017.95 1945.07 2018L2198 2033.2C2198.39 2033.21 2198.78 2033.3 2199.14 2033.46C2199.5 2033.62 2199.82 2033.86 2200.09 2034.14C2200.36 2034.43 2200.58 2034.77 2200.72 2035.14C2200.86 2035.5 2200.92 2035.9 2200.91 2036.29C2200.9 2036.68 2200.81 2037.07 2200.65 2037.43C2200.49 2037.79 2200.25 2038.11 2199.97 2038.38C2199.68 2038.66 2199.34 2038.87 2198.97 2039.01C2198.61 2039.15 2198.21 2039.21 2197.82 2039.2V2039.18ZM2272.45 1873.33H1902.05C1901.25 1873.33 1900.49 1873.01 1899.93 1872.45C1899.37 1871.89 1899.05 1871.13 1899.05 1870.33C1899.05 1869.53 1899.37 1868.77 1899.93 1868.21C1900.49 1867.65 1901.25 1867.33 1902.05 1867.33H2272.45C2273.25 1867.33 2274.01 1867.65 2274.57 1868.21C2275.13 1868.77 2275.45 1869.53 2275.45 1870.33C2275.45 1871.13 2275.13 1871.89 2274.57 1872.45C2274.01 1873.01 2273.25 1873.33 2272.45 1873.33ZM2272.45 1711.62H1917.25C1916.45 1711.62 1915.69 1711.3 1915.13 1710.74C1914.57 1710.18 1914.25 1709.42 1914.25 1708.62C1914.25 1707.82 1914.57 1707.06 1915.13 1706.5C1915.69 1705.94 1916.45 1705.62 1917.25 1705.62H2272.45C2273.25 1705.62 2274.01 1705.94 2274.57 1706.5C2275.13 1707.06 2275.45 1707.82 2275.45 1708.62C2275.45 1709.42 2275.13 1710.18 2274.57 1710.74C2274.01 1711.3 2273.25 1711.62 2272.45 1711.62ZM2309.77 1588.62H1902.05C1901.25 1588.62 1900.49 1588.3 1899.93 1587.74C1899.37 1587.18 1899.05 1586.42 1899.05 1585.62C1899.05 1584.82 1899.37 1584.06 1899.93 1583.5C1900.49 1582.94 1901.25 1582.62 1902.05 1582.62H2309.77C2310.57 1582.62 2311.33 1582.94 2311.89 1583.5C2312.45 1584.06 2312.77 1584.82 2312.77 1585.62C2312.77 1586.42 2312.45 1587.18 2311.89 1587.74C2311.33 1588.3 2310.57 1588.62 2309.77 1588.62ZM2296 1455.93H1991.88C1991.08 1455.93 1990.32 1455.61 1989.76 1455.05C1989.2 1454.49 1988.88 1453.73 1988.88 1452.93C1988.88 1452.13 1989.2 1451.37 1989.76 1450.81C1990.32 1450.25 1991.08 1449.93 1991.88 1449.93H2296C2296.8 1449.93 2297.56 1450.25 2298.12 1450.81C2298.68 1451.37 2299 1452.13 2299 1452.93C2299 1453.73 2298.68 1454.49 2298.12 1455.05C2297.56 1455.61 2296.8 1455.93 2296 1455.93ZM2331.93 1324.63H2116.27C2115.47 1324.63 2114.71 1324.31 2114.15 1323.75C2113.59 1323.19 2113.27 1322.43 2113.27 1321.63C2113.27 1320.83 2113.59 1320.07 2114.15 1319.51C2114.71 1318.95 2115.47 1318.63 2116.27 1318.63H2331.88C2332.68 1318.63 2333.44 1318.95 2334 1319.51C2334.56 1320.07 2334.88 1320.83 2334.88 1321.63C2334.88 1322.43 2334.56 1323.19 2334 1323.75C2333.44 1324.31 2332.68 1324.63 2331.88 1324.63H2331.93Z" fill="#FEDA00"/>
<path d="M1785.31 2221.52H1620.7V2215.52H1785.31V2221.52ZM1318.31 2221.52H672.83L672.78 2218.57L649.23 724H652.23L650.08 721.91L902.74 462.77L904.89 464.87V461.87H1903.55V2023.34H1897.55V467.87H907.89V772.5L655.29 727.5L678.73 2215.5H1318.29L1318.31 2221.52ZM658.33 722L901.89 765.35V472.24L658.33 722Z" fill="black"/>
<path d="M851.5 1609.46L808.32 1493C808.16 1492.63 808.078 1492.22 808.078 1491.82C808.079 1491.41 808.162 1491.01 808.322 1490.64C808.483 1490.26 808.717 1489.92 809.012 1489.64C809.307 1489.36 809.656 1489.15 810.037 1489.01C810.418 1488.87 810.824 1488.8 811.23 1488.82C811.636 1488.84 812.034 1488.95 812.399 1489.13C812.764 1489.31 813.089 1489.56 813.354 1489.86C813.619 1490.17 813.818 1490.53 813.94 1490.92L850.58 1589.68L893.27 1430.44C893.361 1430.05 893.531 1429.68 893.768 1429.35C894.005 1429.03 894.306 1428.75 894.651 1428.55C894.996 1428.34 895.38 1428.2 895.779 1428.15C896.178 1428.09 896.583 1428.12 896.972 1428.22C897.361 1428.33 897.725 1428.51 898.042 1428.76C898.359 1429.01 898.622 1429.32 898.817 1429.67C899.012 1430.02 899.134 1430.41 899.176 1430.81C899.217 1431.21 899.178 1431.62 899.06 1432L851.5 1609.46ZM1369.91 1587H955.16C954.364 1587 953.601 1586.68 953.039 1586.12C952.476 1585.56 952.16 1584.8 952.16 1584C952.16 1583.2 952.476 1582.44 953.039 1581.88C953.601 1581.32 954.364 1581 955.16 1581H1369.91C1370.71 1581 1371.47 1581.32 1372.03 1581.88C1372.59 1582.44 1372.91 1583.2 1372.91 1584C1372.91 1584.8 1372.59 1585.56 1372.03 1586.12C1371.47 1586.68 1370.71 1587 1369.91 1587ZM851.74 1300L848.28 1291.92C831.4 1252.37 786.95 1148.14 784.05 1140.92C783.789 1140.19 783.821 1139.38 784.141 1138.68C784.461 1137.97 785.043 1137.41 785.764 1137.12C786.486 1136.84 787.291 1136.84 788.01 1137.13C788.73 1137.43 789.307 1137.99 789.62 1138.7C792.08 1144.84 826.06 1224.59 850.35 1281.52L893.26 1116.52C893.359 1116.14 893.533 1115.78 893.77 1115.47C894.008 1115.15 894.305 1114.89 894.645 1114.69C894.985 1114.49 895.36 1114.36 895.751 1114.3C896.141 1114.25 896.539 1114.27 896.92 1114.37C897.301 1114.47 897.66 1114.64 897.974 1114.88C898.289 1115.12 898.553 1115.41 898.753 1115.75C898.953 1116.09 899.083 1116.47 899.138 1116.86C899.192 1117.25 899.169 1117.65 899.07 1118.03L851.74 1300ZM1076.64 1281.6H955.16C954.364 1281.6 953.601 1281.28 953.039 1280.72C952.476 1280.16 952.16 1279.4 952.16 1278.6C952.16 1277.8 952.476 1277.04 953.039 1276.48C953.601 1275.92 954.364 1275.6 955.16 1275.6H1076.64C1077.44 1275.6 1078.2 1275.92 1078.76 1276.48C1079.32 1277.04 1079.64 1277.8 1079.64 1278.6C1079.64 1279.4 1079.32 1280.16 1078.76 1280.72C1078.2 1281.28 1077.44 1281.6 1076.64 1281.6ZM1694.41 983.12H1531.69C1530.89 983.12 1530.13 982.804 1529.57 982.241C1529.01 981.679 1528.69 980.916 1528.69 980.12C1528.69 979.324 1529.01 978.561 1529.57 977.999C1530.13 977.436 1530.89 977.12 1531.69 977.12H1694.41C1695.21 977.12 1695.97 977.436 1696.53 977.999C1697.09 978.561 1697.41 979.324 1697.41 980.12C1697.41 980.916 1697.09 981.679 1696.53 982.241C1695.97 982.804 1695.21 983.12 1694.41 983.12ZM1493.55 983.12H939.55C938.754 983.12 937.991 982.804 937.429 982.241C936.866 981.679 936.55 980.916 936.55 980.12C936.55 979.324 936.866 978.561 937.429 977.999C937.991 977.436 938.754 977.12 939.55 977.12H1493.55C1494.35 977.12 1495.11 977.436 1495.67 977.999C1496.23 978.561 1496.55 979.324 1496.55 980.12C1496.55 980.916 1496.23 981.679 1495.67 982.241C1495.11 982.804 1494.35 983.12 1493.55 983.12ZM851.94 976.51L784.33 874.14C783.944 873.478 783.826 872.692 784 871.945C784.175 871.199 784.629 870.547 785.269 870.125C785.909 869.702 786.687 869.541 787.442 869.674C788.197 869.807 788.873 870.224 789.33 870.84L850.14 962.84L893.31 833.33C893.573 832.59 894.116 831.983 894.823 831.639C895.529 831.295 896.341 831.242 897.087 831.49C897.832 831.739 898.449 832.27 898.807 832.969C899.165 833.669 899.234 834.48 899 835.23L851.94 976.51Z" fill="black"/>
<path d="M1127.29 1513.66C1014.29 1437.81 992.09 1134.61 993.63 980.98C1023.97 1097.74 1093.18 1345.33 1127.29 1401.56C1161.4 1457.79 1234.45 1434.2 1266.71 1415.38L1401.53 1354.31C1397.09 1390.31 1391.77 1433.51 1386 1480.5C1321.7 1527.6 1193.63 1558.18 1127.29 1513.66Z" fill="black"/>
<path d="M1768.18 1462.72L1899.52 2025.86L1812.84 1384.86L1899.52 1453.32V1488C1931.84 1508.24 1977.52 1519.45 2028.98 1515C2163.98 1503.34 2194.78 1328.58 2233.25 1234.41L2304.86 1183.16H2278.42L2218.78 1220L2206.25 1243.14C2173.68 1301.39 2092.63 1426.86 2028.98 1462.76C1965.33 1498.66 1916.16 1447.76 1899.52 1417.89L1768.18 1282.89V1462.72Z" fill="black"/>
<path d="M1355.09 2604L1354.66 2601.2C1337.58 2491.56 1307 2249.8 1313.5 2119.51C1320.64 1976.75 1362.21 1622.12 1376.2 1509.15C1376.3 1508.35 1376.71 1507.63 1377.34 1507.14C1377.97 1506.64 1378.77 1506.42 1379.57 1506.52C1380.37 1506.62 1381.09 1507.03 1381.58 1507.66C1382.08 1508.29 1382.3 1509.09 1382.2 1509.89C1368.2 1622.81 1326.67 1977.23 1319.54 2119.81C1313.11 2248.52 1343.07 2486.81 1360.19 2597.48L1717.66 2563.15L1593.12 2138.48L1610.65 1905.89V1905.81L1624 1728.81C1624.06 1728.01 1624.44 1727.28 1625.04 1726.76C1625.65 1726.24 1626.43 1725.98 1627.23 1726.04C1628.03 1726.1 1628.76 1726.48 1629.28 1727.08C1629.8 1727.69 1630.06 1728.47 1630 1729.27L1616.67 1906.12C1621.33 1992.96 1679.97 2179.43 1868.79 2264.96C2055.61 2349.59 2194.05 2378.13 2243.65 2381.73L2316 2140.28L1893.68 2025.47L1893.3 2023.68L1776.3 1471.04C1776.19 1470.65 1776.17 1470.23 1776.22 1469.83C1776.28 1469.42 1776.42 1469.04 1776.63 1468.69C1776.85 1468.34 1777.13 1468.04 1777.46 1467.8C1777.79 1467.56 1778.17 1467.4 1778.57 1467.31C1778.97 1467.23 1779.39 1467.23 1779.79 1467.31C1780.19 1467.39 1780.57 1467.55 1780.9 1467.78C1781.24 1468.02 1781.52 1468.31 1781.74 1468.66C1781.96 1469.01 1782.1 1469.4 1782.16 1469.8L1898.8 2020.65L2323.52 2136.1L2248 2388L2245.63 2387.85C2197.8 2385 2056.97 2356.78 1866.28 2270.4C1695.57 2193.07 1629.8 2034.3 1614.21 1938.4L1599.21 2137.88L1725.49 2568.47L1355.09 2604Z" fill="black"/>
<path d="M1609.13 2809.56H1694.41L1651.36 2570.89L1496.16 2588L1509.84 2631.32L1164.84 2809.53H1563.3L1601.49 2757.34L1609.13 2809.56Z" fill="black"/>
<path d="M2521.34 2311.87L2547.21 2230.6L2304.51 2198.3L2257.92 2352.3L2321.41 2352.41L2386.56 2735.18L2507.44 2355.53L2469.29 2303.31L2521.34 2311.87Z" fill="black"/>
<path d="M1535 1092.34C1527.94 1092.37 1520.94 1090.91 1514.48 1088.06C1497.71 1080.66 1485.9 1064.17 1482.07 1042.81L1481.92 1041.99H1481C1477.37 1041.99 1472.67 1041.71 1467 1041.27L1460.06 1040.72L1465.23 1036.05C1474.23 1027.96 1480.17 1017.39 1483.55 1003.73C1485.06 997.665 1487.09 991.743 1489.62 986.03C1498.62 965.61 1513.2 949.13 1530.62 939.6C1548.04 930.07 1566.1 928.68 1581.62 935.55C1597.14 942.42 1608.33 956.78 1613.02 975.99C1617.71 995.2 1615.37 1017.17 1606.36 1037.59C1597.35 1058.01 1582.79 1074.49 1565.36 1084.02C1555.35 1089.55 1545 1092.34 1535 1092.34ZM1474.12 1035.73C1476.79 1035.88 1479.12 1035.96 1481.12 1035.98L1486.91 1036.05L1487.91 1041.75C1491.39 1061.11 1501.91 1075.99 1516.84 1082.58C1530.65 1088.68 1546.9 1087.32 1562.58 1078.75C1578.88 1069.85 1592.52 1054.37 1600.99 1035.16C1609.46 1015.95 1611.72 995.43 1607.32 977.4C1603.08 960.04 1593.13 947.13 1579.32 941.03C1565.51 934.93 1549.32 936.29 1533.59 944.86C1517.3 953.75 1503.65 969.23 1495.17 988.45C1492.79 993.846 1490.87 999.436 1489.44 1005.16C1486.42 1017.5 1481.36 1027.56 1474.08 1035.73H1474.12Z" fill="black"/>
<path d="M1550.44 1022.41C1520.6 996.79 1520.81 958.03 1524.08 944.29C1573.49 898.86 1644.32 924.6 1651.45 980.72C1651.45 1014.8 1655.16 1032.47 1667.27 1041.19C1695.69 1055.99 1695 1086.4 1693.27 1103.7L1593.78 1109.62L1587.31 1057.86C1577.31 1055.91 1570.21 1048.61 1567.56 1044.56C1577.45 1039.67 1589.32 1025.97 1579.56 1014.8C1569.8 1003.63 1549.11 1021.24 1550.44 1022.41Z" fill="black"/>
<path d="M1500.09 1000.8C1499.49 1000.8 1498.91 1000.62 1498.42 1000.29C1497.92 999.954 1497.54 999.481 1497.31 998.928C1497.09 998.375 1497.03 997.768 1497.16 997.184C1497.28 996.6 1497.57 996.066 1498 995.65C1503.84 989.97 1518.69 982.54 1533.06 995.11C1533.38 995.36 1533.65 995.674 1533.85 996.032C1534.05 996.39 1534.17 996.785 1534.21 997.193C1534.25 997.6 1534.21 998.012 1534.09 998.402C1533.96 998.792 1533.76 999.152 1533.49 999.46C1533.22 999.769 1532.89 1000.02 1532.52 1000.19C1532.15 1000.37 1531.75 1000.47 1531.34 1000.48C1530.93 1000.5 1530.52 1000.43 1530.14 1000.28C1529.76 1000.13 1529.41 999.908 1529.12 999.62C1524.27 995.39 1512.41 990.01 1502.18 999.95C1501.62 1000.49 1500.87 1000.8 1500.09 1000.8Z" fill="black"/>
<path d="M1505.36 1062C1504.97 1062 1504.62 1062 1504.28 1062C1503.48 1061.94 1502.74 1061.57 1502.22 1060.97C1501.7 1060.36 1501.44 1059.58 1501.5 1058.78C1501.56 1057.98 1501.93 1057.24 1502.53 1056.72C1503.14 1056.2 1503.92 1055.94 1504.72 1056C1508.08 1056.24 1515.45 1054.89 1519.24 1048.06C1519.64 1047.38 1520.28 1046.89 1521.04 1046.68C1521.8 1046.47 1522.6 1046.57 1523.29 1046.95C1523.98 1047.34 1524.48 1047.97 1524.71 1048.72C1524.93 1049.48 1524.85 1050.29 1524.48 1050.98C1519.6 1059.78 1510.39 1062 1505.36 1062Z" fill="black"/>
<path d="M1501.59 1018.05C1501.04 1018.05 1500.5 1017.9 1500.03 1017.62C1499.56 1017.33 1499.18 1016.92 1498.93 1016.44C1498.67 1015.95 1498.56 1015.4 1498.59 1014.86C1498.63 1014.31 1498.82 1013.78 1499.13 1013.33C1502.13 1009.06 1507.83 1004.33 1514.86 1003.74C1520.86 1003.26 1526.7 1005.83 1532.12 1011.39C1532.41 1011.67 1532.64 1012 1532.8 1012.37C1532.95 1012.74 1533.04 1013.14 1533.04 1013.54C1533.04 1013.95 1532.96 1014.34 1532.8 1014.71C1532.65 1015.08 1532.42 1015.42 1532.13 1015.7C1531.84 1015.98 1531.5 1016.2 1531.12 1016.35C1530.75 1016.49 1530.35 1016.56 1529.95 1016.55C1529.54 1016.54 1529.15 1016.44 1528.78 1016.28C1528.42 1016.11 1528.09 1015.87 1527.82 1015.57C1523.71 1011.36 1519.51 1009.39 1515.34 1009.72C1510.34 1010.12 1506.16 1013.72 1504.04 1016.72C1503.77 1017.12 1503.41 1017.46 1502.98 1017.69C1502.55 1017.92 1502.08 1018.04 1501.59 1018.05Z" fill="black"/>
<path d="M1515.74 1019.36C1518.95 1019.36 1521.55 1016.76 1521.55 1013.55C1521.55 1010.34 1518.95 1007.74 1515.74 1007.74C1512.53 1007.74 1509.93 1010.34 1509.93 1013.55C1509.93 1016.76 1512.53 1019.36 1515.74 1019.36Z" fill="black"/>
<path d="M1555 1035.36C1554.48 1035.36 1553.97 1035.22 1553.52 1034.97C1553.06 1034.71 1552.69 1034.34 1552.42 1033.89C1552.16 1033.44 1552.01 1032.93 1552 1032.41C1551.99 1031.89 1552.12 1031.38 1552.37 1030.92C1554.61 1026.8 1561.72 1019.18 1572.54 1019.92C1572.93 1019.94 1573.32 1020.05 1573.67 1020.22C1574.03 1020.39 1574.34 1020.64 1574.61 1020.93C1574.87 1021.23 1575.07 1021.57 1575.19 1021.95C1575.32 1022.32 1575.38 1022.72 1575.35 1023.11C1575.33 1023.5 1575.22 1023.89 1575.05 1024.24C1574.88 1024.6 1574.63 1024.91 1574.34 1025.18C1574.04 1025.44 1573.7 1025.64 1573.32 1025.76C1572.95 1025.89 1572.55 1025.94 1572.16 1025.92C1564.05 1025.39 1558.93 1031.46 1557.63 1033.85C1557.37 1034.31 1556.98 1034.7 1556.52 1034.96C1556.06 1035.23 1555.53 1035.36 1555 1035.36Z" fill="black"/>
<path d="M1566.3 1039.91C1565.81 1039.91 1565.33 1039.79 1564.9 1039.56C1564.21 1039.19 1563.69 1038.56 1563.46 1037.81C1563.23 1037.07 1563.3 1036.26 1563.65 1035.56C1564.87 1033.26 1565.24 1031.3 1564.65 1030.05C1564.46 1029.67 1564.2 1029.32 1563.87 1029.05C1563.54 1028.78 1563.16 1028.57 1562.75 1028.46C1561.98 1028.26 1561.32 1027.75 1560.92 1027.07C1560.53 1026.38 1560.42 1025.56 1560.62 1024.79C1560.82 1024.02 1561.33 1023.36 1562.01 1022.96C1562.7 1022.57 1563.52 1022.46 1564.29 1022.66C1565.58 1023 1566.77 1023.63 1567.79 1024.5C1568.8 1025.36 1569.61 1026.44 1570.15 1027.66C1571.06 1029.75 1571.59 1033.31 1568.91 1038.37C1568.65 1038.84 1568.27 1039.22 1567.81 1039.49C1567.36 1039.76 1566.83 1039.91 1566.3 1039.91Z" fill="black"/>
<path d="M1530 1119.52C1529.25 1119.52 1528.53 1119.25 1527.98 1118.75C1527.42 1118.24 1527.07 1117.55 1527 1116.81L1524.59 1092.3C1524.55 1091.91 1524.59 1091.51 1524.71 1091.13C1524.82 1090.75 1525.01 1090.4 1525.26 1090.09C1525.52 1089.79 1525.82 1089.54 1526.17 1089.35C1526.52 1089.16 1526.91 1089.05 1527.3 1089.01C1527.69 1088.97 1528.09 1089.01 1528.47 1089.13C1528.85 1089.24 1529.2 1089.43 1529.51 1089.68C1529.81 1089.94 1530.06 1090.24 1530.25 1090.59C1530.44 1090.94 1530.55 1091.33 1530.59 1091.72L1533 1116.23C1533.04 1116.62 1533 1117.02 1532.88 1117.4C1532.77 1117.77 1532.58 1118.13 1532.33 1118.43C1532.08 1118.73 1531.77 1118.99 1531.42 1119.17C1531.07 1119.36 1530.69 1119.47 1530.3 1119.51L1530 1119.52ZM1594 1115C1593.26 1115.01 1592.55 1114.74 1591.99 1114.25C1591.44 1113.76 1591.09 1113.08 1591 1112.35L1585.6 1066C1585.51 1065.2 1585.73 1064.4 1586.23 1063.78C1586.73 1063.15 1587.45 1062.74 1588.25 1062.65C1589.05 1062.56 1589.85 1062.78 1590.47 1063.28C1591.1 1063.78 1591.51 1064.5 1591.6 1065.3L1596.98 1111.67C1597.03 1112.06 1596.99 1112.46 1596.89 1112.84C1596.78 1113.22 1596.6 1113.57 1596.36 1113.88C1596.11 1114.19 1595.81 1114.45 1595.46 1114.64C1595.12 1114.83 1594.74 1114.95 1594.35 1115H1594Z" fill="black"/>
<path d="M1533.2 1111.29L1526.2 1087.72C1548.7 1089.88 1571.2 1080.39 1579.7 1075.37C1562.74 1098 1541.63 1108.76 1533.2 1111.29Z" fill="black"/>
<path d="M2201 1254.82L2195.78 1251.82L2214.69 1218.46L2215.36 1218.06L2369.26 1124.38C2377.83 1119.47 2379.61 1115.57 2379.32 1114.03C2379.07 1112.69 2376.88 1111.03 2371.51 1110.19L2371.26 1104.3C2377.1 1102.91 2382.43 1096.66 2382.89 1090.66C2383.32 1085.01 2379.52 1080.38 2371.89 1077.28L2365.62 1074.73L2371.72 1071.8C2376.1 1069.69 2379.22 1064.93 2379.14 1060.48C2379.07 1056.33 2376.34 1052.96 2371.24 1050.73C2368.27 1049.68 2365.07 1049.46 2361.98 1050.07C2357.21 1051.01 2343.3 1055.83 2336.61 1058.25L2333.54 1053.25L2359.89 1028.59C2362.8 1025.87 2363.09 1020.49 2360.53 1016.86C2357.76 1012.93 2352.73 1012.43 2346.71 1015.47L2229.45 1094.24L2257.66 1023.07C2259.39 1017.24 2256.6 1009.44 2251.78 1006.66C2247.14 1003.98 2241.08 1006.28 2234.71 1013.13L2234.56 1013.28C2225.93 1021.35 2163.8 1102.8 2123.96 1155.81L2107.71 1199.66L2102.09 1197.58L2118.64 1152.91L2118.9 1152.56C2153.19 1106.93 2220.47 1018.38 2230.38 1008.97C2241.78 996.77 2250.55 999.03 2254.78 1001.46C2262.05 1005.66 2265.98 1016.46 2263.37 1024.94L2263.29 1025.17L2242.15 1078.48L2343.66 1010.29L2343.82 1010.21C2354.3 1004.82 2361.82 1008.33 2365.44 1013.4C2369.77 1019.56 2369.14 1028.15 2363.99 1032.97L2347.99 1047.97C2352.99 1046.32 2358.1 1044.73 2360.86 1044.19C2365.15 1043.3 2369.61 1043.65 2373.71 1045.19C2383.54 1049.5 2385.12 1056.52 2385.18 1060.32C2385.15 1062.91 2384.59 1065.47 2383.52 1067.83C2382.44 1070.19 2380.89 1072.29 2378.96 1074.02C2388.2 1079.52 2389.23 1086.85 2388.96 1091.07C2388.51 1096.91 2384.96 1102.76 2380.07 1106.49C2383.81 1108.49 2384.96 1111.12 2385.29 1112.87C2386.29 1118.25 2381.73 1124.15 2372.39 1129.49L2219.23 1222.73L2201 1254.82Z" fill="black"/>
<path d="M2287.84 1151.46C2287.16 1151.46 2286.5 1151.23 2285.97 1150.81C2285.43 1150.39 2285.06 1149.8 2284.91 1149.14C2284.75 1148.47 2284.83 1147.78 2285.12 1147.17C2285.42 1146.55 2285.91 1146.06 2286.52 1145.76L2371.32 1104.36C2372.04 1104.01 2372.86 1103.96 2373.62 1104.22C2374.37 1104.48 2374.99 1105.02 2375.34 1105.74C2375.69 1106.46 2375.74 1107.28 2375.48 1108.04C2375.22 1108.79 2374.68 1109.41 2373.96 1109.76L2289.16 1151.16C2288.75 1151.36 2288.3 1151.46 2287.84 1151.46ZM2281.84 1121.68C2281.16 1121.68 2280.5 1121.45 2279.97 1121.03C2279.44 1120.6 2279.07 1120.01 2278.91 1119.35C2278.76 1118.69 2278.84 1118 2279.13 1117.38C2279.43 1116.77 2279.92 1116.28 2280.53 1115.98L2372.71 1071.39C2373.43 1071.04 2374.25 1070.99 2375 1071.25C2375.76 1071.52 2376.37 1072.06 2376.72 1072.78C2377.07 1073.5 2377.12 1074.32 2376.86 1075.07C2376.6 1075.82 2376.05 1076.44 2375.33 1076.79L2283.15 1121.38C2282.75 1121.57 2282.31 1121.68 2281.86 1121.68H2281.84ZM2282.44 1097.12C2281.81 1097.12 2281.19 1096.92 2280.68 1096.55C2280.17 1096.18 2279.79 1095.65 2279.59 1095.05C2279.4 1094.45 2279.39 1093.8 2279.59 1093.2C2279.78 1092.6 2280.16 1092.07 2280.67 1091.7L2337.19 1050.48C2337.51 1050.23 2337.87 1050.05 2338.26 1049.94C2338.65 1049.84 2339.05 1049.81 2339.45 1049.87C2339.85 1049.92 2340.24 1050.06 2340.58 1050.26C2340.93 1050.47 2341.23 1050.74 2341.47 1051.07C2341.7 1051.39 2341.87 1051.76 2341.96 1052.15C2342.06 1052.55 2342.07 1052.95 2342 1053.35C2341.93 1053.75 2341.78 1054.13 2341.57 1054.46C2341.35 1054.8 2341.06 1055.09 2340.73 1055.32L2284.21 1096.54C2283.7 1096.91 2283.09 1097.12 2282.46 1097.12H2282.44Z" fill="black"/>
<path d="M1027.14 1021.8C1021.6 1012.8 1001.94 981.12 981.42 952.73C953.81 914.53 946.52 912.81 945.36 912.88C945.36 912.88 943.28 913.07 939.89 921.82C937.47 928.07 935.15 936.61 932.89 944.82C926.89 966.98 922.79 980.59 915.06 980.59H915C910.17 980.59 904.6 976.16 896.66 944.59C874.5 858.67 950.23 806.3 995.83 789.48C990.83 776.1 981.17 747.93 973.65 719.85C968.5 700.65 973.72 690.98 980.31 688.34C986.64 685.81 994.02 689.45 998.25 697.2C1059.25 808.75 1125.89 930.43 1128.19 933.99L1126.69 934.99L1123.32 937.51C1121.32 934.8 1014.39 739.27 992.99 700.1C990.26 695.1 985.99 692.57 982.54 693.94C978.21 695.68 975.54 703.94 979.44 718.32C987.44 748.38 998.05 778.51 1002.51 790.24L1003.61 793.13L1000.69 794.13C957.3 809.13 880.93 859.58 902.48 943.13C910.3 974.13 914.87 974.58 915.06 974.58C915.06 974.58 917.06 974.23 920.19 966.06C922.57 959.92 924.88 951.44 927.1 943.24C933.17 920.87 937.29 907.15 945.1 906.82C949.89 906.63 958.88 911.26 986.28 949.16C1006.91 977.71 1026.68 1009.53 1032.28 1018.6L1027.14 1021.8Z" fill="black"/>
<path d="M1525.25 1088.63C1504.41 1086.9 1490.73 1064.14 1486.49 1052.97C1489.7 1051.42 1488.79 1051.3 1459.49 1063.21C1430.19 1075.12 1430.55 1106.41 1434.38 1120.57L1528.95 1113.13L1525.25 1088.63Z" fill="black"/>
<path d="M1416.24 1117.47L1725.56 1100.62C1775.76 1106.9 1826.15 1150.62 1845.07 1171.67L1987.89 1340.33L2104.89 1171.67L2216.43 1237.93C2188.77 1296.55 2117.13 1424.12 2051.85 1465.47C1986.57 1506.82 1927.62 1464.56 1906.31 1438.26L1773 1294.08L1788 1489.95L1374.51 1514.43L1390.83 1364.81L1254.83 1438.26C1197.31 1465.47 1145.16 1456.33 1097.02 1381.14C1050.66 1308.71 1004.19 1081.63 991.1 974.04L1140.1 927.04L1197.27 1237.89C1218.03 1225.98 1260.44 1195.67 1281.67 1181.38C1344.14 1136.09 1383.47 1120.22 1416.24 1117.47Z" fill="#FEDA00"/>
<path d="M1391.51 1351.73H1391.42C1391.03 1351.72 1390.64 1351.63 1390.28 1351.47C1389.92 1351.31 1389.6 1351.08 1389.32 1350.79C1389.05 1350.5 1388.84 1350.16 1388.7 1349.8C1388.56 1349.43 1388.5 1349.03 1388.51 1348.64L1390.51 1282.75C1390.53 1281.95 1390.87 1281.2 1391.45 1280.66C1392.03 1280.11 1392.8 1279.82 1393.6 1279.84C1394.4 1279.86 1395.15 1280.2 1395.7 1280.78C1396.24 1281.36 1396.53 1282.13 1396.51 1282.93L1394.51 1348.82C1394.49 1349.6 1394.16 1350.34 1393.6 1350.88C1393.04 1351.43 1392.29 1351.73 1391.51 1351.73Z" fill="black"/>
<path d="M1772.3 1278.8H1772.21C1771.82 1278.79 1771.43 1278.7 1771.07 1278.54C1770.71 1278.38 1770.39 1278.14 1770.11 1277.86C1769.84 1277.57 1769.63 1277.23 1769.49 1276.86C1769.35 1276.5 1769.29 1276.1 1769.3 1275.71L1771.3 1209.83C1771.32 1209.05 1771.65 1208.31 1772.21 1207.77C1772.77 1207.22 1773.52 1206.92 1774.3 1206.92H1774.39C1774.78 1206.93 1775.17 1207.02 1775.53 1207.18C1775.89 1207.34 1776.22 1207.57 1776.49 1207.86C1776.76 1208.15 1776.97 1208.49 1777.11 1208.85C1777.25 1209.22 1777.31 1209.62 1777.3 1210.01L1775.3 1275.89C1775.28 1276.67 1774.95 1277.41 1774.39 1277.95C1773.83 1278.5 1773.08 1278.8 1772.3 1278.8Z" fill="black"/>
<path d="M1985.16 1417.61H1985.07C1984.68 1417.6 1984.29 1417.51 1983.93 1417.35C1983.57 1417.19 1983.24 1416.96 1982.97 1416.67C1982.7 1416.38 1982.49 1416.04 1982.35 1415.68C1982.21 1415.31 1982.15 1414.91 1982.16 1414.52L1984.16 1348.64C1984.18 1347.86 1984.51 1347.12 1985.07 1346.58C1985.63 1346.03 1986.38 1345.73 1987.16 1345.73H1987.25C1987.64 1345.74 1988.03 1345.83 1988.39 1345.99C1988.75 1346.15 1989.07 1346.38 1989.34 1346.67C1989.62 1346.96 1989.83 1347.3 1989.97 1347.66C1990.11 1348.03 1990.17 1348.43 1990.16 1348.82L1988.16 1414.7C1988.14 1415.48 1987.81 1416.22 1987.25 1416.76C1986.69 1417.31 1985.94 1417.61 1985.16 1417.61Z" fill="black"/>
<path d="M1135 1283.63C1134.37 1283.63 1133.75 1283.43 1133.24 1283.06C1132.73 1282.69 1132.35 1282.17 1132.15 1281.57C1131.95 1280.97 1131.95 1280.33 1132.14 1279.72C1132.33 1279.12 1132.7 1278.6 1133.21 1278.22L1186.15 1238.96C1186.47 1238.72 1186.83 1238.55 1187.21 1238.46C1187.59 1238.36 1187.99 1238.34 1188.38 1238.4C1188.77 1238.46 1189.14 1238.59 1189.48 1238.79C1189.82 1239 1190.11 1239.26 1190.35 1239.58C1190.59 1239.9 1190.76 1240.26 1190.85 1240.64C1190.95 1241.02 1190.97 1241.42 1190.91 1241.81C1190.85 1242.2 1190.72 1242.57 1190.52 1242.91C1190.31 1243.25 1190.05 1243.54 1189.73 1243.78L1136.81 1283C1136.29 1283.4 1135.66 1283.62 1135 1283.63Z" fill="black"/>
<path d="M1372.13 1556.39L1376.68 1514.11L1488.19 1507.52V1550.63L1372.13 1556.39Z" fill="black"/>
<path d="M1783.81 1490L1793.66 1535.43L1722.93 1538.94L1719.02 1493.84L1783.81 1490Z" fill="black"/>
<path d="M1521.09 1549V1505.58L1691.45 1495.5V1540.5L1521.09 1549Z" fill="black"/>
<path d="M1549.53 2584.85C1548.92 2584.85 1548.33 2584.66 1547.83 2584.32C1547.33 2583.98 1546.95 2583.49 1546.73 2582.92L1360.2 2096.34L1456.97 1669.34C1417.35 1642.6 1399.35 1602.02 1395.97 1575.11C1395.92 1574.72 1395.95 1574.32 1396.06 1573.93C1396.16 1573.55 1396.34 1573.19 1396.59 1572.88C1396.83 1572.57 1397.13 1572.31 1397.48 1572.11C1397.83 1571.91 1398.21 1571.79 1398.6 1571.74C1398.99 1571.69 1399.39 1571.72 1399.78 1571.83C1400.16 1571.93 1400.52 1572.11 1400.83 1572.36C1401.14 1572.6 1401.4 1572.9 1401.6 1573.25C1401.8 1573.6 1401.92 1573.98 1401.97 1574.37C1405.23 1600.37 1422.9 1639.84 1461.97 1665.44L1462.08 1665.52C1481.95 1678.52 1505.51 1686.72 1532.08 1689.95C1532.47 1690 1532.85 1690.12 1533.2 1690.32C1533.55 1690.51 1533.85 1690.77 1534.1 1691.08C1534.34 1691.4 1534.52 1691.75 1534.63 1692.13C1534.74 1692.52 1534.77 1692.92 1534.72 1693.31C1534.67 1693.7 1534.55 1694.08 1534.35 1694.43C1534.16 1694.78 1533.9 1695.08 1533.59 1695.33C1533.27 1695.57 1532.92 1695.75 1532.54 1695.86C1532.15 1695.97 1531.75 1696 1531.36 1695.95C1505.36 1692.8 1482.21 1685.03 1462.36 1672.84L1366.48 2095.91L1552.35 2580.79C1552.63 2581.53 1552.61 2582.36 1552.29 2583.08C1551.96 2583.81 1551.36 2584.38 1550.62 2584.66C1550.27 2584.79 1549.9 2584.86 1549.53 2584.85Z" fill="black"/>
<path d="M1850.72 2186.58L1849.81 2185.22L1618.28 1838.73L1623.26 1835.39L1853.88 2180.52L2307.2 2170.83L2307.33 2176.83L1850.72 2186.58Z" fill="black"/>
</svg>
