<svg width="3000" height="3000" viewBox="0 0 3000 3000" fill="none" xmlns="http://www.w3.org/2000/svg">
<path d="M2820.35 2787.54H302.1C301.304 2787.54 300.541 2787.22 299.979 2786.66C299.416 2786.1 299.1 2785.34 299.1 2784.54C299.1 2783.74 299.416 2782.98 299.979 2782.42C300.541 2781.86 301.304 2781.54 302.1 2781.54H2820.35C2821.15 2781.54 2821.91 2781.86 2822.47 2782.42C2823.03 2782.98 2823.35 2783.74 2823.35 2784.54C2823.35 2785.34 2823.03 2786.1 2822.47 2786.66C2821.91 2787.22 2821.15 2787.54 2820.35 2787.54Z" fill="black"/>
<path d="M2644.4 1016.89C2642.75 1016.89 2641.14 1016.4 2639.77 1015.49C2638.4 1014.57 2637.33 1013.27 2636.7 1011.75C2636.07 1010.23 2635.91 1008.55 2636.23 1006.93C2636.55 1005.32 2637.34 1003.83 2638.51 1002.67C2639.67 1001.5 2641.16 1000.71 2642.77 1000.39C2644.39 1000.07 2646.07 1000.23 2647.59 1000.86C2649.11 1001.49 2650.41 1002.56 2651.33 1003.93C2652.24 1005.3 2652.73 1006.91 2652.73 1008.56C2652.73 1010.77 2651.85 1012.89 2650.29 1014.45C2648.73 1016.01 2646.61 1016.89 2644.4 1016.89ZM2644.4 1006.23C2643.94 1006.23 2643.49 1006.37 2643.11 1006.62C2642.72 1006.88 2642.42 1007.24 2642.25 1007.67C2642.07 1008.09 2642.02 1008.56 2642.11 1009.01C2642.2 1009.47 2642.43 1009.88 2642.75 1010.21C2643.08 1010.53 2643.49 1010.76 2643.95 1010.85C2644.4 1010.94 2644.87 1010.89 2645.29 1010.71C2645.72 1010.54 2646.08 1010.24 2646.34 1009.85C2646.59 1009.47 2646.73 1009.02 2646.73 1008.56C2646.73 1007.94 2646.48 1007.35 2646.05 1006.91C2645.61 1006.48 2645.02 1006.23 2644.4 1006.23Z" fill="black"/>
<path d="M437.55 1141.64C435.902 1141.64 434.292 1141.15 432.922 1140.24C431.552 1139.32 430.484 1138.02 429.854 1136.5C429.223 1134.98 429.058 1133.3 429.38 1131.68C429.701 1130.07 430.495 1128.58 431.66 1127.42C432.824 1126.25 434.309 1125.46 435.925 1125.14C437.54 1124.82 439.215 1124.98 440.737 1125.61C442.26 1126.24 443.561 1127.31 444.476 1128.68C445.391 1130.05 445.88 1131.66 445.88 1133.31C445.877 1135.52 444.999 1137.64 443.437 1139.2C441.875 1140.76 439.758 1141.64 437.55 1141.64ZM437.55 1130.98C437.089 1130.98 436.638 1131.12 436.255 1131.37C435.872 1131.63 435.573 1131.99 435.397 1132.42C435.221 1132.84 435.175 1133.31 435.264 1133.76C435.354 1134.22 435.576 1134.63 435.902 1134.96C436.228 1135.28 436.643 1135.51 437.095 1135.6C437.547 1135.69 438.016 1135.64 438.441 1135.46C438.867 1135.29 439.231 1134.99 439.487 1134.6C439.743 1134.22 439.88 1133.77 439.88 1133.31C439.874 1132.7 439.627 1132.11 439.19 1131.68C438.754 1131.24 438.164 1131 437.55 1131V1130.98Z" fill="black"/>
<path d="M479.22 2342.52C477.572 2342.52 475.962 2342.03 474.592 2341.12C473.222 2340.2 472.154 2338.9 471.524 2337.38C470.893 2335.86 470.728 2334.18 471.05 2332.56C471.371 2330.95 472.164 2329.46 473.329 2328.3C474.494 2327.13 475.979 2326.34 477.595 2326.02C479.21 2325.7 480.885 2325.86 482.407 2326.49C483.93 2327.12 485.23 2328.19 486.146 2329.56C487.061 2330.93 487.55 2332.54 487.55 2334.19C487.547 2336.4 486.669 2338.52 485.107 2340.08C483.545 2341.64 481.428 2342.52 479.22 2342.52ZM479.22 2331.86C478.759 2331.86 478.308 2332 477.925 2332.25C477.542 2332.51 477.243 2332.87 477.067 2333.3C476.891 2333.72 476.845 2334.19 476.934 2334.64C477.024 2335.1 477.246 2335.51 477.572 2335.84C477.898 2336.16 478.313 2336.39 478.765 2336.48C479.217 2336.57 479.686 2336.52 480.111 2336.34C480.537 2336.17 480.901 2335.87 481.157 2335.48C481.413 2335.1 481.55 2334.65 481.55 2334.19C481.55 2333.57 481.304 2332.98 480.867 2332.54C480.43 2332.11 479.838 2331.86 479.22 2331.86Z" fill="black"/>
<path d="M1975.4 284.08C1973.75 284.08 1972.14 283.591 1970.77 282.676C1969.4 281.761 1968.33 280.46 1967.7 278.938C1967.07 277.416 1966.91 275.741 1967.23 274.125C1967.55 272.509 1968.34 271.025 1969.51 269.86C1970.67 268.695 1972.16 267.901 1973.77 267.58C1975.39 267.259 1977.07 267.424 1978.59 268.054C1980.11 268.684 1981.41 269.752 1982.33 271.122C1983.24 272.492 1983.73 274.102 1983.73 275.75C1983.73 277.958 1982.85 280.076 1981.29 281.637C1979.73 283.199 1977.61 284.077 1975.4 284.08ZM1975.4 273.42C1974.94 273.42 1974.49 273.557 1974.11 273.813C1973.72 274.069 1973.42 274.433 1973.25 274.858C1973.07 275.284 1973.02 275.753 1973.11 276.204C1973.2 276.656 1973.43 277.072 1973.75 277.397C1974.08 277.723 1974.49 277.945 1974.95 278.035C1975.4 278.125 1975.87 278.079 1976.29 277.903C1976.72 277.726 1977.08 277.428 1977.34 277.044C1977.59 276.661 1977.73 276.211 1977.73 275.75C1977.73 275.132 1977.48 274.539 1977.05 274.102C1976.61 273.665 1976.02 273.42 1975.4 273.42Z" fill="black"/>
<path d="M497.88 164.83C496.232 164.83 494.622 164.341 493.252 163.426C491.882 162.511 490.814 161.21 490.184 159.688C489.553 158.166 489.388 156.491 489.71 154.875C490.031 153.259 490.825 151.775 491.99 150.61C493.155 149.445 494.639 148.651 496.255 148.33C497.871 148.009 499.545 148.174 501.068 148.804C502.59 149.434 503.891 150.502 504.806 151.872C505.721 153.242 506.21 154.852 506.21 156.5C506.207 158.708 505.329 160.826 503.767 162.387C502.205 163.949 500.088 164.827 497.88 164.83ZM497.88 154.17C497.419 154.17 496.968 154.307 496.585 154.563C496.202 154.819 495.904 155.183 495.727 155.608C495.551 156.034 495.505 156.503 495.595 156.954C495.684 157.406 495.906 157.822 496.232 158.147C496.558 158.473 496.973 158.695 497.425 158.785C497.877 158.875 498.346 158.829 498.771 158.653C499.197 158.476 499.561 158.178 499.817 157.794C500.073 157.411 500.21 156.961 500.21 156.5C500.21 155.882 499.964 155.289 499.527 154.852C499.09 154.415 498.498 154.17 497.88 154.17Z" fill="black"/>
<path d="M2235 1599.71C2234.37 1599.71 2233.75 1599.51 2233.24 1599.14L2203.88 1577.78C2203.24 1577.31 2202.8 1576.61 2202.68 1575.82C2202.55 1575.03 2202.75 1574.23 2203.22 1573.59C2203.68 1572.94 2204.39 1572.51 2205.17 1572.38C2205.96 1572.26 2206.77 1572.45 2207.41 1572.92L2236.76 1594.28C2237.27 1594.65 2237.66 1595.18 2237.85 1595.78C2238.05 1596.38 2238.05 1597.03 2237.85 1597.64C2237.66 1598.24 2237.28 1598.76 2236.76 1599.14C2236.25 1599.51 2235.63 1599.71 2235 1599.71Z" fill="black"/>
<path d="M1330 190.18C1329.37 190.18 1328.75 189.981 1328.24 189.61L1298.88 168.26C1298.56 168.029 1298.29 167.737 1298.08 167.402C1297.88 167.066 1297.74 166.693 1297.68 166.304C1297.62 165.915 1297.63 165.517 1297.72 165.134C1297.81 164.751 1297.98 164.389 1298.21 164.07C1298.44 163.751 1298.73 163.48 1299.07 163.274C1299.4 163.068 1299.78 162.929 1300.17 162.867C1300.56 162.805 1300.95 162.82 1301.34 162.911C1301.72 163.003 1302.08 163.169 1302.4 163.4L1331.76 184.76C1332.27 185.133 1332.65 185.658 1332.84 186.258C1333.04 186.859 1333.04 187.506 1332.84 188.107C1332.65 188.707 1332.27 189.231 1331.76 189.603C1331.25 189.975 1330.63 190.177 1330 190.18Z" fill="black"/>
<path d="M413.33 1990.39C412.691 1990.39 412.069 1990.19 411.554 1989.81C411.039 1989.43 410.658 1988.9 410.466 1988.29C410.274 1987.68 410.281 1987.03 410.487 1986.42C410.693 1985.82 411.086 1985.3 411.61 1984.93L441.4 1964.18C442.053 1963.75 442.847 1963.59 443.614 1963.74C444.381 1963.89 445.06 1964.33 445.507 1964.97C445.953 1965.61 446.132 1966.4 446.006 1967.17C445.88 1967.94 445.458 1968.64 444.83 1969.1L415 1989.85C414.511 1990.2 413.929 1990.38 413.33 1990.39Z" fill="black"/>
<path d="M2521.81 2595.68C2521.17 2595.68 2520.55 2595.47 2520.04 2595.1C2519.52 2594.72 2519.14 2594.19 2518.95 2593.58C2518.76 2592.97 2518.77 2592.31 2518.98 2591.71C2519.18 2591.11 2519.58 2590.59 2520.1 2590.22L2549.88 2569.47C2550.2 2569.23 2550.57 2569.06 2550.96 2568.97C2551.35 2568.87 2551.75 2568.86 2552.15 2568.92C2552.55 2568.99 2552.92 2569.13 2553.26 2569.34C2553.6 2569.56 2553.9 2569.84 2554.13 2570.17C2554.35 2570.5 2554.52 2570.87 2554.6 2571.26C2554.68 2571.65 2554.69 2572.06 2554.61 2572.45C2554.53 2572.84 2554.38 2573.22 2554.16 2573.55C2553.93 2573.89 2553.65 2574.17 2553.31 2574.39L2523.53 2595.14C2523.03 2595.49 2522.43 2595.68 2521.81 2595.68Z" fill="black"/>
<path d="M347.72 586.7C347.082 586.698 346.461 586.494 345.948 586.115C345.434 585.737 345.055 585.205 344.864 584.596C344.674 583.988 344.682 583.334 344.888 582.731C345.094 582.127 345.487 581.605 346.01 581.24L375.79 560.49C376.112 560.251 376.479 560.08 376.869 559.985C377.259 559.891 377.664 559.876 378.06 559.941C378.456 560.006 378.834 560.149 379.174 560.363C379.513 560.577 379.806 560.857 380.035 561.186C380.265 561.515 380.426 561.886 380.509 562.279C380.592 562.671 380.596 563.076 380.52 563.47C380.444 563.864 380.29 564.238 380.066 564.572C379.843 564.905 379.555 565.19 379.22 565.41L349.44 586.16C348.936 586.512 348.335 586.7 347.72 586.7Z" fill="black"/>
<path d="M2332.12 736.67C2331.42 736.675 2330.74 736.434 2330.19 735.988C2329.65 735.542 2329.28 734.919 2329.15 734.229C2329.02 733.539 2329.13 732.824 2329.48 732.21C2329.82 731.596 2330.36 731.122 2331.02 730.87L2364.81 717.6C2365.55 717.332 2366.36 717.361 2367.07 717.682C2367.78 718.003 2368.34 718.59 2368.63 719.318C2368.92 720.045 2368.91 720.857 2368.61 721.578C2368.3 722.3 2367.73 722.874 2367.01 723.18L2333.22 736.46C2332.87 736.598 2332.5 736.669 2332.12 736.67Z" fill="black"/>
<path d="M352.68 1847.45L288.95 1698.45L176.53 1820.13L171.68 1816.68L246.09 1677.26L135.15 1640L135.92 1634.17L240.81 1627.6L209.88 1561.2L214.46 1557.58L274.19 1604.88L302.68 1448.8H308.58L338.94 1612.91L467.77 1559.39L470.77 1564.52L351.83 1657.88L457.2 1709.7L455.33 1715.34L332.49 1692.44L358.38 1845.79L352.68 1847.45ZM290.83 1687.57L348.28 1821.91L325.15 1684.91L434.94 1705.38L340.63 1659L449.82 1573.29L334.39 1621.23L305.65 1465.89L278.3 1615.77L220.67 1570.13L250 1633L151.63 1639.16L254.76 1673.8L188 1798.91L290.83 1687.57Z" fill="black"/>
<path d="M2520.78 1866.61L2541.28 1977.38L2628.61 1941.1L2547.61 2004.69L2620.01 2040.3L2536.11 2024.65L2553.68 2128.65L2510.4 2027.46L2434.1 2110.05L2484.33 2015.92L2408.86 1990.58L2481.02 1986.06L2459.37 1939.58L2501.37 1972.86L2520.78 1866.61Z" fill="black"/>
<path d="M2617.57 220.65C2617.07 220.65 2616.58 220.525 2616.14 220.286C2615.7 220.046 2615.32 219.701 2615.05 219.28L2595.3 188.82C2594.95 188.159 2594.86 187.392 2595.05 186.668C2595.23 185.944 2595.68 185.315 2596.31 184.906C2596.94 184.497 2597.69 184.336 2598.43 184.455C2599.17 184.574 2599.83 184.965 2600.3 185.55L2620.09 216C2620.3 216.331 2620.45 216.701 2620.52 217.089C2620.59 217.476 2620.59 217.874 2620.5 218.26C2620.42 218.645 2620.26 219.01 2620.04 219.335C2619.82 219.659 2619.53 219.936 2619.2 220.15C2618.72 220.471 2618.15 220.645 2617.57 220.65Z" fill="black"/>
<path d="M223.53 2567.93C223.029 2567.93 222.536 2567.8 222.096 2567.57C221.655 2567.33 221.282 2566.98 221.01 2566.56L201.26 2536.1C200.996 2535.77 200.804 2535.4 200.695 2534.99C200.587 2534.58 200.565 2534.16 200.63 2533.75C200.695 2533.33 200.847 2532.94 201.075 2532.58C201.304 2532.23 201.603 2531.93 201.955 2531.7C202.306 2531.47 202.702 2531.32 203.116 2531.25C203.531 2531.19 203.955 2531.21 204.36 2531.31C204.766 2531.42 205.145 2531.61 205.472 2531.88C205.799 2532.14 206.068 2532.47 206.26 2532.84L226 2563.3C226.433 2563.97 226.584 2564.78 226.419 2565.56C226.254 2566.34 225.787 2567.02 225.12 2567.45C224.644 2567.75 224.094 2567.92 223.53 2567.93Z" fill="black"/>
<path d="M2812.09 1533.46C2811.59 1533.46 2811.1 1533.33 2810.66 1533.1C2810.22 1532.86 2809.84 1532.51 2809.57 1532.09L2789.82 1501.63C2789.56 1501.3 2789.36 1500.93 2789.26 1500.52C2789.15 1500.11 2789.12 1499.69 2789.19 1499.28C2789.26 1498.86 2789.41 1498.47 2789.64 1498.11C2789.86 1497.76 2790.16 1497.46 2790.51 1497.23C2790.87 1497 2791.26 1496.85 2791.68 1496.78C2792.09 1496.72 2792.51 1496.74 2792.92 1496.84C2793.33 1496.95 2793.7 1497.14 2794.03 1497.41C2794.36 1497.67 2794.63 1498 2794.82 1498.37L2814.57 1528.83C2814.86 1529.28 2815.03 1529.81 2815.05 1530.35C2815.07 1530.89 2814.94 1531.42 2814.69 1531.89C2814.43 1532.37 2814.05 1532.76 2813.58 1533.04C2813.12 1533.31 2812.59 1533.46 2812.05 1533.46H2812.09Z" fill="black"/>
<path d="M2566.5 730C2556.5 730 2546.84 729.57 2537.5 728.69C2537.11 728.653 2536.72 728.539 2536.37 728.355C2536.02 728.17 2535.71 727.918 2535.46 727.613C2535.21 727.309 2535.02 726.957 2534.9 726.579C2534.78 726.201 2534.74 725.804 2534.78 725.41C2534.82 725.016 2534.93 724.633 2535.12 724.283C2535.3 723.933 2535.55 723.623 2535.86 723.371C2536.16 723.118 2536.51 722.928 2536.89 722.811C2537.27 722.694 2537.67 722.653 2538.06 722.69C2554.35 724.148 2570.73 724.372 2587.06 723.36C2587.45 723.336 2587.85 723.391 2588.22 723.52C2588.59 723.648 2588.94 723.85 2589.23 724.111C2589.53 724.373 2589.77 724.691 2589.94 725.046C2590.12 725.401 2590.22 725.786 2590.24 726.18C2590.26 726.574 2590.21 726.969 2590.08 727.342C2589.95 727.715 2589.75 728.059 2589.49 728.354C2589.23 728.649 2588.91 728.89 2588.55 729.063C2588.2 729.235 2587.81 729.336 2587.42 729.36C2580.34 729.787 2573.37 730 2566.5 730ZM2529.86 727.85H2529.5C2521.8 726.85 2514.22 725.64 2506.97 724.09C2506.58 724.007 2506.22 723.849 2505.89 723.626C2505.57 723.402 2505.29 723.116 2505.08 722.785C2504.87 722.454 2504.72 722.084 2504.65 721.696C2504.58 721.308 2504.58 720.911 2504.67 720.525C2504.75 720.14 2504.91 719.774 2505.13 719.45C2505.35 719.125 2505.64 718.848 2505.97 718.634C2506.3 718.42 2506.67 718.273 2507.06 718.202C2507.45 718.131 2507.84 718.137 2508.23 718.22C2515.31 719.74 2522.71 720.97 2530.23 721.89C2531.03 721.939 2531.77 722.302 2532.3 722.9C2532.83 723.497 2533.09 724.279 2533.05 725.075C2533 725.871 2532.63 726.614 2532.04 727.142C2531.44 727.67 2530.66 727.939 2529.86 727.89V727.85ZM2499 722.14C2498.75 722.139 2498.5 722.109 2498.26 722.05C2491.07 720.23 2484.01 718.05 2477.26 715.65C2476.57 715.346 2476.01 714.79 2475.71 714.094C2475.41 713.398 2475.38 712.615 2475.64 711.9C2475.89 711.186 2476.41 710.594 2477.08 710.243C2477.75 709.893 2478.53 709.809 2479.26 710.01C2485.81 712.37 2492.67 714.46 2499.68 716.24C2500.38 716.426 2500.99 716.86 2501.4 717.462C2501.81 718.064 2501.98 718.793 2501.89 719.514C2501.8 720.234 2501.45 720.897 2500.91 721.38C2500.37 721.864 2499.67 722.133 2498.94 722.14H2499ZM2469.81 712.56C2469.42 712.562 2469.03 712.484 2468.67 712.33C2464.8 710.74 2460.99 709.04 2457.36 707.28C2457.01 707.108 2456.69 706.868 2456.43 706.573C2456.16 706.279 2455.96 705.935 2455.83 705.563C2455.71 705.191 2455.65 704.796 2455.67 704.403C2455.7 704.01 2455.8 703.625 2455.97 703.27C2456.14 702.916 2456.38 702.598 2456.68 702.337C2456.97 702.075 2457.31 701.874 2457.69 701.745C2458.06 701.616 2458.45 701.561 2458.85 701.584C2459.24 701.608 2459.63 701.708 2459.98 701.88C2463.5 703.59 2467.19 705.24 2470.98 706.78C2471.63 707.042 2472.16 707.521 2472.49 708.134C2472.82 708.747 2472.93 709.457 2472.8 710.141C2472.66 710.825 2472.29 711.44 2471.75 711.882C2471.21 712.323 2470.54 712.563 2469.84 712.56H2469.81ZM2443.23 699.23C2442.68 699.231 2442.15 699.078 2441.68 698.79C2368.58 654.79 2342.97 572.21 2343.25 514.91V514.8C2343.71 504.21 2344.69 491.94 2346.25 478.6C2327.49 480.435 2308.55 478.487 2290.55 472.87C2278.04 469.06 2267.37 463.55 2258.81 456.51C2258.51 456.259 2258.25 455.951 2258.07 455.603C2257.88 455.255 2257.77 454.874 2257.73 454.481C2257.69 454.089 2257.74 453.693 2257.85 453.316C2257.97 452.94 2258.15 452.589 2258.41 452.285C2258.66 451.981 2258.96 451.729 2259.31 451.545C2259.66 451.36 2260.04 451.245 2260.43 451.208C2260.83 451.17 2261.22 451.21 2261.6 451.325C2261.98 451.441 2262.33 451.629 2262.63 451.88C2270.57 458.42 2280.55 463.55 2292.3 467.13C2309.98 472.649 2328.61 474.463 2347.02 472.46C2356.97 396.52 2386.54 289.78 2452.11 252.63C2480.99 236.26 2502.2 233.74 2515.11 245.14C2532.76 260.68 2529.22 300.04 2516.6 330.88V330.98C2493.34 382.75 2433.88 465.86 2352.4 477.83C2350.28 495.24 2349.49 508.43 2349.21 515C2348.96 570.72 2373.82 650.93 2444.74 693.65C2445.31 693.986 2445.75 694.5 2445.99 695.111C2446.24 695.723 2446.28 696.398 2446.1 697.033C2445.92 697.668 2445.54 698.227 2445.02 698.624C2444.49 699.021 2443.85 699.234 2443.19 699.23H2443.23ZM2495.09 244.23C2484.59 244.23 2471.09 248.79 2455.09 257.86C2421.56 276.86 2393.62 318.17 2374.28 377.31C2362.89 412.15 2356.64 445.8 2353.21 471.63C2431.32 459.16 2488.57 378.76 2511.12 328.63C2522.64 300.46 2526.58 263.24 2511.21 249.71C2507.06 246 2501.64 244.22 2495 244.22L2495.09 244.23ZM2255.4 452.33C2255 452.331 2254.61 452.253 2254.24 452.1C2253.87 451.947 2253.54 451.723 2253.26 451.44C2247.82 445.889 2243.34 439.467 2240.02 432.44C2239.7 431.724 2239.67 430.912 2239.95 430.177C2240.22 429.442 2240.77 428.842 2241.47 428.506C2242.18 428.17 2242.99 428.125 2243.73 428.38C2244.48 428.635 2245.09 429.17 2245.44 429.87C2248.48 436.287 2252.57 442.152 2257.54 447.22C2258.1 447.783 2258.42 448.545 2258.42 449.34C2258.42 450.135 2258.1 450.898 2257.54 451.46C2257.26 451.739 2256.92 451.96 2256.56 452.109C2256.19 452.259 2255.8 452.334 2255.4 452.33ZM2238.92 424.41C2238.28 424.409 2237.66 424.204 2237.14 423.824C2236.63 423.445 2236.25 422.911 2236.06 422.3C2234.09 415.887 2232.81 409.284 2232.24 402.6C2232.17 401.804 2232.42 401.013 2232.93 400.4C2233.44 399.786 2234.17 399.402 2234.97 399.33C2235.77 399.258 2236.56 399.506 2237.17 400.018C2237.78 400.53 2238.17 401.264 2238.24 402.06C2238.78 408.321 2239.97 414.509 2241.8 420.52C2241.92 420.898 2241.96 421.294 2241.92 421.687C2241.88 422.08 2241.76 422.462 2241.58 422.81C2241.39 423.159 2241.14 423.467 2240.83 423.717C2240.53 423.968 2240.18 424.156 2239.8 424.27C2239.52 424.364 2239.22 424.411 2238.92 424.41ZM2234.92 387.72H2234.76C2234.37 387.7 2233.98 387.602 2233.62 387.432C2233.27 387.262 2232.95 387.023 2232.68 386.729C2232.42 386.436 2232.22 386.093 2232.09 385.721C2231.95 385.349 2231.9 384.954 2231.92 384.56C2233.38 356.77 2242.92 323.87 2260.28 286.76C2274.5 256.659 2291.42 227.914 2310.85 200.88C2311.32 200.236 2312.02 199.803 2312.81 199.677C2313.59 199.552 2314.4 199.743 2315.04 200.21C2315.68 200.677 2316.12 201.381 2316.24 202.166C2316.37 202.952 2316.18 203.756 2315.71 204.4C2281.78 251.47 2241 327 2238 384.88C2237.96 385.648 2237.62 386.37 2237.07 386.899C2236.51 387.427 2235.77 387.721 2235 387.72H2234.92Z" fill="#FEDA00"/>
<path d="M700.47 2656.42L700.15 2653.38L463.15 386.47L1665.74 263.13L1666.06 266.09L1759.72 1132.45L1753.76 1133.09L1660.42 269.7L469.75 391.83L705.8 2649.7L1893.69 2499.83L1827.02 1867.33L1832.98 1866.7L1900.28 2505.05L1897.36 2505.42L700.47 2656.42Z" fill="black"/>
<path d="M874.18 522.17L859.74 348.42L1259.64 305.65L1270.88 494.37L874.18 522.17Z" fill="black"/>
<path d="M1991.59 2527H1940.49L1807.69 1755.09L1628.59 1974L1512.16 2510.57L1474.48 2494.38H1474.35L1219.47 2384.82L1220.09 2382.34C1254.09 2247.25 1335.24 1959.08 1399.09 1835.34C1463.03 1711.46 1660.36 1459.34 1744.63 1351.64L1747.22 1348.33C1747.72 1347.73 1748.43 1347.35 1749.21 1347.27C1749.98 1347.18 1750.76 1347.41 1751.38 1347.89C1751.99 1348.37 1752.39 1349.07 1752.5 1349.85C1752.6 1350.62 1752.4 1351.4 1751.94 1352.03L1749.35 1355.34C1468.1 1714.71 1423.48 1801.18 1404.43 1838.1C1341.22 1960.55 1260.84 2245.41 1226.54 2381.28L1472.88 2487.17L1507.08 1929L1793.31 1671.52L1778.94 1587.97C1778.87 1587.58 1778.89 1587.18 1778.97 1586.8C1779.06 1586.41 1779.23 1586.05 1779.45 1585.73C1779.68 1585.41 1779.97 1585.14 1780.31 1584.93C1780.64 1584.72 1781.01 1584.58 1781.4 1584.51C1781.79 1584.44 1782.19 1584.46 1782.57 1584.54C1782.96 1584.63 1783.32 1584.79 1783.64 1585.02C1783.96 1585.25 1784.23 1585.54 1784.44 1585.88C1784.65 1586.21 1784.79 1586.58 1784.86 1586.97L1799.5 1672C1799.5 1672 1799.5 1672.07 1799.5 1672.1L1945.5 2520.92H1988.73L2050.83 1555.13C1964.27 1538.76 1940.11 1454 1940 1407C1940 1406.2 1940.32 1405.44 1940.88 1404.88C1941.44 1404.32 1942.2 1404 1943 1404C1943.8 1404 1944.56 1404.32 1945.12 1404.88C1945.68 1405.44 1946 1406.2 1946 1407C1946.21 1521.69 2035 1552 2081.92 1552C2082.72 1552 2083.48 1552.32 2084.04 1552.88C2084.6 1553.44 2084.92 1554.2 2084.92 1555C2084.92 1555.8 2084.6 1556.56 2084.04 1557.12C2083.48 1557.68 2082.72 1558 2081.92 1558C2073.52 1558.02 2065.12 1557.42 2056.81 1556.21L1994.81 2521H2281.47L2131.4 1985.73V1985.39L2098.67 1323.27C2098.63 1322.47 2098.91 1321.7 2099.44 1321.1C2099.98 1320.51 2100.72 1320.16 2101.52 1320.12C2102.32 1320.08 2103.09 1320.36 2103.69 1320.89C2104.28 1321.43 2104.63 1322.17 2104.67 1322.97L2137.38 1984.76L2289.38 2527H1991.59ZM1478.72 2489.67L1507.84 2502.18L1623 1971.27L1623.46 1970.71L1804.72 1749.17C1805.16 1748.63 1805.78 1748.25 1806.47 1748.12L1794.47 1678.47L1512.88 1931.78L1478.72 2489.67Z" fill="black"/>
<path d="M1290.81 2683.78L1359.61 2734.18L1465.91 2516.18L1330.57 2438.3L1316.01 2481.3L932.41 2421.23L1253.84 2656.66L1315.48 2637.12L1290.81 2683.78Z" fill="black"/>
<path d="M1360.73 2738.72L1286.95 2684.72L1309.4 2642.28L1253.3 2660L930.64 2423.69L932.88 2418.31L1314 2478L1328.92 2433.9L1464.75 2512.06L1473.75 2495.3C1474.14 2494.63 1474.78 2494.14 1475.53 2493.93C1476.27 2493.73 1477.07 2493.81 1477.76 2494.18C1478.44 2494.55 1478.95 2495.17 1479.19 2495.9C1479.43 2496.64 1479.37 2497.44 1479.03 2498.14L1468.59 2517.57L1360.73 2738.72ZM1294.67 2682.89L1358.49 2729.64L1462 2517.39L1332.25 2442.73L1318.05 2484.73L944.15 2426.18L1254.39 2653.42L1321.57 2632.13L1294.67 2682.89Z" fill="black"/>
<path d="M2200.12 2784.53H2285.41L2242.35 2545.86L2087.16 2563L2100.84 2606.32L1755.84 2784.52H2154.3L2192.49 2732.33L2200.12 2784.53Z" fill="black"/>
<path d="M2289 2787.53H2197.53L2190.53 2740.03L2155.77 2787.53H1755.88L1754.5 2781.87L2097.22 2604.87L2084.32 2564.02C2084.32 2564 2084.32 2563.98 2084.32 2563.96L2071.14 2524.96C2071 2524.58 2070.93 2524.18 2070.95 2523.78C2070.96 2523.37 2071.06 2522.98 2071.23 2522.61C2071.4 2522.25 2071.65 2521.92 2071.95 2521.65C2072.25 2521.38 2072.6 2521.18 2072.98 2521.05C2073.37 2520.92 2073.77 2520.87 2074.17 2520.9C2074.57 2520.93 2074.97 2521.04 2075.32 2521.23C2075.68 2521.42 2076 2521.67 2076.26 2521.98C2076.51 2522.29 2076.71 2522.65 2076.82 2523.04L2089.25 2559.8L2239 2543.22L2236.37 2524.38C2236.3 2523.98 2236.32 2523.58 2236.41 2523.19C2236.5 2522.8 2236.67 2522.43 2236.91 2522.11C2237.15 2521.79 2237.45 2521.51 2237.79 2521.31C2238.13 2521.1 2238.52 2520.97 2238.91 2520.91C2239.31 2520.86 2239.71 2520.88 2240.1 2520.98C2240.49 2521.09 2240.85 2521.27 2241.17 2521.51C2241.49 2521.76 2241.75 2522.07 2241.95 2522.42C2242.14 2522.77 2242.27 2523.15 2242.31 2523.55L2245.31 2545.39L2289 2787.53ZM2202.71 2781.53H2281.82L2239.89 2549.15L2091.12 2565.59L2104.46 2607.84L1768.22 2781.53H2152.78L2194.4 2724.65L2202.71 2781.53Z" fill="black"/>
<path d="M1384.57 1646.49C1384.06 1646.49 1383.55 1646.46 1383.04 1646.39C1375.04 1645.39 1370.04 1637.24 1370.87 1626.58C1371.98 1612.15 1374.06 1590.88 1375.3 1578.44C1368.15 1587.29 1359.42 1597.89 1351.64 1606.95C1334.64 1626.72 1330.81 1629.39 1328.86 1629.75C1319.64 1634.25 1312.16 1634.63 1306.64 1630.88C1301.12 1627.13 1298.85 1619.99 1298.38 1613.04C1285.59 1621.42 1278.61 1617.95 1275.44 1614.84C1270.82 1610.3 1269.87 1601.7 1272.44 1594.01C1264.28 1596.46 1257.92 1595.82 1253.44 1592.08C1247.34 1586.95 1246.44 1576.88 1247.85 1567.47C1231.4 1575.66 1223.85 1572.58 1220.46 1568.21C1214.55 1560.65 1219.26 1546.28 1227.21 1538.04L1325.72 1421.8L1330.3 1425.68L1231.65 1542.08L1231.58 1542.15C1224.9 1549.02 1221.74 1560.1 1225.19 1564.51C1228.38 1568.58 1237.88 1566.59 1250.59 1559.16L1256.87 1555.49L1255 1562.49C1252.5 1571.86 1252.25 1583.21 1257.31 1587.49C1262.03 1591.49 1270.88 1588.68 1277.46 1585.65L1281.09 1590.21C1276.25 1596.46 1275.52 1606.54 1279.61 1610.56C1283.24 1614.12 1290.49 1612.01 1299.51 1604.76L1304.97 1600.37L1304.38 1607.37C1303.83 1613.81 1304.97 1622.54 1309.97 1625.94C1313.66 1628.44 1319.28 1627.84 1326.67 1624.15L1327.3 1623.83H1327.52C1332.28 1620.99 1356.15 1592.89 1376.92 1566.83L1383.31 1558.83L1382.25 1569.03C1382.25 1569.39 1378.46 1605.78 1376.81 1627.11C1376.34 1633.27 1378.57 1639.86 1383.75 1640.51C1389.75 1641.27 1397.64 1633.51 1400.97 1614.51V1614.36C1401.97 1610.19 1414.42 1549.01 1417.68 1524.92L1417.76 1524.28L1440.76 1487.28L1445.86 1490.44L1423.53 1526.38C1420.13 1550.91 1407.89 1610.88 1406.82 1615.64C1402.84 1638.54 1392.68 1646.49 1384.57 1646.49Z" fill="black"/>
<path d="M2364.56 1682C2359.71 1682 2355.1 1679.35 2351.56 1674.53C2347.56 1669.13 2345.13 1661.39 2344.24 1651.53C2343.88 1647.53 2339.8 1585.75 2339.77 1560.75L2322.5 1522.12L2327.98 1519.68L2345.77 1559.47V1560.11C2345.77 1584.51 2349.85 1646.97 2350.22 1650.99C2351.78 1668.3 2358.53 1675.99 2364.58 1675.99H2364.7C2368.91 1675.92 2372.17 1672.08 2372.45 1666.88L2375.35 1598.49L2380.5 1607.14C2399.94 1639.79 2417.81 1667.14 2421.72 1670.33H2421.94L2422.52 1670.73C2429.34 1675.39 2434.83 1676.73 2438.83 1674.73C2444.25 1672.04 2446.55 1663.55 2446.83 1657.1L2447.19 1650L2452.03 1655.21C2458.93 1662.65 2466.09 1665.21 2470.7 1661.88C2474.78 1658.95 2476.7 1651.4 2472.21 1643.2L2476.45 1639.2C2482.57 1643.1 2490.95 1647.06 2496.17 1643.76C2501.76 1640.23 2503.04 1628.95 2501.83 1619.33L2500.76 1610.8L2506.91 1616.8C2515.63 1625.33 2523.21 1628 2527.71 1624.14C2532.21 1620.28 2533.22 1609.89 2527.77 1602.28L2527.68 1602.14L2445.76 1473.53L2450.82 1470.31L2532.73 1599C2539.54 1608.58 2539.04 1622.5 2531.65 1628.85C2528.65 1631.4 2520.92 1635.62 2508.28 1626.05C2508.28 1635.34 2505.98 1644.81 2499.41 1648.97C2494.5 1652.07 2488.11 1651.84 2480.34 1648.3C2481.76 1655.78 2479.59 1662.99 2474.24 1666.85C2467.24 1671.91 2458.83 1668.94 2452.1 1663.54C2450.72 1670.4 2447.44 1677.25 2441.48 1680.21C2435.52 1683.17 2428.15 1681.79 2419.62 1676.09C2417.74 1675.47 2414.25 1672.29 2400.14 1650.41C2392.86 1639.13 2385.46 1627.05 2380.48 1618.83L2378.48 1667.21C2378.01 1675.68 2372.28 1681.9 2364.84 1682.03L2364.56 1682Z" fill="black"/>
<path d="M1300.06 1612.58C1299.33 1612.59 1298.62 1612.33 1298.06 1611.85C1297.46 1611.33 1297.09 1610.59 1297.03 1609.8C1296.97 1609.01 1297.23 1608.22 1297.75 1607.62L1346.94 1550.75C1347.19 1550.44 1347.51 1550.19 1347.86 1550C1348.22 1549.81 1348.6 1549.7 1349 1549.66C1349.4 1549.63 1349.8 1549.68 1350.18 1549.8C1350.56 1549.92 1350.92 1550.12 1351.22 1550.38C1351.52 1550.64 1351.77 1550.96 1351.95 1551.32C1352.12 1551.68 1352.23 1552.07 1352.25 1552.47C1352.28 1552.87 1352.22 1553.27 1352.09 1553.65C1351.96 1554.03 1351.75 1554.37 1351.48 1554.67L1302.29 1611.54C1302.01 1611.86 1301.67 1612.12 1301.29 1612.3C1300.9 1612.48 1300.48 1612.57 1300.06 1612.58ZM1277.52 1593C1276.96 1593 1276.41 1592.84 1275.93 1592.55C1275.46 1592.25 1275.07 1591.83 1274.83 1591.33C1274.58 1590.82 1274.48 1590.26 1274.53 1589.7C1274.59 1589.15 1274.8 1588.61 1275.14 1588.17L1315.14 1536.11C1315.63 1535.48 1316.34 1535.07 1317.13 1534.96C1317.92 1534.86 1318.72 1535.07 1319.35 1535.56C1319.98 1536.05 1320.39 1536.76 1320.5 1537.55C1320.6 1538.34 1320.39 1539.14 1319.9 1539.77L1279.9 1591.83C1279.62 1592.19 1279.26 1592.49 1278.85 1592.69C1278.43 1592.89 1277.98 1593 1277.52 1593ZM1251.66 1565C1251.08 1565 1250.52 1564.83 1250.03 1564.51C1249.55 1564.19 1249.17 1563.75 1248.93 1563.22C1248.7 1562.69 1248.62 1562.1 1248.71 1561.53C1248.8 1560.96 1249.06 1560.43 1249.44 1560L1292.86 1512C1293.11 1511.67 1293.43 1511.4 1293.79 1511.2C1294.15 1511.01 1294.55 1510.88 1294.96 1510.85C1295.37 1510.81 1295.79 1510.86 1296.18 1510.99C1296.57 1511.12 1296.93 1511.33 1297.24 1511.6C1297.55 1511.88 1297.79 1512.22 1297.96 1512.59C1298.14 1512.97 1298.23 1513.37 1298.23 1513.79C1298.24 1514.2 1298.16 1514.61 1298 1514.99C1297.84 1515.37 1297.61 1515.71 1297.31 1516L1253.89 1564C1253.6 1564.3 1253.25 1564.53 1252.87 1564.68C1252.49 1564.84 1252.07 1564.91 1251.66 1564.9V1565Z" fill="black"/>
<path d="M2451.28 1660.58C2450.79 1660.58 2450.31 1660.46 2449.88 1660.23C2449.44 1660 2449.07 1659.67 2448.8 1659.26L2407.6 1598.44C2407.38 1598.11 2407.23 1597.74 2407.15 1597.36C2407.07 1596.97 2407.07 1596.57 2407.14 1596.18C2407.22 1595.79 2407.37 1595.42 2407.59 1595.09C2407.81 1594.76 2408.09 1594.48 2408.42 1594.26C2408.75 1594.04 2409.12 1593.89 2409.5 1593.81C2409.89 1593.73 2410.29 1593.73 2410.68 1593.8C2411.07 1593.88 2411.44 1594.03 2411.77 1594.25C2412.1 1594.47 2412.38 1594.75 2412.6 1595.08L2453.8 1655.9C2454.1 1656.35 2454.28 1656.88 2454.31 1657.42C2454.34 1657.96 2454.22 1658.5 2453.97 1658.98C2453.71 1659.47 2453.33 1659.87 2452.86 1660.15C2452.4 1660.43 2451.86 1660.58 2451.32 1660.58H2451.28ZM2476.12 1646.38C2475.59 1646.38 2475.07 1646.24 2474.62 1645.97C2474.16 1645.71 2473.78 1645.33 2473.52 1644.87L2440.88 1587.87C2440.68 1587.53 2440.56 1587.15 2440.5 1586.76C2440.45 1586.37 2440.48 1585.97 2440.58 1585.59C2440.68 1585.21 2440.86 1584.85 2441.1 1584.54C2441.34 1584.23 2441.64 1583.97 2441.98 1583.77C2442.32 1583.57 2442.7 1583.44 2443.09 1583.39C2443.48 1583.34 2443.88 1583.37 2444.26 1583.47C2444.64 1583.57 2445 1583.75 2445.31 1583.99C2445.62 1584.23 2445.88 1584.53 2446.08 1584.87L2478.72 1641.87C2478.98 1642.33 2479.12 1642.84 2479.12 1643.37C2479.12 1643.89 2478.98 1644.41 2478.71 1644.86C2478.45 1645.32 2478.07 1645.7 2477.62 1645.96C2477.16 1646.22 2476.65 1646.36 2476.12 1646.36V1646.38ZM2505.54 1622.09C2505.05 1622.09 2504.57 1621.97 2504.14 1621.74C2503.71 1621.51 2503.34 1621.18 2503.06 1620.78L2466.53 1567.31C2466.31 1566.98 2466.15 1566.61 2466.07 1566.22C2465.99 1565.84 2465.99 1565.44 2466.07 1565.05C2466.14 1564.66 2466.29 1564.29 2466.51 1563.96C2466.73 1563.63 2467.01 1563.34 2467.34 1563.12C2467.67 1562.9 2468.04 1562.74 2468.43 1562.66C2468.81 1562.58 2469.21 1562.58 2469.6 1562.66C2469.99 1562.73 2470.36 1562.88 2470.69 1563.1C2471.02 1563.32 2471.31 1563.6 2471.53 1563.93L2508 1617.4C2508.31 1617.85 2508.49 1618.38 2508.52 1618.92C2508.55 1619.47 2508.43 1620.01 2508.17 1620.49C2507.92 1620.97 2507.54 1621.38 2507.07 1621.66C2506.6 1621.94 2506.07 1622.09 2505.52 1622.09H2505.54Z" fill="black"/>
<path d="M1898.81 843.85V899.29C1898.81 899.29 1848.39 905.17 1818.61 914.01C1788.83 922.85 1741.75 949.63 1741.75 949.63C1731.75 926.91 1732.09 885.93 1734.3 876.74C1740.02 854.45 1771.48 839.65 1781.51 839.56C1783.51 826.26 1793.23 826.04 1797.86 827.56C1796.07 818.652 1796.99 809.414 1800.49 801.03C1813.96 774.41 1841.61 776.98 1853.75 781.6C1835.12 737.89 1871.08 715.39 1891.39 709.6C1893.48 704.6 1899.64 692.95 1907.54 686.6C1921.34 674.02 1944.81 681.28 1954.82 686.49C1983.47 675.36 1992.92 694.92 1994.06 706.09L2003.06 709.57C2030.67 722.22 2021.67 749.83 2013.73 762.05C2014.26 762.18 2029.32 772.99 2035.83 780.49C2054.51 802.03 2043.09 833.38 2032.47 843.86C2041.1 848.972 2049.12 855.058 2056.37 862C2065.24 870.67 2068.58 880.51 2056.37 892.42C2019.94 892.42 1997.7 891.79 1967.37 891.79V886.89C1962.78 887.81 1948.82 889.8 1936.93 887.52C1915.48 883.42 1905.62 858.04 1901.46 845.92C1923.4 870.41 1940.7 870.73 1952.63 867.16C1970.38 861.86 1987.4 835.27 1993.71 821.67C1974.99 809.28 1980.71 789.08 1985.99 780.53C1984.48 781.67 1978.46 783.23 1966.49 780.35C1946.66 775.87 1949.8 761.48 1953.85 754.85C1934.01 757.73 1926.62 745.11 1925.4 738.43C1915.59 759.63 1900.06 759.09 1893.52 756.17C1879.31 791.89 1891.81 831.12 1898.81 843.85Z" fill="black"/>
<path d="M1909.76 829.47C1909.22 829.484 1908.69 829.44 1908.16 829.34L1903.06 828.11L1906.7 824.34C1917.76 812.88 1920.77 794.62 1914.01 779.93C1909.26 769.6 1899.28 766.18 1891.5 766.45H1891.4C1890.6 766.463 1889.84 766.16 1889.26 765.607C1888.69 765.053 1888.36 764.296 1888.35 763.5C1888.34 762.704 1888.64 761.936 1889.19 761.364C1889.75 760.792 1890.5 760.463 1891.3 760.45C1900.98 760.14 1913.49 764.45 1919.47 777.45C1922.7 784.683 1924.06 792.613 1923.41 800.508C1922.77 808.403 1920.14 816.008 1915.78 822.62C1921.48 821.244 1926.77 818.548 1931.24 814.75C1931.54 814.481 1931.88 814.274 1932.26 814.141C1932.64 814.009 1933.04 813.953 1933.44 813.977C1933.84 814.001 1934.23 814.105 1934.59 814.283C1934.95 814.461 1935.27 814.708 1935.53 815.011C1935.79 815.314 1935.99 815.666 1936.11 816.047C1936.23 816.427 1936.28 816.829 1936.25 817.228C1936.21 817.627 1936.1 818.014 1935.91 818.369C1935.72 818.723 1935.47 819.036 1935.16 819.29C1925.61 827.53 1914.27 829.47 1909.76 829.47Z" fill="black"/>
<path d="M1970 777.74C1969.49 777.74 1968.99 777.612 1968.55 777.367C1968.11 777.122 1967.73 776.769 1967.46 776.34C1964.03 770.88 1954.21 762.34 1941.58 768.92C1940.87 769.289 1940.05 769.362 1939.29 769.124C1938.53 768.886 1937.9 768.355 1937.53 767.65C1937.16 766.945 1937.09 766.122 1937.33 765.362C1937.56 764.602 1938.09 763.969 1938.8 763.6C1946.03 759.82 1962.38 756.97 1972.54 773.15C1972.82 773.604 1972.98 774.125 1973 774.66C1973.01 775.195 1972.88 775.724 1972.62 776.193C1972.36 776.661 1971.98 777.051 1971.52 777.323C1971.06 777.595 1970.54 777.739 1970 777.74Z" fill="black"/>
<path d="M1935.94 842.28C1934.66 842.287 1933.38 842.166 1932.12 841.92C1931.73 841.842 1931.36 841.689 1931.03 841.467C1930.7 841.246 1930.42 840.961 1930.2 840.63C1929.98 840.298 1929.83 839.927 1929.76 839.537C1929.68 839.146 1929.69 838.746 1929.77 838.357C1929.85 837.969 1930.01 837.6 1930.23 837.273C1930.46 836.946 1930.75 836.668 1931.08 836.453C1931.42 836.238 1931.79 836.092 1932.18 836.023C1932.57 835.954 1932.97 835.963 1933.36 836.05C1936.66 836.74 1944.14 836.41 1948.83 830.17C1949.07 829.855 1949.36 829.589 1949.7 829.388C1950.04 829.188 1950.42 829.056 1950.81 829C1951.2 828.944 1951.59 828.966 1951.97 829.064C1952.36 829.161 1952.72 829.333 1953.03 829.57C1953.35 829.806 1953.61 830.102 1953.81 830.441C1954.01 830.78 1954.14 831.155 1954.2 831.545C1954.26 831.935 1954.23 832.333 1954.14 832.714C1954.04 833.096 1953.87 833.455 1953.63 833.77C1951.55 836.469 1948.87 838.645 1945.79 840.122C1942.72 841.6 1939.35 842.339 1935.94 842.28Z" fill="black"/>
<path d="M1941.5 790C1940.9 790.001 1940.31 789.816 1939.81 789.47C1939.48 789.248 1939.21 788.964 1938.99 788.635C1938.77 788.305 1938.62 787.936 1938.55 787.549C1938.48 787.161 1938.48 786.764 1938.56 786.378C1938.64 785.992 1938.8 785.626 1939.02 785.3C1941.96 781 1947.6 776.18 1954.62 775.53C1960.67 774.97 1966.5 777.47 1971.98 782.97C1972.28 783.245 1972.51 783.576 1972.68 783.944C1972.84 784.312 1972.93 784.709 1972.93 785.112C1972.94 785.515 1972.87 785.915 1972.72 786.288C1972.57 786.662 1972.34 787.001 1972.06 787.286C1971.77 787.571 1971.43 787.796 1971.06 787.946C1970.69 788.097 1970.29 788.171 1969.88 788.164C1969.48 788.157 1969.08 788.069 1968.71 787.905C1968.35 787.741 1968.02 787.505 1967.74 787.21C1963.57 783.04 1959.34 781.11 1955.18 781.5C1950.18 781.96 1946.05 785.66 1943.98 788.69C1943.71 789.094 1943.34 789.424 1942.9 789.653C1942.47 789.881 1941.99 790 1941.5 790Z" fill="black"/>
<path d="M1917.78 791.17C1917.34 791.17 1916.91 791.075 1916.51 790.89C1916.11 790.705 1915.76 790.435 1915.48 790.1C1911.71 785.58 1907.68 783.3 1903.48 783.3C1898.48 783.3 1894.02 786.62 1891.69 789.46C1891.18 790.075 1890.45 790.464 1889.66 790.541C1888.87 790.618 1888.08 790.376 1887.46 789.87C1886.85 789.363 1886.46 788.633 1886.38 787.84C1886.3 787.046 1886.54 786.255 1887.05 785.64C1890.37 781.64 1896.41 777.32 1903.46 777.3H1903.52C1909.52 777.3 1915.13 780.3 1920.09 786.3C1920.34 786.602 1920.53 786.952 1920.65 787.328C1920.77 787.705 1920.81 788.101 1920.78 788.494C1920.74 788.887 1920.63 789.269 1920.45 789.618C1920.26 789.967 1920.01 790.277 1919.71 790.53C1919.16 790.961 1918.48 791.188 1917.78 791.17Z" fill="black"/>
<path d="M1955.63 791.13C1958.84 791.13 1961.44 788.529 1961.44 785.32C1961.44 782.111 1958.84 779.51 1955.63 779.51C1952.42 779.51 1949.82 782.111 1949.82 785.32C1949.82 788.529 1952.42 791.13 1955.63 791.13Z" fill="black"/>
<path d="M1903.58 792.95C1906.79 792.95 1909.39 790.349 1909.39 787.14C1909.39 783.931 1906.79 781.33 1903.58 781.33C1900.37 781.33 1897.77 783.931 1897.77 787.14C1897.77 790.349 1900.37 792.95 1903.58 792.95Z" fill="black"/>
<path d="M1668 1015.44C1739.5 924.36 1851.23 898.33 1898.15 896.69L1937.26 916.88L1968.01 889.35H2053.63C2129.04 892.29 2167.05 943.15 2186.85 973.41L2469.85 1495.34C2455.16 1495.34 2424.8 1499.01 2420.85 1513.7C2415.95 1532.06 2395.14 1543.08 2357.19 1543.08C2326.83 1543.08 2318.42 1566.75 2318.01 1578.58L2113.57 1173.37L2155.19 1391.28C2150.7 1383.52 2130.19 1365.57 2084.19 1355.78C2026.65 1343.53 2016.85 1390.05 1949.52 1391.28C1882.19 1392.51 1890.76 1333.74 1845.46 1355.78C1768.09 1392.01 1742.22 1370.87 1738.96 1355.78L1769.56 1162.35L1447.56 1543.08C1449.2 1531.25 1444.38 1505.13 1412.06 1495.34C1371.66 1483.09 1374.06 1478.2 1359.42 1451.26C1347.67 1429.72 1327.59 1426.78 1319.02 1428C1405.65 1328.44 1596.55 1106.53 1668 1015.44Z" fill="#FEDA00"/>
<path d="M1773.46 1148.12C1772.99 1148.12 1772.53 1148.01 1772.11 1147.8C1771.69 1147.59 1771.33 1147.28 1771.05 1146.9C1770.77 1146.53 1770.58 1146.09 1770.5 1145.63C1770.42 1145.16 1770.45 1144.69 1770.59 1144.24L1789.51 1082.78C1789.74 1082.02 1790.27 1081.38 1790.97 1081.01C1791.68 1080.63 1792.5 1080.56 1793.26 1080.79C1794.02 1081.02 1794.66 1081.55 1795.03 1082.25C1795.4 1082.96 1795.48 1083.78 1795.25 1084.54L1776.33 1146C1776.14 1146.61 1775.76 1147.15 1775.24 1147.53C1774.73 1147.91 1774.1 1148.12 1773.46 1148.12ZM2105.58 1148.12C2104.9 1148.12 2104.24 1147.89 2103.71 1147.46C2103.18 1147.04 2102.81 1146.45 2102.66 1145.79L2088.48 1084.33C2088.35 1083.57 2088.51 1082.79 2088.94 1082.15C2089.36 1081.51 2090.02 1081.06 2090.76 1080.89C2091.51 1080.72 2092.3 1080.84 2092.96 1081.23C2093.62 1081.62 2094.11 1082.25 2094.32 1082.99L2108.5 1144.45C2108.68 1145.22 2108.54 1146.04 2108.12 1146.71C2107.7 1147.38 2107.02 1147.86 2106.25 1148.04C2106.03 1148.1 2105.81 1148.12 2105.58 1148.12Z" fill="black"/>
<path d="M1897.3 1024.61C1893.64 1024.56 1890.03 1023.85 1886.62 1022.51C1877.81 1019.19 1872.72 1013.69 1871.49 1006.16C1866.78 977.26 1923.07 930.48 1929.49 925.25L1934.17 921.43L1934.38 927.43C1934.66 935.64 1934.88 957.07 1930.79 978.59C1926.79 999.51 1920.11 1013.49 1910.85 1020.14C1906.93 1023.04 1902.18 1024.61 1897.3 1024.61ZM1928.53 933.86C1901.14 957.13 1874.62 988.11 1877.41 1005.2C1878.28 1010.53 1881.98 1014.35 1888.74 1016.89C1895.99 1019.62 1902.08 1019.1 1907.37 1015.31C1915.23 1009.66 1921.3 996.59 1924.92 977.51C1927.48 963.104 1928.69 948.49 1928.53 933.86Z" fill="black"/>
<path d="M1952 1031.86C1947.18 1031.93 1942.53 1030.14 1939 1026.86C1917.36 1007.11 1932.48 935.5 1934.27 927.4L1935.58 921.51L1939.49 926.11C1944.81 932.38 1958.28 949.05 1968.43 968.45C1978.3 987.32 1981.72 1002.45 1978.58 1013.45C1976.23 1021.67 1970.32 1027.34 1961.01 1030.32C1958.1 1031.29 1955.07 1031.81 1952 1031.86ZM1938.85 934.86C1931.85 970.1 1930.25 1010.86 1943.05 1022.51C1947.05 1026.15 1952.31 1026.85 1959.19 1024.65C1966.56 1022.29 1971.02 1018.1 1972.81 1011.85C1975.47 1002.55 1972.12 988.54 1963.11 971.32C1956.2 958.42 1948.09 946.196 1938.89 934.81L1938.85 934.86Z" fill="black"/>
<path d="M2728.71 2342.17H2240L2334.79 1845.93H2634.25L2634.72 1848.37L2728.71 2342.17ZM2247.22 2336.17H2721.46L2629.25 1851.93H2339.71L2247.22 2336.17Z" fill="black"/>
<path d="M1120.85 2290.31L717.91 2013.7L1076.91 1658.22L1323.8 1827.7L1120.85 2290.31ZM727.29 2012.86L1118.29 2281.26L1316.29 1829.84L1077.6 1666L727.29 2012.86Z" fill="#FEDA00"/>
<path d="M2604.63 1849.94L2525.63 1629.32L2531.27 1627.32L2610.27 1847.94L2604.63 1849.94ZM2354.56 1849.83L2348.84 1848.03L2407.41 1662.25L2413.13 1664.05L2354.56 1849.83Z" fill="black"/>
<path d="M1302.94 1815.82L1297.15 1814.24L1357.88 1590.57L1363.67 1592.15L1302.94 1815.82ZM1091 1672.67L1087.36 1667.89L1222.36 1565.19L1226 1570L1091 1672.67Z" fill="black"/>
<path d="M2528.96 1632.04L2523.74 1634.98L2677.77 1908.47L2682.99 1905.53L2528.96 1632.04Z" fill="black"/>
<path d="M2906.26 2428.26H2371.46L2389.12 2335.82L2395.02 2336.94L2378.72 2422.26H2899.01L2798.25 1893.11H2639.02V1887.11H2803.21L2803.68 1889.55L2906.26 2428.26Z" fill="black"/>
<path d="M1544.26 2534.47L1473.83 2504.54L1479.63 2491.54L1509.75 2505.93L1627 1969.28L1807.06 1751.07L1825.99 1847.78L1658.7 1985.12L1544.26 2534.47Z" fill="black"/>
</svg>
