<svg width="3000" height="3000" viewBox="0 0 3000 3000" fill="none" xmlns="http://www.w3.org/2000/svg">
<path d="M2644.41 1016.89C2642.76 1016.89 2641.15 1016.4 2639.78 1015.49C2638.41 1014.57 2637.34 1013.27 2636.71 1011.75C2636.08 1010.23 2635.92 1008.55 2636.24 1006.93C2636.56 1005.32 2637.35 1003.83 2638.52 1002.67C2639.68 1001.5 2641.17 1000.71 2642.78 1000.39C2644.4 1000.07 2646.08 1000.23 2647.6 1000.86C2649.12 1001.49 2650.42 1002.56 2651.34 1003.93C2652.25 1005.3 2652.74 1006.91 2652.74 1008.56C2652.74 1010.77 2651.86 1012.89 2650.3 1014.45C2648.74 1016.01 2646.62 1016.89 2644.41 1016.89ZM2644.41 1006.23C2643.95 1006.23 2643.5 1006.37 2643.12 1006.62C2642.73 1006.88 2642.43 1007.24 2642.26 1007.67C2642.08 1008.09 2642.03 1008.56 2642.12 1009.01C2642.21 1009.47 2642.44 1009.88 2642.76 1010.21C2643.09 1010.53 2643.5 1010.76 2643.96 1010.85C2644.41 1010.94 2644.88 1010.89 2645.3 1010.71C2645.73 1010.54 2646.09 1010.24 2646.35 1009.85C2646.6 1009.47 2646.74 1009.02 2646.74 1008.56C2646.74 1007.94 2646.49 1007.35 2646.06 1006.91C2645.62 1006.48 2645.03 1006.23 2644.41 1006.23Z" fill="#FFFFFF"/>
<path d="M2147 2739.05C2145.35 2739.05 2143.74 2738.56 2142.37 2737.65C2141 2736.73 2139.93 2735.43 2139.3 2733.91C2138.67 2732.39 2138.51 2730.71 2138.83 2729.09C2139.15 2727.48 2139.94 2725.99 2141.11 2724.83C2142.27 2723.66 2143.76 2722.87 2145.37 2722.55C2146.99 2722.23 2148.67 2722.39 2150.19 2723.02C2151.71 2723.65 2153.01 2724.72 2153.93 2726.09C2154.84 2727.46 2155.33 2729.07 2155.33 2730.72C2155.33 2732.93 2154.45 2735.05 2152.89 2736.61C2151.33 2738.17 2149.21 2739.05 2147 2739.05ZM2147 2728.39C2146.54 2728.39 2146.09 2728.53 2145.71 2728.78C2145.32 2729.04 2145.02 2729.4 2144.85 2729.83C2144.67 2730.25 2144.62 2730.72 2144.71 2731.17C2144.8 2731.63 2145.03 2732.04 2145.35 2732.37C2145.68 2732.69 2146.09 2732.91 2146.55 2733C2147 2733.09 2147.47 2733.05 2147.89 2732.87C2148.32 2732.7 2148.68 2732.4 2148.94 2732.01C2149.19 2731.63 2149.33 2731.18 2149.33 2730.72C2149.33 2730.1 2149.08 2729.51 2148.65 2729.07C2148.21 2728.64 2147.62 2728.39 2147 2728.39Z" fill="#FFFFFF"/>
<path d="M1253.64 1218.19C1251.99 1218.19 1250.38 1217.7 1249.01 1216.79C1247.64 1215.87 1246.57 1214.57 1245.94 1213.05C1245.31 1211.53 1245.15 1209.85 1245.47 1208.23C1245.79 1206.62 1246.58 1205.13 1247.75 1203.97C1248.91 1202.8 1250.4 1202.01 1252.01 1201.69C1253.63 1201.37 1255.31 1201.53 1256.83 1202.16C1258.35 1202.79 1259.65 1203.86 1260.57 1205.23C1261.48 1206.6 1261.97 1208.21 1261.97 1209.86C1261.97 1212.07 1261.09 1214.19 1259.53 1215.75C1257.97 1217.31 1255.85 1218.19 1253.64 1218.19ZM1253.64 1207.53C1253.18 1207.53 1252.73 1207.67 1252.35 1207.92C1251.96 1208.18 1251.66 1208.54 1251.49 1208.97C1251.31 1209.39 1251.26 1209.86 1251.35 1210.31C1251.44 1210.77 1251.67 1211.18 1251.99 1211.51C1252.32 1211.83 1252.73 1212.06 1253.19 1212.15C1253.64 1212.23 1254.11 1212.19 1254.53 1212.01C1254.96 1211.84 1255.32 1211.54 1255.58 1211.15C1255.83 1210.77 1255.97 1210.32 1255.97 1209.86C1255.97 1209.24 1255.72 1208.65 1255.29 1208.21C1254.85 1207.78 1254.26 1207.53 1253.64 1207.53Z" fill="#FFFFFF"/>
<path d="M437.55 1141.64C435.902 1141.64 434.292 1141.15 432.922 1140.24C431.552 1139.32 430.485 1138.02 429.854 1136.5C429.224 1134.98 429.059 1133.3 429.38 1131.68C429.701 1130.07 430.495 1128.58 431.66 1127.42C432.825 1126.25 434.309 1125.46 435.925 1125.14C437.541 1124.82 439.216 1124.98 440.738 1125.61C442.26 1126.24 443.561 1127.31 444.476 1128.68C445.391 1130.05 445.88 1131.66 445.88 1133.31C445.877 1135.52 444.999 1137.64 443.437 1139.2C441.876 1140.76 439.758 1141.64 437.55 1141.64ZM437.55 1130.98C437.089 1130.98 436.639 1131.12 436.255 1131.37C435.872 1131.63 435.574 1131.99 435.397 1132.42C435.221 1132.84 435.175 1133.31 435.265 1133.76C435.355 1134.22 435.577 1134.63 435.902 1134.96C436.228 1135.28 436.643 1135.51 437.095 1135.6C437.547 1135.69 438.016 1135.64 438.442 1135.46C438.867 1135.29 439.231 1134.99 439.487 1134.6C439.743 1134.22 439.88 1133.77 439.88 1133.31C439.875 1132.7 439.627 1132.11 439.19 1131.68C438.754 1131.24 438.164 1131 437.55 1131V1130.98Z" fill="#FFFFFF"/>
<path d="M479.22 2342.52C477.572 2342.52 475.962 2342.03 474.592 2341.12C473.222 2340.2 472.154 2338.9 471.524 2337.38C470.894 2335.86 470.729 2334.18 471.05 2332.56C471.371 2330.95 472.165 2329.46 473.33 2328.3C474.495 2327.13 475.979 2326.34 477.595 2326.02C479.211 2325.7 480.886 2325.86 482.408 2326.49C483.93 2327.12 485.231 2328.19 486.146 2329.56C487.061 2330.93 487.55 2332.54 487.55 2334.19C487.547 2336.4 486.669 2338.52 485.107 2340.08C483.546 2341.64 481.428 2342.52 479.22 2342.52ZM479.22 2331.86C478.759 2331.86 478.309 2332 477.925 2332.25C477.542 2332.51 477.244 2332.87 477.067 2333.3C476.891 2333.72 476.845 2334.19 476.935 2334.64C477.025 2335.1 477.246 2335.51 477.572 2335.84C477.898 2336.16 478.313 2336.39 478.765 2336.48C479.217 2336.57 479.686 2336.52 480.112 2336.34C480.537 2336.17 480.901 2335.87 481.157 2335.48C481.413 2335.1 481.55 2334.65 481.55 2334.19C481.55 2333.57 481.304 2332.98 480.867 2332.54C480.43 2332.11 479.838 2331.86 479.22 2331.86Z" fill="#FFFFFF"/>
<path d="M1975.4 284.08C1973.75 284.08 1972.14 283.591 1970.77 282.676C1969.4 281.761 1968.33 280.46 1967.7 278.938C1967.07 277.416 1966.91 275.741 1967.23 274.125C1967.55 272.509 1968.34 271.025 1969.51 269.86C1970.67 268.695 1972.16 267.901 1973.77 267.58C1975.39 267.259 1977.07 267.424 1978.59 268.054C1980.11 268.684 1981.41 269.752 1982.33 271.122C1983.24 272.492 1983.73 274.102 1983.73 275.75C1983.73 277.958 1982.85 280.076 1981.29 281.637C1979.73 283.199 1977.61 284.077 1975.4 284.08ZM1975.4 273.42C1974.94 273.42 1974.49 273.557 1974.11 273.813C1973.72 274.069 1973.42 274.433 1973.25 274.858C1973.07 275.284 1973.02 275.753 1973.11 276.204C1973.2 276.656 1973.43 277.072 1973.75 277.397C1974.08 277.723 1974.49 277.945 1974.95 278.035C1975.4 278.125 1975.87 278.079 1976.29 277.903C1976.72 277.726 1977.08 277.428 1977.34 277.044C1977.59 276.661 1977.73 276.211 1977.73 275.75C1977.73 275.132 1977.48 274.539 1977.05 274.102C1976.61 273.665 1976.02 273.42 1975.4 273.42Z" fill="#FFFFFF"/>
<path d="M1624.07 2090.19C1622.42 2090.19 1620.81 2089.7 1619.44 2088.79C1618.07 2087.87 1617 2086.57 1616.37 2085.05C1615.74 2083.53 1615.58 2081.85 1615.9 2080.23C1616.22 2078.62 1617.01 2077.13 1618.18 2075.97C1619.34 2074.8 1620.83 2074.01 1622.44 2073.69C1624.06 2073.37 1625.74 2073.53 1627.26 2074.16C1628.78 2074.79 1630.08 2075.86 1631 2077.23C1631.91 2078.6 1632.4 2080.21 1632.4 2081.86C1632.4 2084.07 1631.52 2086.19 1629.96 2087.75C1628.4 2089.31 1626.28 2090.19 1624.07 2090.19ZM1624.07 2079.53C1623.61 2079.53 1623.16 2079.67 1622.78 2079.92C1622.39 2080.18 1622.09 2080.54 1621.92 2080.97C1621.74 2081.39 1621.69 2081.86 1621.78 2082.31C1621.87 2082.77 1622.1 2083.18 1622.42 2083.51C1622.75 2083.83 1623.16 2084.06 1623.62 2084.15C1624.07 2084.24 1624.54 2084.19 1624.96 2084.01C1625.39 2083.84 1625.75 2083.54 1626.01 2083.15C1626.26 2082.77 1626.4 2082.32 1626.4 2081.86C1626.4 2081.24 1626.15 2080.65 1625.71 2080.22C1625.28 2079.78 1624.69 2079.53 1624.07 2079.53Z" fill="#FFFFFF"/>
<path d="M497.88 164.83C496.232 164.83 494.622 164.341 493.252 163.426C491.882 162.511 490.814 161.21 490.184 159.688C489.553 158.166 489.388 156.491 489.71 154.875C490.031 153.259 490.825 151.775 491.99 150.61C493.155 149.445 494.639 148.651 496.255 148.33C497.871 148.009 499.545 148.174 501.068 148.804C502.59 149.434 503.891 150.502 504.806 151.872C505.721 153.242 506.21 154.852 506.21 156.5C506.207 158.708 505.329 160.826 503.767 162.387C502.205 163.949 500.088 164.827 497.88 164.83ZM497.88 154.17C497.419 154.17 496.968 154.307 496.585 154.563C496.202 154.819 495.904 155.183 495.727 155.608C495.551 156.034 495.505 156.503 495.595 156.954C495.684 157.406 495.906 157.822 496.232 158.147C496.558 158.473 496.973 158.695 497.425 158.785C497.877 158.875 498.346 158.829 498.771 158.653C499.197 158.476 499.561 158.178 499.817 157.794C500.073 157.411 500.21 156.961 500.21 156.5C500.21 155.882 499.964 155.289 499.527 154.852C499.09 154.415 498.498 154.17 497.88 154.17Z" fill="#FFFFFF"/>
<path d="M864.31 1619.87C863.678 1619.87 863.062 1619.67 862.55 1619.3L833.19 1598C832.871 1597.77 832.6 1597.48 832.394 1597.14C832.188 1596.8 832.05 1596.43 831.989 1596.04C831.927 1595.65 831.942 1595.25 832.034 1594.87C832.126 1594.49 832.293 1594.12 832.525 1593.8C832.757 1593.49 833.049 1593.22 833.385 1593.01C833.722 1592.8 834.095 1592.67 834.485 1592.6C834.874 1592.54 835.272 1592.56 835.656 1592.65C836.039 1592.74 836.401 1592.91 836.72 1593.14L866.08 1614.49C866.594 1614.86 866.977 1615.39 867.173 1615.99C867.37 1616.6 867.37 1617.25 867.173 1617.85C866.976 1618.45 866.593 1618.98 866.078 1619.35C865.564 1619.72 864.945 1619.92 864.31 1619.92V1619.87Z" fill="#FFFFFF"/>
<path d="M1330 190.18C1329.37 190.18 1328.75 189.981 1328.24 189.61L1298.88 168.26C1298.56 168.029 1298.29 167.737 1298.08 167.402C1297.88 167.066 1297.74 166.693 1297.68 166.304C1297.61 165.915 1297.63 165.517 1297.72 165.134C1297.81 164.751 1297.98 164.389 1298.21 164.07C1298.44 163.751 1298.73 163.48 1299.07 163.274C1299.4 163.068 1299.78 162.929 1300.17 162.867C1300.56 162.805 1300.95 162.82 1301.34 162.911C1301.72 163.003 1302.08 163.169 1302.4 163.4L1331.76 184.76C1332.27 185.133 1332.65 185.658 1332.84 186.258C1333.04 186.859 1333.04 187.506 1332.84 188.107C1332.65 188.707 1332.27 189.231 1331.76 189.603C1331.25 189.975 1330.63 190.177 1330 190.18Z" fill="#FFFFFF"/>
<path d="M413.33 1990.39C412.691 1990.39 412.069 1990.19 411.554 1989.81C411.039 1989.43 410.657 1988.9 410.466 1988.29C410.274 1987.68 410.281 1987.03 410.487 1986.42C410.693 1985.82 411.086 1985.3 411.61 1984.93L441.4 1964.18C442.053 1963.75 442.847 1963.59 443.614 1963.74C444.381 1963.89 445.06 1964.33 445.506 1964.97C445.953 1965.61 446.132 1966.4 446.006 1967.17C445.88 1967.94 445.458 1968.64 444.83 1969.1L415 1989.85C414.511 1990.2 413.928 1990.38 413.33 1990.39Z" fill="#FFFFFF"/>
<path d="M2624 2573.28C2623.36 2573.28 2622.74 2573.07 2622.23 2572.7C2621.71 2572.32 2621.33 2571.78 2621.14 2571.18C2620.95 2570.57 2620.96 2569.91 2621.17 2569.31C2621.37 2568.71 2621.77 2568.18 2622.29 2567.82L2652.08 2547.07C2652.73 2546.64 2653.53 2546.48 2654.29 2546.63C2655.06 2546.78 2655.74 2547.22 2656.19 2547.86C2656.63 2548.5 2656.81 2549.29 2656.69 2550.06C2656.56 2550.83 2656.14 2551.53 2655.51 2551.99L2625.72 2572.74C2625.22 2573.09 2624.62 2573.28 2624 2573.28Z" fill="#FFFFFF"/>
<path d="M2141.39 1383.18C2140.75 1383.18 2140.13 1382.98 2139.61 1382.6C2139.1 1382.22 2138.72 1381.69 2138.53 1381.08C2138.33 1380.47 2138.34 1379.82 2138.55 1379.21C2138.75 1378.61 2139.15 1378.09 2139.67 1377.72L2169.46 1356.97C2169.78 1356.73 2170.15 1356.56 2170.54 1356.47C2170.93 1356.37 2171.33 1356.36 2171.73 1356.42C2172.13 1356.49 2172.5 1356.63 2172.84 1356.84C2173.18 1357.06 2173.48 1357.34 2173.71 1357.67C2173.93 1357.99 2174.1 1358.37 2174.18 1358.76C2174.26 1359.15 2174.27 1359.56 2174.19 1359.95C2174.11 1360.34 2173.96 1360.72 2173.74 1361.05C2173.51 1361.38 2173.23 1361.67 2172.89 1361.89L2143.1 1382.64C2142.6 1382.99 2142 1383.18 2141.39 1383.18Z" fill="#FFFFFF"/>
<path d="M1076 2770.79C1075.36 2770.79 1074.74 2770.58 1074.23 2770.21C1073.71 2769.83 1073.33 2769.3 1073.14 2768.69C1072.95 2768.08 1072.96 2767.42 1073.17 2766.82C1073.37 2766.22 1073.77 2765.7 1074.29 2765.33L1104.08 2744.58C1104.73 2744.17 1105.52 2744.04 1106.27 2744.19C1107.02 2744.35 1107.69 2744.79 1108.13 2745.42C1108.56 2746.05 1108.74 2746.82 1108.63 2747.58C1108.51 2748.34 1108.11 2749.03 1107.5 2749.5L1077.71 2770.25C1077.21 2770.6 1076.61 2770.79 1076 2770.79Z" fill="#FFFFFF"/>
<path d="M347.72 586.7C347.082 586.698 346.461 586.494 345.948 586.115C345.434 585.737 345.055 585.205 344.864 584.596C344.674 583.988 344.682 583.334 344.888 582.731C345.094 582.127 345.487 581.605 346.01 581.24L375.79 560.49C376.112 560.251 376.479 560.08 376.869 559.985C377.259 559.891 377.664 559.876 378.06 559.941C378.456 560.006 378.834 560.149 379.174 560.363C379.513 560.577 379.806 560.857 380.035 561.186C380.265 561.515 380.426 561.886 380.509 562.279C380.592 562.671 380.596 563.076 380.52 563.47C380.444 563.864 380.29 564.238 380.066 564.572C379.843 564.905 379.555 565.19 379.22 565.41L349.44 586.16C348.936 586.512 348.335 586.7 347.72 586.7Z" fill="#FFFFFF"/>
<path d="M2332.12 736.67C2331.42 736.675 2330.74 736.434 2330.19 735.988C2329.65 735.542 2329.28 734.919 2329.15 734.229C2329.02 733.539 2329.13 732.824 2329.48 732.21C2329.82 731.596 2330.36 731.122 2331.02 730.87L2364.81 717.6C2365.55 717.332 2366.36 717.361 2367.07 717.682C2367.78 718.003 2368.34 718.59 2368.63 719.318C2368.92 720.045 2368.91 720.857 2368.61 721.578C2368.3 722.3 2367.73 722.874 2367.01 723.18L2333.22 736.46C2332.87 736.598 2332.5 736.669 2332.12 736.67Z" fill="#FFFFFF"/>
<path d="M2617.57 220.65C2617.07 220.65 2616.58 220.525 2616.14 220.286C2615.7 220.046 2615.32 219.701 2615.05 219.28L2595.3 188.82C2594.95 188.159 2594.86 187.392 2595.05 186.668C2595.23 185.944 2595.68 185.315 2596.31 184.906C2596.94 184.497 2597.69 184.336 2598.43 184.455C2599.17 184.574 2599.83 184.965 2600.3 185.55L2620.09 216C2620.3 216.331 2620.45 216.701 2620.52 217.089C2620.59 217.476 2620.59 217.874 2620.5 218.26C2620.42 218.645 2620.26 219.01 2620.04 219.335C2619.82 219.659 2619.53 219.936 2619.2 220.15C2618.72 220.471 2618.15 220.645 2617.57 220.65Z" fill="#FFFFFF"/>
<path d="M188.22 2315.11C187.719 2315.11 187.226 2314.98 186.786 2314.75C186.345 2314.51 185.972 2314.16 185.7 2313.74L166 2283.28C165.736 2282.95 165.544 2282.58 165.435 2282.17C165.327 2281.76 165.305 2281.34 165.37 2280.93C165.435 2280.51 165.587 2280.12 165.815 2279.76C166.044 2279.41 166.343 2279.11 166.695 2278.88C167.046 2278.65 167.442 2278.5 167.856 2278.43C168.271 2278.37 168.695 2278.39 169.1 2278.49C169.506 2278.6 169.885 2278.79 170.212 2279.06C170.539 2279.32 170.808 2279.65 171 2280.02L190.75 2310.48C191.043 2310.93 191.208 2311.46 191.229 2311.99C191.25 2312.53 191.126 2313.07 190.869 2313.54C190.612 2314.01 190.232 2314.41 189.77 2314.69C189.307 2314.96 188.779 2315.11 188.24 2315.11H188.22Z" fill="#FFFFFF"/>
<path d="M727.54 368.93L758.54 536.69L890.8 481.75L768.15 578.06L877.8 632L750.74 608.29L777.35 765.88L711.8 612.61L596.24 737.7L672.32 595.14L558 556.76L667.28 549.92L634.5 479.52L698.14 529.93L727.54 368.93Z" fill="#FFFFFF"/>
<path d="M2526.61 1712.9L2547.11 1823.67L2634.44 1787.39L2553.44 1850.98L2625.84 1886.59L2541.94 1870.94L2559.51 1974.94L2516.23 1873.75L2439.93 1956.34L2490.16 1862.21L2414.69 1836.87L2486.85 1832.35L2465.2 1785.87L2507.2 1819.15L2526.61 1712.9Z" fill="#FFFFFF"/>
<path d="M1491.45 613.3H1135.11L1137.46 608.89C1145.14 594.5 1161.58 577.04 1184.68 571.2C1205.3 566 1227.33 570.69 1250.2 585.2C1258.11 572.98 1271.28 560.81 1286.46 560.66H1286.75C1298.88 560.66 1310.18 568.16 1320.42 582.97C1333.55 552.66 1356.48 521.87 1384.15 520.97C1408.91 520.19 1432.63 542.86 1454.78 588.39C1460.51 583.95 1468.13 580.75 1475.12 583.07C1483.12 585.73 1488.47 594.74 1490.89 609.84L1491.45 613.3ZM1145.35 607.3H1484.35C1482.18 596.84 1478.35 590.45 1473.26 588.75C1467.45 586.83 1460.26 591.12 1455.88 595.37L1452.88 598.3L1451.09 594.5C1429.57 548.96 1407.09 526.26 1384.37 526.95C1372.23 527.34 1360.16 534.44 1348.51 548.06C1339.06 559.06 1330.3 574.15 1323.83 590.45L1321.62 596.02L1318.48 590.91C1308.6 574.79 1297.93 566.62 1286.78 566.62H1286.55C1277.93 566.71 1264.17 573.11 1253.76 590.86L1252.15 593.59L1249.51 591.84C1227.18 577.03 1205.87 572.05 1186.18 577.02C1167.25 581.8 1153.2 595.08 1145.35 607.3Z" fill="#FEDA00"/>
<path d="M2747.4 1570.85H2192.4L2192.96 1567.37C2196.66 1544.37 2204.61 1530.64 2216.58 1526.67C2227.58 1523.01 2239.83 1528.73 2248.58 1536.09C2283.32 1463.92 2320.4 1427.96 2358.89 1429.18C2402.45 1430.56 2438.54 1480.36 2458.73 1528.41C2475.07 1503.72 2493.1 1491.3 2512.4 1491.5C2536.17 1491.73 2556.81 1511.42 2568.89 1530.7C2604.89 1507.51 2639.58 1499.9 2671.89 1508.08C2707.64 1517.08 2733.08 1544.15 2744.97 1566.44L2747.4 1570.85ZM2199.48 1564.85H2737.25C2725.12 1544.67 2702.03 1521.85 2670.5 1513.9C2638.97 1505.95 2605.13 1513.9 2569.62 1537.41L2566.98 1539.16L2565.37 1536.43C2554.42 1517.75 2534.74 1497.72 2512.37 1497.5H2512C2493.85 1497.5 2476.6 1510.61 2460.74 1536.5L2457.6 1541.61L2455.39 1536.04C2445.16 1510.26 2431.29 1486.44 2416.33 1468.96C2397.7 1447.18 2378.33 1435.82 2358.73 1435.2C2341.97 1434.65 2325.03 1442.2 2308.43 1457.68C2289.3 1475.5 2270.43 1503.97 2252.3 1542.31L2250.51 1546.1L2247.51 1543.18C2239.93 1535.82 2228.31 1529.12 2218.51 1532.39C2209.48 1535.35 2203 1546.55 2199.48 1564.85Z" fill="#FEDA00"/>
<path d="M1971.34 461.32C2012.27 495.75 2006.85 567.75 1999.02 599.45C1985.54 599.45 1978.56 603.67 1976.75 605.77C1986.08 575.98 1994.81 533.84 1967.42 537.16C1908.2 543.9 1876.84 531.74 1870.32 524.92C1873.82 511.73 1920.18 418.28 1971.34 461.32Z" fill="#FFFFFF"/>
<path d="M1922.38 693.65C1911.38 693.727 1900.68 690.02 1892.08 683.15C1887.45 679.577 1883.48 675.229 1880.34 670.3L1880.27 670.18C1849.7 617.79 1861.44 551.3 1871.92 523.46C1872.06 523.091 1872.27 522.753 1872.54 522.465C1872.81 522.177 1873.13 521.945 1873.49 521.782C1873.85 521.619 1874.24 521.529 1874.63 521.515C1875.02 521.502 1875.42 521.567 1875.79 521.705C1876.15 521.844 1876.49 522.054 1876.78 522.323C1877.07 522.592 1877.3 522.915 1877.46 523.274C1877.63 523.633 1877.72 524.021 1877.73 524.415C1877.74 524.808 1877.68 525.201 1877.54 525.57C1867.41 552.48 1856.04 616.67 1885.42 667.1C1888.19 671.44 1891.69 675.266 1895.76 678.41C1916.84 695.02 1942.05 685.62 1952.44 678.34C1959.83 673.101 1966.31 666.682 1971.62 659.34C1975.17 654.34 1982.91 642.12 1986.62 632.09C1986.91 631.354 1987.47 630.761 1988.19 630.438C1988.91 630.115 1989.73 630.089 1990.47 630.365C1991.21 630.641 1991.81 631.198 1992.14 631.914C1992.47 632.63 1992.51 633.448 1992.24 634.19C1988.24 644.79 1980.24 657.57 1976.47 662.84C1970.71 670.76 1962.8 678.57 1955.8 683.25C1945.9 689.883 1934.29 693.496 1922.38 693.65Z" fill="#FFFFFF"/>
<path d="M1982.06 636.81C1980.1 636.82 1978.15 636.667 1976.22 636.35C1975.83 636.285 1975.46 636.143 1975.13 635.934C1974.79 635.724 1974.5 635.451 1974.27 635.13C1974.04 634.808 1973.88 634.445 1973.79 634.061C1973.71 633.677 1973.69 633.279 1973.76 632.89C1973.83 632.502 1973.97 632.13 1974.18 631.796C1974.39 631.462 1974.66 631.172 1974.98 630.944C1975.3 630.715 1975.66 630.552 1976.05 630.464C1976.43 630.376 1976.83 630.365 1977.22 630.43C1984.46 631.68 2001.59 630.25 2005.36 617.83C2007.5 610.76 2006.45 604.65 2002.48 601.06C1998.74 597.68 1992.95 597.14 1987.01 599.62C1986.64 599.788 1986.25 599.88 1985.85 599.891C1985.45 599.903 1985.05 599.833 1984.67 599.687C1984.3 599.541 1983.95 599.321 1983.67 599.04C1983.38 598.759 1983.15 598.424 1983 598.053C1982.84 597.682 1982.76 597.284 1982.76 596.882C1982.76 596.48 1982.85 596.082 1983 595.713C1983.16 595.343 1983.39 595.009 1983.68 594.73C1983.97 594.452 1984.31 594.234 1984.69 594.09C1992.84 590.69 2000.99 591.63 2006.5 596.61C2012.18 601.74 2013.9 610.32 2011.1 619.61C2008.94 626.71 2003.43 631.95 1995.15 634.75C1990.92 636.131 1986.51 636.827 1982.06 636.81Z" fill="#FFFFFF"/>
<path d="M1990.26 629.54L1972.68 663.87C1972.68 663.87 1970.6 652.72 1970.68 645.5C1970.74 638.8 1972.68 628.5 1972.68 628.5C1979 630.34 1986.33 629.94 1990.26 629.54Z" fill="#FFFFFF"/>
<path d="M1879 647.27L1882.81 640.81C1892.58 624.2 1898.33 592.21 1893.6 580.81C1889.1 569.9 1873.09 566.22 1866.48 566.22C1865.68 566.22 1864.92 565.904 1864.36 565.342C1863.8 564.779 1863.48 564.016 1863.48 563.22C1863.48 562.425 1863.8 561.662 1864.36 561.099C1864.92 560.536 1865.68 560.22 1866.48 560.22C1873 560.22 1892.98 563.59 1899.14 578.52C1904.42 591.28 1899.36 619.52 1891.27 637.46C1895.54 635.7 1900.88 632.18 1907.74 623.39C1907.98 623.072 1908.28 622.804 1908.62 622.604C1908.97 622.403 1909.35 622.272 1909.74 622.22C1910.14 622.168 1910.54 622.194 1910.92 622.299C1911.31 622.403 1911.67 622.584 1911.98 622.829C1912.3 623.074 1912.56 623.379 1912.75 623.726C1912.95 624.074 1913.07 624.456 1913.12 624.852C1913.16 625.248 1913.13 625.649 1913.02 626.031C1912.91 626.414 1912.72 626.77 1912.47 627.08C1901.36 641.32 1893.17 643.45 1887.75 644.85L1886.21 645.27L1879 647.27Z" fill="#FFFFFF"/>
<path d="M1960.7 577.92C1959.92 577.922 1959.16 577.617 1958.6 577.07C1946.65 565.39 1933.41 571.07 1928.08 575.76C1927.79 576.036 1927.44 576.249 1927.06 576.388C1926.68 576.526 1926.28 576.587 1925.88 576.567C1925.48 576.547 1925.08 576.445 1924.72 576.269C1924.36 576.093 1924.03 575.846 1923.77 575.542C1923.5 575.238 1923.3 574.884 1923.18 574.501C1923.05 574.118 1923.01 573.714 1923.04 573.312C1923.07 572.911 1923.19 572.52 1923.38 572.164C1923.57 571.808 1923.83 571.494 1924.14 571.24C1930.91 565.33 1947.71 558.04 1962.8 572.78C1963.22 573.198 1963.52 573.732 1963.64 574.315C1963.76 574.898 1963.7 575.504 1963.47 576.055C1963.25 576.606 1962.87 577.078 1962.37 577.41C1961.88 577.742 1961.3 577.92 1960.7 577.92Z" fill="#FFFFFF"/>
<path d="M1977.68 620.41C1977.12 620.412 1976.57 620.256 1976.09 619.96C1975.75 619.755 1975.46 619.485 1975.23 619.167C1974.99 618.848 1974.83 618.486 1974.73 618.103C1974.64 617.719 1974.62 617.321 1974.69 616.931C1974.75 616.541 1974.88 616.167 1975.09 615.83C1977.83 611.44 1986.09 603.52 1997.94 604.93C1998.33 604.977 1998.71 605.102 1999.06 605.296C1999.41 605.491 1999.71 605.751 1999.96 606.063C2000.2 606.375 2000.38 606.733 2000.49 607.115C2000.6 607.497 2000.63 607.896 2000.58 608.29C2000.53 608.684 2000.41 609.065 2000.21 609.411C2000.02 609.757 1999.76 610.061 1999.45 610.306C1999.13 610.551 1998.78 610.732 1998.4 610.839C1998.01 610.947 1997.61 610.977 1997.22 610.93C1988.42 609.87 1982.22 615.77 1980.22 619.04C1979.95 619.463 1979.57 619.811 1979.13 620.05C1978.68 620.29 1978.18 620.414 1977.68 620.41Z" fill="#FFFFFF"/>
<path d="M1926.72 595.82C1926.16 595.82 1925.61 595.662 1925.13 595.363C1924.65 595.065 1924.27 594.639 1924.02 594.133C1923.78 593.627 1923.68 593.063 1923.74 592.503C1923.8 591.944 1924.01 591.413 1924.36 590.97C1927.91 586.46 1934.47 581.58 1942.22 581.38C1948.84 581.22 1955.1 584.38 1960.72 590.85C1960.98 591.147 1961.18 591.492 1961.3 591.865C1961.43 592.239 1961.48 592.634 1961.45 593.027C1961.43 593.42 1961.32 593.804 1961.15 594.157C1960.97 594.511 1960.73 594.826 1960.44 595.085C1960.14 595.345 1959.79 595.543 1959.42 595.669C1959.05 595.795 1958.65 595.846 1958.26 595.82C1957.87 595.793 1957.48 595.69 1957.13 595.515C1956.77 595.34 1956.46 595.097 1956.2 594.8C1951.8 589.8 1947.14 587.26 1942.37 587.38C1936.69 587.52 1931.66 591.38 1929.08 594.68C1928.8 595.036 1928.44 595.324 1928.03 595.522C1927.62 595.719 1927.17 595.821 1926.72 595.82Z" fill="#FFFFFF"/>
<path d="M1864.9 594.67C1864.34 594.67 1863.79 594.512 1863.31 594.213C1862.83 593.915 1862.45 593.489 1862.2 592.983C1861.96 592.477 1861.86 591.913 1861.92 591.353C1861.98 590.794 1862.19 590.263 1862.54 589.82C1866.09 585.31 1872.64 580.42 1880.39 580.23C1887 580.04 1893.27 583.23 1898.9 589.7C1899.39 590.304 1899.63 591.074 1899.56 591.848C1899.49 592.622 1899.13 593.34 1898.54 593.851C1897.96 594.361 1897.19 594.625 1896.42 594.586C1895.64 594.546 1894.91 594.207 1894.38 593.64C1889.98 588.64 1885.38 586.1 1880.54 586.23C1874.87 586.37 1869.84 590.23 1867.26 593.53C1866.98 593.886 1866.62 594.174 1866.21 594.372C1865.8 594.569 1865.35 594.671 1864.9 594.67Z" fill="#FFFFFF"/>
<path d="M1942.59 598.51C1946.17 598.51 1949.08 595.605 1949.08 592.02C1949.08 588.436 1946.17 585.53 1942.59 585.53C1939.01 585.53 1936.1 588.436 1936.1 592.02C1936.1 595.605 1939.01 598.51 1942.59 598.51Z" fill="#FFFFFF"/>
<path d="M1919.63 659.65C1918.25 659.65 1916.89 659.24 1915.74 658.471C1914.59 657.702 1913.69 656.608 1913.16 655.329C1912.63 654.05 1912.49 652.643 1912.76 651.285C1913.03 649.927 1913.7 648.68 1914.68 647.701C1915.66 646.722 1916.91 646.055 1918.26 645.785C1919.62 645.515 1921.03 645.653 1922.31 646.183C1923.59 646.713 1924.68 647.61 1925.45 648.761C1926.22 649.913 1926.63 651.266 1926.63 652.65C1926.63 654.507 1925.89 656.287 1924.58 657.6C1923.27 658.913 1921.49 659.65 1919.63 659.65ZM1919.63 651.65C1919.43 651.65 1919.24 651.709 1919.07 651.819C1918.91 651.929 1918.78 652.085 1918.71 652.268C1918.63 652.45 1918.61 652.652 1918.65 652.845C1918.69 653.039 1918.78 653.218 1918.92 653.358C1919.06 653.497 1919.24 653.593 1919.44 653.631C1919.63 653.67 1919.83 653.65 1920.01 653.574C1920.2 653.499 1920.35 653.37 1920.46 653.206C1920.57 653.042 1920.63 652.848 1920.63 652.65C1920.63 652.385 1920.52 652.131 1920.34 651.943C1920.15 651.756 1919.9 651.65 1919.63 651.65Z" fill="#FFFFFF"/>
<path d="M1880.77 597.35C1884.35 597.35 1887.26 594.444 1887.26 590.86C1887.26 587.276 1884.35 584.37 1880.77 584.37C1877.19 584.37 1874.28 587.276 1874.28 590.86C1874.28 594.444 1877.19 597.35 1880.77 597.35Z" fill="#FFFFFF"/>
<path d="M1990 626.19C1989.47 626.191 1988.95 626.05 1988.49 625.782C1988.03 625.514 1987.65 625.129 1987.39 624.666C1987.13 624.203 1986.99 623.679 1987 623.147C1987.01 622.616 1987.16 622.096 1987.43 621.64C1989.01 619.02 1989.54 616.82 1988.96 615.26C1988.76 614.77 1988.45 614.329 1988.07 613.965C1987.68 613.601 1987.22 613.324 1986.72 613.15C1986.33 613.04 1985.97 612.852 1985.66 612.598C1985.34 612.345 1985.08 612.03 1984.89 611.674C1984.71 611.318 1984.59 610.927 1984.55 610.525C1984.52 610.123 1984.57 609.719 1984.69 609.335C1984.82 608.951 1985.02 608.597 1985.28 608.293C1985.55 607.989 1985.87 607.742 1986.24 607.566C1986.6 607.39 1986.99 607.289 1987.4 607.269C1987.8 607.249 1988.2 607.311 1988.58 607.45C1989.94 607.899 1991.19 608.645 1992.22 609.634C1993.26 610.623 1994.07 611.831 1994.58 613.17C1995.83 616.55 1995.15 620.44 1992.58 624.74C1992.31 625.185 1991.93 625.552 1991.48 625.806C1991.03 626.06 1990.52 626.192 1990 626.19Z" fill="#FFFFFF"/>
<path d="M1245.71 1055.83L1198.23 1051.83L1197.82 1051.67C1191.55 1049.21 1044.25 991.31 1029.7 982.56C1014.9 974.84 1014.7 965.77 1015.95 961.05C1018.05 952.92 1027.36 946.29 1036.27 946.5H1036.51L1093.51 952.64L1000.73 873L1000.62 872.87C992.62 864.2 993.98 855.98 997.92 851.18C1002.7 845.36 1011.15 843.67 1017.16 847.35L1035.92 858.81C1033 854.44 1030.1 849.93 1028.84 847.41C1026.86 843.503 1026.01 839.115 1026.41 834.75C1027.95 824.12 1034.29 820.75 1037.94 819.65C1040.44 818.985 1043.05 818.849 1045.61 819.252C1048.17 819.655 1050.61 820.588 1052.79 821.99C1055.63 811.62 1062.42 808.67 1066.58 807.86C1072.33 806.73 1078.91 808.6 1083.81 812.3C1084.74 808.16 1086.97 806.35 1088.56 805.57C1093.48 803.15 1100.39 806 1108.03 813.57L1238.77 936.3L1274.44 945.3L1272.98 951.12L1235.79 941.79L1103.87 817.9C1096.87 810.9 1092.61 810.27 1091.21 810.96C1089.99 811.56 1088.92 814.12 1089.59 819.51L1083.98 821.32C1081.08 816.06 1073.64 812.6 1067.73 813.75C1062.16 814.85 1058.73 819.75 1057.73 827.92L1056.94 834.64L1052.49 829.54C1049.3 825.89 1043.88 824.15 1039.61 825.41C1035.61 826.59 1033.12 830.12 1032.32 835.62C1032.11 838.768 1032.75 841.913 1034.17 844.73C1036.35 849.09 1044.71 861.2 1048.82 867L1044.82 871.29L1014 852.48C1010.6 850.4 1005.34 851.55 1002.52 854.99C999.52 858.71 1000.33 863.7 1004.87 868.68L1112.08 960.68L1035.96 952.48C1029.89 952.36 1023.11 957.14 1021.72 962.48C1020.37 967.67 1024.21 972.9 1032.51 977.21L1032.69 977.31C1042.75 983.45 1137.83 1021.6 1199.57 1045.86L1246.17 1049.81L1245.71 1055.83Z" fill="#FFFFFF"/>
<path d="M1097.84 912.63C1097.17 912.63 1096.53 912.409 1096 912L1041.18 868.53C1040.85 868.293 1040.57 867.992 1040.37 867.645C1040.16 867.298 1040.02 866.912 1039.96 866.51C1039.91 866.109 1039.93 865.7 1040.04 865.309C1040.15 864.918 1040.33 864.553 1040.58 864.235C1040.83 863.917 1041.15 863.654 1041.5 863.461C1041.86 863.267 1042.25 863.148 1042.65 863.11C1043.06 863.072 1043.47 863.117 1043.85 863.24C1044.24 863.364 1044.59 863.565 1044.9 863.83L1099.72 907.3C1100.21 907.687 1100.56 908.216 1100.74 908.813C1100.91 909.411 1100.89 910.048 1100.69 910.635C1100.48 911.223 1100.1 911.733 1099.6 912.094C1099.09 912.455 1098.48 912.649 1097.86 912.65L1097.84 912.63ZM1121.67 906.63C1121.25 906.632 1120.83 906.544 1120.44 906.372C1120.05 906.199 1119.7 905.947 1119.42 905.63L1051.84 828.69C1051.31 828.093 1051.04 827.31 1051.08 826.513C1051.13 825.716 1051.49 824.971 1052.09 824.44C1052.69 823.91 1053.47 823.638 1054.27 823.685C1055.06 823.732 1055.81 824.093 1056.34 824.69L1123.92 901.63C1124.31 902.063 1124.56 902.598 1124.65 903.172C1124.74 903.745 1124.66 904.332 1124.42 904.861C1124.18 905.39 1123.8 905.839 1123.31 906.153C1122.82 906.467 1122.25 906.633 1121.67 906.63ZM1148.77 892.92C1148.35 892.922 1147.93 892.834 1147.54 892.662C1147.15 892.489 1146.8 892.236 1146.52 891.92L1084 821.25C1083.47 820.653 1083.2 819.87 1083.24 819.073C1083.29 818.276 1083.65 817.531 1084.25 817C1084.85 816.47 1085.63 816.198 1086.43 816.245C1087.22 816.292 1087.97 816.653 1088.5 817.25L1151 888C1151.39 888.433 1151.64 888.968 1151.73 889.542C1151.82 890.115 1151.74 890.702 1151.5 891.231C1151.26 891.76 1150.88 892.209 1150.39 892.523C1149.9 892.837 1149.33 893.003 1148.75 893L1148.77 892.92Z" fill="#FFFFFF"/>
<path d="M2814.73 1290.13C2797.06 1290.13 2690.41 1277.7 2635.08 1270.95L2634.64 1270.89L2590.96 1251.89L2593.36 1246.39L2636.24 1265.08C2702.06 1273.08 2803.86 1284.78 2815.63 1284.14H2815.84C2825.19 1284.3 2831.06 1281.52 2832.34 1276.31C2833.68 1270.91 2830 1263.5 2824.6 1260.7L2753.74 1231.7L2891.79 1201.76C2898.16 1199.53 2901.28 1195.56 2900.37 1190.84C2899.52 1186.47 2895.48 1182.96 2891.47 1183.17L2855.47 1185.07L2853.99 1179.38C2861.37 1175.75 2873.71 1169.38 2877.46 1166.76C2880.06 1164.97 2882.11 1162.5 2883.41 1159.62C2885.33 1154.41 2884.79 1150.1 2881.86 1147.18C2878.7 1144.04 2873.11 1143 2868.56 1144.69L2862.22 1147.05L2864.72 1140.77C2867.77 1133.13 2867.07 1127.18 2862.72 1123.57C2858.08 1119.74 2849.88 1119.25 2844.82 1122.49L2840.76 1118.23C2843.9 1113.81 2844.18 1111.05 2843.39 1109.94C2842.49 1108.67 2838.39 1107.24 2829.04 1110L2654.04 1156.23L2616.9 1146.75L2618.38 1140.93L2654.02 1150.03L2827.46 1104.22C2837.7 1101.22 2845.14 1102.01 2848.31 1106.47C2849.31 1107.91 2850.44 1110.57 2849.31 1114.65C2855.38 1113.73 2862.07 1115.21 2866.59 1118.94C2869.85 1121.63 2874.43 1127.46 2871.99 1137.94C2874.57 1137.75 2877.16 1138.09 2879.61 1138.95C2882.05 1139.81 2884.28 1141.17 2886.17 1142.94C2888.87 1145.62 2892.83 1151.62 2889.12 1161.7C2887.4 1165.73 2884.58 1169.2 2880.98 1171.7C2878.76 1173.25 2874.16 1175.8 2869.34 1178.35L2891.27 1177.19C2898.27 1176.81 2904.95 1182.32 2906.38 1189.72C2907.56 1195.81 2904.85 1203.72 2893.69 1207.51L2893.36 1207.6L2774.02 1233.48L2827.33 1255.29C2835.28 1259.29 2840.33 1269.61 2838.33 1277.76C2837.16 1282.49 2832.65 1290.39 2816 1290.14C2815.52 1290.13 2815.15 1290.13 2814.73 1290.13Z" fill="#FFFFFF"/>
<path d="M2790.57 1196.58C2789.82 1196.57 2789.11 1196.29 2788.56 1195.78C2788.01 1195.28 2787.67 1194.58 2787.61 1193.84C2787.54 1193.1 2787.76 1192.36 2788.21 1191.76C2788.66 1191.17 2789.32 1190.77 2790.05 1190.63L2858.94 1178.46C2859.34 1178.36 2859.76 1178.35 2860.16 1178.42C2860.57 1178.49 2860.96 1178.64 2861.3 1178.87C2861.65 1179.09 2861.94 1179.39 2862.17 1179.73C2862.39 1180.08 2862.54 1180.47 2862.61 1180.87C2862.68 1181.28 2862.67 1181.7 2862.57 1182.1C2862.47 1182.5 2862.29 1182.87 2862.04 1183.2C2861.79 1183.53 2861.47 1183.8 2861.11 1184C2860.75 1184.2 2860.35 1184.32 2859.94 1184.36L2791.05 1196.53C2790.89 1196.56 2790.73 1196.58 2790.57 1196.58ZM2772.45 1180C2771.75 1179.99 2771.08 1179.73 2770.55 1179.28C2770.02 1178.82 2769.66 1178.2 2769.54 1177.51C2769.42 1176.82 2769.55 1176.11 2769.9 1175.51C2770.25 1174.9 2770.8 1174.43 2771.45 1174.19L2867.45 1138.65C2868.18 1138.42 2868.98 1138.48 2869.67 1138.82C2870.36 1139.16 2870.9 1139.75 2871.16 1140.47C2871.43 1141.19 2871.41 1141.99 2871.11 1142.7C2870.8 1143.4 2870.24 1143.97 2869.53 1144.27L2773.53 1179.81C2773.19 1179.94 2772.82 1180.01 2772.45 1180ZM2755.13 1155C2754.43 1154.99 2753.75 1154.74 2753.21 1154.29C2752.67 1153.83 2752.32 1153.2 2752.2 1152.51C2752.08 1151.81 2752.21 1151.1 2752.56 1150.49C2752.91 1149.88 2753.47 1149.42 2754.13 1149.18L2842.75 1116.75C2843.12 1116.61 2843.51 1116.55 2843.91 1116.57C2844.3 1116.59 2844.69 1116.68 2845.05 1116.85C2845.4 1117.01 2845.72 1117.25 2845.99 1117.54C2846.26 1117.83 2846.46 1118.17 2846.6 1118.54C2846.74 1118.91 2846.8 1119.3 2846.78 1119.7C2846.76 1120.09 2846.67 1120.48 2846.5 1120.84C2846.34 1121.19 2846.1 1121.51 2845.81 1121.78C2845.52 1122.05 2845.18 1122.25 2844.81 1122.39L2756.19 1154.82C2755.85 1154.94 2755.49 1155 2755.13 1155Z" fill="#FFFFFF"/>
<path d="M1972 671.14C1934.53 708.52 1900.07 689.99 1885.15 679.59V719.09L1840.42 725.23C1774.23 738.08 1744.51 762.36 1724.62 781.37L1514.97 1005.94L1260.58 940.15L1214.96 1111.2C1275.49 1125.82 1411.63 1158.2 1471.96 1170.85C1532.29 1183.5 1582.49 1154.48 1600.04 1138.4L1770.22 962.08L1730.74 1192.79H2072L2093 945.41C2116.1 978.41 2174.94 1061.03 2225.46 1126.99C2275.98 1192.95 2334.24 1226.99 2357.05 1235.77L2580.74 1313.84L2635.12 1143.66L2378.12 1058.57C2378.12 1058.57 2229.87 850.67 2180.75 781.37C2141.45 725.93 2091.85 713.24 2071.97 713.83H1972V671.14Z" fill="#FEDA00"/>
<path d="M1943.28 736.25C1942.48 736.25 1941.72 735.934 1941.16 735.372C1940.6 734.809 1940.28 734.046 1940.28 733.25V700.41C1940.28 699.615 1940.6 698.851 1941.16 698.289C1941.72 697.726 1942.48 697.41 1943.28 697.41C1944.08 697.41 1944.84 697.726 1945.4 698.289C1945.96 698.851 1946.28 699.615 1946.28 700.41V733.25C1946.28 734.046 1945.96 734.809 1945.4 735.372C1944.84 735.934 1944.08 736.25 1943.28 736.25ZM1912.4 734C1911.6 734 1910.84 733.684 1910.28 733.122C1909.72 732.559 1909.4 731.796 1909.4 731V698.79C1909.4 697.995 1909.72 697.231 1910.28 696.669C1910.84 696.106 1911.6 695.79 1912.4 695.79C1913.2 695.79 1913.96 696.106 1914.52 696.669C1915.08 697.231 1915.4 697.995 1915.4 698.79V731C1915.4 731.796 1915.08 732.559 1914.52 733.122C1913.96 733.684 1913.2 734 1912.4 734ZM1894.84 734C1894.04 734 1893.28 733.684 1892.72 733.122C1892.16 732.559 1891.84 731.796 1891.84 731V695.86C1891.84 695.065 1892.16 694.302 1892.72 693.739C1893.28 693.176 1894.04 692.86 1894.84 692.86C1895.64 692.86 1896.4 693.176 1896.96 693.739C1897.52 694.302 1897.84 695.065 1897.84 695.86V731C1897.84 731.796 1897.52 732.559 1896.96 733.122C1896.4 733.684 1895.64 734 1894.84 734ZM1962.84 728.48C1962.04 728.48 1961.28 728.164 1960.72 727.602C1960.16 727.039 1959.84 726.276 1959.84 725.48V690.66C1959.84 689.865 1960.16 689.101 1960.72 688.539C1961.28 687.976 1962.04 687.66 1962.84 687.66C1963.64 687.66 1964.4 687.976 1964.96 688.539C1965.52 689.101 1965.84 689.865 1965.84 690.66V725.45C1965.84 725.848 1965.76 726.243 1965.61 726.61C1965.45 726.977 1965.23 727.31 1964.94 727.589C1964.66 727.869 1964.32 728.089 1963.95 728.236C1963.58 728.384 1963.19 728.457 1962.79 728.45L1962.84 728.48Z" fill="#FFFFFF"/>
<path d="M2072.1 1192.88H1730.9L1736.23 1160.88H2074.39L2072.1 1192.88Z" fill="#FFFFFF"/>
<path d="M1771 956.25H1770.77C1769.98 956.189 1769.24 955.815 1768.72 955.212C1768.21 954.608 1767.95 953.823 1768.01 953.03L1772.07 900.7C1772.13 899.905 1772.51 899.166 1773.11 898.646C1773.72 898.127 1774.5 897.869 1775.3 897.93C1776.1 897.991 1776.83 898.366 1777.35 898.972C1777.87 899.577 1778.13 900.365 1778.07 901.16L1774 953.48C1773.94 954.235 1773.6 954.941 1773.04 955.454C1772.49 955.968 1771.76 956.253 1771 956.25ZM2092.63 940.91H2092.46C2091.67 940.866 2090.92 940.509 2090.39 939.916C2089.86 939.324 2089.59 938.545 2089.63 937.75L2092.34 889.94C2092.36 889.546 2092.46 889.161 2092.63 888.805C2092.8 888.45 2093.04 888.132 2093.34 887.869C2093.63 887.606 2093.98 887.404 2094.35 887.274C2094.72 887.143 2095.12 887.088 2095.51 887.11C2095.9 887.133 2096.29 887.232 2096.64 887.404C2097 887.575 2097.32 887.815 2097.58 888.109C2097.84 888.404 2098.05 888.747 2098.18 889.119C2098.31 889.492 2098.36 889.886 2098.34 890.28L2095.63 938.09C2095.58 938.848 2095.25 939.559 2094.7 940.083C2094.16 940.606 2093.43 940.902 2092.67 940.91H2092.63Z" fill="#FFFFFF"/>
<path d="M2330.14 1111.14C2329.57 1111.14 2329.01 1110.98 2328.52 1110.67C2328.04 1110.36 2327.66 1109.92 2327.42 1109.4C2327.18 1108.88 2327.09 1108.3 2327.17 1107.74C2327.24 1107.17 2327.48 1106.64 2327.85 1106.2L2366.69 1060.2C2366.94 1059.88 2367.25 1059.62 2367.6 1059.42C2367.96 1059.23 2368.34 1059.11 2368.74 1059.07C2369.15 1059.03 2369.55 1059.07 2369.94 1059.19C2370.32 1059.31 2370.68 1059.5 2370.99 1059.76C2371.29 1060.02 2371.55 1060.34 2371.73 1060.7C2371.91 1061.06 2372.02 1061.45 2372.04 1061.86C2372.07 1062.26 2372.02 1062.66 2371.88 1063.04C2371.75 1063.42 2371.54 1063.77 2371.27 1064.07L2332.43 1110.07C2332.15 1110.4 2331.8 1110.67 2331.4 1110.86C2331.01 1111.04 2330.58 1111.14 2330.14 1111.14ZM1528.88 1065.14C1528.2 1065.14 1527.54 1064.91 1527.01 1064.49C1526.48 1064.06 1526.11 1063.47 1525.96 1062.81L1515.2 1015.6C1515.09 1015.21 1515.06 1014.8 1515.11 1014.39C1515.16 1013.99 1515.29 1013.6 1515.5 1013.25C1515.71 1012.9 1515.99 1012.6 1516.31 1012.36C1516.64 1012.11 1517.02 1011.94 1517.41 1011.85C1517.81 1011.76 1518.22 1011.75 1518.62 1011.83C1519.02 1011.9 1519.4 1012.05 1519.74 1012.28C1520.08 1012.5 1520.37 1012.79 1520.6 1013.14C1520.82 1013.48 1520.97 1013.86 1521.04 1014.26L1531.8 1061.47C1531.98 1062.24 1531.84 1063.06 1531.42 1063.73C1531 1064.4 1530.32 1064.88 1529.55 1065.06C1529.33 1065.11 1529.11 1065.14 1528.88 1065.13V1065.14Z" fill="#FFFFFF"/>
<path d="M1869.26 2295L1868.73 2292.25L1784.43 1859.45C1774.86 1820 1757.43 1721.74 1760.04 1631.74C1760.86 1603.09 1767.41 1550.48 1793.62 1461.48L1546.78 1604.61L1447.58 1998.15L1385.5 1994L1128.42 1976.68L1254.42 1570.68C1302.78 1453.96 1341.42 1415.89 1409.66 1374.68L1409.78 1374.61C1412.3 1373.24 1662.67 1237.09 1741.64 1185.86C1742.3 1185.52 1743.06 1185.44 1743.78 1185.63C1744.5 1185.82 1745.12 1186.27 1745.53 1186.89C1745.93 1187.51 1746.09 1188.26 1745.98 1188.99C1745.86 1189.73 1745.48 1190.39 1744.9 1190.86C1666.15 1241.94 1417.76 1377.06 1412.7 1379.86C1345.7 1420.31 1307.7 1457.8 1260.01 1572.86L1136.35 1971.16L1382.84 1987.77L1408.33 1538.77L1410.21 1538.1L1814.69 1395.18C1823.55 1369.18 1832.98 1343.45 1841.3 1322.69C1841.44 1322.32 1841.66 1321.98 1841.94 1321.7C1842.21 1321.41 1842.54 1321.19 1842.9 1321.03C1843.27 1320.87 1843.66 1320.79 1844.05 1320.78C1844.45 1320.78 1844.84 1320.85 1845.21 1321C1845.58 1321.15 1845.91 1321.36 1846.19 1321.64C1846.48 1321.92 1846.7 1322.25 1846.86 1322.61C1847.01 1322.98 1847.09 1323.37 1847.09 1323.77C1847.1 1324.16 1847.02 1324.55 1846.87 1324.92C1838.45 1345.92 1828.87 1372.06 1819.87 1398.46C1813.34 1417.68 1807.15 1437.01 1801.47 1455.9C1786.12 1507.1 1767.47 1579.19 1765.99 1631.84C1763.44 1721.24 1780.73 1818.84 1790.23 1858.02V1858.16L1874.01 2288.28L2191.77 2248.54L2003.1 1713.16L2003.18 1712.47L2065.82 1184.98C2065.91 1184.18 2066.32 1183.46 2066.95 1182.96C2067.57 1182.46 2068.37 1182.24 2069.17 1182.33C2069.97 1182.42 2070.69 1182.83 2071.19 1183.46C2071.69 1184.08 2071.91 1184.88 2071.82 1185.68L2009.26 1712.48L2200 2253.66L1869.26 2295ZM1388.85 1988.2L1442.98 1991.84L1541.58 1600.7L1796.12 1453.11C1801.12 1436.41 1806.57 1419.39 1812.27 1402.41L1414.12 1543.1L1388.85 1988.2Z" fill="#FFFFFF"/>
<path d="M2120.32 2541.72H2205.61L2162.55 2303L2007.35 2320.15L2021.03 2363.47L1676.03 2541.68H2074.5L2112.68 2489.49L2120.32 2541.72Z" fill="#FFFFFF"/>
<path d="M2209.2 2544.72H2117.73L2110.73 2497.22L2075.98 2544.72H1675.98L1674.6 2539.05L2017.41 2362L2004.51 2321.15V2321.09L1991.33 2282.09C1991.11 2281.35 1991.19 2280.55 1991.54 2279.86C1991.9 2279.17 1992.51 2278.64 1993.25 2278.4C1993.98 2278.15 1994.78 2278.19 1995.49 2278.52C1996.19 2278.85 1996.73 2279.44 1997.01 2280.17L2009.44 2316.93L2159.13 2300.39L2152.41 2256.54C2152.35 2256.15 2152.37 2255.75 2152.46 2255.37C2152.56 2254.99 2152.73 2254.63 2152.96 2254.31C2153.2 2253.99 2153.49 2253.72 2153.83 2253.52C2154.17 2253.31 2154.54 2253.18 2154.93 2253.12C2155.32 2253.06 2155.72 2253.08 2156.1 2253.17C2156.48 2253.27 2156.84 2253.44 2157.16 2253.67C2157.48 2253.91 2157.75 2254.2 2157.95 2254.54C2158.16 2254.88 2158.29 2255.25 2158.35 2255.64L2165.53 2302.54L2209.2 2544.72ZM2122.91 2538.72H2202L2160.07 2306.33L2011.29 2322.77L2024.63 2365.02L1688.39 2538.72H2073L2114.61 2481.84L2122.91 2538.72Z" fill="#FFFFFF"/>
<path d="M1238.49 2254.73L1315.35 2291.68L1380 2057.93L1232.7 2006.13L1226.26 2051.13L838.15 2062.26L1197.22 2234.9L1254.22 2204.41L1238.49 2254.73Z" fill="#FFFFFF"/>
<path d="M1317.29 2295.94L1234.85 2256.31L1249.17 2210.48L1197.26 2238.23L1195.89 2237.57L836.82 2064.93L838.03 2059.23L1223.62 2048.17L1229.69 2005.77L1232.2 1981.87C1232.24 1981.48 1232.36 1981.09 1232.55 1980.75C1232.74 1980.4 1232.99 1980.09 1233.3 1979.84C1233.61 1979.59 1233.96 1979.4 1234.34 1979.29C1234.72 1979.18 1235.12 1979.14 1235.51 1979.18C1235.9 1979.22 1236.29 1979.34 1236.63 1979.53C1236.98 1979.72 1237.29 1979.97 1237.54 1980.28C1237.79 1980.59 1237.98 1980.94 1238.09 1981.32C1238.2 1981.7 1238.24 1982.1 1238.2 1982.49L1235.94 2004.1L1377.94 2054.02L1394 1990.32C1394.19 1989.55 1394.69 1988.88 1395.37 1988.48C1396.05 1988.07 1396.87 1987.95 1397.64 1988.14C1398.41 1988.33 1399.08 1988.83 1399.48 1989.51C1399.89 1990.19 1400.01 1991.01 1399.82 1991.78L1382.96 2058.64C1382.96 2058.68 1382.96 2058.72 1382.96 2058.76L1317.29 2295.94ZM1242.13 2253.15L1313.42 2287.42L1376.33 2059.83L1235.12 2010.17L1228.84 2054.03L850.54 2064.87L1197.12 2231.51L1259.27 2198.28L1242.13 2253.15Z" fill="#FFFFFF"/>
<path d="M2156.29 2256C2155.74 2256 2155.2 2255.85 2154.73 2255.57C2154.26 2255.28 2153.87 2254.87 2153.62 2254.38L1891.94 1748.29L1892.22 1747.19L2000.09 1323.09C1970.25 1301.4 1953.81 1259.09 1948.53 1233.69C1948.37 1232.91 1948.52 1232.1 1948.96 1231.43C1949.4 1230.77 1950.08 1230.3 1950.86 1230.14C1951.64 1229.98 1952.45 1230.13 1953.12 1230.57C1953.78 1231.01 1954.25 1231.69 1954.41 1232.47C1959.53 1257.13 1975.51 1298.47 2004.33 1318.81C2004.98 1318.98 2005.56 1319.37 2005.95 1319.92C2015.56 1326.49 2026.8 1330.25 2038.43 1330.77C2039.23 1330.8 2039.98 1331.15 2040.52 1331.73C2041.06 1332.32 2041.34 1333.09 2041.31 1333.89C2041.28 1334.69 2040.93 1335.44 2040.35 1335.98C2039.76 1336.52 2038.99 1336.8 2038.19 1336.77C2026.56 1336.27 2015.26 1332.78 2005.38 1326.62L1898.32 1747.56L2159 2251.59C2159.35 2252.29 2159.41 2253.11 2159.17 2253.85C2158.93 2254.6 2158.41 2255.23 2157.71 2255.59C2157.28 2255.84 2156.79 2255.98 2156.29 2256Z" fill="#FFFFFF"/>
<path d="M1812.68 2552.51C1639.68 2552.51 1468.24 2521.69 1300.23 2460.18C1185.74 2418.27 1072.6 2361.84 963.94 2292.44C866.36 2230.12 771.94 2157.09 683.19 2075.38C682.9 2075.11 682.665 2074.79 682.499 2074.43C682.333 2074.08 682.239 2073.69 682.222 2073.3C682.205 2072.9 682.266 2072.51 682.401 2072.14C682.537 2071.77 682.744 2071.43 683.01 2071.14C683.277 2070.85 683.598 2070.61 683.955 2070.45C684.313 2070.28 684.699 2070.19 685.093 2070.17C685.487 2070.15 685.88 2070.22 686.25 2070.35C686.62 2070.49 686.96 2070.69 687.25 2070.96C775.71 2152.44 869.89 2225.25 967.17 2287.38C1075.46 2356.55 1188.17 2412.79 1302.3 2454.55C1566.91 2551.42 1840.1 2571.88 2114.3 2515.36C2293.47 2475.45 2473.16 2425.77 2633.88 2371.71C2780.7 2322.32 2897.65 2273.93 2963.18 2235.44C2963.52 2235.21 2963.91 2235.05 2964.31 2234.98C2964.71 2234.9 2965.13 2234.91 2965.53 2235C2965.93 2235.1 2966.31 2235.27 2966.64 2235.51C2966.97 2235.76 2967.25 2236.07 2967.45 2236.42C2967.66 2236.78 2967.79 2237.17 2967.84 2237.58C2967.88 2237.99 2967.85 2238.4 2967.73 2238.8C2967.61 2239.19 2967.41 2239.56 2967.14 2239.87C2966.88 2240.18 2966.55 2240.44 2966.18 2240.62C2900.3 2279.3 2782.96 2327.88 2635.75 2377.39C2474.83 2431.52 2294.94 2481.26 2115.52 2521.23C2015.9 2541.91 1914.43 2552.39 1812.68 2552.51ZM591.28 1984.14C590.877 1984.14 590.477 1984.06 590.106 1983.9C589.735 1983.74 589.4 1983.51 589.12 1983.22C470.78 1860 367.92 1722.78 299.46 1597C299.081 1596.3 298.995 1595.48 299.222 1594.71C299.449 1593.95 299.97 1593.31 300.67 1592.93C301.37 1592.55 302.192 1592.46 302.956 1592.69C303.719 1592.92 304.361 1593.44 304.74 1594.14C372.94 1719.51 475.47 1856.23 593.45 1979.14C593.859 1979.56 594.133 1980.1 594.239 1980.68C594.345 1981.26 594.279 1981.86 594.047 1982.4C593.816 1982.94 593.43 1983.4 592.938 1983.73C592.446 1984.05 591.869 1984.22 591.28 1984.22V1984.14Z" fill="#FFFFFF"/>
<path d="M690.82 2192.66C690.171 2192.66 689.539 2192.45 689.02 2192.06C688.501 2191.67 688.122 2191.12 687.94 2190.5L658.25 2089.2C658.14 2088.82 658.105 2088.43 658.148 2088.03C658.191 2087.64 658.31 2087.26 658.5 2086.92C658.689 2086.57 658.945 2086.27 659.252 2086.02C659.559 2085.77 659.912 2085.59 660.29 2085.48C660.668 2085.37 661.064 2085.33 661.456 2085.38C661.848 2085.42 662.227 2085.54 662.573 2085.73C662.918 2085.92 663.223 2086.17 663.469 2086.48C663.716 2086.79 663.9 2087.14 664.01 2087.52L693.7 2188.82C693.924 2189.58 693.84 2190.39 693.466 2191.09C693.091 2191.79 692.457 2192.31 691.7 2192.54C691.414 2192.62 691.118 2192.66 690.82 2192.66ZM583.7 2157.15C583.284 2157.15 582.872 2157.06 582.49 2156.9C582.124 2156.74 581.792 2156.51 581.516 2156.22C581.239 2155.94 581.023 2155.6 580.88 2155.22C580.736 2154.85 580.668 2154.45 580.681 2154.05C580.693 2153.66 580.784 2153.26 580.95 2152.9L612.39 2081.29C612.546 2080.93 612.773 2080.6 613.058 2080.32C613.342 2080.04 613.679 2079.83 614.048 2079.68C614.417 2079.54 614.811 2079.47 615.207 2079.47C615.603 2079.48 615.994 2079.57 616.357 2079.73C616.72 2079.89 617.047 2080.12 617.321 2080.41C617.594 2080.69 617.807 2081.03 617.949 2081.4C618.091 2081.77 618.157 2082.17 618.146 2082.56C618.134 2082.96 618.044 2083.35 617.88 2083.71L586.45 2155.32C586.221 2155.86 585.838 2156.32 585.35 2156.65C584.861 2156.97 584.287 2157.15 583.7 2157.15ZM583.7 2048.28H437.57C436.774 2048.28 436.011 2047.96 435.449 2047.4C434.886 2046.84 434.57 2046.08 434.57 2045.28C434.57 2044.48 434.886 2043.72 435.449 2043.16C436.011 2042.6 436.774 2042.28 437.57 2042.28H583.7C584.496 2042.28 585.259 2042.6 585.821 2043.16C586.384 2043.72 586.7 2044.48 586.7 2045.28C586.7 2046.08 586.384 2046.84 585.821 2047.4C585.259 2047.96 584.496 2048.28 583.7 2048.28ZM728.7 2026.74C727.904 2026.75 727.136 2026.45 726.564 2025.9C725.992 2025.34 725.663 2024.59 725.65 2023.79C725.637 2022.99 725.94 2022.23 726.493 2021.65C727.047 2021.08 727.804 2020.75 728.6 2020.74L864.25 2016.08C865.046 2016.05 865.82 2016.34 866.402 2016.88C866.984 2017.43 867.327 2018.18 867.355 2018.97C867.383 2019.77 867.094 2020.54 866.551 2021.13C866.008 2021.71 865.256 2022.05 864.46 2022.08L728.81 2026.74H728.7ZM644.29 1977.25H644.19C643.796 1977.24 643.408 1977.15 643.049 1976.98C642.69 1976.82 642.367 1976.59 642.098 1976.3C641.828 1976.01 641.618 1975.67 641.48 1975.31C641.341 1974.94 641.277 1974.54 641.29 1974.15L645.36 1853.64C645.387 1852.84 645.728 1852.09 646.309 1851.55C646.891 1851 647.664 1850.71 648.46 1850.74C649.256 1850.77 650.008 1851.11 650.552 1851.69C651.096 1852.27 651.387 1853.04 651.36 1853.84L647.29 1974.35C647.264 1975.14 646.931 1975.88 646.362 1976.42C645.794 1976.96 645.036 1977.26 644.25 1977.25H644.29ZM704.29 1977.25C703.712 1977.25 703.148 1977.08 702.664 1976.76C702.181 1976.44 701.799 1976 701.564 1975.47C701.33 1974.94 701.253 1974.35 701.342 1973.78C701.432 1973.21 701.685 1972.68 702.07 1972.25L742.83 1927.42C743.379 1926.91 744.099 1926.62 744.849 1926.62C745.598 1926.61 746.322 1926.89 746.879 1927.39C747.436 1927.89 747.785 1928.58 747.857 1929.33C747.929 1930.07 747.72 1930.82 747.27 1931.42L706.51 1976.25C706.222 1976.57 705.867 1976.83 705.47 1977C705.073 1977.17 704.643 1977.26 704.21 1977.25H704.29Z" fill="#FFFFFF"/>
</svg>
