<svg width="3000" height="3000" viewBox="0 0 3000 3000" fill="none" xmlns="http://www.w3.org/2000/svg">
<path d="M2644.41 1016.89C2642.76 1016.89 2641.15 1016.4 2639.78 1015.49C2638.41 1014.57 2637.34 1013.27 2636.71 1011.75C2636.08 1010.23 2635.92 1008.55 2636.24 1006.93C2636.56 1005.32 2637.35 1003.83 2638.52 1002.67C2639.68 1001.5 2641.17 1000.71 2642.78 1000.39C2644.4 1000.07 2646.08 1000.23 2647.6 1000.86C2649.12 1001.49 2650.42 1002.56 2651.34 1003.93C2652.25 1005.3 2652.74 1006.91 2652.74 1008.56C2652.74 1010.77 2651.86 1012.89 2650.3 1014.45C2648.74 1016.01 2646.62 1016.89 2644.41 1016.89ZM2644.41 1006.23C2643.95 1006.23 2643.5 1006.37 2643.12 1006.62C2642.73 1006.88 2642.43 1007.24 2642.26 1007.67C2642.08 1008.09 2642.03 1008.56 2642.12 1009.01C2642.21 1009.47 2642.44 1009.88 2642.76 1010.21C2643.09 1010.53 2643.5 1010.76 2643.96 1010.85C2644.41 1010.94 2644.88 1010.89 2645.3 1010.71C2645.73 1010.54 2646.09 1010.24 2646.35 1009.85C2646.6 1009.47 2646.74 1009.02 2646.74 1008.56C2646.74 1007.94 2646.49 1007.35 2646.06 1006.91C2645.62 1006.48 2645.03 1006.23 2644.41 1006.23Z" fill="black"/>
<path d="M2663.65 873.63C2653.65 873.63 2644 873.19 2634.65 872.31C2634.26 872.273 2633.87 872.159 2633.52 871.974C2633.17 871.79 2632.86 871.538 2632.61 871.233C2632.36 870.929 2632.17 870.577 2632.05 870.199C2631.93 869.821 2631.89 869.424 2631.93 869.03C2631.97 868.636 2632.08 868.253 2632.27 867.903C2632.45 867.553 2632.7 867.243 2633.01 866.99C2633.31 866.738 2633.66 866.548 2634.04 866.431C2634.42 866.314 2634.82 866.273 2635.21 866.31C2651.5 867.768 2667.88 867.992 2684.21 866.98C2684.6 866.956 2685 867.01 2685.37 867.139C2685.74 867.268 2686.09 867.469 2686.38 867.731C2686.68 867.993 2686.92 868.311 2687.09 868.665C2687.27 869.02 2687.37 869.406 2687.39 869.8C2687.41 870.194 2687.36 870.589 2687.23 870.962C2687.1 871.335 2686.9 871.679 2686.64 871.974C2686.38 872.269 2686.06 872.51 2685.7 872.683C2685.35 872.855 2684.96 872.956 2684.57 872.98C2677.52 873.413 2670.55 873.63 2663.65 873.63ZM2627 871.47H2626.63C2618.96 870.53 2611.38 869.26 2604.12 867.72C2603.34 867.553 2602.66 867.083 2602.23 866.415C2601.8 865.746 2601.65 864.933 2601.82 864.155C2601.98 863.376 2602.45 862.696 2603.12 862.264C2603.79 861.832 2604.6 861.683 2605.38 861.85C2612.47 863.36 2619.86 864.59 2627.38 865.51C2628.18 865.559 2628.92 865.922 2629.45 866.519C2629.98 867.117 2630.24 867.899 2630.2 868.695C2630.15 869.49 2629.78 870.234 2629.19 870.762C2628.59 871.29 2627.81 871.559 2627.01 871.51L2627 871.47ZM2596.1 865.75C2595.85 865.751 2595.61 865.717 2595.37 865.65C2588.17 863.84 2581.11 861.65 2574.37 859.26C2573.66 858.969 2573.08 858.414 2572.76 857.71C2572.45 857.006 2572.42 856.208 2572.67 855.48C2572.93 854.753 2573.46 854.153 2574.15 853.804C2574.84 853.456 2575.63 853.386 2576.37 853.61C2582.91 855.97 2589.78 858.07 2596.79 859.84C2597.5 860.018 2598.12 860.45 2598.54 861.055C2598.95 861.66 2599.13 862.395 2599.04 863.123C2598.95 863.85 2598.59 864.519 2598.04 865.003C2597.49 865.487 2596.78 865.752 2596.05 865.75H2596.1ZM2566.91 856.16C2566.52 856.162 2566.13 856.083 2565.77 855.93C2561.9 854.34 2558.09 852.64 2554.46 850.93C2554.11 850.758 2553.79 850.518 2553.53 850.223C2553.26 849.928 2553.06 849.585 2552.93 849.213C2552.81 848.84 2552.75 848.446 2552.77 848.053C2552.8 847.659 2552.9 847.274 2553.07 846.92C2553.24 846.565 2553.48 846.248 2553.78 845.986C2554.07 845.724 2554.41 845.523 2554.79 845.394C2555.16 845.265 2555.55 845.211 2555.95 845.234C2556.34 845.257 2556.73 845.358 2557.08 845.53C2560.6 847.24 2564.29 848.89 2568.08 850.43C2568.73 850.692 2569.26 851.17 2569.59 851.784C2569.92 852.397 2570.03 853.106 2569.9 853.79C2569.76 854.474 2569.39 855.09 2568.85 855.531C2568.31 855.973 2567.64 856.213 2566.94 856.21L2566.91 856.16ZM2540.33 842.83C2539.78 842.83 2539.25 842.682 2538.78 842.4C2465.68 798.4 2440.07 715.81 2440.35 658.51V658.4C2440.81 647.81 2441.79 635.55 2443.35 622.2C2424.59 624.035 2405.65 622.087 2387.65 616.47C2375.13 612.66 2364.45 607.15 2355.9 600.11C2355.29 599.603 2354.9 598.873 2354.82 598.081C2354.75 597.289 2354.99 596.499 2355.5 595.885C2356 595.271 2356.73 594.883 2357.52 594.807C2358.32 594.731 2359.11 594.973 2359.72 595.48C2367.66 602.02 2377.64 607.15 2389.39 610.73C2407.07 616.248 2425.7 618.062 2444.12 616.06C2454.07 540.12 2483.64 433.38 2549.21 396.23C2578.09 379.86 2599.3 377.35 2612.21 388.74C2629.86 404.28 2626.32 443.64 2613.7 474.48V474.58C2590.44 526.36 2530.99 609.47 2449.5 621.44C2447.38 638.85 2446.59 652.03 2446.31 658.6C2446.06 714.32 2470.92 794.53 2541.84 837.26C2542.4 837.598 2542.84 838.111 2543.08 838.721C2543.32 839.33 2543.36 840.002 2543.18 840.634C2543.01 841.266 2542.63 841.823 2542.11 842.219C2541.58 842.616 2540.95 842.83 2540.29 842.83H2540.33ZM2592.19 387.83C2581.69 387.83 2568.19 392.4 2552.19 401.46C2518.66 420.46 2490.72 461.77 2471.38 520.91C2459.99 555.75 2453.74 589.41 2450.31 615.23C2528.42 602.77 2585.67 522.36 2608.22 472.23C2619.74 444.06 2623.68 406.84 2608.3 393.31C2604.21 389.62 2598.79 387.82 2592.2 387.82L2592.19 387.83ZM2352.56 595.94C2352.16 595.939 2351.77 595.86 2351.4 595.705C2351.03 595.551 2350.7 595.324 2350.42 595.04C2344.98 589.49 2340.5 583.068 2337.18 576.04C2336.86 575.324 2336.83 574.512 2337.11 573.777C2337.38 573.041 2337.93 572.442 2338.63 572.106C2339.34 571.77 2340.15 571.725 2340.9 571.98C2341.64 572.235 2342.25 572.769 2342.6 573.47C2345.64 579.888 2349.73 585.753 2354.7 590.82C2355.26 591.382 2355.58 592.145 2355.58 592.94C2355.58 593.735 2355.26 594.497 2354.7 595.06C2354.42 595.341 2354.09 595.563 2353.72 595.714C2353.35 595.865 2352.96 595.942 2352.56 595.94ZM2336.08 568C2335.44 567.999 2334.82 567.796 2334.31 567.418C2333.79 567.04 2333.41 566.508 2333.22 565.9C2331.25 559.485 2329.97 552.877 2329.4 546.19C2329.33 545.394 2329.58 544.603 2330.09 543.991C2330.6 543.379 2331.34 542.995 2332.14 542.925C2332.93 542.854 2333.72 543.103 2334.33 543.616C2334.95 544.129 2335.33 544.864 2335.4 545.66C2335.93 551.916 2337.12 558.097 2338.96 564.1C2339.08 564.478 2339.12 564.876 2339.08 565.27C2339.04 565.664 2338.93 566.047 2338.74 566.396C2338.56 566.746 2338.3 567.055 2338 567.306C2337.69 567.557 2337.34 567.746 2336.96 567.86C2336.68 567.953 2336.38 568 2336.08 568ZM2332.08 531.31H2332C2331.61 531.289 2331.22 531.191 2330.86 531.021C2330.51 530.851 2330.19 530.613 2329.92 530.319C2329.66 530.026 2329.46 529.683 2329.33 529.311C2329.19 528.938 2329.14 528.544 2329.16 528.15C2330.63 500.37 2340.16 467.46 2357.52 430.35C2371.74 400.252 2388.67 371.51 2408.1 344.48C2408.32 344.143 2408.61 343.854 2408.95 343.631C2409.29 343.409 2409.67 343.256 2410.06 343.184C2410.46 343.111 2410.87 343.12 2411.26 343.209C2411.66 343.298 2412.03 343.467 2412.36 343.703C2412.69 343.94 2412.96 344.24 2413.17 344.587C2413.38 344.933 2413.52 345.318 2413.57 345.718C2413.63 346.119 2413.6 346.526 2413.5 346.917C2413.39 347.307 2413.21 347.672 2412.96 347.99C2378.96 395.06 2338.21 470.57 2335.16 528.47C2335.12 529.246 2334.78 529.977 2334.22 530.509C2333.65 531.04 2332.9 531.331 2332.12 531.32L2332.08 531.31Z" fill="#FEDA00"/>
<path d="M792.84 1835.21C789.37 1835.21 785.99 1835.05 782.74 1834.75C782.259 1834.7 781.797 1834.54 781.39 1834.28C780.933 1834.45 780.443 1834.51 779.96 1834.45C777.27 1834.12 774.63 1833.68 772.13 1833.14C771.598 1833.03 771.108 1832.77 770.71 1832.4C770.18 1832.55 769.62 1832.55 769.09 1832.4C766.59 1831.77 764.09 1831.01 761.77 1830.16C761.234 1829.96 760.766 1829.62 760.42 1829.16C759.865 1829.26 759.292 1829.2 758.77 1828.99C757.5 1828.47 756.2 1827.89 754.82 1827.22C755.095 1826.51 755.101 1825.71 754.837 1825C754.573 1824.28 754.056 1823.68 753.384 1823.31C752.711 1822.94 751.929 1822.83 751.181 1823C750.434 1823.17 749.772 1823.6 749.32 1824.22C723.77 1808.82 714.81 1780.01 714.91 1760.02V1760C715.04 1757 715.29 1753.61 715.69 1749.94C709.845 1750.22 703.997 1749.47 698.41 1747.73C694.254 1746.52 690.376 1744.51 687 1741.8C686.632 1741.5 686.341 1741.12 686.15 1740.68C685.702 1740.52 685.295 1740.27 684.96 1739.93C682.954 1737.89 681.305 1735.52 680.08 1732.93C679.781 1732.29 679.714 1731.56 679.89 1730.87C679.293 1730.49 678.85 1729.91 678.64 1729.23C677.926 1726.91 677.463 1724.53 677.26 1722.11C678.027 1721.98 678.724 1721.59 679.223 1720.99C679.722 1720.4 679.989 1719.64 679.977 1718.86C679.965 1718.08 679.674 1717.34 679.157 1716.76C678.64 1716.18 677.931 1715.8 677.16 1715.7C678.24 1695.17 691.92 1669.45 704.35 1652.22C704.581 1651.9 704.873 1651.63 705.209 1651.42C705.545 1651.22 705.918 1651.08 706.308 1651.01C706.697 1650.95 707.095 1650.97 707.479 1651.06C707.863 1651.15 708.225 1651.31 708.545 1651.55C708.865 1651.78 709.136 1652.07 709.343 1652.4C709.55 1652.74 709.689 1653.11 709.751 1653.5C709.814 1653.89 709.799 1654.29 709.708 1654.67C709.617 1655.06 709.451 1655.42 709.22 1655.74C697.83 1671.51 684.16 1696.74 683.15 1716.02C682.443 1716.07 681.782 1716.39 681.302 1716.91C680.823 1717.44 680.562 1718.12 680.572 1718.83C680.582 1719.54 680.863 1720.22 681.357 1720.73C681.851 1721.24 682.521 1721.54 683.23 1721.57C683.398 1723.56 683.777 1725.52 684.36 1727.43C684.518 1727.98 684.518 1728.55 684.36 1729.1C684.837 1729.4 685.219 1729.84 685.46 1730.35C686.399 1732.34 687.663 1734.15 689.2 1735.72C689.456 1735.98 689.663 1736.29 689.81 1736.62C690.173 1736.73 690.512 1736.91 690.81 1737.15C693.594 1739.36 696.789 1741 700.21 1741.97C705.472 1743.6 710.994 1744.24 716.49 1743.84C720.15 1717.73 730.49 1681.98 752.98 1669.24C763.6 1663.24 771.58 1662.44 776.68 1666.94C783.68 1673.1 782.13 1687.53 777.68 1698.32V1698.41C769.74 1716.1 749.61 1744.27 721.86 1749.23C721.29 1754.3 721.06 1758.15 720.97 1760.23C720.9 1778.65 729.1 1805.13 752.48 1819.23C752.179 1819.89 752.139 1820.63 752.368 1821.32C752.597 1822.01 753.077 1822.58 753.713 1822.92C754.348 1823.27 755.091 1823.36 755.79 1823.17C756.49 1822.99 757.094 1822.55 757.48 1821.94C758.75 1822.55 759.94 1823.08 761.09 1823.55C761.404 1823.97 761.832 1824.3 762.325 1824.49C762.817 1824.68 763.353 1824.72 763.87 1824.62C766.04 1825.4 768.31 1826.1 770.62 1826.68C770.988 1827.04 771.446 1827.28 771.944 1827.4C772.442 1827.52 772.963 1827.5 773.45 1827.34C775.78 1827.84 778.23 1828.24 780.75 1828.55C781.13 1828.8 781.566 1828.96 782.021 1829.01C782.475 1829.06 782.935 1829 783.36 1828.83C788.799 1829.32 794.268 1829.4 799.72 1829.07C800.516 1829.02 801.297 1829.3 801.893 1829.82C802.488 1830.35 802.849 1831.1 802.895 1831.9C802.941 1832.69 802.67 1833.47 802.14 1834.07C801.61 1834.66 800.866 1835.02 800.07 1835.07C797.61 1835.16 795.2 1835.21 792.84 1835.21ZM768.48 1670.1C765.29 1670.1 761 1671.57 755.88 1674.47C744.88 1680.68 735.74 1694.34 729.33 1713.96C726.286 1723.42 724.045 1733.12 722.63 1742.96C747 1737.53 764.9 1712.11 772.13 1696.04C775.83 1686.97 777.04 1675.32 772.67 1671.48C771.493 1670.52 770 1670.02 768.48 1670.1Z" fill="black"/>
<path d="M2598.36 1722.39C2596.71 1722.39 2595.1 1721.9 2593.73 1720.99C2592.36 1720.07 2591.29 1718.77 2590.66 1717.25C2590.03 1715.73 2589.87 1714.05 2590.19 1712.43C2590.51 1710.82 2591.3 1709.33 2592.47 1708.17C2593.63 1707 2595.12 1706.21 2596.73 1705.89C2598.35 1705.57 2600.03 1705.73 2601.55 1706.36C2603.07 1706.99 2604.37 1708.06 2605.29 1709.43C2606.2 1710.8 2606.69 1712.41 2606.69 1714.06C2606.69 1716.27 2605.81 1718.39 2604.25 1719.95C2602.69 1721.51 2600.57 1722.39 2598.36 1722.39ZM2598.36 1711.73C2597.9 1711.73 2597.45 1711.87 2597.07 1712.12C2596.68 1712.38 2596.38 1712.74 2596.21 1713.17C2596.03 1713.59 2595.98 1714.06 2596.07 1714.51C2596.16 1714.97 2596.39 1715.38 2596.71 1715.71C2597.04 1716.03 2597.45 1716.26 2597.91 1716.35C2598.36 1716.44 2598.83 1716.39 2599.25 1716.21C2599.68 1716.04 2600.04 1715.74 2600.3 1715.35C2600.55 1714.97 2600.69 1714.52 2600.69 1714.06C2600.69 1713.44 2600.44 1712.85 2600.01 1712.41C2599.57 1711.98 2598.98 1711.73 2598.36 1711.73Z" fill="black"/>
<path d="M1929.14 1265.1C1927.49 1265.1 1925.88 1264.61 1924.51 1263.7C1923.14 1262.78 1922.07 1261.48 1921.44 1259.96C1920.81 1258.44 1920.65 1256.76 1920.97 1255.14C1921.29 1253.53 1922.08 1252.04 1923.25 1250.88C1924.41 1249.71 1925.9 1248.92 1927.51 1248.6C1929.13 1248.28 1930.81 1248.44 1932.33 1249.07C1933.85 1249.7 1935.15 1250.77 1936.07 1252.14C1936.98 1253.51 1937.47 1255.12 1937.47 1256.77C1937.47 1258.98 1936.59 1261.1 1935.03 1262.66C1933.47 1264.22 1931.35 1265.1 1929.14 1265.1ZM1929.14 1254.44C1928.68 1254.44 1928.23 1254.58 1927.85 1254.83C1927.46 1255.09 1927.16 1255.45 1926.99 1255.88C1926.81 1256.3 1926.76 1256.77 1926.85 1257.22C1926.94 1257.68 1927.17 1258.09 1927.49 1258.42C1927.82 1258.74 1928.23 1258.97 1928.69 1259.06C1929.14 1259.14 1929.61 1259.1 1930.03 1258.92C1930.46 1258.75 1930.82 1258.45 1931.08 1258.06C1931.33 1257.68 1931.47 1257.23 1931.47 1256.77C1931.47 1256.15 1931.22 1255.56 1930.79 1255.12C1930.35 1254.69 1929.76 1254.44 1929.14 1254.44Z" fill="black"/>
<path d="M437.55 1141.64C435.902 1141.64 434.292 1141.15 432.922 1140.24C431.552 1139.32 430.485 1138.02 429.854 1136.5C429.224 1134.98 429.059 1133.3 429.38 1131.68C429.701 1130.07 430.495 1128.58 431.66 1127.42C432.825 1126.25 434.309 1125.46 435.925 1125.14C437.541 1124.82 439.216 1124.98 440.738 1125.61C442.26 1126.24 443.561 1127.31 444.476 1128.68C445.391 1130.05 445.88 1131.66 445.88 1133.31C445.877 1135.52 444.999 1137.64 443.437 1139.2C441.876 1140.76 439.758 1141.64 437.55 1141.64ZM437.55 1130.98C437.089 1130.98 436.639 1131.12 436.255 1131.37C435.872 1131.63 435.574 1131.99 435.397 1132.42C435.221 1132.84 435.175 1133.31 435.265 1133.76C435.355 1134.22 435.577 1134.63 435.902 1134.96C436.228 1135.28 436.643 1135.51 437.095 1135.6C437.547 1135.69 438.016 1135.64 438.442 1135.46C438.867 1135.29 439.231 1134.99 439.487 1134.6C439.743 1134.22 439.88 1133.77 439.88 1133.31C439.875 1132.7 439.627 1132.11 439.19 1131.68C438.754 1131.24 438.164 1131 437.55 1131V1130.98Z" fill="black"/>
<path d="M479.22 2342.52C477.573 2342.52 475.962 2342.03 474.592 2341.12C473.222 2340.2 472.155 2338.9 471.524 2337.38C470.894 2335.86 470.729 2334.18 471.05 2332.56C471.371 2330.95 472.165 2329.46 473.33 2328.3C474.495 2327.13 475.979 2326.34 477.595 2326.02C479.211 2325.7 480.886 2325.86 482.408 2326.49C483.93 2327.12 485.231 2328.19 486.146 2329.56C487.061 2330.93 487.55 2332.54 487.55 2334.19C487.547 2336.4 486.669 2338.52 485.107 2340.08C483.546 2341.64 481.428 2342.52 479.22 2342.52ZM479.22 2331.86C478.759 2331.86 478.309 2332 477.926 2332.25C477.542 2332.51 477.244 2332.87 477.067 2333.3C476.891 2333.72 476.845 2334.19 476.935 2334.64C477.025 2335.1 477.247 2335.51 477.572 2335.84C477.898 2336.16 478.313 2336.39 478.765 2336.48C479.217 2336.57 479.686 2336.52 480.112 2336.34C480.537 2336.17 480.901 2335.87 481.157 2335.48C481.413 2335.1 481.55 2334.65 481.55 2334.19C481.55 2333.57 481.305 2332.98 480.868 2332.54C480.431 2332.11 479.838 2331.86 479.22 2331.86Z" fill="black"/>
<path d="M1975.4 284.08C1973.75 284.08 1972.14 283.591 1970.77 282.676C1969.4 281.761 1968.33 280.46 1967.7 278.938C1967.07 277.416 1966.91 275.741 1967.23 274.125C1967.55 272.509 1968.34 271.025 1969.51 269.86C1970.67 268.695 1972.16 267.901 1973.77 267.58C1975.39 267.259 1977.07 267.424 1978.59 268.054C1980.11 268.684 1981.41 269.752 1982.33 271.122C1983.24 272.492 1983.73 274.102 1983.73 275.75C1983.73 277.958 1982.85 280.076 1981.29 281.637C1979.73 283.199 1977.61 284.077 1975.4 284.08ZM1975.4 273.42C1974.94 273.42 1974.49 273.557 1974.11 273.813C1973.72 274.069 1973.42 274.433 1973.25 274.858C1973.07 275.284 1973.02 275.753 1973.11 276.204C1973.2 276.656 1973.43 277.072 1973.75 277.397C1974.08 277.723 1974.49 277.945 1974.95 278.035C1975.4 278.125 1975.87 278.079 1976.29 277.903C1976.72 277.726 1977.08 277.428 1977.34 277.044C1977.59 276.661 1977.73 276.211 1977.73 275.75C1977.73 275.132 1977.48 274.539 1977.05 274.102C1976.61 273.665 1976.02 273.42 1975.4 273.42Z" fill="black"/>
<path d="M964.92 1959.44C963.272 1959.44 961.662 1958.95 960.292 1958.04C958.922 1957.12 957.855 1955.82 957.224 1954.3C956.594 1952.78 956.429 1951.1 956.75 1949.49C957.071 1947.87 957.865 1946.39 959.03 1945.22C960.195 1944.06 961.679 1943.26 963.295 1942.94C964.911 1942.62 966.586 1942.78 968.108 1943.41C969.63 1944.04 970.931 1945.11 971.846 1946.48C972.761 1947.85 973.25 1949.46 973.25 1951.11C973.247 1953.32 972.369 1955.44 970.807 1957C969.246 1958.56 967.128 1959.44 964.92 1959.44ZM964.92 1948.78C964.459 1948.78 964.009 1948.92 963.626 1949.17C963.242 1949.43 962.944 1949.79 962.767 1950.22C962.591 1950.64 962.545 1951.11 962.635 1951.56C962.725 1952.02 962.947 1952.43 963.272 1952.76C963.598 1953.08 964.013 1953.31 964.465 1953.4C964.917 1953.49 965.386 1953.44 965.812 1953.26C966.237 1953.09 966.601 1952.79 966.857 1952.4C967.113 1952.02 967.25 1951.57 967.25 1951.11C967.25 1950.49 967.005 1949.9 966.568 1949.46C966.131 1949.03 965.538 1948.78 964.92 1948.78Z" fill="black"/>
<path d="M884.19 455.36C882.542 455.36 880.932 454.872 879.562 453.956C878.192 453.041 877.125 451.74 876.494 450.218C875.864 448.696 875.699 447.021 876.02 445.405C876.341 443.789 877.135 442.305 878.3 441.14C879.465 439.975 880.949 439.182 882.565 438.86C884.181 438.539 885.856 438.704 887.378 439.334C888.9 439.965 890.201 441.032 891.116 442.402C892.031 443.772 892.52 445.383 892.52 447.03C892.517 449.239 891.639 451.356 890.077 452.917C888.516 454.479 886.398 455.358 884.19 455.36ZM884.19 444.7C883.729 444.7 883.279 444.837 882.895 445.093C882.512 445.349 882.214 445.713 882.037 446.139C881.861 446.564 881.815 447.033 881.905 447.485C881.995 447.937 882.217 448.352 882.542 448.678C882.868 449.004 883.283 449.226 883.735 449.315C884.187 449.405 884.656 449.359 885.082 449.183C885.507 449.007 885.871 448.708 886.127 448.325C886.383 447.942 886.52 447.491 886.52 447.03C886.517 446.413 886.271 445.822 885.835 445.386C885.398 444.949 884.807 444.703 884.19 444.7Z" fill="black"/>
<path d="M1068.86 1535.68C1068.23 1535.68 1067.61 1535.48 1067.09 1535.11L1037.75 1513.75C1037.43 1513.52 1037.16 1513.23 1036.95 1512.89C1036.75 1512.55 1036.61 1512.18 1036.55 1511.79C1036.49 1511.4 1036.5 1511 1036.59 1510.62C1036.69 1510.24 1036.85 1509.87 1037.08 1509.55C1037.32 1509.24 1037.61 1508.97 1037.95 1508.76C1038.28 1508.55 1038.66 1508.42 1039.04 1508.35C1039.43 1508.29 1039.83 1508.31 1040.22 1508.4C1040.6 1508.49 1040.96 1508.66 1041.28 1508.89L1070.62 1530.25C1071.13 1530.62 1071.52 1531.15 1071.71 1531.75C1071.91 1532.35 1071.91 1533 1071.71 1533.6C1071.52 1534.21 1071.14 1534.73 1070.62 1535.11C1070.11 1535.48 1069.49 1535.68 1068.86 1535.68Z" fill="black"/>
<path d="M1330 190.18C1329.37 190.18 1328.75 189.981 1328.24 189.61L1298.88 168.26C1298.56 168.029 1298.29 167.737 1298.08 167.402C1297.88 167.066 1297.74 166.693 1297.68 166.304C1297.62 165.915 1297.63 165.517 1297.72 165.134C1297.81 164.751 1297.98 164.389 1298.21 164.07C1298.44 163.751 1298.73 163.48 1299.07 163.274C1299.4 163.068 1299.78 162.929 1300.17 162.867C1300.56 162.805 1300.95 162.82 1301.34 162.911C1301.72 163.003 1302.08 163.169 1302.4 163.4L1331.76 184.76C1332.27 185.133 1332.65 185.658 1332.84 186.258C1333.04 186.859 1333.04 187.506 1332.84 188.107C1332.65 188.707 1332.27 189.231 1331.76 189.603C1331.25 189.975 1330.63 190.177 1330 190.18Z" fill="black"/>
<path d="M1844.14 2243.62C1843.5 2243.62 1842.88 2243.42 1842.36 2243.04C1841.85 2242.66 1841.47 2242.13 1841.28 2241.52C1841.08 2240.91 1841.09 2240.26 1841.3 2239.65C1841.5 2239.05 1841.9 2238.53 1842.42 2238.16L1872.21 2217.41C1872.53 2217.16 1872.9 2216.98 1873.3 2216.88C1873.69 2216.78 1874.1 2216.75 1874.5 2216.82C1874.9 2216.88 1875.29 2217.02 1875.64 2217.24C1875.98 2217.45 1876.28 2217.73 1876.51 2218.07C1876.74 2218.4 1876.91 2218.78 1876.99 2219.18C1877.07 2219.58 1877.07 2219.99 1876.99 2220.39C1876.9 2220.79 1876.74 2221.17 1876.51 2221.5C1876.27 2221.83 1875.98 2222.12 1875.63 2222.33L1845.85 2243.08C1845.35 2243.43 1844.75 2243.62 1844.14 2243.62Z" fill="black"/>
<path d="M2638.84 2642.11C2638.2 2642.11 2637.58 2641.91 2637.06 2641.53C2636.55 2641.15 2636.17 2640.62 2635.98 2640.01C2635.78 2639.4 2635.79 2638.75 2636 2638.14C2636.2 2637.54 2636.6 2637.02 2637.12 2636.65L2666.92 2615.9C2667.57 2615.49 2668.36 2615.36 2669.11 2615.51C2669.86 2615.67 2670.53 2616.11 2670.97 2616.74C2671.4 2617.37 2671.58 2618.14 2671.47 2618.9C2671.35 2619.66 2670.95 2620.35 2670.34 2620.82L2640.55 2641.57C2640.05 2641.92 2639.45 2642.11 2638.84 2642.11Z" fill="black"/>
<path d="M2168.19 1458.79C2167.55 1458.79 2166.93 1458.59 2166.41 1458.21C2165.9 1457.83 2165.52 1457.3 2165.33 1456.69C2165.13 1456.08 2165.14 1455.43 2165.35 1454.82C2165.55 1454.22 2165.95 1453.7 2166.47 1453.33L2196.27 1432.58C2196.92 1432.15 2197.72 1431.99 2198.48 1432.14C2199.25 1432.29 2199.93 1432.73 2200.38 1433.37C2200.82 1434.01 2201 1434.8 2200.88 1435.57C2200.75 1436.34 2200.33 1437.04 2199.7 1437.5L2169.9 1458.25C2169.4 1458.6 2168.8 1458.79 2168.19 1458.79Z" fill="black"/>
<path d="M845.08 2362.1C844.441 2362.1 843.819 2361.9 843.304 2361.52C842.789 2361.14 842.408 2360.61 842.216 2360C842.024 2359.39 842.031 2358.74 842.237 2358.13C842.443 2357.53 842.836 2357.01 843.36 2356.64L873.15 2335.89C873.803 2335.46 874.597 2335.3 875.364 2335.45C876.131 2335.6 876.81 2336.04 877.257 2336.68C877.703 2337.32 877.882 2338.11 877.756 2338.88C877.63 2339.65 877.208 2340.35 876.58 2340.81L846.79 2361.56C846.29 2361.91 845.692 2362.1 845.08 2362.1Z" fill="black"/>
<path d="M347.72 586.7C347.082 586.698 346.461 586.494 345.948 586.115C345.434 585.737 345.055 585.205 344.864 584.596C344.674 583.988 344.682 583.334 344.888 582.731C345.094 582.127 345.487 581.605 346.01 581.24L375.79 560.49C376.112 560.251 376.479 560.08 376.869 559.985C377.259 559.891 377.664 559.876 378.06 559.941C378.456 560.006 378.834 560.149 379.174 560.363C379.513 560.577 379.806 560.857 380.035 561.186C380.265 561.515 380.426 561.886 380.509 562.279C380.592 562.671 380.596 563.076 380.52 563.47C380.444 563.864 380.29 564.238 380.066 564.572C379.843 564.905 379.555 565.19 379.22 565.41L349.44 586.16C348.936 586.512 348.335 586.7 347.72 586.7Z" fill="black"/>
<path d="M2332.12 736.67C2331.42 736.675 2330.74 736.434 2330.19 735.988C2329.65 735.542 2329.28 734.919 2329.15 734.229C2329.02 733.539 2329.13 732.824 2329.48 732.21C2329.82 731.596 2330.36 731.122 2331.02 730.87L2364.81 717.6C2365.55 717.332 2366.36 717.361 2367.07 717.682C2367.78 718.003 2368.34 718.59 2368.63 719.318C2368.92 720.045 2368.91 720.857 2368.61 721.578C2368.3 722.3 2367.73 722.874 2367.01 723.18L2333.22 736.46C2332.87 736.598 2332.5 736.669 2332.12 736.67Z" fill="black"/>
<path d="M2617.57 220.65C2617.07 220.65 2616.58 220.525 2616.14 220.286C2615.7 220.046 2615.32 219.701 2615.05 219.28L2595.3 188.82C2594.95 188.159 2594.86 187.392 2595.05 186.668C2595.23 185.944 2595.68 185.315 2596.31 184.906C2596.94 184.497 2597.69 184.336 2598.43 184.455C2599.17 184.574 2599.83 184.965 2600.3 185.55L2620.09 216C2620.3 216.331 2620.45 216.701 2620.52 217.089C2620.59 217.476 2620.59 217.874 2620.5 218.26C2620.42 218.645 2620.26 219.01 2620.04 219.335C2619.82 219.659 2619.53 219.936 2619.2 220.15C2618.72 220.471 2618.15 220.645 2617.57 220.65Z" fill="black"/>
<path d="M377.51 1871.18C377.009 1871.18 376.516 1871.05 376.076 1870.82C375.635 1870.58 375.262 1870.23 374.99 1869.81L355.24 1839.35C354.976 1839.02 354.784 1838.65 354.675 1838.24C354.567 1837.83 354.545 1837.41 354.61 1837C354.676 1836.58 354.827 1836.19 355.056 1835.83C355.284 1835.48 355.583 1835.18 355.935 1834.95C356.286 1834.72 356.682 1834.57 357.097 1834.5C357.511 1834.44 357.935 1834.46 358.34 1834.56C358.746 1834.67 359.125 1834.86 359.452 1835.13C359.779 1835.39 360.048 1835.72 360.24 1836.09L380 1866.55C380.293 1867 380.459 1867.53 380.479 1868.07C380.5 1868.61 380.374 1869.14 380.116 1869.61C379.858 1870.09 379.477 1870.48 379.013 1870.76C378.549 1871.03 378.02 1871.18 377.48 1871.18H377.51Z" fill="black"/>
<path d="M2699.21 2773.43H181C180.204 2773.43 179.441 2773.11 178.879 2772.55C178.316 2771.99 178 2771.23 178 2770.43C178 2769.63 178.316 2768.87 178.879 2768.31C179.441 2767.75 180.204 2767.43 181 2767.43H2699.21C2700.01 2767.43 2700.77 2767.75 2701.33 2768.31C2701.89 2768.87 2702.21 2769.63 2702.21 2770.43C2702.21 2771.23 2701.89 2771.99 2701.33 2772.55C2700.77 2773.11 2700.01 2773.43 2699.21 2773.43Z" fill="black"/>
<path d="M2597.11 1342.73C2581.88 1342.64 2566.73 1340.51 2552.06 1336.4C2523.91 1328.68 2494.51 1313.87 2464.67 1292.4C2425.41 1264.09 2367.67 1233.1 2315.53 1246.29C2277.91 1255.8 2262.12 1283.13 2258.18 1291.29C2258.01 1291.64 2257.77 1291.96 2257.47 1292.22C2257.18 1292.49 2256.84 1292.69 2256.46 1292.82C2256.09 1292.94 2255.7 1293 2255.3 1292.98C2254.91 1292.95 2254.52 1292.85 2254.17 1292.68C2253.82 1292.51 2253.5 1292.27 2253.24 1291.97C2252.97 1291.68 2252.77 1291.34 2252.64 1290.96C2252.52 1290.59 2252.46 1290.2 2252.48 1289.8C2252.51 1289.41 2252.61 1289.02 2252.78 1288.67C2257.01 1279.93 2273.92 1250.67 2314.06 1240.48C2333.93 1235.48 2356.06 1236.15 2379.75 1242.48C2407.28 1249.89 2437.03 1265.03 2468.18 1287.48C2497.43 1308.56 2526.18 1323.07 2553.65 1330.59C2577.17 1337.03 2599.82 1338.4 2620.97 1334.65C2667.69 1326.37 2690.77 1297.02 2696.73 1288.23C2697.18 1287.57 2697.87 1287.11 2698.65 1286.95C2699.43 1286.8 2700.25 1286.96 2700.91 1287.41C2701.57 1287.86 2702.03 1288.55 2702.19 1289.33C2702.34 1290.11 2702.18 1290.93 2701.73 1291.59C2695.44 1300.88 2671.09 1331.87 2622.05 1340.59C2613.82 1342.03 2605.47 1342.75 2597.11 1342.73Z" fill="black"/>
<path d="M2639.94 1502.57C2623.06 1502.57 2604.58 1495.57 2585.86 1482.12C2563.81 1466.22 2543.72 1459.95 2527.77 1463.99C2523.13 1465.08 2518.79 1467.17 2515.03 1470.1C2511.28 1473.04 2508.21 1476.75 2506.03 1480.99C2505.86 1481.34 2505.62 1481.66 2505.32 1481.92C2505.03 1482.19 2504.69 1482.39 2504.31 1482.52C2503.94 1482.64 2503.55 1482.7 2503.15 1482.68C2502.76 1482.65 2502.37 1482.55 2502.02 1482.38C2501.67 1482.21 2501.35 1481.97 2501.09 1481.67C2500.82 1481.38 2500.62 1481.04 2500.49 1480.66C2500.37 1480.29 2500.31 1479.9 2500.33 1479.5C2500.36 1479.11 2500.46 1478.72 2500.63 1478.37C2503.19 1473.35 2506.81 1468.94 2511.24 1465.45C2515.67 1461.96 2520.81 1459.47 2526.29 1458.16C2548.69 1452.5 2572.95 1465.41 2589.37 1477.25C2610.57 1492.53 2631.2 1498.94 2649.04 1495.78C2666.88 1492.62 2675.85 1481.36 2678.13 1478C2678.58 1477.34 2679.27 1476.88 2680.05 1476.72C2680.83 1476.57 2681.65 1476.73 2682.31 1477.18C2682.97 1477.63 2683.43 1478.32 2683.59 1479.1C2683.74 1479.88 2683.58 1480.7 2683.13 1481.36C2680.52 1485.22 2670.41 1498.09 2650.13 1501.68C2646.77 1502.28 2643.36 1502.58 2639.94 1502.57Z" fill="black"/>
<path d="M1718.55 2767.05C1747.02 2767.05 1770.1 2743.97 1770.1 2715.5C1770.1 2687.03 1747.02 2663.95 1718.55 2663.95C1690.08 2663.95 1667 2687.03 1667 2715.5C1667 2743.97 1690.08 2767.05 1718.55 2767.05Z" fill="black"/>
<path d="M975.92 2767.05C1004.39 2767.05 1027.47 2743.97 1027.47 2715.5C1027.47 2687.03 1004.39 2663.95 975.92 2663.95C947.45 2663.95 924.37 2687.03 924.37 2715.5C924.37 2743.97 947.45 2767.05 975.92 2767.05Z" fill="black"/>
<path d="M2258.53 2093.55L2255.53 2092.62L1825.31 1958.5C1748.55 1932.15 1587.64 1844.37 1527.31 1700.58C1508.31 1661.39 1465.03 1498.99 1444.8 1418.58C1444.61 1417.81 1444.73 1416.99 1445.14 1416.31C1445.54 1415.63 1446.21 1415.13 1446.98 1414.94C1447.75 1414.75 1448.57 1414.87 1449.25 1415.28C1449.93 1415.69 1450.43 1416.35 1450.62 1417.12C1470.81 1497.41 1513.95 1659.45 1532.75 1698.12L1532.82 1698.27C1592.27 1840.14 1751.35 1926.85 1827.15 1952.88L2254.37 2086L2344.37 1753.35L1879.56 1639.46L1741 1162.37C1740.89 1161.99 1740.85 1161.6 1740.9 1161.2C1740.94 1160.81 1741.06 1160.43 1741.25 1160.09C1741.44 1159.74 1741.69 1159.44 1742 1159.19C1742.31 1158.94 1742.66 1158.76 1743.04 1158.65C1743.42 1158.54 1743.81 1158.51 1744.21 1158.55C1744.6 1158.59 1744.98 1158.71 1745.32 1158.9C1745.67 1159.09 1745.97 1159.34 1746.22 1159.65C1746.47 1159.96 1746.65 1160.31 1746.76 1160.69L1884.38 1634.43L2351.78 1749L2258.53 2093.55ZM1693.44 1036.8C1692.8 1036.8 1692.17 1036.59 1691.66 1036.21C1691.14 1035.83 1690.76 1035.29 1690.57 1034.68L1676.57 988.87L1495.06 1028.87C1494.28 1029.04 1493.47 1028.9 1492.8 1028.47C1492.13 1028.04 1491.66 1027.36 1491.48 1026.59C1491.31 1025.81 1491.46 1024.99 1491.89 1024.32C1492.32 1023.65 1492.99 1023.18 1493.77 1023.01L1674.77 983.14L1671.92 973.85C1671.69 973.089 1671.77 972.266 1672.14 971.563C1672.51 970.86 1673.15 970.334 1673.91 970.1C1674.67 969.867 1675.49 969.945 1676.2 970.319C1676.9 970.692 1677.43 971.329 1677.66 972.09L1681.45 984.47L1696.27 1032.9C1696.41 1033.35 1696.44 1033.82 1696.36 1034.29C1696.28 1034.75 1696.09 1035.19 1695.81 1035.56C1695.53 1035.94 1695.17 1036.25 1694.75 1036.46C1694.33 1036.67 1693.87 1036.78 1693.4 1036.78L1693.44 1036.8Z" fill="black"/>
<path d="M1472.72 1524.77L1291.57 2298.96L1297.41 2300.32L1478.57 1526.14L1472.72 1524.77Z" fill="black"/>
<path d="M2336.23 1789.98L1797.49 1674.83L1797.16 1672.81L1715.59 1177.72L1721.51 1176.74L1802.75 1669.81L2337.49 1784.12L2336.23 1789.98Z" fill="black"/>
<path d="M1524.9 2329.67L1521.6 2329.28L1180.39 2288.8L1230.63 1298.71C1230.67 1297.91 1231.02 1297.17 1231.61 1296.63C1231.91 1296.37 1232.25 1296.16 1232.62 1296.03C1232.99 1295.9 1233.39 1295.84 1233.78 1295.86C1234.17 1295.88 1234.56 1295.98 1234.92 1296.15C1235.27 1296.31 1235.59 1296.55 1235.86 1296.84C1236.12 1297.14 1236.33 1297.48 1236.46 1297.85C1236.59 1298.22 1236.65 1298.62 1236.63 1299.01L1186.63 2283.5L1519 2322.93L1529 1706.76C1529 1705.96 1529.32 1705.2 1529.88 1704.64C1530.44 1704.08 1531.2 1703.76 1532 1703.76C1532.8 1703.76 1533.56 1704.08 1534.12 1704.64C1534.68 1705.2 1535 1705.96 1535 1706.76L1524.9 2329.67Z" fill="black"/>
<path d="M1487.51 357.49C1528.44 391.92 1523.02 463.92 1515.2 495.62C1501.72 495.62 1494.73 499.84 1492.93 501.94C1502.26 472.15 1510.99 430.02 1483.6 433.33C1424.37 440.07 1393.01 427.91 1386.49 421.09C1390 407.9 1436.35 314.45 1487.51 357.49Z" fill="black"/>
<path d="M1511.24 434.26C1510.84 434.258 1510.45 434.177 1510.08 434.02C1504.08 431.71 1403.73 418.89 1307.61 407.43C1306.81 407.335 1306.09 406.927 1305.59 406.297C1305.1 405.667 1304.87 404.866 1304.97 404.07C1305.07 403.275 1305.47 402.549 1306.1 402.054C1306.73 401.559 1307.53 401.335 1308.33 401.43C1328.33 403.82 1503.78 424.82 1512.4 428.43C1513.04 428.697 1513.57 429.178 1513.9 429.791C1514.22 430.404 1514.33 431.111 1514.19 431.792C1514.05 432.472 1513.68 433.085 1513.15 433.524C1512.61 433.963 1511.93 434.202 1511.24 434.2V434.26Z" fill="black"/>
<path d="M1438.55 589.82C1427.54 589.897 1416.85 586.19 1408.25 579.32C1403.62 575.747 1399.65 571.399 1396.51 566.47L1396.44 566.35C1365.87 513.94 1377.62 447.46 1388.1 419.63C1388.38 418.885 1388.94 418.281 1389.67 417.952C1390.39 417.623 1391.22 417.595 1391.96 417.875C1392.71 418.155 1393.31 418.719 1393.64 419.444C1393.97 420.169 1394 420.995 1393.72 421.74C1383.59 448.64 1372.2 512.81 1401.59 563.27C1404.36 567.61 1407.86 571.436 1411.93 574.58C1433.01 591.19 1458.22 581.79 1468.61 574.51C1476 569.268 1482.48 562.849 1487.79 555.51C1491.34 550.51 1499.08 538.28 1502.79 528.26C1503.08 527.524 1503.64 526.931 1504.36 526.608C1505.08 526.285 1505.9 526.259 1506.64 526.535C1507.38 526.811 1507.98 527.368 1508.31 528.084C1508.64 528.8 1508.68 529.617 1508.41 530.36C1504.41 540.96 1496.41 553.73 1492.64 559.01C1486.88 566.93 1478.97 574.74 1471.97 579.42C1462.07 586.053 1450.46 589.666 1438.55 589.82Z" fill="black"/>
<path d="M1421.36 628.69C1420.63 628.696 1419.92 628.433 1419.36 627.95C1418.81 627.467 1418.45 626.798 1418.36 626.07L1413 583.85C1412.95 583.456 1412.98 583.056 1413.08 582.673C1413.19 582.29 1413.37 581.932 1413.61 581.618C1413.85 581.304 1414.16 581.041 1414.5 580.844C1414.85 580.647 1415.23 580.52 1415.62 580.47C1416.01 580.42 1416.41 580.449 1416.8 580.553C1417.18 580.658 1417.54 580.837 1417.85 581.08C1418.17 581.324 1418.43 581.626 1418.63 581.971C1418.82 582.316 1418.95 582.696 1419 583.09L1424.43 625.31C1424.48 625.702 1424.45 626.099 1424.35 626.48C1424.25 626.861 1424.07 627.218 1423.83 627.53C1423.59 627.842 1423.29 628.103 1422.94 628.299C1422.6 628.495 1422.22 628.621 1421.83 628.67L1421.36 628.69ZM1506.61 621.46C1505.93 621.46 1505.26 621.226 1504.73 620.797C1504.2 620.367 1503.83 619.769 1503.68 619.1L1489.61 555.16C1489.44 554.383 1489.58 553.57 1490.01 552.9C1490.44 552.229 1491.12 551.756 1491.9 551.585C1492.67 551.414 1493.49 551.559 1494.16 551.987C1494.83 552.416 1495.3 553.093 1495.47 553.87L1509.54 617.81C1509.71 618.587 1509.56 619.4 1509.13 620.069C1508.7 620.739 1508.03 621.21 1507.25 621.38C1507.04 621.432 1506.83 621.458 1506.61 621.46Z" fill="black"/>
<path d="M1450.66 585.83C1437.49 590.9 1423.06 586.09 1417.48 583.05L1420.78 605.59C1460.08 617.75 1482.23 585.07 1487.38 565.83C1480.71 571.31 1463.83 580.77 1450.66 585.83Z" fill="black"/>
<path d="M1498.23 533C1496.28 533.01 1494.33 532.856 1492.4 532.54C1492 532.49 1491.61 532.36 1491.26 532.156C1490.91 531.952 1490.6 531.68 1490.36 531.355C1490.12 531.03 1489.95 530.659 1489.85 530.265C1489.76 529.871 1489.74 529.462 1489.81 529.062C1489.88 528.663 1490.03 528.281 1490.24 527.94C1490.46 527.599 1490.75 527.306 1491.09 527.079C1491.42 526.852 1491.8 526.695 1492.2 526.618C1492.59 526.541 1493 526.545 1493.4 526.63C1500.64 527.88 1517.77 526.44 1521.53 514.02C1523.67 506.95 1522.63 500.84 1518.66 497.25C1514.91 493.87 1509.13 493.33 1503.18 495.81C1502.81 495.977 1502.42 496.07 1502.02 496.081C1501.62 496.092 1501.22 496.023 1500.84 495.877C1500.47 495.731 1500.12 495.511 1499.84 495.23C1499.55 494.949 1499.32 494.614 1499.17 494.243C1499.01 493.872 1498.93 493.474 1498.93 493.072C1498.93 492.67 1499.02 492.272 1499.17 491.903C1499.33 491.533 1499.56 491.199 1499.85 490.92C1500.14 490.641 1500.48 490.424 1500.86 490.28C1509.01 486.87 1517.17 487.82 1522.68 492.8C1528.36 497.94 1530.08 506.52 1527.27 515.8C1525.12 522.9 1519.61 528.14 1511.33 530.94C1507.1 532.326 1502.68 533.022 1498.23 533Z" fill="black"/>
<path d="M1395.19 543.45L1399 537C1408.77 520.39 1414.52 488.4 1409.8 476.95C1405.29 466.03 1389.29 462.36 1382.68 462.36C1381.88 462.36 1381.12 462.044 1380.56 461.482C1380 460.919 1379.68 460.156 1379.68 459.36C1379.68 458.565 1380 457.802 1380.56 457.239C1381.12 456.676 1381.88 456.36 1382.68 456.36C1389.19 456.36 1409.17 459.72 1415.34 474.66C1420.61 487.42 1415.55 515.66 1407.47 533.59C1411.74 531.84 1417.07 528.32 1423.92 519.53C1424.41 518.902 1425.13 518.493 1425.92 518.395C1426.71 518.296 1427.51 518.516 1428.14 519.005C1428.76 519.495 1429.17 520.214 1429.27 521.004C1429.37 521.795 1429.15 522.592 1428.66 523.22C1417.55 537.46 1409.37 539.58 1403.96 540.99L1402.41 541.41L1395.19 543.45Z" fill="black"/>
<path d="M1476.87 474.09C1476.09 474.092 1475.33 473.787 1474.77 473.24C1469.55 468.14 1456.45 461.3 1444.26 471.93C1443.97 472.205 1443.62 472.419 1443.24 472.557C1442.86 472.696 1442.46 472.757 1442.06 472.737C1441.65 472.716 1441.26 472.615 1440.9 472.439C1440.54 472.263 1440.21 472.015 1439.95 471.712C1439.68 471.408 1439.48 471.054 1439.36 470.671C1439.23 470.288 1439.19 469.883 1439.22 469.482C1439.26 469.08 1439.37 468.69 1439.56 468.334C1439.75 467.978 1440.01 467.664 1440.32 467.41C1447.09 461.5 1463.88 454.22 1478.97 468.95C1479.39 469.367 1479.69 469.901 1479.81 470.485C1479.93 471.068 1479.87 471.673 1479.64 472.225C1479.42 472.776 1479.04 473.247 1478.54 473.58C1478.05 473.912 1477.47 474.089 1476.87 474.09Z" fill="black"/>
<path d="M1434 555.27C1430.65 555.24 1427.32 554.69 1424.13 553.64C1423.75 553.521 1423.41 553.328 1423.1 553.074C1422.8 552.82 1422.56 552.509 1422.37 552.159C1422.19 551.809 1422.08 551.427 1422.05 551.034C1422.02 550.641 1422.06 550.246 1422.18 549.87C1422.3 549.495 1422.49 549.146 1422.75 548.845C1423 548.544 1423.31 548.295 1423.66 548.114C1424.01 547.933 1424.39 547.823 1424.79 547.79C1425.18 547.756 1425.57 547.801 1425.95 547.92C1432.95 550.14 1447.69 550.39 1453.83 535.43C1454.13 534.693 1454.72 534.106 1455.45 533.798C1456.19 533.491 1457.01 533.488 1457.75 533.79C1458.49 534.092 1459.07 534.675 1459.38 535.41C1459.69 536.146 1459.69 536.973 1459.39 537.71C1456.61 544.55 1448.15 555.27 1434 555.27Z" fill="black"/>
<path d="M1493.86 516.58C1493.3 516.583 1492.75 516.427 1492.28 516.13C1491.94 515.925 1491.65 515.655 1491.42 515.337C1491.18 515.018 1491.02 514.656 1490.92 514.273C1490.83 513.889 1490.81 513.491 1490.87 513.101C1490.94 512.711 1491.07 512.337 1491.28 512C1494.01 507.61 1502.28 499.68 1514.12 501.1C1514.51 501.147 1514.89 501.272 1515.24 501.466C1515.59 501.661 1515.89 501.921 1516.14 502.233C1516.38 502.545 1516.56 502.902 1516.67 503.285C1516.78 503.667 1516.81 504.066 1516.76 504.46C1516.71 504.854 1516.59 505.235 1516.39 505.581C1516.2 505.927 1515.94 506.231 1515.63 506.476C1515.31 506.721 1514.96 506.902 1514.58 507.009C1514.19 507.116 1513.79 507.147 1513.4 507.1C1504.56 506.04 1498.4 511.94 1496.4 515.21C1496.13 515.634 1495.75 515.981 1495.31 516.22C1494.86 516.46 1494.36 516.584 1493.86 516.58Z" fill="black"/>
<path d="M1442.9 492C1442.23 492.005 1441.58 491.779 1441.05 491.36C1440.42 490.869 1440.02 490.15 1439.92 489.361C1439.83 488.571 1440.05 487.776 1440.54 487.15C1444.08 482.65 1450.63 477.76 1458.38 477.56C1465.02 477.39 1471.27 480.56 1476.9 487.03C1477.16 487.327 1477.36 487.673 1477.49 488.047C1477.62 488.422 1477.68 488.818 1477.65 489.214C1477.63 489.61 1477.53 489.997 1477.35 490.353C1477.18 490.709 1476.94 491.028 1476.64 491.29C1476.34 491.553 1476 491.754 1475.62 491.884C1475.25 492.013 1474.85 492.067 1474.46 492.042C1474.06 492.018 1473.67 491.917 1473.32 491.743C1472.96 491.569 1472.64 491.327 1472.38 491.03C1467.98 485.98 1463.38 483.49 1458.53 483.61C1452.85 483.76 1447.83 487.61 1445.26 490.91C1444.97 491.257 1444.61 491.535 1444.2 491.724C1443.8 491.913 1443.35 492.007 1442.9 492Z" fill="black"/>
<path d="M1381.07 490.84C1380.51 490.84 1379.96 490.681 1379.48 490.383C1379 490.085 1378.62 489.658 1378.37 489.153C1378.13 488.647 1378.03 488.082 1378.09 487.523C1378.15 486.964 1378.36 486.433 1378.71 485.99C1382.26 481.48 1388.82 476.59 1396.57 476.4C1403.25 476.25 1409.45 479.4 1415.07 485.87C1415.35 486.164 1415.56 486.511 1415.7 486.889C1415.84 487.268 1415.9 487.67 1415.88 488.073C1415.86 488.475 1415.76 488.869 1415.58 489.232C1415.4 489.594 1415.16 489.918 1414.85 490.182C1414.55 490.447 1414.19 490.648 1413.81 490.773C1413.43 490.898 1413.02 490.945 1412.62 490.91C1412.22 490.875 1411.83 490.76 1411.47 490.571C1411.12 490.382 1410.8 490.123 1410.55 489.81C1406.15 484.81 1401.55 482.3 1396.72 482.4C1391.04 482.54 1386.01 486.4 1383.43 489.7C1383.15 490.056 1382.79 490.344 1382.38 490.541C1381.97 490.739 1381.52 490.841 1381.07 490.84Z" fill="black"/>
<path d="M1357.48 1324.94C1350.64 1324.94 1344.86 1322.44 1342.15 1318.11C1340.73 1315.81 1340.22 1313.06 1340.71 1310.4C1334.56 1311.61 1327.63 1310.31 1322.92 1306.61C1319.59 1304 1314.87 1298.29 1317.06 1287.77C1314.48 1288.03 1311.88 1287.75 1309.42 1286.95C1306.96 1286.15 1304.69 1284.84 1302.76 1283.11C1300 1280.49 1295.89 1274.59 1299.34 1264.42C1300.97 1260.36 1303.71 1256.83 1307.24 1254.25C1309.42 1252.64 1313.96 1249.97 1318.73 1247.25L1296.82 1248.95C1289.82 1249.49 1283.02 1244.16 1281.41 1236.8C1280.08 1230.73 1282.6 1222.8 1293.66 1218.71L1293.99 1218.6L1412.65 1189.8L1358.83 1169.3C1350.83 1165.47 1345.5 1155.3 1347.31 1147.12C1348.37 1142.35 1352.63 1134.35 1369.31 1134.18C1381.82 1133.25 1515.95 1127.4 1549.31 1127.29L1753.79 990L1690.9 885.18C1690.68 884.842 1690.54 884.464 1690.47 884.069C1690.4 883.673 1690.41 883.268 1690.5 882.877C1690.59 882.486 1690.76 882.117 1691 881.792C1691.23 881.468 1691.53 881.194 1691.88 880.987C1692.22 880.78 1692.6 880.644 1693 880.588C1693.4 880.531 1693.8 880.555 1694.19 880.658C1694.58 880.761 1694.94 880.941 1695.26 881.187C1695.58 881.433 1695.84 881.74 1696.04 882.09L1761.87 991.8L1551.13 1133.34H1550.22C1518.49 1133.34 1381.62 1139.34 1369.68 1140.22H1369.48C1360.12 1140.3 1354.33 1143.22 1353.17 1148.45C1351.97 1153.89 1355.84 1161.21 1361.31 1163.87L1432.85 1191.12L1295.58 1224.43C1289.27 1226.81 1286.24 1230.86 1287.27 1235.56C1288.27 1239.9 1292.38 1243.32 1296.36 1243.01L1332.36 1240.22L1333.98 1245.87C1326.69 1249.69 1314.5 1256.35 1310.82 1259.07C1308.27 1260.93 1306.27 1263.44 1305.04 1266.35C1303.25 1271.6 1303.9 1275.89 1306.9 1278.74C1310.14 1281.81 1315.76 1282.74 1320.26 1280.92L1326.54 1278.4L1324.19 1284.74C1321.33 1292.46 1322.19 1298.38 1326.64 1301.88C1331.38 1305.6 1339.64 1305.88 1344.57 1302.52L1348.73 1306.68C1347.16 1309.01 1345.63 1312.32 1347.25 1314.91C1349.14 1317.91 1354.81 1319.52 1360.77 1318.7L1573.08 1271.25L1797.87 1118.32C1801.49 1115.7 1805.48 1112.88 1809.7 1109.9C1833.88 1092.82 1866.98 1069.42 1888.7 1041.9C1914.08 1009.85 1919.11 979.15 1904.09 948.08C1866.25 869.78 1825.95 801.19 1825.55 800.51C1825.23 799.831 1825.18 799.056 1825.4 798.34C1825.63 797.624 1826.11 797.017 1826.76 796.641C1827.41 796.264 1828.18 796.144 1828.91 796.305C1829.64 796.466 1830.29 796.896 1830.72 797.51C1831.12 798.2 1871.54 866.99 1909.49 945.51C1945.95 1020.95 1862.81 1079.71 1813.13 1114.82C1808.92 1117.82 1804.94 1120.6 1801.28 1123.25L1575.46 1276.87L1361.7 1324.64C1360.3 1324.84 1358.89 1324.94 1357.48 1324.94Z" fill="black"/>
<path d="M1458.77 494.68C1462.35 494.68 1465.26 491.775 1465.26 488.19C1465.26 484.606 1462.35 481.7 1458.77 481.7C1455.19 481.7 1452.28 484.606 1452.28 488.19C1452.28 491.775 1455.19 494.68 1458.77 494.68Z" fill="black"/>
<path d="M1396.94 493.52C1400.52 493.52 1403.43 490.614 1403.43 487.03C1403.43 483.446 1400.52 480.54 1396.94 480.54C1393.36 480.54 1390.45 483.446 1390.45 487.03C1390.45 490.614 1393.36 493.52 1396.94 493.52Z" fill="black"/>
<path d="M1506.2 522.36C1505.67 522.361 1505.15 522.22 1504.69 521.952C1504.23 521.684 1503.85 521.299 1503.59 520.836C1503.32 520.373 1503.19 519.849 1503.2 519.317C1503.21 518.786 1503.36 518.266 1503.63 517.81C1505.21 515.19 1505.73 512.99 1505.16 511.43C1504.95 510.941 1504.65 510.5 1504.26 510.136C1503.87 509.773 1503.41 509.495 1502.91 509.32C1502.52 509.21 1502.16 509.022 1501.85 508.768C1501.53 508.514 1501.27 508.2 1501.08 507.844C1500.9 507.488 1500.78 507.097 1500.74 506.695C1500.71 506.293 1500.76 505.888 1500.88 505.505C1501.01 505.121 1501.21 504.767 1501.47 504.463C1501.74 504.159 1502.06 503.912 1502.42 503.736C1502.79 503.56 1503.18 503.459 1503.59 503.439C1503.99 503.419 1504.39 503.481 1504.77 503.62C1506.13 504.067 1507.38 504.813 1508.42 505.802C1509.45 506.792 1510.26 508.001 1510.77 509.34C1512.02 512.71 1511.35 516.6 1508.77 520.9C1508.5 521.345 1508.13 521.713 1507.68 521.969C1507.23 522.225 1506.72 522.36 1506.2 522.36Z" fill="black"/>
<path d="M1317.65 624.66L1416 612.82C1423 622.21 1443.49 639.98 1466.74 634.82C1489.99 629.66 1505.74 609.72 1507.15 601.04C1524.04 599.44 1559.94 596.21 1597.36 590.93C1674.27 580.49 1729.89 630.93 1748.09 657.4L1851.35 810.5L1706.55 916.13L1656.7 841.35L1681.63 981.41L1490.54 1025.32L1431.18 666.52L1198.35 708.85C1241.84 648 1296 627.39 1317.65 624.66Z" fill="#FEDA00"/>
<path d="M1646.74 820.57C1646.03 820.582 1645.34 820.343 1644.79 819.894C1644.24 819.446 1643.87 818.817 1643.74 818.12L1633.44 762.78C1633.37 762.393 1633.37 761.995 1633.45 761.61C1633.54 761.224 1633.69 760.858 1633.92 760.533C1634.14 760.208 1634.42 759.93 1634.75 759.715C1635.08 759.5 1635.45 759.353 1635.84 759.28C1636.23 759.208 1636.63 759.213 1637.01 759.294C1637.4 759.376 1637.76 759.533 1638.09 759.755C1638.41 759.978 1638.69 760.263 1638.91 760.593C1639.12 760.924 1639.27 761.293 1639.34 761.68L1649.64 817.03C1649.78 817.811 1649.61 818.617 1649.16 819.271C1648.71 819.925 1648.02 820.375 1647.24 820.52C1647.08 820.553 1646.91 820.57 1646.74 820.57Z" fill="black"/>
<path d="M1343 1309.8C1342.32 1309.8 1341.67 1309.57 1341.14 1309.15C1340.61 1308.74 1340.24 1308.15 1340.08 1307.49C1339.92 1306.84 1339.99 1306.15 1340.28 1305.53C1340.56 1304.92 1341.05 1304.42 1341.65 1304.12L1429.85 1259.68C1430.56 1259.32 1431.38 1259.26 1432.14 1259.51C1432.51 1259.63 1432.86 1259.83 1433.16 1260.09C1433.46 1260.34 1433.7 1260.66 1433.88 1261.01C1434.06 1261.36 1434.16 1261.75 1434.19 1262.14C1434.22 1262.53 1434.17 1262.93 1434.05 1263.3C1433.93 1263.67 1433.73 1264.02 1433.47 1264.32C1433.22 1264.62 1432.9 1264.86 1432.55 1265.04L1344.35 1309.48C1343.93 1309.69 1343.47 1309.8 1343 1309.8ZM1322.72 1286.33C1322.03 1286.33 1321.37 1286.09 1320.84 1285.66C1320.31 1285.22 1319.94 1284.62 1319.8 1283.95C1319.65 1283.28 1319.75 1282.58 1320.06 1281.97C1320.37 1281.36 1320.88 1280.87 1321.51 1280.59L1414.37 1239.49C1414.73 1239.3 1415.13 1239.2 1415.54 1239.17C1415.95 1239.14 1416.35 1239.2 1416.74 1239.34C1417.12 1239.47 1417.48 1239.69 1417.77 1239.96C1418.07 1240.24 1418.31 1240.58 1418.48 1240.95C1418.64 1241.32 1418.73 1241.73 1418.73 1242.13C1418.74 1242.54 1418.66 1242.95 1418.5 1243.32C1418.34 1243.7 1418.11 1244.04 1417.81 1244.32C1417.52 1244.61 1417.17 1244.83 1416.79 1244.97L1323.93 1286.07C1323.54 1286.25 1323.1 1286.34 1322.67 1286.33H1322.72ZM1328.48 1247.38C1327.75 1247.38 1327.04 1247.12 1326.49 1246.63C1325.94 1246.15 1325.58 1245.48 1325.49 1244.75C1325.4 1244.03 1325.58 1243.29 1325.99 1242.69C1326.41 1242.08 1327.03 1241.65 1327.74 1241.47L1395.53 1224.14C1395.91 1224.04 1396.31 1224.02 1396.71 1224.08C1397.1 1224.14 1397.48 1224.27 1397.82 1224.48C1398.16 1224.68 1398.45 1224.95 1398.69 1225.27C1398.93 1225.59 1399.1 1225.95 1399.19 1226.34C1399.29 1226.72 1399.31 1227.12 1399.25 1227.51C1399.2 1227.9 1399.06 1228.28 1398.86 1228.62C1398.65 1228.96 1398.38 1229.26 1398.07 1229.5C1397.75 1229.73 1397.38 1229.9 1397 1230L1329.21 1247.33C1328.95 1247.38 1328.69 1247.4 1328.43 1247.38H1328.48Z" fill="black"/>
<path d="M789.89 1350.03L710.83 790.74L1432.48 664.13L1513.18 1130.79L1507.26 1131.81L1427.6 671.08L717.58 795.64L795.02 1343.43L1318.61 1285.79L1319.27 1291.75L789.89 1350.03Z" fill="black"/>
<path d="M796.58 1347.81L792.2 1343.71L1098.89 1016.01L712.72 796.77L715.69 791.55L1103.11 1011.5L1426.88 665.55L1431.26 669.65L1108.47 1014.55L1350.37 1151.88L1347.41 1157.1L1104.26 1019.05L796.58 1347.81Z" fill="black"/>
<path d="M1228 1398.87L1234.92 1302.17L1317.78 1290.84C1320.68 1306.99 1335.91 1310.22 1343.16 1309.84C1343.35 1313.04 1351.08 1319.46 1352.55 1320.53C1353.63 1321.32 1476.1 1295.79 1539.47 1282.53L1533.47 1294.8L1228 1398.87Z" fill="black"/>
<path d="M1000.32 2577.85H1479.48V2365.54H1323.06L1328.27 2415.43C1302.75 2418.96 1247.87 2426.76 1232.43 2429.75C1078.6 2451.65 1013.59 2537.61 1000.32 2577.85Z" fill="black"/>
<path d="M1482.48 2580.85H996.17L997.47 2576.91C1011.47 2534.55 1078.47 2448.67 1231.93 2426.79C1246.75 2423.93 1297.64 2416.66 1324.93 2412.86L1313.41 2302.49L1319.41 2301.87L1325.75 2362.54H1476.47V2320.22H1482.47L1482.48 2580.85ZM1004.58 2574.85H1476.48V2368.54H1326.39L1331.56 2418L1328.68 2418.4C1302.2 2422.06 1248.12 2429.77 1233 2432.7H1232.85C1086.87 2453.5 1020.87 2532.54 1004.58 2574.85Z" fill="black"/>
<path d="M1643.23 2465.83L1482.86 2582.19V2460.27L1643.23 2465.83Z" fill="black"/>
<path d="M2494.59 2351.28L2584.27 1880.58L2375.71 1840.85L2346.44 1994.51L2396.44 1998.73C2395.13 2024.45 2392.52 2079.83 2392.56 2095.55C2385.27 2250.76 2457.55 2330.7 2494.59 2351.28Z" fill="black"/>
<path d="M2496.76 2355.92L2493.13 2353.92C2454.13 2332.26 2382.31 2250.36 2389.54 2095.5C2389.54 2080.36 2391.89 2029.04 2393.28 2001.5L2282.7 1992.17L2283.2 1986.17L2344 1991.3L2372.21 1843.21L2326.83 1834.07L2328.01 1828.19L2376.28 1837.92L2587.78 1878.2L2496.76 2355.92ZM2350 1991.8L2399.55 1995.98L2399.41 1998.88C2398.05 2025.55 2395.49 2080.07 2395.53 2095.54V2095.69C2388.63 2242.96 2453.91 2322.59 2492.43 2346.53L2580.76 1883L2378.1 1844.39L2350 1991.8Z" fill="black"/>
<path d="M1357.76 2683.24C1151 2683.24 956.59 2671.24 810.35 2649.57C739.25 2639 683.48 2626.72 644.58 2613.05C624.91 2606.15 609.81 2598.93 599.71 2591.6C589.61 2584.27 584.4 2576.7 584.4 2569.23C584.4 2561.76 589.55 2554.23 599.71 2546.86C609.87 2539.49 624.91 2532.31 644.58 2525.41C683.53 2511.73 739.3 2499.41 810.35 2488.89C956.59 2467.18 1151 2455.22 1357.76 2455.22C1564.52 2455.22 1758.92 2467.22 1905.17 2488.89C1976.17 2499.44 2031.99 2511.73 2070.93 2525.41C2090.61 2532.31 2105.7 2539.53 2115.8 2546.86C2125.9 2554.19 2131.12 2561.76 2131.12 2569.23C2131.12 2576.7 2125.97 2584.23 2115.8 2591.6C2105.63 2598.97 2090.61 2606.15 2070.93 2613.05C2032.04 2626.71 1976.27 2639 1905.17 2649.57C1758.92 2671.28 1564.52 2683.24 1357.76 2683.24ZM1357.76 2461.24C1151.28 2461.24 957.19 2473.18 811.23 2494.85C740.56 2505.34 685.16 2517.54 646.57 2531.09C627.45 2537.8 612.87 2544.74 603.24 2551.74C594.84 2557.84 590.4 2563.89 590.4 2569.25C590.4 2574.61 594.84 2580.66 603.24 2586.76C612.87 2593.76 627.44 2600.7 646.57 2607.41C685.11 2620.95 740.51 2633.14 811.23 2643.65C957.23 2665.32 1151.23 2677.26 1357.76 2677.26C1564.29 2677.26 1758.32 2665.32 1904.29 2643.65C1975.01 2633.14 2030.41 2620.95 2068.95 2607.41C2088.07 2600.7 2102.65 2593.75 2112.28 2586.76C2120.68 2580.67 2125.12 2574.61 2125.12 2569.25C2125.12 2563.89 2120.68 2557.83 2112.28 2551.74C2102.65 2544.74 2088.07 2537.8 2068.95 2531.09C2030.36 2517.54 1974.95 2505.34 1904.29 2494.85C1758.32 2473.16 1564.23 2461.22 1357.76 2461.22V2461.24Z" fill="black"/>
</svg>
