<svg width="3000" height="3000" viewBox="0 0 3000 3000" fill="none" xmlns="http://www.w3.org/2000/svg">
<path d="M2644.4 1016.89C2642.75 1016.89 2641.14 1016.4 2639.77 1015.49C2638.4 1014.57 2637.33 1013.27 2636.7 1011.75C2636.07 1010.23 2635.91 1008.55 2636.23 1006.93C2636.55 1005.32 2637.34 1003.83 2638.51 1002.67C2639.67 1001.5 2641.16 1000.71 2642.77 1000.39C2644.39 1000.07 2646.07 1000.23 2647.59 1000.86C2649.11 1001.49 2650.41 1002.56 2651.33 1003.93C2652.24 1005.3 2652.73 1006.91 2652.73 1008.56C2652.73 1010.77 2651.85 1012.89 2650.29 1014.45C2648.73 1016.01 2646.61 1016.89 2644.4 1016.89ZM2644.4 1006.23C2643.94 1006.23 2643.49 1006.37 2643.11 1006.62C2642.72 1006.88 2642.42 1007.24 2642.25 1007.67C2642.07 1008.09 2642.02 1008.56 2642.11 1009.01C2642.2 1009.47 2642.43 1009.88 2642.75 1010.21C2643.08 1010.53 2643.49 1010.76 2643.95 1010.85C2644.4 1010.94 2644.87 1010.89 2645.29 1010.71C2645.72 1010.54 2646.08 1010.24 2646.34 1009.85C2646.59 1009.47 2646.73 1009.02 2646.73 1008.56C2646.73 1007.94 2646.48 1007.35 2646.05 1006.91C2645.61 1006.48 2645.02 1006.23 2644.4 1006.23Z" fill="black"/>
<path d="M2598.36 1722.39C2596.71 1722.39 2595.1 1721.9 2593.73 1720.99C2592.36 1720.07 2591.29 1718.77 2590.66 1717.25C2590.03 1715.73 2589.87 1714.05 2590.19 1712.43C2590.51 1710.82 2591.3 1709.33 2592.47 1708.17C2593.63 1707 2595.12 1706.21 2596.73 1705.89C2598.35 1705.57 2600.03 1705.73 2601.55 1706.36C2603.07 1706.99 2604.37 1708.06 2605.29 1709.43C2606.2 1710.8 2606.69 1712.41 2606.69 1714.06C2606.69 1716.27 2605.81 1718.39 2604.25 1719.95C2602.69 1721.51 2600.57 1722.39 2598.36 1722.39ZM2598.36 1711.73C2597.9 1711.73 2597.45 1711.87 2597.07 1712.12C2596.68 1712.38 2596.38 1712.74 2596.21 1713.17C2596.03 1713.59 2595.98 1714.06 2596.07 1714.51C2596.16 1714.97 2596.39 1715.38 2596.71 1715.71C2597.04 1716.03 2597.45 1716.26 2597.91 1716.35C2598.36 1716.44 2598.83 1716.39 2599.25 1716.21C2599.68 1716.04 2600.04 1715.74 2600.3 1715.35C2600.55 1714.97 2600.69 1714.52 2600.69 1714.06C2600.69 1713.44 2600.44 1712.85 2600.01 1712.41C2599.57 1711.98 2598.98 1711.73 2598.36 1711.73Z" fill="black"/>
<path d="M437.55 1141.64C435.902 1141.64 434.292 1141.15 432.922 1140.24C431.552 1139.32 430.485 1138.02 429.854 1136.5C429.224 1134.98 429.059 1133.3 429.38 1131.68C429.701 1130.07 430.495 1128.58 431.66 1127.42C432.825 1126.25 434.309 1125.46 435.925 1125.14C437.541 1124.82 439.216 1124.98 440.738 1125.61C442.26 1126.24 443.561 1127.31 444.476 1128.68C445.391 1130.05 445.88 1131.66 445.88 1133.31C445.877 1135.52 444.999 1137.64 443.437 1139.2C441.876 1140.76 439.758 1141.64 437.55 1141.64ZM437.55 1130.98C437.089 1130.98 436.639 1131.12 436.255 1131.37C435.872 1131.63 435.574 1131.99 435.397 1132.42C435.221 1132.84 435.175 1133.31 435.265 1133.76C435.355 1134.22 435.577 1134.63 435.902 1134.96C436.228 1135.28 436.643 1135.51 437.095 1135.6C437.547 1135.69 438.016 1135.64 438.442 1135.46C438.867 1135.29 439.231 1134.99 439.487 1134.6C439.743 1134.22 439.88 1133.77 439.88 1133.31C439.875 1132.7 439.627 1132.11 439.19 1131.68C438.754 1131.24 438.164 1131 437.55 1131V1130.98Z" fill="black"/>
<path d="M869.08 2443.56C867.433 2443.56 865.823 2443.07 864.455 2442.15C863.086 2441.24 862.02 2439.93 861.391 2438.41C860.762 2436.89 860.598 2435.21 860.921 2433.6C861.244 2431.98 862.038 2430.5 863.203 2429.34C864.368 2428.17 865.853 2427.38 867.468 2427.06C869.084 2426.74 870.758 2426.9 872.28 2427.54C873.801 2428.17 875.102 2429.23 876.017 2430.6C876.931 2431.97 877.42 2433.58 877.42 2435.23C877.417 2437.44 876.537 2439.56 874.974 2441.12C873.41 2442.68 871.29 2443.56 869.08 2443.56ZM869.08 2432.9C868.619 2432.9 868.17 2433.04 867.788 2433.3C867.406 2433.56 867.109 2433.92 866.934 2434.35C866.759 2434.77 866.715 2435.24 866.806 2435.69C866.897 2436.14 867.12 2436.56 867.446 2436.88C867.772 2437.21 868.187 2437.43 868.639 2437.52C869.091 2437.61 869.559 2437.56 869.984 2437.38C870.409 2437.21 870.772 2436.91 871.028 2436.52C871.283 2436.14 871.42 2435.69 871.42 2435.23C871.42 2434.92 871.359 2434.62 871.241 2434.34C871.124 2434.05 870.951 2433.8 870.734 2433.58C870.516 2433.36 870.258 2433.19 869.975 2433.07C869.691 2432.96 869.387 2432.9 869.08 2432.9Z" fill="black"/>
<path d="M1622.2 474C1620.55 474.002 1618.94 473.514 1617.56 472.598C1616.19 471.683 1615.12 470.38 1614.49 468.856C1613.85 467.332 1613.69 465.654 1614.01 464.035C1614.33 462.416 1615.13 460.93 1616.29 459.763C1617.46 458.596 1618.95 457.801 1620.57 457.48C1622.18 457.158 1623.86 457.324 1625.39 457.957C1626.91 458.589 1628.21 459.66 1629.13 461.033C1630.04 462.406 1630.53 464.019 1630.53 465.67C1630.53 467.878 1629.65 469.996 1628.09 471.557C1626.53 473.119 1624.41 473.997 1622.2 474ZM1622.2 463.33C1621.74 463.328 1621.28 463.463 1620.9 463.719C1620.51 463.975 1620.21 464.34 1620.03 464.767C1619.85 465.195 1619.8 465.666 1619.89 466.12C1619.98 466.575 1620.21 466.993 1620.53 467.321C1620.86 467.649 1621.28 467.873 1621.73 467.964C1622.18 468.055 1622.66 468.009 1623.08 467.833C1623.51 467.656 1623.88 467.356 1624.13 466.971C1624.39 466.586 1624.53 466.133 1624.53 465.67C1624.52 465.056 1624.27 464.47 1623.84 464.038C1623.4 463.606 1622.81 463.362 1622.2 463.36V463.33Z" fill="black"/>
<path d="M1392.18 1973.5C1390.53 1973.5 1388.92 1973.01 1387.55 1972.1C1386.18 1971.18 1385.11 1969.88 1384.48 1968.36C1383.85 1966.84 1383.69 1965.16 1384.01 1963.54C1384.33 1961.93 1385.12 1960.44 1386.29 1959.28C1387.45 1958.11 1388.94 1957.32 1390.56 1957C1392.17 1956.68 1393.85 1956.84 1395.37 1957.47C1396.89 1958.1 1398.19 1959.17 1399.11 1960.54C1400.02 1961.91 1400.51 1963.52 1400.51 1965.17C1400.51 1967.38 1399.63 1969.5 1398.07 1971.06C1396.51 1972.62 1394.39 1973.5 1392.18 1973.5ZM1392.18 1962.84C1391.72 1962.84 1391.27 1962.98 1390.89 1963.23C1390.5 1963.49 1390.2 1963.85 1390.03 1964.28C1389.85 1964.7 1389.8 1965.17 1389.89 1965.62C1389.98 1966.08 1390.21 1966.49 1390.53 1966.82C1390.86 1967.14 1391.27 1967.37 1391.73 1967.46C1392.18 1967.54 1392.65 1967.5 1393.07 1967.32C1393.5 1967.15 1393.86 1966.85 1394.12 1966.46C1394.37 1966.08 1394.51 1965.63 1394.51 1965.17C1394.51 1964.55 1394.26 1963.96 1393.83 1963.52C1393.39 1963.09 1392.8 1962.84 1392.18 1962.84Z" fill="black"/>
<path d="M884.19 455.36C882.542 455.36 880.932 454.872 879.562 453.956C878.192 453.041 877.124 451.74 876.494 450.218C875.863 448.696 875.699 447.021 876.02 445.405C876.341 443.789 877.135 442.305 878.3 441.14C879.465 439.975 880.949 439.182 882.565 438.86C884.181 438.539 885.855 438.704 887.378 439.334C888.9 439.965 890.201 441.032 891.116 442.402C892.031 443.772 892.52 445.383 892.52 447.03C892.517 449.239 891.639 451.356 890.077 452.917C888.516 454.479 886.398 455.358 884.19 455.36ZM884.19 444.7C883.729 444.7 883.279 444.837 882.895 445.093C882.512 445.349 882.214 445.713 882.037 446.139C881.861 446.564 881.815 447.033 881.905 447.485C881.995 447.937 882.216 448.352 882.542 448.678C882.868 449.004 883.283 449.226 883.735 449.315C884.187 449.405 884.656 449.359 885.082 449.183C885.507 449.007 885.871 448.708 886.127 448.325C886.383 447.942 886.52 447.491 886.52 447.03C886.517 446.413 886.271 445.822 885.835 445.386C885.398 444.949 884.807 444.703 884.19 444.7Z" fill="black"/>
<path d="M874.43 1375.46C873.798 1375.46 873.182 1375.26 872.67 1374.89L843.31 1353.53C842.666 1353.06 842.234 1352.36 842.109 1351.57C841.984 1350.78 842.177 1349.98 842.645 1349.34C843.113 1348.69 843.818 1348.26 844.605 1348.13C845.392 1348.01 846.196 1348.2 846.84 1348.67L876.2 1370C876.714 1370.37 877.097 1370.9 877.294 1371.5C877.49 1372.11 877.49 1372.76 877.293 1373.36C877.096 1373.96 876.713 1374.49 876.199 1374.86C875.684 1375.23 875.065 1375.43 874.43 1375.43V1375.46Z" fill="black"/>
<path d="M1330 190.18C1329.37 190.18 1328.75 189.981 1328.24 189.61L1298.88 168.26C1298.56 168.029 1298.29 167.737 1298.08 167.402C1297.88 167.066 1297.74 166.693 1297.68 166.304C1297.62 165.915 1297.63 165.517 1297.72 165.134C1297.81 164.751 1297.98 164.389 1298.21 164.07C1298.44 163.751 1298.73 163.48 1299.07 163.274C1299.4 163.068 1299.78 162.929 1300.17 162.867C1300.56 162.805 1300.95 162.82 1301.34 162.911C1301.72 163.003 1302.08 163.169 1302.4 163.4L1331.76 184.76C1332.27 185.133 1332.65 185.658 1332.84 186.258C1333.04 186.859 1333.04 187.506 1332.84 188.107C1332.65 188.707 1332.27 189.231 1331.76 189.603C1331.25 189.975 1330.63 190.177 1330 190.18Z" fill="black"/>
<path d="M327.55 2521.47C326.911 2521.47 326.289 2521.27 325.774 2520.89C325.259 2520.51 324.878 2519.98 324.686 2519.37C324.494 2518.76 324.501 2518.11 324.707 2517.5C324.913 2516.9 325.306 2516.38 325.83 2516.01L355.62 2495.26C356.273 2494.83 357.067 2494.67 357.834 2494.82C358.601 2494.97 359.28 2495.41 359.727 2496.05C360.173 2496.69 360.352 2497.48 360.226 2498.25C360.1 2499.02 359.678 2499.72 359.05 2500.18L329.26 2520.93C328.76 2521.28 328.162 2521.47 327.55 2521.47Z" fill="black"/>
<path d="M2638.84 2642.11C2638.2 2642.11 2637.58 2641.91 2637.06 2641.53C2636.55 2641.15 2636.17 2640.62 2635.98 2640.01C2635.78 2639.4 2635.79 2638.75 2636 2638.14C2636.2 2637.54 2636.6 2637.02 2637.12 2636.65L2666.92 2615.9C2667.57 2615.49 2668.36 2615.36 2669.11 2615.51C2669.86 2615.67 2670.53 2616.11 2670.97 2616.74C2671.4 2617.37 2671.58 2618.14 2671.47 2618.9C2671.35 2619.66 2670.95 2620.35 2670.34 2620.82L2640.55 2641.57C2640.05 2641.92 2639.45 2642.11 2638.84 2642.11Z" fill="black"/>
<path d="M2389.52 1609C2388.88 1609 2388.26 1608.8 2387.74 1608.42C2387.23 1608.04 2386.85 1607.51 2386.66 1606.9C2386.46 1606.29 2386.47 1605.64 2386.68 1605.03C2386.88 1604.43 2387.28 1603.91 2387.8 1603.54L2417.58 1582.79C2417.9 1582.55 2418.27 1582.38 2418.66 1582.29C2419.05 1582.19 2419.45 1582.18 2419.85 1582.24C2420.25 1582.31 2420.62 1582.45 2420.96 1582.66C2421.3 1582.88 2421.6 1583.16 2421.83 1583.49C2422.05 1583.81 2422.22 1584.19 2422.3 1584.58C2422.38 1584.97 2422.39 1585.38 2422.31 1585.77C2422.23 1586.16 2422.08 1586.54 2421.86 1586.87C2421.63 1587.21 2421.35 1587.49 2421.01 1587.71L2391.23 1608.46C2390.73 1608.81 2390.13 1609 2389.52 1609Z" fill="black"/>
<path d="M1651.16 1626.35C1650.52 1626.35 1649.9 1626.14 1649.39 1625.77C1648.87 1625.39 1648.49 1624.86 1648.3 1624.25C1648.11 1623.64 1648.12 1622.98 1648.33 1622.38C1648.53 1621.78 1648.93 1621.26 1649.45 1620.89L1679.24 1600.14C1679.89 1599.71 1680.69 1599.55 1681.45 1599.7C1682.22 1599.85 1682.9 1600.29 1683.35 1600.93C1683.79 1601.57 1683.97 1602.36 1683.85 1603.13C1683.72 1603.9 1683.3 1604.6 1682.67 1605.06L1652.88 1625.81C1652.38 1626.16 1651.78 1626.35 1651.16 1626.35Z" fill="black"/>
<path d="M347.72 586.7C347.082 586.698 346.461 586.494 345.948 586.115C345.434 585.737 345.055 585.205 344.864 584.596C344.674 583.988 344.682 583.334 344.888 582.731C345.094 582.127 345.487 581.605 346.01 581.24L375.79 560.49C376.112 560.251 376.479 560.08 376.869 559.985C377.259 559.891 377.664 559.876 378.06 559.941C378.456 560.006 378.834 560.149 379.174 560.363C379.513 560.577 379.806 560.857 380.035 561.186C380.265 561.515 380.426 561.886 380.509 562.279C380.592 562.671 380.596 563.076 380.52 563.47C380.444 563.864 380.29 564.238 380.066 564.572C379.843 564.905 379.555 565.19 379.22 565.41L349.44 586.16C348.936 586.512 348.335 586.7 347.72 586.7Z" fill="black"/>
<path d="M2147 552.49C2146.3 552.489 2145.63 552.245 2145.09 551.8C2144.55 551.354 2144.19 550.736 2144.06 550.05C2143.93 549.364 2144.04 548.654 2144.37 548.043C2144.71 547.431 2145.25 546.956 2145.9 546.7L2179.69 533.43C2180.43 533.162 2181.24 533.191 2181.95 533.512C2182.66 533.833 2183.22 534.42 2183.51 535.148C2183.8 535.876 2183.79 536.687 2183.49 537.408C2183.18 538.13 2182.61 538.704 2181.89 539.01L2148.1 552.29C2147.75 552.425 2147.38 552.493 2147 552.49Z" fill="black"/>
<path d="M2617.57 220.65C2617.07 220.65 2616.58 220.525 2616.14 220.286C2615.7 220.046 2615.32 219.701 2615.05 219.28L2595.3 188.82C2594.95 188.159 2594.86 187.392 2595.05 186.668C2595.23 185.944 2595.68 185.315 2596.31 184.906C2596.94 184.497 2597.69 184.336 2598.43 184.455C2599.17 184.574 2599.83 184.965 2600.3 185.55L2620.09 216C2620.3 216.331 2620.45 216.701 2620.52 217.089C2620.59 217.476 2620.59 217.874 2620.5 218.26C2620.42 218.645 2620.26 219.01 2620.04 219.335C2619.82 219.659 2619.53 219.936 2619.2 220.15C2618.72 220.471 2618.15 220.645 2617.57 220.65Z" fill="black"/>
<path d="M377.51 1871.18C377.009 1871.18 376.516 1871.05 376.076 1870.82C375.635 1870.58 375.262 1870.23 374.99 1869.81L355.24 1839.35C354.976 1839.02 354.784 1838.65 354.675 1838.24C354.567 1837.83 354.545 1837.41 354.61 1837C354.675 1836.58 354.827 1836.19 355.055 1835.83C355.284 1835.48 355.583 1835.18 355.935 1834.95C356.286 1834.72 356.682 1834.57 357.096 1834.5C357.511 1834.44 357.935 1834.46 358.34 1834.56C358.746 1834.67 359.125 1834.86 359.452 1835.13C359.779 1835.39 360.048 1835.72 360.24 1836.09L380 1866.55C380.293 1867 380.459 1867.53 380.479 1868.07C380.5 1868.61 380.374 1869.14 380.116 1869.61C379.858 1870.09 379.477 1870.48 379.013 1870.76C378.549 1871.03 378.02 1871.18 377.48 1871.18H377.51Z" fill="black"/>
<path d="M2699.21 2773.43H181C180.204 2773.43 179.441 2773.11 178.879 2772.55C178.316 2771.99 178 2771.23 178 2770.43C178 2769.63 178.316 2768.87 178.879 2768.31C179.441 2767.75 180.204 2767.43 181 2767.43H2699.21C2700.01 2767.43 2700.77 2767.75 2701.33 2768.31C2701.89 2768.87 2702.21 2769.63 2702.21 2770.43C2702.21 2771.23 2701.89 2771.99 2701.33 2772.55C2700.77 2773.11 2700.01 2773.43 2699.21 2773.43Z" fill="black"/>
<path d="M809.56 2733.75C808.764 2733.77 807.993 2733.47 807.417 2732.92C806.84 2732.38 806.505 2731.62 806.485 2730.82C806.465 2730.03 806.762 2729.26 807.311 2728.68C807.859 2728.1 808.614 2727.77 809.41 2727.75C1038.04 2715.75 1260.63 2626.98 1346.41 2581.75C1346.76 2581.55 1347.15 2581.41 1347.55 2581.36C1347.95 2581.31 1348.36 2581.34 1348.75 2581.45C1349.14 2581.56 1349.5 2581.75 1349.82 2582.01C1350.13 2582.26 1350.39 2582.58 1350.58 2582.94C1350.77 2583.29 1350.88 2583.69 1350.92 2584.09C1350.95 2584.5 1350.9 2584.9 1350.77 2585.29C1350.65 2585.67 1350.44 2586.02 1350.17 2586.33C1349.9 2586.63 1349.58 2586.88 1349.21 2587.05C1263.05 2632.52 1039.42 2721.69 809.74 2733.77L809.56 2733.75ZM1097.74 2544.69C1097.19 2544.69 1096.65 2544.54 1096.18 2544.26C1095.71 2543.97 1095.33 2543.56 1095.08 2543.08C1094.82 2542.59 1094.71 2542.04 1094.74 2541.49C1094.78 2540.95 1094.97 2540.42 1095.28 2539.97C1127.43 2493.83 1147.91 2450.97 1156.17 2412.5C1163.34 2379.09 1161.35 2348.76 1150.27 2322.34C1134.53 2284.81 1089.99 2240.01 1012.17 2226.74C919.27 2226.83 831.58 2274.31 746.78 2320.23C678.25 2357.34 613.52 2392.39 550.16 2400.41C507.1 2405.84 467.27 2389.18 440.86 2354.68C423.61 2332.14 413.28 2303.19 410.99 2270.95C408.47 2235.42 415.46 2197.31 431.75 2157.66C492.41 2010.12 551.04 1918.34 825.58 1714.86C1043.03 1553.69 1117.39 1367.53 1126.32 1291.61C1126.37 1291.22 1126.49 1290.83 1126.68 1290.49C1126.88 1290.14 1127.14 1289.84 1127.45 1289.59C1127.76 1289.34 1128.11 1289.16 1128.5 1289.05C1128.88 1288.95 1129.28 1288.91 1129.67 1288.96C1130.06 1289.01 1130.45 1289.13 1130.79 1289.32C1131.14 1289.52 1131.44 1289.77 1131.69 1290.09C1131.93 1290.4 1132.12 1290.75 1132.23 1291.14C1132.33 1291.52 1132.37 1291.92 1132.32 1292.31C1123.32 1369.12 1048.32 1557.31 829.19 1719.68C695.43 1818.79 610 1893.49 552.28 1961.89C497.6 2026.63 468.72 2083.53 437.28 2159.89C421.34 2198.67 414.5 2235.89 416.96 2270.47C419.16 2301.54 429.07 2329.38 445.6 2350.98C470.68 2383.75 508.51 2399.57 549.39 2394.4C611.63 2386.53 675.88 2351.74 743.9 2314.91C828.03 2269.35 914.98 2222.27 1007.74 2220.73C992.16 2186.44 984.12 2157.11 1010.15 2106.85C1038.33 2052.4 1106.98 1974.12 1232.72 1853.04C1440.05 1653.39 1503.29 1414.53 1507.72 1316.12C1507.76 1315.32 1508.11 1314.58 1508.7 1314.04C1509.29 1313.5 1510.06 1313.22 1510.86 1313.26C1511.66 1313.3 1512.4 1313.65 1512.94 1314.24C1513.48 1314.83 1513.76 1315.6 1513.72 1316.4C1509.2 1415.63 1445.53 1656.4 1236.84 1857.4C1111.59 1978.01 1043.31 2055.8 1015.43 2109.65C990.09 2158.65 998.13 2185.65 1014.04 2220.22L1387.61 2128.05L1388.53 2128.44C1393.53 2130.59 1411.02 2139.44 1425.53 2163.26C1439.24 2185.76 1445.34 2214.35 1443.17 2245.94C1443.11 2246.74 1442.74 2247.48 1442.14 2248C1441.54 2248.52 1440.76 2248.79 1439.96 2248.73C1439.16 2248.67 1438.42 2248.3 1437.9 2247.7C1437.38 2247.1 1437.11 2246.32 1437.17 2245.52C1441.83 2177.61 1406.93 2143.44 1387.03 2134.36L1026.03 2223.43C1049.79 2228.86 1072.54 2238.04 1093.42 2250.62C1123.03 2268.78 1143.97 2292.13 1155.67 2320.01C1167.23 2347.58 1169.33 2379.12 1161.89 2413.75C1153.47 2452.97 1132.67 2496.59 1100.06 2543.39C1099.8 2543.77 1099.45 2544.09 1099.05 2544.31C1098.65 2544.54 1098.2 2544.67 1097.74 2544.69Z" fill="#FEDA00"/>
<path d="M1060 2485.94C1065.37 2532.2 1097.69 2531.37 1113.18 2525.18C1081.1 2587.25 977.18 2715.96 818 2734.18C658.82 2752.4 534.14 2690.41 491.67 2657.12L1060 2485.94Z" fill="black"/>
<path d="M1493.81 1153.48C1484.72 1060.37 1468.67 975.72 1446.12 901.89C1426.68 838.27 1402.36 782.4 1373.84 735.89C1349.92 696.89 1323.61 665.09 1295.61 641.48C1273.61 622.88 1250.79 609.97 1231.34 605.03L899.5 775.83C917.67 774.83 937.63 779.7 956.78 790.12C1002.09 814.8 1064.59 881.2 1105.04 1057.33L1099.2 1058.67C1081.9 983.36 1058.94 921.77 1030.96 875.62C1007.96 837.72 982.06 810.73 953.91 795.39C917.72 775.68 890.35 782.05 880.26 785.7L877.87 780.22L1230.59 598.62L1231.67 598.88C1252.24 603.88 1276.32 617.31 1299.48 636.88C1327.97 660.88 1354.7 693.15 1378.95 732.74C1407.74 779.74 1432.27 836.06 1451.86 900.17C1474.53 974.38 1490.65 1059.42 1499.79 1152.93L1493.81 1153.48Z" fill="#FEDA00"/>
<path d="M853.41 1218.64C771 909 841.89 791.51 885.87 774.25C899.52 768.98 942.66 771.74 993.2 813.41C1043.74 855.08 1077.26 953.41 1089.35 995.79L853.41 1218.64Z" fill="black"/>
<path d="M2406.89 304.49L2428.71 422.43L2521.71 383.81L2435.45 451.52L2512.55 489.43L2423.21 472.78L2441.92 583.58L2395.83 475.82L2314.58 563.77L2368.08 463.53L2287.71 436.53L2364.54 431.72L2341.49 382.22L2386.24 417.66L2406.89 304.49Z" fill="black"/>
<path d="M504.63 1714.57L460.37 1611.07L382.26 1695.62L377.41 1692.17L429.23 1595.06L352.23 1569.2L352.99 1563.37L425.44 1558.83L404.24 1513.32L408.82 1509.7L449.66 1542L469.42 1433.72H475.32L496.47 1548.02L586.03 1510.82L589.03 1515.95L506.52 1580.71L579.33 1616.52L577.46 1622.16L492.34 1606.3L510.34 1712.86L504.63 1714.57ZM462.24 1600.19L500.24 1689.03L485 1598.85L557.07 1612.29L495.31 1581.92L568.08 1524.8L491.92 1556.43L472.39 1450.9L453.77 1552.9L415 1522.26L434.56 1564.26L368.64 1568.39L437.83 1591.61L393.66 1674.39L462.24 1600.19Z" fill="black"/>
<path d="M2497.11 1890.19L2505.19 1933.85L2539.61 1919.55L2507.68 1944.61L2536.22 1958.61L2503.15 1952.44L2510.07 1993.44L2493 1953.61L2462.92 1986.16L2482.72 1949.06L2452.97 1939.06L2481.41 1937.28L2472.9 1919L2489.47 1932.12L2497.11 1890.19Z" fill="black"/>
<path d="M2088 2599.84L2087.37 2596.96C2066.51 2502.04 2023.59 2289.75 2010.47 2165.7C1998.96 2056.92 1995.47 1966.54 1995.01 1921.97L1735.24 2587.27H1262.7L1921.27 1296.63C1921.65 1295.96 1922.28 1295.47 1923.02 1295.25C1923.75 1295.03 1924.55 1295.1 1925.24 1295.45C1925.92 1295.8 1926.45 1296.4 1926.7 1297.12C1926.96 1297.85 1926.93 1298.65 1926.61 1299.35L1272.5 2581.27H1731.14L1995.14 1905.04C1995.14 1905.04 1995.14 1904.95 1995.14 1904.91L2164.34 1477.29C2164.48 1476.91 2164.69 1476.57 2164.96 1476.28C2165.23 1475.98 2165.56 1475.75 2165.93 1475.58C2166.29 1475.42 2166.69 1475.33 2167.09 1475.32C2167.49 1475.31 2167.89 1475.38 2168.26 1475.53C2168.63 1475.67 2168.97 1475.89 2169.26 1476.17C2169.54 1476.45 2169.77 1476.79 2169.93 1477.16C2170.08 1477.53 2170.16 1477.92 2170.16 1478.32C2170.16 1478.73 2170.08 1479.12 2169.92 1479.49L2000.92 1906.66C2000.57 1942.61 2003.35 2042 2016.36 2165.06C2029.36 2287.61 2071.47 2496.63 2092.53 2592.8L2512.71 2508.16L2314.71 1927.81V1285.45L2219.19 1121.52C2218.85 1120.84 2218.79 1120.05 2219.01 1119.33C2219.23 1118.6 2219.72 1117.98 2220.38 1117.6C2221.04 1117.22 2221.82 1117.1 2222.56 1117.27C2223.3 1117.44 2223.95 1117.89 2224.37 1118.52L2320.71 1283.85V1926.85L2520.55 2512.74L2517.2 2513.41L2088 2599.84Z" fill="black"/>
<path d="M2426.97 2527.17L2050.94 1984.76L2051.03 1983.69L2073.96 1703.06L2079.94 1703.54L2057.1 1983.1L2431.91 2523.75L2426.97 2527.17Z" fill="black"/>
<path d="M1401.51 2586.53C1400.99 2586.53 1400.48 2586.4 1400.03 2586.14C1399.69 2585.95 1399.39 2585.69 1399.14 2585.38C1398.9 2585.06 1398.72 2584.71 1398.62 2584.33C1398.51 2583.95 1398.48 2583.55 1398.53 2583.16C1398.58 2582.77 1398.71 2582.39 1398.9 2582.05L1998.57 1524.58C1968.74 1498.49 1946.32 1464.99 1933.57 1427.46C1924.14 1399.9 1920.03 1369.63 1922.57 1346.46C1922.66 1345.66 1923.06 1344.94 1923.68 1344.44C1924.31 1343.93 1925.1 1343.7 1925.9 1343.79C1926.7 1343.88 1927.42 1344.28 1927.92 1344.9C1928.43 1345.53 1928.66 1346.32 1928.57 1347.12C1927.65 1355.48 1925.72 1385.83 1939.29 1425.49C1951.96 1462.79 1974.45 1495.99 2004.38 1521.6L2004.47 1521.68C2013.56 1529.51 2023.21 1536.66 2033.35 1543.08C2033.69 1543.29 2033.99 1543.56 2034.23 1543.88C2034.47 1544.21 2034.64 1544.57 2034.73 1544.96C2034.82 1545.35 2034.84 1545.76 2034.77 1546.15C2034.7 1546.55 2034.56 1546.93 2034.34 1547.27C2034.13 1547.6 2033.85 1547.9 2033.52 1548.12C2033.19 1548.35 2032.81 1548.51 2032.42 1548.59C2032.03 1548.67 2031.62 1548.68 2031.23 1548.6C2030.84 1548.52 2030.46 1548.36 2030.13 1548.14C2020.76 1542.21 2011.79 1535.66 2003.28 1528.55L1404.12 2585C1403.86 2585.46 1403.48 2585.85 1403.02 2586.12C1402.56 2586.39 1402.04 2586.53 1401.51 2586.53Z" fill="black"/>
<path d="M1587.12 1318.85H1166.38L994.3 1213.07C984.99 1206.86 980.3 1199.01 981.36 1191.54C981.926 1187.83 983.908 1184.49 986.89 1182.22C981.4 1179.3 976.89 1173.99 975.53 1168.22C974.53 1164.1 974.47 1156.69 982.76 1149.85C980.588 1148.44 978.734 1146.59 977.315 1144.42C975.896 1142.25 974.944 1139.82 974.52 1137.26C974.01 1133.5 974.52 1126.32 983.52 1120.55C987.335 1118.4 991.675 1117.36 996.05 1117.55C1000.51 1117.92 1004.94 1118.51 1009.34 1119.33L991.21 1106.94C985.39 1102.94 983.45 1094.57 986.79 1087.82C989.56 1082.26 996.49 1077.64 1007.68 1081.37L1008 1081.5L1118.56 1133.33L1089.42 1083.65C1085.54 1075.65 1087.79 1064.4 1094.34 1059.15C1098.14 1056.09 1106.47 1052.52 1119.6 1062.84C1126.7 1067.76 1150.92 1092.17 1178.95 1120.41C1195.12 1136.7 1211.82 1153.54 1226.35 1167.74L1568.26 1148.74L1586.44 1115.63L1591.7 1118.51L1571.92 1154.51L1570.26 1154.61L1224.05 1173.88L1223.11 1172.96C1208.33 1158.53 1191.23 1141.3 1174.69 1124.63C1147.92 1097.63 1122.69 1072.19 1116.13 1067.74L1115.96 1067.61C1108.62 1061.82 1102.27 1060.47 1098.09 1063.83C1093.75 1067.31 1092.18 1075.44 1094.77 1080.94L1133.52 1146.94L1005.62 1086.94C999.2 1084.85 994.31 1086.11 992.17 1090.42C990.17 1094.42 991.3 1099.67 994.59 1101.91L1024.39 1122.27L1022.12 1127.69C1014.12 1126.1 1000.41 1123.69 995.81 1123.48C992.653 1123.33 989.514 1124.04 986.73 1125.54C982.05 1128.54 979.87 1132.27 980.43 1136.37C981.03 1140.78 984.84 1145.01 989.49 1146.43L995.96 1148.43L990.16 1151.9C983.1 1156.13 980.05 1161.28 981.34 1166.81C982.7 1172.67 988.92 1178.03 994.92 1178.52L995.56 1184.38C990.74 1185.87 987.79 1188.7 987.26 1192.38C986.53 1197.38 990.38 1203.22 997.55 1208.01L1168.04 1312.82H1586.84C1611.09 1310.82 1639.52 1306.73 1666.64 1291.08C1694.7 1274.89 1718.51 1248.08 1739.44 1209.08L1744.72 1211.92C1723.25 1251.92 1698.72 1279.48 1669.64 1296.24C1641.44 1312.51 1612.14 1316.76 1587.2 1318.77L1587.12 1318.85Z" fill="black"/>
<path d="M2614.4 1474.7L2496.4 1419.19L2465.4 1374.04C2466.56 1392.51 2468.29 1425.26 2466.51 1432.31C2466.25 1450.62 2457.18 1460.53 2448.25 1462.24C2439.91 1463.84 2432.25 1458.78 2428.34 1449.04L2428.22 1448.69L2384.08 1281.48L2155.92 972L2160.75 968.44L2389.58 1278.84L2389.72 1279.39L2434 1447C2436.85 1453.9 2441.75 1457.4 2447.16 1456.37C2456.25 1454.64 2460.47 1442.46 2460.54 1431.87V1431.29L2460.76 1430.76C2462.17 1426.89 2460.83 1393.56 2458.76 1363.57L2457.98 1352.57L2500.49 1414.47L2614.92 1468.3L2694.3 1443.43C2701.78 1441.16 2706.24 1437.1 2705.95 1432.83C2705.66 1428.56 2700.56 1423.63 2689.78 1421.83L2689.27 1416.04C2696.98 1413.33 2703.61 1406.41 2702.92 1401.8C2702.25 1397.39 2694.26 1394.47 2681.52 1393.97L2673.96 1393.67L2679.67 1388.67C2688.17 1381.29 2692.07 1376.1 2691.26 1373.24C2690.72 1371.32 2687.26 1369.68 2681.77 1368.75H2681.62C2678.04 1368.75 2660.75 1373.75 2645.62 1378.75L2644.62 1379.06L2643.67 1378.74C2635.13 1375.84 2611.34 1368.37 2603.37 1368.37H2603.25L2602.56 1362.44L2689.56 1342.79C2691.04 1342.47 2692.35 1341.61 2693.24 1340.39C2694.13 1339.17 2694.54 1337.66 2694.4 1336.15C2694.18 1332.74 2691.4 1328.88 2684.15 1328.29H2683.7L2683.41 1328.18C2678.93 1327.3 2635.29 1328.9 2596.23 1330.87L2594.61 1330.95L2593.66 1329.64L2271.24 887.76L2276.08 884.22L2597.56 1324.8C2622.7 1323.55 2676.22 1321.08 2684.66 1322.36C2695.66 1323.27 2700.03 1330.17 2700.4 1335.8C2700.63 1338.74 2699.8 1341.66 2698.05 1344.03C2696.3 1346.4 2693.75 1348.06 2690.87 1348.7L2618.52 1365C2629.22 1367.67 2641.17 1371.59 2644.64 1372.75C2651.78 1370.41 2676.89 1362.33 2682.31 1362.81H2682.54C2690.96 1364.21 2695.68 1367.09 2696.96 1371.61C2698.5 1377.08 2694.41 1382.85 2688.67 1388.49C2698.27 1389.69 2707.58 1392.94 2708.77 1400.87C2709.69 1406.98 2704.88 1413.55 2698.48 1417.87C2706.42 1420.87 2711.48 1426.13 2711.86 1432.29C2712.04 1435.03 2711.44 1444.29 2695.99 1449.02L2614.4 1474.7Z" fill="black"/>
<path d="M2462.17 1366.15C2461.48 1366.15 2460.81 1365.91 2460.27 1365.48C2459.73 1365.04 2459.37 1364.43 2459.23 1363.75C2459.09 1363.07 2459.19 1362.37 2459.51 1361.76C2459.83 1361.14 2460.35 1360.66 2460.99 1360.39C2480.55 1351.99 2515.04 1324.39 2505.55 1279.9C2505.45 1279.51 2505.42 1279.1 2505.48 1278.7C2505.54 1278.3 2505.68 1277.91 2505.9 1277.57C2506.11 1277.22 2506.39 1276.92 2506.72 1276.69C2507.05 1276.46 2507.43 1276.29 2507.82 1276.21C2508.22 1276.12 2508.63 1276.12 2509.02 1276.19C2509.42 1276.27 2509.8 1276.43 2510.14 1276.66C2510.47 1276.88 2510.76 1277.18 2510.98 1277.52C2511.2 1277.86 2511.34 1278.24 2511.41 1278.64C2521.72 1326.91 2484.48 1356.83 2463.35 1365.91C2462.98 1366.07 2462.58 1366.15 2462.17 1366.15Z" fill="black"/>
<path d="M2618.9 1439.08L2586.71 1420.42C2586.37 1420.22 2586.07 1419.96 2585.83 1419.65C2585.59 1419.34 2585.41 1418.98 2585.31 1418.6C2585.21 1418.22 2585.18 1417.82 2585.23 1417.43C2585.28 1417.04 2585.41 1416.66 2585.61 1416.32C2585.81 1415.98 2586.07 1415.68 2586.38 1415.44C2586.69 1415.2 2587.05 1415.02 2587.43 1414.92C2587.81 1414.82 2588.21 1414.79 2588.6 1414.84C2588.99 1414.89 2589.37 1415.02 2589.71 1415.22L2619.84 1432.68L2691.08 1415.68C2691.46 1415.59 2691.86 1415.57 2692.25 1415.63C2692.64 1415.7 2693.01 1415.83 2693.35 1416.04C2693.69 1416.25 2693.98 1416.52 2694.21 1416.84C2694.44 1417.15 2694.61 1417.52 2694.7 1417.9C2694.79 1418.28 2694.81 1418.68 2694.75 1419.07C2694.68 1419.46 2694.55 1419.83 2694.34 1420.17C2694.13 1420.51 2693.86 1420.8 2693.54 1421.03C2693.22 1421.26 2692.86 1421.43 2692.48 1421.52L2618.9 1439.08ZM2630.44 1404.74L2600.04 1387.82C2599.69 1387.63 2599.38 1387.38 2599.12 1387.07C2598.87 1386.76 2598.68 1386.4 2598.57 1386.02C2598.45 1385.64 2598.42 1385.24 2598.46 1384.84C2598.51 1384.44 2598.63 1384.06 2598.82 1383.71C2599.02 1383.36 2599.28 1383.05 2599.59 1382.81C2599.91 1382.56 2600.27 1382.38 2600.65 1382.27C2601.04 1382.17 2601.44 1382.14 2601.84 1382.19C2602.23 1382.25 2602.62 1382.38 2602.96 1382.58L2631.4 1398.4L2681.52 1387.82C2681.91 1387.73 2682.31 1387.72 2682.7 1387.79C2683.09 1387.86 2683.46 1388.01 2683.8 1388.22C2684.13 1388.44 2684.42 1388.72 2684.65 1389.04C2684.87 1389.37 2685.03 1389.74 2685.11 1390.13C2685.19 1390.52 2685.2 1390.92 2685.12 1391.31C2685.05 1391.7 2684.9 1392.07 2684.68 1392.4C2684.46 1392.73 2684.18 1393.02 2683.85 1393.24C2683.52 1393.46 2683.15 1393.61 2682.76 1393.69L2630.44 1404.74Z" fill="black"/>
<path d="M1084.13 1212.44C1083.83 1212.44 1083.53 1212.4 1083.24 1212.31L993.12 1184.31C992.359 1184.08 991.722 1183.55 991.35 1182.84C990.977 1182.14 990.9 1181.32 991.135 1180.56C991.37 1179.79 991.897 1179.16 992.601 1178.78C993.305 1178.41 994.129 1178.34 994.89 1178.57L1085.02 1206.57C1085.71 1206.78 1086.3 1207.23 1086.68 1207.84C1087.07 1208.45 1087.22 1209.18 1087.11 1209.89C1087 1210.6 1086.64 1211.25 1086.1 1211.72C1085.55 1212.19 1084.85 1212.44 1084.13 1212.44ZM1085.49 1182.1C1085.19 1182.1 1084.9 1182.06 1084.61 1181.97L986.71 1151.97C986.333 1151.85 985.982 1151.67 985.679 1151.41C985.375 1151.16 985.123 1150.86 984.938 1150.51C984.753 1150.16 984.639 1149.78 984.601 1149.39C984.564 1148.99 984.604 1148.6 984.72 1148.22C984.835 1147.84 985.024 1147.49 985.275 1147.19C985.526 1146.88 985.834 1146.63 986.183 1146.45C986.531 1146.26 986.912 1146.15 987.304 1146.11C987.697 1146.07 988.093 1146.11 988.47 1146.23L1086.37 1176.23C1087.06 1176.44 1087.65 1176.89 1088.03 1177.5C1088.42 1178.11 1088.57 1178.83 1088.46 1179.54C1088.36 1180.26 1088 1180.91 1087.45 1181.38C1086.91 1181.84 1086.21 1182.1 1085.49 1182.1ZM1081.16 1157.91C1080.68 1157.91 1080.21 1157.79 1079.78 1157.57L1017.63 1125.46C1016.92 1125.09 1016.39 1124.46 1016.15 1123.7C1015.91 1122.95 1015.98 1122.12 1016.34 1121.42C1016.71 1120.71 1017.34 1120.18 1018.1 1119.93C1018.86 1119.69 1019.68 1119.76 1020.39 1120.13L1082.54 1152.24C1083.14 1152.55 1083.62 1153.05 1083.9 1153.66C1084.18 1154.27 1084.25 1154.96 1084.09 1155.62C1083.93 1156.27 1083.55 1156.86 1083.02 1157.27C1082.49 1157.69 1081.83 1157.91 1081.16 1157.91Z" fill="black"/>
<path d="M1757.05 761.49C1753.84 761.493 1750.65 761.185 1747.5 760.57C1729.5 757.06 1714.33 743.57 1705.87 723.57L1705.54 722.81L1704.73 722.98C1700.19 723.98 1694.73 724.82 1690.96 725.37L1684.08 726.37L1688.08 720.68C1695.02 710.8 1698.52 699.16 1698.79 685.11C1698.93 678.865 1699.59 672.642 1700.79 666.51C1705.06 644.6 1715.62 625.3 1730.52 612.15C1745.42 599 1762.72 593.65 1779.4 596.9C1796.08 600.15 1810.14 611.7 1818.96 629.4C1827.78 647.1 1830.38 669.05 1826.1 690.94C1821.82 712.83 1811.28 732.15 1796.36 745.3C1784.36 755.92 1770.68 761.49 1757.05 761.49ZM1711.39 721.26C1719.06 739.38 1732.64 751.56 1748.64 754.68C1763.46 757.57 1779 752.68 1792.39 740.82C1806.32 728.54 1816.2 710.43 1820.22 689.82C1824.24 669.21 1821.89 648.71 1813.6 632.09C1805.6 616.09 1793.07 605.7 1778.26 602.81C1763.45 599.92 1747.9 604.81 1734.49 616.67C1720.58 628.95 1710.7 647.06 1706.67 667.67C1705.54 673.463 1704.92 679.341 1704.79 685.24C1704.55 697.74 1701.79 708.88 1696.53 718.45C1698.86 718.05 1701.28 717.61 1703.47 717.14L1709.13 715.92L1711.39 721.26Z" fill="black"/>
<path d="M1768.07 688.57C1733.3 670.19 1724.93 632.34 1725.07 618.22C1763.2 562.99 1837.97 572.41 1857.35 625.57C1864.89 658.8 1872.41 675.22 1886.15 681.04C1917.15 689.18 1980.25 701.97 1982.37 719.22C1922.04 724.62 1889.75 732.79 1835.17 757.74L1811.84 715C1801.69 715.31 1793.12 709.77 1789.64 706.4C1798.2 699.45 1806.74 683.46 1794.71 674.73C1782.68 666 1766.52 687.73 1768.07 688.57Z" fill="black"/>
<path d="M1713.53 678.71C1712.95 678.71 1712.39 678.544 1711.9 678.23C1711.57 678.016 1711.28 677.739 1711.06 677.415C1710.84 677.09 1710.68 676.725 1710.6 676.339C1710.51 675.954 1710.51 675.556 1710.58 675.168C1710.65 674.781 1710.8 674.411 1711.01 674.08C1715.44 667.24 1728.27 656.72 1745.08 665.79C1745.44 665.967 1745.77 666.216 1746.03 666.521C1746.3 666.826 1746.5 667.182 1746.62 667.566C1746.74 667.951 1746.79 668.356 1746.75 668.758C1746.72 669.161 1746.6 669.551 1746.41 669.907C1746.21 670.263 1745.95 670.576 1745.64 670.829C1745.32 671.081 1744.96 671.267 1744.57 671.376C1744.18 671.484 1743.77 671.513 1743.37 671.461C1742.97 671.408 1742.59 671.275 1742.24 671.07C1736.57 668.01 1723.8 665.39 1716.05 677.34C1715.78 677.761 1715.4 678.106 1714.96 678.346C1714.52 678.585 1714.03 678.71 1713.53 678.71Z" fill="black"/>
<path d="M1732.63 737.18C1731.83 737.241 1731.05 736.983 1730.44 736.464C1729.84 735.944 1729.46 735.206 1729.4 734.41C1729.34 733.614 1729.6 732.827 1730.12 732.221C1730.64 731.616 1731.37 731.241 1732.17 731.18C1735.51 730.67 1742.4 727.71 1744.59 720.18C1744.81 719.416 1745.33 718.772 1746.03 718.39C1746.73 718.007 1747.55 717.917 1748.31 718.14C1749.07 718.363 1749.72 718.88 1750.1 719.578C1750.48 720.275 1750.57 721.096 1750.35 721.86C1747.35 732.26 1737.73 736.35 1733.09 737.07L1732.63 737.18Z" fill="black"/>
<path d="M1718.81 695.2C1718.42 695.2 1718.03 695.125 1717.67 694.98C1716.93 694.679 1716.35 694.098 1716.04 693.365C1715.73 692.631 1715.73 691.806 1716.03 691.07C1718.03 686.25 1722.51 680.35 1729.23 678.24C1735.02 676.43 1741.23 677.65 1747.77 681.88C1748.14 682.072 1748.47 682.341 1748.73 682.668C1749 682.995 1749.19 683.374 1749.3 683.78C1749.4 684.186 1749.42 684.609 1749.36 685.024C1749.29 685.438 1749.14 685.834 1748.91 686.185C1748.68 686.537 1748.38 686.836 1748.03 687.065C1747.67 687.293 1747.28 687.445 1746.86 687.51C1746.45 687.576 1746.03 687.553 1745.62 687.445C1745.21 687.336 1744.84 687.144 1744.51 686.88C1739.51 683.68 1735.03 682.69 1731.03 683.94C1726.28 685.43 1722.97 689.94 1721.59 693.31C1721.37 693.867 1720.99 694.344 1720.49 694.681C1719.99 695.018 1719.41 695.199 1718.81 695.2Z" fill="black"/>
<path d="M1732.27 693.42C1735.48 693.42 1738.08 690.819 1738.08 687.61C1738.08 684.401 1735.48 681.8 1732.27 681.8C1729.06 681.8 1726.46 684.401 1726.46 687.61C1726.46 690.819 1729.06 693.42 1732.27 693.42Z" fill="black"/>
<path d="M1774.71 700.27C1774.43 700.272 1774.16 700.235 1773.89 700.16C1773.51 700.053 1773.16 699.872 1772.85 699.627C1772.54 699.383 1772.28 699.079 1772.09 698.735C1771.89 698.39 1771.77 698.011 1771.73 697.619C1771.68 697.227 1771.71 696.83 1771.82 696.45C1773.1 691.94 1778.35 682.94 1789.06 681.22C1789.85 681.095 1790.65 681.288 1791.29 681.756C1791.94 682.224 1792.37 682.929 1792.5 683.715C1792.62 684.502 1792.43 685.305 1791.96 685.949C1791.49 686.594 1790.79 687.026 1790 687.15C1782.29 688.38 1778.52 694.84 1777.6 698.09C1777.42 698.719 1777.04 699.272 1776.52 699.665C1776 700.059 1775.36 700.271 1774.71 700.27Z" fill="black"/>
<path d="M1786.75 702.2C1786.29 702.2 1785.83 702.095 1785.42 701.891C1785.01 701.688 1784.65 701.392 1784.37 701.026C1784.09 700.66 1783.89 700.235 1783.8 699.783C1783.71 699.331 1783.73 698.865 1783.85 698.42C1784.53 695.91 1784.46 693.93 1783.65 692.83C1783.38 692.492 1783.05 692.215 1782.66 692.018C1782.28 691.821 1781.86 691.709 1781.43 691.69C1781.04 691.674 1780.65 691.581 1780.29 691.416C1779.93 691.25 1779.61 691.016 1779.34 690.726C1779.08 690.437 1778.87 690.097 1778.73 689.727C1778.6 689.357 1778.53 688.964 1778.55 688.57C1778.57 688.176 1778.66 687.789 1778.82 687.431C1778.99 687.073 1779.22 686.751 1779.51 686.484C1779.8 686.216 1780.14 686.009 1780.51 685.872C1780.88 685.736 1781.28 685.674 1781.67 685.69C1783 685.745 1784.3 686.094 1785.48 686.713C1786.66 687.333 1787.69 688.206 1788.49 689.27C1789.84 691.11 1791.14 694.47 1789.65 699.98C1789.48 700.617 1789.1 701.181 1788.58 701.582C1788.05 701.983 1787.41 702.201 1786.75 702.2Z" fill="black"/>
<path d="M1766.69 782.07L1755.17 758.15C1777.6 755.29 1801.17 740.52 1808.3 733.75C1796.79 759.59 1774.35 777.73 1766.69 782.07Z" fill="black"/>
<path d="M1713.14 733.52L1712.47 732.52C1712.99 732.1 1713.24 732.52 1713.14 733.52C1720.14 743.78 1736.14 762.92 1764.14 758.4L1779.99 791.4C1779.99 791.4 1735.69 824.35 1702.59 873.16C1660.59 935.09 1621.51 1038.62 1621.51 1038.62C1618.1 1033.24 1613.33 1013.2 1621.51 976.07C1631.74 929.65 1573.13 926.9 1562.51 887.56C1551.71 847.56 1569.98 813.4 1609.32 789.62C1640.78 770.62 1658.54 787.25 1684.45 769.16C1705.52 754.41 1712.69 738 1713.14 733.52Z" fill="black"/>
<path d="M1659.42 948L1578.61 1127.42L1743.76 1219.78L1797.76 1101.59L1912.82 1311.35L2228.25 1122L2154.68 991.29L2301.83 880.93C2245.21 838.66 2115.7 749.59 2050.58 731.43C1969.18 708.73 1946.58 709.15 1886.66 731.43C1838.24 749.43 1805.83 767.28 1751.59 815.18C1705.52 855.82 1670.64 919.31 1659.42 948Z" fill="#FEDA00"/>
<path d="M1790.46 1086.91C1789.91 1086.91 1789.36 1086.76 1788.89 1086.47C1788.42 1086.18 1788.03 1085.76 1787.78 1085.27L1762 1034.44C1761.64 1033.73 1761.58 1032.9 1761.82 1032.15C1762.07 1031.39 1762.61 1030.76 1763.32 1030.4C1764.03 1030.04 1764.86 1029.98 1765.61 1030.22C1766.37 1030.47 1767 1031.01 1767.36 1031.72L1793.14 1082.55C1793.37 1083.01 1793.48 1083.52 1793.46 1084.03C1793.44 1084.54 1793.29 1085.04 1793.02 1085.48C1792.75 1085.92 1792.38 1086.28 1791.93 1086.53C1791.48 1086.78 1790.97 1086.91 1790.46 1086.91ZM2147 978.63C2146.46 978.631 2145.94 978.487 2145.47 978.214C2145.01 977.942 2144.63 977.55 2144.37 977.08L2102.37 901.22C2102.18 900.875 2102.06 900.496 2102.01 900.105C2101.97 899.713 2102 899.316 2102.11 898.938C2102.22 898.559 2102.4 898.205 2102.65 897.897C2102.89 897.588 2103.2 897.331 2103.54 897.14C2103.88 896.949 2104.26 896.828 2104.66 896.783C2105.05 896.738 2105.44 896.771 2105.82 896.88C2106.2 896.989 2106.55 897.171 2106.86 897.416C2107.17 897.661 2107.43 897.965 2107.62 898.31L2149.62 974.18C2149.81 974.525 2149.93 974.904 2149.98 975.295C2150.02 975.687 2149.99 976.083 2149.88 976.462C2149.77 976.841 2149.59 977.195 2149.34 977.504C2149.1 977.812 2148.79 978.069 2148.45 978.26C2148.01 978.504 2147.51 978.631 2147 978.63Z" fill="black"/>
<path d="M1631.31 2770.43H1716.59L1677.14 2583.59H1532V2592.22L1187 2770.43H1585.42L1623.61 2718.24L1631.31 2770.43Z" fill="black"/>
<path d="M2410.91 2770.43H2496.19L2450.1 2522.28L2296.66 2554L2311.66 2592.19L1966.66 2770.4H2365.08L2403.27 2718.21L2410.91 2770.43Z" fill="black"/>
<path d="M1050.09 821.38C1049.43 821.378 1048.8 821.16 1048.27 820.761C1047.75 820.361 1047.38 819.802 1047.21 819.169C1047.03 818.535 1047.07 817.863 1047.32 817.254C1047.57 816.646 1048.01 816.135 1048.57 815.8L1155.78 752.9C1156.12 752.661 1156.51 752.495 1156.91 752.413C1157.32 752.331 1157.74 752.335 1158.15 752.424C1158.55 752.514 1158.94 752.686 1159.27 752.931C1159.61 753.177 1159.89 753.489 1160.1 753.849C1160.31 754.209 1160.44 754.608 1160.49 755.021C1160.53 755.434 1160.49 755.853 1160.37 756.25C1160.24 756.647 1160.04 757.014 1159.77 757.327C1159.49 757.64 1159.16 757.893 1158.78 758.07L1051.6 821C1051.14 821.258 1050.62 821.389 1050.09 821.38Z" fill="black"/>
<path d="M1103.69 899.76C1103.03 899.758 1102.39 899.537 1101.86 899.132C1101.34 898.727 1100.96 898.16 1100.8 897.52C1100.63 896.88 1100.68 896.203 1100.94 895.593C1101.19 894.983 1101.64 894.476 1102.22 894.15L1323.43 769.65C1324.12 769.269 1324.94 769.178 1325.7 769.395C1326.46 769.612 1327.1 770.12 1327.49 770.809C1327.88 771.498 1327.98 772.312 1327.77 773.075C1327.56 773.837 1327.06 774.486 1326.37 774.88L1105.16 899.38C1104.71 899.63 1104.2 899.761 1103.69 899.76Z" fill="black"/>
<path d="M1137.35 1011.56C1136.68 1011.56 1136.02 1011.34 1135.49 1010.93C1134.96 1010.51 1134.59 1009.93 1134.42 1009.28C1134.26 1008.63 1134.33 1007.94 1134.6 1007.33C1134.88 1006.71 1135.35 1006.21 1135.95 1005.9L1349.4 894.11C1349.75 893.906 1350.14 893.774 1350.54 893.724C1350.94 893.674 1351.35 893.706 1351.74 893.818C1352.13 893.93 1352.49 894.12 1352.81 894.377C1353.12 894.633 1353.38 894.95 1353.57 895.31C1353.76 895.669 1353.87 896.063 1353.9 896.467C1353.93 896.871 1353.88 897.278 1353.75 897.662C1353.62 898.046 1353.42 898.4 1353.15 898.702C1352.88 899.004 1352.55 899.248 1352.18 899.42L1138.74 1011.22C1138.31 1011.44 1137.83 1011.56 1137.35 1011.56Z" fill="black"/>
<path d="M1244.07 1417.82C1243.65 1417.82 1243.23 1417.73 1242.84 1417.56L1170.04 1384.94C1169.31 1384.62 1168.75 1384.01 1168.46 1383.27C1168.18 1382.53 1168.2 1381.7 1168.53 1380.98C1168.85 1380.25 1169.45 1379.68 1170.19 1379.4C1170.94 1379.11 1171.76 1379.14 1172.49 1379.46L1245.29 1412.08C1245.92 1412.36 1246.43 1412.85 1246.74 1413.46C1247.05 1414.07 1247.15 1414.77 1247 1415.44C1246.86 1416.12 1246.49 1416.72 1245.96 1417.15C1245.42 1417.58 1244.76 1417.82 1244.07 1417.82Z" fill="black"/>
<path d="M1336.87 1585.23C1336.31 1585.23 1335.76 1585.08 1335.29 1584.78L1135.77 1461.41C1135.09 1460.99 1134.61 1460.32 1134.42 1459.55C1134.24 1458.77 1134.37 1457.96 1134.79 1457.28C1135.21 1456.6 1135.88 1456.12 1136.65 1455.93C1137.43 1455.75 1138.24 1455.88 1138.92 1456.3L1338.45 1579.68C1339 1580.02 1339.43 1580.54 1339.67 1581.15C1339.9 1581.76 1339.93 1582.42 1339.76 1583.05C1339.58 1583.68 1339.2 1584.23 1338.68 1584.62C1338.16 1585.02 1337.52 1585.23 1336.87 1585.23Z" fill="black"/>
<path d="M1227.13 1629.35C1226.58 1629.35 1226.04 1629.2 1225.57 1628.91L1085.57 1543.22C1084.89 1542.8 1084.41 1542.13 1084.22 1541.36C1084.03 1540.59 1084.16 1539.77 1084.58 1539.09C1085 1538.41 1085.67 1537.93 1086.44 1537.74C1087.21 1537.55 1088.03 1537.68 1088.71 1538.1L1228.71 1623.79C1229.27 1624.13 1229.7 1624.65 1229.94 1625.25C1230.18 1625.86 1230.21 1626.54 1230.03 1627.17C1229.85 1627.8 1229.48 1628.35 1228.95 1628.74C1228.43 1629.14 1227.79 1629.35 1227.14 1629.35H1227.13Z" fill="black"/>
<path d="M1078.68 1874.18C1077.95 1874.19 1077.23 1873.92 1076.68 1873.44L905.92 1724.65C905.607 1724.4 905.348 1724.08 905.159 1723.73C904.97 1723.37 904.855 1722.98 904.82 1722.58C904.786 1722.18 904.832 1721.77 904.957 1721.39C905.082 1721.01 905.283 1720.65 905.548 1720.35C905.812 1720.04 906.136 1719.8 906.498 1719.62C906.861 1719.44 907.255 1719.34 907.657 1719.32C908.06 1719.3 908.462 1719.36 908.841 1719.5C909.219 1719.64 909.566 1719.85 909.86 1720.13L1080.65 1868.92C1081.11 1869.32 1081.44 1869.86 1081.59 1870.45C1081.74 1871.05 1081.7 1871.67 1081.48 1872.25C1081.26 1872.82 1080.88 1873.31 1080.37 1873.66C1079.86 1874 1079.26 1874.19 1078.65 1874.18H1078.68Z" fill="black"/>
<path d="M931.84 1817C931.045 1817 930.282 1816.68 929.72 1816.12L873.72 1760.26C873.155 1759.69 872.839 1758.92 872.841 1758.12C872.843 1757.32 873.163 1756.55 873.73 1755.99C874.298 1755.42 875.066 1755.11 875.867 1755.11C876.668 1755.11 877.435 1755.43 878 1756L934 1811.87C934.419 1812.29 934.705 1812.82 934.82 1813.41C934.936 1813.99 934.876 1814.59 934.649 1815.14C934.423 1815.69 934.038 1816.15 933.546 1816.48C933.053 1816.81 932.473 1816.99 931.88 1816.99L931.84 1817Z" fill="black"/>
<path d="M931.83 1919.82C931.094 1919.82 930.382 1919.56 929.83 1919.07L813.42 1816.26C812.823 1815.73 812.462 1814.98 812.415 1814.19C812.368 1813.39 812.64 1812.61 813.17 1812.01C813.7 1811.41 814.446 1811.05 815.243 1811C816.04 1810.96 816.823 1811.23 817.42 1811.76L933.84 1914.58C934.294 1914.98 934.615 1915.52 934.759 1916.11C934.903 1916.7 934.864 1917.32 934.647 1917.89C934.43 1918.46 934.046 1918.95 933.544 1919.29C933.043 1919.64 932.449 1919.82 931.84 1919.82H931.83Z" fill="black"/>
<path d="M491.67 2287.89C490.978 2287.89 490.307 2287.65 489.771 2287.22C489.235 2286.78 488.866 2286.17 488.727 2285.49C488.588 2284.81 488.688 2284.11 489.009 2283.5C489.33 2282.88 489.854 2282.4 490.49 2282.13L617.41 2228.26C617.775 2228.09 618.172 2227.99 618.575 2227.98C618.979 2227.96 619.381 2228.03 619.758 2228.17C620.135 2228.32 620.479 2228.54 620.77 2228.82C621.061 2229.1 621.291 2229.43 621.449 2229.8C621.607 2230.18 621.688 2230.58 621.687 2230.98C621.686 2231.38 621.604 2231.78 621.446 2232.15C621.287 2232.52 621.055 2232.86 620.764 2233.14C620.472 2233.42 620.128 2233.64 619.75 2233.78L492.84 2287.65C492.47 2287.81 492.072 2287.89 491.67 2287.89Z" fill="black"/>
<path d="M518.82 2333.78C518.141 2333.78 517.481 2333.55 516.95 2333.13C516.418 2332.7 516.046 2332.11 515.894 2331.45C515.742 2330.79 515.819 2330.1 516.112 2329.48C516.406 2328.87 516.899 2328.38 517.51 2328.08L784.87 2198.39C785.225 2198.22 785.61 2198.12 786.003 2198.09C786.396 2198.07 786.79 2198.13 787.163 2198.25C787.535 2198.38 787.879 2198.58 788.173 2198.85C788.468 2199.11 788.708 2199.43 788.88 2199.78C789.052 2200.13 789.152 2200.52 789.176 2200.91C789.199 2201.31 789.145 2201.7 789.015 2202.07C788.886 2202.45 788.685 2202.79 788.423 2203.08C788.162 2203.38 787.845 2203.62 787.49 2203.79L520.13 2333.48C519.721 2333.68 519.273 2333.78 518.82 2333.78Z" fill="black"/>
<path d="M1187.06 2287.89C1186.33 2287.9 1185.62 2287.63 1185.07 2287.15C1184.52 2286.68 1184.16 2286.01 1184.06 2285.29C1183.97 2284.56 1184.14 2283.83 1184.54 2283.22C1184.95 2282.62 1185.56 2282.18 1186.27 2281.99L1383.06 2228.12C1383.83 2227.91 1384.65 2228.01 1385.34 2228.41C1386.03 2228.8 1386.54 2229.46 1386.75 2230.23C1386.95 2230.99 1386.85 2231.81 1386.46 2232.5C1386.06 2233.19 1385.41 2233.7 1384.64 2233.91L1187.85 2287.78C1187.59 2287.85 1187.33 2287.89 1187.06 2287.89Z" fill="black"/>
<path d="M1199.2 2353.73C1198.46 2353.73 1197.75 2353.46 1197.2 2352.97C1196.65 2352.48 1196.3 2351.81 1196.22 2351.08C1196.13 2350.35 1196.32 2349.61 1196.74 2349.01C1197.16 2348.4 1197.79 2347.98 1198.51 2347.81L1358.88 2309.9C1359.26 2309.81 1359.66 2309.79 1360.05 2309.86C1360.44 2309.92 1360.81 2310.06 1361.15 2310.27C1361.48 2310.47 1361.77 2310.75 1362 2311.07C1362.23 2311.38 1362.4 2311.75 1362.49 2312.13C1362.58 2312.51 1362.59 2312.91 1362.53 2313.3C1362.47 2313.69 1362.33 2314.06 1362.12 2314.4C1361.92 2314.73 1361.64 2315.02 1361.32 2315.25C1361.01 2315.48 1360.64 2315.65 1360.26 2315.74L1199.89 2353.65C1199.66 2353.71 1199.43 2353.73 1199.2 2353.73Z" fill="black"/>
<path d="M1199.19 2440.56C1198.39 2440.61 1197.61 2440.34 1197.02 2439.81C1196.42 2439.28 1196.06 2438.54 1196.01 2437.74C1195.96 2436.94 1196.23 2436.16 1196.76 2435.57C1197.29 2434.97 1198.03 2434.61 1198.83 2434.56L1285.09 2423.9C1285.48 2423.85 1285.88 2423.88 1286.27 2423.99C1286.65 2424.1 1287.01 2424.28 1287.32 2424.52C1287.63 2424.77 1287.89 2425.07 1288.09 2425.41C1288.28 2425.76 1288.41 2426.14 1288.46 2426.54C1288.5 2426.93 1288.47 2427.33 1288.37 2427.71C1288.26 2428.09 1288.08 2428.45 1287.83 2428.76C1287.59 2429.08 1287.29 2429.34 1286.94 2429.53C1286.59 2429.73 1286.21 2429.85 1285.82 2429.9L1199.57 2440.56H1199.19Z" fill="black"/>
</svg>
