<svg width="3000" height="3000" viewBox="0 0 3000 3000" fill="none" xmlns="http://www.w3.org/2000/svg">
<path d="M2323.13 2636.06C2304.27 2636.06 2287.59 2626.82 2277.76 2617.33L2277.68 2617.25C2276 2615.49 2274.17 2613.47 2272.26 2611.25C2269.02 2614.88 2265.19 2617.94 2260.93 2620.3C2257.68 2622.2 2254.08 2623.44 2250.35 2623.93C2249.95 2623.98 2249.54 2623.94 2249.15 2623.83C2248.77 2623.99 2248.37 2624.08 2247.96 2624.09C2245.47 2624.11 2242.99 2623.73 2240.63 2622.95C2240.06 2622.77 2239.56 2622.42 2239.19 2621.95C2238.59 2622.04 2237.97 2621.94 2237.43 2621.66C2235.56 2620.72 2233.79 2619.59 2232.16 2618.28C2232.23 2617.74 2232.17 2617.2 2231.98 2616.69C2231.8 2616.18 2231.49 2615.72 2231.1 2615.36C2230.7 2614.99 2230.22 2614.72 2229.7 2614.57C2229.18 2614.43 2228.63 2614.41 2228.1 2614.52C2216.04 2601.68 2208.2 2578 2204.9 2560.11C2204.83 2559.72 2204.83 2559.32 2204.91 2558.93C2204.99 2558.55 2205.15 2558.18 2205.37 2557.85C2205.59 2557.52 2205.88 2557.25 2206.21 2557.03C2206.54 2556.81 2206.91 2556.67 2207.3 2556.59C2207.69 2556.52 2208.09 2556.53 2208.48 2556.61C2208.86 2556.69 2209.23 2556.85 2209.56 2557.08C2209.88 2557.3 2210.16 2557.59 2210.37 2557.92C2210.59 2558.26 2210.73 2558.63 2210.8 2559.02C2213.8 2575.29 2221.29 2598.51 2232.48 2610.4C2232.81 2610.75 2233.04 2611.17 2233.17 2611.63C2233.31 2612.09 2233.32 2612.57 2233.23 2613.04C2233.69 2612.91 2234.17 2612.9 2234.63 2612.99C2235.09 2613.08 2235.53 2613.29 2235.9 2613.58C2237.2 2614.63 2238.61 2615.54 2240.11 2616.3C2240.36 2616.69 2240.73 2616.99 2241.15 2617.17C2241.58 2617.35 2242.06 2617.4 2242.51 2617.3C2244.24 2617.87 2246.06 2618.15 2247.88 2618.14C2248.18 2618.13 2248.48 2618.17 2248.77 2618.26C2249.05 2618.14 2249.35 2618.06 2249.65 2618.02C2252.59 2617.61 2255.43 2616.63 2257.99 2615.12C2261.95 2612.93 2265.47 2610.03 2268.39 2606.57C2254.45 2588.83 2238.65 2561.4 2244.06 2540C2246.67 2529.7 2251.06 2524.22 2257 2523.7C2265.15 2522.99 2273.28 2532.61 2277.39 2541.83V2541.92C2283.62 2557.27 2289.11 2586.25 2275.95 2606.41C2278.09 2608.98 2280.12 2611.25 2281.95 2613.14C2293.18 2623.97 2314.17 2634.44 2336.44 2628.38C2336.8 2628.71 2337.24 2628.94 2337.72 2629.05C2338.2 2629.16 2338.69 2629.13 2339.16 2628.98C2339.63 2628.83 2340.04 2628.56 2340.37 2628.2C2340.7 2627.83 2340.92 2627.39 2341.02 2626.91C2342.17 2626.48 2343.18 2626.07 2344.12 2625.64C2344.52 2625.45 2344.96 2625.36 2345.4 2625.38C2345.67 2625.04 2346.01 2624.77 2346.4 2624.58C2348.14 2623.71 2349.9 2622.72 2351.62 2621.64C2351.98 2621.42 2352.38 2621.27 2352.8 2621.22C2353.02 2620.85 2353.32 2620.54 2353.67 2620.3C2355.41 2619.12 2357.1 2617.86 2358.67 2616.54C2358.97 2616.3 2359.31 2616.11 2359.67 2616C2359.85 2615.66 2360.08 2615.36 2360.37 2615.1C2363.86 2612.06 2367.12 2608.75 2370.1 2605.2C2370.35 2604.9 2370.67 2604.65 2371.02 2604.47C2371.37 2604.29 2371.75 2604.18 2372.14 2604.15C2372.54 2604.12 2372.93 2604.16 2373.31 2604.28C2373.68 2604.4 2374.03 2604.6 2374.33 2604.85C2374.63 2605.1 2374.88 2605.42 2375.06 2605.77C2375.24 2606.12 2375.35 2606.5 2375.38 2606.89C2375.41 2607.29 2375.37 2607.68 2375.25 2608.06C2375.13 2608.43 2374.93 2608.78 2374.68 2609.08C2371.5 2612.86 2368.03 2616.39 2364.3 2619.64C2363.99 2619.91 2363.63 2620.11 2363.24 2620.23C2363.06 2620.61 2362.8 2620.95 2362.48 2621.23C2360.74 2622.66 2358.9 2624.03 2357.02 2625.31C2356.56 2625.38 2356.12 2625.55 2355.73 2625.8C2355.35 2626.06 2355.02 2626.4 2354.77 2626.79C2352.88 2627.96 2350.96 2629.04 2349.05 2629.99C2348.57 2629.99 2348.1 2630.1 2347.67 2630.3C2347.24 2630.51 2346.86 2630.8 2346.55 2631.17C2345.49 2631.64 2344.37 2632.1 2343.11 2632.58C2342.69 2632.26 2342.2 2632.04 2341.68 2631.95C2341.16 2631.86 2340.63 2631.9 2340.12 2632.06C2339.62 2632.22 2339.16 2632.5 2338.79 2632.87C2338.42 2633.25 2338.15 2633.71 2337.99 2634.21C2333.14 2635.48 2328.14 2636.11 2323.13 2636.06ZM2257.85 2529.58H2257.52C2254.45 2529.84 2251.73 2534.03 2249.88 2541.37C2247.27 2551.68 2250.26 2565.28 2258.52 2580.71C2262.46 2587.93 2266.96 2594.82 2272 2601.32C2282.48 2583.32 2277.44 2557.83 2271.89 2544.12C2268.24 2536 2262 2529.58 2257.85 2529.58Z" fill="#FEDA00"/>
<path d="M1848.9 2307.1H1846.6C1845.8 2307.09 1845.04 2306.77 1844.49 2306.2C1843.93 2305.64 1843.62 2304.87 1843.63 2304.08C1843.63 2303.28 1843.95 2302.52 1844.52 2301.96C1845.09 2301.4 1845.85 2301.09 1846.65 2301.1C1849.72 2301.15 1852.99 2301.1 1856.36 2300.94C1856.75 2300.92 1857.15 2300.98 1857.52 2301.12C1857.89 2301.25 1858.23 2301.46 1858.52 2301.73C1858.81 2301.99 1859.05 2302.31 1859.21 2302.67C1859.38 2303.03 1859.47 2303.42 1859.49 2303.81C1859.51 2304.2 1859.45 2304.6 1859.31 2304.97C1859.18 2305.34 1858.97 2305.68 1858.7 2305.97C1858.44 2306.26 1858.12 2306.5 1857.76 2306.66C1857.4 2306.83 1857.01 2306.92 1856.62 2306.94C1854 2307 1851.41 2307.1 1848.9 2307.1ZM1863.9 2306.41C1863.1 2306.45 1862.33 2306.16 1861.74 2305.63C1861.15 2305.09 1860.8 2304.34 1860.77 2303.55C1860.73 2302.75 1861.01 2301.97 1861.55 2301.38C1862.09 2300.8 1862.83 2300.45 1863.63 2300.41C1869.26 2299.9 1875 2299.09 1880.7 2297.99C1881.48 2297.84 1882.29 2298 1882.95 2298.45C1883.61 2298.9 1884.07 2299.59 1884.22 2300.37C1884.37 2301.15 1884.21 2301.96 1883.76 2302.62C1883.31 2303.28 1882.62 2303.74 1881.84 2303.89C1875.94 2305.02 1869.99 2305.89 1864.17 2306.39L1863.9 2306.41ZM1832.43 2306.23H1832.11C1763.11 2298.91 1715.79 2246.87 1696.3 2204.53V2204.43C1693.07 2196.65 1689.66 2187.52 1686.3 2177.43C1673.23 2185.05 1658.79 2190.01 1643.8 2192.03C1634.1 2193.58 1624.19 2193.18 1614.64 2190.87C1613.97 2190.7 1613.37 2190.29 1612.97 2189.73C1612.56 2189.16 1612.36 2188.48 1612.4 2187.78C1612.04 2188.38 1611.48 2188.83 1610.82 2189.06C1610.15 2189.29 1609.43 2189.28 1608.78 2189.03C1602.82 2186.8 1597.28 2183.59 1592.38 2179.53C1591.8 2179.01 1591.45 2178.29 1591.4 2177.52C1591.34 2176.75 1591.58 2175.99 1592.07 2175.39C1592.57 2174.79 1593.27 2174.41 1594.04 2174.32C1594.81 2174.23 1595.58 2174.44 1596.2 2174.91C1600.58 2178.54 1605.55 2181.42 1610.88 2183.41C1610.81 2184.06 1610.96 2184.71 1611.32 2185.26C1611.67 2185.8 1612.2 2186.21 1612.83 2186.41C1613.45 2186.6 1614.12 2186.58 1614.72 2186.33C1615.33 2186.09 1615.83 2185.64 1616.14 2185.07C1624.93 2187.17 1634.04 2187.51 1642.96 2186.07C1657.62 2184.09 1671.72 2179.14 1684.4 2171.53C1665.71 2112.21 1650.98 2023.75 1686.47 1973.9C1702.23 1951.76 1717.16 1942.56 1730.84 1946.57C1739.84 1949.2 1747.53 1957.57 1753.23 1970.81C1757.98 1981.81 1761.08 1995.99 1761.74 2009.59V2009.69C1762.4 2055.69 1747.22 2137.16 1691.54 2174.13C1695.89 2187.41 1699.77 2197.19 1701.79 2202.07C1720.64 2242.96 1766.24 2293.2 1832.79 2300.26C1833.59 2300.3 1834.33 2300.66 1834.86 2301.25C1835.4 2301.84 1835.67 2302.62 1835.63 2303.42C1835.59 2304.22 1835.23 2304.96 1834.64 2305.49C1834.05 2306.03 1833.27 2306.3 1832.47 2306.26L1832.43 2306.23ZM1724.65 1951.68C1714.79 1951.68 1703.38 1960.45 1691.33 1977.37C1673.33 2002.71 1666.96 2042.51 1673.01 2092.45C1676.27 2118.13 1681.82 2143.46 1689.61 2168.15C1742.01 2132.15 1756.35 2054.15 1755.72 2009.81C1754.53 1985.37 1744.82 1956.92 1729.13 1952.32C1727.68 1951.89 1726.17 1951.68 1724.66 1951.68H1724.65ZM1888.32 2302.47C1887.59 2302.47 1886.88 2302.2 1886.33 2301.71C1885.78 2301.22 1885.43 2300.54 1885.35 2299.81C1885.26 2299.08 1885.45 2298.35 1885.87 2297.75C1886.3 2297.14 1886.92 2296.72 1887.64 2296.55C1893.38 2295.22 1899.22 2293.55 1905.01 2291.71C1905.39 2291.57 1905.79 2291.51 1906.19 2291.53C1906.6 2291.55 1906.99 2291.65 1907.36 2291.83C1907.72 2292 1908.04 2292.25 1908.31 2292.55C1908.57 2292.86 1908.77 2293.21 1908.9 2293.59C1909.02 2293.98 1909.07 2294.38 1909.04 2294.78C1909 2295.19 1908.89 2295.58 1908.7 2295.93C1908.51 2296.29 1908.25 2296.6 1907.93 2296.86C1907.62 2297.11 1907.26 2297.3 1906.87 2297.41C1900.87 2299.35 1894.87 2301.03 1889 2302.41C1888.78 2302.46 1888.55 2302.48 1888.33 2302.47H1888.32ZM1912.06 2295.47C1911.35 2295.47 1910.67 2295.22 1910.12 2294.77C1909.58 2294.31 1909.22 2293.68 1909.1 2292.98C1908.98 2292.28 1909.11 2291.56 1909.47 2290.95C1909.83 2290.34 1910.39 2289.88 1911.06 2289.64C1923.51 2285.14 1935.6 2279.7 1947.23 2273.36C1947.93 2272.98 1948.75 2272.9 1949.52 2273.12C1950.28 2273.35 1950.92 2273.87 1951.3 2274.57C1951.68 2275.27 1951.76 2276.09 1951.54 2276.86C1951.31 2277.62 1950.79 2278.26 1950.09 2278.64C1938.19 2285.11 1925.83 2290.68 1913.09 2295.29C1912.76 2295.41 1912.42 2295.48 1912.07 2295.48L1912.06 2295.47ZM1588.13 2174.31C1587.71 2174.31 1587.3 2174.22 1586.91 2174.05C1586.53 2173.87 1586.19 2173.62 1585.91 2173.31C1582.24 2169.24 1579.02 2164.8 1576.28 2160.05C1575.92 2159.36 1575.84 2158.57 1576.06 2157.82C1576.27 2157.08 1576.77 2156.45 1577.44 2156.06C1578.11 2155.67 1578.9 2155.56 1579.65 2155.75C1580.4 2155.93 1581.05 2156.4 1581.47 2157.05C1583.98 2161.44 1586.96 2165.54 1590.35 2169.29C1590.74 2169.72 1590.99 2170.25 1591.08 2170.82C1591.17 2171.39 1591.09 2171.98 1590.86 2172.51C1590.62 2173.04 1590.24 2173.48 1589.76 2173.8C1589.27 2174.12 1588.71 2174.29 1588.13 2174.29V2174.31ZM1572.64 2148.71C1572.04 2148.71 1571.46 2148.53 1570.96 2148.2C1570.47 2147.86 1570.08 2147.39 1569.86 2146.83C1561.38 2125.83 1557.1 2098.33 1557.12 2065.04C1557.26 2038.02 1559.85 2011.06 1564.85 1984.5C1565 1983.72 1565.45 1983.03 1566.11 1982.58C1566.77 1982.13 1567.58 1981.96 1568.36 1982.11C1569.14 1982.26 1569.83 1982.71 1570.28 1983.37C1570.73 1984.03 1570.9 1984.84 1570.75 1985.62C1561.93 2031.8 1557.87 2101.14 1575.42 2144.62C1575.72 2145.36 1575.71 2146.18 1575.4 2146.91C1575.09 2147.64 1574.5 2148.22 1573.76 2148.52C1573.41 2148.66 1573.03 2148.73 1572.65 2148.72L1572.64 2148.71Z" fill="black"/>
<path d="M2281.19 1445.51C2279.54 1445.51 2277.93 1445.02 2276.56 1444.11C2275.19 1443.19 2274.12 1441.89 2273.49 1440.37C2272.86 1438.85 2272.7 1437.17 2273.02 1435.56C2273.34 1433.94 2274.13 1432.45 2275.3 1431.29C2276.46 1430.12 2277.95 1429.33 2279.56 1429.01C2281.18 1428.69 2282.86 1428.85 2284.38 1429.48C2285.9 1430.11 2287.2 1431.18 2288.12 1432.55C2289.03 1433.92 2289.52 1435.53 2289.52 1437.18C2289.52 1439.39 2288.64 1441.51 2287.08 1443.07C2285.52 1444.63 2283.4 1445.51 2281.19 1445.51ZM2281.19 1434.85C2280.73 1434.85 2280.28 1434.99 2279.9 1435.24C2279.51 1435.5 2279.21 1435.86 2279.04 1436.29C2278.86 1436.71 2278.81 1437.18 2278.9 1437.63C2278.99 1438.09 2279.22 1438.5 2279.54 1438.83C2279.87 1439.15 2280.28 1439.38 2280.74 1439.47C2281.19 1439.56 2281.66 1439.51 2282.08 1439.33C2282.51 1439.16 2282.87 1438.86 2283.13 1438.47C2283.38 1438.09 2283.52 1437.64 2283.52 1437.18C2283.52 1436.56 2283.27 1435.97 2282.84 1435.53C2282.4 1435.1 2281.81 1434.85 2281.19 1434.85Z" fill="black"/>
<path d="M428.22 1161.71C426.573 1161.71 424.962 1161.22 423.592 1160.31C422.222 1159.39 421.155 1158.09 420.524 1156.57C419.894 1155.05 419.729 1153.37 420.05 1151.76C420.372 1150.14 421.165 1148.65 422.33 1147.49C423.495 1146.33 424.979 1145.53 426.595 1145.21C428.211 1144.89 429.886 1145.05 431.408 1145.68C432.93 1146.31 434.231 1147.38 435.146 1148.75C436.062 1150.12 436.55 1151.73 436.55 1153.38C436.547 1155.59 435.669 1157.71 434.107 1159.27C432.546 1160.83 430.429 1161.71 428.22 1161.71ZM428.22 1151.05C427.759 1151.05 427.309 1151.19 426.926 1151.44C426.542 1151.7 426.244 1152.06 426.068 1152.49C425.891 1152.91 425.845 1153.38 425.935 1153.83C426.025 1154.29 426.247 1154.7 426.573 1155.03C426.898 1155.35 427.314 1155.58 427.766 1155.67C428.218 1155.76 428.686 1155.71 429.112 1155.53C429.538 1155.36 429.901 1155.06 430.157 1154.67C430.413 1154.29 430.55 1153.84 430.55 1153.38C430.55 1152.76 430.305 1152.17 429.868 1151.73C429.431 1151.3 428.838 1151.05 428.22 1151.05Z" fill="black"/>
<path d="M764.13 2537.62C762.483 2537.62 760.873 2537.13 759.505 2536.21C758.136 2535.29 757.07 2533.99 756.441 2532.47C755.812 2530.95 755.649 2529.27 755.971 2527.66C756.294 2526.04 757.088 2524.56 758.253 2523.4C759.419 2522.23 760.903 2521.44 762.519 2521.12C764.134 2520.8 765.809 2520.96 767.33 2521.59C768.852 2522.23 770.152 2523.29 771.067 2524.66C771.982 2526.03 772.47 2527.64 772.47 2529.29C772.467 2531.5 771.588 2533.62 770.024 2535.18C768.46 2536.74 766.34 2537.62 764.13 2537.62ZM764.13 2526.96C763.67 2526.96 763.22 2527.1 762.838 2527.36C762.456 2527.61 762.159 2527.98 761.985 2528.41C761.81 2528.83 761.765 2529.3 761.856 2529.75C761.947 2530.2 762.17 2530.62 762.496 2530.94C762.822 2531.27 763.237 2531.49 763.689 2531.58C764.141 2531.66 764.609 2531.62 765.034 2531.44C765.459 2531.26 765.822 2530.97 766.078 2530.58C766.334 2530.2 766.47 2529.75 766.47 2529.29C766.457 2528.68 766.205 2528.1 765.767 2527.67C765.33 2527.24 764.742 2527 764.13 2527V2526.96Z" fill="black"/>
<path d="M812.17 443.85C810.523 443.85 808.912 443.361 807.542 442.446C806.172 441.531 805.105 440.23 804.474 438.708C803.844 437.186 803.679 435.511 804 433.895C804.322 432.279 805.115 430.795 806.28 429.63C807.445 428.465 808.929 427.671 810.545 427.35C812.161 427.029 813.836 427.194 815.358 427.824C816.88 428.455 818.181 429.522 819.096 430.892C820.012 432.262 820.5 433.872 820.5 435.52C820.497 437.728 819.619 439.846 818.057 441.407C816.496 442.969 814.379 443.847 812.17 443.85ZM812.17 433.19C811.709 433.19 811.259 433.327 810.876 433.583C810.492 433.839 810.194 434.203 810.017 434.628C809.841 435.054 809.795 435.523 809.885 435.974C809.975 436.426 810.197 436.842 810.523 437.168C810.848 437.493 811.264 437.715 811.716 437.805C812.168 437.895 812.636 437.849 813.062 437.673C813.487 437.496 813.851 437.198 814.107 436.814C814.363 436.431 814.5 435.981 814.5 435.52C814.497 434.903 814.251 434.312 813.815 433.875C813.378 433.439 812.787 433.193 812.17 433.19Z" fill="black"/>
<path d="M2790.75 1523.47C2790.12 1523.47 2789.5 1523.27 2788.99 1522.9L2759.62 1501.55C2758.98 1501.08 2758.54 1500.38 2758.42 1499.59C2758.29 1498.8 2758.49 1498 2758.96 1497.36C2759.42 1496.71 2760.13 1496.28 2760.91 1496.15C2761.7 1496.03 2762.51 1496.22 2763.15 1496.69L2792.51 1518.04C2793.02 1518.41 2793.41 1518.94 2793.6 1519.54C2793.8 1520.14 2793.8 1520.79 2793.6 1521.4C2793.41 1522 2793.03 1522.52 2792.51 1522.9C2792 1523.27 2791.38 1523.47 2790.75 1523.47Z" fill="black"/>
<path d="M1085.62 924.32C1084.99 924.32 1084.37 924.121 1083.86 923.75L1054.5 902.4C1054.18 902.169 1053.91 901.877 1053.7 901.542C1053.5 901.206 1053.36 900.833 1053.3 900.444C1053.24 900.055 1053.25 899.657 1053.34 899.274C1053.43 898.891 1053.6 898.529 1053.83 898.21C1054.06 897.891 1054.35 897.621 1054.69 897.414C1055.02 897.208 1055.4 897.07 1055.79 897.007C1056.18 896.945 1056.57 896.96 1056.96 897.052C1057.34 897.143 1057.7 897.309 1058.02 897.54L1087.38 918.9C1087.89 919.273 1088.27 919.798 1088.46 920.399C1088.66 920.999 1088.66 921.646 1088.46 922.247C1088.27 922.847 1087.89 923.371 1087.38 923.743C1086.87 924.116 1086.25 924.317 1085.62 924.32Z" fill="black"/>
<path d="M413.33 1990.39C412.691 1990.39 412.069 1990.19 411.554 1989.81C411.039 1989.43 410.658 1988.9 410.466 1988.29C410.274 1987.68 410.281 1987.03 410.487 1986.42C410.693 1985.82 411.086 1985.3 411.61 1984.93L441.4 1964.18C442.053 1963.75 442.847 1963.59 443.614 1963.74C444.381 1963.89 445.06 1964.33 445.507 1964.97C445.953 1965.61 446.132 1966.4 446.006 1967.17C445.88 1967.94 445.458 1968.64 444.83 1969.1L415 1989.85C414.511 1990.2 413.929 1990.38 413.33 1990.39Z" fill="black"/>
<path d="M2357.68 2234.51C2357.04 2234.51 2356.42 2234.31 2355.9 2233.93C2355.39 2233.55 2355.01 2233.02 2354.82 2232.41C2354.62 2231.8 2354.63 2231.15 2354.84 2230.54C2355.04 2229.94 2355.44 2229.42 2355.96 2229.05L2385.75 2208.3C2386.07 2208.06 2386.44 2207.89 2386.83 2207.8C2387.22 2207.7 2387.62 2207.69 2388.02 2207.75C2388.42 2207.82 2388.79 2207.96 2389.13 2208.17C2389.47 2208.39 2389.77 2208.67 2390 2209C2390.22 2209.32 2390.39 2209.7 2390.47 2210.09C2390.55 2210.48 2390.56 2210.89 2390.48 2211.28C2390.4 2211.67 2390.25 2212.05 2390.03 2212.38C2389.8 2212.71 2389.52 2213 2389.18 2213.22L2359.39 2234C2358.89 2234.34 2358.29 2234.52 2357.68 2234.51Z" fill="black"/>
<path d="M347.72 586.7C347.082 586.699 346.462 586.494 345.948 586.116C345.435 585.738 345.055 585.206 344.864 584.597C344.674 583.988 344.682 583.335 344.888 582.731C345.094 582.128 345.487 581.605 346.01 581.24L375.79 560.49C376.113 560.252 376.48 560.08 376.869 559.986C377.259 559.892 377.664 559.876 378.06 559.941C378.456 560.006 378.835 560.15 379.174 560.364C379.513 560.577 379.806 560.857 380.036 561.186C380.265 561.515 380.426 561.887 380.509 562.279C380.593 562.672 380.596 563.077 380.52 563.471C380.444 563.864 380.29 564.239 380.067 564.572C379.843 564.905 379.556 565.19 379.22 565.41L349.44 586.16C348.936 586.512 348.335 586.701 347.72 586.7Z" fill="black"/>
<path d="M1856.26 263.64C1855.56 263.639 1854.89 263.395 1854.35 262.95C1853.81 262.505 1853.45 261.886 1853.32 261.2C1853.19 260.514 1853.3 259.804 1853.63 259.193C1853.97 258.582 1854.51 258.107 1855.16 257.85L1889 244.57C1889.74 244.302 1890.55 244.331 1891.26 244.652C1891.97 244.973 1892.53 245.56 1892.82 246.288C1893.11 247.016 1893.1 247.827 1892.8 248.548C1892.49 249.27 1891.92 249.845 1891.2 250.15L1857.41 263.43C1857.04 263.575 1856.65 263.646 1856.26 263.64Z" fill="black"/>
<path d="M2617.57 220.65C2617.07 220.65 2616.58 220.525 2616.14 220.286C2615.7 220.046 2615.32 219.701 2615.05 219.28L2595.3 188.82C2594.95 188.159 2594.86 187.392 2595.05 186.668C2595.23 185.944 2595.68 185.315 2596.31 184.906C2596.94 184.497 2597.69 184.336 2598.43 184.455C2599.17 184.574 2599.83 184.965 2600.3 185.55L2620.09 216C2620.3 216.331 2620.45 216.701 2620.52 217.089C2620.59 217.476 2620.59 217.874 2620.5 218.26C2620.42 218.645 2620.26 219.01 2620.04 219.335C2619.82 219.659 2619.53 219.936 2619.2 220.15C2618.72 220.471 2618.15 220.645 2617.57 220.65Z" fill="black"/>
<path d="M256.25 2572.08C255.749 2572.08 255.256 2571.95 254.816 2571.72C254.376 2571.48 254.002 2571.13 253.73 2570.71L234 2540.25C233.66 2539.59 233.577 2538.83 233.766 2538.11C233.956 2537.39 234.406 2536.77 235.028 2536.36C235.651 2535.96 236.401 2535.8 237.135 2535.91C237.869 2536.03 238.533 2536.41 239 2536.99L258.75 2567.45C259.043 2567.9 259.209 2568.43 259.229 2568.97C259.25 2569.51 259.125 2570.04 258.867 2570.51C258.609 2570.99 258.227 2571.38 257.764 2571.66C257.3 2571.93 256.77 2572.08 256.23 2572.08H256.25Z" fill="black"/>
<path d="M904.92 2476.42L917.46 2192.56L923.46 2192.82L911.2 2470.24L1286 2459.38L2052.76 2437.2V1800.7H1451.13V1794.7H2052.77V1662.25H1744.38V1656.25H2058.77V1797.7V2443L2055.86 2443.09L1286.19 2465.36L904.92 2476.42ZM1199.92 1800.7H1133.68V1794.7H1199.92V1800.7Z" fill="black"/>
<path d="M882.9 261.92L910.26 409.79L1026.84 361.36L918.69 446.26L1015.34 493.79L903.34 472.9L926.8 611.81L869 476.71L767.16 587L834.23 461.35L733.48 427.48L829.8 421.48L800.9 359.4L857 403.83L882.9 261.92Z" fill="#FEDA00"/>
<path d="M829.74 1933.94H614.35V1308.47H1081.64V1159.71H1397.11V1165.71H1087.64V1314.47H620.35V1927.94H829.74V1933.94Z" fill="black"/>
<path d="M1276.36 433.51H1206.36C1205.56 433.51 1204.8 433.194 1204.24 432.632C1203.68 432.069 1203.36 431.306 1203.36 430.51C1203.36 429.715 1203.68 428.952 1204.24 428.389C1204.8 427.826 1205.56 427.51 1206.36 427.51H1276.36C1277.16 427.51 1277.92 427.826 1278.48 428.389C1279.04 428.952 1279.36 429.715 1279.36 430.51C1279.36 431.306 1279.04 432.069 1278.48 432.632C1277.92 433.194 1277.16 433.51 1276.36 433.51ZM1175.73 433.51H1100.18C1099.38 433.51 1098.62 433.194 1098.06 432.632C1097.5 432.069 1097.18 431.306 1097.18 430.51C1097.18 429.715 1097.5 428.952 1098.06 428.389C1098.62 427.826 1099.38 427.51 1100.18 427.51H1175.73C1176.53 427.51 1177.29 427.826 1177.85 428.389C1178.41 428.952 1178.73 429.715 1178.73 430.51C1178.73 431.306 1178.41 432.069 1177.85 432.632C1177.29 433.194 1176.53 433.51 1175.73 433.51Z" fill="black"/>
<path d="M2501.28 1457.54C2500.48 1457.54 2499.72 1457.22 2499.16 1456.66C2498.6 1456.1 2498.28 1455.34 2498.28 1454.54V1384.54C2498.28 1383.74 2498.6 1382.98 2499.16 1382.42C2499.72 1381.86 2500.48 1381.54 2501.28 1381.54C2502.08 1381.54 2502.84 1381.86 2503.4 1382.42C2503.96 1382.98 2504.28 1383.74 2504.28 1384.54V1454.54C2504.28 1455.34 2503.96 1456.1 2503.4 1456.66C2502.84 1457.22 2502.08 1457.54 2501.28 1457.54ZM2501.28 1356.91C2500.48 1356.91 2499.72 1356.59 2499.16 1356.03C2498.6 1355.47 2498.28 1354.71 2498.28 1353.91V1278.36C2498.28 1277.56 2498.6 1276.8 2499.16 1276.24C2499.72 1275.68 2500.48 1275.36 2501.28 1275.36C2502.08 1275.36 2502.84 1275.68 2503.4 1276.24C2503.96 1276.8 2504.28 1277.56 2504.28 1278.36V1353.91C2504.28 1354.71 2503.96 1355.47 2503.4 1356.03C2502.84 1356.59 2502.08 1356.91 2501.28 1356.91Z" fill="black"/>
<path d="M2501.28 1671.56C2500.48 1671.56 2499.72 1671.24 2499.16 1670.68C2498.6 1670.12 2498.28 1669.36 2498.28 1668.56V1598.56C2498.28 1597.76 2498.6 1597 2499.16 1596.44C2499.72 1595.88 2500.48 1595.56 2501.28 1595.56C2502.08 1595.56 2502.84 1595.88 2503.4 1596.44C2503.96 1597 2504.28 1597.76 2504.28 1598.56V1668.56C2504.28 1669.36 2503.96 1670.12 2503.4 1670.68C2502.84 1671.24 2502.08 1671.56 2501.28 1671.56ZM2501.28 1570.93C2500.48 1570.93 2499.72 1570.61 2499.16 1570.05C2498.6 1569.49 2498.28 1568.73 2498.28 1567.93V1492.38C2498.28 1491.58 2498.6 1490.82 2499.16 1490.26C2499.72 1489.7 2500.48 1489.38 2501.28 1489.38C2502.08 1489.38 2502.84 1489.7 2503.4 1490.26C2503.96 1490.82 2504.28 1491.58 2504.28 1492.38V1567.93C2504.28 1568.73 2503.96 1569.49 2503.4 1570.05C2502.84 1570.61 2502.08 1570.93 2501.28 1570.93Z" fill="black"/>
<path d="M2501.28 1883C2500.48 1883 2499.72 1882.68 2499.16 1882.12C2498.6 1881.56 2498.28 1880.8 2498.28 1880V1810C2498.28 1809.2 2498.6 1808.44 2499.16 1807.88C2499.72 1807.32 2500.48 1807 2501.28 1807C2502.08 1807 2502.84 1807.32 2503.4 1807.88C2503.96 1808.44 2504.28 1809.2 2504.28 1810V1880C2504.28 1880.8 2503.96 1881.56 2503.4 1882.12C2502.84 1882.68 2502.08 1883 2501.28 1883ZM2501.28 1782.37C2500.48 1782.37 2499.72 1782.05 2499.16 1781.49C2498.6 1780.93 2498.28 1780.17 2498.28 1779.37V1703.8C2498.28 1703 2498.6 1702.24 2499.16 1701.68C2499.72 1701.12 2500.48 1700.8 2501.28 1700.8C2502.08 1700.8 2502.84 1701.12 2503.4 1701.68C2503.96 1702.24 2504.28 1703 2504.28 1703.8V1779.35C2504.28 1780.15 2503.96 1780.91 2503.4 1781.47C2502.84 1782.03 2502.08 1782.35 2501.28 1782.35V1782.37Z" fill="black"/>
<path d="M2460.66 1883H2390.66C2389.86 1883 2389.1 1882.68 2388.54 1882.12C2387.98 1881.56 2387.66 1880.8 2387.66 1880C2387.66 1879.2 2387.98 1878.44 2388.54 1877.88C2389.1 1877.32 2389.86 1877 2390.66 1877H2460.66C2461.46 1877 2462.22 1877.32 2462.78 1877.88C2463.34 1878.44 2463.66 1879.2 2463.66 1880C2463.66 1880.8 2463.34 1881.56 2462.78 1882.12C2462.22 1882.68 2461.46 1883 2460.66 1883ZM2360 1883H2284.45C2283.65 1883 2282.89 1882.68 2282.33 1882.12C2281.77 1881.56 2281.45 1880.8 2281.45 1880C2281.45 1879.2 2281.77 1878.44 2282.33 1877.88C2282.89 1877.32 2283.65 1877 2284.45 1877H2360C2360.8 1877 2361.56 1877.32 2362.12 1877.88C2362.68 1878.44 2363 1879.2 2363 1880C2363 1880.8 2362.68 1881.56 2362.12 1882.12C2361.56 1882.68 2360.8 1883 2360 1883Z" fill="black"/>
<path d="M2249.27 1883H2179.27C2178.47 1883 2177.71 1882.68 2177.15 1882.12C2176.59 1881.56 2176.27 1880.8 2176.27 1880C2176.27 1879.2 2176.59 1878.44 2177.15 1877.88C2177.71 1877.32 2178.47 1877 2179.27 1877H2249.27C2250.07 1877 2250.83 1877.32 2251.39 1877.88C2251.95 1878.44 2252.27 1879.2 2252.27 1880C2252.27 1880.8 2251.95 1881.56 2251.39 1882.12C2250.83 1882.68 2250.07 1883 2249.27 1883ZM2148.64 1883H2073.09C2072.29 1883 2071.53 1882.68 2070.97 1882.12C2070.41 1881.56 2070.09 1880.8 2070.09 1880C2070.09 1879.2 2070.41 1878.44 2070.97 1877.88C2071.53 1877.32 2072.29 1877 2073.09 1877H2148.64C2149.44 1877 2150.2 1877.32 2150.76 1877.88C2151.32 1878.44 2151.64 1879.2 2151.64 1880C2151.64 1880.8 2151.32 1881.56 2150.76 1882.12C2150.2 1882.68 2149.44 1883 2148.64 1883Z" fill="black"/>
<path d="M1686 433.51H1616C1615.2 433.51 1614.44 433.194 1613.88 432.632C1613.32 432.069 1613 431.306 1613 430.51C1613 429.715 1613.32 428.952 1613.88 428.389C1614.44 427.826 1615.2 427.51 1616 427.51H1686C1686.8 427.51 1687.56 427.826 1688.12 428.389C1688.68 428.952 1689 429.715 1689 430.51C1689 431.306 1688.68 432.069 1688.12 432.632C1687.56 433.194 1686.8 433.51 1686 433.51ZM1585.37 433.51H1509.82C1509.02 433.51 1508.26 433.194 1507.7 432.632C1507.14 432.069 1506.82 431.306 1506.82 430.51C1506.82 429.715 1507.14 428.952 1507.7 428.389C1508.26 427.826 1509.02 427.51 1509.82 427.51H1585.37C1586.17 427.51 1586.93 427.826 1587.49 428.389C1588.05 428.952 1588.37 429.715 1588.37 430.51C1588.37 431.306 1588.05 432.069 1587.49 432.632C1586.93 433.194 1586.17 433.51 1585.37 433.51Z" fill="black"/>
<path d="M1987.61 433.51H1912.06C1911.26 433.51 1910.5 433.194 1909.94 432.632C1909.38 432.069 1909.06 431.306 1909.06 430.51C1909.06 429.715 1909.38 428.952 1909.94 428.389C1910.5 427.826 1911.26 427.51 1912.06 427.51H1987.61C1988.41 427.51 1989.17 427.826 1989.73 428.389C1990.29 428.952 1990.61 429.715 1990.61 430.51C1990.61 431.306 1990.29 432.069 1989.73 432.632C1989.17 433.194 1988.41 433.51 1987.61 433.51Z" fill="black"/>
<path d="M1991.92 433.51H1916.37C1915.57 433.51 1914.81 433.194 1914.25 432.632C1913.69 432.069 1913.37 431.306 1913.37 430.51C1913.37 429.715 1913.69 428.952 1914.25 428.389C1914.81 427.826 1915.57 427.51 1916.37 427.51H1991.92C1992.72 427.51 1993.48 427.826 1994.04 428.389C1994.6 428.952 1994.92 429.715 1994.92 430.51C1994.92 431.306 1994.6 432.069 1994.04 432.632C1993.48 433.194 1992.72 433.51 1991.92 433.51Z" fill="black"/>
<path d="M1994.17 634.62C1993.37 634.62 1992.61 634.304 1992.05 633.741C1991.49 633.179 1991.17 632.416 1991.17 631.62V561.62C1991.17 560.824 1991.49 560.061 1992.05 559.499C1992.61 558.936 1993.37 558.62 1994.17 558.62C1994.97 558.62 1995.73 558.936 1996.29 559.499C1996.85 560.061 1997.17 560.824 1997.17 561.62V631.62C1997.17 632.416 1996.85 633.179 1996.29 633.741C1995.73 634.304 1994.97 634.62 1994.17 634.62ZM1994.17 533.99C1993.37 533.99 1992.61 533.674 1992.05 533.111C1991.49 532.549 1991.17 531.786 1991.17 530.99V455.44C1991.17 454.644 1991.49 453.881 1992.05 453.319C1992.61 452.756 1993.37 452.44 1994.17 452.44C1994.97 452.44 1995.73 452.756 1996.29 453.319C1996.85 453.881 1997.17 454.644 1997.17 455.44V531C1997.17 531.796 1996.85 532.559 1996.29 533.121C1995.73 533.684 1994.97 534 1994.17 534V533.99Z" fill="black"/>
<path d="M1480.53 433.51H1410.53C1409.73 433.51 1408.97 433.194 1408.41 432.632C1407.85 432.069 1407.53 431.306 1407.53 430.51C1407.53 429.715 1407.85 428.952 1408.41 428.389C1408.97 427.826 1409.73 427.51 1410.53 427.51H1480.53C1481.33 427.51 1482.09 427.826 1482.65 428.389C1483.21 428.952 1483.53 429.715 1483.53 430.51C1483.53 431.306 1483.21 432.069 1482.65 432.632C1482.09 433.194 1481.33 433.51 1480.53 433.51ZM1379.91 433.51H1304.36C1303.56 433.51 1302.8 433.194 1302.24 432.632C1301.68 432.069 1301.36 431.306 1301.36 430.51C1301.36 429.715 1301.68 428.952 1302.24 428.389C1302.8 427.826 1303.56 427.51 1304.36 427.51H1379.91C1380.71 427.51 1381.47 427.826 1382.03 428.389C1382.59 428.952 1382.91 429.715 1382.91 430.51C1382.91 431.306 1382.59 432.069 1382.03 432.632C1381.47 433.194 1380.71 433.51 1379.91 433.51Z" fill="black"/>
<path d="M1890.2 433.51H1820.2C1819.4 433.51 1818.64 433.194 1818.08 432.632C1817.52 432.069 1817.2 431.306 1817.2 430.51C1817.2 429.715 1817.52 428.952 1818.08 428.389C1818.64 427.826 1819.4 427.51 1820.2 427.51H1890.2C1891 427.51 1891.76 427.826 1892.32 428.389C1892.88 428.952 1893.2 429.715 1893.2 430.51C1893.2 431.306 1892.88 432.069 1892.32 432.632C1891.76 433.194 1891 433.51 1890.2 433.51ZM1789.57 433.51H1714C1713.2 433.51 1712.44 433.194 1711.88 432.632C1711.32 432.069 1711 431.306 1711 430.51C1711 429.715 1711.32 428.952 1711.88 428.389C1712.44 427.826 1713.2 427.51 1714 427.51H1789.55C1790.35 427.51 1791.11 427.826 1791.67 428.389C1792.23 428.952 1792.55 429.715 1792.55 430.51C1792.55 431.306 1792.23 432.069 1791.67 432.632C1791.11 433.194 1790.35 433.51 1789.55 433.51H1789.57Z" fill="black"/>
<path d="M1994.17 739C1993.37 739 1992.61 738.684 1992.05 738.121C1991.49 737.559 1991.17 736.796 1991.17 736V660.42C1991.17 659.624 1991.49 658.861 1992.05 658.299C1992.61 657.736 1993.37 657.42 1994.17 657.42C1994.97 657.42 1995.73 657.736 1996.29 658.299C1996.85 658.861 1997.17 659.624 1997.17 660.42V736C1997.17 736.796 1996.85 737.559 1996.29 738.121C1995.73 738.684 1994.97 739 1994.17 739Z" fill="black"/>
<path d="M2214.27 739H2144.27C2143.47 739 2142.71 738.684 2142.15 738.121C2141.59 737.559 2141.27 736.796 2141.27 736C2141.27 735.204 2141.59 734.441 2142.15 733.879C2142.71 733.316 2143.47 733 2144.27 733H2214.27C2215.07 733 2215.83 733.316 2216.39 733.879C2216.95 734.441 2217.27 735.204 2217.27 736C2217.27 736.796 2216.95 737.559 2216.39 738.121C2215.83 738.684 2215.07 739 2214.27 739ZM2113.65 739H2038.1C2037.3 739 2036.54 738.684 2035.98 738.121C2035.42 737.559 2035.1 736.796 2035.1 736C2035.1 735.204 2035.42 734.441 2035.98 733.879C2036.54 733.316 2037.3 733 2038.1 733H2113.65C2114.45 733 2115.21 733.316 2115.77 733.879C2116.33 734.441 2116.65 735.204 2116.65 736C2116.65 736.796 2116.33 737.559 2115.77 738.121C2115.21 738.684 2114.45 739 2113.65 739Z" fill="black"/>
<path d="M1745.16 1768.51C1760.86 1768.51 1773.59 1755.78 1773.59 1740.08C1773.59 1724.38 1760.86 1711.65 1745.16 1711.65C1729.46 1711.65 1716.73 1724.38 1716.73 1740.08C1716.73 1755.78 1729.46 1768.51 1745.16 1768.51Z" fill="black"/>
<path d="M1830.04 1768.51C1845.74 1768.51 1858.47 1755.78 1858.47 1740.08C1858.47 1724.38 1845.74 1711.65 1830.04 1711.65C1814.34 1711.65 1801.61 1724.38 1801.61 1740.08C1801.61 1755.78 1814.34 1768.51 1830.04 1768.51Z" fill="black"/>
<path d="M1922.39 1768.51C1938.09 1768.51 1950.82 1755.78 1950.82 1740.08C1950.82 1724.38 1938.09 1711.65 1922.39 1711.65C1906.69 1711.65 1893.96 1724.38 1893.96 1740.08C1893.96 1755.78 1906.69 1768.51 1922.39 1768.51Z" fill="black"/>
<path d="M1895.32 1662.25H1404.42L1403.54 1660.9L1196.16 1344.72L1480.08 1311.3L1480.79 1317.26L1206.51 1349.54L1407.66 1656.25H1888.87L1863.88 1311.69L1869.87 1311.25L1895.32 1662.25Z" fill="black"/>
<path d="M2428.46 1257.44L2322.7 1247.13C2321.9 1247.05 2321.17 1246.66 2320.66 1246.05C2320.16 1245.43 2319.91 1244.64 2319.99 1243.84C2320.07 1243.04 2320.46 1242.31 2321.07 1241.8C2321.69 1241.3 2322.48 1241.05 2323.28 1241.13L2426.56 1251.2C2480.79 1206.2 2536.71 1159.39 2542.19 1154.13C2543.42 1149.76 2543.19 1146.54 2541.47 1144.55C2539.52 1142.26 2535.47 1141.55 2532.09 1141.89L2481.46 1187.2C2480.87 1187.73 2480.09 1188 2479.29 1187.96C2478.5 1187.91 2477.75 1187.55 2477.22 1186.96C2476.69 1186.37 2476.42 1185.59 2476.46 1184.79C2476.51 1184 2476.87 1183.25 2477.46 1182.72L2528 1137.5C2528.62 1133.66 2528.69 1129.02 2526.16 1126.82C2523.63 1124.62 2519.32 1125.09 2516.02 1126.1L2463.69 1173.62C2463.09 1174.07 2462.34 1174.28 2461.6 1174.21C2460.85 1174.13 2460.16 1173.79 2459.66 1173.23C2459.16 1172.67 2458.88 1171.95 2458.89 1171.2C2458.89 1170.45 2459.18 1169.73 2459.69 1169.18L2511.89 1121.77C2513.56 1116.13 2513.47 1112.15 2511.64 1110.54C2509.28 1108.46 2503.39 1109.47 2498.64 1111.54L2445 1157.92C2444.39 1158.42 2443.62 1158.66 2442.84 1158.59C2442.06 1158.52 2441.34 1158.16 2440.83 1157.56C2440.31 1156.97 2440.05 1156.2 2440.1 1155.42C2440.15 1154.64 2440.5 1153.91 2441.08 1153.38L2494.25 1107.44C2495.25 1101.94 2494.64 1098.07 2492.61 1096.44C2490.11 1094.44 2485.06 1095.44 2481.04 1097.19L2414.04 1149.78L2380.23 1145.85C2378.58 1162.38 2370.23 1191.69 2347.64 1202.58C2346.93 1202.88 2346.13 1202.9 2345.41 1202.63C2344.69 1202.35 2344.1 1201.82 2343.76 1201.12C2343.43 1200.43 2343.38 1199.63 2343.61 1198.9C2343.85 1198.16 2344.36 1197.55 2345.04 1197.18C2354.51 1192.6 2362.04 1183.88 2367.53 1171.26C2371.42 1162.09 2373.77 1152.34 2374.48 1142.41C2374.48 1142.27 2374.48 1142.14 2374.48 1142C2374.52 1141.74 2374.6 1141.5 2374.71 1141.26C2374.79 1141.08 2374.89 1140.91 2375.01 1140.75C2375.25 1140.42 2375.55 1140.15 2375.89 1139.94C2376.01 1139.87 2376.13 1139.81 2376.26 1139.75C2390.84 1133.12 2414.08 1121.53 2419.21 1116.37C2423.62 1109.46 2425.06 1104.03 2423.26 1101.06C2421.46 1098.09 2416.26 1097.21 2411.82 1097.57L2336.62 1120.93L2286.39 1161.85C2285.77 1162.35 2284.98 1162.59 2284.19 1162.5C2283.4 1162.42 2282.67 1162.03 2282.17 1161.41C2281.67 1160.79 2281.43 1160 2281.52 1159.21C2281.6 1158.42 2281.99 1157.69 2282.61 1157.19L2333.74 1115.55L2334.29 1115.38L2410.65 1091.65H2410.96C2413.96 1091.37 2424.15 1090.99 2428.39 1097.98C2431.56 1103.19 2430.11 1110.57 2424.09 1119.9L2423.76 1120.32C2418.76 1125.62 2399.96 1135.15 2388.25 1140.78L2412.25 1143.57L2477.9 1092.07L2478.21 1091.92C2480.91 1090.66 2490.21 1086.92 2496.33 1091.76C2499.58 1094.31 2501.03 1098.57 2500.66 1104.46C2506.06 1102.91 2511.91 1102.76 2515.66 1106.02C2518.79 1108.79 2519.8 1113.29 2518.66 1119.44C2522.22 1119.01 2526.74 1119.29 2530.18 1122.28C2533.47 1125.15 2534.86 1129.7 2534.33 1135.84C2538.57 1135.95 2543.16 1137.25 2546.08 1140.65C2549.23 1144.32 2549.85 1149.53 2547.92 1156.13C2547.79 1157.5 2546.54 1158.57 2534.04 1169.21C2526.68 1175.46 2516.19 1184.3 2502.84 1195.49C2472.84 1220.62 2439.1 1248.64 2429.48 1256.63L2428.46 1257.44Z" fill="black"/>
<path d="M773.8 1597C759.68 1597 755.36 1590 754.03 1585.69C751.59 1577.69 756.03 1567.13 763.8 1562.69L764.02 1562.58L815.88 1538.1L695.18 1518.51H695.01C683.67 1515.28 680.55 1507.51 681.41 1501.4C682.41 1493.94 688.78 1488.1 695.83 1488.1H717.83C713.732 1486.3 709.727 1484.3 705.83 1482.1C702.104 1479.8 699.102 1476.5 697.17 1472.57C692.94 1462.7 696.58 1456.5 699.17 1453.68C700.96 1451.81 703.12 1450.33 705.514 1449.34C707.907 1448.35 710.48 1447.86 713.07 1447.92C710.07 1437.6 714.35 1431.55 717.46 1428.69C721.78 1424.69 728.38 1422.89 734.46 1423.5C733.09 1419.5 734.05 1416.76 735 1415.26C737.94 1410.64 745.32 1409.47 755.78 1411.95L931.32 1448.55L950.47 1442.55L952.25 1448.27L931.62 1454.69L930.85 1454.53L754.48 1417.76C744.87 1415.48 740.91 1417.11 740.07 1418.43C739.34 1419.58 739.76 1422.32 743.14 1426.57L739.3 1431.05C734.08 1428.05 725.92 1428.99 721.48 1433.05C717.3 1436.88 716.92 1442.85 720.36 1450.32L723.19 1456.46L716.74 1454.46C712.1 1453.01 706.57 1454.35 703.58 1457.66C700.81 1460.73 700.5 1465.06 702.69 1470.17C704.138 1472.97 706.323 1475.33 709.01 1476.98C712.89 1479.41 725.55 1485.11 733.12 1488.34L731.94 1494.1H695.84C691.84 1494.1 687.97 1497.82 687.36 1502.23C686.7 1506.99 690.03 1510.8 696.5 1512.69L835.94 1535.32L766.7 1567.99C761.46 1571.07 758.17 1578.66 759.78 1583.99C761.34 1589.12 767.34 1591.59 776.68 1590.99H776.88C789.53 1590.99 898.68 1572.41 955.03 1562.51L996.86 1541.6L999.55 1546.96L956.93 1568.27L956.5 1568.35C949.86 1569.51 793.92 1596.87 776.99 1596.99C775.87 1596.92 774.81 1597 773.8 1597Z" fill="black"/>
<path d="M797.14 1502.12H796.77L727.34 1493.59C726.946 1493.54 726.565 1493.42 726.22 1493.22C725.874 1493.03 725.57 1492.77 725.325 1492.45C724.831 1491.82 724.608 1491.02 724.705 1490.23C724.802 1489.43 725.211 1488.71 725.842 1488.21C726.473 1487.72 727.274 1487.49 728.07 1487.59L797.51 1496.12C798.305 1496.17 799.049 1496.53 799.577 1497.13C800.105 1497.73 800.374 1498.51 800.325 1499.31C800.276 1500.1 799.913 1500.84 799.315 1501.37C798.718 1501.9 797.935 1502.17 797.14 1502.12ZM814.36 1484.59C814.057 1484.59 813.757 1484.55 813.47 1484.45L715.7 1454C715.304 1453.9 714.932 1453.72 714.608 1453.47C714.284 1453.23 714.013 1452.92 713.814 1452.56C713.614 1452.2 713.489 1451.81 713.446 1451.4C713.403 1451 713.443 1450.59 713.565 1450.2C713.686 1449.81 713.885 1449.45 714.151 1449.14C714.417 1448.83 714.743 1448.58 715.109 1448.4C715.475 1448.22 715.875 1448.11 716.282 1448.09C716.69 1448.07 717.098 1448.14 717.48 1448.28L815.25 1478.71C815.931 1478.93 816.513 1479.38 816.891 1479.99C817.269 1480.59 817.418 1481.31 817.31 1482.02C817.203 1482.73 816.847 1483.37 816.306 1483.84C815.765 1484.31 815.075 1484.57 814.36 1484.57V1484.59ZM830.36 1458.77C830.062 1458.77 829.765 1458.73 829.48 1458.64L739.28 1430.91C738.903 1430.79 738.552 1430.61 738.248 1430.36C737.944 1430.1 737.693 1429.8 737.508 1429.45C737.323 1429.1 737.209 1428.72 737.172 1428.33C737.134 1427.93 737.174 1427.54 737.29 1427.16C737.405 1426.78 737.594 1426.43 737.845 1426.13C738.096 1425.83 738.404 1425.57 738.753 1425.39C739.101 1425.2 739.482 1425.09 739.875 1425.05C740.267 1425.01 740.663 1425.05 741.04 1425.17L831.25 1452.9C831.939 1453.11 832.53 1453.56 832.914 1454.17C833.298 1454.78 833.451 1455.51 833.343 1456.22C833.235 1456.93 832.874 1457.58 832.326 1458.05C831.778 1458.52 831.08 1458.77 830.36 1458.77Z" fill="black"/>
<path d="M1734.68 801.12L1725.19 846.47L1876.19 881.64V864.64C1875.85 841.64 1856.29 831 1846.56 828.57C1847.76 815.17 1838.33 812.68 1833.46 813.11C1837.28 804.868 1838.56 795.671 1837.11 786.7C1830.24 757.7 1802.76 753.7 1789.87 755.35C1818.22 717.22 1788.51 686.93 1770.12 676.55C1769.26 671.18 1766 658.43 1759.81 650.35C1749.34 634.89 1724.81 636.47 1713.87 639.19C1688.62 621.67 1674.87 638.47 1671.14 649.06L1661.58 650.35C1631.78 656.19 1634.06 685.14 1638.93 698.88C1638.38 698.88 1621.21 705.88 1613.13 711.64C1589.93 728.21 1593.7 761.36 1601.57 774.03C1591.98 776.976 1582.77 781.002 1574.09 786.03C1543.51 805.67 1553.86 840.81 1562.95 855.25L1657.18 842.25L1660.4 833.02C1661.26 834.09 1666.5 836.54 1680.58 837.74C1702.39 838.74 1721.58 817.41 1728.47 806.61C1701.41 825.29 1684.47 821.54 1673.75 815.29C1657.75 805.98 1647.41 776.14 1644.45 761.45C1665.56 753.78 1664.66 732.79 1661.58 723.26C1662.78 724.72 1668.27 727.64 1680.58 727.64C1700.91 727.92 1701.22 713.2 1698.84 705.8C1717.45 713.25 1727.59 702.7 1730.34 696.49C1734.92 719.4 1750.14 722.49 1757.18 721.19C1762.67 759.38 1744.47 790.38 1734.68 801.12Z" fill="black"/>
<path d="M1824.82 1621.57L1362.82 1593.12C1362.02 1593.07 1361.28 1592.71 1360.75 1592.11C1360.22 1591.52 1359.95 1590.74 1360 1589.94C1360.05 1589.14 1360.41 1588.4 1361.01 1587.87C1361.6 1587.34 1362.38 1587.07 1363.18 1587.12L1816.18 1615.01L1729.61 1367.42C1729.34 1366.67 1729.39 1365.84 1729.73 1365.13C1730.07 1364.41 1730.69 1363.86 1731.44 1363.59C1732.19 1363.32 1733.02 1363.37 1733.73 1363.71C1734.45 1364.06 1735 1364.67 1735.27 1365.42L1824.82 1621.57Z" fill="black"/>
<path d="M1536.46 860.87C1536.46 860.87 1569.35 850.39 1634.64 845.04L1663.79 933.65L1725.45 846.53C1753.11 851.31 1820.93 864.53 1870.89 879.13C1920.85 893.73 1952.58 939.81 1962.2 961.02L2083.33 1234.02L2286.86 1155.59L2345.44 1281.68C2280.24 1323.05 2136.55 1408.76 2083.33 1420.68C2016.61 1438.15 1974.78 1386.26 1962.2 1358.13L1859.94 1116.9L1870.94 1312.49H1482.66L1200.56 1345.63C1200.56 1345.63 1173.56 1352.16 1153.14 1365.16C1077.59 1413.16 999.14 1550.77 999.14 1550.77L945.52 1442.55L1306.92 1234.05C1342 1155 1416.14 989.61 1432 961C1456.65 903 1499.33 870.25 1536.46 860.87Z" fill="#FEDA00"/>
<path d="M1731.12 789H1725.87C1723.35 789 1710.5 784.8 1701.97 772.9C1701.74 772.58 1701.58 772.217 1701.49 771.833C1701.4 771.449 1701.38 771.052 1701.45 770.662C1701.51 770.273 1701.65 769.901 1701.86 769.566C1702.07 769.231 1702.34 768.94 1702.66 768.71C1702.98 768.481 1703.34 768.316 1703.73 768.226C1704.11 768.137 1704.51 768.123 1704.9 768.188C1705.29 768.252 1705.66 768.392 1705.99 768.6C1706.33 768.808 1706.62 769.08 1706.85 769.4C1710.28 774.154 1714.79 778.029 1720 780.71C1717.31 773.258 1716.54 765.247 1717.76 757.418C1718.98 749.59 1722.16 742.196 1727 735.92C1735.87 724.68 1749 723.43 1758.36 726.01C1758.75 726.106 1759.12 726.279 1759.44 726.519C1759.76 726.759 1760.03 727.061 1760.23 727.407C1760.44 727.753 1760.57 728.137 1760.62 728.535C1760.67 728.933 1760.64 729.338 1760.54 729.724C1760.43 730.111 1760.25 730.473 1760 730.787C1759.75 731.102 1759.44 731.363 1759.09 731.556C1758.73 731.749 1758.35 731.869 1757.95 731.909C1757.55 731.949 1757.14 731.909 1756.76 731.79C1749.27 729.72 1738.76 730.7 1731.76 739.63C1721.76 752.33 1720.41 770.79 1728.49 784.52L1731.12 789Z" fill="black"/>
<path d="M1678.55 724.5C1677.95 724.5 1677.37 724.322 1676.88 723.99C1676.38 723.658 1676 723.186 1675.78 722.635C1675.55 722.084 1675.49 721.478 1675.61 720.895C1675.73 720.312 1676.03 719.778 1676.45 719.36C1690.13 706.01 1705.35 712.61 1711.45 717.97C1712.02 718.502 1712.36 719.232 1712.4 720.008C1712.43 720.784 1712.17 721.545 1711.66 722.131C1711.15 722.717 1710.43 723.082 1709.66 723.149C1708.88 723.216 1708.11 722.98 1707.51 722.49C1702.81 718.39 1691.15 713.36 1680.61 723.65C1680.06 724.188 1679.32 724.492 1678.55 724.5Z" fill="black"/>
<path d="M1699.72 795.67H1699.63C1694.94 795.54 1684.92 792.67 1680.63 782.72C1680.45 782.356 1680.35 781.959 1680.33 781.553C1680.3 781.147 1680.37 780.741 1680.51 780.36C1680.65 779.979 1680.86 779.63 1681.14 779.335C1681.42 779.039 1681.76 778.804 1682.13 778.643C1682.5 778.481 1682.9 778.397 1683.31 778.396C1683.72 778.395 1684.12 778.476 1684.49 778.634C1684.87 778.793 1685.21 779.026 1685.49 779.319C1685.77 779.613 1685.99 779.96 1686.13 780.34C1689.23 787.5 1696.43 789.58 1699.81 789.67C1700.2 789.676 1700.59 789.76 1700.95 789.916C1701.32 790.072 1701.64 790.298 1701.92 790.581C1702.19 790.864 1702.41 791.198 1702.55 791.564C1702.7 791.93 1702.77 792.321 1702.76 792.715C1702.76 793.109 1702.68 793.498 1702.52 793.86C1702.36 794.222 1702.14 794.549 1701.85 794.823C1701.57 795.098 1701.24 795.314 1700.87 795.459C1700.51 795.604 1700.11 795.676 1699.72 795.67Z" fill="black"/>
<path d="M1703.35 743.07C1702.74 743.072 1702.15 742.888 1701.64 742.543C1701.14 742.199 1700.76 741.709 1700.54 741.14C1699.24 737.71 1696.05 733.14 1691.35 731.54C1687.35 730.18 1682.83 731.06 1677.8 734.14C1677.46 734.36 1677.09 734.51 1676.69 734.581C1676.3 734.653 1675.89 734.645 1675.5 734.557C1675.11 734.469 1674.74 734.304 1674.41 734.071C1674.09 733.838 1673.81 733.542 1673.6 733.2C1673.39 732.858 1673.25 732.478 1673.19 732.082C1673.13 731.685 1673.15 731.281 1673.25 730.892C1673.35 730.503 1673.52 730.138 1673.77 729.818C1674.01 729.499 1674.31 729.231 1674.66 729.03C1681.28 724.97 1687.54 723.9 1693.28 725.86C1699.95 728.13 1704.28 734.14 1706.15 739.01C1706.43 739.753 1706.41 740.578 1706.09 741.303C1705.76 742.029 1705.16 742.596 1704.42 742.88C1704.08 743.006 1703.71 743.07 1703.35 743.07Z" fill="black"/>
<path d="M1753.92 755.81C1753.36 755.811 1752.8 755.652 1752.33 755.353C1751.85 755.055 1751.47 754.627 1751.22 754.12C1749.62 750.82 1746.03 746.55 1741.22 745.37C1737.14 744.37 1732.69 745.66 1727.96 749.18C1727.32 749.655 1726.52 749.857 1725.73 749.74C1724.94 749.624 1724.23 749.2 1723.76 748.56C1723.29 747.921 1723.08 747.12 1723.2 746.332C1723.32 745.544 1723.74 744.835 1724.38 744.36C1730.61 739.73 1736.75 738.11 1742.64 739.54C1749.48 741.21 1754.36 746.81 1756.64 751.54C1756.98 752.255 1757.03 753.078 1756.77 753.828C1756.51 754.577 1755.96 755.193 1755.25 755.54C1754.83 755.733 1754.38 755.826 1753.92 755.81Z" fill="black"/>
<path d="M1690.01 740.95C1693.22 740.95 1695.82 738.349 1695.82 735.14C1695.82 731.931 1693.22 729.33 1690.01 729.33C1686.8 729.33 1684.2 731.931 1684.2 735.14C1684.2 738.349 1686.8 740.95 1690.01 740.95Z" fill="black"/>
<path d="M1740.19 754.891C1743.4 754.891 1746 752.289 1746 749.081C1746 745.872 1743.4 743.271 1740.19 743.271C1736.98 743.271 1734.38 745.872 1734.38 749.081C1734.38 752.289 1736.98 754.891 1740.19 754.891Z" fill="black"/>
<path d="M1100.1 2676.39L1322.51 2315C1300.2 2228 1268.98 2101.9 1240.16 1977.55L1514.87 2005.25L1635.64 2395.48L1574.19 2430.6L1543.46 2383.77V2443.77L1100.1 2676.39Z" fill="black"/>
<path d="M1091.82 2684.12L1319.29 2314.48C1306.06 2262.85 1272.29 2129.4 1237.29 1978.27V1978.13C1201.09 1821.91 1158.56 1624.58 1161.55 1571.48C1166.3 1487.25 1238.17 1459.11 1275.55 1455.99C1276.35 1455.92 1277.13 1456.18 1277.74 1456.69C1278.35 1457.21 1278.73 1457.94 1278.8 1458.74C1278.87 1459.54 1278.61 1460.33 1278.1 1460.93C1277.58 1461.54 1276.85 1461.92 1276.05 1461.99C1240.51 1464.99 1172.05 1491.73 1167.59 1571.84C1164.65 1624 1206.69 1819.25 1242.71 1974.77L1510.78 2001.77L1404.89 1659.64C1404.77 1659.26 1404.73 1658.87 1404.77 1658.47C1404.8 1658.08 1404.92 1657.7 1405.1 1657.35C1405.29 1657 1405.54 1656.69 1405.84 1656.44C1406.14 1656.19 1406.49 1656 1406.87 1655.88C1407.25 1655.76 1407.64 1655.72 1408.04 1655.76C1408.43 1655.79 1408.81 1655.91 1409.16 1656.09C1409.51 1656.28 1409.82 1656.53 1410.07 1656.83C1410.32 1657.13 1410.51 1657.48 1410.63 1657.86L1517.82 2004.26C1517.82 2004.26 1517.82 2004.35 1517.82 2004.39L1639.28 2396.85L1573.28 2434.57L1546.51 2393.77V2445.54L1091.82 2684.12ZM1244 1980.93C1279 2131.55 1312.51 2263.93 1325.39 2314.22L1325.7 2315.46L1108.35 2668.66L1540.43 2441.93V2373.7L1575.12 2426.57L1632.03 2394.04L1512.56 2008.04L1244 1980.93Z" fill="black"/>
<path d="M286 2121.27L699.39 2025.34C745.61 1948.28 813.3 1837.45 881.47 1729.53L1054.91 1944.36L862.26 2304.6L794.08 2285.6L805.77 2230.83L763.11 2273L286 2121.27Z" fill="black"/>
<path d="M863.77 2308.14L790.55 2287.71L800.74 2240L763.93 2276.4L762.2 2275.85L274.63 2120.85L697.42 2022.74C724.9 1976.93 796.17 1858.9 878.84 1728.02L878.92 1727.9C964.57 1592.32 1075.01 1423.34 1114.86 1388.15C1147.96 1358.92 1162.86 1351.88 1203.48 1346.33C1204.25 1346.25 1205.03 1346.47 1205.64 1346.95C1206.25 1347.44 1206.65 1348.13 1206.76 1348.9C1206.86 1349.67 1206.67 1350.46 1206.21 1351.08C1205.75 1351.71 1205.07 1352.14 1204.3 1352.27C1164.74 1357.68 1151.16 1364.1 1118.84 1392.65C1079.69 1427.22 970.38 1594.4 885.1 1729.35L1054.35 1939L1178.63 1706.34C1179 1705.64 1179.64 1705.11 1180.4 1704.88C1181.16 1704.65 1181.99 1704.73 1182.69 1705.1C1183.39 1705.47 1183.92 1706.11 1184.15 1706.87C1184.38 1707.63 1184.3 1708.46 1183.93 1709.16L1057.54 1945.77C1057.52 1945.81 1057.5 1945.85 1057.47 1945.89L863.77 2308.14ZM797.6 2283.45L860.74 2301.06L1051.28 1944.7L881.72 1734.7C799.35 1865.18 728.65 1982.32 701.91 2026.9L701.26 2027.99L700.02 2028.28L297.28 2121.74L762.28 2269.6L810.79 2221.6L797.6 2283.45Z" fill="black"/>
<path d="M1481.91 1317.36C1481.73 1317.37 1481.56 1317.37 1481.38 1317.36C1480.6 1317.22 1479.9 1316.77 1479.45 1316.12C1479 1315.47 1478.82 1314.66 1478.96 1313.88L1519.85 1085.81C1519.9 1085.41 1520.04 1085.02 1520.25 1084.68C1520.45 1084.33 1520.73 1084.03 1521.06 1083.79C1521.38 1083.55 1521.76 1083.38 1522.15 1083.29C1522.55 1083.2 1522.95 1083.19 1523.35 1083.26C1523.75 1083.33 1524.13 1083.48 1524.47 1083.71C1524.81 1083.93 1525.1 1084.22 1525.32 1084.55C1525.55 1084.89 1525.7 1085.27 1525.77 1085.67C1525.85 1086.07 1525.84 1086.48 1525.75 1086.87L1484.86 1314.94C1484.73 1315.62 1484.36 1316.24 1483.82 1316.68C1483.28 1317.12 1482.61 1317.36 1481.91 1317.36Z" fill="black"/>
<path d="M1860.27 1114.88C1859.51 1114.88 1858.78 1114.6 1858.23 1114.08C1857.67 1113.57 1857.33 1112.87 1857.27 1112.11L1853.68 1065.22C1853.62 1064.42 1853.88 1063.64 1854.4 1063.03C1854.92 1062.43 1855.65 1062.05 1856.45 1061.99C1857.25 1061.93 1858.03 1062.19 1858.64 1062.71C1859.24 1063.23 1859.62 1063.96 1859.68 1064.76L1863.27 1111.65C1863.33 1112.44 1863.07 1113.23 1862.56 1113.83C1862.04 1114.44 1861.3 1114.81 1860.51 1114.87L1860.27 1114.88Z" fill="black"/>
<path d="M2501.28 1050.94C2447.75 1050.94 2395.88 1032.37 2354.5 998.414C2313.12 964.453 2284.8 917.195 2274.35 864.693C2263.91 812.191 2272 757.692 2297.23 710.483C2322.47 663.274 2363.29 626.275 2412.75 605.791C2462.2 585.307 2517.23 582.604 2568.46 598.144C2619.68 613.684 2663.94 646.504 2693.68 691.013C2723.42 735.523 2736.8 788.967 2731.56 842.24C2726.31 895.512 2702.75 945.318 2664.9 983.17C2643.46 1004.72 2617.96 1021.81 2589.88 1033.45C2561.79 1045.08 2531.68 1051.02 2501.28 1050.94ZM2501.28 594.17C2449.13 594.172 2398.6 612.255 2358.3 645.338C2317.99 678.421 2290.4 724.457 2280.23 775.601C2270.06 826.746 2277.94 879.834 2302.52 925.821C2327.11 971.807 2366.87 1007.85 2415.05 1027.8C2463.23 1047.75 2516.84 1050.38 2566.73 1035.24C2616.63 1020.1 2659.74 988.124 2688.71 944.764C2717.67 901.404 2730.71 849.342 2725.59 797.448C2720.48 745.554 2697.53 697.039 2660.65 660.17C2639.77 639.178 2614.93 622.536 2587.58 611.207C2560.22 599.878 2530.89 594.087 2501.28 594.17Z" fill="black"/>
<path d="M2501.28 972.48C2413.78 972.48 2342.6 901.3 2342.6 813.8C2342.6 726.3 2413.78 655.12 2501.28 655.12C2588.78 655.12 2660 726.31 2660 813.8C2660 901.29 2588.78 972.48 2501.28 972.48ZM2501.28 661.12C2417.09 661.12 2348.6 729.61 2348.6 813.8C2348.6 897.99 2417.09 966.48 2501.28 966.48C2585.47 966.48 2654 898 2654 813.8C2654 729.6 2585.47 661.12 2501.28 661.12Z" fill="black"/>
<path d="M2561.69 857.54C2542.82 857.54 2526.13 848.3 2516.31 838.81L2516.22 838.73C2514.54 836.97 2512.71 834.95 2510.8 832.73C2507.56 836.345 2503.73 839.387 2499.48 841.73C2496.23 843.629 2492.63 844.863 2488.89 845.36C2488.49 845.408 2488.08 845.374 2487.69 845.26C2487.31 845.422 2486.91 845.511 2486.5 845.52C2484.01 845.556 2481.54 845.171 2479.18 844.38C2478.61 844.199 2478.1 843.851 2477.73 843.38C2477.13 843.471 2476.52 843.373 2475.98 843.1C2474.11 842.164 2472.34 841.028 2470.71 839.71C2470.78 839.172 2470.72 838.625 2470.53 838.115C2470.35 837.606 2470.04 837.148 2469.64 836.78C2469.25 836.412 2468.77 836.145 2468.24 836C2467.72 835.856 2467.17 835.838 2466.64 835.95C2454.56 823.1 2446.74 799.42 2443.45 781.54C2443.31 780.76 2443.49 779.957 2443.94 779.306C2444.39 778.656 2445.08 778.21 2445.86 778.066C2446.64 777.922 2447.44 778.092 2448.1 778.538C2448.75 778.985 2449.2 779.672 2449.35 780.45C2452.35 796.71 2459.81 819.93 2471.02 831.84C2471.35 832.188 2471.58 832.61 2471.71 833.069C2471.84 833.528 2471.86 834.012 2471.77 834.48C2472.23 834.349 2472.71 834.33 2473.18 834.424C2473.65 834.518 2474.09 834.722 2474.46 835.02C2475.75 836.073 2477.15 836.981 2478.64 837.73C2479.06 837.931 2479.42 838.23 2479.7 838.6C2480.16 838.535 2480.62 838.576 2481.06 838.72C2482.79 839.296 2484.6 839.58 2486.42 839.56C2486.72 839.551 2487.02 839.592 2487.31 839.68C2487.59 839.558 2487.89 839.477 2488.19 839.44C2491.14 839.031 2493.97 838.046 2496.54 836.54C2500.5 834.345 2504.02 831.448 2506.94 827.99C2493 810.25 2477.19 782.82 2482.6 761.42C2485.21 751.12 2489.6 745.63 2495.6 745.12C2503.76 744.41 2511.88 754.02 2515.99 763.24V763.34C2522.21 778.69 2527.7 807.67 2514.54 827.83C2516.68 830.4 2518.71 832.67 2520.54 834.56C2531.77 845.38 2552.77 855.85 2575.04 849.8C2575.51 849.672 2576 849.66 2576.47 849.765C2576.95 849.869 2577.39 850.087 2577.76 850.4C2577.88 849.928 2578.11 849.493 2578.43 849.13C2578.76 848.768 2579.16 848.49 2579.62 848.32C2580.62 847.94 2581.7 847.51 2582.74 847.05C2583.17 847.071 2583.61 846.986 2584 846.803C2584.39 846.62 2584.74 846.345 2585 846C2586.79 845.113 2588.52 844.135 2590.21 843.07C2590.57 842.842 2590.98 842.695 2591.41 842.64C2591.63 842.276 2591.93 841.966 2592.28 841.73C2593.99 840.56 2595.68 839.29 2597.28 837.97C2597.58 837.729 2597.92 837.543 2598.28 837.42C2598.46 837.083 2598.69 836.781 2598.98 836.53C2602.47 833.476 2605.73 830.167 2608.73 826.63C2609.25 826.06 2609.98 825.716 2610.75 825.669C2611.53 825.622 2612.29 825.875 2612.88 826.377C2613.47 826.878 2613.84 827.588 2613.92 828.358C2614 829.128 2613.78 829.899 2613.3 830.51C2610.1 834.263 2606.62 837.77 2602.89 841C2602.58 841.27 2602.22 841.474 2601.83 841.6C2601.65 841.985 2601.39 842.327 2601.06 842.6C2599.31 844.04 2597.48 845.41 2595.62 846.67C2595.24 846.938 2594.79 847.109 2594.33 847.17C2594.08 847.578 2593.74 847.921 2593.33 848.17C2591.47 849.342 2589.56 850.417 2587.59 851.39C2587.16 851.6 2586.69 851.706 2586.22 851.7C2585.92 852.079 2585.53 852.379 2585.09 852.57C2583.95 853.08 2582.79 853.57 2581.65 853.97C2581.23 853.65 2580.74 853.436 2580.22 853.347C2579.7 853.258 2579.17 853.297 2578.67 853.459C2578.17 853.621 2577.71 853.902 2577.34 854.279C2576.97 854.655 2576.7 855.115 2576.55 855.62C2571.7 856.913 2566.71 857.558 2561.69 857.54ZM2496.4 751.05H2496.07C2492.99 751.31 2490.28 755.5 2488.42 762.84C2485.81 773.15 2488.8 786.75 2497.06 802.18C2501 809.399 2505.5 816.291 2510.54 822.79C2521.02 804.79 2515.98 779.29 2510.44 765.59C2506.79 757.45 2500.59 751.05 2496.4 751.05Z" fill="black"/>
</svg>
