<svg width="3000" height="3000" viewBox="0 0 3000 3000" fill="none" xmlns="http://www.w3.org/2000/svg">
<path d="M2644.41 1016.89C2642.76 1016.89 2641.15 1016.4 2639.78 1015.49C2638.41 1014.57 2637.34 1013.27 2636.71 1011.75C2636.08 1010.23 2635.92 1008.55 2636.24 1006.93C2636.56 1005.32 2637.35 1003.83 2638.52 1002.67C2639.68 1001.5 2641.17 1000.71 2642.79 1000.39C2644.4 1000.07 2646.08 1000.23 2647.6 1000.86C2649.12 1001.49 2650.42 1002.56 2651.34 1003.93C2652.25 1005.3 2652.74 1006.91 2652.74 1008.56C2652.74 1010.77 2651.86 1012.89 2650.3 1014.45C2648.74 1016.01 2646.62 1016.89 2644.41 1016.89ZM2644.41 1006.23C2643.95 1006.23 2643.5 1006.37 2643.12 1006.62C2642.73 1006.88 2642.43 1007.24 2642.26 1007.67C2642.08 1008.09 2642.03 1008.56 2642.12 1009.01C2642.21 1009.47 2642.44 1009.88 2642.76 1010.21C2643.09 1010.53 2643.5 1010.76 2643.96 1010.85C2644.41 1010.94 2644.88 1010.89 2645.3 1010.71C2645.73 1010.54 2646.09 1010.24 2646.35 1009.85C2646.6 1009.47 2646.74 1009.02 2646.74 1008.56C2646.74 1007.94 2646.49 1007.35 2646.06 1006.91C2645.62 1006.48 2645.03 1006.23 2644.41 1006.23Z" fill="black"/>
<path d="M2598.37 1722.39C2596.72 1722.39 2595.11 1721.9 2593.74 1720.99C2592.37 1720.07 2591.3 1718.77 2590.67 1717.25C2590.04 1715.73 2589.88 1714.05 2590.2 1712.43C2590.52 1710.82 2591.31 1709.33 2592.48 1708.17C2593.64 1707 2595.13 1706.21 2596.74 1705.89C2598.36 1705.57 2600.03 1705.73 2601.56 1706.36C2603.08 1706.99 2604.38 1708.06 2605.3 1709.43C2606.21 1710.8 2606.7 1712.41 2606.7 1714.06C2606.7 1716.27 2605.82 1718.39 2604.26 1719.95C2602.69 1721.51 2600.58 1722.39 2598.37 1722.39ZM2598.37 1711.73C2597.91 1711.73 2597.46 1711.87 2597.07 1712.12C2596.69 1712.38 2596.39 1712.74 2596.22 1713.17C2596.04 1713.59 2595.99 1714.06 2596.08 1714.51C2596.17 1714.97 2596.4 1715.38 2596.72 1715.71C2597.05 1716.03 2597.46 1716.26 2597.91 1716.35C2598.37 1716.44 2598.84 1716.39 2599.26 1716.21C2599.69 1716.04 2600.05 1715.74 2600.31 1715.35C2600.56 1714.97 2600.7 1714.52 2600.7 1714.06C2600.7 1713.44 2600.45 1712.85 2600.02 1712.41C2599.58 1711.98 2598.99 1711.73 2598.37 1711.73Z" fill="black"/>
<path d="M1731.34 1780C1729.69 1780 1728.08 1779.51 1726.71 1778.6C1725.34 1777.68 1724.27 1776.38 1723.64 1774.86C1723.01 1773.34 1722.85 1771.66 1723.17 1770.04C1723.49 1768.43 1724.28 1766.94 1725.45 1765.78C1726.61 1764.61 1728.1 1763.82 1729.71 1763.5C1731.33 1763.18 1733.01 1763.34 1734.53 1763.97C1736.05 1764.6 1737.35 1765.67 1738.27 1767.04C1739.18 1768.41 1739.67 1770.02 1739.67 1771.67C1739.67 1773.88 1738.79 1776 1737.23 1777.56C1735.67 1779.12 1733.55 1780 1731.34 1780ZM1731.34 1769.34C1730.88 1769.34 1730.43 1769.48 1730.05 1769.73C1729.66 1769.99 1729.36 1770.35 1729.19 1770.78C1729.01 1771.2 1728.96 1771.67 1729.05 1772.12C1729.14 1772.58 1729.37 1772.99 1729.69 1773.32C1730.02 1773.64 1730.43 1773.87 1730.89 1773.96C1731.34 1774.04 1731.81 1774 1732.23 1773.82C1732.66 1773.65 1733.02 1773.35 1733.28 1772.96C1733.53 1772.58 1733.67 1772.13 1733.67 1771.67C1733.68 1771.36 1733.62 1771.05 1733.51 1770.76C1733.39 1770.47 1733.22 1770.21 1733.01 1769.99C1732.79 1769.77 1732.53 1769.59 1732.24 1769.47C1731.96 1769.35 1731.65 1769.29 1731.34 1769.29V1769.34Z" fill="black"/>
<path d="M437.55 1141.64C435.902 1141.64 434.292 1141.15 432.922 1140.24C431.552 1139.32 430.484 1138.02 429.854 1136.5C429.223 1134.98 429.058 1133.3 429.38 1131.68C429.701 1130.07 430.495 1128.58 431.66 1127.42C432.824 1126.25 434.309 1125.46 435.925 1125.14C437.54 1124.82 439.215 1124.98 440.737 1125.61C442.26 1126.24 443.561 1127.31 444.476 1128.68C445.391 1130.05 445.88 1131.66 445.88 1133.31C445.877 1135.52 444.999 1137.64 443.437 1139.2C441.875 1140.76 439.758 1141.64 437.55 1141.64ZM437.55 1130.98C437.089 1130.98 436.638 1131.12 436.255 1131.37C435.872 1131.63 435.573 1131.99 435.397 1132.42C435.221 1132.84 435.175 1133.31 435.264 1133.76C435.354 1134.22 435.576 1134.63 435.902 1134.96C436.228 1135.28 436.643 1135.51 437.095 1135.6C437.547 1135.69 438.016 1135.64 438.441 1135.46C438.867 1135.29 439.231 1134.99 439.487 1134.6C439.743 1134.22 439.88 1133.77 439.88 1133.31C439.874 1132.7 439.627 1132.11 439.19 1131.68C438.754 1131.24 438.164 1131 437.55 1131V1130.98Z" fill="black"/>
<path d="M869.08 2443.56C867.433 2443.56 865.823 2443.07 864.455 2442.15C863.086 2441.24 862.02 2439.93 861.391 2438.41C860.762 2436.89 860.598 2435.21 860.921 2433.6C861.244 2431.98 862.038 2430.5 863.203 2429.34C864.368 2428.17 865.853 2427.38 867.468 2427.06C869.084 2426.74 870.758 2426.9 872.28 2427.54C873.801 2428.17 875.102 2429.23 876.017 2430.6C876.931 2431.97 877.42 2433.58 877.42 2435.23C877.417 2437.44 876.537 2439.56 874.974 2441.12C873.41 2442.68 871.29 2443.56 869.08 2443.56ZM869.08 2432.9C868.619 2432.9 868.17 2433.04 867.788 2433.3C867.406 2433.56 867.109 2433.92 866.934 2434.35C866.759 2434.77 866.715 2435.24 866.806 2435.69C866.897 2436.14 867.12 2436.56 867.446 2436.88C867.772 2437.21 868.187 2437.43 868.639 2437.52C869.091 2437.61 869.559 2437.56 869.984 2437.38C870.409 2437.21 870.772 2436.91 871.028 2436.52C871.283 2436.14 871.42 2435.69 871.42 2435.23C871.42 2434.92 871.359 2434.62 871.241 2434.34C871.124 2434.05 870.951 2433.8 870.734 2433.58C870.516 2433.36 870.258 2433.19 869.975 2433.07C869.691 2432.96 869.387 2432.9 869.08 2432.9Z" fill="black"/>
<path d="M1622.2 474C1620.55 474.002 1618.94 473.514 1617.56 472.598C1616.19 471.683 1615.12 470.38 1614.49 468.856C1613.85 467.332 1613.69 465.654 1614.01 464.035C1614.33 462.416 1615.13 460.93 1616.29 459.763C1617.46 458.596 1618.95 457.801 1620.57 457.48C1622.18 457.158 1623.86 457.324 1625.39 457.957C1626.91 458.589 1628.21 459.66 1629.13 461.033C1630.04 462.406 1630.53 464.019 1630.53 465.67C1630.53 467.878 1629.65 469.996 1628.09 471.557C1626.53 473.119 1624.41 473.997 1622.2 474ZM1622.2 463.33C1621.74 463.328 1621.28 463.463 1620.9 463.719C1620.51 463.975 1620.21 464.34 1620.03 464.767C1619.85 465.195 1619.8 465.666 1619.89 466.12C1619.98 466.575 1620.2 466.993 1620.53 467.321C1620.86 467.649 1621.28 467.873 1621.73 467.964C1622.18 468.055 1622.65 468.009 1623.08 467.833C1623.51 467.656 1623.88 467.356 1624.13 466.971C1624.39 466.586 1624.53 466.133 1624.53 465.67C1624.52 465.056 1624.27 464.47 1623.84 464.038C1623.4 463.606 1622.81 463.362 1622.2 463.36V463.33Z" fill="black"/>
<path d="M1712.68 2436.17C1711.03 2436.17 1709.42 2435.68 1708.05 2434.77C1706.68 2433.85 1705.61 2432.55 1704.98 2431.03C1704.35 2429.51 1704.19 2427.83 1704.51 2426.21C1704.83 2424.6 1705.62 2423.11 1706.79 2421.95C1707.95 2420.78 1709.44 2419.99 1711.05 2419.67C1712.67 2419.35 1714.35 2419.51 1715.87 2420.14C1717.39 2420.77 1718.69 2421.84 1719.61 2423.21C1720.52 2424.58 1721.01 2426.19 1721.01 2427.84C1721.01 2430.05 1720.13 2432.17 1718.57 2433.73C1717.01 2435.29 1714.89 2436.17 1712.68 2436.17ZM1712.68 2425.51C1712.22 2425.51 1711.77 2425.65 1711.39 2425.9C1711 2426.16 1710.7 2426.52 1710.53 2426.95C1710.35 2427.37 1710.3 2427.84 1710.39 2428.29C1710.48 2428.75 1710.71 2429.16 1711.03 2429.49C1711.36 2429.81 1711.77 2430.04 1712.23 2430.12C1712.68 2430.21 1713.15 2430.17 1713.57 2429.99C1714 2429.82 1714.36 2429.52 1714.62 2429.13C1714.87 2428.75 1715.01 2428.3 1715.01 2427.84C1715.01 2427.22 1714.76 2426.63 1714.33 2426.19C1713.89 2425.76 1713.3 2425.51 1712.68 2425.51Z" fill="black"/>
<path d="M1291.34 869.11C1289.69 869.11 1288.08 868.622 1286.71 867.706C1285.34 866.791 1284.27 865.49 1283.64 863.968C1283.01 862.446 1282.85 860.771 1283.17 859.155C1283.49 857.539 1284.28 856.055 1285.45 854.89C1286.61 853.725 1288.1 852.932 1289.71 852.61C1291.33 852.289 1293.01 852.454 1294.53 853.084C1296.05 853.715 1297.35 854.782 1298.27 856.152C1299.18 857.522 1299.67 859.133 1299.67 860.78C1299.67 862.989 1298.79 865.106 1297.23 866.667C1295.67 868.229 1293.55 869.108 1291.34 869.11ZM1291.34 858.45C1290.88 858.45 1290.43 858.587 1290.05 858.843C1289.66 859.099 1289.36 859.463 1289.19 859.889C1289.01 860.314 1288.96 860.783 1289.05 861.235C1289.14 861.687 1289.37 862.102 1289.69 862.428C1290.02 862.754 1290.43 862.976 1290.89 863.065C1291.34 863.155 1291.81 863.109 1292.23 862.933C1292.66 862.756 1293.02 862.458 1293.28 862.075C1293.53 861.691 1293.67 861.241 1293.67 860.78C1293.67 860.162 1293.42 859.57 1292.99 859.133C1292.55 858.696 1291.96 858.45 1291.34 858.45Z" fill="black"/>
<path d="M874.43 1375.45C873.798 1375.45 873.182 1375.25 872.67 1374.88L843.31 1353.53C842.665 1353.06 842.233 1352.36 842.108 1351.57C841.984 1350.78 842.177 1349.98 842.645 1349.34C843.113 1348.69 843.818 1348.26 844.604 1348.13C845.391 1348.01 846.195 1348.2 846.84 1348.67L876.2 1370C876.714 1370.37 877.097 1370.9 877.293 1371.5C877.49 1372.11 877.489 1372.76 877.293 1373.36C877.096 1373.96 876.713 1374.49 876.198 1374.86C875.684 1375.23 875.065 1375.43 874.43 1375.43V1375.45Z" fill="black"/>
<path d="M1330 190.18C1329.37 190.18 1328.75 189.981 1328.24 189.61L1298.88 168.26C1298.56 168.029 1298.29 167.737 1298.08 167.402C1297.88 167.066 1297.74 166.693 1297.68 166.304C1297.62 165.915 1297.63 165.517 1297.72 165.134C1297.81 164.751 1297.98 164.389 1298.21 164.07C1298.44 163.751 1298.73 163.48 1299.07 163.274C1299.4 163.068 1299.78 162.929 1300.17 162.867C1300.56 162.805 1300.95 162.82 1301.34 162.911C1301.72 163.003 1302.08 163.169 1302.4 163.4L1331.76 184.76C1332.27 185.133 1332.65 185.658 1332.84 186.258C1333.04 186.859 1333.04 187.506 1332.84 188.107C1332.65 188.707 1332.27 189.231 1331.76 189.603C1331.25 189.975 1330.63 190.177 1330 190.18Z" fill="black"/>
<path d="M327.55 2521.47C326.911 2521.47 326.289 2521.27 325.774 2520.89C325.259 2520.51 324.877 2519.98 324.685 2519.37C324.494 2518.76 324.501 2518.11 324.707 2517.5C324.913 2516.9 325.306 2516.38 325.83 2516.01L355.62 2495.26C356.273 2494.83 357.067 2494.67 357.834 2494.82C358.601 2494.97 359.28 2495.41 359.726 2496.05C360.173 2496.69 360.352 2497.48 360.226 2498.25C360.099 2499.02 359.678 2499.72 359.05 2500.18L329.26 2520.93C328.76 2521.28 328.162 2521.47 327.55 2521.47Z" fill="black"/>
<path d="M2638.84 2642.12C2638.2 2642.12 2637.58 2641.92 2637.06 2641.54C2636.55 2641.16 2636.17 2640.63 2635.98 2640.02C2635.78 2639.41 2635.79 2638.76 2636 2638.15C2636.2 2637.55 2636.6 2637.03 2637.12 2636.66L2666.92 2615.91C2667.57 2615.5 2668.36 2615.37 2669.11 2615.52C2669.86 2615.68 2670.53 2616.12 2670.97 2616.75C2671.4 2617.38 2671.58 2618.15 2671.47 2618.91C2671.35 2619.67 2670.95 2620.36 2670.34 2620.83L2640.55 2641.58C2640.05 2641.93 2639.45 2642.12 2638.84 2642.12Z" fill="black"/>
<path d="M1983.71 2052.84C1983.07 2052.84 1982.45 2052.63 1981.94 2052.26C1981.42 2051.88 1981.04 2051.35 1980.85 2050.74C1980.66 2050.13 1980.67 2049.47 1980.88 2048.87C1981.08 2048.27 1981.48 2047.74 1982 2047.38L2011.79 2026.63C2012.11 2026.38 2012.48 2026.2 2012.87 2026.1C2013.27 2025.99 2013.68 2025.97 2014.08 2026.04C2014.48 2026.1 2014.87 2026.24 2015.22 2026.46C2015.56 2026.67 2015.86 2026.95 2016.09 2027.29C2016.32 2027.62 2016.49 2028 2016.57 2028.4C2016.65 2028.8 2016.65 2029.21 2016.57 2029.61C2016.48 2030.01 2016.32 2030.38 2016.09 2030.72C2015.85 2031.05 2015.56 2031.34 2015.21 2031.55L1985.42 2052.3C1984.92 2052.65 1984.32 2052.84 1983.71 2052.84Z" fill="black"/>
<path d="M1282.08 2724.31C1281.44 2724.31 1280.82 2724.1 1280.31 2723.73C1279.79 2723.35 1279.41 2722.81 1279.22 2722.21C1279.03 2721.6 1279.04 2720.94 1279.25 2720.34C1279.45 2719.74 1279.85 2719.21 1280.37 2718.85L1310.16 2698.1C1310.48 2697.85 1310.85 2697.67 1311.24 2697.57C1311.64 2697.46 1312.05 2697.44 1312.45 2697.51C1312.85 2697.57 1313.24 2697.71 1313.59 2697.93C1313.93 2698.14 1314.23 2698.42 1314.46 2698.76C1314.69 2699.09 1314.86 2699.47 1314.94 2699.87C1315.02 2700.27 1315.02 2700.68 1314.94 2701.08C1314.85 2701.48 1314.69 2701.85 1314.46 2702.19C1314.22 2702.52 1313.93 2702.8 1313.58 2703.02L1283.79 2723.77C1283.29 2724.12 1282.69 2724.31 1282.08 2724.31Z" fill="black"/>
<path d="M347.72 586.7C347.082 586.698 346.461 586.494 345.948 586.115C345.434 585.737 345.055 585.205 344.864 584.596C344.674 583.988 344.682 583.334 344.888 582.731C345.094 582.127 345.487 581.605 346.01 581.24L375.79 560.49C376.112 560.251 376.479 560.08 376.869 559.985C377.259 559.891 377.664 559.876 378.06 559.941C378.456 560.006 378.834 560.149 379.174 560.363C379.513 560.577 379.806 560.857 380.035 561.186C380.265 561.515 380.426 561.886 380.509 562.279C380.592 562.671 380.596 563.076 380.52 563.47C380.444 563.864 380.29 564.238 380.066 564.572C379.843 564.905 379.555 565.19 379.22 565.41L349.44 586.16C348.936 586.512 348.335 586.7 347.72 586.7Z" fill="black"/>
<path d="M2147 552.49C2146.3 552.489 2145.63 552.245 2145.09 551.8C2144.55 551.354 2144.18 550.736 2144.05 550.05C2143.92 549.364 2144.04 548.654 2144.37 548.043C2144.71 547.431 2145.25 546.956 2145.9 546.7L2179.69 533.43C2180.42 533.162 2181.23 533.191 2181.95 533.512C2182.66 533.833 2183.22 534.42 2183.51 535.148C2183.8 535.876 2183.79 536.687 2183.48 537.408C2183.18 538.13 2182.61 538.704 2181.89 539.01L2148.1 552.29C2147.75 552.425 2147.38 552.493 2147 552.49Z" fill="black"/>
<path d="M2617.57 220.65C2617.07 220.65 2616.58 220.525 2616.14 220.286C2615.69 220.046 2615.32 219.701 2615.05 219.28L2595.3 188.82C2594.95 188.159 2594.86 187.392 2595.05 186.668C2595.23 185.944 2595.68 185.315 2596.31 184.906C2596.93 184.497 2597.69 184.336 2598.43 184.455C2599.17 184.574 2599.83 184.965 2600.3 185.55L2620.09 216C2620.3 216.331 2620.45 216.701 2620.52 217.089C2620.59 217.476 2620.59 217.874 2620.5 218.26C2620.42 218.645 2620.26 219.01 2620.04 219.335C2619.82 219.659 2619.53 219.936 2619.2 220.15C2618.72 220.471 2618.15 220.645 2617.57 220.65Z" fill="black"/>
<path d="M377.51 1871.18C377.009 1871.18 376.516 1871.05 376.076 1870.82C375.635 1870.58 375.262 1870.23 374.99 1869.81L355.24 1839.35C354.976 1839.02 354.784 1838.65 354.675 1838.24C354.567 1837.83 354.545 1837.41 354.61 1837C354.675 1836.58 354.827 1836.19 355.055 1835.83C355.284 1835.48 355.583 1835.18 355.935 1834.95C356.286 1834.72 356.682 1834.57 357.096 1834.5C357.511 1834.44 357.935 1834.46 358.34 1834.56C358.746 1834.67 359.125 1834.86 359.452 1835.13C359.779 1835.39 360.048 1835.72 360.24 1836.09L380 1866.55C380.293 1867 380.459 1867.53 380.479 1868.07C380.5 1868.61 380.374 1869.14 380.116 1869.61C379.858 1870.09 379.477 1870.48 379.013 1870.76C378.549 1871.03 378.02 1871.18 377.48 1871.18H377.51Z" fill="black"/>
<path d="M2406.89 304.49L2428.71 422.43L2521.71 383.81L2435.45 451.52L2512.55 489.43L2423.21 472.78L2441.92 583.58L2395.83 475.82L2314.58 563.77L2368.08 463.53L2287.71 436.53L2364.54 431.72L2341.49 382.22L2386.24 417.66L2406.89 304.49Z" fill="black"/>
<path d="M504.63 1714.57L460.37 1611.07L382.26 1695.62L377.41 1692.17L429.23 1595.06L352.23 1569.2L352.99 1563.37L425.44 1558.83L404.24 1513.32L408.83 1509.7L449.66 1542L469.42 1433.72H475.32L496.47 1548.02L586.03 1510.82L589.03 1515.95L506.52 1580.71L579.33 1616.52L577.46 1622.16L492.34 1606.3L510.34 1712.86L504.63 1714.57ZM462.24 1600.19L500.24 1689.03L485 1598.85L557.06 1612.29L495.3 1581.92L568.07 1524.8L491.91 1556.43L472.39 1450.9L453.77 1552.9L415 1522.26L434.56 1564.26L368.64 1568.39L437.83 1591.61L393.66 1674.39L462.24 1600.19Z" fill="black"/>
<path d="M2412.11 1585L2420.19 1628.66L2454.61 1614.36L2422.68 1639.42L2451.21 1653.42L2418.15 1647.25L2425.07 1688.25L2408 1648.36L2377.93 1680.92L2397.73 1643.82L2367.98 1633.82L2396.42 1632.04L2387.89 1613.72L2404.45 1626.84L2412.11 1585Z" fill="black"/>
<path d="M2246 1485.33L2258.57 1553.26L2312.1 1531L2262.42 1570L2306.82 1591.83L2255.37 1582.24L2266.15 1646.05L2239.61 1584L2192.81 1634.65L2223.62 1576.93L2177.34 1561.38L2221.59 1558.61L2208.31 1530.11L2234.08 1550.52L2246 1485.33Z" fill="black"/>
<path d="M988.52 170.79L995.86 210.44L1027.12 197.44L998.12 220.2L1024 233L994 227.4L1000.3 264.65L984.8 228.42L957.48 258L975.48 224.3L948.48 215.23L974.31 213.61L966.56 196.97L981.61 208.89L988.52 170.79Z" fill="black"/>
<path d="M631.47 302.88L644 370.81L697.56 348.57L647.88 387.57L692.28 409.41L640.83 399.81L651.61 463.63L625.06 401.57L578.3 452.21L609.11 394.48L562.82 378.94L607.07 376.17L593.8 347.66L619.57 368.08L631.47 302.88Z" fill="black"/>
<path d="M2217.27 1483.55L2178 1392.45C2177.82 1392.09 2177.72 1391.69 2177.7 1391.28C2177.67 1390.88 2177.74 1390.47 2177.88 1390.09C2178.02 1389.71 2178.23 1389.36 2178.51 1389.06C2178.79 1388.77 2179.13 1388.53 2179.5 1388.37C2179.87 1388.21 2180.27 1388.13 2180.68 1388.13C2181.09 1388.12 2181.49 1388.21 2181.86 1388.36C2182.24 1388.52 2182.58 1388.76 2182.86 1389.05C2183.14 1389.34 2183.36 1389.69 2183.5 1390.07L2220.93 1476.89L2342.27 1457.72L2424.62 1411.26C2429.71 1407.59 2432.25 1403.84 2431.76 1402.32C2431.37 1401.07 2427.76 1398.95 2416.69 1398.86C2393.69 1398.86 2367.43 1407.5 2356.79 1412.07L2353.84 1406.89L2420.54 1358.18L2492.3 1335.9C2493.57 1335.24 2494.57 1334.16 2495.13 1332.85C2495.7 1331.53 2495.78 1330.06 2495.38 1328.69C2494.24 1324.9 2488.68 1321.6 2476.51 1323.69L2412.75 1341.45L2373.75 1373.8C2373.14 1374.31 2372.35 1374.55 2371.55 1374.48C2370.76 1374.41 2370.03 1374.02 2369.52 1373.41C2369.01 1372.8 2368.77 1372.01 2368.84 1371.21C2368.91 1370.42 2369.3 1369.69 2369.91 1369.18L2409.91 1336.01L2473.06 1318.42C2473.23 1314.82 2472.47 1310.3 2469.77 1307.26C2467.57 1304.78 2464.19 1303.52 2459.88 1303.57L2385.71 1331.1L2357.93 1365C2357.68 1365.32 2357.38 1365.58 2357.03 1365.78C2356.68 1365.98 2356.29 1366.1 2355.89 1366.15C2355.5 1366.19 2355.09 1366.16 2354.71 1366.05C2354.32 1365.93 2353.96 1365.74 2353.65 1365.49C2353.34 1365.23 2353.09 1364.92 2352.9 1364.57C2352.71 1364.21 2352.6 1363.82 2352.56 1363.42C2352.53 1363.02 2352.58 1362.62 2352.7 1362.24C2352.83 1361.86 2353.03 1361.5 2353.29 1361.2L2382.11 1326.06L2455.83 1298.69C2455.37 1297.73 2454.69 1296.89 2453.83 1296.26C2451.68 1294.61 2446.23 1292.26 2433.83 1295.34L2364.68 1320.34L2336.52 1351.62C2336.26 1351.94 2335.95 1352.2 2335.59 1352.39C2335.23 1352.58 2334.83 1352.7 2334.42 1352.73C2334.02 1352.77 2333.61 1352.72 2333.22 1352.59C2332.84 1352.46 2332.48 1352.25 2332.18 1351.98C2331.87 1351.7 2331.63 1351.37 2331.46 1351C2331.29 1350.63 2331.19 1350.23 2331.18 1349.82C2331.17 1349.42 2331.24 1349.01 2331.39 1348.63C2331.54 1348.25 2331.77 1347.91 2332.06 1347.62L2361.22 1315.22L2428 1291C2426.1 1289.19 2423.81 1287.85 2421.3 1287.1C2418.78 1286.34 2416.13 1286.19 2413.55 1286.66C2402.13 1288.56 2365.64 1296.66 2349.08 1303.14L2271.65 1365L2256.45 1347.9C2255.92 1347.31 2255.65 1346.53 2255.69 1345.73C2255.74 1344.94 2256.1 1344.19 2256.69 1343.66C2257.28 1343.13 2258.06 1342.86 2258.86 1342.9C2259.65 1342.95 2260.4 1343.31 2260.93 1343.9L2272.35 1356.74L2346.04 1297.9L2346.45 1297.73C2364.45 1290.54 2402.84 1282.36 2412.57 1280.73C2416.6 1280.03 2420.74 1280.43 2424.55 1281.89C2428.37 1283.34 2431.73 1285.8 2434.27 1289C2447.15 1286.21 2453.99 1288.72 2457.49 1291.41C2459.55 1292.96 2461.07 1295.11 2461.85 1297.56C2467.07 1297.9 2471.23 1299.8 2474.26 1303.21C2477.78 1307.21 2479.05 1312.54 2479.08 1317.21C2496.21 1315.44 2500.27 1324.06 2501.13 1326.91C2501.96 1329.71 2501.75 1332.72 2500.55 1335.38C2499.35 1338.04 2497.23 1340.18 2494.58 1341.41L2494.26 1341.53L2423.26 1363.53L2373.65 1399.75C2386.27 1396.09 2402.07 1392.75 2416.65 1392.75C2429.21 1392.85 2435.81 1395.28 2437.43 1400.4C2439.5 1406.97 2431.43 1413.58 2427.93 1416.12L2427.65 1416.29L2344.21 1463.37L2217.27 1483.55Z" fill="black"/>
<path d="M1314.46 2466.8L913.06 2277.65L1008.25 2095.71L743.7 1928.52L745.23 1926.01L1042.7 1435.01C1067.97 1391.42 1146.64 1296.63 1263.35 1250.16C1379.52 1203.92 1558.45 1164.67 1636.83 1150.37C1637.6 1150.25 1638.39 1150.43 1639.03 1150.89C1639.67 1151.34 1640.1 1152.02 1640.25 1152.79C1640.39 1153.56 1640.22 1154.36 1639.78 1155.01C1639.35 1155.66 1638.68 1156.11 1637.91 1156.27C1559.73 1170.53 1381.3 1209.67 1265.57 1255.74C1150.38 1301.54 1072.8 1395 1047.87 1438L751.87 1926.59L1011 2090.37L1236.18 1660C1242.59 1647.73 1266.44 1603.92 1304.18 1555.12C1340.73 1507.86 1376.18 1474.19 1409.57 1455.05C1484.09 1412.31 1618.57 1365.57 1679.18 1346.82C1679.94 1346.58 1680.76 1346.66 1681.47 1347.03C1682.17 1347.4 1682.7 1348.04 1682.94 1348.8C1683.18 1349.56 1683.1 1350.39 1682.73 1351.09C1682.36 1351.8 1681.72 1352.32 1680.96 1352.56C1620.51 1371.23 1486.62 1417.78 1412.55 1460.25C1338.88 1502.51 1268.45 1611.25 1241.55 1662.78L1014.86 2096L921.3 2274.83L1311.3 2458.59L1623.68 1672.2L2015.23 1455.86L2005.87 1223.32C2005.85 1222.93 2005.92 1222.53 2006.05 1222.16C2006.19 1221.79 2006.4 1221.45 2006.66 1221.16C2006.93 1220.87 2007.25 1220.64 2007.61 1220.47C2007.97 1220.31 2008.36 1220.22 2008.75 1220.2C2009.14 1220.18 2009.54 1220.25 2009.91 1220.38C2010.28 1220.52 2010.62 1220.73 2010.91 1220.99C2011.2 1221.26 2011.43 1221.58 2011.6 1221.94C2011.76 1222.3 2011.85 1222.69 2011.87 1223.08L2021.37 1459.32L2019.75 1460.22L1628.46 1676.42L1314.46 2466.8Z" fill="black"/>
<path d="M656.07 2484.13L1106 2648.89L1179 2449.53L1032.12 2395.74L1019.85 2444.38C994.68 2438.92 940.46 2427.38 924.94 2424.87C773 2392.54 682.37 2450.91 656.07 2484.13Z" fill="black"/>
<path d="M1107.8 2652.74L1104.98 2651.74L651.14 2485.52L653.71 2482.27C681.41 2447.27 773.85 2389.69 925.5 2421.92C940.42 2424.33 990.69 2435 1017.66 2440.83L1044.79 2333.23L1050.61 2334.69L1035.7 2393.85L1177.25 2445.69L1193.63 2402.4L1199.25 2404.52L1181.82 2450.57L1107.8 2652.74ZM661.1 2482.74L1104.22 2645L1175.16 2451.28L1034.22 2399.66L1022.06 2447.89L1019.22 2447.27C993.11 2441.61 939.71 2430.27 924.48 2427.79H924.33C780.11 2397.12 691 2448.65 661.1 2482.78V2482.74Z" fill="black"/>
<path d="M445.28 2019.64L840.18 2291L960.43 2116L831.51 2027.41L807.51 2071.47C784.51 2059.93 734.83 2035.27 720.42 2028.99C581.28 1960 479 1994 445.28 2019.64Z" fill="black"/>
<path d="M841 2295.2L440.17 2019.76L443.47 2017.25C478.98 1990.25 582.85 1957.43 721.73 2026.33C735.49 2032.33 780.13 2054.45 806.3 2067.55L828.87 2026.06L846.72 1991.96L852.03 1994.74L835.4 2026.5L959.77 2112L985.3 2078.26L990.08 2081.88L962.86 2117.88L841 2295.2ZM450.49 2019.58L839.41 2286.86L956.26 2116.86L832.56 2031.86L808.8 2075.54L806.2 2074.24C782.28 2062.24 733.32 2037.96 719.26 2031.83L719.13 2031.77C587.06 1966.19 487.9 1993.94 450.49 2019.58Z" fill="black"/>
<path d="M1169.37 2393.2C1168.93 2393.2 1168.49 2393.1 1168.09 2392.91C1167.73 2392.74 1167.41 2392.5 1167.15 2392.21C1166.88 2391.92 1166.68 2391.58 1166.55 2391.21C1166.41 2390.84 1166.35 2390.44 1166.37 2390.05C1166.39 2389.65 1166.49 2389.27 1166.66 2388.91L1496.85 1690.32L1497.41 1689.88L1943.85 1339.49C1864.67 1307.24 1838.19 1257.92 1835.7 1233.15C1835.62 1232.35 1835.86 1231.56 1836.37 1230.94C1836.87 1230.32 1837.6 1229.93 1838.4 1229.85C1839.2 1229.77 1839.99 1230.01 1840.61 1230.52C1841.23 1231.02 1841.62 1231.75 1841.7 1232.55C1844.47 1260.12 1879.18 1319.84 1990.78 1348.55C1991.16 1348.65 1991.52 1348.82 1991.84 1349.06C1992.15 1349.3 1992.42 1349.59 1992.62 1349.93C1992.82 1350.27 1992.95 1350.65 1993.01 1351.04C1993.06 1351.43 1993.04 1351.83 1992.94 1352.21C1992.84 1352.59 1992.67 1352.95 1992.43 1353.27C1992.19 1353.58 1991.9 1353.85 1991.56 1354.05C1991.22 1354.25 1990.84 1354.38 1990.45 1354.44C1990.06 1354.49 1989.66 1354.47 1989.28 1354.37C1976.08 1351.01 1963.08 1346.9 1950.35 1342.07L1501.7 1694.18L1172.11 2391.49C1171.86 2392.01 1171.48 2392.44 1170.99 2392.75C1170.5 2393.05 1169.94 2393.21 1169.37 2393.2Z" fill="black"/>
<path d="M1773.5 675.31L1794.76 671.38C1824.12 699.32 1856.76 684.38 1869.35 673.38L1897.9 680.08L1861.69 1202.08L1781.38 1187.08L1773.5 675.31Z" fill="black"/>
<path d="M1857.52 453.51C1892.67 483.08 1888.02 544.92 1881.3 572.14C1869.72 572.14 1863.73 575.76 1862.18 577.57C1870.18 551.98 1877.68 515.8 1854.18 518.64C1803.32 524.43 1776.39 513.99 1770.79 508.13C1773.78 496.8 1813.59 416.56 1857.52 453.51Z" fill="black"/>
<path d="M1877.9 519.86C1877.51 519.86 1877.11 519.781 1876.75 519.63C1871.33 517.63 1785.25 506.63 1702.98 496.82C1702.59 496.773 1702.21 496.648 1701.86 496.454C1701.51 496.259 1701.21 495.999 1700.96 495.687C1700.72 495.375 1700.54 495.017 1700.43 494.635C1700.32 494.253 1700.29 493.854 1700.34 493.46C1700.39 493.066 1700.51 492.685 1700.71 492.339C1700.9 491.993 1701.16 491.689 1701.47 491.444C1701.79 491.199 1702.14 491.018 1702.52 490.91C1702.91 490.803 1703.31 490.773 1703.7 490.82C1720.86 492.87 1871.6 510.91 1879.06 514.06C1879.69 514.33 1880.22 514.811 1880.54 515.422C1880.86 516.033 1880.96 516.736 1880.83 517.412C1880.69 518.089 1880.32 518.698 1879.79 519.136C1879.26 519.575 1878.59 519.816 1877.9 519.82V519.86Z" fill="black"/>
<path d="M1815.48 653.46C1805.94 653.523 1796.66 650.307 1789.2 644.35C1785.19 641.249 1781.74 637.481 1779 633.21L1778.93 633.09C1752.61 587.98 1762.71 530.71 1771.73 506.73C1772.01 505.985 1772.57 505.381 1773.3 505.052C1774.02 504.723 1774.85 504.695 1775.6 504.975C1776.34 505.255 1776.94 505.819 1777.27 506.544C1777.6 507.269 1777.63 508.095 1777.35 508.84C1768.68 531.89 1758.94 586.84 1784.08 630.01C1786.43 633.689 1789.4 636.934 1792.86 639.6C1810.77 653.71 1832.2 645.72 1841.03 639.53C1847.34 635.075 1852.87 629.608 1857.4 623.35C1860.4 619.07 1867.05 608.65 1870.26 600.05C1870.55 599.314 1871.11 598.721 1871.83 598.398C1872.55 598.075 1873.37 598.049 1874.11 598.325C1874.85 598.601 1875.45 599.158 1875.78 599.874C1876.11 600.59 1876.15 601.408 1875.88 602.15C1872.45 611.32 1865.48 622.32 1862.28 626.85C1857.33 633.665 1851.3 639.621 1844.42 644.48C1835.85 650.216 1825.79 653.336 1815.48 653.46Z" fill="black"/>
<path d="M1800.72 686.83C1799.99 686.836 1799.27 686.573 1798.72 686.09C1798.17 685.607 1797.81 684.938 1797.72 684.21L1793.08 648C1792.98 647.204 1793.2 646.401 1793.69 645.766C1794.18 645.131 1794.9 644.717 1795.69 644.615C1796.49 644.513 1797.29 644.731 1797.93 645.221C1798.56 645.712 1798.98 646.434 1799.08 647.23L1803.74 683.49C1803.79 683.881 1803.76 684.279 1803.66 684.66C1803.56 685.041 1803.38 685.397 1803.14 685.71C1802.9 686.022 1802.59 686.283 1802.25 686.479C1801.91 686.674 1801.53 686.801 1801.14 686.85L1800.72 686.83ZM1873.93 680.62C1873.25 680.62 1872.58 680.386 1872.05 679.956C1871.52 679.527 1871.15 678.929 1871 678.26L1858.91 623.36C1858.82 622.975 1858.82 622.578 1858.89 622.19C1858.95 621.802 1859.1 621.431 1859.31 621.099C1859.52 620.767 1859.8 620.48 1860.12 620.255C1860.45 620.029 1860.81 619.87 1861.19 619.785C1861.58 619.7 1861.98 619.692 1862.36 619.761C1862.75 619.83 1863.12 619.975 1863.46 620.187C1863.79 620.399 1864.07 620.675 1864.3 620.998C1864.53 621.321 1864.68 621.685 1864.77 622.07L1876.86 676.97C1876.94 677.355 1876.95 677.753 1876.89 678.141C1876.82 678.529 1876.67 678.9 1876.46 679.232C1876.25 679.565 1875.97 679.852 1875.65 680.078C1875.33 680.305 1874.96 680.465 1874.58 680.55C1874.37 680.597 1874.15 680.621 1873.93 680.62Z" fill="black"/>
<path d="M1825.88 649.61C1814.57 653.96 1802.17 649.83 1797.39 647.22L1800.22 666.57C1834 677 1853 649 1857.42 632.43C1851.69 637.14 1837.19 645.26 1825.88 649.61Z" fill="black"/>
<path d="M1866.73 604.64C1865.03 604.647 1863.33 604.514 1861.65 604.24C1861.25 604.19 1860.86 604.06 1860.51 603.856C1860.16 603.652 1859.85 603.38 1859.61 603.055C1859.37 602.73 1859.2 602.359 1859.1 601.965C1859.01 601.571 1858.99 601.162 1859.06 600.762C1859.13 600.363 1859.28 599.981 1859.49 599.64C1859.71 599.299 1860 599.006 1860.33 598.779C1860.67 598.552 1861.05 598.395 1861.45 598.318C1861.84 598.241 1862.25 598.245 1862.65 598.33C1867.2 598.978 1871.83 598.567 1876.19 597.13C1881.6 595.3 1885.01 592.13 1886.33 587.8C1888.12 581.89 1887.27 576.8 1883.99 573.8C1880.89 571 1876.09 570.57 1871.14 572.63C1870.77 572.797 1870.38 572.89 1869.98 572.901C1869.57 572.912 1869.17 572.843 1868.8 572.697C1868.43 572.551 1868.08 572.331 1867.8 572.05C1867.51 571.769 1867.28 571.434 1867.13 571.063C1866.97 570.692 1866.89 570.294 1866.89 569.892C1866.89 569.49 1866.97 569.092 1867.13 568.723C1867.29 568.353 1867.52 568.019 1867.81 567.74C1868.1 567.461 1868.44 567.244 1868.82 567.1C1875.98 564.1 1883.15 564.95 1888.01 569.34C1892.87 573.73 1894.53 581.4 1892.07 589.5C1890.18 595.73 1885.36 600.32 1878.07 602.78C1874.41 604 1870.58 604.628 1866.73 604.64Z" fill="black"/>
<path d="M1777.34 613.91L1781.14 607.44C1789.48 593.26 1794.41 565.99 1790.39 556.24C1786.6 547.07 1773.08 543.98 1767.49 543.98C1766.69 543.98 1765.93 543.664 1765.37 543.101C1764.81 542.539 1764.49 541.776 1764.49 540.98C1764.49 540.184 1764.81 539.421 1765.37 538.859C1765.93 538.296 1766.69 537.98 1767.49 537.98C1773.16 537.98 1790.49 540.92 1795.93 553.98C1800.39 564.8 1796.32 588.38 1789.61 603.93C1793.05 602.3 1797.28 599.22 1802.61 592.42C1803.1 591.791 1803.82 591.383 1804.61 591.285C1805.4 591.186 1806.2 591.406 1806.83 591.895C1807.45 592.384 1807.86 593.103 1807.96 593.894C1808.06 594.684 1807.84 595.481 1807.35 596.11C1797.73 608.45 1790.62 610.3 1785.91 611.52C1785.45 611.64 1785.01 611.75 1784.6 611.87L1777.34 613.91Z" fill="black"/>
<path d="M1848.39 554.07C1847.61 554.072 1846.85 553.767 1846.29 553.22C1841.9 548.93 1830.9 543.22 1820.66 552.11C1820.37 552.385 1820.02 552.599 1819.64 552.737C1819.26 552.876 1818.86 552.937 1818.46 552.917C1818.06 552.896 1817.66 552.795 1817.3 552.619C1816.94 552.443 1816.61 552.195 1816.35 551.892C1816.08 551.588 1815.88 551.234 1815.76 550.851C1815.63 550.468 1815.59 550.063 1815.62 549.662C1815.66 549.26 1815.77 548.87 1815.96 548.514C1816.15 548.158 1816.41 547.844 1816.72 547.59C1822.64 542.43 1837.31 536.06 1850.49 548.92C1850.92 549.337 1851.21 549.872 1851.33 550.457C1851.46 551.041 1851.4 551.649 1851.18 552.203C1850.95 552.756 1850.56 553.229 1850.07 553.562C1849.57 553.895 1848.99 554.072 1848.39 554.07Z" fill="black"/>
<path d="M1811.63 623.79C1808.7 623.763 1805.79 623.28 1803.01 622.36C1802.62 622.255 1802.25 622.072 1801.93 621.822C1801.61 621.571 1801.35 621.258 1801.15 620.902C1800.96 620.546 1800.84 620.154 1800.8 619.749C1800.76 619.345 1800.8 618.937 1800.92 618.55C1801.05 618.163 1801.25 617.805 1801.51 617.498C1801.78 617.191 1802.1 616.941 1802.47 616.763C1802.84 616.586 1803.23 616.484 1803.64 616.465C1804.04 616.445 1804.45 616.508 1804.83 616.65C1810.68 618.51 1823.09 618.72 1828.24 606.16C1828.54 605.423 1829.13 604.836 1829.86 604.528C1830.6 604.221 1831.42 604.218 1832.16 604.52C1832.9 604.822 1833.48 605.405 1833.79 606.14C1834.1 606.876 1834.1 607.703 1833.8 608.44C1831.34 614.42 1824 623.79 1811.63 623.79Z" fill="black"/>
<path d="M1863 590.56C1862.44 590.563 1861.89 590.407 1861.42 590.11C1861.08 589.905 1860.79 589.635 1860.56 589.317C1860.32 588.998 1860.16 588.636 1860.06 588.253C1859.97 587.869 1859.95 587.471 1860.01 587.081C1860.08 586.691 1860.21 586.317 1860.42 585.98C1862.81 582.13 1870.08 575.17 1880.42 576.42C1880.81 576.467 1881.19 576.592 1881.54 576.786C1881.89 576.981 1882.19 577.241 1882.44 577.553C1882.68 577.865 1882.86 578.223 1882.97 578.605C1883.08 578.987 1883.11 579.386 1883.06 579.78C1883.01 580.174 1882.89 580.555 1882.69 580.901C1882.5 581.247 1882.24 581.551 1881.93 581.796C1881.61 582.041 1881.26 582.222 1880.88 582.33C1880.49 582.437 1880.09 582.467 1879.7 582.42C1872.33 581.53 1867.17 586.42 1865.48 589.18C1865.21 589.597 1864.85 589.941 1864.41 590.182C1863.98 590.423 1863.5 590.553 1863 590.56Z" fill="black"/>
<path d="M1819.21 569.45C1818.53 569.449 1817.88 569.22 1817.35 568.8C1816.73 568.308 1816.32 567.588 1816.23 566.799C1816.14 566.009 1816.36 565.215 1816.85 564.59C1819.96 560.59 1825.7 556.37 1832.5 556.2C1838.35 556.05 1843.81 558.83 1848.73 564.47C1848.99 564.767 1849.19 565.112 1849.31 565.485C1849.44 565.859 1849.49 566.253 1849.46 566.647C1849.44 567.04 1849.33 567.424 1849.16 567.777C1848.98 568.13 1848.74 568.446 1848.44 568.705C1848.15 568.964 1847.8 569.163 1847.43 569.289C1847.06 569.415 1846.66 569.466 1846.27 569.44C1845.88 569.413 1845.49 569.31 1845.14 569.135C1844.78 568.96 1844.47 568.717 1844.21 568.42C1840.52 564.19 1836.61 562.09 1832.66 562.2C1827.93 562.31 1823.73 565.56 1821.57 568.3C1821.29 568.658 1820.93 568.948 1820.52 569.147C1820.11 569.346 1819.66 569.45 1819.21 569.45Z" fill="black"/>
<path d="M1766.12 568.45C1765.56 568.45 1765.01 568.291 1764.53 567.993C1764.05 567.694 1763.67 567.268 1763.42 566.762C1763.18 566.257 1763.08 565.692 1763.14 565.133C1763.2 564.574 1763.41 564.043 1763.76 563.6C1766.87 559.6 1772.61 555.38 1779.41 555.2C1785.26 555.04 1790.72 557.84 1795.64 563.48C1796.16 564.079 1796.43 564.862 1796.37 565.656C1796.32 566.451 1795.95 567.191 1795.35 567.715C1794.76 568.239 1793.97 568.503 1793.18 568.449C1792.38 568.396 1791.64 568.029 1791.12 567.43C1787.43 563.2 1783.59 561.1 1779.56 561.2C1774.84 561.32 1770.64 564.57 1768.48 567.31C1768.2 567.666 1767.84 567.954 1767.43 568.151C1767.02 568.349 1766.57 568.451 1766.12 568.45Z" fill="black"/>
<path d="M1832.84 571.32C1835.92 571.32 1838.41 568.826 1838.41 565.75C1838.41 562.674 1835.92 560.18 1832.84 560.18C1829.76 560.18 1827.27 562.674 1827.27 565.75C1827.27 568.826 1829.76 571.32 1832.84 571.32Z" fill="black"/>
<path d="M1779.75 570.33C1782.83 570.33 1785.32 567.836 1785.32 564.76C1785.32 561.684 1782.83 559.19 1779.75 559.19C1776.67 559.19 1774.18 561.684 1774.18 564.76C1774.18 567.836 1776.67 570.33 1779.75 570.33Z" fill="black"/>
<path d="M1873.57 595.52C1873.04 595.517 1872.53 595.375 1872.07 595.109C1871.62 594.843 1871.24 594.461 1870.98 594.003C1870.72 593.545 1870.58 593.026 1870.59 592.499C1870.59 591.971 1870.73 591.455 1871 591C1872.27 588.9 1872.72 587.08 1872.28 585.89C1872.13 585.529 1871.9 585.205 1871.62 584.938C1871.33 584.671 1870.99 584.467 1870.62 584.34C1869.86 584.093 1869.23 583.556 1868.87 582.846C1868.51 582.136 1868.45 581.312 1868.69 580.555C1868.94 579.798 1869.48 579.17 1870.19 578.809C1870.9 578.448 1871.72 578.383 1872.48 578.63C1873.71 579.033 1874.84 579.706 1875.78 580.601C1876.72 581.495 1877.45 582.588 1877.91 583.8C1878.68 585.88 1879 589.36 1876.14 594.1C1875.87 594.537 1875.49 594.897 1875.04 595.146C1874.59 595.395 1874.08 595.523 1873.57 595.52Z" fill="black"/>
<path d="M1676 693.36L1776.7 674.57L1796.24 1190.17L1605.24 1155.29C1526.09 1171.94 1481 1182.82 1399.63 1204.23C1430.71 1117.86 1501.9 901.92 1548 814.31C1594.1 726.7 1642.55 701.69 1676 693.36Z" fill="#FEDA00"/>
<path d="M2004.33 991.26L2013.46 1230.72L1857.46 1201.38L1887.12 676.71C1898.18 676.71 1941.71 685.93 1973.5 693.36C2059.02 709.17 2095.37 773.36 2104.78 808.13L2318.78 1388.38L2106.78 1406.1L2004.33 991.26Z" fill="#FEDA00"/>
<path d="M2003.52 983.25C2002.72 983.25 2001.96 982.934 2001.4 982.371C2000.84 981.809 2000.52 981.046 2000.52 980.25V909C2000.52 908.204 2000.84 907.441 2001.4 906.879C2001.96 906.316 2002.72 906 2003.52 906C2004.32 906 2005.08 906.316 2005.64 906.879C2006.2 907.441 2006.52 908.204 2006.52 909V980.29C2006.51 981.079 2006.19 981.832 2005.63 982.385C2005.07 982.939 2004.31 983.25 2003.52 983.25Z" fill="black"/>
<path d="M2096.86 1339C2096.47 1339.03 2096.07 1338.98 2095.7 1338.85C2095.32 1338.73 2094.98 1338.53 2094.68 1338.27C2094.38 1338.01 2094.13 1337.7 2093.96 1337.34C2093.78 1336.99 2093.68 1336.6 2093.65 1336.21C2093.62 1335.82 2093.67 1335.42 2093.8 1335.05C2093.92 1334.67 2094.12 1334.33 2094.38 1334.03C2094.64 1333.73 2094.95 1333.48 2095.31 1333.31C2095.66 1333.13 2096.05 1333.03 2096.44 1333L2124.26 1329.09L2001 941.46C2000.77 940.705 2000.85 939.89 2001.22 939.191C2001.59 938.493 2002.21 937.968 2002.97 937.73C2003.72 937.492 2004.53 937.56 2005.24 937.919C2005.94 938.279 2006.47 938.901 2006.72 939.65L2130.27 1328.26L2274.27 1308.03C2274.66 1307.97 2275.07 1307.98 2275.45 1308.08C2275.84 1308.17 2276.2 1308.34 2276.52 1308.58C2276.84 1308.82 2277.11 1309.11 2277.32 1309.46C2277.52 1309.8 2277.66 1310.18 2277.71 1310.57C2277.77 1310.97 2277.74 1311.37 2277.64 1311.75C2277.54 1312.14 2277.37 1312.5 2277.12 1312.82C2276.88 1313.13 2276.58 1313.4 2276.23 1313.6C2275.89 1313.79 2275.51 1313.92 2275.11 1313.97L2097.24 1338.97L2096.86 1339Z" fill="black"/>
<path d="M1616.59 1154.44C1616.42 1154.45 1616.25 1154.45 1616.08 1154.44C1615.69 1154.37 1615.32 1154.23 1614.99 1154.02C1614.65 1153.81 1614.36 1153.54 1614.14 1153.21C1613.91 1152.89 1613.75 1152.53 1613.66 1152.14C1613.57 1151.76 1613.56 1151.36 1613.63 1150.97L1659.05 890.31C1659.1 889.908 1659.23 889.52 1659.43 889.169C1659.64 888.819 1659.91 888.514 1660.24 888.272C1660.56 888.03 1660.93 887.856 1661.33 887.761C1661.72 887.666 1662.13 887.652 1662.53 887.72C1662.93 887.787 1663.31 887.935 1663.65 888.154C1663.99 888.374 1664.28 888.66 1664.51 888.995C1664.74 889.331 1664.9 889.709 1664.97 890.107C1665.05 890.504 1665.05 890.914 1664.96 891.31L1619.54 1152C1619.41 1152.69 1619.04 1153.31 1618.5 1153.75C1617.97 1154.2 1617.29 1154.44 1616.59 1154.44Z" fill="black"/>
<path d="M977.16 2072.85C976.476 2072.85 975.813 2072.62 975.28 2072.19C974.68 2071.71 974.288 2071.01 974.185 2070.25C974.083 2069.49 974.278 2068.71 974.73 2068.09C980.83 2058.19 1151.45 1670.24 1264.73 1411.6L1265.42 1410.03L1616.42 1367.39C1616.81 1367.34 1617.21 1367.37 1617.6 1367.48C1617.98 1367.59 1618.33 1367.77 1618.65 1368.01C1618.96 1368.26 1619.22 1368.56 1619.41 1368.91C1619.61 1369.26 1619.73 1369.64 1619.78 1370.03C1619.83 1370.42 1619.8 1370.82 1619.69 1371.21C1619.58 1371.59 1619.4 1371.94 1619.16 1372.26C1618.91 1372.57 1618.61 1372.83 1618.26 1373.02C1617.91 1373.22 1617.53 1373.34 1617.14 1373.39L1269.56 1415.61C1237.27 1489.3 984.99 2064.88 979.48 2071.76C979.198 2072.1 978.843 2072.38 978.442 2072.57C978.041 2072.75 977.603 2072.85 977.16 2072.85Z" fill="black"/>
<path d="M2290.83 2800.17C2290.09 2800.18 2289.38 2799.91 2288.83 2799.42C2288.27 2798.94 2287.92 2798.26 2287.83 2797.53C2229.2 2316.76 2276.12 2009.43 2309.13 1914.1C2309.39 1913.35 2309.95 1912.73 2310.67 1912.39C2311.39 1912.04 2312.21 1912 2312.96 1912.26C2313.72 1912.53 2314.33 1913.08 2314.68 1913.8C2315.02 1914.52 2315.07 1915.35 2314.8 1916.1C2281.95 2010.98 2235.29 2317.17 2293.8 2796.85C2293.85 2797.24 2293.82 2797.64 2293.71 2798.02C2293.61 2798.4 2293.43 2798.75 2293.18 2799.06C2292.94 2799.37 2292.64 2799.63 2292.29 2799.83C2291.95 2800.02 2291.57 2800.14 2291.18 2800.19L2290.83 2800.17Z" fill="black"/>
<path d="M2367.26 1961.18C2341.18 1961.18 2323.33 1943.73 2315 1910.12C2303.09 1946.37 2281.72 1963.77 2252.7 1960.56C2238.15 1958.96 2227.4 1953.01 2220.7 1942.87C2211.83 1929.38 2210.33 1908.93 2216.19 1881.87C2198.59 1907.82 2181.45 1921.47 2165.11 1922.52C2152.81 1923.31 2141.3 1916.83 2130.96 1903.27C2118.12 1886.41 2114.14 1868.19 2119.16 1849.13C2124.39 1829.22 2139.78 1808.25 2163.67 1788.49C2181.67 1773.57 2204.67 1759.42 2225.15 1750.63L2227.51 1756.15C2192.3 1771.26 2135.93 1808.91 2124.96 1850.65C2120.44 1867.84 2124.07 1884.32 2135.74 1899.65C2144.74 1911.52 2154.53 1917.21 2164.74 1916.55C2181.92 1915.45 2201.51 1896.66 2221.42 1862.21C2232.42 1826.48 2250.06 1794.11 2257.15 1781.82L2262.35 1784.82C2255.35 1796.96 2237.87 1829.02 2227.06 1864.3C2216.48 1898.77 2216.06 1924.79 2225.73 1939.55C2231.37 1948.12 2240.66 1953.18 2253.35 1954.55C2282.35 1957.75 2302.29 1938.3 2312.57 1896.75C2321.48 1860.75 2320.88 1814.75 2317.35 1783.63L2323.35 1782.95C2325.09 1798.22 2329.85 1851.46 2318.58 1897.59C2325.65 1939.59 2344.73 1958.75 2375.29 1954.59C2395.65 1951.79 2408.89 1940.21 2414.65 1920.16C2419.81 1902.16 2418.99 1876.84 2412.29 1846.93C2406.56 1822.16 2398.4 1798.01 2387.93 1774.84L2393.39 1772.36C2412.88 1815.26 2431.56 1879.29 2420.89 1920.1C2431.29 1930.1 2444.41 1934.44 2459.89 1932.88C2483.69 1930.51 2497.54 1918.75 2501.05 1897.94C2504.63 1876.8 2496.53 1847.26 2479.39 1818.94C2461.88 1789.94 2438.34 1767.09 2414.81 1756.17L2417.33 1750.73C2469.02 1774.73 2515.09 1850.91 2506.97 1898.98C2504.21 1915.34 2493.9 1935.56 2460.49 1938.9C2444.21 1940.52 2430.24 1936.35 2418.9 1926.48C2411.79 1946.19 2397.4 1957.65 2376.09 1960.57C2373.16 1960.98 2370.21 1961.18 2367.26 1961.18Z" fill="#FEDA00"/>
<path d="M2320.25 1810.52C2377.48 1810.52 2423.88 1788.93 2423.88 1762.29C2423.88 1735.65 2377.48 1714.06 2320.25 1714.06C2263.02 1714.06 2216.62 1735.65 2216.62 1762.29C2216.62 1788.93 2263.02 1810.52 2320.25 1810.52Z" fill="black"/>
<path d="M2263.65 2344.12H2260.12L2260.69 2340.64C2277.01 2240.86 2374.28 2062 2625.69 2099.27L2628.69 2099.72L2628.21 2102.72C2614.91 2186.21 2521.62 2344.12 2263.65 2344.12ZM2560.36 2100.26C2363.71 2100.26 2283.22 2248.91 2267.21 2338.11C2515.37 2336.69 2607.09 2186.84 2621.76 2104.77C2601.42 2101.82 2580.91 2100.32 2560.36 2100.26Z" fill="black"/>
<path d="M2270.44 2559.13H2266.91C2008.91 2559.13 1915.65 2401.22 1902.37 2317.72L1901.89 2314.72L1904.89 2314.27C2156.29 2277 2253.56 2455.85 2269.89 2555.64L2270.44 2559.13ZM1908.8 2319.78C1923.47 2401.85 2015.19 2551.7 2263.35 2553.12C2245.77 2455.15 2150.44 2285.47 1908.8 2319.78Z" fill="black"/>
<path d="M2266.91 2342C2266.27 2342 2265.64 2341.8 2265.13 2341.42C2264.61 2341.04 2264.23 2340.51 2264.04 2339.9C2263.85 2339.28 2263.86 2338.63 2264.07 2338.02C2264.28 2337.42 2264.67 2336.89 2265.2 2336.53L2501.91 2172.58C2502.23 2172.36 2502.6 2172.2 2502.99 2172.11C2503.37 2172.03 2503.77 2172.02 2504.16 2172.09C2504.55 2172.16 2504.92 2172.31 2505.25 2172.53C2505.58 2172.74 2505.87 2173.02 2506.09 2173.34C2506.31 2173.66 2506.47 2174.03 2506.56 2174.42C2506.64 2174.8 2506.65 2175.2 2506.58 2175.59C2506.5 2175.98 2506.36 2176.35 2506.14 2176.68C2505.93 2177.01 2505.65 2177.3 2505.33 2177.52L2268.62 2341.52C2268.11 2341.85 2267.51 2342.02 2266.91 2342Z" fill="black"/>
<path d="M2263.65 2557C2263.04 2557 2262.44 2556.82 2261.94 2556.47L2025.24 2392.47C2024.58 2392.02 2024.14 2391.32 2023.99 2390.54C2023.85 2389.75 2024.03 2388.95 2024.48 2388.29C2024.93 2387.64 2025.63 2387.19 2026.41 2387.04C2027.2 2386.9 2028 2387.08 2028.66 2387.53L2265.36 2551.48C2265.89 2551.84 2266.28 2552.37 2266.49 2552.97C2266.7 2553.58 2266.71 2554.23 2266.52 2554.85C2266.33 2555.46 2265.95 2555.99 2265.43 2556.37C2264.91 2556.75 2264.29 2556.95 2263.65 2556.95V2557Z" fill="black"/>
<path d="M806 1158.61L801.54 1156.3C691.27 1099.3 486.84 902.7 502.39 567.07L502.6 562.62L506.6 564.49C607.33 610.89 799.51 793.74 805.87 1153.59L806 1158.61ZM508.15 571.86C494.94 897.21 690.23 1089.52 799.77 1148.61C791.87 799.87 608.22 620.45 508.15 571.86Z" fill="#FEDA00"/>
<path d="M807.41 1158.47L807.35 1153.47C803.27 793.6 990.06 605.25 1089.41 555.94L1093.41 553.94L1093.74 558.38C1119.03 893.38 920.39 1095.83 811.82 1156.04L807.41 1158.47ZM1088.08 563.32C989.46 614.81 811.08 799.48 813.31 1148.32C921.09 1086.05 1110.72 888.16 1088.08 563.32Z" fill="#FEDA00"/>
<path d="M727.52 819C716.57 763.95 711.74 709.15 713.17 656.12C714.288 610.626 720.323 565.386 731.17 521.19C755.5 423.3 795.25 368.84 811.17 349.97L814.05 346.57L816.12 350.51C857.37 429 883.33 510.62 893.29 593C901.723 662.165 898.781 732.245 884.58 800.46L878.7 799.24C892.774 731.663 895.689 662.238 887.33 593.72C877.63 513.45 852.6 433.92 812.92 357.25C760.54 422 687.63 587.74 733.41 817.79L727.52 819Z" fill="#FEDA00"/>
<path d="M804.34 1157.13C803.784 1157.13 803.24 1156.98 802.766 1156.68C802.293 1156.39 801.91 1155.98 801.66 1155.48L586.15 726.28C585.973 725.927 585.868 725.543 585.84 725.15C585.811 724.756 585.861 724.361 585.985 723.987C586.11 723.613 586.307 723.267 586.565 722.969C586.823 722.671 587.137 722.426 587.49 722.25C587.843 722.073 588.227 721.968 588.62 721.939C589.013 721.911 589.408 721.961 589.783 722.085C590.157 722.209 590.503 722.406 590.801 722.665C591.099 722.923 591.343 723.237 591.52 723.59L807 1152.78C807.231 1153.24 807.34 1153.75 807.318 1154.26C807.296 1154.77 807.144 1155.27 806.875 1155.7C806.606 1156.14 806.231 1156.5 805.783 1156.75C805.336 1157 804.832 1157.13 804.32 1157.13H804.34Z" fill="black"/>
<path d="M808.9 1157C808.461 1157 808.028 1156.9 807.63 1156.72C807.271 1156.55 806.949 1156.32 806.682 1156.03C806.415 1155.73 806.208 1155.39 806.073 1155.02C805.938 1154.65 805.878 1154.26 805.897 1153.86C805.915 1153.47 806.011 1153.08 806.18 1152.72L1009.18 717.45C1009.52 716.738 1010.13 716.19 1010.87 715.924C1011.62 715.658 1012.43 715.696 1013.15 716.028C1013.87 716.361 1014.42 716.963 1014.7 717.702C1014.97 718.442 1014.94 719.26 1014.62 719.98L811.62 1155.26C811.38 1155.78 810.996 1156.22 810.514 1156.53C810.032 1156.84 809.472 1157 808.9 1157Z" fill="black"/>
<path d="M807.41 1158.57C806.615 1158.57 805.851 1158.25 805.289 1157.69C804.726 1157.13 804.41 1156.37 804.41 1155.57L801.16 621.74C801.16 620.944 801.476 620.181 802.039 619.618C802.601 619.056 803.365 618.74 804.16 618.74C804.956 618.74 805.719 619.056 806.281 619.618C806.844 620.181 807.16 620.944 807.16 621.74L810.41 1155.57C810.41 1156.37 810.094 1157.13 809.531 1157.69C808.969 1158.25 808.206 1158.57 807.41 1158.57Z" fill="black"/>
</svg>
