<svg width="3000" height="3000" viewBox="0 0 3000 3000" fill="none" xmlns="http://www.w3.org/2000/svg">
<path d="M2235.94 1716.29C2234.29 1716.29 2232.68 1715.8 2231.31 1714.89C2229.94 1713.97 2228.87 1712.67 2228.24 1711.15C2227.61 1709.63 2227.45 1707.95 2227.77 1706.33C2228.09 1704.72 2228.88 1703.23 2230.05 1702.07C2231.21 1700.91 2232.7 1700.11 2234.31 1699.79C2235.93 1699.47 2237.61 1699.63 2239.13 1700.26C2240.65 1700.89 2241.95 1701.96 2242.87 1703.33C2243.78 1704.7 2244.27 1706.31 2244.27 1707.96C2244.27 1710.17 2243.39 1712.29 2241.83 1713.85C2240.27 1715.41 2238.15 1716.29 2235.94 1716.29ZM2235.94 1705.63C2235.48 1705.63 2235.03 1705.77 2234.65 1706.02C2234.26 1706.28 2233.96 1706.64 2233.79 1707.07C2233.61 1707.49 2233.56 1707.96 2233.65 1708.41C2233.74 1708.87 2233.97 1709.28 2234.29 1709.61C2234.62 1709.93 2235.03 1710.16 2235.49 1710.25C2235.94 1710.34 2236.41 1710.29 2236.83 1710.11C2237.26 1709.94 2237.62 1709.64 2237.88 1709.25C2238.13 1708.87 2238.27 1708.42 2238.27 1707.96C2238.27 1707.34 2238.02 1706.75 2237.59 1706.31C2237.15 1705.88 2236.56 1705.63 2235.94 1705.63Z" fill="#FFFFFF"/>
<path d="M1507.67 195.52C1506.02 195.522 1504.41 195.035 1503.03 194.119C1501.66 193.203 1500.59 191.901 1499.96 190.377C1499.32 188.852 1499.16 187.174 1499.48 185.556C1499.8 183.937 1500.6 182.45 1501.76 181.283C1502.93 180.116 1504.42 179.322 1506.04 179C1507.65 178.679 1509.33 178.845 1510.86 179.477C1512.38 180.11 1513.68 181.18 1514.6 182.553C1515.51 183.926 1516 185.54 1516 187.19C1516 189.399 1515.12 191.516 1513.56 193.078C1512 194.639 1509.88 195.518 1507.67 195.52ZM1507.67 184.85C1507.21 184.848 1506.75 184.984 1506.37 185.24C1505.98 185.496 1505.68 185.86 1505.5 186.288C1505.32 186.715 1505.27 187.186 1505.36 187.641C1505.45 188.095 1505.67 188.513 1506 188.841C1506.33 189.17 1506.75 189.394 1507.2 189.485C1507.65 189.576 1508.12 189.53 1508.55 189.353C1508.98 189.176 1509.35 188.876 1509.6 188.491C1509.86 188.106 1510 187.654 1510 187.19C1510 186.884 1509.94 186.579 1509.83 186.296C1509.71 186.012 1509.54 185.754 1509.32 185.536C1509.1 185.319 1508.85 185.146 1508.56 185.029C1508.28 184.911 1507.98 184.85 1507.67 184.85Z" fill="#FFFFFF"/>
<path d="M428.22 1161.71C426.572 1161.71 424.962 1161.22 423.592 1160.31C422.222 1159.39 421.155 1158.09 420.524 1156.57C419.894 1155.05 419.729 1153.37 420.05 1151.76C420.371 1150.14 421.165 1148.65 422.33 1147.49C423.495 1146.33 424.979 1145.53 426.595 1145.21C428.211 1144.89 429.886 1145.05 431.408 1145.68C432.93 1146.31 434.231 1147.38 435.146 1148.75C436.061 1150.12 436.55 1151.73 436.55 1153.38C436.547 1155.59 435.669 1157.71 434.107 1159.27C432.546 1160.83 430.428 1161.71 428.22 1161.71ZM428.22 1151.05C427.759 1151.05 427.309 1151.19 426.925 1151.44C426.542 1151.7 426.244 1152.06 426.067 1152.49C425.891 1152.91 425.845 1153.38 425.935 1153.83C426.025 1154.29 426.247 1154.7 426.572 1155.03C426.898 1155.35 427.313 1155.58 427.765 1155.67C428.217 1155.76 428.686 1155.71 429.112 1155.53C429.537 1155.36 429.901 1155.06 430.157 1154.67C430.413 1154.29 430.55 1153.84 430.55 1153.38C430.55 1152.76 430.304 1152.17 429.868 1151.73C429.431 1151.3 428.838 1151.05 428.22 1151.05Z" fill="#FFFFFF"/>
<path d="M764.13 2537.61C762.483 2537.61 760.873 2537.12 759.505 2536.2C758.136 2535.28 757.07 2533.98 756.441 2532.46C755.812 2530.94 755.649 2529.26 755.971 2527.65C756.294 2526.03 757.088 2524.55 758.253 2523.39C759.419 2522.22 760.903 2521.43 762.519 2521.11C764.134 2520.79 765.809 2520.95 767.33 2521.59C768.852 2522.22 770.152 2523.28 771.067 2524.65C771.982 2526.02 772.47 2527.63 772.47 2529.28C772.467 2531.49 771.588 2533.61 770.024 2535.17C768.46 2536.73 766.34 2537.61 764.13 2537.61ZM764.13 2526.95C763.67 2526.95 763.22 2527.09 762.838 2527.35C762.456 2527.6 762.159 2527.97 761.985 2528.4C761.81 2528.82 761.765 2529.29 761.856 2529.74C761.947 2530.19 762.17 2530.61 762.496 2530.93C762.822 2531.26 763.237 2531.48 763.689 2531.57C764.141 2531.66 764.609 2531.61 765.034 2531.43C765.459 2531.26 765.822 2530.96 766.078 2530.57C766.334 2530.19 766.47 2529.74 766.47 2529.28C766.454 2528.67 766.201 2528.09 765.764 2527.66C765.327 2527.24 764.74 2527 764.13 2527V2526.95Z" fill="#FFFFFF"/>
<path d="M812.17 443.85C810.522 443.85 808.912 443.362 807.542 442.447C806.172 441.531 805.105 440.23 804.474 438.708C803.844 437.186 803.679 435.511 804 433.895C804.321 432.279 805.115 430.795 806.28 429.63C807.445 428.465 808.929 427.672 810.545 427.35C812.161 427.029 813.836 427.194 815.358 427.825C816.88 428.455 818.181 429.523 819.096 430.893C820.011 432.262 820.5 433.873 820.5 435.52C820.497 437.729 819.619 439.846 818.057 441.408C816.496 442.969 814.378 443.848 812.17 443.85ZM812.17 433.19C811.709 433.19 811.259 433.327 810.876 433.583C810.492 433.839 810.194 434.203 810.017 434.629C809.841 435.055 809.795 435.523 809.885 435.975C809.975 436.427 810.197 436.842 810.522 437.168C810.848 437.494 811.263 437.716 811.715 437.806C812.167 437.896 812.636 437.849 813.062 437.673C813.487 437.497 813.851 437.198 814.107 436.815C814.363 436.432 814.5 435.981 814.5 435.52C814.497 434.903 814.251 434.312 813.815 433.876C813.378 433.439 812.787 433.193 812.17 433.19Z" fill="#FFFFFF"/>
<path d="M2807.78 1834.9C2807.15 1834.9 2806.53 1834.7 2806.02 1834.33L2776.66 1813C2776.02 1812.53 2775.58 1811.83 2775.46 1811.04C2775.33 1810.26 2775.52 1809.45 2775.99 1808.81C2776.46 1808.17 2777.16 1807.73 2777.95 1807.61C2778.73 1807.48 2779.54 1807.67 2780.18 1808.14L2809.54 1829.5C2810.05 1829.87 2810.44 1830.4 2810.63 1831C2810.83 1831.6 2810.83 1832.25 2810.63 1832.86C2810.44 1833.46 2810.06 1833.98 2809.54 1834.36C2809.03 1834.73 2808.41 1834.93 2807.78 1834.93V1834.9Z" fill="#FFFFFF"/>
<path d="M944.6 1503C943.968 1503 943.352 1502.8 942.84 1502.43L913.48 1481.08C912.836 1480.61 912.403 1479.91 912.279 1479.12C912.154 1478.33 912.347 1477.53 912.815 1476.89C913.283 1476.24 913.988 1475.81 914.775 1475.68C915.562 1475.56 916.366 1475.75 917.01 1476.22L946.37 1497.57C946.884 1497.94 947.267 1498.47 947.464 1499.07C947.66 1499.68 947.66 1500.33 947.463 1500.93C947.266 1501.53 946.883 1502.06 946.369 1502.43C945.854 1502.8 945.235 1503 944.6 1503Z" fill="#FFFFFF"/>
<path d="M718.25 155.84C717.613 155.84 716.993 155.636 716.48 155.26L687.12 133.91C686.792 133.682 686.513 133.391 686.299 133.054C686.085 132.716 685.941 132.34 685.875 131.946C685.808 131.552 685.821 131.149 685.913 130.76C686.004 130.371 686.172 130.005 686.407 129.682C686.642 129.359 686.94 129.086 687.281 128.88C687.623 128.673 688.003 128.537 688.398 128.479C688.793 128.421 689.196 128.443 689.583 128.542C689.969 128.642 690.332 128.818 690.65 129.06L720 150.41C720.514 150.782 720.896 151.307 721.093 151.91C721.289 152.512 721.29 153.162 721.095 153.765C720.899 154.368 720.517 154.894 720.005 155.267C719.492 155.64 718.874 155.84 718.24 155.84H718.25Z" fill="#FFFFFF"/>
<path d="M413.33 1990.39C412.691 1990.39 412.069 1990.19 411.554 1989.81C411.039 1989.43 410.658 1988.9 410.466 1988.29C410.274 1987.68 410.281 1987.03 410.487 1986.42C410.693 1985.82 411.086 1985.3 411.61 1984.93L441.4 1964.18C442.053 1963.75 442.847 1963.59 443.614 1963.74C444.381 1963.89 445.06 1964.33 445.507 1964.97C445.953 1965.61 446.132 1966.4 446.006 1967.17C445.88 1967.94 445.458 1968.64 444.83 1969.1L415 1989.85C414.511 1990.2 413.929 1990.38 413.33 1990.39Z" fill="#FFFFFF"/>
<path d="M2357.68 2234.51C2357.04 2234.51 2356.42 2234.31 2355.9 2233.93C2355.39 2233.55 2355.01 2233.02 2354.82 2232.41C2354.62 2231.8 2354.63 2231.15 2354.84 2230.54C2355.04 2229.94 2355.44 2229.42 2355.96 2229.05L2385.75 2208.3C2386.07 2208.06 2386.44 2207.89 2386.83 2207.8C2387.22 2207.7 2387.62 2207.69 2388.02 2207.75C2388.42 2207.82 2388.79 2207.96 2389.13 2208.17C2389.47 2208.39 2389.77 2208.67 2390 2209C2390.22 2209.33 2390.39 2209.7 2390.47 2210.09C2390.55 2210.48 2390.56 2210.89 2390.48 2211.28C2390.4 2211.67 2390.25 2212.05 2390.03 2212.38C2389.8 2212.72 2389.51 2213 2389.18 2213.22L2359.39 2234C2358.89 2234.34 2358.29 2234.52 2357.68 2234.51Z" fill="#FFFFFF"/>
<path d="M347.72 586.7C347.082 586.699 346.461 586.494 345.948 586.116C345.434 585.738 345.055 585.206 344.864 584.597C344.674 583.988 344.682 583.335 344.888 582.731C345.094 582.128 345.487 581.605 346.01 581.24L375.79 560.49C376.112 560.252 376.479 560.08 376.869 559.986C377.259 559.892 377.664 559.876 378.06 559.941C378.456 560.006 378.834 560.15 379.174 560.364C379.513 560.577 379.806 560.857 380.035 561.186C380.265 561.515 380.426 561.887 380.509 562.279C380.592 562.672 380.596 563.077 380.52 563.471C380.444 563.864 380.29 564.239 380.066 564.572C379.843 564.905 379.555 565.19 379.22 565.41L349.44 586.16C348.936 586.512 348.335 586.701 347.72 586.7Z" fill="#FFFFFF"/>
<path d="M1856.26 263.64C1855.56 263.639 1854.89 263.395 1854.35 262.95C1853.81 262.505 1853.45 261.886 1853.32 261.2C1853.19 260.514 1853.3 259.804 1853.63 259.193C1853.97 258.582 1854.51 258.107 1855.16 257.85L1889 244.57C1889.73 244.302 1890.55 244.331 1891.26 244.652C1891.97 244.973 1892.53 245.56 1892.82 246.288C1893.11 247.016 1893.1 247.827 1892.8 248.548C1892.49 249.27 1891.92 249.845 1891.2 250.15L1857.41 263.43C1857.04 263.575 1856.65 263.646 1856.26 263.64Z" fill="#FFFFFF"/>
<path d="M2617.57 220.65C2617.07 220.65 2616.58 220.525 2616.14 220.286C2615.7 220.046 2615.32 219.701 2615.05 219.28L2595.3 188.82C2594.95 188.159 2594.86 187.392 2595.05 186.668C2595.23 185.944 2595.68 185.315 2596.31 184.906C2596.94 184.497 2597.69 184.336 2598.43 184.455C2599.17 184.574 2599.83 184.965 2600.3 185.55L2620.09 216C2620.3 216.331 2620.45 216.701 2620.52 217.089C2620.59 217.476 2620.59 217.874 2620.5 218.26C2620.42 218.645 2620.26 219.01 2620.04 219.335C2619.82 219.659 2619.53 219.936 2619.2 220.15C2618.72 220.471 2618.15 220.645 2617.57 220.65Z" fill="#FFFFFF"/>
<path d="M256.25 2572.08C255.749 2572.08 255.256 2571.96 254.816 2571.72C254.375 2571.48 254.002 2571.13 253.73 2570.71L234 2540.25C233.66 2539.59 233.576 2538.83 233.766 2538.11C233.956 2537.39 234.406 2536.77 235.028 2536.36C235.65 2535.96 236.401 2535.8 237.135 2535.91C237.868 2536.03 238.533 2536.41 239 2536.99L258.75 2567.45C259.043 2567.9 259.209 2568.43 259.229 2568.97C259.25 2569.51 259.124 2570.04 258.866 2570.51C258.608 2570.99 258.227 2571.38 257.763 2571.66C257.299 2571.94 256.77 2572.08 256.23 2572.08H256.25Z" fill="#FFFFFF"/>
<path d="M2581.21 1633.79C2580.21 1633.79 2579.21 1633.79 2578.26 1633.79C2577.46 1633.79 2576.7 1633.47 2576.14 1632.91C2575.58 1632.35 2575.26 1631.59 2575.26 1630.79C2575.26 1629.99 2575.58 1629.23 2576.14 1628.67C2576.7 1628.11 2577.46 1627.79 2578.26 1627.79H2578.31C2581.76 1627.85 2585.31 1627.79 2588.88 1627.64C2589.27 1627.62 2589.67 1627.68 2590.04 1627.82C2590.41 1627.95 2590.75 1628.16 2591.04 1628.43C2591.33 1628.69 2591.57 1629.01 2591.73 1629.37C2591.9 1629.73 2591.99 1630.12 2592.01 1630.51C2592.03 1630.9 2591.97 1631.3 2591.83 1631.67C2591.7 1632.04 2591.49 1632.38 2591.22 1632.67C2590.96 1632.96 2590.64 1633.2 2590.28 1633.36C2589.92 1633.53 2589.53 1633.62 2589.14 1633.64C2586.51 1633.74 2583.84 1633.79 2581.21 1633.79ZM2597.05 1633.08C2596.25 1633.12 2595.48 1632.83 2594.89 1632.3C2594.3 1631.76 2593.95 1631.01 2593.92 1630.21C2593.88 1629.42 2594.16 1628.64 2594.7 1628.05C2595.24 1627.47 2595.98 1627.12 2596.78 1627.08C2602.89 1626.54 2609.14 1625.66 2615.36 1624.48C2615.75 1624.41 2616.15 1624.41 2616.53 1624.49C2616.92 1624.57 2617.28 1624.73 2617.61 1624.95C2617.94 1625.17 2618.22 1625.45 2618.43 1625.78C2618.65 1626.11 2618.8 1626.48 2618.87 1626.87C2618.94 1627.26 2618.94 1627.66 2618.86 1628.04C2618.78 1628.43 2618.62 1628.79 2618.4 1629.12C2618.18 1629.45 2617.9 1629.72 2617.57 1629.94C2617.24 1630.16 2616.87 1630.31 2616.48 1630.38C2610.06 1631.59 2603.62 1632.5 2597.32 1633.06L2597.05 1633.08ZM2562.89 1632.82H2562.57C2487.72 1624.76 2436.57 1568.25 2415.48 1522.3V1522.2C2411.96 1513.67 2408.24 1503.66 2404.61 1492.57C2390.37 1500.89 2374.62 1506.29 2358.27 1508.47C2346.82 1510.07 2336.2 1509.63 2326.71 1507.16C2325.98 1506.93 2325.37 1506.42 2324.99 1505.75C2324.62 1505.08 2324.52 1504.29 2324.72 1503.55C2324.91 1502.81 2325.38 1502.17 2326.03 1501.76C2326.68 1501.35 2327.46 1501.21 2328.21 1501.36C2336.94 1503.63 2346.78 1504.02 2357.43 1502.53C2373.45 1500.4 2388.87 1495 2402.72 1486.68C2382.53 1422.28 2366.64 1326.15 2405.24 1272.13C2422.33 1248.21 2438.46 1238.29 2453.24 1242.64C2473.24 1248.55 2485.11 1281.45 2486.48 1310.88V1310.98C2487.12 1360.98 2470.48 1449.36 2409.91 1489.29C2414.64 1503.83 2418.85 1514.53 2421.05 1519.85C2441.48 1564.36 2490.98 1619.07 2563.3 1626.85C2564.1 1626.89 2564.84 1627.25 2565.37 1627.84C2565.91 1628.43 2566.18 1629.21 2566.14 1630.01C2566.1 1630.81 2565.74 1631.55 2565.15 1632.08C2564.56 1632.62 2563.78 1632.89 2562.98 1632.85L2562.89 1632.82ZM2446.48 1247.66C2435.7 1247.66 2423.23 1257.19 2410.08 1275.59C2390.41 1303.13 2383.44 1346.39 2389.93 1400.7C2393.44 1428.72 2399.46 1456.36 2407.93 1483.3C2465.23 1444.3 2481.01 1359.3 2480.4 1311.09C2479.16 1284.45 2468.6 1253.43 2451.46 1248.37C2449.84 1247.9 2448.17 1247.66 2446.48 1247.66ZM2623.57 1628.84C2622.84 1628.84 2622.13 1628.56 2621.58 1628.07C2621.04 1627.58 2620.69 1626.91 2620.61 1626.18C2620.52 1625.45 2620.71 1624.71 2621.13 1624.11C2621.56 1623.51 2622.19 1623.09 2622.9 1622.92C2629.17 1621.48 2635.53 1619.73 2641.79 1617.7C2642.17 1617.56 2642.58 1617.49 2642.98 1617.51C2643.39 1617.52 2643.79 1617.62 2644.15 1617.8C2644.52 1617.97 2644.85 1618.22 2645.11 1618.53C2645.38 1618.83 2645.58 1619.19 2645.71 1619.58C2645.83 1619.96 2645.88 1620.37 2645.84 1620.78C2645.81 1621.18 2645.69 1621.58 2645.49 1621.93C2645.3 1622.29 2645.04 1622.6 2644.72 1622.86C2644.4 1623.11 2644.03 1623.29 2643.64 1623.4C2637.21 1625.49 2630.64 1627.29 2624.24 1628.76C2624.02 1628.82 2623.8 1628.84 2623.57 1628.84ZM2649.36 1621.3C2648.65 1621.3 2647.97 1621.05 2647.42 1620.6C2646.88 1620.14 2646.52 1619.51 2646.4 1618.81C2646.28 1618.11 2646.41 1617.39 2646.77 1616.78C2647.13 1616.17 2647.69 1615.71 2648.36 1615.47C2661.9 1610.59 2675.05 1604.7 2687.71 1597.85C2688.06 1597.64 2688.44 1597.51 2688.84 1597.46C2689.24 1597.41 2689.65 1597.44 2690.04 1597.54C2690.43 1597.65 2690.79 1597.84 2691.11 1598.09C2691.42 1598.34 2691.68 1598.66 2691.88 1599.01C2692.07 1599.37 2692.19 1599.76 2692.22 1600.16C2692.26 1600.56 2692.21 1600.97 2692.09 1601.35C2691.97 1601.74 2691.77 1602.09 2691.5 1602.4C2691.24 1602.7 2690.91 1602.95 2690.55 1603.13C2677.63 1610.13 2664.2 1616.15 2650.37 1621.13C2650.04 1621.24 2649.7 1621.3 2649.36 1621.3ZM2321.36 1505.3C2321.02 1505.29 2320.68 1505.23 2320.36 1505.11C2313.92 1502.69 2307.93 1499.21 2302.64 1494.81C2302.06 1494.29 2301.71 1493.57 2301.66 1492.8C2301.6 1492.03 2301.84 1491.26 2302.34 1490.67C2302.83 1490.07 2303.53 1489.69 2304.3 1489.6C2305.07 1489.51 2305.84 1489.72 2306.46 1490.19C2311.24 1494.16 2316.65 1497.3 2322.46 1499.49C2323.12 1499.74 2323.67 1500.21 2324.02 1500.82C2324.36 1501.43 2324.49 1502.14 2324.36 1502.83C2324.24 1503.53 2323.87 1504.15 2323.33 1504.6C2322.79 1505.05 2322.11 1505.3 2321.41 1505.3H2321.36ZM2297.84 1489.12C2297.42 1489.12 2297.01 1489.03 2296.62 1488.86C2296.24 1488.68 2295.9 1488.43 2295.62 1488.12C2291.66 1483.71 2288.17 1478.89 2285.22 1473.74C2285.02 1473.4 2284.9 1473.02 2284.84 1472.63C2284.79 1472.24 2284.82 1471.84 2284.92 1471.46C2285.02 1471.08 2285.2 1470.72 2285.44 1470.41C2285.68 1470.1 2285.98 1469.84 2286.32 1469.64C2286.66 1469.44 2287.04 1469.32 2287.43 1469.26C2287.82 1469.21 2288.22 1469.24 2288.6 1469.34C2288.98 1469.44 2289.34 1469.62 2289.65 1469.86C2289.96 1470.1 2290.22 1470.4 2290.42 1470.74C2293.16 1475.51 2296.39 1479.98 2300.06 1484.08C2300.45 1484.51 2300.7 1485.04 2300.79 1485.61C2300.88 1486.18 2300.8 1486.77 2300.57 1487.3C2300.33 1487.83 2299.95 1488.27 2299.47 1488.59C2298.98 1488.91 2298.42 1489.08 2297.84 1489.08V1489.12ZM2281.07 1461.29C2280.47 1461.29 2279.89 1461.11 2279.39 1460.78C2278.9 1460.44 2278.51 1459.96 2278.29 1459.41C2269.13 1436.63 2264.54 1406.78 2264.63 1370.67C2264.82 1341.34 2267.68 1312.09 2273.16 1283.27C2273.23 1282.88 2273.38 1282.5 2273.59 1282.17C2273.81 1281.84 2274.09 1281.55 2274.42 1281.32C2274.74 1281.1 2275.11 1280.94 2275.5 1280.86C2275.89 1280.78 2276.29 1280.77 2276.68 1280.85C2277.07 1280.93 2277.45 1281.08 2277.78 1281.3C2278.11 1281.52 2278.39 1281.8 2278.61 1282.13C2278.83 1282.47 2278.98 1282.84 2279.06 1283.23C2279.13 1283.62 2279.13 1284.02 2279.05 1284.41C2269.39 1334.55 2264.85 1409.88 2283.85 1457.17C2284.03 1457.63 2284.1 1458.12 2284.05 1458.61C2284 1459.09 2283.83 1459.56 2283.55 1459.97C2283.28 1460.37 2282.91 1460.71 2282.48 1460.94C2282.04 1461.17 2281.56 1461.29 2281.07 1461.29Z" fill="#FFFFFF"/>
<path d="M606.17 1767.24H604.82C604.426 1767.23 604.037 1767.15 603.676 1766.99C603.315 1766.83 602.988 1766.61 602.715 1766.32C602.441 1766.04 602.226 1765.7 602.082 1765.34C601.938 1764.97 601.868 1764.58 601.875 1764.19C601.882 1763.79 601.967 1763.4 602.124 1763.04C602.282 1762.68 602.509 1762.35 602.793 1762.08C603.076 1761.81 603.411 1761.59 603.778 1761.45C604.144 1761.3 604.536 1761.23 604.93 1761.24C606.49 1761.24 608.17 1761.24 609.93 1761.16C610.61 1761.13 611.28 1761.33 611.83 1761.73C612.323 1761.26 612.961 1760.97 613.64 1760.91C616.48 1760.66 619.43 1760.25 622.41 1759.69C623.063 1759.57 623.739 1759.67 624.33 1759.97C624.748 1759.46 625.326 1759.11 625.97 1758.97C628.97 1758.28 631.97 1757.45 634.92 1756.5C635.485 1756.67 636.088 1756.65 636.645 1756.46C637.202 1756.27 637.686 1755.91 638.03 1755.43C644.46 1753.12 650.704 1750.33 656.71 1747.07C657.41 1746.69 658.232 1746.61 658.994 1746.84C659.756 1747.06 660.397 1747.59 660.775 1748.29C661.153 1748.99 661.237 1749.81 661.009 1750.57C660.782 1751.33 660.26 1751.97 659.56 1752.35C653.283 1755.75 646.758 1758.67 640.04 1761.09C639.46 1761.29 638.832 1761.32 638.24 1761.15C637.873 1761.65 637.359 1762.01 636.77 1762.2C633.64 1763.2 630.46 1764.09 627.32 1764.81C626.645 1764.97 625.936 1764.88 625.32 1764.56C624.864 1765.09 624.238 1765.44 623.55 1765.56C620.38 1766.15 617.23 1766.56 614.2 1766.86C613.488 1766.92 612.779 1766.72 612.2 1766.3C611.675 1766.8 610.986 1767.1 610.26 1767.13C608.8 1767.21 607.46 1767.24 606.17 1767.24ZM597.47 1766.77H597.14C560.53 1762.83 535.53 1735.22 525.23 1712.77V1712.67C523.72 1709.01 522.13 1704.78 520.57 1700.13C513.99 1703.69 506.816 1706.03 499.4 1707.02C494.155 1707.84 488.8 1707.62 483.64 1706.37C483.069 1706.22 482.554 1705.91 482.16 1705.47C481.584 1705.59 480.984 1705.55 480.43 1705.35C477.177 1704.12 474.152 1702.36 471.48 1700.14C471.129 1699.85 470.848 1699.48 470.659 1699.07C470.471 1698.66 470.378 1698.21 470.39 1697.75C469.937 1697.78 469.484 1697.7 469.065 1697.53C468.646 1697.35 468.272 1697.09 467.97 1696.75C465.99 1694.55 464.25 1692.14 462.78 1689.57C462.563 1689.23 462.417 1688.85 462.351 1688.45C462.286 1688.05 462.302 1687.64 462.398 1687.25C462.494 1686.85 462.669 1686.48 462.912 1686.16C463.154 1685.84 463.46 1685.57 463.81 1685.36C464.161 1685.16 464.548 1685.03 464.95 1684.98C465.352 1684.93 465.759 1684.97 466.148 1685.08C466.536 1685.19 466.898 1685.38 467.211 1685.64C467.524 1685.89 467.782 1686.21 467.97 1686.57C469.228 1688.77 470.717 1690.83 472.41 1692.71C472.371 1693.09 472.421 1693.48 472.554 1693.84C472.687 1694.21 472.901 1694.53 473.179 1694.8C473.458 1695.07 473.793 1695.27 474.161 1695.39C474.528 1695.51 474.917 1695.54 475.3 1695.49C477.464 1697.28 479.91 1698.71 482.54 1699.7C482.993 1699.87 483.398 1700.15 483.72 1700.51C484.186 1700.39 484.674 1700.39 485.14 1700.51C489.54 1701.56 494.102 1701.74 498.57 1701.03C505.652 1700.08 512.485 1697.77 518.69 1694.23C509 1663 501.8 1617.11 520.44 1591C529.08 1578.91 537.44 1573.94 545.19 1576.24C555.98 1579.42 561.61 1596.24 562.27 1610.44V1610.54C562.58 1634.64 554.62 1677.02 525.78 1696.86C527.88 1703.2 529.72 1707.86 530.71 1710.28C540.36 1731.28 563.71 1757.08 597.79 1760.76C598.586 1760.8 599.332 1761.16 599.864 1761.75C600.397 1762.34 600.672 1763.12 600.63 1763.92C600.588 1764.72 600.231 1765.46 599.638 1765.99C599.046 1766.53 598.266 1766.8 597.47 1766.76V1766.77ZM541.47 1581.77C535.71 1581.77 529.6 1588.52 525.29 1594.54C516.07 1607.45 512.82 1627.85 515.89 1653.54C517.484 1666.19 520.16 1678.69 523.89 1690.88C549.45 1672.02 556.56 1633.05 556.29 1610.72C555.7 1598.29 550.76 1584.18 543.5 1582.04C542.851 1581.85 542.177 1581.74 541.5 1581.74L541.47 1581.77ZM462.07 1684.41C461.47 1684.41 460.884 1684.23 460.387 1683.9C459.889 1683.56 459.504 1683.09 459.28 1682.53C453.07 1667.07 449.13 1636.53 456.74 1597.04C456.81 1596.65 456.956 1596.27 457.172 1595.94C457.387 1595.61 457.667 1595.32 457.995 1595.09C458.323 1594.87 458.693 1594.71 459.082 1594.63C459.471 1594.55 459.873 1594.54 460.264 1594.62C460.654 1594.7 461.026 1594.85 461.357 1595.07C461.688 1595.29 461.972 1595.57 462.192 1595.9C462.412 1596.24 462.564 1596.61 462.64 1597C462.715 1597.39 462.711 1597.79 462.63 1598.18C458.02 1622.06 455.84 1657.89 464.85 1680.29C465.033 1680.75 465.102 1681.24 465.05 1681.73C464.999 1682.21 464.828 1682.68 464.554 1683.09C464.279 1683.49 463.909 1683.83 463.476 1684.06C463.043 1684.29 462.561 1684.41 462.07 1684.41Z" fill="#FFFFFF"/>
<path d="M1063.44 2305.67L824 2687.4H2315.19L2152.49 2515.58L2035.87 2424.08L1998.2 2494.08L1944.37 2368.49L1910.28 2454.61L1869 2390L1740.89 2515.59L1685.99 2569.42L1506.6 2305.67L1456.36 2259L1438.42 2338L1289.5 2183.67L1244.65 2305.67L1210.56 2124.46L1063.44 2305.67Z" fill="#FFFFFF"/>
<path d="M2322.16 2690.4H818.58L1060.87 2304.12L1246.14 1982.89L1251.34 1985.89L1084.88 2274.51L1212.31 2117.51L1245.59 2294.4L1288.34 2178.11L1436.72 2331.85L1454.59 2253.25L1489.5 2285.67L1287.01 1985.67L1292.01 1982.31L1509.09 2304L1686.47 2564.77L1738.69 2513.56L1883.56 2336.07L1888.2 2339.87L1777.44 2475.58L1869.56 2385.27L1909.65 2448.03L1944.26 2360.6L1998.51 2487.16L2034.92 2419.53L2127.24 2491.97L1961.74 2307.69L1966.2 2303.69L2154.7 2513.57L2322.16 2690.4ZM829.43 2684.4H2308.22L2150.46 2517.8L2036.82 2428.64L1997.89 2501L1944.48 2376.38L1910.91 2461.19L1868.48 2394.77L1743.01 2517.77L1685.55 2574.11L1504.31 2307.69L1458.13 2264.81L1440.13 2344.09L1290.66 2189.2L1243.66 2316.91L1208.76 2131.38L1065.83 2307.38L829.43 2684.4Z" fill="#FFFFFF"/>
<path d="M2656.45 2691.37H587.34C586.544 2691.37 585.781 2691.05 585.219 2690.49C584.656 2689.93 584.34 2689.17 584.34 2688.37C584.34 2687.57 584.656 2686.81 585.219 2686.25C585.781 2685.69 586.544 2685.37 587.34 2685.37H2656.45C2657.25 2685.37 2658.01 2685.69 2658.57 2686.25C2659.13 2686.81 2659.45 2687.57 2659.45 2688.37C2659.45 2689.17 2659.13 2689.93 2658.57 2690.49C2658.01 2691.05 2657.25 2691.37 2656.45 2691.37Z" fill="#FFFFFF"/>
<path d="M1524.81 689.11C1524.42 689.13 1524.02 689.072 1523.65 688.939C1523.28 688.806 1522.94 688.602 1522.64 688.337C1522.35 688.073 1522.11 687.753 1521.95 687.397C1521.78 687.04 1521.68 686.654 1521.66 686.26C1521.64 685.866 1521.7 685.472 1521.83 685.101C1521.96 684.729 1522.17 684.387 1522.43 684.095C1522.7 683.802 1523.02 683.565 1523.37 683.396C1523.73 683.227 1524.12 683.13 1524.51 683.11L1547.23 680.84L1543.89 654.4C1543.05 653.31 1542.24 652.17 1541.49 651.01L1541.42 650.89C1513.99 603.89 1524.53 544.21 1533.93 519.24C1534.07 518.871 1534.28 518.533 1534.55 518.245C1534.82 517.957 1535.14 517.725 1535.5 517.562C1535.86 517.399 1536.25 517.308 1536.64 517.295C1537.03 517.282 1537.43 517.346 1537.8 517.485C1538.16 517.624 1538.5 517.833 1538.79 518.103C1539.08 518.372 1539.31 518.695 1539.47 519.054C1539.64 519.413 1539.73 519.8 1539.74 520.194C1539.75 520.588 1539.69 520.981 1539.55 521.35C1530.49 545.35 1520.31 602.73 1546.55 647.81C1547.33 649.01 1548.17 650.18 1549.05 651.29L1549.11 651.36C1551.05 653.781 1553.27 655.96 1555.73 657.85C1558.18 659.72 1580.38 675.67 1604.53 659.51C1610.79 655.32 1618.94 646.76 1623.21 640.89C1626.41 636.36 1633.31 625.46 1636.64 616.55C1636.93 615.814 1637.49 615.221 1638.21 614.898C1638.93 614.575 1639.75 614.549 1640.49 614.825C1641.23 615.101 1641.83 615.657 1642.16 616.373C1642.49 617.089 1642.53 617.907 1642.26 618.65C1638.96 627.5 1632.41 638.09 1628.83 643.32L1635.33 678.32H1661.63C1662.43 678.32 1663.19 678.636 1663.75 679.199C1664.31 679.761 1664.63 680.524 1664.63 681.32C1664.63 682.116 1664.31 682.879 1663.75 683.441C1663.19 684.004 1662.43 684.32 1661.63 684.32H1630.35L1623.9 649.58C1619.25 654.96 1613.13 660.93 1607.9 664.45C1580.29 682.92 1554.9 664.71 1552.12 662.57C1551.69 662.24 1551.27 661.91 1550.86 661.57L1553.96 686.15L1525.12 689.03L1524.81 689.11Z" fill="#FFFFFF"/>
<path d="M1619.32 652.36C1593.32 676.56 1559.43 665.04 1546.95 655.79L1550.39 679.49C1582.33 697.21 1610.48 668.47 1619.32 652.36Z" fill="#FFFFFF"/>
<path d="M1634.32 619.74C1631.97 619.745 1629.63 619.551 1627.32 619.16C1626.92 619.11 1626.53 618.98 1626.18 618.776C1625.83 618.572 1625.52 618.299 1625.28 617.974C1625.04 617.649 1624.87 617.279 1624.77 616.885C1624.68 616.491 1624.66 616.082 1624.73 615.682C1624.8 615.282 1624.95 614.901 1625.16 614.56C1625.38 614.219 1625.67 613.926 1626.01 613.699C1626.34 613.471 1626.72 613.315 1627.12 613.237C1627.51 613.16 1627.92 613.164 1628.32 613.25C1633.15 614.056 1638.09 613.883 1642.85 612.74C1648.53 611.24 1652.1 608.22 1653.45 603.74C1655.02 598.57 1654.27 594.42 1651.29 591.74C1647.52 588.35 1640.78 587.82 1634.5 590.45C1633.77 590.758 1632.94 590.761 1632.2 590.459C1631.46 590.157 1630.88 589.575 1630.57 588.84C1630.26 588.105 1630.26 587.278 1630.56 586.541C1630.86 585.804 1631.45 585.218 1632.18 584.91C1640.7 581.35 1649.77 582.29 1655.31 587.29C1660.07 591.59 1661.45 598.06 1659.19 605.5C1655.75 616.78 1643.75 619.74 1634.32 619.74Z" fill="#FFFFFF"/>
<path d="M1539.9 630.76L1543.7 624.29C1552.42 609.48 1557.56 580.98 1553.35 570.8C1549.35 561.17 1535.21 557.93 1529.35 557.93C1528.55 557.93 1527.79 557.614 1527.23 557.052C1526.67 556.489 1526.35 555.726 1526.35 554.93C1526.35 554.135 1526.67 553.371 1527.23 552.809C1527.79 552.246 1528.55 551.93 1529.35 551.93C1535.24 551.93 1553.35 554.98 1558.88 568.51C1563.56 579.83 1559.23 604.61 1552.16 620.79C1555.82 619.14 1560.34 615.93 1566.03 608.62C1566.52 607.992 1567.24 607.583 1568.03 607.485C1568.82 607.386 1569.62 607.606 1570.24 608.095C1570.87 608.584 1571.28 609.303 1571.38 610.094C1571.48 610.884 1571.26 611.682 1570.77 612.31C1560.77 625.14 1553.37 627.06 1548.48 628.31C1548 628.43 1547.54 628.55 1547.1 628.68L1539.9 630.76Z" fill="#FFFFFF"/>
<path d="M1613.72 568.45C1612.94 568.452 1612.18 568.147 1611.62 567.6C1607.01 563.1 1595.46 557.07 1584.72 566.44C1584.12 566.929 1583.35 567.165 1582.57 567.098C1581.8 567.031 1581.08 566.667 1580.57 566.081C1580.06 565.495 1579.8 564.734 1579.83 563.958C1579.87 563.182 1580.21 562.451 1580.78 561.92C1586.92 556.56 1602.14 549.92 1615.78 563.3C1616.21 563.716 1616.5 564.25 1616.62 564.834C1616.75 565.418 1616.69 566.025 1616.47 566.578C1616.24 567.131 1615.86 567.604 1615.36 567.938C1614.87 568.271 1614.29 568.45 1613.69 568.45H1613.72Z" fill="#FFFFFF"/>
<path d="M1574.29 638C1573.6 638.005 1572.91 637.965 1572.22 637.88C1571.79 637.888 1571.36 637.803 1570.96 637.631C1570.57 637.458 1570.21 637.202 1569.92 636.879C1569.64 636.557 1569.42 636.176 1569.29 635.763C1569.17 635.35 1569.13 634.915 1569.19 634.486C1569.24 634.058 1569.39 633.647 1569.62 633.281C1569.85 632.915 1570.16 632.604 1570.52 632.368C1570.89 632.132 1571.29 631.977 1571.72 631.913C1572.15 631.85 1572.58 631.879 1573 632C1576.35 632.42 1583.79 631.47 1588 624.87C1588.47 624.354 1589.11 624.021 1589.81 623.927C1590.5 623.833 1591.21 623.985 1591.8 624.357C1592.39 624.729 1592.84 625.297 1593.06 625.962C1593.28 626.627 1593.26 627.348 1593 628C1588 636 1579.48 638 1574.29 638Z" fill="#FFFFFF"/>
<path d="M1628.92 606.5C1628.38 606.501 1627.86 606.359 1627.4 606.087C1626.93 605.816 1626.55 605.426 1626.29 604.957C1626.03 604.489 1625.9 603.959 1625.92 603.423C1625.93 602.887 1626.09 602.365 1626.37 601.91C1628.86 597.91 1636.37 590.72 1647.14 592.01C1647.53 592.057 1647.91 592.182 1648.26 592.376C1648.61 592.571 1648.91 592.831 1649.16 593.143C1649.4 593.455 1649.58 593.813 1649.69 594.195C1649.8 594.577 1649.83 594.976 1649.78 595.37C1649.73 595.764 1649.61 596.145 1649.41 596.491C1649.22 596.837 1648.96 597.141 1648.65 597.386C1648.33 597.631 1647.98 597.813 1647.6 597.92C1647.21 598.027 1646.81 598.057 1646.42 598.01C1638.69 597.08 1633.25 602.26 1631.42 605.13C1631.15 605.548 1630.78 605.892 1630.34 606.131C1629.91 606.37 1629.42 606.497 1628.92 606.5Z" fill="#FFFFFF"/>
<path d="M1640 611.67C1639.47 611.67 1638.95 611.529 1638.49 611.261C1638.03 610.993 1637.65 610.608 1637.39 610.145C1637.12 609.682 1636.99 609.158 1637 608.627C1637.01 608.095 1637.16 607.575 1637.43 607.12C1638.77 604.89 1639.25 602.96 1638.78 601.68C1638.61 601.285 1638.36 600.93 1638.05 600.638C1637.74 600.345 1637.36 600.121 1636.96 599.98C1636.2 599.731 1635.58 599.191 1635.22 598.48C1634.86 597.77 1634.8 596.946 1635.05 596.19C1635.3 595.434 1635.84 594.808 1636.55 594.45C1637.26 594.092 1638.08 594.031 1638.84 594.28C1640.1 594.695 1641.26 595.389 1642.22 596.309C1643.19 597.23 1643.93 598.354 1644.4 599.6C1645.2 601.74 1645.52 605.32 1642.57 610.22C1642.3 610.663 1641.93 611.029 1641.48 611.283C1641.03 611.537 1640.52 611.67 1640 611.67Z" fill="#FFFFFF"/>
<path d="M1520.73 539.4C1484.99 561.22 1511.06 583.74 1527.89 591.12C1526.38 579.52 1529.32 558.3 1529.32 557.23C1536.2 553.96 1536.32 548.57 1535.55 546.23L1553.84 528L1615.84 530.46C1612.58 550.57 1630.54 571.46 1638.63 578.46C1634.76 581.68 1636.05 586.83 1636.05 585.76C1651.05 581.12 1656.6 589.98 1657.53 595C1662.83 589.62 1673.22 575.88 1672.36 563.85C1671.5 551.82 1656.53 542.51 1649.16 539.36C1663.59 489.52 1633.98 482.08 1617.36 484.58C1618.65 478.35 1616.51 459.67 1601.04 455.37C1552.49 445.92 1548.63 496.83 1548.63 495.75C1518.58 492.7 1517.51 523.58 1520.73 539.4Z" fill="#FFFFFF"/>
<path d="M1632.22 631.55C1626.55 625.02 1626.85 619.24 1627.71 617.16H1640L1632.22 631.55Z" fill="#FFFFFF"/>
<path d="M1627.78 573.44L1569.36 578.38L1582.46 606.31L1618.12 608.67L1627.78 573.44Z" fill="#FFFFFF"/>
<path d="M1588 576.81L1582.43 577.28L1592.68 606.98L1597.8 607.37L1588 576.81Z" fill="white"/>
<path d="M1597.11 576L1591.8 576.45L1602.53 607.61L1606.88 607.92L1597.11 576Z" fill="white"/>
<path d="M1498.33 573.44L1556.76 578.38L1543.66 606.31L1508 608.67L1498.33 573.44Z" fill="#FFFFFF"/>
<path d="M1520.92 575.38L1515.06 574.78L1526.19 607.46L1531.13 607.13L1520.92 575.38Z" fill="white"/>
<path d="M1530.69 576.17L1524.81 575.7L1535.62 606.85L1539.91 606.56L1530.69 576.17Z" fill="white"/>
<path d="M1577.44 584.73H1549.73V590.73H1577.44V584.73Z" fill="#FFFFFF"/>
<path d="M1641.95 576.378L1619.6 582.394L1621.16 588.188L1643.51 582.171L1641.95 576.378Z" fill="#FFFFFF"/>
<path d="M2148.93 1202C2146.75 1202 2144.56 1201.93 2142.35 1201.77C2116.44 1199.95 2088.41 1187.77 2056.68 1164.46L2056.43 1164.26L1918.69 1039.2C1918.36 1038.95 1918.08 1038.63 1917.88 1038.27C1917.67 1037.91 1917.55 1037.51 1917.51 1037.09C1917.47 1036.68 1917.51 1036.26 1917.64 1035.86C1917.77 1035.47 1917.98 1035.1 1918.26 1034.79C1918.54 1034.48 1918.88 1034.24 1919.26 1034.06C1919.64 1033.89 1920.05 1033.8 1920.47 1033.8C1920.89 1033.8 1921.3 1033.88 1921.68 1034.05C1922.06 1034.21 1922.41 1034.45 1922.69 1034.76L2060.31 1159.76C2126.21 1208.06 2177.31 1208.15 2221.16 1160.07C2243.32 1135.77 2270.07 1074.82 2298.54 983.79C2328.54 887.86 2349.45 795.02 2355.14 768.85L2355.4 767.65L2459.7 699.9L2459.14 717.82C2458.33 731.15 2465.91 739.37 2473.46 740.38C2481.01 741.39 2487.46 734.99 2489.86 723.61C2491.45 705.68 2492.03 655.82 2491.77 615.61C2491.55 612.372 2490.37 609.272 2488.39 606.701C2486.41 604.13 2483.71 602.202 2480.64 601.16C2477.88 600.157 2474.89 599.935 2472 600.519C2469.12 601.103 2466.46 602.47 2464.3 604.47V683.79C2464.3 684.586 2463.98 685.349 2463.42 685.911C2462.86 686.474 2462.1 686.79 2461.3 686.79C2460.5 686.79 2459.74 686.474 2459.18 685.911C2458.62 685.349 2458.3 684.586 2458.3 683.79V587.43C2458.3 578.66 2454.38 570.43 2448.76 567.43C2445.27 565.56 2441.42 565.8 2437.3 568.14V664.6C2437.3 665.396 2436.98 666.159 2436.42 666.721C2435.86 667.284 2435.1 667.6 2434.3 667.6C2433.5 667.6 2432.74 667.284 2432.18 666.721C2431.62 666.159 2431.3 665.396 2431.3 664.6V566.44C2431.3 560.82 2429.3 552.82 2423.78 548.67C2419.57 545.51 2413.84 544.95 2406.78 547.02C2399.09 549.406 2392.49 554.427 2388.13 561.2L2354.13 635.07C2365.82 649.07 2379.18 683.89 2353.13 725.57C2352.93 725.924 2352.66 726.234 2352.34 726.481C2352.02 726.728 2351.65 726.907 2351.26 727.008C2350.86 727.108 2350.45 727.128 2350.05 727.065C2349.65 727.002 2349.27 726.859 2348.92 726.644C2348.58 726.428 2348.28 726.145 2348.05 725.812C2347.82 725.478 2347.66 725.101 2347.58 724.704C2347.49 724.306 2347.49 723.896 2347.58 723.498C2347.66 723.1 2347.82 722.724 2348.05 722.39C2373.16 682.19 2359.25 649.39 2348.39 637.62L2347.03 636.15L2382.66 558.82C2383.28 554.67 2380.66 546.92 2374.92 543.59C2368.98 540.14 2361.25 542.31 2352.56 549.85C2331.79 567.85 2275.72 650.31 2238.62 704.85C2233.53 712.32 2228.83 719.24 2224.62 725.34L2134.55 986.43L2021.15 885.31C2020.56 884.78 2020.2 884.035 2020.15 883.24C2020.11 882.445 2020.38 881.664 2020.91 881.07C2021.44 880.476 2022.19 880.117 2022.98 880.072C2023.78 880.027 2024.56 880.3 2025.15 880.83L2131.81 976L2219.22 722.67L2219.44 722.34C2223.67 716.15 2228.44 709.13 2233.63 701.52C2270.9 646.73 2327.23 563.91 2348.63 545.37C2354.8 540.02 2366.81 532 2377.94 538.45C2382.86 541.52 2386.43 546.34 2387.94 551.94C2392.62 547.037 2398.47 543.397 2404.94 541.36H2405.05C2414.05 538.72 2421.6 539.6 2427.42 543.95C2433.24 548.3 2436.06 555.36 2436.99 561.75C2439.31 560.714 2441.83 560.22 2444.37 560.305C2446.9 560.39 2449.39 561.052 2451.63 562.24C2459.23 566.3 2464.34 576.46 2464.34 587.52V597C2467.1 595.439 2470.16 594.489 2473.32 594.217C2476.48 593.944 2479.65 594.355 2482.64 595.42C2486.82 596.862 2490.48 599.497 2493.17 602.998C2495.87 606.5 2497.48 610.714 2497.8 615.12V615.37C2498.06 655.86 2497.47 706.25 2495.85 724.23L2495.8 724.58C2493.47 735.69 2486.02 748.04 2472.69 746.24C2462.46 744.87 2452.15 734.31 2453.18 717.45L2453.37 711.09L2360.77 771.24C2336.35 883.17 2277.07 1107.6 2225.63 1164.02C2202.66 1189.24 2176.88 1202 2148.93 1202ZM2399.64 672.56C2398.84 672.56 2398.08 672.244 2397.52 671.681C2396.96 671.119 2396.64 670.356 2396.64 669.56V591.21C2396.64 590.414 2396.96 589.651 2397.52 589.089C2398.08 588.526 2398.84 588.21 2399.64 588.21C2400.44 588.21 2401.2 588.526 2401.76 589.089C2402.32 589.651 2402.64 590.414 2402.64 591.21V669.54C2402.64 670.336 2402.32 671.099 2401.76 671.661C2401.2 672.224 2400.44 672.54 2399.64 672.54V672.56Z" fill="#FFFFFF"/>
<path d="M1087.36 1135.17C1086.85 1135.17 1086.35 1135.04 1085.91 1134.8C1073.4 1127.87 1061.5 1117.61 1050.53 1104.31C1001.98 1045.31 954.03 818.25 935.25 705.25L845.79 640.53L845.66 646.99C845.84 663.78 835.01 673.81 824.74 674.67C824.18 674.67 823.63 674.74 823.1 674.74C810.77 674.74 804.43 662.62 802.74 651.87V651.53C802.01 633.53 803.95 583.16 806.24 542.7V542.46C806.789 538.075 808.608 533.947 811.474 530.583C814.34 527.22 818.128 524.768 822.37 523.53C825.405 522.617 828.602 522.368 831.742 522.799C834.882 523.231 837.893 524.333 840.57 526.03L841.05 516.45C841.61 505.45 847.22 495.52 855.05 491.84C857.353 490.77 859.869 490.236 862.409 490.279C864.948 490.323 867.445 490.942 869.71 492.09C870.95 485.75 874.14 478.85 880.15 474.8C886.16 470.75 893.74 470.24 902.62 473.33H902.73C932.96 485.12 969.73 518.12 994.12 539.95L994.79 540.55L1009.65 552.66C1013.51 542.66 1023.65 516.47 1025.56 511.05C1030.49 496.87 1040.98 472.57 1055.81 469.05C1057.74 468.511 1059.78 468.474 1061.73 468.943C1063.68 469.412 1065.48 470.371 1066.96 471.73C1077.19 481.56 1079.26 512.24 1073.11 562.94C1068.98 597 1062.4 629.18 1061.28 634.58L1153.63 921.32L1267.36 832.42C1267.99 831.929 1268.78 831.708 1269.57 831.805C1270.36 831.901 1271.08 832.308 1271.57 832.935C1272.07 833.562 1272.29 834.359 1272.19 835.149C1272.09 835.94 1271.69 836.66 1271.06 837.15L1150.5 931.33L1055 634.9L1055.17 634.11C1063.31 595.96 1080.56 493.18 1062.72 476.11C1061.97 475.449 1061.06 474.994 1060.08 474.789C1059.1 474.584 1058.08 474.636 1057.13 474.94C1052.96 475.94 1042.13 481.65 1031.13 513.11C1028.8 519.82 1014.59 556.36 1013.68 558.7C1013.62 558.873 1013.54 559.04 1013.45 559.2C1013.31 559.426 1013.15 559.634 1012.96 559.82C1012.84 559.943 1012.7 560.054 1012.56 560.15C1012.32 560.31 1012.06 560.438 1011.79 560.53C1000.1 564.943 989.869 572.505 982.22 582.38C969.22 599.12 965.22 620.65 970.43 646.38C970.521 646.771 970.532 647.177 970.464 647.573C970.395 647.968 970.248 648.346 970.03 648.684C969.813 649.021 969.53 649.312 969.198 649.538C968.866 649.765 968.492 649.922 968.098 650.001C967.704 650.08 967.299 650.079 966.905 649.998C966.512 649.918 966.139 649.759 965.808 649.531C965.477 649.304 965.195 649.012 964.979 648.673C964.763 648.335 964.617 647.956 964.55 647.56C959.03 620.04 963.38 596.87 977.48 578.69C984.812 569.318 994.26 561.817 1005.05 556.8L990.05 544.5C966.05 522.97 929.74 490.44 900.53 479.02C893.53 476.6 887.8 476.87 883.44 479.81C877.7 483.68 875.33 491.57 875.04 497.18C875.04 497.18 875.04 497.24 875.04 497.27L870.13 595.27C870.09 596.066 869.736 596.813 869.145 597.348C868.554 597.882 867.776 598.16 866.98 598.12C866.184 598.08 865.437 597.726 864.903 597.135C864.368 596.545 864.09 595.766 864.13 594.97L869 498.55C865 496.01 861.17 495.55 857.58 497.27C851.8 500 847.48 508 847 516.75L846.21 532.48L842.21 612.95C842.17 613.746 841.816 614.493 841.225 615.028C840.635 615.562 839.856 615.84 839.06 615.8C838.264 615.76 837.517 615.406 836.983 614.815C836.448 614.225 836.17 613.446 836.21 612.65L840.21 533.42C838.148 531.31 835.544 529.809 832.684 529.082C829.824 528.355 826.82 528.43 824 529.3C820.879 530.188 818.09 531.978 815.984 534.446C813.877 536.913 812.547 539.949 812.16 543.17C809.89 583.33 807.97 633.17 808.66 651.11C810.52 662.6 816.48 669.33 824.2 668.69C831.92 668.05 839.77 660.22 839.63 646.96L839.98 628.96L940.74 701.84L940.94 703.06C945.31 729.48 961.53 823.23 986.7 920.57C1010.57 1012.9 1034.23 1075.12 1055.14 1100.5C1065.62 1113.22 1076.94 1123 1088.78 1129.56C1089.36 1129.88 1089.82 1130.39 1090.08 1131C1090.34 1131.61 1090.39 1132.29 1090.22 1132.93C1090.06 1133.57 1089.68 1134.14 1089.16 1134.55C1088.64 1134.96 1087.99 1135.18 1087.33 1135.18L1087.36 1135.17ZM1263.41 1077.1C1262.79 1077.1 1262.18 1076.9 1261.68 1076.54C1261.17 1076.19 1260.79 1075.68 1260.59 1075.09C1260.38 1074.51 1260.36 1073.87 1260.53 1073.27C1260.7 1072.68 1261.06 1072.15 1261.54 1071.76L1360.9 992.4C1361.52 991.924 1362.31 991.711 1363.09 991.808C1363.87 991.904 1364.58 992.301 1365.07 992.914C1365.55 993.528 1365.78 994.309 1365.7 995.089C1365.62 995.87 1365.24 996.588 1364.64 997.09L1265.28 1076.44C1264.75 1076.87 1264.09 1077.1 1263.41 1077.1ZM904.61 605.19H904.4C903.607 605.136 902.868 604.77 902.345 604.172C901.822 603.574 901.558 602.793 901.61 602L906.74 525.92C906.766 525.526 906.87 525.141 907.045 524.787C907.22 524.433 907.463 524.117 907.76 523.857C908.057 523.597 908.403 523.398 908.777 523.272C909.151 523.145 909.546 523.094 909.94 523.12C910.334 523.146 910.719 523.25 911.073 523.425C911.427 523.6 911.743 523.843 912.003 524.14C912.263 524.437 912.462 524.783 912.588 525.157C912.715 525.531 912.766 525.926 912.74 526.32L907.62 602.4C907.567 603.161 907.226 603.872 906.667 604.39C906.108 604.909 905.372 605.195 904.61 605.19Z" fill="#FFFFFF"/>
<path d="M1580.4 1844.31L1580.52 1840.99L1595.19 1424.72L1300.52 1413.39L1266.24 1280.34V1280.22L1213.64 1069.7L1217.64 1069.82C1219.25 1069.82 1380.64 1075.05 1476.43 1082.61C1477.23 1082.67 1477.96 1083.05 1478.48 1083.66C1479 1084.27 1479.25 1085.05 1479.19 1085.85C1479.13 1086.65 1478.75 1087.38 1478.14 1087.9C1477.53 1088.42 1476.75 1088.67 1475.95 1088.61C1388.7 1081.73 1246.88 1076.82 1221.41 1075.97L1271.7 1277.22L1595.35 1380.79V1320.79C1595.35 1319.99 1595.67 1319.23 1596.23 1318.67C1596.79 1318.11 1597.55 1317.79 1598.35 1317.79C1599.15 1317.79 1599.91 1318.11 1600.47 1318.67C1601.03 1319.23 1601.35 1319.99 1601.35 1320.79V1422L1586.69 1837.92L1782.54 1825.24L1838 1291C1829.5 1283.45 1820.7 1274.89 1811.61 1265.3C1791.02 1243.53 1772.1 1220.24 1755.02 1195.62C1754.57 1194.96 1754.41 1194.14 1754.56 1193.36C1754.71 1192.57 1755.17 1191.88 1755.83 1191.43C1756.49 1190.98 1757.31 1190.82 1758.09 1190.97C1758.88 1191.12 1759.57 1191.58 1760.02 1192.24C1776.19 1215.93 1808.02 1256.35 1842.02 1286.54C1842.44 1286.66 1842.83 1286.88 1843.16 1287.17C1843.49 1287.46 1843.75 1287.82 1843.93 1288.22C1859.82 1302.08 1876.14 1313.63 1891.57 1320.14C1891.95 1320.28 1892.29 1320.5 1892.58 1320.78C1892.88 1321.06 1893.11 1321.4 1893.27 1321.77C1893.42 1322.14 1893.51 1322.54 1893.51 1322.94C1893.51 1323.35 1893.43 1323.74 1893.27 1324.12C1893.11 1324.49 1892.88 1324.82 1892.59 1325.1C1892.3 1325.38 1891.96 1325.6 1891.58 1325.75C1891.2 1325.89 1890.8 1325.96 1890.4 1325.94C1889.99 1325.93 1889.6 1325.83 1889.23 1325.66C1875.31 1319.79 1860.02 1309.79 1843.53 1295.8L1788.59 1824.86L1983.43 1812.23L1879.6 1175.88C1879.53 1175.49 1879.55 1175.09 1879.63 1174.71C1879.72 1174.33 1879.88 1173.96 1880.11 1173.64C1880.34 1173.32 1880.63 1173.05 1880.97 1172.84C1881.3 1172.63 1881.67 1172.49 1882.06 1172.42C1882.45 1172.35 1882.85 1172.37 1883.23 1172.45C1883.61 1172.54 1883.98 1172.71 1884.3 1172.93C1884.62 1173.16 1884.89 1173.45 1885.1 1173.79C1885.31 1174.12 1885.45 1174.49 1885.52 1174.88L1990.41 1817.75L1785.45 1831H1785.34L1580.4 1844.31ZM1305.22 1407.57L1595.29 1418.72V1387.07L1273.39 1284.07L1305.22 1407.57Z" fill="#FFFFFF"/>
<path d="M1465.36 690.33L1524.41 682.08C1535.24 695.26 1565.62 724.72 1602.88 720.08C1640.14 715.44 1655.97 688.43 1660.39 677.36C1688.3 678.02 1755.34 684.51 1790.96 690.36C1826.58 696.21 1858.96 719.82 1870.7 730.9L2029.14 884.1L1920.79 1043.51L1850.79 972.11L1887.34 1177.44L1465.36 1089L1453.36 945.47L1349.7 1021.89L1239.43 851.81C1270.66 825.89 1340.7 766.62 1371 736.81C1396.3 711.099 1429.56 694.715 1465.36 690.33Z" fill="#FEDA00"/>
<path d="M1848.76 964.56C1848.04 964.569 1847.34 964.317 1846.79 963.85C1846.23 963.383 1845.87 962.734 1845.76 962.02L1836.76 904.82C1836.68 904.422 1836.68 904.012 1836.76 903.613C1836.84 903.215 1837 902.837 1837.23 902.502C1837.46 902.168 1837.76 901.884 1838.1 901.668C1838.45 901.451 1838.83 901.307 1839.23 901.244C1839.63 901.181 1840.04 901.201 1840.44 901.301C1840.83 901.401 1841.2 901.58 1841.52 901.828C1841.85 902.075 1842.11 902.386 1842.31 902.74C1842.51 903.095 1842.64 903.486 1842.68 903.89L1851.68 961.09C1851.8 961.875 1851.61 962.677 1851.14 963.32C1850.68 963.963 1849.97 964.395 1849.19 964.52C1849.05 964.541 1848.9 964.555 1848.76 964.56ZM1451.53 935.43C1450.78 935.433 1450.05 935.153 1449.5 934.645C1448.94 934.138 1448.6 933.44 1448.53 932.69L1444.82 890.32C1444.78 889.926 1444.83 889.529 1444.95 889.152C1445.07 888.775 1445.26 888.424 1445.51 888.121C1445.77 887.818 1446.08 887.568 1446.43 887.385C1446.78 887.202 1447.16 887.09 1447.55 887.055C1447.95 887.02 1448.35 887.063 1448.72 887.182C1449.1 887.301 1449.45 887.492 1449.75 887.746C1450.06 888 1450.31 888.312 1450.49 888.662C1450.67 889.013 1450.78 889.396 1450.82 889.79L1454.53 932.16C1454.56 932.553 1454.52 932.948 1454.4 933.324C1454.28 933.7 1454.09 934.049 1453.84 934.351C1453.58 934.653 1453.27 934.902 1452.92 935.083C1452.57 935.265 1452.19 935.376 1451.8 935.41L1451.53 935.43Z" fill="#FFFFFF"/>
<path d="M1569.51 2385.66L1786.04 2149.66H2023.93L2070.93 2332.46L1569.51 2385.66Z" fill="#FFFFFF"/>
<path d="M1561.93 2389.48L1782.93 2148.61L1743.17 1829.61L1749.17 1828.87L1788.77 2146.6H2020.14L1935.84 1818.45L1941.66 1816.95L2026.91 2148.85L2074.67 2335L2071.22 2335.36L1561.93 2389.48ZM1787.36 2152.62L1577.09 2381.84L2067.09 2329.84L2021.56 2152.66L1787.36 2152.62Z" fill="#FFFFFF"/>
<path d="M1798.06 2172.4L1788.06 2168.02C1779.72 2164.37 1706.58 2131.72 1703.82 2110.26C1703.58 2108.44 1703.84 2106.59 1704.57 2104.91C1705.3 2103.23 1706.48 2101.78 1707.97 2100.72C1709.66 2099.42 1711.61 2098.48 1713.69 2097.98C1715.77 2097.48 1717.93 2097.42 1720.03 2097.8C1729.81 2099.19 1742.66 2107.8 1758.22 2123.55C1770.36 2136.03 1781.56 2149.4 1791.7 2163.55L1798.06 2172.4ZM1717.26 2103.6C1715.25 2103.54 1713.29 2104.19 1711.7 2105.42C1709.7 2106.98 1709.64 2108.42 1709.78 2109.49C1710.89 2118.14 1735.27 2137.08 1780 2157.8C1760 2131.8 1734.46 2105.9 1719.2 2103.74C1718.56 2103.65 1717.91 2103.6 1717.26 2103.6Z" fill="#FFFFFF"/>
<path d="M1799.11 2169.1L1788.19 2168.74C1779.1 2168.44 1699.07 2165.29 1688.53 2146.38C1687.63 2144.78 1687.19 2142.97 1687.24 2141.14C1687.3 2139.3 1687.85 2137.52 1688.85 2135.98C1689.94 2134.14 1691.4 2132.56 1693.14 2131.32C1694.88 2130.08 1696.86 2129.22 1698.95 2128.8C1708.54 2126.45 1723.69 2129.72 1743.95 2138.53C1759.86 2145.6 1775.21 2153.85 1789.88 2163.21L1799.11 2169.1ZM1705.71 2134.1C1703.92 2134.08 1702.13 2134.27 1700.38 2134.67C1699.08 2134.91 1697.84 2135.42 1696.75 2136.17C1695.66 2136.91 1694.74 2137.88 1694.05 2139.01C1692.8 2141.19 1693.25 2142.55 1693.77 2143.5C1698.02 2151.12 1727.68 2159.65 1776.9 2162.29C1751.67 2147.27 1722.33 2134.06 1705.71 2134.06V2134.1Z" fill="#FFFFFF"/>
<path d="M1676.58 2187.11C1675.51 2187.11 1674.44 2187.11 1673.37 2187C1660.33 2185.91 1648.24 2179.71 1639.76 2169.74C1639.49 2169.44 1639.28 2169.09 1639.15 2168.7C1639.02 2168.32 1638.97 2167.92 1639 2167.51C1639.03 2167.11 1639.14 2166.72 1639.32 2166.36C1639.51 2166 1639.77 2165.68 1640.08 2165.42C1640.39 2165.16 1640.75 2164.97 1641.14 2164.86C1641.53 2164.74 1641.93 2164.71 1642.34 2164.75C1642.74 2164.8 1643.13 2164.93 1643.48 2165.13C1643.83 2165.33 1644.14 2165.6 1644.38 2165.92C1651.8 2174.64 1662.38 2180.07 1673.79 2181.01C1686.71 2181.92 1699.65 2176.52 1712.23 2165.01C1726.14 2152.27 1740.59 2146.37 1755.14 2147.46C1770.09 2148.57 1782.02 2157.14 1788.2 2164.78C1788.7 2165.4 1788.94 2166.19 1788.85 2166.98C1788.77 2167.77 1788.38 2168.5 1787.76 2169C1787.14 2169.5 1786.35 2169.74 1785.56 2169.65C1784.77 2169.57 1784.04 2169.18 1783.54 2168.56C1779.96 2164.26 1775.58 2160.71 1770.62 2158.12C1765.67 2155.53 1760.26 2153.93 1754.69 2153.44C1741.86 2152.44 1728.92 2157.86 1716.29 2169.44C1703.45 2181.17 1690.11 2187.11 1676.58 2187.11Z" fill="#FFFFFF"/>
<path d="M967 2021.1L1183.52 1785.1H1421.42L1468.42 1967.91L967 2021.1Z" fill="#FFFFFF"/>
<path d="M959.39 2024.92L1180.15 1784.25L1087.28 1453.9V1453.82L1046.89 1275.68C1040.13 1244.35 1049.02 1175.1 1089.58 1125.87C1103.57 1108.65 1121.22 1094.76 1141.25 1085.2C1163.64 1074.59 1189.25 1069.5 1217.25 1070.06L1217.13 1076.06C1165.68 1075.06 1124.32 1093.06 1094.13 1129.68C1054.83 1177.39 1046.13 1244.23 1052.67 1274.39L1093.04 1452.39L1185.7 1782.02H1417.3L1299.47 1409.3L1305.19 1407.5L1424.25 1784.12L1421.39 1785.02L1424.3 1784.27L1472.12 1970.45L1468.67 1970.81L959.39 2024.92ZM1184.81 1788.05L974.54 2017.28L1464.54 1965.28L1419.02 1788.09L1184.81 1788.05Z" fill="#FFFFFF"/>
<path d="M1200.27 1805.13L1190.18 1800.96C1181.77 1797.5 1107.93 1766.47 1104.7 1745.06C1104.41 1743.25 1104.63 1741.39 1105.32 1739.7C1106.02 1738 1107.16 1736.53 1108.64 1735.44C1110.31 1734.1 1112.23 1733.12 1114.3 1732.57C1116.37 1732.03 1118.53 1731.92 1120.64 1732.26C1130.45 1733.43 1143.49 1741.8 1159.39 1757.16C1171.8 1769.36 1183.28 1782.47 1193.74 1796.39L1200.27 1805.13ZM1118.27 1738.13C1116.17 1738.06 1114.11 1738.75 1112.48 1740.07C1110.55 1741.67 1110.48 1743.07 1110.65 1744.18C1111.95 1752.8 1136.73 1771.18 1181.9 1790.94C1161.36 1765.35 1135.23 1740.05 1119.9 1738.23C1119.35 1738.16 1118.8 1738.12 1118.25 1738.12L1118.27 1738.13Z" fill="#FFFFFF"/>
<path d="M1201.24 1801.81L1190.32 1801.69C1181.22 1801.59 1101.14 1800.19 1090.19 1781.51C1089.25 1779.94 1088.76 1778.13 1088.78 1776.3C1088.79 1774.46 1089.31 1772.67 1090.28 1771.11C1091.33 1769.24 1092.77 1767.62 1094.49 1766.34C1096.21 1765.07 1098.19 1764.17 1100.28 1763.71C1109.82 1761.15 1125.04 1764.09 1145.51 1772.45C1161.56 1779.18 1177.09 1787.09 1191.96 1796.13L1201.24 1801.81ZM1107.8 1768.81C1105.78 1768.78 1103.76 1769.02 1101.8 1769.51C1100.5 1769.77 1099.27 1770.31 1098.2 1771.08C1097.12 1771.85 1096.22 1772.84 1095.56 1773.99C1094.36 1776.19 1094.84 1777.54 1095.39 1778.48C1099.8 1786 1129.64 1793.89 1178.91 1795.48C1153.69 1781.22 1124.54 1768.81 1107.8 1768.81Z" fill="#FFFFFF"/>
<path d="M1078.12 1822.51C1077.39 1822.51 1076.66 1822.51 1075.92 1822.51C1062.85 1821.71 1050.62 1815.77 1041.92 1805.98C1041.42 1805.37 1041.18 1804.6 1041.25 1803.82C1041.32 1803.04 1041.69 1802.32 1042.28 1801.81C1042.87 1801.29 1043.64 1801.03 1044.42 1801.08C1045.2 1801.13 1045.93 1801.48 1046.46 1802.06C1054.07 1810.61 1064.75 1815.81 1076.18 1816.51C1089.18 1817.13 1101.94 1811.45 1114.28 1799.65C1127.9 1786.65 1142.21 1780.41 1156.79 1781.16C1171.79 1781.95 1183.87 1790.26 1190.22 1797.76C1190.47 1798.06 1190.67 1798.41 1190.79 1798.78C1190.91 1799.16 1190.95 1799.55 1190.92 1799.95C1190.89 1800.34 1190.78 1800.72 1190.6 1801.07C1190.42 1801.42 1190.17 1801.74 1189.87 1801.99C1189.57 1802.24 1189.22 1802.44 1188.85 1802.56C1188.47 1802.68 1188.08 1802.72 1187.68 1802.69C1187.29 1802.66 1186.91 1802.55 1186.56 1802.37C1186.21 1802.19 1185.89 1801.94 1185.64 1801.64C1181.97 1797.42 1177.51 1793.97 1172.51 1791.48C1167.5 1789 1162.06 1787.53 1156.48 1787.15C1143.62 1786.49 1130.81 1792.15 1118.42 1803.99C1105.56 1816.27 1092 1822.51 1078.12 1822.51Z" fill="#FFFFFF"/>
<path d="M2673.5 973.32C2673.06 973.321 2672.62 973.224 2672.22 973.035C2671.82 972.847 2671.46 972.572 2671.18 972.23L2482.25 743C2482 742.695 2481.81 742.344 2481.7 741.967C2481.58 741.589 2481.54 741.193 2481.58 740.8C2481.62 740.407 2481.73 740.026 2481.92 739.678C2482.1 739.329 2482.36 739.021 2482.66 738.77C2482.96 738.519 2483.32 738.331 2483.69 738.216C2484.07 738.101 2484.47 738.061 2484.86 738.099C2485.25 738.137 2485.63 738.252 2485.98 738.438C2486.33 738.623 2486.64 738.875 2486.89 739.18L2675.82 968.42C2676.18 968.859 2676.41 969.393 2676.48 969.958C2676.55 970.523 2676.46 971.097 2676.22 971.612C2675.98 972.127 2675.59 972.562 2675.11 972.866C2674.63 973.17 2674.07 973.331 2673.5 973.33V973.32ZM2336.65 564.6C2336.21 564.601 2335.77 564.504 2335.37 564.315C2334.97 564.127 2334.61 563.852 2334.33 563.51L2079.44 254.23C2079.19 253.925 2079 253.574 2078.89 253.197C2078.77 252.819 2078.73 252.423 2078.77 252.03C2078.81 251.637 2078.92 251.256 2079.11 250.908C2079.29 250.559 2079.55 250.251 2079.85 250C2080.15 249.749 2080.51 249.561 2080.88 249.446C2081.26 249.331 2081.66 249.291 2082.05 249.329C2082.44 249.367 2082.82 249.482 2083.17 249.668C2083.52 249.853 2083.83 250.105 2084.08 250.41L2339 559.69C2339.5 560.304 2339.75 561.094 2339.67 561.885C2339.59 562.676 2339.2 563.404 2338.59 563.91C2338.05 564.362 2337.36 564.606 2336.65 564.6Z" fill="#FFFFFF"/>
<path d="M2249.27 247.61C2206.12 296.99 2121.19 269.9 2083.27 250.94L2250.33 453.94C2277.06 464.31 2338.48 466.81 2388.25 396.83C2453.95 300.83 2518.98 298.17 2543.25 308.83L2378.55 109.1C2295.44 136.81 2303.22 185.89 2249.27 247.61Z" fill="#FEDA00"/>
<path d="M2227.54 327.87H2226.54C2225.74 327.861 2224.98 327.536 2224.43 326.967C2223.87 326.398 2223.57 325.631 2223.57 324.835C2223.58 324.04 2223.91 323.28 2224.48 322.724C2225.05 322.168 2225.81 321.861 2226.61 321.87H2226.68C2247.3 322.3 2294.03 307.25 2323.14 246.87C2353.24 184.48 2379.14 160.25 2389.69 155.77C2390.06 155.598 2390.45 155.502 2390.85 155.487C2391.26 155.472 2391.66 155.538 2392.04 155.683C2392.42 155.827 2392.76 156.046 2393.05 156.326C2393.34 156.606 2393.57 156.942 2393.73 157.314C2393.89 157.686 2393.97 158.085 2393.97 158.489C2393.97 158.893 2393.88 159.292 2393.73 159.664C2393.57 160.035 2393.34 160.37 2393.04 160.65C2392.75 160.929 2392.41 161.147 2392.03 161.29C2384.71 164.4 2359.03 186.29 2328.54 249.48C2298.56 311.66 2250 327.87 2227.54 327.87ZM2356.64 323.75C2356.18 323.751 2355.73 323.645 2355.32 323.44C2354.61 323.089 2354.07 322.472 2353.81 321.723C2353.55 320.973 2353.6 320.153 2353.95 319.44C2360.83 305.44 2378.76 272.12 2397.32 246.44C2397.79 245.796 2398.49 245.363 2399.28 245.237C2400.06 245.112 2400.87 245.303 2401.51 245.77C2402.15 246.237 2402.59 246.941 2402.71 247.726C2402.84 248.512 2402.65 249.316 2402.18 249.96C2383.86 275.29 2366.18 308.2 2359.33 322.06C2359.08 322.565 2358.7 322.992 2358.23 323.29C2357.75 323.589 2357.2 323.749 2356.64 323.75Z" fill="#FFFFFF"/>
</svg>
