<svg width="3000" height="3000" viewBox="0 0 3000 3000" fill="none" xmlns="http://www.w3.org/2000/svg">
<path d="M2235.94 1716.29C2234.29 1716.29 2232.68 1715.8 2231.31 1714.89C2229.94 1713.97 2228.87 1712.67 2228.24 1711.15C2227.61 1709.63 2227.45 1707.95 2227.77 1706.33C2228.09 1704.72 2228.88 1703.23 2230.05 1702.07C2231.21 1700.91 2232.7 1700.11 2234.31 1699.79C2235.93 1699.47 2237.61 1699.63 2239.13 1700.26C2240.65 1700.89 2241.95 1701.96 2242.87 1703.33C2243.78 1704.7 2244.27 1706.31 2244.27 1707.96C2244.27 1710.17 2243.39 1712.29 2241.83 1713.85C2240.27 1715.41 2238.15 1716.29 2235.94 1716.29ZM2235.94 1705.63C2235.48 1705.63 2235.03 1705.77 2234.65 1706.02C2234.26 1706.28 2233.96 1706.64 2233.79 1707.07C2233.61 1707.49 2233.56 1707.96 2233.65 1708.41C2233.74 1708.87 2233.97 1709.28 2234.29 1709.61C2234.62 1709.93 2235.03 1710.16 2235.49 1710.25C2235.94 1710.34 2236.41 1710.29 2236.83 1710.11C2237.26 1709.94 2237.62 1709.64 2237.88 1709.25C2238.13 1708.87 2238.27 1708.42 2238.27 1707.96C2238.27 1707.34 2238.02 1706.75 2237.59 1706.31C2237.15 1705.88 2236.56 1705.63 2235.94 1705.63Z" fill="#FFFFFF"/>
<path d="M1507.67 195.52C1506.02 195.522 1504.41 195.035 1503.03 194.119C1501.66 193.203 1500.59 191.901 1499.96 190.377C1499.32 188.852 1499.16 187.174 1499.48 185.556C1499.8 183.937 1500.6 182.45 1501.76 181.283C1502.93 180.116 1504.42 179.322 1506.04 179C1507.65 178.679 1509.33 178.845 1510.86 179.477C1512.38 180.11 1513.68 181.18 1514.6 182.553C1515.51 183.926 1516 185.54 1516 187.19C1516 189.399 1515.12 191.516 1513.56 193.078C1512 194.639 1509.88 195.518 1507.67 195.52ZM1507.67 184.85C1507.21 184.848 1506.75 184.984 1506.37 185.24C1505.98 185.496 1505.68 185.86 1505.5 186.288C1505.32 186.715 1505.27 187.186 1505.36 187.641C1505.45 188.095 1505.68 188.513 1506 188.841C1506.33 189.17 1506.75 189.394 1507.2 189.485C1507.65 189.576 1508.13 189.53 1508.55 189.353C1508.98 189.176 1509.35 188.876 1509.61 188.491C1509.86 188.106 1510 187.654 1510 187.19C1510 186.884 1509.94 186.579 1509.83 186.296C1509.71 186.012 1509.54 185.754 1509.32 185.536C1509.1 185.319 1508.85 185.146 1508.56 185.029C1508.28 184.911 1507.98 184.85 1507.67 184.85Z" fill="#FFFFFF"/>
<path d="M428.22 1161.71C426.573 1161.71 424.962 1161.22 423.592 1160.31C422.222 1159.39 421.155 1158.09 420.524 1156.57C419.894 1155.05 419.729 1153.37 420.05 1151.76C420.372 1150.14 421.165 1148.65 422.33 1147.49C423.495 1146.33 424.979 1145.53 426.595 1145.21C428.211 1144.89 429.886 1145.05 431.408 1145.68C432.93 1146.31 434.231 1147.38 435.146 1148.75C436.062 1150.12 436.55 1151.73 436.55 1153.38C436.547 1155.59 435.669 1157.71 434.107 1159.27C432.546 1160.83 430.429 1161.71 428.22 1161.71ZM428.22 1151.05C427.759 1151.05 427.309 1151.19 426.926 1151.44C426.542 1151.7 426.244 1152.06 426.068 1152.49C425.891 1152.91 425.845 1153.38 425.935 1153.83C426.025 1154.29 426.247 1154.7 426.573 1155.03C426.898 1155.35 427.314 1155.58 427.766 1155.67C428.218 1155.76 428.686 1155.71 429.112 1155.53C429.538 1155.36 429.901 1155.06 430.157 1154.67C430.413 1154.29 430.55 1153.84 430.55 1153.38C430.55 1152.76 430.305 1152.17 429.868 1151.73C429.431 1151.3 428.838 1151.05 428.22 1151.05Z" fill="#FFFFFF"/>
<path d="M764.13 2537.61C762.483 2537.61 760.873 2537.12 759.505 2536.2C758.136 2535.28 757.07 2533.98 756.441 2532.46C755.812 2530.94 755.649 2529.26 755.971 2527.65C756.294 2526.03 757.088 2524.55 758.253 2523.39C759.419 2522.22 760.903 2521.43 762.519 2521.11C764.134 2520.79 765.809 2520.95 767.33 2521.59C768.852 2522.22 770.152 2523.28 771.067 2524.65C771.982 2526.02 772.47 2527.63 772.47 2529.28C772.467 2531.49 771.588 2533.61 770.024 2535.17C768.46 2536.73 766.34 2537.61 764.13 2537.61ZM764.13 2526.95C763.67 2526.95 763.22 2527.09 762.838 2527.35C762.456 2527.6 762.159 2527.97 761.985 2528.4C761.81 2528.82 761.765 2529.29 761.856 2529.74C761.947 2530.19 762.17 2530.61 762.496 2530.93C762.822 2531.26 763.237 2531.48 763.689 2531.57C764.141 2531.66 764.609 2531.61 765.034 2531.43C765.459 2531.26 765.822 2530.96 766.078 2530.57C766.334 2530.19 766.47 2529.74 766.47 2529.28C766.454 2528.67 766.201 2528.09 765.764 2527.66C765.327 2527.24 764.74 2527 764.13 2527V2526.95Z" fill="#FFFFFF"/>
<path d="M2434.53 670.49C2432.88 670.49 2431.27 670.002 2429.9 669.086C2428.53 668.171 2427.46 666.87 2426.83 665.348C2426.2 663.826 2426.04 662.151 2426.36 660.535C2426.68 658.919 2427.48 657.435 2428.64 656.27C2429.81 655.105 2431.29 654.312 2432.9 653.99C2434.52 653.669 2436.2 653.834 2437.72 654.464C2439.24 655.095 2440.54 656.162 2441.46 657.532C2442.37 658.902 2442.86 660.513 2442.86 662.16C2442.86 664.368 2441.98 666.486 2440.42 668.047C2438.86 669.609 2436.74 670.487 2434.53 670.49ZM2434.53 659.83C2434.07 659.83 2433.62 659.967 2433.24 660.223C2432.85 660.479 2432.55 660.843 2432.38 661.268C2432.2 661.694 2432.16 662.163 2432.25 662.615C2432.33 663.067 2432.56 663.482 2432.88 663.808C2433.21 664.133 2433.62 664.355 2434.08 664.445C2434.53 664.535 2435 664.489 2435.42 664.313C2435.85 664.136 2436.21 663.838 2436.47 663.455C2436.72 663.071 2436.86 662.621 2436.86 662.16C2436.86 661.854 2436.8 661.551 2436.68 661.268C2436.57 660.986 2436.39 660.729 2436.18 660.513C2435.96 660.296 2435.7 660.125 2435.42 660.007C2435.14 659.89 2434.84 659.83 2434.53 659.83Z" fill="#FFFFFF"/>
<path d="M812.16 443.85C810.513 443.848 808.903 443.358 807.535 442.442C806.166 441.525 805.1 440.224 804.471 438.701C803.842 437.179 803.679 435.504 804.001 433.889C804.324 432.274 805.118 430.791 806.283 429.627C807.449 428.463 808.933 427.67 810.548 427.35C812.164 427.029 813.838 427.195 815.36 427.825C816.881 428.456 818.182 429.524 819.097 430.894C820.012 432.263 820.5 433.873 820.5 435.52C820.497 437.731 819.617 439.849 818.054 441.411C816.49 442.973 814.37 443.85 812.16 443.85ZM812.16 433.19C811.699 433.192 811.25 433.331 810.868 433.588C810.486 433.845 810.189 434.21 810.014 434.636C809.84 435.062 809.795 435.53 809.886 435.981C809.977 436.432 810.2 436.847 810.526 437.171C810.852 437.496 811.267 437.717 811.719 437.806C812.171 437.895 812.639 437.849 813.064 437.672C813.489 437.495 813.852 437.197 814.108 436.814C814.363 436.431 814.5 435.981 814.5 435.52C814.497 434.902 814.249 434.309 813.811 433.872C813.372 433.436 812.779 433.19 812.16 433.19Z" fill="#FFFFFF"/>
<path d="M2807.78 1834.9C2807.15 1834.9 2806.53 1834.7 2806.02 1834.33L2776.66 1813C2776.02 1812.53 2775.58 1811.83 2775.46 1811.04C2775.33 1810.26 2775.52 1809.45 2775.99 1808.81C2776.46 1808.17 2777.16 1807.73 2777.95 1807.61C2778.73 1807.48 2779.54 1807.67 2780.18 1808.14L2809.54 1829.5C2810.05 1829.87 2810.44 1830.4 2810.63 1831C2810.83 1831.6 2810.83 1832.25 2810.63 1832.86C2810.44 1833.46 2810.06 1833.98 2809.54 1834.36C2809.03 1834.73 2808.41 1834.93 2807.78 1834.93V1834.9Z" fill="#FFFFFF"/>
<path d="M718.25 155.84C717.614 155.84 716.994 155.636 716.48 155.26L687.12 133.91C686.792 133.682 686.513 133.391 686.299 133.054C686.085 132.716 685.941 132.34 685.875 131.946C685.808 131.552 685.821 131.149 685.913 130.76C686.004 130.371 686.172 130.005 686.407 129.682C686.642 129.359 686.94 129.086 687.281 128.88C687.623 128.673 688.003 128.537 688.398 128.479C688.793 128.421 689.196 128.443 689.583 128.542C689.969 128.642 690.332 128.818 690.65 129.06L720 150.41C720.514 150.782 720.896 151.307 721.093 151.91C721.29 152.512 721.29 153.162 721.095 153.765C720.899 154.368 720.518 154.894 720.005 155.267C719.492 155.64 718.874 155.84 718.24 155.84H718.25Z" fill="#FFFFFF"/>
<path d="M413.33 1990.39C412.691 1990.39 412.069 1990.19 411.554 1989.81C411.039 1989.43 410.658 1988.9 410.466 1988.29C410.274 1987.68 410.281 1987.03 410.487 1986.42C410.693 1985.82 411.086 1985.3 411.61 1984.93L441.4 1964.18C442.053 1963.75 442.847 1963.59 443.614 1963.74C444.381 1963.89 445.06 1964.33 445.507 1964.97C445.953 1965.61 446.132 1966.4 446.006 1967.17C445.88 1967.94 445.458 1968.64 444.83 1969.1L415 1989.85C414.511 1990.2 413.929 1990.38 413.33 1990.39Z" fill="#FFFFFF"/>
<path d="M2410.3 2684.13C2409.66 2684.13 2409.04 2683.93 2408.52 2683.55C2408.01 2683.17 2407.63 2682.64 2407.44 2682.03C2407.24 2681.42 2407.25 2680.77 2407.46 2680.16C2407.66 2679.56 2408.06 2679.04 2408.58 2678.67L2438.38 2657.92C2439.03 2657.51 2439.82 2657.38 2440.57 2657.53C2441.32 2657.69 2441.99 2658.13 2442.43 2658.76C2442.86 2659.39 2443.04 2660.16 2442.93 2660.92C2442.81 2661.68 2442.41 2662.37 2441.8 2662.84L2412 2683.59C2411.5 2683.94 2410.91 2684.13 2410.3 2684.13Z" fill="#FFFFFF"/>
<path d="M347.72 586.7C347.082 586.699 346.462 586.494 345.948 586.116C345.435 585.738 345.055 585.206 344.864 584.597C344.674 583.988 344.682 583.335 344.888 582.731C345.094 582.128 345.487 581.605 346.01 581.24L375.79 560.49C376.113 560.252 376.48 560.08 376.869 559.986C377.259 559.892 377.664 559.876 378.06 559.941C378.456 560.006 378.835 560.15 379.174 560.364C379.513 560.577 379.806 560.857 380.036 561.186C380.265 561.515 380.426 561.887 380.509 562.279C380.593 562.672 380.596 563.077 380.52 563.471C380.444 563.864 380.29 564.239 380.067 564.572C379.843 564.905 379.556 565.19 379.22 565.41L349.44 586.16C348.936 586.512 348.335 586.701 347.72 586.7Z" fill="#FFFFFF"/>
<path d="M1856.26 263.64C1855.56 263.639 1854.89 263.395 1854.35 262.95C1853.81 262.505 1853.45 261.886 1853.32 261.2C1853.19 260.514 1853.3 259.804 1853.63 259.193C1853.97 258.582 1854.51 258.107 1855.16 257.85L1889 244.57C1889.73 244.302 1890.55 244.331 1891.26 244.652C1891.97 244.973 1892.53 245.56 1892.82 246.288C1893.11 247.016 1893.1 247.827 1892.8 248.548C1892.49 249.27 1891.92 249.845 1891.2 250.15L1857.41 263.43C1857.04 263.575 1856.65 263.646 1856.26 263.64Z" fill="#FFFFFF"/>
<path d="M2617.57 220.65C2617.07 220.65 2616.58 220.525 2616.14 220.286C2615.7 220.046 2615.32 219.701 2615.05 219.28L2595.3 188.82C2594.95 188.159 2594.86 187.392 2595.05 186.668C2595.23 185.944 2595.68 185.315 2596.31 184.906C2596.94 184.497 2597.69 184.336 2598.43 184.455C2599.17 184.574 2599.83 184.965 2600.3 185.55L2620.09 216C2620.3 216.331 2620.45 216.701 2620.52 217.089C2620.59 217.476 2620.59 217.874 2620.5 218.26C2620.42 218.645 2620.26 219.01 2620.04 219.335C2619.82 219.659 2619.53 219.936 2619.2 220.15C2618.72 220.471 2618.15 220.645 2617.57 220.65Z" fill="#FFFFFF"/>
<path d="M256.25 2572.08C255.749 2572.08 255.256 2571.96 254.816 2571.72C254.376 2571.48 254.002 2571.13 253.73 2570.71L234 2540.25C233.66 2539.59 233.577 2538.83 233.766 2538.11C233.956 2537.39 234.406 2536.77 235.028 2536.36C235.651 2535.96 236.401 2535.8 237.135 2535.91C237.869 2536.03 238.533 2536.41 239 2536.99L258.75 2567.45C259.043 2567.9 259.209 2568.43 259.229 2568.97C259.25 2569.51 259.125 2570.04 258.867 2570.51C258.609 2570.99 258.227 2571.38 257.764 2571.66C257.3 2571.94 256.77 2572.08 256.23 2572.08H256.25Z" fill="#FFFFFF"/>
<path d="M2670.24 2108.18C2669.24 2108.18 2668.29 2108.18 2667.32 2108.18C2666.93 2108.17 2666.54 2108.09 2666.18 2107.93C2665.81 2107.78 2665.49 2107.55 2665.21 2107.27C2664.94 2106.98 2664.72 2106.65 2664.58 2106.28C2664.43 2105.92 2664.36 2105.52 2664.37 2105.13C2664.38 2104.74 2664.46 2104.35 2664.62 2103.99C2664.77 2103.62 2665 2103.3 2665.28 2103.02C2665.57 2102.75 2665.9 2102.53 2666.27 2102.39C2666.63 2102.24 2667.03 2102.17 2667.42 2102.18C2670.88 2102.24 2674.42 2102.18 2677.99 2102.03C2678.79 2102 2679.56 2102.28 2680.15 2102.82C2680.74 2103.36 2681.09 2104.1 2681.12 2104.9C2681.15 2105.7 2680.87 2106.47 2680.33 2107.06C2679.79 2107.65 2679.05 2108 2678.25 2108.03C2675.57 2108.13 2672.89 2108.18 2670.24 2108.18ZM2686.11 2107.47C2685.31 2107.51 2684.54 2107.22 2683.95 2106.69C2683.36 2106.15 2683.01 2105.4 2682.97 2104.61C2682.94 2103.81 2683.22 2103.03 2683.76 2102.44C2684.3 2101.86 2685.04 2101.51 2685.84 2101.47C2691.95 2100.93 2698.2 2100.05 2704.42 2098.87C2704.81 2098.8 2705.21 2098.8 2705.59 2098.88C2705.98 2098.96 2706.34 2099.12 2706.67 2099.34C2707 2099.56 2707.27 2099.84 2707.49 2100.17C2707.71 2100.5 2707.86 2100.87 2707.93 2101.26C2708 2101.65 2708 2102.05 2707.92 2102.43C2707.84 2102.82 2707.68 2103.18 2707.46 2103.51C2707.24 2103.84 2706.96 2104.11 2706.63 2104.33C2706.3 2104.55 2705.93 2104.7 2705.54 2104.77C2699.12 2105.98 2692.67 2106.88 2686.38 2107.45L2686.11 2107.47ZM2651.95 2107.22H2651.63C2576.78 2099.15 2525.63 2042.63 2504.54 1996.69V1996.59C2501.02 1988.06 2497.3 1978.05 2493.67 1966.96C2479.43 1975.28 2463.68 1980.68 2447.33 1982.86C2435.89 1984.46 2425.27 1984.03 2415.77 1981.56C2415.04 1981.33 2414.43 1980.82 2414.05 1980.15C2413.68 1979.48 2413.58 1978.69 2413.78 1977.95C2413.97 1977.21 2414.44 1976.57 2415.09 1976.16C2415.74 1975.75 2416.52 1975.61 2417.27 1975.76C2426.01 1978.02 2435.84 1978.41 2446.49 1976.92C2462.51 1974.79 2477.93 1969.39 2491.78 1961.07C2471.59 1896.67 2455.7 1800.54 2494.3 1746.52C2511.39 1722.6 2527.51 1712.68 2542.25 1717.03C2562.25 1722.94 2574.13 1755.83 2575.5 1785.27V1785.37C2576.13 1835.37 2559.5 1923.75 2498.92 1963.68C2503.65 1978.22 2507.86 1988.92 2510.06 1994.24C2530.49 2038.75 2579.99 2093.46 2652.31 2101.24C2652.7 2101.26 2653.09 2101.36 2653.45 2101.53C2653.8 2101.7 2654.12 2101.94 2654.38 2102.23C2654.65 2102.53 2654.85 2102.87 2654.98 2103.24C2655.11 2103.61 2655.17 2104.01 2655.15 2104.4C2655.13 2104.79 2655.03 2105.18 2654.86 2105.54C2654.69 2105.89 2654.45 2106.21 2654.16 2106.47C2653.86 2106.74 2653.52 2106.94 2653.15 2107.07C2652.78 2107.2 2652.38 2107.26 2651.99 2107.24L2651.95 2107.22ZM2535.54 1722.05C2524.76 1722.05 2512.29 1731.58 2499.14 1749.98C2479.47 1777.52 2472.5 1820.78 2478.99 1875.09C2482.5 1903.11 2488.52 1930.75 2496.99 1957.69C2554.28 1918.69 2570.06 1833.69 2569.47 1785.48C2568.22 1758.84 2557.65 1727.82 2540.52 1722.76C2538.9 1722.29 2537.23 1722.05 2535.54 1722.05ZM2712.63 2103.23C2711.89 2103.24 2711.17 2102.97 2710.61 2102.48C2710.06 2101.98 2709.71 2101.3 2709.62 2100.57C2709.54 2099.83 2709.73 2099.09 2710.16 2098.48C2710.6 2097.88 2711.24 2097.46 2711.96 2097.3C2718.23 2095.87 2724.59 2094.12 2730.86 2092.09C2731.6 2091.89 2732.4 2091.98 2733.07 2092.35C2733.75 2092.71 2734.26 2093.33 2734.5 2094.06C2734.74 2094.79 2734.68 2095.59 2734.35 2096.28C2734.02 2096.98 2733.43 2097.52 2732.71 2097.79C2726.27 2099.88 2719.71 2101.68 2713.3 2103.15C2713.08 2103.21 2712.86 2103.23 2712.63 2103.23ZM2738.42 2095.69C2737.71 2095.69 2737.03 2095.44 2736.48 2094.99C2735.94 2094.53 2735.58 2093.9 2735.46 2093.2C2735.34 2092.5 2735.47 2091.78 2735.83 2091.17C2736.19 2090.56 2736.75 2090.1 2737.42 2089.86C2750.96 2084.98 2764.11 2079.09 2776.77 2072.24C2777.47 2071.9 2778.27 2071.84 2779.01 2072.08C2779.74 2072.32 2780.36 2072.83 2780.73 2073.52C2781.09 2074.2 2781.18 2075 2780.98 2075.74C2780.77 2076.49 2780.28 2077.13 2779.61 2077.52C2766.69 2084.52 2753.25 2090.54 2739.42 2095.52C2739.1 2095.63 2738.76 2095.69 2738.42 2095.69ZM2410.42 1979.69C2410.06 1979.69 2409.7 1979.63 2409.36 1979.5C2402.93 1977.07 2396.94 1973.59 2391.65 1969.19C2391.07 1968.67 2390.72 1967.95 2390.66 1967.18C2390.61 1966.41 2390.85 1965.65 2391.34 1965.05C2391.84 1964.45 2392.54 1964.07 2393.31 1963.98C2394.08 1963.89 2394.85 1964.1 2395.47 1964.57C2400.25 1968.54 2405.66 1971.69 2411.47 1973.88C2412.13 1974.13 2412.68 1974.6 2413.03 1975.21C2413.38 1975.82 2413.5 1976.54 2413.37 1977.23C2413.24 1977.92 2412.88 1978.55 2412.34 1979C2411.8 1979.45 2411.11 1979.69 2410.41 1979.69H2410.42ZM2386.9 1963.5C2386.48 1963.5 2386.07 1963.41 2385.68 1963.24C2385.3 1963.06 2384.96 1962.81 2384.68 1962.5C2380.72 1958.09 2377.23 1953.27 2374.28 1948.12C2374.08 1947.78 2373.95 1947.4 2373.9 1947.01C2373.85 1946.62 2373.88 1946.22 2373.98 1945.84C2374.08 1945.46 2374.26 1945.1 2374.5 1944.79C2374.74 1944.48 2375.04 1944.22 2375.38 1944.02C2375.72 1943.82 2376.1 1943.7 2376.49 1943.64C2376.88 1943.59 2377.28 1943.62 2377.66 1943.72C2378.04 1943.82 2378.4 1944 2378.71 1944.24C2379.02 1944.48 2379.28 1944.78 2379.48 1945.12C2382.21 1949.89 2385.44 1954.37 2389.12 1958.46C2389.51 1958.89 2389.76 1959.42 2389.85 1959.99C2389.94 1960.57 2389.86 1961.15 2389.63 1961.68C2389.39 1962.21 2389.01 1962.65 2388.53 1962.97C2388.04 1963.29 2387.48 1963.46 2386.9 1963.46V1963.5ZM2370.13 1935.67C2369.53 1935.67 2368.95 1935.49 2368.45 1935.16C2367.96 1934.82 2367.57 1934.34 2367.35 1933.79C2358.19 1911.01 2353.6 1881.16 2353.69 1845.05C2353.88 1815.72 2356.74 1786.47 2362.22 1757.66C2362.29 1757.27 2362.45 1756.9 2362.66 1756.57C2362.88 1756.25 2363.16 1755.96 2363.49 1755.74C2363.81 1755.52 2364.18 1755.37 2364.57 1755.29C2364.95 1755.21 2365.35 1755.21 2365.74 1755.28C2366.13 1755.36 2366.5 1755.51 2366.83 1755.72C2367.15 1755.94 2367.44 1756.22 2367.66 1756.55C2367.88 1756.87 2368.03 1757.24 2368.11 1757.63C2368.19 1758.01 2368.19 1758.41 2368.12 1758.8C2358.45 1808.93 2353.91 1884.26 2372.91 1931.55C2373.09 1932.01 2373.16 1932.5 2373.11 1932.99C2373.06 1933.47 2372.89 1933.94 2372.61 1934.35C2372.34 1934.75 2371.97 1935.09 2371.54 1935.32C2371.1 1935.55 2370.62 1935.67 2370.13 1935.67Z" fill="#FFFFFF"/>
<path d="M686.89 774.78H685.6C684.804 774.768 684.046 774.441 683.492 773.87C682.938 773.299 682.633 772.531 682.645 771.735C682.657 770.94 682.985 770.181 683.556 769.627C684.127 769.073 684.894 768.768 685.69 768.78C687.2 768.78 688.69 768.78 690.26 768.71C690.874 768.678 691.482 768.839 692 769.17C692.474 768.777 693.057 768.536 693.67 768.48C696.32 768.24 699.03 767.87 701.73 767.35C702.32 767.244 702.929 767.313 703.48 767.55C703.884 767.107 704.415 766.8 705 766.67C707.7 766.05 710.47 765.29 713.22 764.4C713.727 764.234 714.269 764.207 714.79 764.32C715.134 763.914 715.579 763.607 716.08 763.43C721.988 761.298 727.728 758.724 733.25 755.73C733.944 755.402 734.737 755.352 735.467 755.591C736.196 755.83 736.807 756.34 737.172 757.015C737.537 757.69 737.629 758.48 737.43 759.221C737.231 759.962 736.755 760.599 736.1 761C730.31 764.134 724.294 766.828 718.1 769.06C717.571 769.251 717 769.289 716.45 769.17C716.086 769.597 715.612 769.915 715.08 770.09C712.16 771.03 709.22 771.84 706.35 772.5C705.76 772.26 705.112 772.201 704.489 772.331C703.865 772.461 703.295 772.774 702.85 773.23C699.96 773.78 697.05 774.23 694.21 774.44C693.648 774.098 692.994 773.937 692.337 773.98C691.68 774.023 691.053 774.268 690.54 774.68C689.32 774.75 688.1 774.78 686.89 774.78ZM678.83 774.35H678.5C644.69 770.7 621.59 745.21 612.08 724.48V724.38C610.71 721.07 609.28 717.27 607.87 713.09C601.849 716.3 595.303 718.41 588.54 719.32C583.674 720.077 578.706 719.869 573.92 718.71C573.396 718.573 572.919 718.297 572.54 717.91C572.007 718.013 571.457 717.964 570.95 717.77C567.928 716.629 565.116 714.994 562.63 712.93C562.522 712.119 562.142 711.368 561.552 710.801C560.961 710.234 560.195 709.885 559.38 709.81C557.548 707.772 555.936 705.546 554.57 703.17C554.172 702.481 554.065 701.661 554.271 700.892C554.477 700.124 554.981 699.468 555.67 699.07C556.36 698.672 557.179 698.565 557.948 698.771C558.717 698.977 559.372 699.481 559.77 700.17C560.902 702.179 562.243 704.063 563.77 705.79C564.233 706.296 564.508 706.946 564.55 707.63C565.23 707.643 565.886 707.886 566.41 708.32C568.382 709.958 570.612 711.256 573.01 712.16C573.301 712.487 573.675 712.729 574.092 712.861C574.509 712.993 574.954 713.01 575.38 712.91C579.402 713.876 583.575 714.039 587.66 713.39C594.112 712.526 600.338 710.431 606 707.22C597.16 678.39 590.56 636.15 607.74 612.1C615.74 600.88 623.52 596.27 630.74 598.42C640.74 601.42 646.03 616.94 646.64 630.14V630.24C646.92 652.44 639.64 691.47 613.07 709.84C614.97 715.58 616.64 719.84 617.55 722.01C626.41 741.3 647.85 765.01 679.13 768.36C679.926 768.401 680.673 768.757 681.206 769.348C681.74 769.94 682.016 770.72 681.975 771.515C681.934 772.311 681.579 773.058 680.987 773.591C680.395 774.125 679.616 774.401 678.82 774.36L678.83 774.35ZM627.35 603.94C623.17 603.94 618 607.94 612.57 615.59C604.11 627.43 601.13 646.16 603.95 669.77C605.393 681.287 607.809 692.661 611.17 703.77C634.43 686.38 640.9 650.77 640.65 630.34C640.11 618.98 635.65 606.09 629.04 604.15C628.49 604 627.921 603.93 627.35 603.94ZM554.15 698.47C553.549 698.471 552.962 698.291 552.465 697.954C551.967 697.617 551.582 697.138 551.36 696.58C545.62 682.31 541.99 654.09 549 617.71C549.151 616.928 549.607 616.238 550.267 615.791C550.927 615.345 551.738 615.179 552.52 615.33C553.303 615.481 553.993 615.937 554.439 616.597C554.885 617.257 555.051 618.068 554.9 618.85C550.66 640.85 548.65 673.76 556.9 694.34C557.048 694.707 557.122 695.098 557.118 695.493C557.114 695.888 557.033 696.279 556.877 696.642C556.722 697.005 556.497 697.334 556.214 697.61C555.931 697.886 555.597 698.104 555.23 698.25C554.888 698.392 554.521 698.467 554.15 698.47Z" fill="#FEDA00"/>
<path d="M1511.55 472.36C1526.3 463.47 1536.15 446.5 1539.35 439.42C1533.79 450.2 1515.35 467.01 1485.8 448.01C1456.25 429.01 1449.26 387.39 1449.43 368.96C1455.09 358.25 1462.73 338.56 1465.85 330.06C1502.42 368.85 1539.35 376.06 1553.24 374.76C1553.24 374.76 1560.57 367.69 1568.65 367.69C1589.11 368.96 1588.65 396.74 1574.22 399.77C1562.7 402.19 1557.01 398.77 1555.22 398.77L1550.22 419.48L1562.22 472.96L1668.28 474.96C1692.12 461.02 1729.77 455.67 1745.28 455.09C1762.79 428.31 1789.94 371.78 1758.42 359.86C1719.01 344.96 1728.36 334.1 1708.91 311.11C1689.46 288.12 1656.37 312.63 1636.17 325.26C1615.97 337.89 1585.17 332.58 1573.53 305.81C1555.53 257.52 1525.79 249.99 1513.16 252.26C1493.88 253.86 1452.09 273.88 1439.16 341.17C1426.23 408.46 1461.84 456.56 1481.16 472.05L1511.55 472.36Z" fill="#FFFFFF"/>
<path d="M1475.13 429H1469.88L1472.54 424.48C1480.62 410.75 1479.27 392.29 1469.26 379.59C1462.26 370.65 1451.71 369.68 1444.26 371.75C1443.88 371.855 1443.48 371.884 1443.09 371.836C1442.7 371.787 1442.32 371.662 1441.98 371.468C1441.64 371.273 1441.33 371.013 1441.09 370.702C1440.85 370.391 1440.67 370.035 1440.56 369.655C1440.46 369.275 1440.43 368.878 1440.48 368.486C1440.53 368.095 1440.65 367.717 1440.85 367.373C1441.04 367.03 1441.3 366.729 1441.61 366.486C1441.92 366.244 1442.28 366.065 1442.66 365.96C1452.02 363.38 1465.17 364.63 1474.02 375.88C1478.86 382.155 1482.04 389.549 1483.26 397.378C1484.48 405.207 1483.71 413.218 1481.02 420.67C1486.24 417.996 1490.75 414.136 1494.21 409.4C1494.68 408.764 1495.38 408.337 1496.16 408.213C1496.93 408.088 1497.73 408.276 1498.37 408.735C1499.02 409.194 1499.45 409.888 1499.58 410.665C1499.72 411.443 1499.54 412.242 1499.09 412.89C1490.51 424.78 1477.65 429 1475.13 429Z" fill="#FFFFFF"/>
<path d="M1522.45 364.45C1521.66 364.449 1520.91 364.14 1520.35 363.59C1515.75 359.09 1504.19 353.06 1493.45 362.43C1493.16 362.705 1492.81 362.919 1492.43 363.057C1492.05 363.196 1491.65 363.257 1491.25 363.237C1490.85 363.216 1490.45 363.115 1490.09 362.939C1489.73 362.763 1489.4 362.515 1489.14 362.212C1488.87 361.908 1488.67 361.554 1488.55 361.171C1488.42 360.788 1488.38 360.383 1488.41 359.982C1488.45 359.58 1488.56 359.19 1488.75 358.834C1488.94 358.478 1489.2 358.164 1489.51 357.91C1495.65 352.55 1510.87 345.91 1524.51 359.3C1525.07 359.862 1525.39 360.625 1525.39 361.42C1525.39 362.215 1525.07 362.977 1524.51 363.54C1523.97 364.099 1523.23 364.426 1522.45 364.45Z" fill="#FFFFFF"/>
<path d="M1501.28 435.61C1500.48 435.621 1499.72 435.315 1499.15 434.76C1498.58 434.204 1498.25 433.446 1498.24 432.65C1498.23 431.854 1498.54 431.087 1499.09 430.517C1499.65 429.947 1500.4 429.621 1501.2 429.61C1504.57 429.51 1511.77 427.44 1514.87 420.27C1515.01 419.89 1515.23 419.542 1515.51 419.249C1515.79 418.956 1516.13 418.723 1516.51 418.564C1516.88 418.405 1517.28 418.324 1517.69 418.326C1518.09 418.327 1518.5 418.411 1518.87 418.572C1519.24 418.734 1519.58 418.969 1519.86 419.264C1520.14 419.56 1520.35 419.908 1520.49 420.29C1520.63 420.671 1520.7 421.077 1520.67 421.482C1520.65 421.888 1520.55 422.285 1520.37 422.65C1516.07 432.59 1506.06 435.47 1501.37 435.6L1501.28 435.61Z" fill="#FFFFFF"/>
<path d="M1497.65 383C1497.28 383.002 1496.92 382.934 1496.58 382.8C1495.84 382.515 1495.24 381.948 1494.91 381.223C1494.59 380.497 1494.57 379.672 1494.85 378.93C1496.69 374.07 1501.05 368.06 1507.72 365.78C1513.45 363.83 1519.72 364.89 1526.34 368.95C1527.02 369.366 1527.5 370.035 1527.69 370.81C1527.88 371.584 1527.75 372.401 1527.33 373.08C1526.91 373.759 1526.24 374.245 1525.47 374.43C1524.7 374.616 1523.88 374.486 1523.2 374.07C1518.2 370.99 1513.62 370.07 1509.65 371.46C1504.95 373.07 1501.76 377.64 1500.45 381.06C1500.24 381.629 1499.85 382.119 1499.35 382.466C1498.85 382.812 1498.26 382.999 1497.65 383Z" fill="#FFFFFF"/>
<path d="M1447.08 395.75C1446.63 395.753 1446.18 395.65 1445.77 395.45C1445.06 395.103 1444.51 394.487 1444.25 393.737C1443.99 392.987 1444.04 392.165 1444.38 391.45C1446.66 386.77 1451.54 381.17 1458.38 379.5C1464.27 378.06 1470.38 379.68 1476.64 384.32C1476.97 384.549 1477.25 384.842 1477.47 385.182C1477.69 385.523 1477.83 385.903 1477.9 386.301C1477.96 386.699 1477.95 387.106 1477.85 387.497C1477.76 387.889 1477.58 388.258 1477.34 388.581C1477.1 388.905 1476.8 389.176 1476.45 389.38C1476.1 389.583 1475.72 389.714 1475.32 389.766C1474.92 389.817 1474.51 389.787 1474.12 389.678C1473.74 389.569 1473.37 389.382 1473.06 389.13C1468.33 385.62 1463.87 384.33 1459.8 385.33C1454.97 386.51 1451.38 390.78 1449.8 394.08C1449.55 394.586 1449.16 395.011 1448.68 395.307C1448.2 395.602 1447.64 395.756 1447.08 395.75Z" fill="#FFFFFF"/>
<path d="M1512.72 380.526C1515.78 379.567 1517.49 376.308 1516.53 373.246C1515.57 370.183 1512.31 368.478 1509.25 369.436C1506.19 370.395 1504.48 373.654 1505.44 376.717C1506.4 379.779 1509.66 381.484 1512.72 380.526Z" fill="#FFFFFF"/>
<path d="M1462.04 394.835C1465.17 394.154 1467.16 391.059 1466.48 387.924C1465.8 384.788 1462.71 382.799 1459.57 383.48C1456.44 384.161 1454.45 387.256 1455.13 390.391C1455.81 393.527 1458.9 395.516 1462.04 394.835Z" fill="#FFFFFF"/>
<path d="M1591 220.35C1561 204.67 1539.67 243.35 1532.76 264.58L1559.64 285.87C1579.83 279.71 1628.55 240 1591 220.35Z" fill="#FFFFFF"/>
<path d="M1604.35 1013.66L1668.35 474.66L1562.35 472.99C1556.72 489.3 1522.55 496.44 1511.58 472.19L1444.93 471.19L1532.46 1013.69L1604.35 1013.66Z" fill="#FFFFFF"/>
<path d="M1557.4 2268.87H1179.15L1178.77 2266.31C1167.77 2191.54 1156.16 2063.64 1156.51 1926.93L1117.94 1956.8L1117.83 1956.88L998.44 2049.35L996.95 2045.67C930.43 1880.38 799.14 1532.67 778.37 1399.98C757.37 1266.15 826.15 1173.88 865.37 1143.79L865.47 1143.72C928.67 1099.27 1112.27 1011.85 1354.81 999.09C1355.61 999.048 1356.39 999.323 1356.98 999.856C1357.57 1000.39 1357.93 1001.13 1357.97 1001.93C1358.01 1002.73 1357.74 1003.51 1357.2 1004.1C1356.67 1004.69 1355.93 1005.05 1355.13 1005.09C1114 1017.76 931.76 1104.48 869 1148.59C830.71 1177.97 763.78 1268.07 784.28 1399.06C804.82 1530.27 934.15 1873.25 1001.03 2039.75L1112.66 1953.29L933.31 1220.34H1412.09C1424.88 1205.99 1437.61 1192.24 1448.95 1180.49C1449.51 1179.94 1450.26 1179.64 1451.04 1179.63C1451.82 1179.63 1452.57 1179.93 1453.13 1180.47C1453.69 1181.01 1454.02 1181.75 1454.05 1182.53C1454.07 1183.31 1453.79 1184.07 1453.27 1184.65C1441.72 1196.65 1428.72 1210.65 1415.68 1225.32C1404.44 1237.93 1393.03 1251.12 1381.77 1264.53C1254.29 1416.3 1215.4 1507.81 1203.56 1548.85C1200.11 1561.97 1196.82 1575.78 1193.79 1589.85C1173.71 1682.95 1163.2 1794.29 1162.54 1920.85C1161.84 2057.98 1173.27 2186.85 1184.34 2262.85H1553.47L1351.6 1533.85L1686.72 1270.11L1674.1 1169C1646.03 1129.93 1630.84 1083.12 1625.8 1055C1625.71 1054.61 1625.7 1054.2 1625.78 1053.8C1625.85 1053.4 1626 1053.02 1626.23 1052.68C1626.45 1052.35 1626.74 1052.06 1627.08 1051.84C1627.42 1051.61 1627.8 1051.46 1628.2 1051.39C1628.6 1051.32 1629 1051.33 1629.4 1051.42C1629.79 1051.51 1630.17 1051.68 1630.49 1051.92C1630.82 1052.16 1631.1 1052.46 1631.3 1052.81C1631.51 1053.15 1631.65 1053.54 1631.7 1053.94C1636.7 1081.54 1651.58 1127.62 1679.15 1165.82C1679.34 1166.03 1679.51 1166.27 1679.65 1166.52C1696.22 1189.31 1717.32 1209.22 1743.52 1220.62C1743.88 1220.78 1744.21 1221 1744.48 1221.29C1744.75 1221.57 1744.97 1221.91 1745.11 1222.27C1745.26 1222.64 1745.33 1223.03 1745.32 1223.43C1745.31 1223.82 1745.23 1224.21 1745.07 1224.57C1744.91 1224.93 1744.69 1225.26 1744.4 1225.53C1744.12 1225.8 1743.78 1226.02 1743.42 1226.16C1743.05 1226.31 1742.66 1226.38 1742.26 1226.37C1741.87 1226.36 1741.48 1226.28 1741.12 1226.12C1717.21 1215.71 1697.41 1198.51 1681.33 1178.5L1693.09 1272.73L1358.43 1536.09L1559.68 2262.9H1587.06L1439.06 1662.35L1440.06 1661.19L1771 1261.58L1763.56 1007.15C1763.55 1006.76 1763.61 1006.36 1763.75 1006C1763.89 1005.63 1764.1 1005.29 1764.37 1005C1764.65 1004.72 1764.97 1004.48 1765.33 1004.32C1765.69 1004.16 1766.08 1004.07 1766.47 1004.06H1766.56C1767.34 1004.06 1768.09 1004.36 1768.65 1004.91C1769.21 1005.45 1769.54 1006.19 1769.56 1006.97L1777.06 1263.66L1776.34 1264.53L1445.69 1663.82L1594.77 2268.87H1557.4ZM941 1226.34L1117.92 1949.27L1156.59 1919.27C1157.32 1793.46 1167.79 1682.58 1187.72 1589.66L1028.49 1314.2L1377.94 1259.79C1387.52 1248.39 1397.21 1237.16 1406.81 1226.3L941 1226.34ZM1038.07 1318.82L1189.58 1581C1192.15 1569.48 1194.9 1558.17 1197.77 1547.27C1224.83 1453.45 1316.35 1333.7 1372.04 1266.8L1038.07 1318.82Z" fill="#FFFFFF"/>
<path d="M2075.79 1361.93L2036.5 1270.83C2036.18 1270.1 2036.17 1269.27 2036.47 1268.53C2036.76 1267.79 2037.33 1267.2 2038.06 1266.89C2038.8 1266.57 2039.62 1266.56 2040.36 1266.85C2041.1 1267.14 2041.69 1267.72 2042.01 1268.45L2079.45 1355.27L2200.79 1336.1L2283.13 1289.64C2288.22 1285.97 2290.76 1282.22 2290.27 1280.64C2290.17 1280.3 2288.82 1277.29 2275.19 1277.18C2252.19 1277.18 2225.95 1285.83 2215.3 1290.4L2212.3 1285.22L2279 1236.51L2350.76 1214.23C2352.03 1213.57 2353.03 1212.49 2353.6 1211.18C2354.16 1209.86 2354.25 1208.39 2353.85 1207.02C2352.7 1203.23 2347.14 1199.92 2334.97 1202.02L2271.21 1219.78L2232.21 1252.13C2231.91 1252.38 2231.56 1252.57 2231.18 1252.69C2230.8 1252.81 2230.41 1252.85 2230.01 1252.81C2229.62 1252.77 2229.24 1252.66 2228.89 1252.48C2228.54 1252.29 2228.23 1252.04 2227.98 1251.74C2227.73 1251.44 2227.54 1251.09 2227.42 1250.71C2227.3 1250.33 2227.26 1249.94 2227.3 1249.54C2227.33 1249.15 2227.45 1248.77 2227.63 1248.42C2227.82 1248.07 2228.07 1247.76 2228.37 1247.51L2268.37 1214.34L2331.52 1196.75C2331.69 1193.15 2330.93 1188.63 2328.23 1185.59C2326.03 1183.11 2322.72 1181.87 2318.35 1181.9L2244.17 1209.43L2216.39 1243.31C2216.14 1243.63 2215.84 1243.89 2215.49 1244.09C2215.14 1244.29 2214.75 1244.41 2214.36 1244.46C2213.96 1244.5 2213.55 1244.47 2213.17 1244.36C2212.78 1244.24 2212.42 1244.05 2212.11 1243.8C2211.8 1243.54 2211.55 1243.23 2211.36 1242.88C2211.17 1242.52 2211.06 1242.13 2211.03 1241.73C2210.99 1241.33 2211.04 1240.93 2211.16 1240.55C2211.29 1240.17 2211.49 1239.81 2211.75 1239.51L2240.57 1204.37L2314.3 1177C2313.84 1176.04 2313.15 1175.21 2312.3 1174.57C2310.15 1172.92 2304.69 1170.62 2292.3 1173.66L2223.16 1198.66L2195.05 1230C2194.79 1230.32 2194.48 1230.58 2194.12 1230.77C2193.76 1230.96 2193.36 1231.08 2192.96 1231.11C2192.55 1231.15 2192.14 1231.1 2191.75 1230.97C2191.37 1230.84 2191.01 1230.63 2190.71 1230.36C2190.4 1230.08 2190.16 1229.75 2189.99 1229.38C2189.82 1229.01 2189.72 1228.61 2189.71 1228.2C2189.7 1227.8 2189.77 1227.39 2189.92 1227.01C2190.07 1226.63 2190.3 1226.29 2190.59 1226L2219.75 1193.6L2286.51 1169.44C2284.62 1167.63 2282.32 1166.29 2279.82 1165.54C2277.31 1164.78 2274.66 1164.63 2272.08 1165.1C2260.63 1167 2224.08 1175.1 2207.59 1181.58L2130.17 1243.42L2115 1226.3C2114.47 1225.71 2114.2 1224.93 2114.24 1224.13C2114.29 1223.34 2114.65 1222.59 2115.24 1222.06C2115.83 1221.53 2116.61 1221.26 2117.41 1221.3C2118.2 1221.35 2118.95 1221.71 2119.48 1222.3L2130.91 1235.14L2204.58 1176.3L2205 1176.13C2223 1168.95 2261.39 1160.76 2271.13 1159.13C2275.15 1158.43 2279.29 1158.83 2283.11 1160.29C2286.93 1161.74 2290.28 1164.2 2292.82 1167.4C2303.2 1165.14 2311 1165.95 2316.04 1169.81C2318.1 1171.35 2319.63 1173.5 2320.41 1175.96C2325.62 1176.3 2329.78 1178.2 2332.81 1181.61C2336.33 1185.61 2337.6 1190.94 2337.63 1195.61C2354.78 1193.84 2358.82 1202.46 2359.63 1205.3C2360.46 1208.1 2360.26 1211.11 2359.05 1213.77C2357.85 1216.44 2355.73 1218.58 2353.08 1219.81L2352.76 1219.93L2281.76 1241.93L2232.15 1278.15C2244.77 1274.48 2260.58 1271.15 2275.15 1271.15C2287.71 1271.26 2294.31 1273.69 2295.93 1278.8C2298 1285.38 2289.93 1291.99 2286.43 1294.53L2286.15 1294.7L2202.72 1341.78L2075.79 1361.93Z" fill="#FFFFFF"/>
<path d="M1662.28 478.22C1696.22 458.83 1784.48 428.76 1865.96 463.67C1947.44 498.58 1953.48 567.82 1946.32 598.07C1975.65 597.15 2036.8 614.15 2046.77 689.52C2046.77 727.21 2030.14 748.64 2021.83 754.64C2043.54 762.49 2085.83 790.53 2081.41 839.85C2078.08 865.35 2068.94 881.85 2064.78 886.96C2093.65 895.28 2146.53 926.59 2127.13 985.34C2118.27 1005.84 2103.57 1022.12 2097.13 1028.82C2110.29 1030.44 2137.55 1044.92 2143.13 1080.94C2143.13 1100.34 2132.51 1120.94 2127.19 1128.74C2141.05 1138.44 2158.37 1164.49 2116.8 1191.09L2122.34 1224.35L2036.44 1273.53L2005.26 1207.72C1976.86 1208.18 1922.68 1190.54 1933.26 1116.27C1934.72 1107.84 1940.89 1100.66 1943.79 1098.12C1910.79 1093.32 1853.64 1064.04 1889.02 985.34C1864.02 975.42 1822.02 942.34 1854.56 889.2C1838.97 879.73 1809.85 852.51 1817.02 818.93C1814.36 830.55 1805.43 855.1 1789.28 866.72C1801.61 871.91 1826.28 888.98 1826.28 915.72C1826.28 942.46 1812.98 952.47 1806.28 954.17C1814.63 970.17 1818.91 1002.91 1769.28 1006.39C1719.65 1009.87 1637.62 1013.17 1602.8 1014.39L1662.28 478.22Z" fill="#FEDA00"/>
<path d="M2006.09 1144C2000.96 1144 1996.09 1143.85 1991.47 1143.52C1990.68 1143.46 1989.94 1143.09 1989.42 1142.49C1988.9 1141.9 1988.63 1141.11 1988.69 1140.32C1988.75 1139.53 1989.11 1138.79 1989.71 1138.27C1990.31 1137.75 1991.1 1137.49 1991.89 1137.54C2024.89 1139.89 2075.89 1132.7 2098.24 1128.54C2099.02 1128.4 2099.82 1128.58 2100.47 1129.03C2101.12 1129.48 2101.57 1130.17 2101.71 1130.95C2101.86 1131.73 2101.69 1132.53 2101.24 1133.19C2100.79 1133.84 2100.11 1134.29 2099.33 1134.44C2079.8 1138.12 2038.61 1144 2006.09 1144ZM2031.59 1043.15C2006.03 1042.93 1980.52 1041.01 1955.22 1037.41C1954.43 1037.3 1953.72 1036.87 1953.25 1036.24C1952.77 1035.6 1952.57 1034.8 1952.68 1034.01C1952.79 1033.22 1953.22 1032.51 1953.85 1032.04C1954.49 1031.56 1955.29 1031.36 1956.08 1031.47C1986.65 1035.93 2051.83 1041.7 2079.74 1031.62C2080.12 1031.45 2080.53 1031.37 2080.94 1031.37C2081.35 1031.37 2081.76 1031.45 2082.14 1031.61C2082.51 1031.78 2082.86 1032.02 2083.14 1032.32C2083.42 1032.62 2083.64 1032.98 2083.77 1033.36C2083.91 1033.75 2083.97 1034.17 2083.94 1034.58C2083.91 1034.99 2083.8 1035.39 2083.61 1035.76C2083.41 1036.12 2083.15 1036.44 2082.83 1036.7C2082.51 1036.96 2082.14 1037.15 2081.74 1037.26C2069.75 1041.65 2051.29 1043.19 2031.59 1043.19V1043.15ZM1704.67 971.42C1683.81 971.297 1663.02 968.906 1642.67 964.29C1641.9 964.104 1641.23 963.619 1640.81 962.94C1640.39 962.261 1640.26 961.444 1640.45 960.67C1640.64 959.896 1641.12 959.227 1641.8 958.81C1642.48 958.394 1643.3 958.264 1644.07 958.45C1666.94 963.92 1718.6 970.98 1750.37 958.58C1751.11 958.291 1751.94 958.308 1752.67 958.628C1753.39 958.948 1753.97 959.544 1754.25 960.285C1754.54 961.026 1754.53 961.852 1754.21 962.581C1753.89 963.309 1753.29 963.881 1752.55 964.17C1738.85 969.55 1721.72 971.46 1704.67 971.46V971.42ZM1903 925.8C1895.35 925.8 1888.41 925.64 1882.48 925.38C1882.09 925.363 1881.7 925.268 1881.34 925.102C1880.98 924.935 1880.66 924.7 1880.4 924.409C1880.13 924.119 1879.92 923.779 1879.79 923.408C1879.65 923.037 1879.59 922.644 1879.61 922.25C1879.63 921.856 1879.72 921.469 1879.89 921.112C1880.05 920.754 1880.29 920.433 1880.58 920.167C1880.87 919.9 1881.21 919.694 1881.58 919.559C1881.95 919.424 1882.35 919.363 1882.74 919.38C1921.53 921.1 2004.58 918.38 2041.18 895.81C2041.85 895.433 2042.65 895.33 2043.4 895.524C2044.15 895.718 2044.79 896.194 2045.2 896.852C2045.6 897.51 2045.74 898.299 2045.58 899.055C2045.42 899.811 2044.97 900.476 2044.33 900.91C2012.16 920.74 1946.26 925.8 1903 925.8ZM1711.33 879.63C1688.42 879.598 1665.55 877.813 1642.91 874.29C1642.52 874.224 1642.15 874.083 1641.82 873.873C1641.48 873.664 1641.19 873.391 1640.96 873.069C1640.73 872.748 1640.57 872.385 1640.48 872.001C1640.4 871.617 1640.38 871.219 1640.45 870.83C1640.52 870.441 1640.66 870.069 1640.87 869.735C1641.08 869.401 1641.35 869.112 1641.67 868.883C1641.99 868.655 1642.35 868.492 1642.74 868.404C1643.12 868.316 1643.52 868.304 1643.91 868.37C1668.63 872.49 1725.91 877.8 1765.84 868.37C1766.61 868.187 1767.43 868.319 1768.11 868.737C1768.78 869.156 1769.27 869.826 1769.45 870.6C1769.63 871.374 1769.5 872.19 1769.08 872.867C1768.66 873.544 1767.99 874.027 1767.22 874.21C1750.34 878.21 1730.53 879.63 1711.31 879.63H1711.33ZM1855.33 795.75C1850.57 795.75 1845.9 795.59 1841.33 795.26C1840.94 795.231 1840.55 795.125 1840.2 794.947C1839.85 794.77 1839.53 794.525 1839.27 794.226C1839.01 793.927 1838.82 793.58 1838.69 793.205C1838.57 792.83 1838.52 792.434 1838.55 792.04C1838.58 791.646 1838.69 791.262 1838.86 790.909C1839.04 790.556 1839.29 790.241 1839.58 789.983C1839.88 789.725 1840.23 789.528 1840.61 789.404C1840.98 789.28 1841.38 789.231 1841.77 789.26C1895.09 793.18 1966.36 772.12 1996.61 760.43C1996.98 760.288 1997.37 760.22 1997.76 760.23C1998.16 760.24 1998.55 760.327 1998.91 760.486C1999.27 760.646 1999.59 760.875 1999.86 761.161C2000.14 761.446 2000.35 761.782 2000.49 762.15C2000.63 762.518 2000.7 762.91 2000.69 763.304C2000.68 763.698 2000.59 764.086 2000.43 764.446C2000.27 764.807 2000.04 765.132 1999.76 765.404C1999.47 765.675 1999.14 765.888 1998.77 766.03C1970.66 776.9 1907.51 795.75 1855.31 795.75H1855.33ZM1712.43 753.3C1692.05 753.281 1671.74 751.004 1651.86 746.51C1651.48 746.423 1651.11 746.262 1650.79 746.034C1650.47 745.807 1650.19 745.519 1649.98 745.185C1649.77 744.852 1649.63 744.48 1649.56 744.092C1649.49 743.703 1649.5 743.305 1649.59 742.92C1649.68 742.535 1649.84 742.171 1650.07 741.849C1650.29 741.527 1650.58 741.252 1650.91 741.042C1651.25 740.831 1651.62 740.688 1652.01 740.621C1652.4 740.553 1652.8 740.563 1653.18 740.65C1705.85 752.58 1749.72 745.92 1765.56 740.73C1765.94 740.591 1766.34 740.529 1766.74 740.549C1767.15 740.569 1767.54 740.67 1767.9 740.845C1768.27 741.021 1768.59 741.269 1768.86 741.573C1769.12 741.877 1769.32 742.231 1769.45 742.615C1769.57 742.998 1769.62 743.403 1769.59 743.805C1769.55 744.207 1769.43 744.597 1769.25 744.954C1769.06 745.31 1768.8 745.624 1768.48 745.878C1768.17 746.132 1767.81 746.319 1767.42 746.43C1757.76 749.6 1738.05 753.3 1712.43 753.3ZM1790.15 659.66C1789.35 659.697 1788.58 659.417 1787.99 658.88C1787.4 658.344 1787.05 657.596 1787.01 656.8C1786.97 656.004 1787.25 655.227 1787.79 654.638C1788.33 654.049 1789.07 653.697 1789.87 653.66C1856.96 647.38 1905.68 621.08 1922.07 608.06C1922.38 607.804 1922.73 607.613 1923.11 607.496C1923.5 607.379 1923.9 607.34 1924.29 607.381C1924.69 607.421 1925.08 607.541 1925.43 607.732C1925.78 607.923 1926.09 608.183 1926.34 608.495C1926.58 608.807 1926.77 609.166 1926.88 609.55C1926.99 609.934 1927.02 610.337 1926.97 610.733C1926.92 611.129 1926.79 611.512 1926.59 611.858C1926.39 612.205 1926.13 612.508 1925.81 612.75C1908.93 626.17 1858.92 653.22 1790.43 659.63L1790.15 659.66Z" fill="#FFFFFF"/>
<path d="M1539.76 2513.5L1612.4 2466.4L1522.4 2302.79L1390.1 2345.31L1408 2395.36C1345.42 2468.8 1255.8 2628.18 1218.82 2698.69L1513.37 2533.45L1526.94 2477.58L1539.76 2513.5Z" fill="#FFFFFF"/>
<path d="M1211.51 2706.26L1216.21 2697.26C1254.4 2624.45 1342.62 2468.13 1404.64 2394.7L1387.33 2346.3L1358.91 2266.83C1358.74 2266.45 1358.66 2266.04 1358.66 2265.63C1358.66 2265.22 1358.74 2264.81 1358.9 2264.43C1359.07 2264.05 1359.31 2263.71 1359.61 2263.43C1359.91 2263.15 1360.27 2262.93 1360.65 2262.8C1361.04 2262.66 1361.46 2262.6 1361.87 2262.63C1362.28 2262.66 1362.68 2262.77 1363.05 2262.96C1363.41 2263.16 1363.73 2263.42 1363.99 2263.74C1364.25 2264.06 1364.44 2264.43 1364.55 2264.83L1392.01 2341.58L1518.08 2301.07L1499.63 2267.51C1499.44 2267.16 1499.32 2266.79 1499.28 2266.39C1499.23 2266 1499.27 2265.6 1499.38 2265.23C1499.48 2264.85 1499.67 2264.49 1499.91 2264.19C1500.16 2263.88 1500.46 2263.62 1500.81 2263.43C1501.16 2263.24 1501.54 2263.12 1501.93 2263.08C1502.32 2263.03 1502.72 2263.07 1503.09 2263.18C1503.47 2263.28 1503.83 2263.47 1504.14 2263.71C1504.44 2263.96 1504.7 2264.26 1504.89 2264.61L1525.06 2301.31L1525.12 2301.41L1616.38 2467.41L1538.22 2518.09L1527.54 2488.09L1516.04 2535.46L1514.9 2536.1L1211.51 2706.26ZM1394.02 2347.26L1411.46 2396.02L1410.33 2397.35C1351.02 2466.95 1266.76 2614.86 1226.27 2691.14L1510.81 2531.51L1526.45 2467.14L1541.31 2508.96L1608.43 2465.44L1521.01 2306.44L1394.02 2347.26Z" fill="#FFFFFF"/>
<path d="M1162.82 2065.47C1102.64 2145.74 1027.89 2279.15 994.93 2341.98L1178 2239.3C1173.06 2201.73 1165.82 2107.76 1162.82 2065.47Z" fill="#FFFFFF"/>
<path d="M987.58 2349.55L992.28 2340.55C1026.42 2275.45 1100.28 2143.87 1160.42 2063.63L1165.24 2057.2L1165.81 2065.2C1168.92 2108.99 1176.08 2201.63 1180.95 2238.85L1181.22 2240.85L987.58 2349.55ZM1160.41 2073.76C1104.08 2150.5 1037.13 2268.82 1002.33 2334.39L1174.75 2237.67C1170.15 2201.37 1163.7 2119.22 1160.41 2073.76ZM1159.41 1972.29C1158.79 1972.29 1158.19 1972.1 1157.68 1971.74C1157.18 1971.38 1156.8 1970.87 1156.59 1970.29L1142.91 1932.35C1142.71 1931.62 1142.79 1930.84 1143.14 1930.17C1143.49 1929.5 1144.09 1928.98 1144.8 1928.73C1145.51 1928.47 1146.3 1928.5 1146.99 1928.8C1147.69 1929.1 1148.25 1929.66 1148.55 1930.35L1162.23 1968.29C1162.5 1969.04 1162.46 1969.86 1162.12 1970.58C1161.79 1971.3 1161.18 1971.86 1160.43 1972.13C1160.11 1972.24 1159.76 1972.29 1159.42 1972.29H1159.41Z" fill="#FFFFFF"/>
<path d="M1524.38 1699.57L1774.91 1263.27L1442.57 1663.78L1520.12 1978.23L1598.52 2042.99L1524.38 1699.57Z" fill="#FFFFFF"/>
<path d="M2047.17 1261.24C2046.57 1261.24 2045.98 1261.06 2045.48 1260.72C2044.99 1260.38 2044.6 1259.9 2044.38 1259.34L2023.74 1207.11L2011.34 1208.89C2010.55 1209 2009.75 1208.8 2009.11 1208.32C2008.48 1207.85 2008.05 1207.14 2007.94 1206.35C2007.83 1205.56 2008.03 1204.76 2008.51 1204.12C2008.98 1203.49 2009.69 1203.06 2010.48 1202.95L2025.17 1200.84H2025.3L2049.99 1197.31H2050.09L2074.8 1193.77H2074.87L2098.78 1190.35L2112.44 1188.35C2113.23 1188.24 2114.03 1188.44 2114.67 1188.92C2115.3 1189.39 2115.73 1190.1 2115.84 1190.89C2115.95 1191.68 2115.75 1192.48 2115.27 1193.12C2114.8 1193.75 2114.09 1194.18 2113.3 1194.29L2102.6 1195.83L2107.33 1229.6C2107.43 1230.38 2107.21 1231.17 2106.73 1231.79C2106.26 1232.42 2105.55 1232.83 2104.77 1232.94C2103.99 1233.05 2103.2 1232.85 2102.57 1232.38C2101.94 1231.91 2101.51 1231.22 2101.39 1230.44L2096.66 1196.68L2078.96 1199.21L2088.77 1239.03C2088.93 1239.79 2088.78 1240.58 2088.37 1241.24C2087.96 1241.89 2087.31 1242.36 2086.55 1242.55C2085.8 1242.74 2085 1242.62 2084.33 1242.24C2083.66 1241.85 2083.17 1241.21 2082.95 1240.47L2073 1200.06L2054.41 1202.73L2068.79 1247.41C2069.03 1248.17 2068.97 1248.99 2068.6 1249.7C2068.24 1250.41 2067.61 1250.95 2066.85 1251.19C2066.09 1251.43 2065.27 1251.37 2064.56 1251C2063.85 1250.64 2063.31 1250.01 2063.07 1249.25L2048.38 1203.59L2029.85 1206.24L2049.96 1257.15C2050.14 1257.6 2050.2 1258.1 2050.15 1258.58C2050.1 1259.07 2049.92 1259.53 2049.65 1259.94C2049.37 1260.34 2049 1260.67 2048.57 1260.9C2048.14 1261.13 2047.66 1261.25 2047.17 1261.25V1261.24Z" fill="#FFFFFF"/>
<path d="M883.43 1137.61C882.686 1137.61 881.971 1137.32 881.43 1136.81C875.01 1130.81 874.89 1126.45 875.92 1123.81C877.79 1118.98 884.34 1116.68 896.52 1116.58C900.355 1116.59 904.186 1116.79 908 1117.19C908.796 1117.27 909.527 1117.66 910.032 1118.28C910.537 1118.9 910.776 1119.7 910.695 1120.5C910.614 1121.29 910.22 1122.02 909.601 1122.53C908.981 1123.03 908.186 1123.27 907.39 1123.19C903.789 1122.82 900.171 1122.63 896.55 1122.62C883.18 1122.73 881.65 1125.68 881.55 1126.02C881.17 1127.02 882.25 1129.43 885.55 1132.47C885.99 1132.88 886.297 1133.41 886.433 1133.99C886.569 1134.58 886.526 1135.19 886.311 1135.75C886.095 1136.31 885.717 1136.79 885.225 1137.13C884.733 1137.47 884.15 1137.66 883.55 1137.67L883.43 1137.61ZM925.18 1114.43C924.501 1114.43 923.842 1114.2 923.31 1113.78L889.89 1087.3L818.8 1065.23L818.65 1065.16C815.998 1063.93 813.877 1061.79 812.674 1059.13C811.472 1056.47 811.268 1053.46 812.1 1050.66C812.96 1047.81 817.02 1039.2 834.1 1040.96C834.1 1036.29 835.41 1030.96 838.93 1026.96C841.93 1023.55 846.12 1021.65 851.33 1021.31C852.104 1018.85 853.633 1016.7 855.7 1015.16C860.7 1011.3 868.54 1010.49 878.93 1012.75C881.469 1009.55 884.822 1007.1 888.636 1005.64C892.451 1004.19 896.587 1003.79 900.61 1004.48C910.34 1006.1 948.71 1014.28 966.74 1021.48L967.15 1021.65L1023 1066.37C1023.62 1066.87 1024.02 1067.59 1024.1 1068.38C1024.19 1069.18 1023.96 1069.97 1023.46 1070.59C1022.96 1071.21 1022.24 1071.61 1021.45 1071.69C1020.65 1071.78 1019.86 1071.55 1019.24 1071.05L964.1 1026.89C947.55 1020.4 911.1 1012.31 899.63 1010.41C897.051 1009.94 894.399 1010.09 891.889 1010.85C889.38 1011.6 887.084 1012.94 885.19 1014.75L952 1038.9L981.16 1071.3C981.64 1071.9 981.873 1072.66 981.81 1073.42C981.747 1074.19 981.394 1074.9 980.823 1075.41C980.252 1075.92 979.506 1076.2 978.74 1076.18C977.973 1076.16 977.243 1075.84 976.7 1075.3L948.54 1044L879.39 1019C866.99 1016 861.54 1018.26 859.39 1019.91C858.538 1020.55 857.852 1021.38 857.39 1022.34L931.12 1049.71L959.94 1084.85C960.203 1085.15 960.403 1085.51 960.527 1085.89C960.652 1086.27 960.698 1086.67 960.665 1087.07C960.631 1087.47 960.517 1087.86 960.33 1088.22C960.143 1088.57 959.887 1088.88 959.576 1089.14C959.266 1089.39 958.907 1089.58 958.522 1089.7C958.137 1089.81 957.734 1089.84 957.335 1089.8C956.936 1089.75 956.551 1089.63 956.201 1089.43C955.852 1089.23 955.545 1088.97 955.3 1088.65L927.51 1054.77L853.35 1027.24C848.96 1027.24 845.66 1028.45 843.46 1030.93C840.76 1033.93 840 1038.49 840.16 1042.09L903.32 1059.69L943.32 1092.85C943.933 1093.36 944.318 1094.09 944.393 1094.88C944.467 1095.67 944.223 1096.46 943.715 1097.08C943.207 1097.69 942.477 1098.07 941.684 1098.15C940.892 1098.22 940.103 1097.98 939.49 1097.47L900.49 1065.13L836.74 1047.36C824.57 1045.29 819.01 1048.59 817.86 1052.36C817.462 1053.74 817.553 1055.21 818.116 1056.52C818.679 1057.84 819.681 1058.92 820.95 1059.58L892.76 1081.87L927.06 1109.05C927.547 1109.44 927.903 1109.97 928.076 1110.56C928.25 1111.16 928.233 1111.8 928.029 1112.39C927.825 1112.97 927.442 1113.48 926.936 1113.84C926.429 1114.2 925.822 1114.4 925.2 1114.4L925.18 1114.43Z" fill="#FFFFFF"/>
<path d="M1473.27 471.69C1439.27 452.29 1351.06 422.22 1269.59 457.14C1188.12 492.06 1182.07 561.28 1189.23 591.54C1159.9 590.61 1098.75 607.61 1088.77 682.98C1088.77 720.67 1105.4 742.1 1113.71 748.1C1092.01 755.96 1049.71 783.99 1054.13 833.32C1057.46 858.81 1066.6 875.32 1070.76 880.43C1057.6 882.04 1030.43 898.76 1024.89 934.79C1024.89 954.19 1035.51 974.79 1040.83 982.59C1026.97 992.29 1009.65 1018.34 1051.22 1044.94L1048.74 1058.7C1084.11 1046.7 1170.42 1020.91 1245.43 1011.32C1248.25 1001.47 1248.64 993.07 1246.62 978.8C1271.62 968.88 1313.62 935.8 1281.08 882.66C1296.67 873.19 1325.8 845.97 1318.62 812.39C1321.28 824.01 1330.22 848.56 1346.37 860.18C1334.03 865.38 1309.37 882.45 1309.37 909.18C1309.37 935.91 1322.67 945.94 1329.37 947.63C1321.03 963.63 1314.64 1011.33 1364.26 1014.81C1413.88 1018.29 1533.14 1013.2 1533.14 1013.2L1473.27 471.69Z" fill="#FEDA00"/>
<path d="M1541 1060.41L1498.67 1049.25L1535.19 1001.62L1541 1060.41ZM1508.91 1045.75L1534.18 1052.41L1530.71 1017.32L1508.91 1045.75Z" fill="#FFFFFF"/>
<path d="M1141.15 1002.21C1114.9 1002.21 1084.15 996.59 1068.28 992.69C1067.51 992.499 1066.84 992.009 1066.43 991.327C1066.02 990.645 1065.89 989.828 1066.09 989.055C1066.28 988.282 1066.77 987.616 1067.45 987.205C1068.13 986.793 1068.95 986.669 1069.72 986.86C1090.36 991.93 1136.57 1000 1163.66 994.25C1164.43 994.096 1165.24 994.254 1165.9 994.689C1166.56 995.124 1167.02 995.8 1167.18 996.573C1167.34 997.345 1167.19 998.15 1166.77 998.814C1166.34 999.478 1165.67 999.947 1164.9 1000.12C1157.08 1001.62 1149.12 1002.32 1141.15 1002.21ZM1430.87 964.92C1413.87 964.92 1396.68 963.02 1382.98 957.67C1382.61 957.527 1382.28 957.313 1381.99 957.04C1381.71 956.767 1381.48 956.441 1381.32 956.081C1381.16 955.72 1381.08 955.331 1381.07 954.938C1381.06 954.544 1381.13 954.152 1381.28 953.785C1381.42 953.418 1381.63 953.083 1381.91 952.798C1382.18 952.514 1382.5 952.286 1382.86 952.128C1383.23 951.97 1383.61 951.884 1384.01 951.876C1384.4 951.867 1384.79 951.937 1385.16 952.08C1416.93 964.48 1468.59 957.42 1491.47 951.96C1491.86 951.851 1492.27 951.822 1492.67 951.873C1493.07 951.925 1493.45 952.057 1493.8 952.262C1494.15 952.466 1494.45 952.738 1494.69 953.062C1494.93 953.386 1495.1 953.756 1495.2 954.148C1495.29 954.54 1495.31 954.948 1495.24 955.346C1495.17 955.744 1495.03 956.124 1494.81 956.464C1494.59 956.804 1494.31 957.097 1493.97 957.324C1493.64 957.552 1493.27 957.711 1492.87 957.79C1472.52 962.41 1451.73 964.8 1430.87 964.92ZM1232.55 919.26C1189.27 919.26 1123.39 914.26 1091.24 894.37C1090.57 893.947 1090.1 893.277 1089.92 892.507C1089.75 891.737 1089.88 890.929 1090.3 890.257C1090.71 889.586 1091.38 889.106 1092.15 888.921C1092.91 888.736 1093.72 888.861 1094.4 889.27C1110.33 899.1 1137.57 906.33 1173.19 910.18C1199.64 912.971 1226.25 913.86 1252.83 912.84C1253.63 912.806 1254.4 913.089 1254.99 913.627C1255.58 914.165 1255.93 914.914 1255.96 915.71C1255.99 916.506 1255.71 917.282 1255.17 917.869C1254.64 918.456 1253.89 918.806 1253.09 918.84C1247.16 919.1 1240.21 919.26 1232.55 919.26ZM1424.23 873.09C1405.01 873.09 1385.23 871.68 1368.37 867.72C1367.99 867.629 1367.62 867.464 1367.31 867.234C1366.99 867.003 1366.71 866.712 1366.51 866.377C1366.3 866.042 1366.16 865.669 1366.1 865.28C1366.04 864.891 1366.05 864.493 1366.14 864.11C1366.23 863.727 1366.4 863.365 1366.63 863.045C1366.86 862.725 1367.15 862.454 1367.48 862.247C1367.82 862.04 1368.19 861.901 1368.58 861.838C1368.97 861.775 1369.37 861.789 1369.75 861.88C1409.65 871.26 1466.95 865.96 1491.68 861.88C1492.07 861.814 1492.47 861.826 1492.85 861.914C1493.24 862.002 1493.6 862.165 1493.92 862.393C1494.24 862.622 1494.51 862.911 1494.72 863.245C1494.93 863.579 1495.07 863.951 1495.14 864.34C1495.21 864.729 1495.19 865.127 1495.11 865.511C1495.02 865.895 1494.86 866.258 1494.63 866.579C1494.4 866.901 1494.11 867.174 1493.77 867.383C1493.44 867.593 1493.07 867.734 1492.68 867.8C1470.03 871.306 1447.15 873.075 1424.23 873.09ZM1280.23 789.21C1228.03 789.21 1164.89 770.36 1136.77 759.5C1136.4 759.358 1136.07 759.145 1135.78 758.874C1135.5 758.602 1135.27 758.276 1135.11 757.916C1134.95 757.556 1134.86 757.168 1134.85 756.774C1134.84 756.38 1134.91 755.988 1135.05 755.62C1135.19 755.252 1135.4 754.916 1135.68 754.631C1135.95 754.345 1136.27 754.116 1136.63 753.956C1136.99 753.797 1137.38 753.709 1137.78 753.7C1138.17 753.69 1138.56 753.758 1138.93 753.9C1169.18 765.59 1240.47 786.66 1293.77 782.74C1294.57 782.682 1295.35 782.942 1295.96 783.463C1296.56 783.984 1296.93 784.724 1296.99 785.52C1297.05 786.316 1296.79 787.102 1296.27 787.706C1295.75 788.31 1295.01 788.682 1294.21 788.74C1289.66 789.05 1285 789.21 1280.23 789.21ZM1423.11 746.77C1397.49 746.77 1377.79 743.06 1368.11 739.89C1367.72 739.779 1367.36 739.591 1367.05 739.338C1366.73 739.084 1366.47 738.77 1366.28 738.414C1366.1 738.057 1365.98 737.667 1365.94 737.265C1365.91 736.863 1365.96 736.458 1366.08 736.074C1366.21 735.691 1366.41 735.337 1366.67 735.033C1366.94 734.729 1367.26 734.481 1367.63 734.305C1367.99 734.13 1368.38 734.029 1368.79 734.009C1369.19 733.989 1369.59 734.051 1369.97 734.19C1385.81 739.38 1429.67 746.04 1482.35 734.12C1482.74 734.019 1483.14 733.998 1483.54 734.057C1483.94 734.116 1484.32 734.254 1484.66 734.463C1485.01 734.673 1485.3 734.949 1485.54 735.275C1485.77 735.602 1485.94 735.972 1486.03 736.364C1486.12 736.756 1486.13 737.162 1486.05 737.557C1485.98 737.953 1485.83 738.33 1485.61 738.666C1485.39 739.002 1485.11 739.291 1484.77 739.515C1484.44 739.739 1484.06 739.894 1483.67 739.97C1463.8 744.471 1443.49 746.751 1423.11 746.77ZM1345.39 653.13H1345.11C1276.63 646.73 1226.62 619.67 1209.74 606.26C1209.12 605.764 1208.72 605.041 1208.63 604.249C1208.54 603.458 1208.76 602.663 1209.26 602.04C1209.76 601.417 1210.48 601.016 1211.27 600.926C1212.06 600.836 1212.86 601.064 1213.48 601.56C1229.87 614.56 1278.59 640.88 1345.67 647.16C1346.47 647.197 1347.21 647.549 1347.75 648.138C1348.29 648.727 1348.57 649.504 1348.53 650.3C1348.49 651.096 1348.14 651.844 1347.55 652.38C1346.96 652.917 1346.19 653.197 1345.39 653.16V653.13Z" fill="#FFFFFF"/>
<path d="M1068 1055.92H1067.58C1066.79 1055.81 1066.09 1055.39 1065.61 1054.76C1065.13 1054.12 1064.92 1053.33 1065.03 1052.54L1065.33 1050.41L1054.62 1048.88C1053.83 1048.77 1053.12 1048.34 1052.65 1047.71C1052.17 1047.07 1051.97 1046.27 1052.08 1045.48C1052.19 1044.69 1052.62 1043.98 1053.25 1043.51C1053.89 1043.03 1054.69 1042.83 1055.48 1042.94L1069.14 1044.94L1076.75 1046.03C1077.14 1046.09 1077.52 1046.22 1077.85 1046.42C1078.19 1046.62 1078.49 1046.89 1078.72 1047.2C1078.96 1047.52 1079.13 1047.88 1079.23 1048.26C1079.33 1048.64 1079.35 1049.04 1079.29 1049.43C1079.23 1049.82 1079.1 1050.2 1078.9 1050.53C1078.7 1050.87 1078.43 1051.17 1078.12 1051.4C1077.8 1051.64 1077.44 1051.81 1077.06 1051.91C1076.68 1052.01 1076.28 1052.03 1075.89 1051.97L1071.26 1051.31L1070.97 1053.41C1070.85 1054.11 1070.49 1054.75 1069.95 1055.21C1069.4 1055.67 1068.71 1055.92 1068 1055.92Z" fill="#FFFFFF"/>
<path d="M2065.71 2478.86L1514.82 1971L1518.88 1966.58L2060.11 2465.58L2084.99 1630.98L1619.36 1459.7L1621.44 1454.06L2087.23 1625.41L2600.56 1081.72L2140 1076.12L2140.08 1070.12L2614.3 1075.84L2609.6 1080.84L2091 1630.1L2065.71 2478.86ZM781.25 1294.64L522.25 1055.83L524.25 1053.62V1050.62L816.69 1054.15L816.62 1060.15L541.62 1056.83L841.14 1167L839.07 1172.64L537.4 1061.64L785.32 1290.21L781.25 1294.64ZM1892.4 1073.13L1769.68 1071.65L1769.76 1065.65L1892.48 1067.13L1892.4 1073.13ZM1047.11 1062.93L1009.21 1062.48L1009.29 1056.48L1047.19 1056.93L1047.11 1062.93Z" fill="#FFFFFF"/>
<path d="M1315.53 1344.66C1315.17 1344.66 1314.81 1344.6 1314.47 1344.47L1185.67 1295.69C1184.92 1295.41 1184.32 1294.84 1183.99 1294.12C1183.67 1293.39 1183.64 1292.57 1183.92 1291.82C1184.2 1291.07 1184.77 1290.47 1185.49 1290.14C1186.22 1289.82 1187.04 1289.79 1187.79 1290.07L1316.59 1338.85C1317.25 1339.1 1317.8 1339.57 1318.15 1340.18C1318.5 1340.79 1318.62 1341.51 1318.49 1342.2C1318.36 1342.89 1318 1343.52 1317.46 1343.97C1316.92 1344.42 1316.23 1344.66 1315.53 1344.66Z" fill="#FFFFFF"/>
</svg>
