<svg width="3000" height="3000" viewBox="0 0 3000 3000" fill="none" xmlns="http://www.w3.org/2000/svg">
<path d="M2235.94 1716.29C2234.29 1716.29 2232.68 1715.8 2231.31 1714.89C2229.94 1713.97 2228.87 1712.67 2228.24 1711.15C2227.61 1709.63 2227.45 1707.95 2227.77 1706.33C2228.09 1704.72 2228.88 1703.23 2230.05 1702.07C2231.21 1700.9 2232.7 1700.11 2234.31 1699.79C2235.93 1699.47 2237.6 1699.63 2239.13 1700.26C2240.65 1700.89 2241.95 1701.96 2242.87 1703.33C2243.78 1704.7 2244.27 1706.31 2244.27 1707.96C2244.27 1710.17 2243.39 1712.29 2241.83 1713.85C2240.27 1715.41 2238.15 1716.29 2235.94 1716.29ZM2235.94 1705.63C2235.48 1705.63 2235.03 1705.77 2234.64 1706.02C2234.26 1706.28 2233.96 1706.64 2233.79 1707.07C2233.61 1707.49 2233.56 1707.96 2233.65 1708.41C2233.74 1708.87 2233.97 1709.28 2234.29 1709.61C2234.62 1709.93 2235.03 1710.16 2235.48 1710.25C2235.94 1710.34 2236.41 1710.29 2236.83 1710.11C2237.26 1709.94 2237.62 1709.64 2237.88 1709.25C2238.13 1708.87 2238.27 1708.42 2238.27 1707.96C2238.27 1707.34 2238.02 1706.75 2237.59 1706.31C2237.15 1705.88 2236.56 1705.63 2235.94 1705.63Z" fill="black"/>
<path d="M2217.28 130.48C2215.63 130.48 2214.02 129.991 2212.65 129.076C2211.28 128.161 2210.21 126.86 2209.58 125.338C2208.95 123.815 2208.79 122.141 2209.11 120.525C2209.43 118.909 2210.23 117.425 2211.39 116.26C2212.56 115.095 2214.04 114.301 2215.65 113.98C2217.27 113.658 2218.95 113.823 2220.47 114.454C2221.99 115.084 2223.29 116.152 2224.21 117.522C2225.12 118.892 2225.61 120.502 2225.61 122.15C2225.61 124.358 2224.73 126.476 2223.17 128.037C2221.61 129.599 2219.49 130.477 2217.28 130.48ZM2217.28 119.82C2216.82 119.82 2216.37 119.956 2215.99 120.213C2215.6 120.469 2215.3 120.832 2215.13 121.258C2214.95 121.684 2214.91 122.152 2215 122.604C2215.08 123.056 2215.31 123.472 2215.63 123.797C2215.96 124.123 2216.37 124.345 2216.83 124.435C2217.28 124.525 2217.75 124.479 2218.17 124.302C2218.6 124.126 2218.96 123.827 2219.22 123.444C2219.47 123.061 2219.61 122.611 2219.61 122.15C2219.61 121.533 2219.36 120.942 2218.92 120.505C2218.49 120.069 2217.9 119.822 2217.28 119.82Z" fill="black"/>
<path d="M428.22 1161.71C426.572 1161.71 424.962 1161.22 423.592 1160.31C422.222 1159.39 421.154 1158.09 420.524 1156.57C419.893 1155.05 419.728 1153.37 420.05 1151.75C420.371 1150.14 421.164 1148.65 422.329 1147.49C423.494 1146.32 424.979 1145.53 426.595 1145.21C428.21 1144.89 429.885 1145.05 431.407 1145.68C432.93 1146.31 434.23 1147.38 435.146 1148.75C436.061 1150.12 436.55 1151.73 436.55 1153.38C436.547 1155.59 435.669 1157.71 434.107 1159.27C432.545 1160.83 430.428 1161.71 428.22 1161.71ZM428.22 1151.05C427.759 1151.05 427.308 1151.19 426.925 1151.44C426.542 1151.7 426.243 1152.06 426.067 1152.49C425.891 1152.91 425.845 1153.38 425.934 1153.83C426.024 1154.29 426.246 1154.7 426.572 1155.03C426.898 1155.35 427.313 1155.58 427.765 1155.67C428.217 1155.75 428.686 1155.71 429.111 1155.53C429.537 1155.36 429.901 1155.06 430.157 1154.67C430.413 1154.29 430.55 1153.84 430.55 1153.38C430.55 1152.76 430.304 1152.17 429.867 1151.73C429.43 1151.3 428.838 1151.05 428.22 1151.05Z" fill="black"/>
<path d="M764.13 2537.61C762.483 2537.61 760.873 2537.12 759.505 2536.2C758.136 2535.28 757.07 2533.98 756.441 2532.46C755.812 2530.94 755.649 2529.26 755.971 2527.65C756.294 2526.03 757.088 2524.55 758.253 2523.39C759.419 2522.22 760.903 2521.43 762.519 2521.11C764.134 2520.79 765.809 2520.95 767.33 2521.58C768.852 2522.22 770.152 2523.28 771.067 2524.65C771.982 2526.02 772.47 2527.63 772.47 2529.28C772.467 2531.49 771.588 2533.61 770.024 2535.17C768.46 2536.73 766.34 2537.61 764.13 2537.61ZM764.13 2526.95C763.67 2526.95 763.22 2527.09 762.838 2527.35C762.456 2527.6 762.159 2527.97 761.985 2528.39C761.81 2528.82 761.765 2529.29 761.856 2529.74C761.947 2530.19 762.17 2530.61 762.496 2530.93C762.822 2531.26 763.237 2531.48 763.689 2531.57C764.141 2531.65 764.609 2531.61 765.034 2531.43C765.459 2531.25 765.822 2530.96 766.078 2530.57C766.334 2530.19 766.47 2529.74 766.47 2529.28C766.454 2528.67 766.201 2528.09 765.764 2527.66C765.327 2527.24 764.74 2527 764.13 2527V2526.95Z" fill="black"/>
<path d="M2434.53 670.49C2432.88 670.49 2431.27 670.002 2429.9 669.086C2428.53 668.171 2427.46 666.87 2426.83 665.348C2426.2 663.826 2426.04 662.151 2426.36 660.535C2426.68 658.919 2427.47 657.435 2428.64 656.27C2429.8 655.105 2431.29 654.312 2432.9 653.99C2434.52 653.669 2436.19 653.834 2437.72 654.464C2439.24 655.095 2440.54 656.162 2441.46 657.532C2442.37 658.902 2442.86 660.513 2442.86 662.16C2442.86 664.368 2441.98 666.486 2440.42 668.047C2438.85 669.609 2436.74 670.487 2434.53 670.49ZM2434.53 659.83C2434.07 659.83 2433.62 659.967 2433.23 660.223C2432.85 660.479 2432.55 660.843 2432.38 661.268C2432.2 661.694 2432.15 662.163 2432.24 662.615C2432.33 663.067 2432.56 663.482 2432.88 663.808C2433.21 664.133 2433.62 664.355 2434.07 664.445C2434.53 664.535 2435 664.489 2435.42 664.313C2435.85 664.136 2436.21 663.838 2436.47 663.455C2436.72 663.071 2436.86 662.621 2436.86 662.16C2436.86 661.854 2436.8 661.551 2436.68 661.268C2436.56 660.986 2436.39 660.729 2436.18 660.513C2435.96 660.296 2435.7 660.125 2435.42 660.007C2435.14 659.89 2434.84 659.83 2434.53 659.83Z" fill="black"/>
<path d="M2651 2295.58C2649.35 2295.58 2647.74 2295.09 2646.37 2294.18C2645 2293.26 2643.93 2291.96 2643.3 2290.44C2642.67 2288.92 2642.51 2287.24 2642.83 2285.62C2643.15 2284.01 2643.94 2282.52 2645.11 2281.36C2646.27 2280.19 2647.76 2279.4 2649.37 2279.08C2650.99 2278.76 2652.67 2278.92 2654.19 2279.55C2655.71 2280.18 2657.01 2281.25 2657.93 2282.62C2658.84 2283.99 2659.33 2285.6 2659.33 2287.25C2659.33 2289.46 2658.45 2291.58 2656.89 2293.14C2655.33 2294.7 2653.21 2295.58 2651 2295.58ZM2651 2284.92C2650.54 2284.92 2650.09 2285.06 2649.71 2285.31C2649.32 2285.57 2649.02 2285.93 2648.85 2286.36C2648.67 2286.78 2648.62 2287.25 2648.71 2287.7C2648.8 2288.16 2649.03 2288.57 2649.35 2288.9C2649.68 2289.22 2650.09 2289.44 2650.55 2289.53C2651 2289.62 2651.47 2289.58 2651.89 2289.4C2652.32 2289.23 2652.68 2288.93 2652.94 2288.54C2653.19 2288.16 2653.33 2287.71 2653.33 2287.25C2653.33 2286.63 2653.08 2286.04 2652.65 2285.6C2652.21 2285.17 2651.62 2284.92 2651 2284.92Z" fill="black"/>
<path d="M2823.09 2556.85C2822.46 2556.85 2821.84 2556.65 2821.33 2556.28L2792 2534.92C2791.68 2534.69 2791.41 2534.4 2791.2 2534.06C2791 2533.72 2790.86 2533.35 2790.8 2532.96C2790.74 2532.57 2790.75 2532.17 2790.84 2531.79C2790.94 2531.41 2791.1 2531.04 2791.34 2530.72C2791.57 2530.41 2791.86 2530.14 2792.2 2529.93C2792.53 2529.72 2792.91 2529.59 2793.29 2529.52C2793.68 2529.46 2794.08 2529.48 2794.47 2529.57C2794.85 2529.66 2795.21 2529.83 2795.53 2530.06L2824.88 2551.42C2825.39 2551.79 2825.78 2552.32 2825.97 2552.92C2826.17 2553.52 2826.17 2554.17 2825.97 2554.77C2825.78 2555.38 2825.4 2555.9 2824.88 2556.28C2824.37 2556.65 2823.75 2556.85 2823.12 2556.85H2823.09Z" fill="black"/>
<path d="M718.25 155.84C717.614 155.839 716.994 155.636 716.48 155.26L687.12 133.91C686.792 133.682 686.513 133.39 686.299 133.053C686.085 132.716 685.941 132.339 685.875 131.945C685.808 131.552 685.821 131.148 685.913 130.76C686.004 130.371 686.172 130.004 686.407 129.681C686.642 129.358 686.94 129.086 687.281 128.879C687.623 128.673 688.003 128.536 688.398 128.478C688.793 128.421 689.196 128.442 689.583 128.542C689.969 128.642 690.332 128.818 690.65 129.06L720 150.41C720.514 150.782 720.896 151.306 721.093 151.909C721.29 152.512 721.29 153.162 721.095 153.765C720.899 154.368 720.518 154.894 720.005 155.266C719.492 155.639 718.874 155.84 718.24 155.84H718.25Z" fill="black"/>
<path d="M413.33 1990.39C412.691 1990.39 412.069 1990.19 411.554 1989.81C411.039 1989.43 410.658 1988.9 410.466 1988.29C410.274 1987.68 410.281 1987.03 410.487 1986.42C410.693 1985.82 411.086 1985.3 411.61 1984.93L441.4 1964.18C442.053 1963.75 442.847 1963.59 443.614 1963.74C444.381 1963.89 445.06 1964.33 445.507 1964.97C445.953 1965.61 446.132 1966.4 446.006 1967.17C445.88 1967.94 445.458 1968.64 444.83 1969.1L415 1989.85C414.511 1990.2 413.929 1990.38 413.33 1990.39Z" fill="black"/>
<path d="M2410.3 2684.13C2409.66 2684.13 2409.04 2683.93 2408.52 2683.55C2408.01 2683.17 2407.63 2682.64 2407.44 2682.03C2407.24 2681.42 2407.25 2680.77 2407.46 2680.16C2407.66 2679.56 2408.06 2679.04 2408.58 2678.67L2438.38 2657.92C2439.03 2657.51 2439.82 2657.38 2440.57 2657.53C2441.32 2657.69 2441.99 2658.13 2442.43 2658.76C2442.86 2659.39 2443.04 2660.16 2442.93 2660.92C2442.81 2661.68 2442.41 2662.37 2441.8 2662.84L2412 2683.59C2411.5 2683.94 2410.91 2684.13 2410.3 2684.13Z" fill="black"/>
<path d="M347.72 586.7C347.082 586.698 346.461 586.494 345.948 586.115C345.434 585.737 345.055 585.205 344.864 584.596C344.674 583.988 344.682 583.334 344.888 582.731C345.094 582.127 345.487 581.605 346.01 581.24L375.79 560.49C376.112 560.251 376.479 560.08 376.869 559.985C377.259 559.891 377.664 559.876 378.06 559.941C378.456 560.006 378.834 560.149 379.174 560.363C379.513 560.577 379.806 560.857 380.035 561.186C380.265 561.515 380.426 561.886 380.509 562.279C380.592 562.671 380.596 563.076 380.52 563.47C380.444 563.864 380.29 564.238 380.066 564.572C379.843 564.905 379.555 565.19 379.22 565.41L349.44 586.16C348.936 586.512 348.335 586.7 347.72 586.7Z" fill="black"/>
<path d="M1856.26 263.64C1855.56 263.639 1854.89 263.395 1854.35 262.95C1853.81 262.505 1853.45 261.886 1853.32 261.2C1853.19 260.514 1853.3 259.804 1853.63 259.193C1853.97 258.582 1854.51 258.107 1855.16 257.85L1889 244.57C1889.73 244.302 1890.55 244.331 1891.26 244.652C1891.97 244.973 1892.53 245.56 1892.82 246.288C1893.11 247.016 1893.1 247.827 1892.8 248.548C1892.49 249.27 1891.92 249.845 1891.2 250.15L1857.41 263.43C1857.04 263.575 1856.65 263.646 1856.26 263.64Z" fill="black"/>
<path d="M2617.57 220.65C2617.07 220.65 2616.58 220.525 2616.14 220.285C2615.69 220.046 2615.32 219.7 2615.05 219.28L2595.3 188.82C2594.95 188.159 2594.86 187.391 2595.05 186.667C2595.23 185.943 2595.68 185.315 2596.31 184.906C2596.93 184.497 2597.69 184.336 2598.43 184.455C2599.17 184.574 2599.83 184.964 2600.3 185.55L2620.09 216C2620.3 216.33 2620.45 216.7 2620.52 217.088C2620.59 217.476 2620.59 217.874 2620.5 218.259C2620.42 218.644 2620.26 219.01 2620.04 219.334C2619.82 219.659 2619.53 219.936 2619.2 220.15C2618.72 220.47 2618.15 220.644 2617.57 220.65Z" fill="black"/>
<path d="M256.25 2572.08C255.749 2572.08 255.256 2571.95 254.816 2571.72C254.375 2571.48 254.002 2571.13 253.73 2570.71L234 2540.25C233.66 2539.59 233.576 2538.83 233.766 2538.11C233.956 2537.39 234.406 2536.77 235.028 2536.36C235.65 2535.96 236.401 2535.8 237.135 2535.91C237.868 2536.03 238.533 2536.41 239 2536.99L258.75 2567.45C259.043 2567.9 259.209 2568.43 259.229 2568.97C259.25 2569.5 259.124 2570.04 258.866 2570.51C258.608 2570.99 258.227 2571.38 257.763 2571.66C257.299 2571.93 256.77 2572.08 256.23 2572.08H256.25Z" fill="black"/>
<path d="M2668 1176.86C2667 1176.86 2666.07 1176.86 2665.11 1176.86C2664.72 1176.85 2664.33 1176.77 2663.97 1176.61C2663.6 1176.46 2663.28 1176.23 2663 1175.95C2662.73 1175.66 2662.51 1175.33 2662.37 1174.96C2662.22 1174.6 2662.15 1174.2 2662.16 1173.81C2662.17 1173.42 2662.25 1173.03 2662.41 1172.67C2662.56 1172.3 2662.79 1171.98 2663.07 1171.7C2663.36 1171.43 2663.69 1171.21 2664.06 1171.07C2664.42 1170.92 2664.82 1170.85 2665.21 1170.86C2668.71 1170.92 2672.26 1170.86 2675.76 1170.7C2676.15 1170.68 2676.55 1170.74 2676.92 1170.87C2677.29 1171.01 2677.63 1171.21 2677.92 1171.48C2678.21 1171.75 2678.45 1172.07 2678.62 1172.42C2678.79 1172.78 2678.88 1173.17 2678.9 1173.56C2678.92 1173.95 2678.86 1174.35 2678.73 1174.72C2678.59 1175.09 2678.39 1175.43 2678.12 1175.72C2677.86 1176.01 2677.53 1176.25 2677.18 1176.42C2676.82 1176.59 2676.43 1176.68 2676.04 1176.7C2673.34 1176.8 2670.65 1176.86 2668 1176.86ZM2683.9 1176.15C2683.1 1176.19 2682.33 1175.9 2681.74 1175.37C2681.15 1174.83 2680.8 1174.08 2680.77 1173.28C2680.73 1172.49 2681.01 1171.71 2681.55 1171.12C2682.09 1170.54 2682.83 1170.19 2683.63 1170.15C2689.76 1169.6 2696 1168.73 2702.2 1167.55C2702.59 1167.48 2702.99 1167.48 2703.37 1167.56C2703.76 1167.64 2704.12 1167.8 2704.45 1168.02C2704.78 1168.24 2705.06 1168.52 2705.27 1168.85C2705.49 1169.18 2705.64 1169.55 2705.71 1169.94C2705.78 1170.33 2705.78 1170.73 2705.7 1171.11C2705.62 1171.5 2705.46 1171.86 2705.24 1172.19C2705.02 1172.52 2704.74 1172.79 2704.41 1173.01C2704.08 1173.23 2703.71 1173.38 2703.32 1173.45C2696.93 1174.66 2690.49 1175.56 2684.17 1176.13L2683.9 1176.15ZM2649.74 1175.89H2649.42C2574.57 1167.83 2523.42 1111.32 2502.33 1065.37V1065.27C2498.81 1056.74 2495.09 1046.72 2491.45 1035.64C2477.21 1043.96 2461.46 1049.36 2445.11 1051.54C2433.66 1053.14 2423.05 1052.7 2413.55 1050.23C2412.81 1050.01 2412.18 1049.5 2411.8 1048.82C2411.42 1048.15 2411.32 1047.35 2411.52 1046.6C2411.71 1045.85 2412.19 1045.2 2412.86 1044.8C2413.52 1044.39 2414.31 1044.26 2415.07 1044.43C2423.79 1046.7 2433.61 1047.09 2444.27 1045.6C2460.29 1043.46 2475.71 1038.07 2489.57 1029.75C2469.37 965.35 2453.48 869.22 2492.09 815.2C2509.18 791.28 2525.31 781.36 2540.03 785.71C2560.03 791.61 2571.91 824.51 2573.28 853.95V854.05C2573.92 904.05 2557.28 992.43 2496.71 1032.36C2501.44 1046.9 2505.65 1057.6 2507.85 1062.92C2528.28 1107.43 2577.78 1162.14 2650.1 1169.92C2650.9 1169.96 2651.64 1170.32 2652.17 1170.91C2652.71 1171.5 2652.98 1172.28 2652.94 1173.08C2652.9 1173.88 2652.54 1174.62 2651.95 1175.15C2651.36 1175.69 2650.58 1175.96 2649.78 1175.92L2649.74 1175.89ZM2533.3 790.73C2522.52 790.73 2510.05 800.26 2496.9 818.67C2477.22 846.2 2470.25 889.46 2476.74 943.76C2480.24 971.782 2486.27 999.431 2494.74 1026.37C2552.03 987.37 2567.81 902.37 2567.21 854.15C2565.96 827.51 2555.4 796.5 2538.26 791.44C2536.65 790.968 2534.98 790.729 2533.3 790.73ZM2710.39 1171.91C2709.66 1171.91 2708.95 1171.63 2708.4 1171.14C2707.86 1170.65 2707.51 1169.98 2707.43 1169.25C2707.34 1168.52 2707.53 1167.78 2707.96 1167.18C2708.38 1166.58 2709.01 1166.16 2709.72 1165.99C2715.99 1164.55 2722.35 1162.79 2728.61 1160.77C2729.35 1160.57 2730.15 1160.66 2730.82 1161.03C2731.5 1161.39 2732.01 1162.01 2732.25 1162.74C2732.49 1163.47 2732.43 1164.27 2732.1 1164.96C2731.77 1165.66 2731.18 1166.2 2730.46 1166.47C2724.03 1168.56 2717.46 1170.36 2711.06 1171.83C2710.84 1171.89 2710.62 1171.91 2710.39 1171.91ZM2736.18 1164.36C2735.47 1164.36 2734.79 1164.11 2734.24 1163.65C2733.7 1163.2 2733.34 1162.57 2733.22 1161.87C2733.1 1161.17 2733.23 1160.45 2733.59 1159.84C2733.95 1159.23 2734.51 1158.76 2735.18 1158.53C2748.72 1153.67 2761.87 1147.78 2774.52 1140.91C2774.87 1140.7 2775.25 1140.57 2775.65 1140.52C2776.06 1140.47 2776.46 1140.5 2776.85 1140.6C2777.24 1140.71 2777.6 1140.9 2777.92 1141.15C2778.23 1141.4 2778.5 1141.72 2778.69 1142.07C2778.88 1142.43 2779 1142.82 2779.03 1143.22C2779.07 1143.62 2779.02 1144.03 2778.9 1144.41C2778.78 1144.8 2778.58 1145.15 2778.31 1145.46C2778.05 1145.76 2777.72 1146.01 2777.36 1146.19C2764.44 1153.2 2751.01 1159.22 2737.18 1164.19C2736.86 1164.3 2736.52 1164.36 2736.18 1164.36ZM2408.18 1048.36C2407.84 1048.35 2407.5 1048.29 2407.18 1048.17C2400.74 1045.74 2394.75 1042.26 2389.46 1037.87C2388.89 1037.35 2388.53 1036.63 2388.48 1035.86C2388.42 1035.09 2388.66 1034.32 2389.16 1033.73C2389.65 1033.13 2390.35 1032.75 2391.12 1032.66C2391.89 1032.57 2392.66 1032.78 2393.28 1033.25C2398.06 1037.22 2403.47 1040.36 2409.28 1042.55C2409.94 1042.8 2410.49 1043.27 2410.84 1043.88C2411.19 1044.49 2411.31 1045.2 2411.18 1045.89C2411.06 1046.59 2410.69 1047.21 2410.15 1047.66C2409.61 1048.11 2408.93 1048.36 2408.23 1048.36H2408.18ZM2384.67 1032.18C2384.25 1032.18 2383.84 1032.09 2383.45 1031.92C2383.07 1031.74 2382.73 1031.49 2382.45 1031.18C2378.48 1026.77 2374.99 1021.95 2372.04 1016.8C2371.84 1016.46 2371.72 1016.08 2371.66 1015.69C2371.61 1015.3 2371.64 1014.9 2371.74 1014.52C2371.84 1014.14 2372.02 1013.78 2372.26 1013.47C2372.5 1013.16 2372.8 1012.9 2373.14 1012.7C2373.48 1012.5 2373.86 1012.38 2374.25 1012.32C2374.64 1012.27 2375.04 1012.3 2375.42 1012.4C2375.8 1012.5 2376.16 1012.68 2376.47 1012.92C2376.78 1013.16 2377.04 1013.46 2377.24 1013.8C2379.98 1018.57 2383.21 1023.05 2386.89 1027.14C2387.28 1027.57 2387.53 1028.1 2387.62 1028.67C2387.71 1029.24 2387.63 1029.83 2387.4 1030.36C2387.16 1030.89 2386.78 1031.33 2386.3 1031.65C2385.81 1031.97 2385.25 1032.14 2384.67 1032.14V1032.18ZM2367.9 1004.35C2367.3 1004.35 2366.72 1004.17 2366.22 1003.83C2365.73 1003.5 2365.34 1003.02 2365.12 1002.47C2355.96 979.69 2351.37 949.84 2351.46 913.73C2351.65 884.402 2354.51 855.151 2359.99 826.34C2360.14 825.557 2360.59 824.867 2361.25 824.419C2361.91 823.972 2362.72 823.805 2363.51 823.955C2364.29 824.105 2364.98 824.559 2365.43 825.218C2365.87 825.878 2366.04 826.687 2365.89 827.47C2356.22 877.61 2351.68 952.94 2370.68 1000.23C2370.86 1000.68 2370.93 1001.18 2370.88 1001.67C2370.83 1002.15 2370.66 1002.62 2370.38 1003.03C2370.11 1003.43 2369.74 1003.77 2369.31 1004C2368.87 1004.23 2368.39 1004.35 2367.9 1004.35Z" fill="black"/>
<path d="M754.82 2412.14H753.67C752.874 2412.14 752.111 2411.82 751.548 2411.26C750.986 2410.7 750.67 2409.94 750.67 2409.14C750.67 2408.34 750.986 2407.58 751.548 2407.02C752.111 2406.46 752.874 2406.14 753.67 2406.14C755.24 2406.14 756.78 2406.14 758.25 2406.07C758.864 2406.04 759.472 2406.21 759.99 2406.54C760.461 2406.14 761.044 2405.9 761.66 2405.84C764.23 2405.61 766.94 2405.24 769.72 2404.72C770.307 2404.61 770.913 2404.68 771.46 2404.92C771.866 2404.47 772.401 2404.17 772.99 2404.04C775.66 2403.43 778.42 2402.66 781.21 2401.77C781.731 2401.89 782.274 2401.85 782.778 2401.68C783.282 2401.5 783.726 2401.19 784.06 2400.77C789.972 2398.64 795.715 2396.07 801.24 2393.08C801.588 2392.87 801.973 2392.74 802.374 2392.69C802.774 2392.64 803.181 2392.67 803.57 2392.77C803.959 2392.88 804.323 2393.07 804.638 2393.32C804.953 2393.57 805.215 2393.89 805.406 2394.24C805.597 2394.6 805.715 2394.99 805.752 2395.39C805.788 2395.79 805.743 2396.2 805.619 2396.58C805.496 2396.97 805.295 2397.32 805.031 2397.63C804.766 2397.93 804.443 2398.18 804.08 2398.36C798.292 2401.5 792.275 2404.2 786.08 2406.43C785.536 2406.32 784.972 2406.35 784.445 2406.52C783.918 2406.7 783.447 2407.01 783.08 2407.43C780.08 2408.43 777.19 2409.19 774.35 2409.84C773.761 2409.59 773.111 2409.53 772.487 2409.66C771.862 2409.79 771.291 2410.11 770.85 2410.57C767.85 2411.12 764.98 2411.52 762.22 2411.77C761.562 2411.83 760.903 2411.67 760.35 2411.31C759.845 2411.74 759.212 2411.99 758.55 2412.02C757.37 2412.11 756.11 2412.14 754.82 2412.14ZM746.88 2411.71H746.56C712.74 2408.06 689.64 2382.57 680.14 2361.84V2361.74C678.78 2358.43 677.35 2354.63 675.94 2350.45C669.917 2353.66 663.367 2355.77 656.6 2356.68C651.737 2357.45 646.771 2357.24 641.99 2356.07C641.59 2355.7 641.114 2355.43 640.595 2355.26C640.076 2355.1 639.528 2355.05 638.99 2355.13C635.967 2353.99 633.155 2352.35 630.67 2350.29C630.353 2350.03 630.094 2349.7 629.909 2349.34C629.723 2348.97 629.614 2348.57 629.59 2348.16C629.179 2348.15 628.774 2348.06 628.401 2347.88C628.028 2347.71 627.694 2347.47 627.42 2347.16C625.584 2345.12 623.971 2342.89 622.61 2340.51C622.251 2339.82 622.171 2339.03 622.387 2338.28C622.602 2337.54 623.097 2336.91 623.767 2336.52C624.437 2336.13 625.23 2336.02 625.982 2336.21C626.733 2336.39 627.385 2336.86 627.8 2337.51C628.955 2339.52 630.316 2341.4 631.86 2343.12C632.323 2343.62 632.595 2344.28 632.63 2344.96C633.313 2344.97 633.973 2345.21 634.5 2345.65C636.469 2347.29 638.7 2348.59 641.1 2349.49C641.509 2349.64 641.878 2349.88 642.18 2350.2C642.608 2350.12 643.049 2350.13 643.47 2350.25C647.49 2351.21 651.658 2351.37 655.74 2350.72C662.172 2349.86 668.381 2347.77 674.03 2344.58C665.19 2315.75 658.58 2273.51 675.77 2249.47C683.77 2238.24 691.54 2233.63 698.77 2235.79C708.82 2238.79 714.06 2254.31 714.67 2267.5V2267.6C714.95 2289.81 707.62 2328.83 681.1 2347.21C683 2352.94 684.67 2357.21 685.58 2359.37C694.44 2378.66 715.87 2402.37 747.16 2405.73C747.554 2405.75 747.94 2405.85 748.296 2406.02C748.652 2406.19 748.97 2406.43 749.234 2406.72C749.498 2407.02 749.701 2407.36 749.833 2407.73C749.964 2408.1 750.021 2408.5 750 2408.89C749.979 2409.28 749.88 2409.67 749.71 2410.03C749.54 2410.38 749.301 2410.7 749.008 2410.96C748.714 2411.23 748.372 2411.43 748 2411.56C747.628 2411.69 747.234 2411.75 746.84 2411.73L746.88 2411.71ZM695.4 2241.3C691.23 2241.3 686.06 2245.3 680.63 2252.95C672.17 2264.79 669.19 2283.53 672.01 2307.13C673.448 2318.65 675.863 2330.02 679.23 2341.13C702.48 2323.75 708.96 2288.13 708.71 2267.7C708.17 2256.34 703.71 2243.45 697.1 2241.51C696.546 2241.36 695.974 2241.29 695.4 2241.3ZM622.2 2335.83C621.602 2335.83 621.018 2335.65 620.522 2335.31C620.027 2334.98 619.643 2334.5 619.42 2333.95C610.67 2312.18 612.42 2278.95 617.06 2255.07C617.129 2254.68 617.276 2254.3 617.492 2253.97C617.707 2253.64 617.987 2253.35 618.315 2253.12C618.643 2252.9 619.012 2252.74 619.402 2252.66C619.791 2252.58 620.193 2252.57 620.583 2252.65C620.974 2252.73 621.346 2252.88 621.677 2253.1C622.008 2253.32 622.292 2253.6 622.512 2253.93C622.732 2254.27 622.884 2254.64 622.959 2255.03C623.034 2255.42 623.031 2255.82 622.95 2256.21C618.72 2278.21 616.71 2311.13 624.95 2331.71C625.245 2332.45 625.236 2333.27 624.922 2334.01C624.609 2334.74 624.018 2335.31 623.28 2335.61C622.937 2335.75 622.57 2335.83 622.2 2335.83Z" fill="#FEDA00"/>
<path d="M2793.73 2767.71H504.93C504.134 2767.71 503.371 2767.39 502.808 2766.83C502.246 2766.27 501.93 2765.51 501.93 2764.71C501.93 2763.91 502.246 2763.15 502.808 2762.59C503.371 2762.03 504.134 2761.71 504.93 2761.71H2793.73C2794.53 2761.71 2795.29 2762.03 2795.85 2762.59C2796.41 2763.15 2796.73 2763.91 2796.73 2764.71C2796.73 2765.51 2796.41 2766.27 2795.85 2766.83C2795.29 2767.39 2794.53 2767.71 2793.73 2767.71Z" fill="black"/>
<path d="M1494.9 2763.7H1011.16V2640.62H1494.9V2763.7ZM1017.16 2757.7H1488.9V2646.62H1017.16V2757.7Z" fill="black"/>
<path d="M1257 2637.49L1254.41 2633.12C1253 2630.74 1251.18 2627.64 1248.95 2623.86C1244.09 2615.59 1235.77 2601.42 1223.83 2580.86C1204.05 2546.86 1172.43 2491.97 1134.12 2424.01C1066.39 2303.88 964.19 2118.64 861.91 1918.37C746.98 1693.37 655.4 1495.66 589.72 1330.78C507.66 1124.78 466.05 969.78 466.05 870.18C465.68 766.076 485.865 662.924 525.447 566.638C565.029 470.352 623.231 382.828 696.712 309.084C770.194 235.34 857.511 176.828 953.656 136.904C1049.8 96.9793 1152.88 76.4277 1256.98 76.4277C1361.09 76.4277 1464.17 96.9793 1560.31 136.904C1656.46 176.828 1743.78 235.34 1817.26 309.084C1890.74 382.828 1948.94 470.352 1988.52 566.638C2028.11 662.924 2048.29 766.076 2047.92 870.18C2047.92 969.83 2006.31 1124.79 1924.26 1330.78C1858.56 1495.68 1766.98 1693.37 1652.06 1918.37C1549.76 2118.68 1447.57 2303.9 1379.85 2424.01C1349.3 2478.22 1319.12 2531.01 1290.15 2580.86C1280.66 2597.19 1271.73 2612.46 1265.02 2623.86L1257 2637.49ZM1257 85.2301C1153.9 85.1472 1051.79 105.394 956.523 144.812C861.254 184.23 774.692 242.045 701.789 314.951C628.887 387.856 571.075 474.42 531.66 569.691C492.246 664.961 472.003 767.068 472.09 870.17C472.09 969.04 513.55 1123.26 595.33 1328.55C660.95 1493.25 752.45 1690.78 867.33 1915.64C969.57 2115.81 1071.73 2300.98 1139.42 2421.06C1177.72 2488.99 1209.32 2543.81 1229.09 2577.83C1241.03 2598.39 1249.34 2612.55 1254.21 2620.83L1257.07 2625.69L1259.92 2620.83C1266.64 2609.43 1275.56 2594.16 1285.05 2577.83C1314.05 2527.99 1344.16 2475.24 1374.71 2421.06C1442.39 2301 1544.54 2115.85 1646.8 1915.64C1761.64 1690.8 1853.14 1493.27 1918.8 1328.55C2000.5 1123.27 2042 969.05 2042 870.17C2042.08 767.062 2021.84 664.948 1982.42 569.673C1942.99 474.398 1885.17 387.831 1812.26 314.925C1739.35 242.019 1652.78 184.205 1557.5 144.791C1462.22 105.378 1360.11 85.138 1257 85.2301Z" fill="black"/>
<path d="M1296.39 1190.78C1251.03 1190.76 1206.32 1179.95 1165.96 1159.25C1125.6 1138.54 1090.74 1108.53 1064.26 1071.7C1037.79 1034.86 1020.46 992.254 1013.7 947.397C1006.94 902.541 1010.94 856.72 1025.39 813.718C1039.83 770.716 1064.3 731.766 1096.76 700.085C1129.23 668.404 1168.77 644.9 1212.11 631.515C1255.46 618.129 1301.36 615.246 1346.04 623.103C1390.72 630.959 1432.88 649.331 1469.06 676.7C1517.61 713.626 1553.2 765.004 1570.7 823.44L1564.94 825.15C1547.82 767.934 1512.97 717.629 1465.43 681.48C1430.01 654.685 1388.73 636.7 1344.98 629.01C1301.24 621.32 1256.3 624.145 1213.86 637.252C1171.43 650.36 1132.72 673.374 1100.94 704.393C1069.15 735.413 1045.2 773.549 1031.06 815.651C1016.93 857.754 1013.01 902.615 1019.63 946.532C1026.25 990.448 1043.23 1032.16 1069.15 1068.22C1095.08 1104.28 1129.21 1133.66 1168.73 1153.93C1208.24 1174.19 1252.02 1184.77 1296.43 1184.78C1423.58 1184.78 1534.95 1099.01 1567.27 976.2L1573.07 977.72C1540 1103.17 1426.26 1190.78 1296.39 1190.78Z" fill="black"/>
<path d="M1334 2764.71H1879.58L1865.42 2560.35L1676.81 2540.06L1354.42 2709.27L1334 2764.71Z" fill="black"/>
<path d="M1684.12 2554.79L1677.02 2546.5C1671.1 2539.59 1619.41 2478.43 1626.25 2457.89C1626.82 2456.15 1627.85 2454.6 1629.24 2453.4C1630.63 2452.2 1632.31 2451.41 1634.12 2451.1C1636.21 2450.66 1638.37 2450.67 1640.46 2451.12C1642.54 2451.57 1644.51 2452.45 1646.24 2453.71C1654.46 2459.2 1662.24 2472.59 1669.46 2493.49C1674.98 2510 1679.26 2526.89 1682.26 2544.04L1684.12 2554.79ZM1637.24 2456.79C1636.63 2456.79 1636.02 2456.85 1635.43 2456.99C1632.99 2457.54 1632.28 2458.79 1631.94 2459.82C1629.19 2468.09 1642.94 2495.73 1674.19 2533.82C1667.51 2501.7 1655.72 2467.3 1642.91 2458.73C1641.26 2457.52 1639.29 2456.83 1637.24 2456.76V2456.79Z" fill="black"/>
<path d="M1686.5 2552.27L1676.82 2547.21C1668.76 2542.99 1598.04 2505.38 1596.82 2483.78C1596.7 2481.95 1597.08 2480.12 1597.92 2478.49C1598.77 2476.86 1600.05 2475.5 1601.62 2474.55C1603.4 2473.37 1605.4 2472.57 1607.51 2472.22C1609.61 2471.86 1611.77 2471.95 1613.84 2472.48C1623.5 2474.53 1635.73 2484.06 1650.17 2500.79C1661.42 2514.07 1671.67 2528.17 1680.81 2542.98L1686.5 2552.27ZM1609.85 2478.05C1608.1 2478.02 1606.39 2478.53 1604.95 2479.51C1602.89 2480.92 1602.69 2482.34 1602.76 2483.43C1603.27 2492.13 1626.28 2512.7 1669.47 2536.43C1651.34 2509.08 1627.62 2481.52 1612.54 2478.32C1611.65 2478.14 1610.75 2478.05 1609.85 2478.05Z" fill="black"/>
<path d="M1570.53 2550.31C1567.42 2550.31 1564.32 2550 1561.27 2549.38C1546.41 2546.38 1535.49 2536.28 1530.27 2527.86C1529.89 2527.19 1529.79 2526.4 1529.98 2525.65C1530.17 2524.9 1530.64 2524.26 1531.29 2523.85C1531.95 2523.44 1532.73 2523.3 1533.49 2523.45C1534.24 2523.61 1534.91 2524.05 1535.35 2524.68C1541.57 2534.29 1551.33 2541.06 1562.52 2543.5C1575.21 2546.09 1588.75 2542.44 1602.74 2532.66C1618.2 2521.86 1633.29 2517.9 1647.58 2520.89C1653.83 2522.29 1659.74 2524.91 1664.98 2528.6C1670.21 2532.29 1674.66 2536.98 1678.08 2542.4C1678.46 2543.08 1678.56 2543.88 1678.36 2544.63C1678.17 2545.38 1677.69 2546.02 1677.02 2546.43C1676.36 2546.83 1675.57 2546.96 1674.81 2546.79C1674.05 2546.62 1673.39 2546.17 1672.96 2545.52C1669.98 2540.8 1666.1 2536.71 1661.53 2533.49C1656.97 2530.27 1651.81 2527.98 1646.36 2526.76C1633.74 2524.13 1620.23 2527.76 1606.18 2537.58C1594 2546.05 1582.07 2550.31 1570.53 2550.31Z" fill="black"/>
<path d="M1862.48 2567.1C1861.7 2567.1 1860.96 2566.8 1860.4 2566.26C1859.84 2565.72 1859.51 2564.99 1859.48 2564.21L1855.77 2465.46L1686.66 2468.66L1680.84 2550.9C1680.78 2551.7 1680.42 2552.44 1679.81 2552.96C1679.21 2553.48 1678.43 2553.75 1677.63 2553.69C1676.83 2553.63 1676.09 2553.26 1675.57 2552.66C1675.05 2552.06 1674.78 2551.28 1674.84 2550.48L1680.62 2468.78L1575.73 2470.78L1600 2349.34C1600 2349.3 1600 2349.26 1600 2349.22L1626.44 2216.63C1626.62 2215.87 1627.08 2215.21 1627.74 2214.79C1628.39 2214.36 1629.19 2214.21 1629.95 2214.37C1630.72 2214.52 1631.39 2214.97 1631.83 2215.61C1632.28 2216.25 1632.45 2217.04 1632.32 2217.81L1606.6 2346.81L1773.72 2343.24L1795.35 2199.16C1795.47 2198.37 1795.9 2197.66 1796.54 2197.19C1797.18 2196.72 1797.98 2196.52 1798.77 2196.64C1799.56 2196.76 1800.27 2197.19 1800.74 2197.83C1801.21 2198.47 1801.41 2199.27 1801.29 2200.06L1779.8 2343.11L1863.63 2341.31H1863.69C1864.49 2341.3 1865.25 2341.61 1865.82 2342.17C1866.39 2342.72 1866.71 2343.48 1866.72 2344.28C1866.73 2345.08 1866.42 2345.84 1865.86 2346.41C1865.31 2346.98 1864.55 2347.3 1863.75 2347.31L1776.43 2349.18H1776.32L1605.4 2352.84L1583.1 2464.64L1965 2457.42V2189.3C1965 2188.5 1965.32 2187.74 1965.88 2187.18C1966.44 2186.62 1967.2 2186.3 1968 2186.3C1968.8 2186.3 1969.56 2186.62 1970.12 2187.18C1970.68 2187.74 1971 2188.5 1971 2189.3V2463.3L1861.78 2465.37L1865.49 2564.01C1865.51 2564.4 1865.44 2564.8 1865.3 2565.17C1865.17 2565.54 1864.96 2565.88 1864.69 2566.16C1864.42 2566.45 1864.1 2566.69 1863.74 2566.85C1863.38 2567.01 1862.99 2567.11 1862.6 2567.12L1862.48 2567.1Z" fill="black"/>
<path d="M2683 2764.71H2137.41L2151.57 2560.35L2340.18 2540.06L2662.57 2709.27L2683 2764.71Z" fill="black"/>
<path d="M2332.83 2554.79L2334.69 2544.04C2337.69 2526.89 2341.97 2510 2347.49 2493.49C2354.68 2472.59 2362.49 2459.2 2370.71 2453.71C2372.43 2452.45 2374.4 2451.57 2376.49 2451.12C2378.57 2450.67 2380.73 2450.66 2382.82 2451.1C2384.63 2451.41 2386.32 2452.2 2387.71 2453.4C2389.1 2454.59 2390.14 2456.15 2390.71 2457.89C2397.54 2478.43 2345.85 2539.59 2339.93 2546.5L2332.83 2554.79ZM2379.71 2456.79C2377.67 2456.85 2375.69 2457.53 2374.04 2458.73C2367.04 2463.41 2359.82 2476.12 2353.16 2495.48C2348.94 2508.03 2345.47 2520.83 2342.78 2533.8C2374.05 2495.72 2387.78 2468.09 2385.01 2459.8C2384.67 2458.8 2383.96 2457.52 2381.52 2456.97C2380.93 2456.83 2380.32 2456.76 2379.71 2456.76V2456.79Z" fill="black"/>
<path d="M2330.46 2552.27L2336.19 2542.98C2345.33 2528.17 2355.58 2514.07 2366.83 2500.79C2381.27 2484.06 2393.5 2474.53 2403.16 2472.48C2405.23 2471.95 2407.38 2471.86 2409.49 2472.22C2411.59 2472.57 2413.6 2473.37 2415.38 2474.55C2416.94 2475.51 2418.22 2476.87 2419.06 2478.5C2419.91 2480.12 2420.3 2481.95 2420.18 2483.78C2418.9 2505.39 2348.18 2542.99 2340.18 2547.21L2330.46 2552.27ZM2407.1 2478.05C2406.2 2478.06 2405.29 2478.16 2404.41 2478.35C2389.33 2481.55 2365.61 2509.12 2347.48 2536.46C2390.67 2512.71 2413.68 2492.13 2414.19 2483.46C2414.26 2482.37 2414.06 2480.95 2412 2479.54C2410.56 2478.55 2408.85 2478.03 2407.1 2478.05Z" fill="black"/>
<path d="M2446.42 2550.31C2434.88 2550.31 2422.95 2546.05 2410.82 2537.58C2396.82 2527.77 2383.26 2524.13 2370.66 2526.76C2365.2 2527.98 2360.04 2530.27 2355.48 2533.49C2350.91 2536.71 2347.02 2540.8 2344.04 2545.53C2343.62 2546.21 2342.95 2546.69 2342.18 2546.88C2341.41 2547.07 2340.59 2546.94 2339.91 2546.52C2339.23 2546.1 2338.74 2545.43 2338.56 2544.66C2338.37 2543.89 2338.5 2543.07 2338.92 2542.39C2344.05 2534.01 2354.77 2523.95 2369.43 2520.89C2383.73 2517.89 2398.8 2521.89 2414.26 2532.66C2428.26 2542.44 2441.79 2546.09 2454.48 2543.5C2465.67 2541.06 2475.43 2534.29 2481.65 2524.68C2481.85 2524.33 2482.12 2524.02 2482.44 2523.77C2482.76 2523.52 2483.13 2523.34 2483.52 2523.24C2483.92 2523.14 2484.33 2523.12 2484.73 2523.19C2485.13 2523.25 2485.51 2523.39 2485.86 2523.61C2486.2 2523.82 2486.5 2524.1 2486.73 2524.44C2486.96 2524.77 2487.12 2525.15 2487.2 2525.55C2487.29 2525.94 2487.29 2526.35 2487.2 2526.75C2487.12 2527.15 2486.96 2527.53 2486.73 2527.86C2479.63 2538.85 2468.47 2546.59 2455.68 2549.38C2452.63 2550 2449.53 2550.31 2446.42 2550.31Z" fill="black"/>
<path d="M2155.13 2570.63H2155C2154.61 2570.62 2154.22 2570.53 2153.86 2570.37C2153.5 2570.21 2153.17 2569.98 2152.9 2569.69C2152.63 2569.4 2152.42 2569.06 2152.28 2568.7C2152.14 2568.33 2152.08 2567.93 2152.09 2567.54L2155.16 2465.35L2046 2463.28V2189.28C2046 2188.48 2046.32 2187.72 2046.88 2187.16C2047.44 2186.6 2048.2 2186.28 2049 2186.28C2049.8 2186.28 2050.56 2186.6 2051.12 2187.16C2051.68 2187.72 2052 2188.48 2052 2189.28V2457.38L2433.9 2464.6L2411.61 2352.8L2240.68 2349.14H2240.57L2153.25 2347.27C2152.45 2347.26 2151.69 2346.94 2151.14 2346.37C2150.58 2345.8 2150.27 2345.04 2150.28 2344.24C2150.29 2343.44 2150.61 2342.68 2151.18 2342.13C2151.75 2341.57 2152.51 2341.26 2153.31 2341.27H2153.37L2237.15 2343.06L2210.56 2178.78C2210.43 2178 2210.61 2177.19 2211.07 2176.54C2211.53 2175.89 2212.23 2175.45 2213.02 2175.32C2213.81 2175.19 2214.61 2175.37 2215.26 2175.83C2215.91 2176.29 2216.35 2177 2216.48 2177.78L2243.25 2343.15L2410.36 2346.73L2369 2152.52C2368.89 2151.76 2369.06 2150.99 2369.5 2150.36C2369.94 2149.73 2370.6 2149.29 2371.35 2149.14C2372.09 2148.98 2372.87 2149.11 2373.53 2149.51C2374.18 2149.91 2374.66 2150.54 2374.86 2151.28L2416.93 2349.18V2349.34L2441.14 2470.76L2336.25 2468.76L2342.03 2550.46C2342.09 2551.26 2341.82 2552.04 2341.3 2552.64C2340.78 2553.24 2340.04 2553.61 2339.24 2553.67C2338.44 2553.73 2337.66 2553.46 2337.06 2552.94C2336.46 2552.42 2336.09 2551.68 2336.03 2550.88L2330.21 2468.64L2161.12 2465.44L2158.05 2567.7C2158.03 2568.47 2157.72 2569.2 2157.18 2569.75C2156.63 2570.29 2155.9 2570.61 2155.13 2570.63Z" fill="black"/>
<path d="M1395.17 1073.5L1368.27 996.42L1480.05 923.91L1457.38 816.46C1454.92 806.77 1458.95 796.99 1466.77 793.71C1469.29 792.66 1477.17 790.47 1485.4 799.44C1487.4 791.6 1492.4 785.54 1498.69 783.96C1501.69 783.2 1508.69 782.72 1515.52 790.96C1517.33 784.75 1521.22 780.3 1526.42 778.96C1533.97 776.96 1542 781.96 1547.91 792.39C1553.55 802.31 1562.01 829.95 1569.81 855.98L1560.33 799.76C1558.91 790.12 1564.59 778.5 1575.33 776.49C1582.73 775.11 1591.86 779.14 1595.33 794.58L1595.41 794.91V795.24C1595.65 799.24 1609.94 876.45 1619.48 927.33L1619.76 928.85L1538.14 1013.49V1027.86H1532.14V1011L1613.3 926.84C1608.8 902.84 1590.4 804.45 1589.45 795.68C1587.25 786.19 1582.37 781.21 1576.45 782.32C1570.53 783.43 1565.04 790.32 1566.29 798.76L1583.29 899.55L1577.5 901.03C1574.4 892.09 1570.3 878.37 1565.96 863.85C1557.77 836.46 1548.49 805.41 1542.73 795.29C1538.25 787.4 1532.73 783.44 1528 784.69C1523.48 785.89 1520.45 791.69 1520.45 799.2L1514.8 800.61C1510.46 792.48 1505.14 788.53 1500.19 789.77C1494.65 791.16 1490.47 798.67 1490.47 807.23V818L1484.9 808.78C1480.02 800.71 1474.13 797.14 1469.13 799.24C1464.72 801.09 1461.32 807.5 1463.25 815.03V815.15L1486.78 926.69L1375.5 998.88L1400.84 1071.51L1395.17 1073.5Z" fill="black"/>
<path d="M1511.5 907.75C1510.83 907.75 1510.18 907.527 1509.65 907.115C1509.13 906.704 1508.75 906.128 1508.59 905.48L1483.75 807.25C1483.65 806.868 1483.63 806.47 1483.69 806.08C1483.75 805.69 1483.88 805.315 1484.08 804.977C1484.28 804.638 1484.55 804.343 1484.87 804.108C1485.18 803.872 1485.54 803.701 1485.92 803.605C1486.31 803.508 1486.7 803.488 1487.09 803.545C1487.48 803.602 1487.86 803.735 1488.2 803.937C1488.54 804.139 1488.83 804.406 1489.07 804.722C1489.3 805.038 1489.47 805.398 1489.57 805.78L1514.41 904C1514.51 904.382 1514.53 904.78 1514.47 905.17C1514.42 905.56 1514.28 905.936 1514.08 906.275C1513.88 906.614 1513.61 906.91 1513.3 907.146C1512.98 907.382 1512.62 907.553 1512.24 907.65C1512 907.712 1511.75 907.746 1511.5 907.75ZM1545.13 897.05C1544.48 897.049 1543.85 896.837 1543.33 896.446C1542.81 896.054 1542.43 895.505 1542.25 894.88L1513.59 796.66C1513.48 796.282 1513.44 795.885 1513.49 795.494C1513.53 795.102 1513.65 794.723 1513.84 794.377C1514.03 794.032 1514.28 793.727 1514.59 793.48C1514.9 793.234 1515.25 793.05 1515.63 792.94C1516.01 792.83 1516.4 792.795 1516.8 792.838C1517.19 792.88 1517.57 793 1517.91 793.189C1518.26 793.379 1518.56 793.634 1518.81 793.942C1519.06 794.249 1519.24 794.602 1519.35 794.98L1548 893.2C1548.22 893.958 1548.14 894.775 1547.77 895.471C1547.39 896.168 1546.76 896.689 1546 896.92C1545.72 897.01 1545.42 897.054 1545.13 897.05Z" fill="black"/>
<path d="M1954.54 1196.18C1946.47 1196.22 1938.5 1194.35 1931.3 1190.7C1914.96 1182.38 1904.08 1165.26 1901.43 1143.7L1901.33 1142.87L1900.5 1142.81C1895.38 1142.39 1890.28 1141.69 1885.24 1140.71L1878.51 1139.47L1883.98 1135.36C1894.21 1127.76 1901.67 1117.01 1905.2 1104.76C1907.03 1098.79 1909.37 1092.99 1912.2 1087.42C1922.32 1067.53 1937.78 1051.87 1955.72 1043.32C1973.66 1034.77 1991.72 1034.38 2006.9 1042.09C2022.08 1049.8 2032.39 1064.75 2036.03 1084.2C2039.67 1103.65 2036.1 1125.46 2026.03 1145.34C2015.96 1165.22 2000.44 1180.9 1982.51 1189.44C1973.81 1193.74 1964.25 1196.05 1954.54 1196.18ZM1892.74 1135.92C1895.88 1136.39 1898.67 1136.71 1900.9 1136.86L1906.67 1137.24L1907.39 1142.99C1909.79 1162.51 1919.49 1177.99 1934.02 1185.36C1947.48 1192.2 1963.77 1191.74 1979.91 1184.05C1996.65 1176.05 2011.13 1161.37 2020.67 1142.65C2030.21 1123.93 2033.56 1103.59 2030.16 1085.33C2026.88 1067.76 2017.66 1054.33 2004.16 1047.46C1990.66 1040.59 1974.41 1041.08 1958.28 1048.77C1941.52 1056.77 1927.05 1071.45 1917.52 1090.17C1914.84 1095.43 1912.62 1100.91 1910.89 1106.55C1907.63 1117.81 1901.35 1127.97 1892.74 1135.92Z" fill="black"/>
<path d="M1952.92 1104.06C1952.14 1104.06 1951.38 1103.76 1950.82 1103.21C1946.22 1098.71 1934.67 1092.68 1923.92 1102.04C1923.63 1102.32 1923.28 1102.53 1922.9 1102.67C1922.52 1102.81 1922.12 1102.87 1921.72 1102.85C1921.31 1102.83 1920.92 1102.72 1920.56 1102.55C1920.2 1102.37 1919.87 1102.13 1919.61 1101.82C1919.34 1101.52 1919.14 1101.16 1919.02 1100.78C1918.89 1100.4 1918.85 1099.99 1918.88 1099.59C1918.92 1099.19 1919.03 1098.8 1919.22 1098.44C1919.41 1098.09 1919.67 1097.77 1919.98 1097.52C1926.12 1092.17 1941.35 1085.52 1954.98 1098.91C1955.41 1099.33 1955.7 1099.86 1955.82 1100.45C1955.95 1101.03 1955.89 1101.64 1955.67 1102.19C1955.44 1102.75 1955.05 1103.22 1954.56 1103.55C1954.06 1103.88 1953.48 1104.06 1952.88 1104.06H1952.92Z" fill="black"/>
<path d="M1920 1169.83C1919.31 1169.83 1918.61 1169.79 1917.92 1169.71C1917.53 1169.66 1917.15 1169.53 1916.8 1169.34C1916.46 1169.14 1916.15 1168.88 1915.91 1168.56C1915.42 1167.93 1915.2 1167.13 1915.3 1166.33C1915.4 1165.53 1915.81 1164.81 1916.45 1164.32C1917.08 1163.83 1917.88 1163.61 1918.68 1163.71C1922.03 1164.14 1929.46 1163.2 1933.62 1156.59C1934.04 1155.92 1934.72 1155.44 1935.5 1155.26C1936.27 1155.09 1937.09 1155.23 1937.76 1155.65C1938.43 1156.07 1938.91 1156.75 1939.09 1157.53C1939.26 1158.3 1939.12 1159.12 1938.7 1159.79C1933.71 1167.81 1925.23 1169.83 1920 1169.83Z" fill="black"/>
<path d="M1922.5 1120.09C1921.94 1120.09 1921.39 1119.93 1920.91 1119.63C1920.43 1119.33 1920.05 1118.91 1919.8 1118.4C1919.56 1117.9 1919.46 1117.33 1919.52 1116.77C1919.58 1116.21 1919.79 1115.68 1920.14 1115.24C1923.36 1111.15 1929.31 1106.71 1936.36 1106.53C1942.41 1106.39 1948.08 1109.27 1953.18 1115.12C1953.67 1115.72 1953.91 1116.49 1953.84 1117.27C1953.77 1118.04 1953.41 1118.76 1952.82 1119.27C1952.24 1119.78 1951.47 1120.04 1950.7 1120.01C1949.92 1119.97 1949.19 1119.63 1948.66 1119.06C1944.79 1114.62 1940.73 1112.42 1936.51 1112.53C1931.51 1112.66 1927.12 1116.06 1924.86 1118.94C1924.58 1119.3 1924.22 1119.59 1923.81 1119.79C1923.4 1119.99 1922.96 1120.09 1922.5 1120.09Z" fill="black"/>
<path d="M1936.71 1122.18C1939.92 1122.18 1942.52 1119.58 1942.52 1116.37C1942.52 1113.16 1939.92 1110.56 1936.71 1110.56C1933.5 1110.56 1930.9 1113.16 1930.9 1116.37C1930.9 1119.58 1933.5 1122.18 1936.71 1122.18Z" fill="black"/>
<path d="M1974.85 1140.31C1974.31 1140.31 1973.79 1140.17 1973.32 1139.9C1972.86 1139.63 1972.48 1139.24 1972.22 1138.77C1971.96 1138.3 1971.83 1137.77 1971.84 1137.23C1971.86 1136.7 1972.02 1136.17 1972.3 1135.72C1974.79 1131.72 1982.3 1124.54 1993.07 1125.82C1993.46 1125.87 1993.84 1125.99 1994.19 1126.19C1994.54 1126.38 1994.84 1126.64 1995.09 1126.95C1995.33 1127.26 1995.51 1127.62 1995.62 1128C1995.73 1128.39 1995.76 1128.79 1995.71 1129.18C1995.66 1129.57 1995.54 1129.95 1995.34 1130.3C1995.15 1130.65 1994.89 1130.95 1994.58 1131.2C1994.26 1131.44 1993.91 1131.62 1993.53 1131.73C1993.14 1131.84 1992.74 1131.87 1992.35 1131.82C1984.62 1130.89 1979.18 1136.07 1977.35 1138.94C1977.08 1139.36 1976.71 1139.7 1976.27 1139.94C1975.84 1140.18 1975.35 1140.31 1974.85 1140.31Z" fill="black"/>
<path d="M1985.9 1145.48C1985.37 1145.48 1984.85 1145.34 1984.39 1145.07C1983.93 1144.8 1983.55 1144.42 1983.29 1143.96C1983.02 1143.49 1982.89 1142.97 1982.9 1142.44C1982.91 1141.91 1983.06 1141.39 1983.33 1140.93C1984.68 1138.7 1985.15 1136.77 1984.68 1135.5C1984.51 1135.11 1984.27 1134.75 1983.96 1134.46C1983.64 1134.17 1983.27 1133.94 1982.87 1133.8C1982.47 1133.7 1982.1 1133.52 1981.78 1133.26C1981.46 1133.01 1981.19 1132.7 1980.99 1132.34C1980.8 1131.98 1980.67 1131.59 1980.64 1131.18C1980.6 1130.77 1980.64 1130.36 1980.77 1129.97C1980.89 1129.59 1981.1 1129.23 1981.37 1128.92C1981.64 1128.61 1981.96 1128.36 1982.33 1128.19C1982.7 1128.01 1983.1 1127.91 1983.51 1127.9C1983.92 1127.88 1984.33 1127.95 1984.71 1128.1C1985.98 1128.51 1987.14 1129.2 1988.11 1130.12C1989.07 1131.03 1989.82 1132.16 1990.3 1133.4C1991.1 1135.54 1991.43 1139.13 1988.47 1144.03C1988.2 1144.47 1987.83 1144.84 1987.38 1145.09C1986.93 1145.35 1986.42 1145.48 1985.9 1145.48Z" fill="black"/>
<path d="M2713.24 1833.72L2713.33 1829.72L2703.75 1829.5L2710.33 1836.5L2713.24 1833.72ZM2722.09 1881.37L2719.95 1884.75L2720.48 1885.08L2721.09 1885.24L2722.09 1881.37ZM2696.9 1865.37L2699 1862L2694.24 1868.4L2696.9 1865.37ZM2720.31 1885.7L2723.58 1883.4L2723.3 1883L2722.93 1882.68L2720.31 1885.7ZM2713.24 1912.11L2713.93 1916.05H2714L2713.24 1912.11ZM2688.24 1901.71L2690.24 1898.22L2685.84 1904.89L2688.24 1901.71ZM2700.34 1910.94L2703.05 1907.94L2702.91 1907.82L2702.77 1907.71L2700.34 1910.94ZM2667 1927.87L2664.75 1931.18L2664.96 1931.32L2665.17 1931.43L2667 1927.87ZM2568.65 1892.09L2572.55 1893.02L2572.73 1892.25L2572.61 1891.48L2568.65 1892.09ZM2545.48 1900.27L2543.09 1903.48L2543.25 1903.6L2543.42 1903.7L2545.48 1900.27ZM2503.26 1794L2507.03 1792.67L2506.68 1791.67L2505.86 1790.97L2503.26 1794ZM2565.26 1870.13L2561.26 1870.66V1870.74L2565.26 1870.13ZM2577.37 1866.98L2579.62 1863.67L2578.12 1862.67L2576.37 1863.13L2577.37 1866.98ZM2558.51 1788.76C2558.34 1787.74 2557.78 1786.83 2556.95 1786.22C2556.12 1785.6 2555.09 1785.33 2554.07 1785.46C2553.04 1785.59 2552.11 1786.11 2551.46 1786.91C2550.81 1787.71 2550.49 1788.73 2550.58 1789.76L2558.51 1788.76ZM2747.82 1829.76C2741.45 1830.01 2732.82 1830.01 2725.82 1829.95C2722.3 1829.95 2719.18 1829.87 2716.94 1829.83H2714.31H2713.31L2713.22 1833.83L2713.13 1837.83H2714.13H2716.79C2719.05 1837.83 2722.19 1837.92 2725.74 1837.95C2732.82 1838.01 2741.59 1838.01 2748.17 1837.76L2747.82 1829.76ZM2710.31 1836.51L2731.95 1859.41L2737.76 1853.91L2716.13 1831.01L2710.31 1836.51ZM2732.01 1859.51C2734.59 1862.02 2736.71 1864.96 2738.27 1868.2C2739.66 1871.45 2739.62 1874.1 2737.54 1876.42L2743.54 1881.75C2748.44 1876.26 2747.75 1869.94 2745.65 1865.05C2743.7 1860.89 2741.02 1857.11 2737.74 1853.89L2732.01 1859.51ZM2737.54 1876.42C2736.67 1877.4 2735.59 1878.16 2734.37 1878.63C2733.15 1879.11 2731.84 1879.3 2730.54 1879.17C2728 1878.92 2725.51 1878.38 2723.09 1877.58L2721.09 1885.32C2724.04 1886.29 2727.09 1886.9 2730.19 1887.16C2732.68 1887.34 2735.18 1886.95 2737.49 1886.01C2739.8 1885.07 2741.87 1883.61 2743.53 1881.75L2737.54 1876.42ZM2724.22 1878.07L2699.02 1862.07L2694.74 1868.83L2719.93 1884.83L2724.22 1878.07ZM2694.22 1868.49L2717.63 1888.82L2722.87 1882.82L2699.46 1862.49L2694.22 1868.49ZM2717 1888C2719.37 1891.38 2721.57 1896.24 2721.45 1900.24C2721.47 1901.93 2720.85 1903.57 2719.72 1904.83C2718.55 1906.09 2716.4 1907.42 2712.44 1908.18L2713.96 1916.03C2719.03 1915.03 2722.96 1913.13 2725.59 1910.27C2728.04 1907.59 2729.41 1904.11 2729.45 1900.48C2729.64 1893.97 2726.34 1887.37 2723.54 1883.4L2717 1888ZM2712.51 1908.17C2712.68 1908.17 2712.51 1908.17 2711.93 1908.08C2711.19 1907.93 2710.46 1907.74 2709.74 1907.5C2707.55 1906.76 2705.4 1905.91 2703.3 1904.94C2698.52 1902.78 2693.39 1900.06 2690.14 1898.22L2686.2 1905.22C2689.6 1907.14 2694.95 1909.98 2700.01 1912.22C2702.38 1913.31 2704.81 1914.28 2707.29 1915.11C2708.35 1915.46 2709.43 1915.74 2710.53 1915.95C2711.64 1916.17 2712.77 1916.2 2713.89 1916.04L2712.51 1908.17ZM2685.74 1904.89L2697.85 1914.12L2702.7 1907.76L2690.6 1898.53L2685.74 1904.89ZM2697.57 1913.89C2699.37 1915.63 2700.7 1917.78 2701.45 1920.16C2702.2 1922.55 2702.35 1925.08 2701.87 1927.53C2701.5 1929.54 2700.44 1931.35 2698.87 1932.66C2697.42 1933.8 2695.21 1934.66 2691.87 1934.41L2691.36 1942.41C2695.79 1942.85 2700.22 1941.62 2703.78 1938.96C2706.81 1936.51 2708.9 1933.08 2709.67 1929.26C2710.46 1925.44 2710.26 1921.49 2709.09 1917.77C2707.92 1914.05 2705.83 1910.68 2703 1908L2697.57 1913.89ZM2691.89 1934.41C2687.81 1934.01 2683.86 1932.77 2680.29 1930.76C2678.38 1929.76 2676.51 1928.68 2674.59 1927.56C2672.67 1926.44 2670.74 1925.3 2668.79 1924.29L2665.13 1931.41C2666.85 1932.29 2668.62 1933.33 2670.55 1934.41C2672.48 1935.49 2674.49 1936.72 2676.63 1937.82C2681.18 1940.34 2686.2 1941.89 2691.38 1942.35L2691.89 1934.41ZM2564.72 1891.14C2564.1 1893.77 2562.44 1896.93 2559.9 1898.53C2557.76 1899.87 2554.01 1900.72 2547.5 1896.82L2543.38 1903.68C2551.73 1908.68 2558.8 1908.68 2564.15 1905.3C2569.15 1902.19 2571.6 1896.8 2572.51 1893L2564.72 1891.14ZM2547.83 1897.04C2545.63 1895.24 2543.79 1893.05 2542.38 1890.58C2541.11 1888.51 2540.04 1886.32 2539.18 1884.05L2531.65 1886.76C2532.7 1889.54 2534 1892.22 2535.55 1894.76C2537.49 1898.11 2540.03 1901.07 2543.05 1903.48L2547.83 1897.04ZM2539.19 1884.04L2507 1792.66L2499.46 1795.32L2531.63 1886.75L2539.19 1884.04ZM2505.86 1791L2480.8 1769.55L2475.6 1775.62L2500.66 1797.08L2505.86 1791ZM2568.42 1680.11L2661.8 1772.99L2667.44 1767.31L2574.06 1674.44L2568.42 1680.11ZM2755.57 1820.43C2756.51 1824.81 2753.57 1829.55 2747.81 1829.77L2748.13 1837.77C2750.46 1837.75 2752.76 1837.21 2754.85 1836.19C2756.95 1835.17 2758.79 1833.7 2760.25 1831.88C2761.71 1830.06 2762.75 1827.94 2763.29 1825.68C2763.84 1823.41 2763.87 1821.05 2763.39 1818.77L2755.57 1820.43ZM2561.3 1870.78L2564.67 1892.78L2572.58 1891.56L2569.2 1869.56L2561.3 1870.78ZM2669.22 1924.61L2579.61 1863.71L2575.11 1870.33L2664.72 1931.23L2669.22 1924.61ZM2566.22 1874.05L2578.33 1870.89L2576.33 1863.15L2564.21 1866.3L2566.22 1874.05ZM2569.17 1869.65L2558.46 1788.8L2550.53 1789.8L2561.24 1870.65L2569.17 1869.65Z" fill="black"/>
<path d="M2690.49 1906.55C2689.81 1906.55 2689.14 1906.32 2688.61 1905.89L2626.31 1855.89C2626 1855.64 2625.75 1855.34 2625.56 1854.99C2625.37 1854.65 2625.25 1854.27 2625.21 1853.88C2625.16 1853.48 2625.2 1853.09 2625.31 1852.71C2625.42 1852.33 2625.6 1851.98 2625.85 1851.67C2626.1 1851.36 2626.4 1851.11 2626.75 1850.92C2627.09 1850.73 2627.47 1850.61 2627.86 1850.57C2628.26 1850.52 2628.65 1850.56 2629.03 1850.67C2629.41 1850.78 2629.76 1850.96 2630.07 1851.21L2692.37 1901.21C2692.86 1901.6 2693.21 1902.13 2693.38 1902.73C2693.55 1903.32 2693.53 1903.96 2693.32 1904.55C2693.12 1905.13 2692.73 1905.64 2692.23 1906C2691.72 1906.36 2691.11 1906.55 2690.49 1906.55Z" fill="black"/>
<path d="M2701 1871.48C2700.32 1871.48 2699.67 1871.25 2699.14 1870.83L2667.38 1845.63C2667.05 1845.39 2666.77 1845.09 2666.56 1844.74C2666.36 1844.4 2666.22 1844.01 2666.16 1843.61C2666.11 1843.21 2666.13 1842.8 2666.24 1842.41C2666.35 1842.02 2666.53 1841.65 2666.78 1841.33C2667.03 1841.02 2667.35 1840.75 2667.7 1840.56C2668.06 1840.37 2668.45 1840.25 2668.85 1840.21C2669.26 1840.17 2669.66 1840.22 2670.05 1840.34C2670.44 1840.46 2670.79 1840.66 2671.1 1840.93L2702.86 1866.13C2703.35 1866.52 2703.7 1867.05 2703.88 1867.64C2704.05 1868.24 2704.03 1868.88 2703.83 1869.47C2703.62 1870.05 2703.24 1870.56 2702.74 1870.92C2702.23 1871.28 2701.62 1871.48 2701 1871.48Z" fill="black"/>
<path d="M2641.68 1778.28H2641.49L2600.14 1775.63C2599.34 1775.58 2598.6 1775.22 2598.07 1774.62C2597.55 1774.02 2597.28 1773.24 2597.33 1772.44C2597.38 1771.64 2597.74 1770.9 2598.34 1770.37C2598.94 1769.85 2599.72 1769.58 2600.52 1769.63L2641.87 1772.28C2642.67 1772.31 2643.42 1772.65 2643.96 1773.23C2644.51 1773.81 2644.8 1774.58 2644.78 1775.38C2644.75 1776.17 2644.41 1776.92 2643.83 1777.47C2643.25 1778.01 2642.48 1778.31 2641.68 1778.28Z" fill="black"/>
<path d="M2580.78 1793.07C2580 1793.07 2579.25 1792.77 2578.69 1792.23C2578.13 1791.69 2577.81 1790.95 2577.78 1790.17C2577.05 1767.62 2563.04 1751.75 2562.45 1751.08C2561.97 1750.48 2561.74 1749.72 2561.8 1748.96C2561.86 1748.19 2562.22 1747.48 2562.79 1746.97C2563.36 1746.46 2564.1 1746.18 2564.87 1746.2C2565.64 1746.22 2566.37 1746.54 2566.91 1747.08C2572.91 1753.73 2583.14 1770.25 2583.78 1789.97C2583.79 1790.36 2583.73 1790.76 2583.59 1791.13C2583.45 1791.5 2583.24 1791.83 2582.97 1792.12C2582.7 1792.41 2582.38 1792.64 2582.02 1792.8C2581.66 1792.97 2581.27 1793.06 2580.88 1793.07H2580.78Z" fill="black"/>
<path d="M1976 1076.59C1961.14 1082.1 1928.36 1081.66 1914.86 1081.11C1923.86 1056.28 1947.01 1031.57 1960.97 1021.64C1987.09 1003.07 2006.04 1021.37 2009.97 1029.23C2015.35 1025.78 2021.58 1023.91 2027.97 1023.81C2062.35 1020.97 2059.26 1041.96 2053.42 1052.81C2086.64 1068.66 2064.34 1095.3 2049.04 1106.63C2055.44 1108.93 2065.27 1118.82 2053.42 1140.02C2041.57 1161.22 2018.16 1168.18 2007.94 1169.02C2003.09 1167.16 1992.15 1160.08 1987.11 1146.62C1997.48 1143.88 2006.11 1136.62 2000.76 1128.3C1994.92 1119.3 1978.17 1124.37 1971.84 1127.3C1963.93 1110.43 1971.29 1086.47 1976 1076.59Z" fill="black"/>
<path d="M1917.54 1137.86C1910.85 1135.95 1904.88 1140.73 1902.73 1143.36C1903.21 1147.9 1904.3 1156.36 1904.88 1153.87C1905.59 1150.77 1915.63 1151.48 1933.78 1151.72C1948.31 1151.91 1948.78 1137.63 1947.16 1130.46C1947.88 1136.19 1947.45 1147.85 1939.99 1148.61C1930.68 1149.57 1925.9 1140.25 1917.54 1137.86Z" fill="black"/>
<path d="M1296.39 1101.32L1552.17 1018.81L1624.36 1357C1624.36 1357 1783.8 1257.12 1824.64 1249C1834.76 1247 1850.72 1244.75 1850.72 1244.75L1916.92 1196.98L2060.31 1183.12L2038.14 1228.27H2087.56C2149.65 1232.27 2201.56 1266.27 2219.67 1282.77L2602.82 1682.42L2434.37 1817.9L2257.66 1576.78L2450.88 2164.71L1624.36 2227.46L1757.36 1531.46C1735.44 1540.4 1678.16 1564.66 1624.36 1590.2C1527 1634.75 1469.66 1542.76 1453.16 1491.2L1296.39 1101.32Z" fill="#FEDA00"/>
<path d="M1665.31 2153.91C1664.51 2153.94 1663.74 2153.66 1663.15 2153.12C1662.57 2152.58 1662.22 2151.83 1662.19 2151.03C1662.15 2150.24 1662.44 2149.46 1662.98 2148.88C1663.51 2148.29 1664.26 2147.94 1665.06 2147.91L2234.13 2100.33C2220.54 2068.41 2200.71 2037.79 2181.52 2008.14C2168.41 1987.89 2156.02 1968.75 2145.44 1949.21C2108.07 1880.21 2129.01 1827.21 2155.52 1760.09C2167.52 1729.72 2181.13 1695.3 2190.69 1655.22C2210.42 1572.49 2163.3 1539.22 2113.4 1503.92C2088.65 1486.43 2063.06 1468.34 2046.4 1443.77C2028.6 1417.56 2027.66 1380.45 2043.59 1333.47C2059.91 1285.36 2087.45 1245.96 2095.5 1235.03C2095.97 1234.39 2096.68 1233.96 2097.47 1233.84C2098.25 1233.72 2099.05 1233.92 2099.7 1234.4C2100.34 1234.87 2100.76 1235.57 2100.88 1236.36C2101 1237.15 2100.8 1237.95 2100.33 1238.59C2066.85 1284.03 2013.53 1384.7 2051.33 1440.39C2067.42 1464.07 2092.56 1481.83 2116.87 1499.02C2166.2 1533.88 2217.21 1569.93 2196.54 1656.62C2186.88 1697.1 2173.19 1731.74 2161.11 1762.3C2147.81 1795.96 2136.32 1825.02 2132.52 1854.47C2128.38 1886.56 2134.17 1915.75 2150.73 1946.35C2161.19 1965.69 2173.52 1984.73 2186.57 2004.88C2206.26 2035.3 2226.62 2066.75 2240.43 2099.81L2383.24 2087.87C2384.04 2087.8 2384.83 2088.06 2385.43 2088.57C2386.04 2089.09 2386.42 2089.82 2386.49 2090.62C2386.56 2091.42 2386.3 2092.2 2385.79 2092.81C2385.27 2093.42 2384.54 2093.8 2383.74 2093.87L1665.57 2153.87L1665.31 2153.91ZM1860.45 1865.14C1859.8 1865.14 1859.16 1864.93 1858.64 1864.53C1793.22 1814.91 1758.93 1724.04 1749.93 1682.92C1749.83 1682.53 1749.82 1682.13 1749.88 1681.73C1749.95 1681.34 1750.09 1680.96 1750.3 1680.62C1750.51 1680.28 1750.79 1679.99 1751.12 1679.76C1751.44 1679.52 1751.81 1679.36 1752.2 1679.28C1752.59 1679.19 1753 1679.18 1753.39 1679.26C1753.79 1679.33 1754.16 1679.48 1754.49 1679.7C1754.83 1679.92 1755.12 1680.21 1755.34 1680.54C1755.56 1680.87 1755.71 1681.25 1755.79 1681.64C1764.62 1722.01 1798.24 1811.19 1862.26 1859.75C1862.76 1860.13 1863.13 1860.66 1863.31 1861.26C1863.5 1861.86 1863.49 1862.5 1863.29 1863.09C1863.09 1863.69 1862.71 1864.21 1862.2 1864.57C1861.69 1864.94 1861.08 1865.14 1860.45 1865.14ZM2410.39 1757.51C2409.79 1757.51 2409.21 1757.33 2408.71 1756.99C2408.21 1756.66 2407.83 1756.18 2407.61 1755.63C2407.38 1755.07 2407.33 1754.46 2407.46 1753.87C2407.59 1753.29 2407.89 1752.75 2408.32 1752.34L2434.23 1727.73L2238.54 1511.64L2253.35 1554.38C2253.62 1555.13 2253.57 1555.96 2253.23 1556.67C2252.89 1557.39 2252.27 1557.94 2251.52 1558.21C2250.77 1558.48 2249.94 1558.43 2249.23 1558.09C2248.51 1557.75 2247.96 1557.13 2247.69 1556.38L2228.07 1499.81C2228.07 1499.81 2228.07 1499.72 2228.02 1499.68L2208.41 1443.11C2208.28 1442.74 2208.22 1442.34 2208.24 1441.95C2208.26 1441.56 2208.36 1441.17 2208.53 1440.82C2208.7 1440.46 2208.94 1440.14 2209.23 1439.88C2209.53 1439.61 2209.87 1439.41 2210.24 1439.28C2210.61 1439.15 2211.01 1439.09 2211.4 1439.11C2211.79 1439.13 2212.18 1439.23 2212.53 1439.4C2212.89 1439.57 2213.21 1439.81 2213.47 1440.1C2213.74 1440.4 2213.94 1440.74 2214.07 1441.11L2233.51 1497.16L2438.58 1723.59L2536.21 1630.84C2536.49 1630.56 2536.83 1630.33 2537.2 1630.18C2537.57 1630.03 2537.97 1629.95 2538.37 1629.96C2538.77 1629.96 2539.16 1630.04 2539.53 1630.2C2539.9 1630.36 2540.23 1630.6 2540.51 1630.88C2540.78 1631.17 2541 1631.52 2541.14 1631.89C2541.28 1632.27 2541.35 1632.67 2541.33 1633.07C2541.32 1633.47 2541.23 1633.86 2541.06 1634.22C2540.89 1634.59 2540.65 1634.91 2540.35 1635.18L2412.46 1756.68C2411.9 1757.21 2411.16 1757.51 2410.39 1757.51ZM1631.87 1534.62C1593.3 1534.62 1562.54 1533.02 1536.32 1489.3C1514.86 1453.54 1448.62 1274.91 1415.18 1181.56L1351.69 1203.75C1350.94 1204.02 1350.11 1203.97 1349.4 1203.63C1348.68 1203.28 1348.13 1202.67 1347.86 1201.92C1347.59 1201.17 1347.64 1200.34 1347.98 1199.63C1348.32 1198.91 1348.94 1198.36 1349.69 1198.09L1413.49 1175.79C1413.57 1175.25 1413.8 1174.75 1414.15 1174.33C1414.5 1173.91 1414.95 1173.59 1415.46 1173.41C1415.98 1173.23 1416.53 1173.2 1417.06 1173.31C1417.6 1173.42 1418.09 1173.67 1418.49 1174.04L1556.16 1125.92C1556.91 1125.65 1557.74 1125.7 1558.45 1126.04C1559.17 1126.38 1559.72 1127 1559.99 1127.75C1560.26 1128.5 1560.21 1129.33 1559.87 1130.04C1559.52 1130.76 1558.91 1131.31 1558.16 1131.58L1420.86 1179.58C1454.23 1272.74 1520.25 1450.86 1541.47 1486.22C1566.97 1528.73 1596.11 1528.69 1636.47 1528.61H1641.25C1674.12 1528.61 1734.94 1512.11 1764.15 1502.9L1783.53 1373.13C1783.65 1372.34 1784.07 1371.63 1784.71 1371.16C1785.35 1370.68 1786.15 1370.48 1786.94 1370.6C1787.73 1370.72 1788.44 1371.14 1788.91 1371.78C1789.39 1372.42 1789.59 1373.22 1789.47 1374.01L1769.82 1505.57C1769.82 1505.57 1769.82 1505.65 1769.82 1505.69L1768.48 1514.69C1768.42 1515.08 1768.29 1515.45 1768.09 1515.79C1767.88 1516.13 1767.62 1516.43 1767.3 1516.66C1766.66 1517.14 1765.86 1517.34 1765.07 1517.22C1764.28 1517.1 1763.57 1516.68 1763.1 1516.04C1762.62 1515.4 1762.42 1514.6 1762.54 1513.81L1763.19 1509.49C1732.71 1518.94 1673.84 1534.61 1641.27 1534.61H1631.94L1631.87 1534.62ZM1860.45 1248.68C1859.65 1248.72 1858.88 1248.44 1858.29 1247.9C1857.7 1247.36 1857.35 1246.62 1857.31 1245.82C1857.27 1245.02 1857.55 1244.25 1858.09 1243.66C1858.63 1243.07 1859.37 1242.72 1860.17 1242.68L2028.26 1227.15C2029.06 1227.08 2029.85 1227.32 2030.46 1227.83C2031.08 1228.34 2031.47 1229.07 2031.54 1229.87C2031.61 1230.67 2031.37 1231.46 2030.86 1232.07C2030.35 1232.69 2029.62 1233.08 2028.82 1233.15L1860.73 1248.68H1860.45Z" fill="black"/>
<path d="M1389.65 623L1520.44 785.27C1521.07 783.89 1523.07 781.02 1526.03 780.61L1389.65 623Z" fill="black"/>
<path d="M1718.17 1002.62L1607.17 874.32L1610.7 897.18L1667.05 967.08L1594.32 951.55L1579.81 965.69L1718.17 1002.62Z" fill="black"/>
<path d="M1257 879.53L1466.41 935.43L1478.72 926.88L1257 879.53Z" fill="black"/>
<path d="M2444.61 1903.12L2443.88 1900.21L2442.88 1903.03L2403.25 1888.73L2411.25 1880.29C2407.14 1875.52 2406.62 1871.16 2409.25 1864.46L2400.36 1858.65L2431.03 1827.98L2433.15 1830.1L2432.4 1827.2L2507.53 1807.79L2509.03 1813.59L2435.03 1832.72C2434.5 1833.89 2434.38 1835.2 2434.69 1836.45C2435.8 1842.12 2442.21 1848.95 2451 1853.83L2455.22 1856.17L2451.22 1858.92C2448.72 1860.64 2446.22 1864.1 2446.46 1867.12C2446.62 1869.12 2448.08 1870.79 2450.79 1872.12L2455.26 1874.22L2451.33 1877.22C2447.46 1880.17 2440.25 1885.67 2440.33 1890.67C2440.33 1892.77 2441.76 1894.89 2444.46 1897.01L2530.28 1875.34L2531.74 1881.16L2444.61 1903.12ZM2413.91 1886.21L2434.91 1893.77C2434.61 1892.8 2434.45 1891.79 2434.43 1890.77C2434.29 1884.33 2439.67 1878.92 2444.43 1875.03C2443.33 1874.12 2442.42 1872.99 2441.75 1871.72C2441.09 1870.45 2440.69 1869.06 2440.57 1867.63C2440.24 1863.63 2442.08 1859.82 2444.57 1856.95C2436.42 1851.63 2430.67 1844.85 2429.04 1838.53L2409.87 1857.69L2416.87 1862.26L2415.78 1864.61C2412.29 1872.17 2413.41 1874.22 2417.51 1878.13L2419.68 1880.2L2413.91 1886.21ZM2566.8 1872.27L2565.34 1866.45L2833.59 1798.72L2815.73 1734.41L2555.88 1801.5L2554.38 1795.7L2819.93 1727.13L2841 1803L2566.8 1872.27Z" fill="black"/>
<path d="M2449.94 1878.23L2448.48 1872.41L2523.93 1853.55L2525.39 1859.37L2449.94 1878.23ZM2449.94 1859.36L2448.4 1853.56L2516.87 1835.39L2518.41 1841.19L2449.94 1859.36ZM2564.5 1852.36L2563 1846.54L2806.82 1783.66L2808.32 1789.48L2564.5 1852.36ZM2558.24 1830.69L2556.68 1824.89L2806.79 1757.82L2808.35 1763.62L2558.24 1830.69Z" fill="black"/>
<path d="M2381.89 1880.4L2403.51 1856.89L2412.51 1863.61C2410.86 1866.26 2410.23 1869.42 2410.72 1872.5C2411.2 1875.58 2412.78 1878.39 2415.17 1880.4L2409.25 1889.83L2381.89 1880.4Z" fill="black"/>
<path d="M2335 1752.19L2318.49 1708.44L2502.66 1795.44L2517 1837.9L2335 1752.19Z" fill="black"/>
<path d="M2854.24 1959.4L2877.35 2000.67L2565.63 1857.48L2559.43 1818.32L2854.24 1959.4Z" fill="black"/>
<path d="M2522.11 1843.62L2332.61 1754.39L2313.05 1702.56L2505.05 1793.31L2522.11 1843.62ZM2337.37 1750L2511.91 1832.19L2500.22 1797.66L2323.91 1714.33L2337.37 1750Z" fill="black"/>
<path d="M2884.47 2007.24L2562.92 1859.54L2555.57 1813.15L2856.39 1957.1L2884.47 2007.24ZM2568.34 1855.42L2870.23 1994.1L2852.09 1961.7L2563.29 1823.49L2568.34 1855.42Z" fill="black"/>
</svg>
