<svg width="3000" height="3000" viewBox="0 0 3000 3000" fill="none" xmlns="http://www.w3.org/2000/svg">
<path d="M2909.05 1640.55C2907.4 1640.55 2905.79 1640.06 2904.42 1639.15C2903.05 1638.23 2901.98 1636.93 2901.35 1635.41C2900.72 1633.89 2900.56 1632.21 2900.88 1630.59C2901.2 1628.98 2901.99 1627.49 2903.16 1626.33C2904.32 1625.16 2905.81 1624.37 2907.42 1624.05C2909.04 1623.73 2910.72 1623.89 2912.24 1624.52C2913.76 1625.15 2915.06 1626.22 2915.98 1627.59C2916.89 1628.96 2917.38 1630.57 2917.38 1632.22C2917.38 1634.43 2916.5 1636.55 2914.94 1638.11C2913.38 1639.67 2911.26 1640.55 2909.05 1640.55ZM2909.05 1629.89C2908.59 1629.89 2908.14 1630.03 2907.76 1630.28C2907.37 1630.54 2907.07 1630.9 2906.9 1631.33C2906.72 1631.75 2906.67 1632.22 2906.76 1632.67C2906.85 1633.13 2907.08 1633.54 2907.4 1633.87C2907.73 1634.19 2908.14 1634.42 2908.6 1634.51C2909.05 1634.6 2909.52 1634.55 2909.94 1634.37C2910.37 1634.2 2910.73 1633.9 2910.99 1633.51C2911.24 1633.13 2911.38 1632.68 2911.38 1632.22C2911.38 1631.6 2911.13 1631.01 2910.7 1630.57C2910.26 1630.14 2909.67 1629.89 2909.05 1629.89Z" fill="#FFFFFF"/>
<path d="M1507.67 195.52C1506.02 195.522 1504.41 195.034 1503.03 194.119C1501.66 193.203 1500.59 191.901 1499.96 190.376C1499.32 188.852 1499.16 187.174 1499.48 185.555C1499.8 183.937 1500.6 182.45 1501.76 181.283C1502.93 180.116 1504.42 179.321 1506.04 179C1507.65 178.678 1509.33 178.844 1510.86 179.477C1512.38 180.109 1513.68 181.18 1514.6 182.553C1515.51 183.926 1516 185.54 1516 187.19C1516 189.399 1515.12 191.516 1513.56 193.077C1512 194.639 1509.88 195.517 1507.67 195.52ZM1507.67 184.85C1507.21 184.848 1506.75 184.984 1506.37 185.24C1505.98 185.495 1505.68 185.86 1505.5 186.288C1505.32 186.715 1505.27 187.186 1505.36 187.64C1505.45 188.095 1505.67 188.513 1506 188.841C1506.33 189.169 1506.75 189.393 1507.2 189.484C1507.65 189.575 1508.12 189.53 1508.55 189.353C1508.98 189.176 1509.35 188.876 1509.6 188.491C1509.86 188.106 1510 187.653 1510 187.19C1510 186.883 1509.94 186.579 1509.83 186.295C1509.71 186.012 1509.54 185.753 1509.32 185.536C1509.1 185.319 1508.85 185.146 1508.56 185.028C1508.28 184.911 1507.98 184.85 1507.67 184.85Z" fill="#FFFFFF"/>
<path d="M321.05 1114.18C319.403 1114.18 317.792 1113.69 316.422 1112.78C315.052 1111.86 313.985 1110.56 313.354 1109.04C312.724 1107.52 312.559 1105.84 312.88 1104.22C313.202 1102.61 313.995 1101.12 315.16 1099.96C316.325 1098.79 317.809 1098 319.425 1097.68C321.041 1097.36 322.716 1097.52 324.238 1098.15C325.76 1098.78 327.061 1099.85 327.976 1101.22C328.892 1102.59 329.38 1104.2 329.38 1105.85C329.378 1108.06 328.499 1110.18 326.937 1111.74C325.376 1113.3 323.259 1114.18 321.05 1114.18ZM321.05 1103.52C320.589 1103.52 320.139 1103.66 319.756 1103.91C319.373 1104.17 319.074 1104.53 318.898 1104.96C318.721 1105.38 318.675 1105.85 318.765 1106.3C318.855 1106.76 319.077 1107.17 319.403 1107.5C319.729 1107.82 320.144 1108.05 320.596 1108.14C321.048 1108.23 321.516 1108.18 321.942 1108C322.368 1107.83 322.732 1107.53 322.988 1107.14C323.244 1106.76 323.38 1106.31 323.38 1105.85C323.38 1105.23 323.135 1104.64 322.698 1104.2C322.261 1103.77 321.668 1103.52 321.05 1103.52Z" fill="#FFFFFF"/>
<path d="M1180.06 2345.83C1178.41 2345.83 1176.8 2345.34 1175.43 2344.43C1174.06 2343.51 1172.99 2342.21 1172.36 2340.69C1171.73 2339.17 1171.57 2337.49 1171.89 2335.88C1172.21 2334.26 1173 2332.77 1174.17 2331.61C1175.33 2330.44 1176.82 2329.65 1178.43 2329.33C1180.05 2329.01 1181.73 2329.17 1183.25 2329.8C1184.77 2330.43 1186.07 2331.5 1186.99 2332.87C1187.9 2334.24 1188.39 2335.85 1188.39 2337.5C1188.39 2339.71 1187.51 2341.83 1185.95 2343.39C1184.39 2344.95 1182.27 2345.83 1180.06 2345.83ZM1180.06 2335.17C1179.6 2335.17 1179.15 2335.31 1178.77 2335.56C1178.38 2335.82 1178.08 2336.18 1177.91 2336.61C1177.73 2337.03 1177.68 2337.5 1177.77 2337.95C1177.86 2338.41 1178.09 2338.82 1178.41 2339.15C1178.74 2339.47 1179.15 2339.7 1179.61 2339.79C1180.06 2339.88 1180.53 2339.83 1180.95 2339.65C1181.38 2339.48 1181.74 2339.18 1182 2338.79C1182.25 2338.41 1182.39 2337.96 1182.39 2337.5C1182.39 2336.88 1182.14 2336.29 1181.71 2335.85C1181.27 2335.42 1180.68 2335.17 1180.06 2335.17Z" fill="#FFFFFF"/>
<path d="M2754.81 1195.46C2753.16 1195.46 2751.55 1194.97 2750.18 1194.06C2748.81 1193.14 2747.74 1191.84 2747.11 1190.32C2746.48 1188.8 2746.32 1187.12 2746.64 1185.5C2746.96 1183.89 2747.75 1182.4 2748.92 1181.24C2750.08 1180.07 2751.57 1179.28 2753.18 1178.96C2754.8 1178.64 2756.48 1178.8 2758 1179.43C2759.52 1180.06 2760.82 1181.13 2761.74 1182.5C2762.65 1183.87 2763.14 1185.48 2763.14 1187.13C2763.14 1189.34 2762.26 1191.46 2760.7 1193.02C2759.14 1194.58 2757.02 1195.46 2754.81 1195.46ZM2754.81 1184.8C2754.35 1184.8 2753.9 1184.94 2753.52 1185.19C2753.13 1185.45 2752.83 1185.81 2752.66 1186.24C2752.48 1186.66 2752.43 1187.13 2752.52 1187.58C2752.61 1188.04 2752.84 1188.45 2753.16 1188.78C2753.49 1189.1 2753.9 1189.33 2754.36 1189.42C2754.81 1189.51 2755.28 1189.46 2755.7 1189.28C2756.13 1189.11 2756.49 1188.81 2756.75 1188.42C2757 1188.04 2757.14 1187.59 2757.14 1187.13C2757.14 1186.51 2756.89 1185.92 2756.46 1185.48C2756.02 1185.05 2755.43 1184.8 2754.81 1184.8Z" fill="#FFFFFF"/>
<path d="M1189.71 629.58C1188.06 629.58 1186.45 629.091 1185.08 628.176C1183.71 627.261 1182.64 625.96 1182.01 624.438C1181.38 622.916 1181.22 621.241 1181.54 619.625C1181.86 618.009 1182.65 616.525 1183.82 615.36C1184.98 614.195 1186.47 613.402 1188.08 613.08C1189.7 612.759 1191.38 612.924 1192.9 613.554C1194.42 614.185 1195.72 615.252 1196.64 616.622C1197.55 617.992 1198.04 619.603 1198.04 621.25C1198.04 623.458 1197.16 625.576 1195.6 627.137C1194.04 628.699 1191.92 629.577 1189.71 629.58ZM1189.71 618.92C1189.25 618.92 1188.8 619.057 1188.42 619.313C1188.03 619.569 1187.73 619.933 1187.56 620.358C1187.38 620.784 1187.33 621.253 1187.42 621.705C1187.51 622.157 1187.74 622.572 1188.06 622.898C1188.39 623.223 1188.8 623.445 1189.26 623.535C1189.71 623.625 1190.18 623.579 1190.6 623.403C1191.03 623.226 1191.39 622.928 1191.65 622.545C1191.9 622.161 1192.04 621.711 1192.04 621.25C1192.04 620.632 1191.79 620.039 1191.36 619.602C1190.92 619.165 1190.33 618.92 1189.71 618.92Z" fill="#FFFFFF"/>
<path d="M2651 2295.58C2649.35 2295.58 2647.74 2295.09 2646.37 2294.18C2645 2293.26 2643.93 2291.96 2643.3 2290.44C2642.67 2288.92 2642.51 2287.24 2642.83 2285.63C2643.15 2284.01 2643.94 2282.52 2645.11 2281.36C2646.27 2280.19 2647.76 2279.4 2649.37 2279.08C2650.99 2278.76 2652.67 2278.92 2654.19 2279.55C2655.71 2280.18 2657.01 2281.25 2657.93 2282.62C2658.84 2283.99 2659.33 2285.6 2659.33 2287.25C2659.33 2289.46 2658.45 2291.58 2656.89 2293.14C2655.33 2294.7 2653.21 2295.58 2651 2295.58ZM2651 2284.92C2650.54 2284.92 2650.09 2285.06 2649.71 2285.31C2649.32 2285.57 2649.02 2285.93 2648.85 2286.36C2648.67 2286.78 2648.62 2287.25 2648.71 2287.7C2648.8 2288.16 2649.03 2288.57 2649.35 2288.9C2649.68 2289.22 2650.09 2289.45 2650.55 2289.54C2651 2289.63 2651.47 2289.58 2651.89 2289.4C2652.32 2289.23 2652.68 2288.93 2652.94 2288.54C2653.19 2288.16 2653.33 2287.71 2653.33 2287.25C2653.33 2286.63 2653.08 2286.04 2652.65 2285.6C2652.21 2285.17 2651.62 2284.92 2651 2284.92Z" fill="#FFFFFF"/>
<path d="M2823.09 2556.85C2822.46 2556.85 2821.84 2556.65 2821.33 2556.28L2792 2534.92C2791.68 2534.69 2791.41 2534.4 2791.2 2534.06C2791 2533.72 2790.86 2533.35 2790.8 2532.96C2790.74 2532.57 2790.75 2532.17 2790.84 2531.79C2790.94 2531.41 2791.1 2531.04 2791.33 2530.73C2791.57 2530.41 2791.86 2530.14 2792.2 2529.93C2792.53 2529.72 2792.91 2529.59 2793.29 2529.52C2793.68 2529.46 2794.08 2529.48 2794.47 2529.57C2794.85 2529.66 2795.21 2529.83 2795.53 2530.06L2824.88 2551.42C2825.39 2551.79 2825.78 2552.32 2825.97 2552.92C2826.17 2553.52 2826.17 2554.17 2825.97 2554.77C2825.78 2555.38 2825.4 2555.9 2824.88 2556.28C2824.37 2556.65 2823.75 2556.85 2823.12 2556.85H2823.09Z" fill="#FFFFFF"/>
<path d="M718.25 155.84C717.614 155.839 716.994 155.636 716.48 155.26L687.12 133.91C686.792 133.682 686.513 133.391 686.299 133.053C686.085 132.716 685.941 132.34 685.875 131.946C685.808 131.552 685.821 131.149 685.913 130.76C686.004 130.371 686.172 130.005 686.407 129.682C686.642 129.359 686.94 129.086 687.281 128.88C687.623 128.673 688.003 128.537 688.398 128.479C688.793 128.421 689.196 128.443 689.583 128.542C689.969 128.642 690.332 128.818 690.65 129.06L720 150.41C720.514 150.782 720.896 151.307 721.093 151.91C721.29 152.512 721.29 153.162 721.095 153.765C720.899 154.368 720.518 154.894 720.005 155.267C719.492 155.639 718.874 155.84 718.24 155.84H718.25Z" fill="#FFFFFF"/>
<path d="M1297 1513.68C1296.37 1513.68 1295.75 1513.48 1295.23 1513.11L1265.87 1491.75C1265.55 1491.52 1265.28 1491.22 1265.07 1490.89C1264.87 1490.55 1264.73 1490.18 1264.67 1489.79C1264.61 1489.4 1264.63 1489 1264.72 1488.61C1264.81 1488.23 1264.98 1487.87 1265.21 1487.55C1265.44 1487.23 1265.74 1486.96 1266.07 1486.75C1266.41 1486.55 1266.78 1486.41 1267.17 1486.35C1267.56 1486.29 1267.96 1486.3 1268.35 1486.4C1268.73 1486.49 1269.09 1486.66 1269.41 1486.89L1298.77 1508.25C1299.28 1508.62 1299.67 1509.15 1299.86 1509.75C1300.06 1510.36 1300.06 1511.01 1299.86 1511.61C1299.67 1512.21 1299.28 1512.74 1298.77 1513.11C1298.25 1513.48 1297.63 1513.68 1297 1513.68Z" fill="#FFFFFF"/>
<path d="M1541.88 2777.38C1541.24 2777.38 1540.62 2777.17 1540.11 2776.8C1539.59 2776.42 1539.21 2775.89 1539.02 2775.28C1538.83 2774.67 1538.84 2774.01 1539.05 2773.41C1539.25 2772.81 1539.65 2772.29 1540.17 2771.92L1569.96 2751.17C1570.61 2750.76 1571.4 2750.63 1572.15 2750.78C1572.9 2750.94 1573.57 2751.38 1574.01 2752.01C1574.44 2752.64 1574.62 2753.41 1574.51 2754.17C1574.39 2754.93 1573.99 2755.62 1573.38 2756.09L1543.59 2776.84C1543.09 2777.19 1542.49 2777.38 1541.88 2777.38Z" fill="#FFFFFF"/>
<path d="M2410.3 2684.13C2409.66 2684.13 2409.04 2683.93 2408.52 2683.55C2408.01 2683.17 2407.63 2682.64 2407.44 2682.03C2407.24 2681.42 2407.25 2680.77 2407.46 2680.16C2407.66 2679.56 2408.06 2679.04 2408.58 2678.67L2438.38 2657.92C2439.03 2657.51 2439.82 2657.38 2440.57 2657.53C2441.32 2657.69 2441.99 2658.13 2442.43 2658.76C2442.86 2659.39 2443.04 2660.16 2442.93 2660.92C2442.81 2661.68 2442.41 2662.37 2441.8 2662.84L2412 2683.59C2411.5 2683.94 2410.91 2684.13 2410.3 2684.13Z" fill="#FFFFFF"/>
<path d="M347.72 586.7C347.082 586.699 346.461 586.494 345.948 586.116C345.434 585.737 345.055 585.205 344.864 584.597C344.674 583.988 344.682 583.335 344.888 582.731C345.094 582.127 345.487 581.605 346.01 581.24L375.79 560.49C376.112 560.251 376.479 560.08 376.869 559.986C377.259 559.891 377.664 559.876 378.06 559.941C378.456 560.006 378.834 560.15 379.174 560.363C379.513 560.577 379.806 560.857 380.035 561.186C380.265 561.515 380.426 561.887 380.509 562.279C380.592 562.671 380.596 563.076 380.52 563.47C380.444 563.864 380.29 564.239 380.066 564.572C379.843 564.905 379.555 565.19 379.22 565.41L349.44 586.16C348.936 586.512 348.335 586.701 347.72 586.7Z" fill="#FFFFFF"/>
<path d="M891.54 1136.59C890.902 1136.59 890.281 1136.38 889.768 1136.01C889.254 1135.63 888.875 1135.1 888.684 1134.49C888.493 1133.88 888.502 1133.22 888.708 1132.62C888.914 1132.02 889.307 1131.5 889.83 1131.13L919.62 1110.38C920.273 1109.97 921.057 1109.84 921.809 1109.99C922.562 1110.15 923.226 1110.59 923.665 1111.22C924.104 1111.85 924.284 1112.62 924.167 1113.38C924.051 1114.14 923.647 1114.83 923.04 1115.3L893.25 1136.05C892.75 1136.4 892.152 1136.59 891.54 1136.59Z" fill="#FFFFFF"/>
<path d="M1856.26 263.64C1855.56 263.639 1854.89 263.395 1854.35 262.95C1853.81 262.505 1853.45 261.886 1853.32 261.2C1853.19 260.514 1853.3 259.804 1853.63 259.193C1853.97 258.582 1854.51 258.107 1855.16 257.85L1889 244.57C1889.73 244.302 1890.55 244.331 1891.26 244.652C1891.97 244.973 1892.53 245.56 1892.82 246.288C1893.11 247.016 1893.1 247.827 1892.8 248.548C1892.49 249.27 1891.92 249.845 1891.2 250.15L1857.41 263.43C1857.04 263.575 1856.65 263.646 1856.26 263.64Z" fill="#FFFFFF"/>
<path d="M2617.57 220.65C2617.07 220.65 2616.58 220.525 2616.14 220.286C2615.7 220.046 2615.32 219.701 2615.05 219.28L2595.3 188.82C2594.95 188.159 2594.86 187.392 2595.05 186.668C2595.23 185.944 2595.68 185.315 2596.31 184.906C2596.94 184.497 2597.69 184.336 2598.43 184.455C2599.17 184.574 2599.83 184.965 2600.3 185.55L2620.09 216C2620.3 216.331 2620.45 216.701 2620.52 217.089C2620.59 217.476 2620.59 217.874 2620.5 218.26C2620.42 218.645 2620.26 219.01 2620.04 219.335C2619.82 219.659 2619.53 219.936 2619.2 220.15C2618.72 220.471 2618.15 220.645 2617.57 220.65Z" fill="#FFFFFF"/>
<path d="M783.26 2807.84C782.759 2807.84 782.266 2807.71 781.826 2807.48C781.385 2807.24 781.012 2806.89 780.74 2806.47L761 2776C760.66 2775.34 760.576 2774.58 760.766 2773.86C760.956 2773.14 761.406 2772.52 762.028 2772.11C762.65 2771.71 763.401 2771.55 764.135 2771.66C764.868 2771.78 765.533 2772.16 766 2772.74L785.75 2803.2C786.043 2803.65 786.209 2804.18 786.229 2804.72C786.25 2805.26 786.124 2805.79 785.866 2806.26C785.608 2806.74 785.227 2807.13 784.763 2807.41C784.299 2807.69 783.77 2807.83 783.23 2807.83L783.26 2807.84Z" fill="#FFFFFF"/>
<path d="M654.92 2499.29C653.74 2499.29 652.56 2499.29 651.38 2499.29C650.986 2499.28 650.597 2499.2 650.235 2499.04C649.874 2498.89 649.546 2498.66 649.272 2498.38C648.997 2498.1 648.781 2497.76 648.636 2497.4C648.491 2497.03 648.419 2496.64 648.425 2496.25C648.431 2495.85 648.514 2495.46 648.671 2495.1C648.827 2494.74 649.053 2494.41 649.336 2494.14C649.618 2493.86 649.952 2493.65 650.319 2493.5C650.685 2493.36 651.076 2493.28 651.47 2493.29C655.92 2493.36 660.4 2493.29 664.78 2493.09C665.174 2493.07 665.568 2493.13 665.938 2493.27C666.309 2493.4 666.65 2493.61 666.941 2493.87C667.232 2494.14 667.468 2494.46 667.635 2494.82C667.802 2495.17 667.897 2495.56 667.915 2495.96C667.933 2496.35 667.873 2496.74 667.738 2497.11C667.604 2497.48 667.398 2497.82 667.132 2498.12C666.866 2498.41 666.545 2498.64 666.188 2498.81C665.831 2498.98 665.444 2499.07 665.05 2499.09C661.71 2499.21 658.32 2499.29 654.92 2499.29ZM674.92 2498.39C674.124 2498.42 673.348 2498.14 672.761 2497.6C672.174 2497.07 671.824 2496.32 671.79 2495.52C671.756 2494.72 672.039 2493.95 672.577 2493.36C673.115 2492.77 673.864 2492.42 674.66 2492.39C682.27 2491.71 690.15 2490.61 698.07 2489.12C698.852 2488.97 699.661 2489.15 700.317 2489.6C700.973 2490.05 701.424 2490.74 701.57 2491.52C701.716 2492.3 701.545 2493.11 701.095 2493.77C700.645 2494.42 699.952 2494.87 699.17 2495.02C691.06 2496.54 683 2497.67 675.17 2498.37L674.92 2498.39ZM632.01 2498.07H631.69C538 2488 474 2417.18 447.58 2359.65L447.53 2359.55C443.02 2348.62 438.25 2335.74 433.6 2321.47C415.584 2332.15 395.593 2339.08 374.83 2341.84C360.54 2343.84 347.31 2343.29 335.5 2340.21C335.103 2340.13 334.727 2339.96 334.395 2339.73C334.062 2339.5 333.781 2339.2 333.567 2338.85C333.354 2338.51 333.212 2338.12 333.152 2337.72C333.091 2337.32 333.113 2336.91 333.215 2336.52C333.317 2336.13 333.498 2335.76 333.747 2335.44C333.995 2335.12 334.306 2334.85 334.661 2334.65C335.016 2334.45 335.407 2334.33 335.811 2334.29C336.215 2334.25 336.623 2334.29 337.01 2334.41C348.01 2337.28 360.5 2337.78 374.01 2335.9C394.444 2333.18 414.093 2326.26 431.72 2315.57C406.31 2234.83 386.15 2113.93 434.59 2046.15C455.85 2016.4 475.83 2004.04 493.98 2009.39C518.78 2016.71 533.49 2057.7 535.19 2094.39V2094.49C535.98 2157.25 515.07 2268.33 438.85 2318.16C444.85 2336.74 450.26 2350.43 453.05 2357.16C478.8 2413.25 541.19 2482.22 632.37 2492.05C633.166 2492.09 633.912 2492.45 634.444 2493.04C634.977 2493.63 635.252 2494.41 635.21 2495.21C635.168 2496.01 634.811 2496.75 634.218 2497.28C633.626 2497.82 632.846 2498.09 632.05 2498.05L632.01 2498.07ZM485.83 2014.22C472.01 2014.22 456.14 2026.3 439.46 2049.63C414.63 2084.38 405.83 2138.91 414.01 2207.33C418.84 2247.8 428.32 2284.65 436.95 2312.22C509.9 2263.35 529.95 2155.65 529.19 2094.64C527.61 2060.91 514.14 2021.64 492.27 2015.14C490.178 2014.53 488.01 2014.22 485.83 2014.22ZM708.28 2493.06C707.538 2493.07 706.82 2492.8 706.265 2492.31C705.71 2491.81 705.356 2491.13 705.273 2490.4C705.189 2489.66 705.382 2488.92 705.814 2488.31C706.246 2487.71 706.885 2487.29 707.61 2487.13C715.38 2485.36 723.39 2483.13 731.41 2480.56C732.169 2480.32 732.993 2480.38 733.702 2480.75C734.411 2481.11 734.946 2481.74 735.19 2482.5C735.434 2483.26 735.367 2484.08 735.003 2484.79C734.639 2485.5 734.009 2486.04 733.25 2486.28C725.06 2488.92 716.89 2491.18 708.95 2492.98C708.731 2493.04 708.506 2493.06 708.28 2493.06ZM740.68 2483.58C739.972 2483.58 739.286 2483.33 738.744 2482.87C738.202 2482.42 737.839 2481.79 737.719 2481.09C737.599 2480.39 737.73 2479.67 738.089 2479.06C738.448 2478.45 739.012 2477.99 739.68 2477.75C756.73 2471.62 773.291 2464.2 789.22 2455.57C789.917 2455.23 790.718 2455.17 791.456 2455.41C792.193 2455.65 792.811 2456.16 793.178 2456.84C793.545 2457.53 793.634 2458.33 793.425 2459.07C793.217 2459.82 792.728 2460.46 792.06 2460.85C775.864 2469.63 759.026 2477.17 741.69 2483.41C741.365 2483.52 741.024 2483.58 740.68 2483.58ZM328.68 2337.91C328.318 2337.91 327.959 2337.85 327.62 2337.72C319.624 2334.7 312.189 2330.37 305.62 2324.9C305.317 2324.65 305.066 2324.34 304.882 2323.99C304.698 2323.64 304.584 2323.26 304.548 2322.87C304.511 2322.48 304.552 2322.08 304.668 2321.7C304.784 2321.33 304.974 2320.98 305.225 2320.68C305.477 2320.37 305.785 2320.12 306.134 2319.94C306.482 2319.75 306.863 2319.64 307.256 2319.6C307.648 2319.57 308.044 2319.61 308.42 2319.72C308.797 2319.84 309.147 2320.03 309.45 2320.28C315.512 2325.33 322.377 2329.32 329.76 2332.1C330.419 2332.35 330.97 2332.82 331.317 2333.43C331.665 2334.04 331.787 2334.75 331.662 2335.44C331.536 2336.14 331.173 2336.76 330.633 2337.21C330.094 2337.66 329.413 2337.91 328.71 2337.91H328.68ZM299.14 2317.58C298.721 2317.58 298.306 2317.49 297.924 2317.32C297.542 2317.14 297.2 2316.89 296.92 2316.58C291.961 2311.08 287.603 2305.07 283.92 2298.65C283.522 2297.96 283.415 2297.14 283.621 2296.37C283.827 2295.6 284.33 2294.95 285.02 2294.55C285.71 2294.15 286.529 2294.04 287.298 2294.25C288.067 2294.46 288.722 2294.96 289.12 2295.65C292.578 2301.7 296.671 2307.36 301.33 2312.54C301.715 2312.97 301.968 2313.5 302.058 2314.07C302.147 2314.64 302.07 2315.23 301.836 2315.76C301.601 2316.29 301.219 2316.73 300.736 2317.05C300.252 2317.37 299.688 2317.54 299.11 2317.54L299.14 2317.58ZM278.08 2282.58C277.48 2282.58 276.894 2282.4 276.397 2282.07C275.899 2281.73 275.514 2281.26 275.29 2280.7C263.83 2252.19 258.08 2214.78 258.19 2169.51C258.429 2132.71 262.014 2096.02 268.9 2059.87C268.97 2059.48 269.117 2059.1 269.332 2058.77C269.548 2058.44 269.827 2058.15 270.155 2057.92C270.483 2057.7 270.853 2057.54 271.242 2057.46C271.632 2057.38 272.033 2057.37 272.424 2057.45C272.814 2057.53 273.186 2057.68 273.517 2057.9C273.848 2058.12 274.132 2058.4 274.352 2058.73C274.572 2059.07 274.724 2059.44 274.8 2059.83C274.875 2060.22 274.872 2060.62 274.79 2061.01C267.976 2096.79 264.428 2133.11 264.19 2169.53C264.08 2214.02 269.69 2250.67 280.86 2278.46C281.156 2279.2 281.146 2280.02 280.833 2280.76C280.52 2281.49 279.929 2282.06 279.19 2282.36C278.838 2282.52 278.457 2282.61 278.07 2282.62L278.08 2282.58Z" fill="#FFFFFF"/>
<path d="M339 1607.5C338.445 1607.5 337.902 1607.34 337.43 1607.05C336.958 1606.76 336.576 1606.35 336.326 1605.85C336.076 1605.36 335.969 1604.8 336.015 1604.25C336.062 1603.7 336.261 1603.17 336.59 1602.72L791.59 985.8C792.062 985.16 792.769 984.733 793.556 984.614C794.343 984.495 795.145 984.693 795.785 985.165C796.426 985.637 796.852 986.344 796.971 987.131C797.09 987.918 796.892 988.72 796.42 989.36L341.42 1606.28C341.141 1606.66 340.776 1606.97 340.356 1607.18C339.935 1607.39 339.471 1607.5 339 1607.5ZM509.23 1574C508.459 1574 507.718 1573.7 507.16 1573.17C506.583 1572.62 506.248 1571.87 506.227 1571.07C506.207 1570.28 506.503 1569.51 507.05 1568.93L669 1398.65C669.549 1398.07 670.305 1397.74 671.101 1397.72C671.897 1397.7 672.668 1398 673.245 1398.55C673.822 1399.09 674.157 1399.85 674.177 1400.65C674.196 1401.44 673.899 1402.21 673.35 1402.79L511.4 1573.07C511.12 1573.36 510.783 1573.6 510.41 1573.76C510.037 1573.92 509.636 1574 509.23 1574ZM728 990.58C727.264 990.584 726.552 990.317 726 989.83C725.405 989.303 725.044 988.562 724.995 987.769C724.947 986.976 725.214 986.196 725.74 985.6L740 969.47C740.53 968.875 741.276 968.514 742.072 968.468C742.868 968.422 743.65 968.695 744.245 969.225C744.84 969.756 745.201 970.501 745.247 971.297C745.293 972.093 745.02 972.875 744.49 973.47L730.24 989.59C729.957 989.903 729.612 990.153 729.226 990.324C728.84 990.495 728.422 990.582 728 990.58ZM734.57 941.58C734.104 941.581 733.645 941.472 733.23 941.26C732.525 940.904 731.989 940.284 731.738 939.535C731.487 938.787 731.542 937.969 731.89 937.26L739.56 921.91C739.737 921.557 739.981 921.243 740.279 920.985C740.577 920.727 740.923 920.53 741.298 920.405C741.672 920.281 742.067 920.231 742.46 920.26C742.853 920.288 743.237 920.393 743.59 920.57C743.943 920.747 744.257 920.991 744.515 921.289C744.773 921.587 744.97 921.933 745.095 922.308C745.219 922.682 745.269 923.077 745.24 923.47C745.212 923.864 745.107 924.247 744.93 924.6L737.26 939.94C737.007 940.438 736.62 940.855 736.143 941.144C735.666 941.434 735.118 941.585 734.56 941.58H734.57ZM881.44 868.14C880.867 868.138 880.307 867.973 879.826 867.663C879.344 867.353 878.962 866.911 878.723 866.391C878.484 865.87 878.399 865.292 878.479 864.725C878.558 864.158 878.798 863.625 879.17 863.19L898.9 840.19C899.149 839.869 899.461 839.602 899.816 839.404C900.171 839.207 900.563 839.084 900.967 839.043C901.372 839.002 901.78 839.044 902.168 839.165C902.556 839.287 902.915 839.486 903.224 839.75C903.532 840.015 903.784 840.339 903.963 840.704C904.143 841.068 904.246 841.466 904.267 841.872C904.288 842.277 904.227 842.683 904.086 843.065C903.946 843.446 903.729 843.795 903.45 844.09L883.72 867.09C883.437 867.421 883.086 867.686 882.691 867.867C882.295 868.048 881.865 868.142 881.43 868.14H881.44Z" fill="#FFFFFF"/>
<path d="M908.66 488.76C907.962 488.759 907.286 488.515 906.749 488.07C906.211 487.625 905.846 487.006 905.715 486.32C905.585 485.634 905.698 484.924 906.035 484.313C906.371 483.701 906.911 483.227 907.56 482.97C911.355 481.491 915.032 479.726 918.56 477.69C918.844 477.518 919.155 477.396 919.48 477.33C919.694 477.075 919.947 476.856 920.23 476.68C921.81 475.68 923.34 474.68 924.77 473.57C925.071 473.347 925.41 473.181 925.77 473.08C925.955 472.76 926.196 472.476 926.48 472.24C927.85 471.12 929.17 469.95 930.38 468.74C930.648 468.477 930.964 468.267 931.31 468.12C931.442 467.765 931.646 467.442 931.91 467.17C932.577 466.437 933.217 465.697 933.83 464.95C934.085 464.639 934.399 464.382 934.754 464.195C935.11 464.008 935.5 463.894 935.9 463.86C935.818 463.468 935.816 463.063 935.893 462.669C935.971 462.276 936.126 461.902 936.35 461.57C947.66 444.81 944.91 424.46 939.11 412.09C938.01 409.98 936.76 407.74 935.36 405.42C914.7 410.56 892.07 397.72 881.01 388.14L880.94 388.08C871.44 379.28 869.37 370.39 871.52 365.5C873.67 360.61 879.66 358.35 889.17 359.11C908.61 360.69 927.02 381.57 937.94 398.28C941.515 396.85 944.806 394.795 947.66 392.21C949.61 390.54 951.211 388.501 952.37 386.21C952.739 385.832 952.949 385.328 952.96 384.8C953.482 383.322 953.755 381.768 953.77 380.2C953.761 379.788 953.839 379.379 954 379C953.795 378.662 953.666 378.283 953.62 377.89C953.421 376.457 953.069 375.049 952.57 373.69C952.304 372.954 952.336 372.143 952.66 371.43C951.909 371.202 951.277 370.689 950.9 370C944.18 357.33 926.98 344.54 914.3 337.43C913.605 337.041 913.093 336.393 912.877 335.627C912.66 334.861 912.757 334.04 913.145 333.345C913.534 332.65 914.182 332.138 914.948 331.921C915.714 331.705 916.535 331.801 917.23 332.19C931.23 340.06 948.88 353.38 956.23 367.19C956.444 367.597 956.562 368.047 956.574 368.507C956.586 368.966 956.492 369.422 956.3 369.84C956.745 369.977 957.151 370.215 957.488 370.536C957.825 370.857 958.082 371.252 958.24 371.69C958.878 373.452 959.33 375.275 959.59 377.13C959.659 377.663 959.587 378.204 959.38 378.7C959.651 379.164 959.789 379.693 959.78 380.23C959.763 382.466 959.371 384.684 958.62 386.79C958.5 387.134 958.317 387.453 958.08 387.73C958.046 388.077 957.951 388.415 957.8 388.73C956.303 391.745 954.223 394.434 951.68 396.64C948.569 399.459 945.019 401.753 941.17 403.43C942.43 405.55 943.53 407.54 944.47 409.35V409.45C950.96 423.24 954.01 446.03 941.28 464.9C941.03 465.271 940.699 465.581 940.313 465.808C939.928 466.034 939.496 466.172 939.05 466.21C939.14 466.646 939.132 467.096 939.027 467.529C938.921 467.961 938.721 468.365 938.44 468.71C937.75 469.56 937.02 470.4 936.27 471.21C935.993 471.519 935.651 471.765 935.27 471.93C935.114 472.324 934.88 472.681 934.58 472.98C933.23 474.32 931.77 475.63 930.25 476.87C929.929 477.124 929.563 477.314 929.17 477.43C928.962 477.78 928.691 478.089 928.37 478.34C926.79 479.52 925.12 480.67 923.37 481.74C923.064 481.933 922.725 482.068 922.37 482.14C922.14 482.419 921.862 482.656 921.55 482.84C917.761 485.026 913.813 486.925 909.74 488.52C909.399 488.67 909.032 488.751 908.66 488.76ZM885 383.64C894.72 392.04 914.15 403.3 931.93 400.01C921.09 383.85 904.53 366.38 888.7 365.1C882.3 364.58 878.05 365.6 877.03 367.91C875.56 371.17 879.13 378.22 885 383.64Z" fill="#FFFFFF"/>
<path d="M804 2078.18C803.827 2078.2 803.653 2078.2 803.48 2078.18C803.288 2078.15 803.1 2078.1 802.92 2078.03L567.3 1992.23V1990.13C567.3 1986.13 568.3 1972.25 581.3 1959.97C589.3 1952.36 603.98 1943.84 629.55 1942.56C606.05 1932.14 569.72 1912.38 571.7 1890.56C572.98 1876.56 589.56 1865.5 622.21 1857.13C569.71 1853.68 544.21 1845.34 540.43 1830.69C537.33 1818.69 549.78 1804.46 578.52 1787.07L578.94 1786.86L802.94 1695.64C803.305 1695.49 803.696 1695.42 804.09 1695.42C804.484 1695.42 804.874 1695.5 805.237 1695.66C805.6 1695.81 805.929 1696.03 806.206 1696.31C806.483 1696.59 806.702 1696.92 806.85 1697.29C806.998 1697.66 807.073 1698.05 807.071 1698.44C807.068 1698.83 806.988 1699.22 806.835 1699.59C806.682 1699.95 806.458 1700.28 806.178 1700.56C805.897 1700.83 805.565 1701.05 805.2 1701.2L581.4 1792.33C549.4 1811.69 544.63 1823.06 546.22 1829.18C547.57 1834.39 555.05 1841.66 583.02 1846.71C603.58 1850.42 628.23 1851.71 644.97 1852.26L645.41 1858.26C590.96 1868.39 578.51 1881.74 577.66 1891.16C576.1 1908.27 610.83 1929.48 645.93 1942.9L644.69 1948.69C618.37 1947.18 597.87 1952.6 585.4 1964.38C575.83 1973.38 573.75 1983.28 573.34 1988.11L797.75 2069.79C790.37 2053.11 790.68 2034.95 798.87 2019.94C815.7 1989.13 860.79 1975.94 904.87 1970.72C886.29 1968.61 869.53 1966.04 855.87 1963.2C826.15 1956.99 812.11 1949.88 811.7 1940.83C811.24 1930.94 825.58 1915.4 951.34 1893.42C924.34 1885.81 884.08 1873.21 849.76 1857.5C810.13 1839.37 790.59 1822.36 791.67 1806.96C793.08 1786.79 828.76 1771.96 900.58 1761.85C857.58 1752.13 819.04 1740.42 814.3 1720.95C812.2 1712.3 816.98 1703.11 828.5 1693.65C829.115 1693.14 829.906 1692.9 830.698 1692.98C831.491 1693.06 832.22 1693.45 832.725 1694.06C833.23 1694.68 833.47 1695.47 833.393 1696.26C833.315 1697.06 832.925 1697.78 832.31 1698.29C822.72 1706.16 818.62 1713.29 820.13 1719.53C825.02 1739.62 885.53 1752.6 918.31 1759.59H1223.18C1223.98 1759.59 1224.74 1759.91 1225.3 1760.47C1225.86 1761.03 1226.18 1761.79 1226.18 1762.59C1226.18 1763.39 1225.86 1764.15 1225.3 1764.71C1224.74 1765.27 1223.98 1765.59 1223.18 1765.59H918.18C876.43 1770.69 844.97 1777.26 824.69 1785.1C807.32 1791.82 798.23 1799.32 797.69 1807.38C795.85 1833.69 880.87 1868.43 965.95 1891.2L965.67 1897.06C912.82 1905.93 873.4 1914.58 848.51 1922.77C819.63 1932.27 817.65 1938.77 817.73 1940.56C817.82 1942.56 820.94 1949.76 857.14 1957.32C878.69 1961.82 908.28 1965.62 940.47 1968.02H1739.4C1740.2 1968.02 1740.96 1968.34 1741.52 1968.9C1742.08 1969.46 1742.4 1970.22 1742.4 1971.02C1742.4 1971.82 1742.08 1972.58 1741.52 1973.14C1740.96 1973.7 1740.2 1974.02 1739.4 1974.02H940.49C847.91 1977.59 815.27 2002.53 804.19 2022.82C792.69 2043.89 801.49 2064.49 805.71 2072.23H1269.2C1270 2072.23 1270.76 2072.55 1271.32 2073.11C1271.88 2073.67 1272.2 2074.43 1272.2 2075.23C1272.2 2076.03 1271.88 2076.79 1271.32 2077.35C1270.76 2077.91 1270 2078.23 1269.2 2078.23H804V2078.18ZM2796.45 2078.18C2795.65 2078.18 2794.89 2077.86 2794.33 2077.3C2793.77 2076.74 2793.45 2075.98 2793.45 2075.18V1663.81H2139.3C2138.5 1663.81 2137.74 1663.49 2137.18 1662.93C2136.62 1662.37 2136.3 1661.61 2136.3 1660.81C2136.3 1660.01 2136.62 1659.25 2137.18 1658.69C2137.74 1658.13 2138.5 1657.81 2139.3 1657.81H2799.41V2075.18C2799.41 2075.57 2799.33 2075.96 2799.18 2076.33C2799.03 2076.69 2798.81 2077.02 2798.53 2077.3C2798.25 2077.58 2797.92 2077.8 2797.56 2077.95C2797.19 2078.1 2796.8 2078.18 2796.41 2078.18H2796.45ZM2616.35 2078.18H2109.25C2108.45 2078.18 2107.69 2077.86 2107.13 2077.3C2106.57 2076.74 2106.25 2075.98 2106.25 2075.18C2106.25 2074.38 2106.57 2073.62 2107.13 2073.06C2107.69 2072.5 2108.45 2072.18 2109.25 2072.18H2616.35C2617.15 2072.18 2617.91 2072.5 2618.47 2073.06C2619.03 2073.62 2619.35 2074.38 2619.35 2075.18C2619.35 2075.98 2619.03 2076.74 2618.47 2077.3C2617.91 2077.86 2617.15 2078.18 2616.35 2078.18ZM1606.48 2078.18H1516.77C1515.97 2078.18 1515.21 2077.86 1514.65 2077.3C1514.09 2076.74 1513.77 2075.98 1513.77 2075.18C1513.77 2074.38 1514.09 2073.62 1514.65 2073.06C1515.21 2072.5 1515.97 2072.18 1516.77 2072.18H1606.48C1607.28 2072.18 1608.04 2072.5 1608.6 2073.06C1609.16 2073.62 1609.48 2074.38 1609.48 2075.18C1609.48 2075.98 1609.16 2076.74 1608.6 2077.3C1608.04 2077.86 1607.28 2078.18 1606.48 2078.18ZM1423.74 2078.18H1320.74C1319.94 2078.18 1319.18 2077.86 1318.62 2077.3C1318.06 2076.74 1317.74 2075.98 1317.74 2075.18C1317.74 2074.38 1318.06 2073.62 1318.62 2073.06C1319.18 2072.5 1319.94 2072.18 1320.74 2072.18H1423.74C1424.54 2072.18 1425.3 2072.5 1425.86 2073.06C1426.42 2073.62 1426.74 2074.38 1426.74 2075.18C1426.74 2075.98 1426.42 2076.74 1425.86 2077.3C1425.3 2077.86 1424.54 2078.18 1423.74 2078.18ZM2610.32 1974H2183.54C2182.74 1974 2181.98 1973.68 2181.42 1973.12C2180.86 1972.56 2180.54 1971.8 2180.54 1971C2180.54 1970.2 2180.86 1969.44 2181.42 1968.88C2181.98 1968.32 2182.74 1968 2183.54 1968H2610.32C2611.12 1968 2611.88 1968.32 2612.44 1968.88C2613 1969.44 2613.32 1970.2 2613.32 1971C2613.32 1971.8 2613 1972.56 2612.44 1973.12C2611.88 1973.68 2611.12 1974 2610.32 1974ZM2672.32 1765.57H2131.32C2130.52 1765.57 2129.76 1765.25 2129.2 1764.69C2128.64 1764.13 2128.32 1763.37 2128.32 1762.57C2128.32 1761.77 2128.64 1761.01 2129.2 1760.45C2129.76 1759.89 2130.52 1759.57 2131.32 1759.57H2672.32C2673.12 1759.57 2673.88 1759.89 2674.44 1760.45C2675 1761.01 2675.32 1761.77 2675.32 1762.57C2675.32 1763.37 2675 1764.13 2674.44 1764.69C2673.88 1765.25 2673.12 1765.57 2672.32 1765.57ZM1811.46 1765.57H1471.42C1470.62 1765.57 1469.86 1765.25 1469.3 1764.69C1468.74 1764.13 1468.42 1763.37 1468.42 1762.57C1468.42 1761.77 1468.74 1761.01 1469.3 1760.45C1469.86 1759.89 1470.62 1759.57 1471.42 1759.57H1811.49C1812.29 1759.57 1813.05 1759.89 1813.61 1760.45C1814.17 1761.01 1814.49 1761.77 1814.49 1762.57C1814.49 1763.37 1814.17 1764.13 1813.61 1764.69C1813.05 1765.25 1812.29 1765.57 1811.49 1765.57H1811.46ZM1835 1663.81H1009C1008.2 1663.81 1007.44 1663.49 1006.88 1662.93C1006.32 1662.37 1006 1661.61 1006 1660.81C1006 1660.01 1006.32 1659.25 1006.88 1658.69C1007.44 1658.13 1008.2 1657.81 1009 1657.81H1835C1835.8 1657.81 1836.56 1658.13 1837.12 1658.69C1837.68 1659.25 1838 1660.01 1838 1660.81C1838 1661.61 1837.68 1662.37 1837.12 1662.93C1836.56 1663.49 1835.8 1663.81 1835 1663.81Z" fill="#FEDA00"/>
<path d="M311.72 1901.43L573.89 1995.71C588.5 1944.85 657.4 1950.97 673.77 1950.97C654.13 1944.89 609.48 1921.03 597.98 1912.46C593.11 1907.2 569.26 1891.89 590.36 1876.65C603.08 1867.47 737.36 1849.86 756.46 1846.94C733.85 1846.55 588.72 1853.94 573.89 1828.63C562.66 1809.46 590.51 1782.63 607.89 1773.29L311.72 1901.43Z" fill="#FFFFFF"/>
<path d="M2041 1190.15C2028.59 1190.15 2015 1186.26 1999.53 1178.36H1999.43L1834.82 1086.36C1834.14 1085.96 1833.65 1085.32 1833.44 1084.56C1833.23 1083.8 1833.33 1083 1833.71 1082.31C1834.1 1081.62 1834.73 1081.12 1835.48 1080.89C1836.24 1080.67 1837.05 1080.75 1837.74 1081.12L2002.3 1173.12C2024.74 1184.54 2042.61 1187.12 2058.54 1181.06C2074.47 1175 2089.23 1160.24 2104.9 1134.5C2118.14 1112.74 2125.44 1066.28 2126.01 1000.13C2126.6 930.24 2119.81 864.96 2117.72 846.62L2117.48 844.53L2214.56 796.69L2224.09 776.37C2224.26 776.013 2224.49 775.692 2224.78 775.426C2225.07 775.16 2225.41 774.953 2225.78 774.819C2226.15 774.684 2226.55 774.624 2226.94 774.641C2227.34 774.658 2227.72 774.753 2228.08 774.92C2228.44 775.087 2228.76 775.322 2229.02 775.613C2229.29 775.904 2229.5 776.244 2229.63 776.615C2229.77 776.985 2229.83 777.379 2229.81 777.772C2229.79 778.166 2229.7 778.553 2229.53 778.91L2219.1 801.14L2124 848C2132.86 927.17 2141.11 1086.65 2110.1 1137.58C2093.71 1164.52 2078.02 1180.11 2060.74 1186.58C2054.43 1188.97 2047.74 1190.18 2041 1190.15ZM1968.15 1079.07C1967.85 1079.07 1967.55 1079.03 1967.26 1078.93C1966.88 1078.82 1966.53 1078.63 1966.22 1078.38C1965.92 1078.13 1965.67 1077.82 1965.48 1077.47C1965.3 1077.12 1965.18 1076.74 1965.14 1076.35C1965.1 1075.95 1965.14 1075.56 1965.26 1075.18L1977 1037.5L1876.2 965.14C1875.55 964.676 1875.12 963.974 1874.99 963.188C1874.86 962.402 1875.05 961.597 1875.51 960.95C1875.97 960.303 1876.68 959.867 1877.46 959.737C1878.25 959.608 1879.05 959.796 1879.7 960.26L1978.94 1031.46L2049.89 804L2088.29 775.38C2088.6 775.128 2088.97 774.941 2089.35 774.832C2089.74 774.723 2090.15 774.693 2090.55 774.744C2090.95 774.795 2091.33 774.927 2091.68 775.13C2092.03 775.334 2092.33 775.605 2092.57 775.929C2092.81 776.252 2092.99 776.621 2093.08 777.012C2093.18 777.404 2093.19 777.811 2093.13 778.209C2093.06 778.607 2092.92 778.987 2092.7 779.327C2092.48 779.668 2092.2 779.961 2091.87 780.19L2055 807.62L1983.43 1037.15C1983.43 1037.15 1983.43 1037.23 1983.43 1037.28L1971 1077C1970.81 1077.6 1970.43 1078.12 1969.92 1078.49C1969.42 1078.86 1968.81 1079.06 1968.18 1079.07H1968.15Z" fill="#FFFFFF"/>
<path d="M2090.65 2351.35H1783.77H1619.48L1841.41 1663.35H1389.15L1384.06 1327.12V1284.2H1390.06V1324H1775.94L1762.57 1287L1768.21 1285L1783.01 1326L1796.4 1358.1L1918.71 1130.81L1923.99 1133.65L1795.72 1372L1778.21 1330H1459.76L1430.06 1564.48H1976.79L1975.9 1568.19L1787.58 2345.31H2085.09L2143.5 1567.31C2143.67 1563.77 2143.65 1560.23 2143.42 1556.7C2141.73 1533.15 2133.29 1510.58 2119.12 1491.7C2100.21 1466.33 2072.36 1448.46 2036.34 1438.58C2017.34 1433.38 1996.02 1430.44 1972.9 1429.85C1949.78 1429.26 1922.75 1429.46 1892.16 1430.47C1745.23 1435.35 1549.82 1457.47 1457.52 1469.68L1456.72 1463.74C1548.85 1451.49 1743.6 1429.5 1890.62 1424.52L2319 910.2L2280.69 1553.5H2376.51C2390.13 1505.91 2432.97 1349.5 2455.64 1190.09C2477.45 1036.65 2471.76 935.98 2439.16 898.96C2404.92 862.41 2364.9 843.84 2320.27 843.84H2319C2272.57 844.21 2195.32 870.01 2130.43 941.53L2125.99 937.53C2149.58 911.852 2176.86 889.831 2206.93 872.19C2245.44 849.7 2283.13 838.19 2318.93 837.87H2320.26C2366.62 837.87 2408.1 857.07 2443.58 894.96C2477.92 933.96 2483.94 1033.52 2461.58 1190.96C2438.5 1353.28 2394.58 1512.44 2381.65 1557.36L2381.03 1559.53H2277.5H2149.56C2149.65 1562.3 2149.63 1565.04 2149.49 1567.71L2090.65 2351.35ZM1627.72 2345.35H1781.41L1969.17 1570.52H1423.26L1453.72 1330H1390.11L1395.11 1657.28H1849.7L1627.72 2345.35ZM2149.19 1553.5H2274.67L2311.91 928.07L1898.64 1424.25C1926.64 1423.42 1951.64 1423.25 1973.06 1423.84C1995.72 1424.42 2016.75 1427.22 2035.61 1432.17L2258.88 1015.58L2264.16 1018.42L2041.54 1433.81C2077.14 1444.24 2104.85 1462.49 2123.93 1488.11C2138.21 1507.17 2146.95 1529.79 2149.19 1553.5Z" fill="#FFFFFF"/>
<path d="M1647 2449.07L1712 2346.84H1912.5L1897.89 2398.61L2091.73 2702.61L2079.78 2715.88L1731.93 2496.82L1747.87 2438.4L1700.07 2483.54L1647 2449.07Z" fill="#FFFFFF"/>
<path d="M2170.05 1624.51L2158.42 1662.08L2141.04 1661.89L2146.31 1556.07H2284.39L2529.32 1648.8L2527.16 1661.58H2181.65L2170.05 1624.51Z" fill="#FFFFFF"/>
<path d="M1618.51 839.22H1573.73V805C1573.73 804.204 1574.05 803.441 1574.61 802.879C1575.17 802.316 1575.93 802 1576.73 802C1577.53 802 1578.29 802.316 1578.85 802.879C1579.41 803.441 1579.73 804.204 1579.73 805V833.23H1618.51C1619.31 833.23 1620.07 833.546 1620.63 834.109C1621.19 834.671 1621.51 835.434 1621.51 836.23C1621.51 837.026 1621.19 837.789 1620.63 838.351C1620.07 838.914 1619.31 839.23 1618.51 839.23V839.22ZM1501.25 839.22H1458C1457.2 839.22 1456.44 838.904 1455.88 838.341C1455.32 837.779 1455 837.015 1455 836.22C1455 835.424 1455.32 834.661 1455.88 834.099C1456.44 833.536 1457.2 833.22 1458 833.22H1495.22V789.4C1495.22 788.604 1495.54 787.841 1496.1 787.279C1496.66 786.716 1497.42 786.4 1498.22 786.4C1499.02 786.4 1499.78 786.716 1500.34 787.279C1500.9 787.841 1501.22 788.604 1501.22 789.4L1501.25 839.22Z" fill="#FFFFFF"/>
<path d="M1499.88 803.69V788.25L1491.01 776.25C1534.95 727.25 1556.42 684.71 1561.67 669.55C1571.98 678.227 1583.68 685.094 1596.28 689.86C1599.94 696.96 1602 706.36 1602.57 710.17C1604.76 730.48 1602.45 776.82 1575.68 799.7C1548.91 822.58 1518 805.23 1505.89 793.7C1508.27 798.84 1513.1 808.42 1520.76 815.15C1537.67 830.01 1569.48 828.5 1577.68 824.3V805.13L1631.17 799.69C1620.97 732.28 1583.58 602.69 1515.61 623.49C1447.64 644.29 1436.61 753.26 1439.52 805.13L1499.88 803.69Z" fill="#FFFFFF"/>
<path d="M1588.41 772.69C1579.98 772.591 1571.77 770.045 1564.76 765.36C1564.1 764.912 1563.64 764.218 1563.49 763.433C1563.34 762.647 1563.5 761.833 1563.95 761.17C1564.4 760.507 1565.09 760.049 1565.88 759.897C1566.66 759.745 1567.48 759.912 1568.14 760.36C1573.01 763.612 1578.58 765.668 1584.4 766.36C1579.3 760.299 1575.81 753.049 1574.25 745.281C1572.7 737.513 1573.13 729.478 1575.5 721.92C1579.93 708.31 1591.83 702.6 1601.5 701.79C1602.3 701.724 1603.08 701.976 1603.69 702.492C1604.3 703.008 1604.68 703.744 1604.75 704.54C1604.82 705.336 1604.56 706.125 1604.05 706.735C1603.53 707.344 1602.8 707.724 1602 707.79C1594.25 708.44 1584.72 712.98 1581.2 723.79C1576.2 739.16 1581.3 756.95 1593.62 767.05L1597.68 770.37L1592.75 772.18C1591.34 772.564 1589.87 772.736 1588.41 772.69Z" fill="#FFFFFF"/>
<path d="M1525 728.18C1524.49 728.18 1523.99 728.052 1523.55 727.808C1523.11 727.563 1522.73 727.21 1522.46 726.782C1522.19 726.354 1522.03 725.864 1522 725.358C1521.97 724.852 1522.07 724.347 1522.29 723.89C1530.51 706.64 1547.08 707.58 1554.69 710.49C1555.07 710.619 1555.43 710.824 1555.73 711.092C1556.03 711.361 1556.28 711.688 1556.45 712.054C1556.62 712.419 1556.72 712.816 1556.73 713.22C1556.75 713.624 1556.68 714.027 1556.54 714.405C1556.39 714.782 1556.17 715.127 1555.89 715.418C1555.61 715.709 1555.28 715.94 1554.9 716.097C1554.53 716.255 1554.13 716.335 1553.73 716.334C1553.32 716.333 1552.92 716.25 1552.55 716.09C1546.73 713.87 1534.04 713.18 1527.71 726.47C1527.47 726.982 1527.08 727.414 1526.6 727.717C1526.12 728.02 1525.57 728.18 1525 728.18Z" fill="#FFFFFF"/>
<path d="M1563.89 788.47C1560.95 788.52 1558.03 787.964 1555.32 786.835C1552.6 785.706 1550.15 784.03 1548.11 781.91C1547.83 781.627 1547.6 781.29 1547.45 780.919C1547.3 780.548 1547.23 780.151 1547.24 779.751C1547.24 779.351 1547.33 778.956 1547.49 778.59C1547.65 778.223 1547.88 777.893 1548.17 777.617C1548.46 777.342 1548.8 777.127 1549.18 776.986C1549.55 776.845 1549.95 776.78 1550.35 776.795C1550.75 776.81 1551.14 776.905 1551.5 777.074C1551.87 777.243 1552.19 777.483 1552.46 777.78C1557.83 783.43 1565.31 782.89 1568.46 781.78C1569.21 781.546 1570.02 781.615 1570.72 781.973C1571.42 782.331 1571.95 782.948 1572.2 783.693C1572.45 784.439 1572.39 785.251 1572.05 785.957C1571.71 786.664 1571.1 787.207 1570.36 787.47C1568.27 788.134 1566.09 788.471 1563.89 788.47Z" fill="#FFFFFF"/>
<path d="M1526.33 738.44C1525.77 738.441 1525.21 738.283 1524.73 737.984C1524.26 737.686 1523.87 737.258 1523.63 736.75C1523.38 736.243 1523.28 735.676 1523.34 735.116C1523.4 734.555 1523.62 734.023 1523.97 733.58C1528.78 727.49 1534.29 724.33 1540.35 724.18C1547.4 724.01 1553.56 728.18 1556.98 732.07C1557.26 732.364 1557.47 732.711 1557.61 733.089C1557.75 733.468 1557.81 733.87 1557.79 734.272C1557.77 734.675 1557.66 735.069 1557.49 735.432C1557.31 735.794 1557.07 736.117 1556.76 736.382C1556.46 736.647 1556.1 736.848 1555.72 736.973C1555.34 737.098 1554.93 737.144 1554.53 737.11C1554.13 737.075 1553.74 736.96 1553.38 736.771C1553.03 736.582 1552.71 736.323 1552.46 736.01C1550.05 733.25 1545.46 730.07 1540.46 730.18C1536.27 730.28 1532.29 732.68 1528.65 737.3C1528.37 737.651 1528.02 737.935 1527.62 738.133C1527.22 738.33 1526.78 738.435 1526.33 738.44Z" fill="#FFFFFF"/>
<path d="M1578.42 735.46C1577.88 735.46 1577.35 735.313 1576.89 735.036C1576.42 734.76 1576.04 734.363 1575.78 733.887C1575.53 733.412 1575.4 732.876 1575.42 732.336C1575.45 731.796 1575.61 731.272 1575.91 730.82C1580.16 724.32 1585.37 720.68 1591.39 719.99C1598.39 719.2 1604.89 722.77 1608.65 726.38C1608.95 726.65 1609.19 726.976 1609.36 727.341C1609.53 727.705 1609.62 728.099 1609.63 728.501C1609.65 728.902 1609.58 729.302 1609.44 729.677C1609.29 730.052 1609.07 730.394 1608.8 730.683C1608.52 730.972 1608.18 731.203 1607.81 731.36C1607.44 731.518 1607.05 731.6 1606.65 731.602C1606.24 731.604 1605.85 731.525 1605.48 731.37C1605.11 731.215 1604.77 730.987 1604.49 730.7C1601.85 728.16 1597.02 725.39 1592.06 725.96C1587.9 726.43 1584.16 729.17 1580.93 734.1C1580.66 734.517 1580.29 734.86 1579.85 735.098C1579.41 735.335 1578.92 735.46 1578.42 735.46Z" fill="#FFFFFF"/>
<path d="M1540.49 739.83C1543.7 739.83 1546.3 737.229 1546.3 734.02C1546.3 730.811 1543.7 728.21 1540.49 728.21C1537.28 728.21 1534.68 730.811 1534.68 734.02C1534.68 737.229 1537.28 739.83 1540.49 739.83Z" fill="#FFFFFF"/>
<path d="M1592.4 735.59C1595.61 735.59 1598.21 732.989 1598.21 729.78C1598.21 726.571 1595.61 723.97 1592.4 723.97C1589.19 723.97 1586.59 726.571 1586.59 729.78C1586.59 732.989 1589.19 735.59 1592.4 735.59Z" fill="#FFFFFF"/>
<path d="M807.76 1701.63C793.66 1701.63 789.34 1694.63 788.01 1690.33C785.57 1682.33 790.01 1671.77 797.78 1667.33L797.99 1667.22L849.86 1642.74L729.16 1623.15H728.99C717.65 1619.92 714.53 1612.15 715.39 1606.04C716.39 1598.58 722.76 1592.74 729.81 1592.74H751.81C746.81 1590.45 742.14 1588.15 739.81 1586.74C736.092 1584.43 733.095 1581.13 731.16 1577.21C726.92 1567.32 730.57 1561.12 733.16 1558.3C734.941 1556.42 737.099 1554.94 739.492 1553.94C741.885 1552.95 744.46 1552.48 747.05 1552.55C744.05 1542.23 748.33 1536.17 751.45 1533.31C755.76 1529.31 762.37 1527.51 768.45 1528.12C767.08 1524.12 768.04 1521.39 768.99 1519.9C771.93 1515.27 779.31 1514.09 789.77 1516.57L963.77 1552.86L1198.86 1073.45L1204.24 1076.09L967.1 1559.61L788.45 1522.36C778.84 1520.08 774.88 1521.72 774.04 1523.04C773.31 1524.19 773.73 1526.93 777.11 1531.17L773.27 1535.65C768.05 1532.65 759.89 1533.59 755.45 1537.65C751.27 1541.49 750.88 1547.46 754.33 1554.93L757.17 1561.08L750.71 1559.08C746.07 1557.62 740.54 1558.97 737.56 1562.27C734.78 1565.35 734.47 1569.67 736.66 1574.79C738.113 1577.59 740.297 1579.94 742.98 1581.6C746.88 1584.03 759.53 1589.72 767.09 1592.95L765.91 1598.71H729.81C725.81 1598.71 721.94 1602.43 721.33 1606.84C720.67 1611.6 724 1615.41 730.47 1617.3L869.91 1639.93L800.67 1672.6C795.43 1675.68 792.13 1683.28 793.75 1688.6C795.31 1693.72 801.31 1696.19 810.64 1695.54H810.85C822.71 1695.54 923.71 1678.54 989 1667.06L1030.09 1646.52L1331.09 1175.24L1336.15 1178.46L1034.26 1651.14L990.9 1672.8L990.47 1672.88C934.28 1682.76 824.67 1701.42 810.96 1701.52C809.84 1701.59 808.78 1701.63 807.76 1701.63Z" fill="#FFFFFF"/>
<path d="M831.12 1606.79H830.75L761.31 1598.26C760.916 1598.21 760.535 1598.09 760.19 1597.89C759.845 1597.69 759.541 1597.43 759.297 1597.12C758.804 1596.49 758.582 1595.69 758.68 1594.89C758.778 1594.09 759.188 1593.37 759.82 1592.88C760.452 1592.38 761.254 1592.16 762.05 1592.26L831.48 1600.79C832.275 1600.84 833.02 1601.2 833.548 1601.8C834.077 1602.39 834.348 1603.17 834.3 1603.97C834.252 1604.77 833.89 1605.51 833.294 1606.04C832.698 1606.57 831.915 1606.84 831.12 1606.79ZM848.34 1589.27C848.034 1589.27 847.73 1589.23 847.44 1589.13L749.68 1558.69C749.284 1558.59 748.912 1558.41 748.588 1558.16C748.264 1557.92 747.993 1557.6 747.794 1557.25C747.594 1556.89 747.469 1556.5 747.426 1556.09C747.383 1555.69 747.423 1555.28 747.545 1554.89C747.666 1554.5 747.865 1554.14 748.131 1553.83C748.397 1553.52 748.723 1553.27 749.089 1553.09C749.456 1552.91 749.855 1552.8 750.262 1552.78C750.67 1552.76 751.078 1552.83 751.46 1552.97L849.23 1583.41C849.911 1583.63 850.493 1584.08 850.871 1584.68C851.249 1585.29 851.397 1586.01 851.29 1586.72C851.183 1587.43 850.827 1588.07 850.286 1588.54C849.745 1589.01 849.055 1589.27 848.34 1589.27ZM864.34 1563.44C864.038 1563.44 863.738 1563.4 863.45 1563.31L773.25 1535.59C772.873 1535.47 772.522 1535.29 772.219 1535.03C771.915 1534.78 771.663 1534.48 771.478 1534.13C771.293 1533.78 771.179 1533.4 771.142 1533.01C771.104 1532.61 771.144 1532.22 771.26 1531.84C771.375 1531.46 771.564 1531.11 771.815 1530.81C772.066 1530.5 772.374 1530.25 772.723 1530.07C773.071 1529.88 773.452 1529.77 773.845 1529.73C774.237 1529.69 774.633 1529.73 775.01 1529.85L865.22 1557.57C865.908 1557.78 866.499 1558.23 866.883 1558.84C867.267 1559.45 867.42 1560.17 867.313 1560.88C867.206 1561.6 866.847 1562.25 866.302 1562.72C865.756 1563.18 865.06 1563.44 864.34 1563.44Z" fill="#FFFFFF"/>
<path d="M1350.19 857.76C1381.97 843.44 1436.03 832.48 1460.1 831.65C1460.1 856.85 1471.49 912.03 1519.69 916.65C1590.4 925.05 1606.41 861.58 1606.29 831.65H1666.39C1728.15 831.65 1757.77 857.95 1774.09 869.3L1886.18 961.46L1828.89 1129.16L1729.26 1078.52L1774.09 1294.38H1383.09L1374.79 1135.81L1330.27 1216L1180.37 1089.36C1224.31 1013.1 1291.85 884.05 1350.19 857.76Z" fill="#FEDA00"/>
<path d="M1373.74 1126.21C1372.94 1126.21 1372.18 1125.89 1371.62 1125.33C1371.06 1124.77 1370.74 1124.01 1370.74 1123.21V1077.78C1370.74 1076.98 1371.06 1076.22 1371.62 1075.66C1372.18 1075.1 1372.94 1074.78 1373.74 1074.78C1374.54 1074.78 1375.3 1075.1 1375.86 1075.66C1376.42 1076.22 1376.74 1076.98 1376.74 1077.78V1123.21C1376.74 1124.01 1376.42 1124.77 1375.86 1125.33C1375.3 1125.89 1374.54 1126.21 1373.74 1126.21ZM1724.12 1066.92C1723.44 1066.92 1722.79 1066.69 1722.26 1066.27C1721.73 1065.85 1721.36 1065.27 1721.2 1064.61L1711.2 1022.25C1711.11 1021.87 1711.09 1021.47 1711.16 1021.08C1711.22 1020.69 1711.36 1020.32 1711.57 1019.98C1711.77 1019.65 1712.05 1019.36 1712.36 1019.13C1712.68 1018.9 1713.05 1018.73 1713.43 1018.64C1713.81 1018.55 1714.21 1018.54 1714.6 1018.6C1714.99 1018.66 1715.36 1018.8 1715.7 1019.01C1716.03 1019.21 1716.32 1019.49 1716.55 1019.81C1716.78 1020.12 1716.95 1020.49 1717.04 1020.87L1727.04 1063.23C1727.13 1063.61 1727.14 1064.01 1727.08 1064.4C1727.02 1064.79 1726.88 1065.16 1726.67 1065.5C1726.47 1065.83 1726.19 1066.12 1725.87 1066.35C1725.56 1066.58 1725.19 1066.75 1724.81 1066.84C1724.58 1066.89 1724.35 1066.92 1724.12 1066.92Z" fill="#FFFFFF"/>
<path d="M2486.07 764.43H2069.74V509.89L2471.35 514.11L2471.51 516.91L2486.07 764.43ZM2075.74 758.43H2479.74L2465.74 520.05L2075.74 515.96V758.43Z" fill="#FFFFFF"/>
<path d="M2488.19 778.21L1916.65 777.85V762.47H2486.06L2488.19 778.21ZM1922.65 771.86L2481.33 772.2L2480.82 768.47H1922.65V771.86Z" fill="#FFFFFF"/>
<path d="M2465.57 751.86H2090.24V522.46L2452.3 526.26L2452.46 529.06L2465.57 751.86ZM2096.24 745.86H2459.24L2446.64 532.2L2096.24 528.52V745.86Z" fill="#FFFFFF"/>
<path d="M2333.67 707H2332.62C2332.4 706.425 2332.02 705.926 2331.52 705.562C2331.03 705.197 2330.44 704.984 2329.82 704.946C2329.21 704.908 2328.59 705.047 2328.06 705.348C2327.52 705.648 2327.08 706.097 2326.79 706.64C2299.01 703.64 2280.03 682.71 2272.22 665.64V665.53C2271.22 662.99 2270.08 660.09 2268.99 656.91C2264.19 659.396 2258.99 661.034 2253.63 661.75C2249.59 662.376 2245.47 662.203 2241.5 661.24C2241.07 661.126 2240.67 660.918 2240.33 660.63C2239.89 660.668 2239.44 660.607 2239.02 660.45C2236.51 659.508 2234.16 658.156 2232.09 656.45C2231.58 656.022 2231.23 655.439 2231.09 654.79C2230.44 654.674 2229.85 654.347 2229.4 653.86C2227.88 652.167 2226.54 650.321 2225.4 648.35C2225.79 647.857 2226.03 647.264 2226.1 646.638C2226.17 646.013 2226.06 645.381 2225.79 644.814C2225.52 644.248 2225.09 643.769 2224.56 643.434C2224.03 643.099 2223.41 642.921 2222.78 642.92C2215.61 625.09 2217.07 597.92 2220.78 578.35C2220.93 577.568 2221.38 576.877 2222.04 576.429C2222.7 575.982 2223.51 575.815 2224.29 575.965C2225.08 576.115 2225.77 576.569 2226.22 577.228C2226.66 577.888 2226.83 578.698 2226.68 579.48C2223.25 597.31 2221.61 624.04 2228.3 640.69C2227.88 641.083 2227.6 641.6 2227.49 642.166C2227.39 642.731 2227.47 643.315 2227.72 643.832C2227.97 644.35 2228.37 644.775 2228.88 645.044C2229.39 645.313 2229.97 645.413 2230.54 645.33C2231.46 646.937 2232.55 648.443 2233.79 649.82C2234.14 650.204 2234.38 650.673 2234.5 651.18C2235.01 651.271 2235.49 651.495 2235.88 651.83C2237.44 653.11 2239.21 654.123 2241.1 654.83C2241.41 654.949 2241.71 655.118 2241.97 655.33C2242.31 655.3 2242.64 655.331 2242.97 655.42C2246.17 656.184 2249.5 656.313 2252.75 655.8C2257.77 655.125 2262.63 653.525 2267.07 651.08C2259.91 627.48 2254.67 593.16 2268.7 573.52C2275.38 564.16 2281.9 560.34 2288.09 562.16C2296.54 564.65 2300.94 577.57 2301.45 588.51V588.61C2301.68 606.73 2295.72 638.5 2274.21 653.7C2275.39 657.26 2276.58 660.46 2277.7 663.18C2284.87 678.76 2302.18 697.89 2327.43 700.61C2327.59 701.169 2327.92 701.666 2328.37 702.031C2328.82 702.395 2329.38 702.611 2329.96 702.647C2330.54 702.683 2331.12 702.538 2331.61 702.233C2332.11 701.927 2332.49 701.475 2332.72 700.94C2333.93 700.94 2335.17 700.94 2336.42 700.88C2336.9 700.858 2337.38 700.955 2337.81 701.16C2338.22 700.9 2338.68 700.743 2339.16 700.7C2341.31 700.51 2343.5 700.2 2345.67 699.79C2346.14 699.702 2346.62 699.726 2347.07 699.86C2347.43 699.554 2347.86 699.341 2348.32 699.24C2350.53 698.73 2352.77 698.11 2354.96 697.4C2355.36 697.264 2355.8 697.219 2356.22 697.27C2356.52 696.978 2356.88 696.753 2357.28 696.61C2362.07 694.887 2366.72 692.804 2371.2 690.38C2371.55 690.175 2371.93 690.042 2372.33 689.989C2372.73 689.937 2373.14 689.966 2373.53 690.074C2373.92 690.183 2374.28 690.369 2374.6 690.621C2374.91 690.874 2375.17 691.187 2375.37 691.543C2375.56 691.898 2375.67 692.289 2375.71 692.691C2375.75 693.094 2375.7 693.499 2375.58 693.884C2375.46 694.268 2375.26 694.624 2374.99 694.929C2374.73 695.234 2374.4 695.483 2374.04 695.66C2369.3 698.229 2364.37 700.439 2359.3 702.27C2358.87 702.418 2358.41 702.469 2357.96 702.42C2357.64 702.731 2357.25 702.966 2356.82 703.11C2354.45 703.87 2352.04 704.54 2349.66 705.11C2349.16 705.235 2348.65 705.235 2348.15 705.11C2347.76 705.439 2347.29 705.663 2346.79 705.76C2344.42 706.2 2342.04 706.54 2339.7 706.76C2339.17 706.809 2338.65 706.716 2338.17 706.49C2337.72 706.77 2337.21 706.932 2336.68 706.96C2335.68 707 2334.67 707 2333.67 707ZM2285.14 567.79C2281.94 567.79 2277.9 571.01 2273.58 577.05C2266.77 586.58 2264.38 601.72 2266.66 620.81C2267.81 629.897 2269.7 638.877 2272.3 647.66C2290.55 633.46 2295.65 605.14 2295.45 588.79C2294.96 578.46 2290.98 569.32 2286.39 567.96C2285.98 567.843 2285.56 567.783 2285.14 567.78V567.79Z" fill="#FEDA00"/>
</svg>
