<svg width="3000" height="3000" viewBox="0 0 3000 3000" fill="none" xmlns="http://www.w3.org/2000/svg">
<path d="M2378.17 1658C2376.52 1658 2374.91 1657.51 2373.54 1656.6C2372.17 1655.68 2371.1 1654.38 2370.47 1652.86C2369.84 1651.34 2369.68 1649.66 2370 1648.04C2370.32 1646.43 2371.11 1644.94 2372.28 1643.78C2373.44 1642.61 2374.93 1641.82 2376.54 1641.5C2378.16 1641.18 2379.84 1641.34 2381.36 1641.97C2382.88 1642.6 2384.18 1643.67 2385.1 1645.04C2386.01 1646.41 2386.5 1648.02 2386.5 1649.67C2386.5 1651.88 2385.62 1654 2384.06 1655.56C2382.5 1657.12 2380.38 1658 2378.17 1658ZM2378.17 1647.34C2377.71 1647.34 2377.26 1647.48 2376.88 1647.73C2376.49 1647.99 2376.19 1648.35 2376.02 1648.78C2375.84 1649.2 2375.79 1649.67 2375.88 1650.12C2375.97 1650.58 2376.2 1650.99 2376.52 1651.32C2376.85 1651.64 2377.26 1651.87 2377.72 1651.96C2378.17 1652.05 2378.64 1652 2379.06 1651.82C2379.49 1651.65 2379.85 1651.35 2380.11 1650.96C2380.36 1650.58 2380.5 1650.13 2380.5 1649.67C2380.49 1649.06 2380.24 1648.48 2379.8 1648.05C2379.37 1647.62 2378.78 1647.38 2378.17 1647.38V1647.34Z" fill="black"/>
<path d="M1507.67 195.52C1506.02 195.522 1504.41 195.034 1503.03 194.119C1501.66 193.203 1500.59 191.901 1499.96 190.376C1499.32 188.852 1499.16 187.174 1499.48 185.555C1499.8 183.937 1500.6 182.45 1501.76 181.283C1502.93 180.116 1504.42 179.321 1506.04 179C1507.65 178.678 1509.33 178.844 1510.86 179.477C1512.38 180.109 1513.68 181.18 1514.6 182.553C1515.51 183.926 1516 185.54 1516 187.19C1516 189.399 1515.12 191.516 1513.56 193.077C1512 194.639 1509.88 195.517 1507.67 195.52ZM1507.67 184.85C1507.21 184.848 1506.75 184.984 1506.37 185.24C1505.98 185.495 1505.68 185.86 1505.5 186.288C1505.32 186.715 1505.27 187.186 1505.36 187.64C1505.45 188.095 1505.67 188.513 1506 188.841C1506.33 189.169 1506.75 189.393 1507.2 189.484C1507.65 189.575 1508.12 189.53 1508.55 189.353C1508.98 189.176 1509.35 188.876 1509.6 188.491C1509.86 188.106 1510 187.653 1510 187.19C1510 186.883 1509.94 186.579 1509.83 186.295C1509.71 186.012 1509.54 185.753 1509.32 185.536C1509.1 185.319 1508.85 185.146 1508.56 185.028C1508.28 184.911 1507.98 184.85 1507.67 184.85Z" fill="black"/>
<path d="M321.05 1114.18C319.402 1114.18 317.792 1113.69 316.422 1112.78C315.052 1111.86 313.985 1110.56 313.354 1109.04C312.724 1107.52 312.559 1105.84 312.88 1104.22C313.201 1102.61 313.995 1101.12 315.16 1099.96C316.325 1098.79 317.809 1098 319.425 1097.68C321.041 1097.36 322.716 1097.52 324.238 1098.15C325.76 1098.78 327.061 1099.85 327.976 1101.22C328.891 1102.59 329.38 1104.2 329.38 1105.85C329.377 1108.06 328.499 1110.18 326.937 1111.74C325.376 1113.3 323.258 1114.18 321.05 1114.18ZM321.05 1103.52C320.589 1103.52 320.139 1103.66 319.755 1103.91C319.372 1104.17 319.074 1104.53 318.897 1104.96C318.721 1105.38 318.675 1105.85 318.765 1106.3C318.855 1106.76 319.077 1107.17 319.402 1107.5C319.728 1107.82 320.143 1108.05 320.595 1108.14C321.047 1108.23 321.516 1108.18 321.942 1108C322.367 1107.83 322.731 1107.53 322.987 1107.14C323.243 1106.76 323.38 1106.31 323.38 1105.85C323.38 1105.23 323.134 1104.64 322.698 1104.2C322.261 1103.77 321.668 1103.52 321.05 1103.52Z" fill="black"/>
<path d="M1180.06 2345.83C1178.41 2345.83 1176.8 2345.34 1175.43 2344.43C1174.06 2343.51 1172.99 2342.21 1172.36 2340.69C1171.73 2339.17 1171.57 2337.49 1171.89 2335.88C1172.21 2334.26 1173 2332.77 1174.17 2331.61C1175.33 2330.44 1176.82 2329.65 1178.43 2329.33C1180.05 2329.01 1181.73 2329.17 1183.25 2329.8C1184.77 2330.43 1186.07 2331.5 1186.99 2332.87C1187.9 2334.24 1188.39 2335.85 1188.39 2337.5C1188.39 2339.71 1187.51 2341.83 1185.95 2343.39C1184.39 2344.95 1182.27 2345.83 1180.06 2345.83ZM1180.06 2335.17C1179.6 2335.17 1179.15 2335.31 1178.77 2335.56C1178.38 2335.82 1178.08 2336.18 1177.91 2336.61C1177.73 2337.03 1177.68 2337.5 1177.77 2337.95C1177.86 2338.41 1178.09 2338.82 1178.41 2339.15C1178.74 2339.47 1179.15 2339.7 1179.61 2339.79C1180.06 2339.88 1180.53 2339.83 1180.95 2339.65C1181.38 2339.48 1181.74 2339.18 1182 2338.79C1182.25 2338.41 1182.39 2337.96 1182.39 2337.5C1182.39 2336.88 1182.14 2336.29 1181.71 2335.85C1181.27 2335.42 1180.68 2335.17 1180.06 2335.17Z" fill="black"/>
<path d="M2754.81 1195.46C2753.16 1195.46 2751.55 1194.97 2750.18 1194.06C2748.81 1193.14 2747.74 1191.84 2747.11 1190.32C2746.48 1188.8 2746.32 1187.12 2746.64 1185.5C2746.96 1183.89 2747.75 1182.4 2748.92 1181.24C2750.08 1180.07 2751.57 1179.28 2753.18 1178.96C2754.8 1178.64 2756.48 1178.8 2758 1179.43C2759.52 1180.06 2760.82 1181.13 2761.74 1182.5C2762.65 1183.87 2763.14 1185.48 2763.14 1187.13C2763.14 1189.34 2762.26 1191.46 2760.7 1193.02C2759.14 1194.58 2757.02 1195.46 2754.81 1195.46ZM2754.81 1184.8C2754.35 1184.8 2753.9 1184.94 2753.52 1185.19C2753.13 1185.45 2752.83 1185.81 2752.66 1186.24C2752.48 1186.66 2752.43 1187.13 2752.52 1187.58C2752.61 1188.04 2752.84 1188.45 2753.16 1188.78C2753.49 1189.1 2753.9 1189.33 2754.36 1189.42C2754.81 1189.51 2755.28 1189.46 2755.7 1189.28C2756.13 1189.11 2756.49 1188.81 2756.75 1188.42C2757 1188.04 2757.14 1187.59 2757.14 1187.13C2757.14 1186.51 2756.89 1185.92 2756.46 1185.48C2756.02 1185.05 2755.43 1184.8 2754.81 1184.8Z" fill="black"/>
<path d="M1189.7 629.58C1188.05 629.58 1186.44 629.091 1185.07 628.176C1183.7 627.261 1182.63 625.96 1182 624.438C1181.37 622.916 1181.21 621.241 1181.53 619.625C1181.85 618.009 1182.64 616.525 1183.81 615.36C1184.97 614.195 1186.46 613.402 1188.07 613.08C1189.69 612.759 1191.37 612.924 1192.89 613.554C1194.41 614.185 1195.71 615.252 1196.63 616.622C1197.54 617.992 1198.03 619.603 1198.03 621.25C1198.03 623.458 1197.15 625.576 1195.59 627.137C1194.03 628.699 1191.91 629.577 1189.7 629.58ZM1189.7 618.92C1189.24 618.92 1188.79 619.057 1188.41 619.313C1188.02 619.569 1187.72 619.933 1187.55 620.358C1187.37 620.784 1187.32 621.253 1187.41 621.705C1187.5 622.157 1187.73 622.572 1188.05 622.898C1188.38 623.223 1188.79 623.445 1189.25 623.535C1189.7 623.625 1190.17 623.579 1190.59 623.403C1191.02 623.226 1191.38 622.928 1191.64 622.545C1191.89 622.161 1192.03 621.711 1192.03 621.25C1192.03 620.633 1191.78 620.042 1191.34 619.605C1190.91 619.169 1190.32 618.923 1189.7 618.92Z" fill="black"/>
<path d="M2651 2295.58C2649.35 2295.58 2647.74 2295.09 2646.37 2294.18C2645 2293.26 2643.93 2291.96 2643.3 2290.44C2642.67 2288.92 2642.51 2287.24 2642.83 2285.63C2643.15 2284.01 2643.94 2282.52 2645.11 2281.36C2646.27 2280.19 2647.76 2279.4 2649.37 2279.08C2650.99 2278.76 2652.67 2278.92 2654.19 2279.55C2655.71 2280.18 2657.01 2281.25 2657.93 2282.62C2658.84 2283.99 2659.33 2285.6 2659.33 2287.25C2659.33 2289.46 2658.45 2291.58 2656.89 2293.14C2655.33 2294.7 2653.21 2295.58 2651 2295.58ZM2651 2284.92C2650.54 2284.92 2650.09 2285.06 2649.71 2285.31C2649.32 2285.57 2649.02 2285.93 2648.85 2286.36C2648.67 2286.78 2648.62 2287.25 2648.71 2287.7C2648.8 2288.16 2649.03 2288.57 2649.35 2288.9C2649.68 2289.22 2650.09 2289.45 2650.55 2289.54C2651 2289.63 2651.47 2289.58 2651.89 2289.4C2652.32 2289.23 2652.68 2288.93 2652.94 2288.54C2653.19 2288.16 2653.33 2287.71 2653.33 2287.25C2653.33 2286.63 2653.08 2286.04 2652.65 2285.6C2652.21 2285.17 2651.62 2284.92 2651 2284.92Z" fill="black"/>
<path d="M2823.09 2556.85C2822.46 2556.85 2821.84 2556.65 2821.33 2556.28L2792 2534.92C2791.68 2534.69 2791.41 2534.4 2791.2 2534.06C2791 2533.72 2790.86 2533.35 2790.8 2532.96C2790.74 2532.57 2790.75 2532.17 2790.84 2531.79C2790.94 2531.41 2791.1 2531.04 2791.33 2530.73C2791.57 2530.41 2791.86 2530.14 2792.2 2529.93C2792.53 2529.72 2792.91 2529.59 2793.29 2529.52C2793.68 2529.46 2794.08 2529.48 2794.47 2529.57C2794.85 2529.66 2795.21 2529.83 2795.53 2530.06L2824.88 2551.42C2825.39 2551.79 2825.78 2552.32 2825.97 2552.92C2826.17 2553.52 2826.17 2554.17 2825.97 2554.77C2825.78 2555.38 2825.4 2555.9 2824.88 2556.28C2824.37 2556.65 2823.75 2556.85 2823.12 2556.85H2823.09Z" fill="black"/>
<path d="M718.25 155.84C717.613 155.839 716.993 155.636 716.48 155.26L687.12 133.91C686.792 133.682 686.513 133.391 686.299 133.053C686.085 132.716 685.941 132.34 685.874 131.946C685.808 131.552 685.821 131.149 685.913 130.76C686.004 130.371 686.172 130.005 686.407 129.682C686.642 129.359 686.939 129.086 687.281 128.88C687.623 128.673 688.003 128.537 688.398 128.479C688.793 128.421 689.196 128.443 689.582 128.542C689.969 128.642 690.332 128.818 690.65 129.06L720 150.41C720.513 150.782 720.896 151.307 721.093 151.91C721.289 152.512 721.29 153.162 721.094 153.765C720.899 154.368 720.517 154.894 720.004 155.267C719.492 155.639 718.874 155.84 718.24 155.84H718.25Z" fill="black"/>
<path d="M1297 1513.68C1296.37 1513.68 1295.75 1513.48 1295.23 1513.11L1265.87 1491.75C1265.55 1491.52 1265.28 1491.22 1265.07 1490.89C1264.87 1490.55 1264.73 1490.18 1264.67 1489.79C1264.61 1489.4 1264.62 1489 1264.72 1488.61C1264.81 1488.23 1264.98 1487.87 1265.21 1487.55C1265.44 1487.23 1265.74 1486.96 1266.07 1486.75C1266.41 1486.55 1266.78 1486.41 1267.17 1486.35C1267.56 1486.29 1267.96 1486.3 1268.35 1486.4C1268.73 1486.49 1269.09 1486.66 1269.41 1486.89L1298.77 1508.25C1299.28 1508.62 1299.67 1509.15 1299.86 1509.75C1300.06 1510.36 1300.06 1511.01 1299.86 1511.61C1299.67 1512.21 1299.28 1512.74 1298.77 1513.11C1298.25 1513.48 1297.63 1513.68 1297 1513.68Z" fill="black"/>
<path d="M1541.88 2777.38C1541.24 2777.38 1540.62 2777.17 1540.11 2776.8C1539.59 2776.42 1539.21 2775.89 1539.02 2775.28C1538.83 2774.67 1538.84 2774.01 1539.05 2773.41C1539.25 2772.81 1539.65 2772.29 1540.17 2771.92L1569.96 2751.17C1570.61 2750.76 1571.4 2750.63 1572.15 2750.78C1572.9 2750.94 1573.57 2751.38 1574.01 2752.01C1574.44 2752.64 1574.62 2753.41 1574.51 2754.17C1574.39 2754.93 1573.99 2755.62 1573.38 2756.09L1543.59 2776.84C1543.09 2777.19 1542.49 2777.38 1541.88 2777.38Z" fill="black"/>
<path d="M2410.3 2684.13C2409.66 2684.13 2409.04 2683.93 2408.52 2683.55C2408.01 2683.17 2407.63 2682.64 2407.44 2682.03C2407.24 2681.42 2407.25 2680.77 2407.46 2680.16C2407.66 2679.56 2408.06 2679.04 2408.58 2678.67L2438.38 2657.92C2439.03 2657.51 2439.82 2657.38 2440.57 2657.53C2441.32 2657.69 2441.99 2658.13 2442.43 2658.76C2442.86 2659.39 2443.04 2660.16 2442.93 2660.92C2442.81 2661.68 2442.41 2662.37 2441.8 2662.84L2412 2683.59C2411.5 2683.94 2410.91 2684.13 2410.3 2684.13Z" fill="black"/>
<path d="M347.72 586.7C347.082 586.699 346.461 586.494 345.948 586.116C345.434 585.737 345.055 585.205 344.864 584.597C344.674 583.988 344.682 583.335 344.888 582.731C345.094 582.127 345.487 581.605 346.01 581.24L375.79 560.49C376.112 560.251 376.479 560.08 376.869 559.986C377.259 559.891 377.664 559.876 378.06 559.941C378.456 560.006 378.834 560.15 379.174 560.363C379.513 560.577 379.806 560.857 380.035 561.186C380.265 561.515 380.426 561.887 380.509 562.279C380.592 562.671 380.596 563.076 380.52 563.47C380.444 563.864 380.29 564.239 380.066 564.572C379.843 564.905 379.555 565.19 379.22 565.41L349.44 586.16C348.936 586.512 348.335 586.701 347.72 586.7Z" fill="black"/>
<path d="M891.54 1136.59C890.902 1136.59 890.281 1136.38 889.768 1136.01C889.254 1135.63 888.875 1135.1 888.684 1134.49C888.493 1133.88 888.502 1133.22 888.708 1132.62C888.914 1132.02 889.307 1131.5 889.83 1131.13L919.62 1110.38C920.273 1109.97 921.057 1109.84 921.81 1109.99C922.562 1110.15 923.227 1110.59 923.665 1111.22C924.104 1111.85 924.284 1112.62 924.167 1113.38C924.051 1114.14 923.647 1114.83 923.04 1115.3L893.25 1136.05C892.75 1136.4 892.152 1136.59 891.54 1136.59Z" fill="black"/>
<path d="M1856.26 263.64C1855.56 263.639 1854.89 263.395 1854.35 262.95C1853.81 262.505 1853.45 261.886 1853.32 261.2C1853.19 260.514 1853.3 259.804 1853.63 259.193C1853.97 258.582 1854.51 258.107 1855.16 257.85L1889 244.57C1889.73 244.302 1890.55 244.331 1891.26 244.652C1891.97 244.973 1892.53 245.56 1892.82 246.288C1893.11 247.016 1893.1 247.827 1892.8 248.548C1892.49 249.27 1891.92 249.845 1891.2 250.15L1857.41 263.43C1857.04 263.575 1856.65 263.646 1856.26 263.64Z" fill="black"/>
<path d="M2617.57 220.65C2617.07 220.65 2616.58 220.525 2616.14 220.286C2615.7 220.046 2615.32 219.701 2615.05 219.28L2595.3 188.82C2594.95 188.159 2594.86 187.392 2595.05 186.668C2595.23 185.944 2595.68 185.315 2596.31 184.906C2596.94 184.497 2597.69 184.336 2598.43 184.455C2599.17 184.574 2599.83 184.965 2600.3 185.55L2620.09 216C2620.3 216.331 2620.45 216.701 2620.52 217.089C2620.59 217.476 2620.59 217.874 2620.5 218.26C2620.42 218.645 2620.26 219.01 2620.04 219.335C2619.82 219.659 2619.53 219.936 2619.2 220.15C2618.72 220.471 2618.15 220.645 2617.57 220.65Z" fill="black"/>
<path d="M783.26 2807.84C782.759 2807.84 782.266 2807.71 781.826 2807.48C781.385 2807.24 781.012 2806.89 780.74 2806.47L761 2776C760.66 2775.34 760.576 2774.58 760.766 2773.86C760.956 2773.14 761.406 2772.52 762.028 2772.11C762.65 2771.71 763.401 2771.55 764.135 2771.66C764.868 2771.78 765.533 2772.16 766 2772.74L785.75 2803.2C786.043 2803.65 786.209 2804.18 786.229 2804.72C786.25 2805.26 786.124 2805.79 785.866 2806.26C785.608 2806.74 785.227 2807.13 784.763 2807.41C784.299 2807.69 783.77 2807.83 783.23 2807.83L783.26 2807.84Z" fill="black"/>
<path d="M1038.9 2503.64H1038.13C1037.85 2503.23 1037.47 2502.89 1037.04 2502.65C1036.61 2502.4 1036.12 2502.26 1035.63 2502.23C1035.13 2502.2 1034.63 2502.28 1034.17 2502.47C1033.71 2502.66 1033.3 2502.95 1032.97 2503.32C1008.48 2500.68 991.75 2482.23 984.87 2467.23V2467.13C984 2465.01 983.08 2462.6 982.18 2459.97C978.035 2462.05 973.574 2463.42 968.98 2464.04C965.398 2464.6 961.741 2464.44 958.22 2463.58C957.835 2463.48 957.475 2463.31 957.16 2463.07C956.768 2463.08 956.378 2463.02 956.01 2462.88C953.765 2462.03 951.676 2460.82 949.83 2459.29C949.618 2458.75 949.293 2458.27 948.877 2457.87C948.461 2457.47 947.964 2457.17 947.42 2456.98C946.07 2455.48 944.884 2453.83 943.88 2452.08C944.094 2451.62 944.202 2451.11 944.198 2450.61C944.193 2450.1 944.076 2449.59 943.854 2449.14C943.632 2448.68 943.311 2448.27 942.914 2447.96C942.518 2447.64 942.055 2447.41 941.56 2447.29C935.24 2431.57 936.56 2407.66 939.83 2390.51C939.9 2390.12 940.046 2389.74 940.262 2389.41C940.477 2389.08 940.757 2388.79 941.085 2388.56C941.413 2388.34 941.783 2388.18 942.172 2388.1C942.561 2388.02 942.963 2388.01 943.354 2388.09C943.744 2388.17 944.116 2388.32 944.447 2388.54C944.778 2388.76 945.062 2389.04 945.282 2389.37C945.502 2389.71 945.654 2390.08 945.73 2390.47C945.805 2390.86 945.801 2391.26 945.72 2391.65C942.72 2407.21 941.29 2430.53 947.13 2445.05C946.893 2445.43 946.756 2445.86 946.732 2446.3C946.707 2446.75 946.796 2447.19 946.99 2447.59C947.184 2447.99 947.477 2448.33 947.841 2448.59C948.205 2448.84 948.628 2449 949.07 2449.05C949.856 2450.44 950.791 2451.73 951.86 2452.91C952.158 2453.24 952.38 2453.63 952.51 2454.05C952.929 2454.16 953.319 2454.36 953.65 2454.64C954.985 2455.75 956.496 2456.62 958.12 2457.23C958.391 2457.34 958.646 2457.48 958.88 2457.65C959.167 2457.64 959.453 2457.68 959.73 2457.75C962.492 2458.4 965.356 2458.51 968.16 2458.07C972.412 2457.5 976.525 2456.16 980.3 2454.12C974.05 2433.38 969.55 2403.38 981.86 2386.12C987.86 2377.77 993.67 2374.38 999.26 2376.02C1006.83 2378.26 1010.77 2389.73 1011.26 2399.45V2399.55C1011.46 2415.44 1006.26 2443.26 987.46 2456.72C988.46 2459.72 989.46 2462.42 990.46 2464.72C996.7 2478.28 1011.77 2494.93 1033.73 2497.3C1033.95 2497.7 1034.27 2498.03 1034.65 2498.28C1035.03 2498.52 1035.47 2498.66 1035.93 2498.69C1036.38 2498.72 1036.84 2498.63 1037.25 2498.44C1037.66 2498.24 1038.01 2497.95 1038.28 2497.58C1039.47 2497.58 1040.53 2497.58 1041.51 2497.58C1041.89 2497.74 1042.3 2497.81 1042.71 2497.78C1043.13 2497.75 1043.52 2497.63 1043.88 2497.42C1045.82 2497.24 1047.73 2496.97 1049.55 2496.62C1049.96 2496.54 1050.37 2496.54 1050.78 2496.62C1051.1 2496.38 1051.48 2496.21 1051.87 2496.13C1053.73 2495.7 1055.68 2495.13 1057.67 2494.52C1058.03 2494.54 1058.39 2494.5 1058.74 2494.38C1059.08 2494.26 1059.4 2494.08 1059.67 2493.84C1063.85 2492.34 1067.91 2490.52 1071.82 2488.4C1072.17 2488.19 1072.55 2488.06 1072.95 2488.01C1073.35 2487.96 1073.76 2487.99 1074.15 2488.09C1074.54 2488.2 1074.9 2488.39 1075.22 2488.64C1075.53 2488.89 1075.79 2489.21 1075.99 2489.56C1076.18 2489.92 1076.3 2490.31 1076.33 2490.71C1076.37 2491.11 1076.32 2491.52 1076.2 2491.9C1076.08 2492.29 1075.88 2492.64 1075.61 2492.95C1075.35 2493.25 1075.02 2493.5 1074.66 2493.68C1070.48 2495.95 1066.14 2497.89 1061.66 2499.5C1060.87 2499.47 1060.09 2499.73 1059.48 2500.24C1057.32 2500.93 1055.2 2501.51 1053.18 2501.98C1052.74 2502.08 1052.29 2502.08 1051.85 2501.98C1051.5 2502.24 1051.09 2502.42 1050.66 2502.5C1048.66 2502.88 1046.53 2503.18 1044.41 2503.38C1043.95 2503.42 1043.48 2503.35 1043.05 2503.19C1042.65 2503.42 1042.2 2503.54 1041.74 2503.56C1040.81 2503.62 1039.9 2503.64 1038.9 2503.64ZM996.51 2381.7C993.84 2381.7 990.41 2384.47 986.7 2389.7C980.79 2397.97 978.7 2411.14 980.7 2427.77C981.675 2435.53 983.273 2443.2 985.48 2450.71C1001 2438.25 1005.35 2413.89 1005.18 2399.78C1004.76 2391.03 1001.32 2383 997.51 2381.88C997.188 2381.77 996.851 2381.71 996.51 2381.7Z" fill="#FEDA00"/>
<path d="M2814.42 999.51H2812.74C2812.35 999.504 2811.96 999.419 2811.6 999.263C2811.23 999.106 2810.91 998.879 2810.63 998.596C2810.36 998.313 2810.14 997.978 2810 997.612C2809.85 997.246 2809.78 996.854 2809.79 996.46C2809.8 996.066 2809.88 995.677 2810.04 995.316C2810.19 994.954 2810.42 994.627 2810.7 994.353C2810.99 994.08 2811.32 993.864 2811.69 993.719C2812.05 993.575 2812.45 993.504 2812.84 993.51C2814.84 993.51 2816.84 993.51 2818.92 993.42C2819.21 993.75 2819.57 994.009 2819.97 994.177C2820.38 994.345 2820.82 994.417 2821.25 994.388C2821.69 994.359 2822.12 994.229 2822.5 994.009C2822.87 993.79 2823.2 993.485 2823.44 993.12C2826.95 992.81 2830.56 992.3 2834.15 991.62C2834.57 991.541 2835 991.552 2835.41 991.652C2835.83 991.752 2836.21 991.939 2836.55 992.2C2836.76 991.823 2837.04 991.495 2837.39 991.237C2837.73 990.98 2838.13 990.801 2838.55 990.71C2842.13 989.89 2845.8 988.88 2849.46 987.71C2850.14 988.026 2850.91 988.068 2851.61 987.828C2852.32 987.587 2852.91 987.083 2853.25 986.42C2861.09 983.598 2868.7 980.189 2876.02 976.22C2876.72 975.843 2877.54 975.761 2878.31 975.991C2879.07 976.22 2879.71 976.744 2880.08 977.445C2880.46 978.147 2880.54 978.969 2880.31 979.731C2880.08 980.494 2879.56 981.134 2878.86 981.51C2871.27 985.624 2863.38 989.158 2855.25 992.08C2854.54 991.774 2853.75 991.742 2853.02 991.99C2852.29 992.237 2851.68 992.747 2851.3 993.42C2847.48 994.65 2843.64 995.71 2839.89 996.57C2839.46 996.67 2839.01 996.673 2838.57 996.577C2838.14 996.482 2837.73 996.292 2837.38 996.02C2837.17 996.409 2836.87 996.746 2836.51 997.007C2836.16 997.268 2835.75 997.447 2835.31 997.53C2831.52 998.25 2827.72 998.78 2824.02 999.11C2823.7 998.779 2823.32 998.522 2822.89 998.356C2822.46 998.191 2822 998.12 2821.55 998.151C2821.09 998.182 2820.64 998.312 2820.24 998.533C2819.84 998.754 2819.49 999.06 2819.22 999.43C2817.6 999.47 2816 999.51 2814.42 999.51ZM2803.8 998.94H2803.48C2759.31 994.18 2729.13 960.86 2716.71 933.78V933.67C2714.8 929.06 2712.79 923.67 2710.82 917.77C2702.73 922.268 2693.86 925.206 2684.68 926.43C2678.39 927.413 2671.97 927.145 2665.79 925.64C2665.09 925.458 2664.49 925.032 2664.08 924.44C2663.4 924.693 2662.66 924.693 2661.98 924.44C2658.09 922.978 2654.48 920.875 2651.29 918.22C2651.42 917.649 2651.41 917.053 2651.24 916.491C2651.07 915.929 2650.76 915.42 2650.34 915.016C2649.91 914.611 2649.39 914.325 2648.82 914.185C2648.25 914.046 2647.65 914.058 2647.09 914.22C2644.72 911.581 2642.63 908.698 2640.87 905.62C2640.47 904.931 2640.36 904.111 2640.57 903.342C2640.78 902.573 2641.28 901.918 2641.97 901.52C2642.66 901.122 2643.48 901.015 2644.25 901.221C2645.02 901.427 2645.67 901.931 2646.07 902.62C2647.61 905.332 2649.44 907.87 2651.53 910.19C2651.34 910.685 2651.29 911.226 2651.41 911.745C2651.52 912.264 2651.79 912.737 2652.17 913.105C2652.55 913.473 2653.04 913.718 2653.56 913.81C2654.09 913.901 2654.62 913.835 2655.11 913.62C2657.8 915.85 2660.84 917.615 2664.11 918.84C2664.44 919.366 2664.95 919.756 2665.54 919.94C2666.13 920.123 2666.77 920.088 2667.34 919.84C2672.75 921.143 2678.37 921.364 2683.87 920.49C2692.72 919.308 2701.25 916.393 2708.97 911.91C2697.27 874.1 2688.32 818.27 2710.91 786.66C2721.21 772.24 2731.07 766.3 2740.23 769C2753.03 772.77 2759.72 792.86 2760.52 809.92V810C2760.89 839.21 2751.2 890.68 2716.1 914.5C2718.72 922.5 2721.03 928.32 2722.26 931.3C2734 957 2762.48 988.47 2804.12 993C2804.92 993.043 2805.66 993.399 2806.19 993.992C2806.73 994.585 2807 995.364 2806.96 996.16C2806.92 996.956 2806.56 997.702 2805.97 998.235C2805.38 998.767 2804.6 999.043 2803.8 999V998.94ZM2735.89 774.36C2728.62 774.36 2721.04 782.69 2715.72 790.13C2704.43 805.93 2700.44 830.85 2704.19 862.2C2706.15 877.89 2709.47 893.379 2714.13 908.49C2745.96 885.66 2754.78 837.59 2754.45 810.13C2753.45 789.92 2745.5 776.81 2738.45 774.73C2737.62 774.485 2736.76 774.361 2735.89 774.36ZM2639.5 899C2638.9 898.999 2638.32 898.818 2637.82 898.481C2637.32 898.144 2636.94 897.667 2636.72 897.11C2629.2 878.42 2624.46 841.44 2633.72 793.71C2633.88 792.939 2634.34 792.262 2635 791.826C2635.65 791.39 2636.45 791.23 2637.23 791.38C2638 791.529 2638.68 791.977 2639.13 792.626C2639.58 793.276 2639.75 794.075 2639.61 794.85C2634 823.91 2631.35 867.55 2642.33 894.85C2642.51 895.305 2642.58 895.798 2642.53 896.286C2642.48 896.774 2642.31 897.242 2642.03 897.648C2641.76 898.055 2641.39 898.388 2640.96 898.618C2640.52 898.849 2640.04 898.97 2639.55 898.97L2639.5 899Z" fill="black"/>
<path d="M1134.28 1625.42H579.28L579.84 1621.94C583.54 1598.94 591.49 1585.21 603.46 1581.24C614.46 1577.58 626.71 1583.3 635.46 1590.67C670.19 1518.5 707.29 1482.54 745.77 1483.75C789.33 1485.14 825.42 1534.94 845.61 1582.99C861.94 1558.3 879.99 1545.86 899.28 1546.08C923.05 1546.31 943.69 1566 955.76 1585.28C991.81 1562.09 1026.47 1554.48 1058.83 1562.66C1094.58 1571.66 1120.01 1598.73 1131.89 1621.01L1134.28 1625.42ZM586.37 1619.42H1124.13C1112 1599.24 1088.92 1576.42 1057.4 1568.48C1025.88 1560.54 992.02 1568.48 956.51 1591.99L953.86 1593.74L952.26 1591.01C941.26 1572.33 921.63 1552.3 899.26 1552.08H898.89C880.73 1552.08 863.49 1565.19 847.62 1591.08L844.49 1596.19L842.27 1590.62C832.04 1564.84 818.17 1541.01 803.27 1523.53C784.63 1501.75 765.27 1490.39 745.67 1489.77C728.9 1489.23 711.96 1496.77 695.37 1512.26C676.23 1530.07 657.37 1558.55 639.24 1596.89L637.44 1600.69L634.44 1597.76C626.86 1590.4 615.26 1583.69 605.44 1586.96C596.36 1589.92 589.83 1601.12 586.37 1619.42Z" fill="black"/>
<path d="M2654.53 560.19H2099.53L2101.88 555.78C2113.76 533.5 2139.19 506.47 2174.94 497.43C2207.29 489.25 2241.94 496.85 2278 520.05C2290.08 500.77 2310.72 481.05 2334.49 480.85H2334.93C2354.07 480.85 2371.93 493.25 2388.17 517.76C2408.36 469.71 2444.45 419.91 2488.01 418.52C2526.51 417.31 2563.58 453.27 2598.32 525.44C2607.1 518.07 2619.32 512.35 2630.32 516.01C2642.32 520.01 2650.24 533.68 2653.94 556.72L2654.53 560.19ZM2109.68 554.19H2647.44C2643.98 535.89 2637.44 524.69 2628.44 521.71C2618.59 518.44 2606.99 525.15 2599.44 532.51L2596.44 535.43L2594.65 531.64C2576.54 493.3 2557.65 464.83 2538.52 447.01C2521.92 431.55 2505 424.01 2488.22 424.52C2468.63 425.14 2449.22 436.52 2430.62 458.28C2415.62 475.76 2401.79 499.59 2391.56 525.36L2389.35 530.94L2386.21 525.83C2370.21 499.78 2352.84 486.65 2334.57 486.83C2312.2 487.05 2292.52 507.08 2281.57 525.76L2279.96 528.49L2277.32 526.74C2241.81 503.19 2207.86 495.28 2176.43 503.23C2145 511.18 2121.81 534 2109.68 554.19Z" fill="black"/>
<path d="M600.64 745.79L628 893.65L744.58 845.23L636.43 930.12L733.08 977.65L621.08 956.76L644.54 1095.67L586.76 960.58L484.9 1070.84L552 945.18L451.21 911.34L547.54 905.34L518.64 843.34L574.74 887.77L600.64 745.79Z" fill="#FEDA00"/>
<path d="M1380.3 445.47L1391.71 507.14L1440.34 486.94L1395.23 522.35L1435.54 542.17L1388.83 533.46L1398.61 591.4L1374.51 535.05L1332 581L1360 528.59L1318 514.48L1358.17 511.96L1346.12 486.08L1369.52 504.62L1380.3 445.47Z" fill="#FEDA00"/>
<path d="M974.49 603L907.59 446.58L789.59 574.32L784.74 570.87L862.83 424.54L746.36 385.44L747.12 379.6L857.3 372.71L824.78 302.89L829.36 299.27L892.17 349L922.08 185.13H928L959.86 357.35L1095.09 301.18L1098.09 306.31L973.22 404.31L1083.89 458.74L1082.02 464.38L953 440.35L980.18 601.35L974.49 603ZM909.49 435.71L970.12 577.45L945.67 432.88L1061.6 454.5L961.99 405.5L1077.11 315.14L955.29 365.74L925.05 202.29L896.28 359.93L835.57 311.84L866.45 378.14L762.8 384.63L871.45 421.12L801 553.11L909.49 435.71Z" fill="black"/>
<path d="M1737.93 2924.14C1737.31 2924.14 1736.7 2923.95 1736.19 2923.59C1735.68 2923.23 1735.3 2922.73 1735.09 2922.14L1057.45 947.49C1057.18 946.737 1057.23 945.909 1057.57 945.189C1057.92 944.469 1058.54 943.915 1059.29 943.65C1060.04 943.385 1060.87 943.43 1061.59 943.775C1062.31 944.12 1062.86 944.737 1063.13 945.49L1740.77 2920.12C1740.93 2920.57 1740.98 2921.06 1740.91 2921.53C1740.85 2922.01 1740.67 2922.46 1740.39 2922.86C1740.11 2923.25 1739.74 2923.57 1739.31 2923.79C1738.89 2924.01 1738.41 2924.12 1737.93 2924.12V2924.14Z" fill="black"/>
<path d="M2272.9 2812.37C2272.28 2812.37 2271.67 2812.18 2271.16 2811.82C2270.65 2811.46 2270.27 2810.96 2270.06 2810.37L1984.06 1976.95C1983.93 1976.58 1983.88 1976.18 1983.9 1975.79C1983.93 1975.4 1984.03 1975.01 1984.21 1974.66C1984.38 1974.3 1984.62 1973.99 1984.92 1973.73C1985.21 1973.47 1985.56 1973.27 1985.93 1973.14C1986.3 1973.01 1986.7 1972.96 1987.09 1972.98C1987.48 1973.01 1987.87 1973.11 1988.22 1973.29C1988.58 1973.46 1988.89 1973.7 1989.15 1974C1989.41 1974.29 1989.61 1974.64 1989.74 1975.01L2275.74 2808.43C2275.9 2808.88 2275.95 2809.37 2275.88 2809.84C2275.82 2810.32 2275.64 2810.77 2275.36 2811.17C2275.08 2811.56 2274.71 2811.88 2274.28 2812.1C2273.86 2812.32 2273.38 2812.43 2272.9 2812.43V2812.37ZM1700.9 1145.54C1700.28 1145.54 1699.67 1145.35 1699.16 1144.99C1698.65 1144.63 1698.27 1144.13 1698.06 1143.54L1592.43 835.74C1592.17 834.987 1592.23 834.162 1592.58 833.448C1592.93 832.733 1593.55 832.187 1594.3 831.93C1595.05 831.673 1595.88 831.725 1596.59 832.076C1597.31 832.427 1597.85 833.047 1598.11 833.8L1703.74 1141.6C1703.9 1142.05 1703.95 1142.54 1703.88 1143.02C1703.82 1143.49 1703.64 1143.94 1703.36 1144.34C1703.08 1144.73 1702.71 1145.05 1702.28 1145.27C1701.86 1145.49 1701.38 1145.6 1700.9 1145.6V1145.54Z" fill="black"/>
<path d="M1551.66 2383.14C1551.27 2383.17 1550.87 2383.11 1550.5 2382.99C1550.12 2382.86 1549.78 2382.66 1549.48 2382.4C1549.18 2382.14 1548.94 2381.83 1548.76 2381.47C1548.59 2381.12 1548.49 2380.73 1548.46 2380.34C1548.43 2379.95 1548.49 2379.55 1548.61 2379.18C1548.74 2378.8 1548.94 2378.46 1549.2 2378.16C1549.46 2377.86 1549.77 2377.62 1550.13 2377.44C1550.48 2377.27 1550.87 2377.17 1551.26 2377.14L2099.45 2303.68C2100.22 2303.61 2100.98 2303.84 2101.59 2304.33C2102.19 2304.81 2102.58 2305.5 2102.69 2306.27C2102.79 2307.03 2102.59 2307.81 2102.14 2308.43C2101.69 2309.06 2101.01 2309.48 2100.25 2309.62L1552.06 2383.08L1551.66 2383.14Z" fill="black"/>
<path d="M1185.77 1318.15C1185.38 1318.18 1184.98 1318.12 1184.61 1318C1184.23 1317.87 1183.89 1317.67 1183.59 1317.41C1183.29 1317.15 1183.05 1316.84 1182.87 1316.48C1182.7 1316.13 1182.6 1315.74 1182.57 1315.35C1182.54 1314.96 1182.6 1314.56 1182.72 1314.19C1182.85 1313.81 1183.05 1313.47 1183.31 1313.17C1183.57 1312.87 1183.88 1312.63 1184.24 1312.45C1184.59 1312.28 1184.98 1312.18 1185.37 1312.15L1675.86 1245.55C1676.26 1245.48 1676.67 1245.49 1677.06 1245.58C1677.46 1245.67 1677.83 1245.84 1678.16 1246.07C1678.49 1246.31 1678.77 1246.62 1678.97 1246.96C1679.18 1247.31 1679.32 1247.7 1679.37 1248.1C1679.42 1248.5 1679.4 1248.91 1679.29 1249.3C1679.18 1249.69 1678.99 1250.06 1678.74 1250.38C1678.49 1250.69 1678.17 1250.95 1677.81 1251.15C1677.46 1251.34 1677.06 1251.45 1676.66 1251.49L1186.17 1318.09C1186.04 1318.12 1185.9 1318.14 1185.77 1318.15Z" fill="black"/>
<path d="M1360.64 1819.53C1359.84 1819.58 1359.06 1819.32 1358.46 1818.79C1357.86 1818.27 1357.49 1817.53 1357.44 1816.73C1357.39 1815.93 1357.65 1815.15 1358.18 1814.55C1358.7 1813.95 1359.44 1813.58 1360.24 1813.53L1545.05 1788.77C1545.82 1788.7 1546.58 1788.93 1547.19 1789.42C1547.79 1789.9 1548.18 1790.59 1548.29 1791.36C1548.39 1792.12 1548.19 1792.9 1547.74 1793.52C1547.29 1794.15 1546.61 1794.57 1545.85 1794.71L1361 1819.5L1360.64 1819.53Z" fill="black"/>
<path d="M2447.52 1338.23C2442.44 1338.23 2437.15 1335.76 2432.52 1330.99L2432.27 1330.7L2328 1192.06L2332.8 1188.46L2437 1326.94C2442.25 1332.26 2448.12 1333.66 2452.73 1330.66C2460.5 1325.66 2459.81 1312.74 2455.88 1302.91L2455.66 1302.38V1301.8C2455.52 1298.14 2443.56 1271.14 2428.42 1240.35L2423.56 1230.46L2486.27 1271.76L2612.55 1278.42L2676.68 1225.42C2682.75 1220.49 2685.34 1215.06 2683.47 1211.21C2681.6 1207.36 2675.01 1204.73 2664.36 1207.21L2661.7 1202.04C2667.82 1196.63 2671.35 1187.72 2668.97 1183.71C2666.69 1179.87 2658.18 1180.18 2646.19 1184.52L2639.06 1187.1L2642.5 1180.34C2647.58 1170.34 2649.24 1164.04 2647.41 1161.7C2646.18 1160.12 2642.41 1159.91 2636.93 1161.12C2633.93 1162.19 2619.53 1173.52 2607.25 1183.98L2606.48 1184.63L2605.48 1184.69C2596.48 1185.24 2571.37 1187.31 2564.14 1190.35L2561.26 1185.12L2634.42 1134.12C2635.68 1133.26 2636.57 1131.98 2636.94 1130.5C2637.31 1129.03 2637.13 1127.47 2636.42 1126.12C2634.92 1123.05 2630.87 1120.54 2623.97 1122.71L2623.53 1122.85H2623.22C2618.76 1123.73 2578.94 1141.68 2543.5 1158.25L2542.18 1158.87L2418.03 1095.87L2420.75 1090.51L2542.28 1152.17C2565.03 1141.55 2613.85 1118.98 2622.17 1116.97C2632.72 1113.66 2639.35 1118.41 2641.81 1123.48C2643.14 1126.12 2643.46 1129.14 2642.72 1132C2641.99 1134.86 2640.24 1137.35 2637.81 1139.02L2577 1181.42C2587.91 1179.86 2600.45 1178.98 2604.11 1178.74C2609.83 1173.88 2630.11 1156.92 2635.25 1155.32L2635.47 1155.26C2643.8 1153.38 2649.25 1154.26 2652.13 1157.98C2655.63 1162.47 2654.02 1169.35 2650.83 1176.73C2660.17 1174.22 2670.02 1173.73 2674.12 1180.61C2677.27 1185.93 2675.29 1193.82 2671.02 1200.29C2679.53 1200.07 2686.15 1203.04 2688.85 1208.59C2690.06 1211.06 2693.01 1219.9 2680.47 1230.07L2614.56 1284.54L2484.32 1277.66L2438.58 1247.55C2446.58 1264.21 2460.58 1293.9 2461.58 1301.08C2468.26 1318.14 2463.58 1330.74 2455.98 1335.69C2453.47 1337.35 2450.53 1338.24 2447.52 1338.23Z" fill="black"/>
<path d="M2431.45 1241.68C2430.86 1241.68 2430.28 1241.51 2429.78 1241.18C2429.29 1240.85 2428.9 1240.39 2428.68 1239.84C2428.45 1239.29 2428.38 1238.69 2428.5 1238.11C2428.61 1237.53 2428.89 1236.99 2429.31 1236.57C2444.31 1221.41 2465.77 1182.8 2440.2 1145.21C2439.98 1144.88 2439.82 1144.51 2439.74 1144.12C2439.66 1143.74 2439.66 1143.34 2439.74 1142.95C2439.81 1142.56 2439.96 1142.19 2440.18 1141.86C2440.4 1141.53 2440.68 1141.24 2441.01 1141.02C2441.34 1140.8 2441.71 1140.64 2442.1 1140.56C2442.48 1140.48 2442.88 1140.48 2443.27 1140.56C2443.66 1140.63 2444.03 1140.78 2444.36 1141C2444.69 1141.22 2444.98 1141.5 2445.2 1141.83C2472.96 1182.65 2449.77 1224.41 2433.63 1240.83C2433.34 1241.11 2433 1241.33 2432.63 1241.48C2432.25 1241.62 2431.85 1241.69 2431.45 1241.68Z" fill="black"/>
<path d="M2293.07 1873H1524.66L1525.54 1869.3L1736.62 983.18C1736.8 982.406 1737.29 981.736 1737.97 981.319C1738.64 980.902 1739.46 980.771 1740.23 980.955C1741.01 981.139 1741.68 981.624 1742.1 982.302C1742.51 982.98 1742.64 983.796 1742.46 984.57L1532.26 1867H2285.31L2037.59 911.48C2037.47 911.091 2037.42 910.681 2037.46 910.276C2037.5 909.87 2037.63 909.476 2037.82 909.119C2038.02 908.762 2038.29 908.449 2038.61 908.199C2038.93 907.949 2039.3 907.767 2039.7 907.665C2040.09 907.563 2040.5 907.542 2040.91 907.605C2041.31 907.667 2041.7 907.811 2042.04 908.028C2042.39 908.244 2042.69 908.529 2042.92 908.865C2043.15 909.201 2043.31 909.58 2043.39 909.98L2293.07 1873Z" fill="black"/>
<path d="M1143.22 836.31C1137.69 827.31 1118.06 795.67 1097.51 767.24C1070.24 729.51 1062.81 727.38 1061.51 727.38C1061.51 727.38 1059.44 727.56 1056.05 736.31C1053.63 742.57 1051.31 751.11 1049.05 759.37C1043.05 781.53 1038.95 795.13 1031.22 795.13H1031.16C1026.33 795.13 1020.76 790.7 1012.82 759.13C990.66 673.2 1066.38 620.84 1111.98 604.01C1106.98 590.59 1097.29 562.36 1089.8 534.38C1084.66 515.18 1089.88 505.52 1096.47 502.88C1102.8 500.34 1110.17 503.99 1114.4 511.73C1175.4 623.27 1242.03 744.94 1244.4 748.52L1242.89 749.52L1239.53 752.05C1237.53 749.33 1130.6 553.8 1109.19 514.63C1106.46 509.63 1102.19 507.1 1098.75 508.47C1094.42 510.2 1091.75 518.41 1095.65 532.85C1103.65 562.78 1114.24 592.98 1118.71 604.77L1119.81 607.66L1116.89 608.66C1073.5 623.66 997.14 674.1 1018.68 757.66C1026.5 788.66 1031.07 789.1 1031.26 789.1C1031.26 789.1 1033.26 788.75 1036.4 780.58C1038.78 774.44 1041.08 765.97 1043.31 757.77C1049.38 735.4 1053.5 721.68 1061.31 721.35C1066.09 721.15 1075.1 725.78 1102.49 763.68C1123.17 792.29 1142.9 824.07 1148.49 833.13L1143.22 836.31Z" fill="black"/>
<path d="M2064.92 1871.94C2064.29 1871.94 2063.67 1871.74 2063.16 1871.37C2062.65 1871 2062.27 1870.47 2062.07 1869.87C2061.87 1869.27 2061.87 1868.62 2062.07 1868.02C2062.26 1867.42 2062.64 1866.89 2063.15 1866.52C2094.72 1843.52 2128.27 1802.04 2127.75 1754.7C2127.29 1713.7 2101.64 1675.15 2051.51 1640.27C1990.29 1597.69 1962.06 1562.13 1959.97 1524.98C1958.04 1490.57 1979.22 1457.28 2003.74 1418.75C2018.89 1394.94 2036.05 1367.96 2050.5 1336.67C2066.85 1301.23 2080.76 1266.67 2071.5 1233.94C2062.11 1200.69 2028.88 1169.02 1966.89 1134.29C1933.11 1115.35 1913.89 1090.05 1909.66 1059.08C1902.61 1007.08 1940.47 948.7 1975.03 914.49C1975.6 913.93 1976.36 913.619 1977.16 913.623C1977.95 913.628 1978.72 913.949 1979.27 914.515C1979.83 915.081 1980.15 915.847 1980.14 916.643C1980.14 917.439 1979.82 918.2 1979.25 918.76C1945.67 951.99 1908.86 1008.47 1915.61 1058.27C1919.54 1087.27 1937.78 1111.09 1969.83 1129.05C2034.16 1165.05 2067.29 1196.95 2077.28 1232.3C2087.08 1267.04 2072.78 1302.69 2055.93 1339.19C2041.32 1370.84 2024.04 1398 2008.79 1421.97C1983.79 1461.18 1964.13 1492.16 1965.95 1524.64C1967.95 1559.78 1995.37 1593.92 2054.95 1635.35C2106.77 1671.4 2133.29 1711.53 2133.77 1754.63C2134.02 1777.92 2126.65 1801.24 2111.86 1823.93C2099.74 1842.29 2084.45 1858.35 2066.71 1871.36C2066.19 1871.74 2065.56 1871.94 2064.92 1871.94Z" fill="black"/>
<path d="M1688.62 547.72C1676 547.72 1664.48 543.93 1655.2 536.55C1640.85 525.14 1633.61 506.18 1635.32 484.55L1635.38 483.73L1634.58 483.51C1630.07 482.27 1624.85 480.51 1621.26 479.27L1614.7 476.97L1620.87 473.77C1631.58 468.22 1640.06 459.51 1646.79 447.15C1649.78 441.669 1653.24 436.456 1657.13 431.57C1671.02 414.1 1689.3 401.85 1708.59 397.05C1727.88 392.25 1745.68 395.48 1758.99 406.05C1772.3 416.62 1779.43 433.35 1779.11 453.13C1778.79 472.91 1770.95 493.56 1757.11 511.04C1743.27 528.52 1724.94 540.76 1705.65 545.55C1700.08 546.968 1694.36 547.697 1688.62 547.72ZM1629.42 475.72C1631.66 476.44 1634 477.16 1636.16 477.72L1641.76 479.25L1641.3 485.02C1639.75 504.63 1646.18 521.7 1658.94 531.86C1670.75 541.25 1686.81 544.05 1704.16 539.74C1722.16 535.26 1739.29 523.74 1752.36 507.31C1765.43 490.88 1772.81 471.6 1773.11 453.04C1773.4 435.17 1767.11 420.15 1755.25 410.76C1743.39 401.37 1727.38 398.56 1710.03 402.87C1692.03 407.35 1674.9 418.87 1661.83 435.3C1658.15 439.913 1654.88 444.839 1652.06 450.02C1646 461.18 1638.54 469.63 1629.42 475.69V475.72Z" fill="black"/>
<path d="M1706.67 482.16C1684.29 449.81 1694.32 412.37 1700.97 399.91C1705.86 396.58 1720.41 391.38 1739.46 397.14C1763.28 404.34 1775.46 420.68 1778.46 455.57C1780.9 483.49 1753.46 515.39 1739.46 527.85C1726.39 525.19 1719.46 513.45 1717.58 507.91C1728.38 505.7 1743.34 495.45 1736.69 482.16C1730.04 468.87 1705.68 480.7 1706.67 482.16Z" fill="black"/>
<path d="M1840.8 377.91C1799.69 360.61 1768.47 390.28 1758 407.28L1760 417.88C1762.58 414.35 1783.94 413.79 1798.34 417.88C1842.05 430.29 1834.64 506.8 1834.64 528.42L1926.42 448.07C1915 431.89 1881.92 395.2 1840.8 377.91Z" fill="black"/>
<path d="M1694.29 456C1693.8 456 1693.32 455.881 1692.89 455.653C1692.46 455.424 1692.09 455.094 1691.81 454.69C1688.19 449.36 1678.08 441.14 1665.68 448.18C1664.99 448.578 1664.17 448.684 1663.4 448.476C1662.62 448.268 1661.97 447.762 1661.57 447.07C1661.17 446.378 1661.07 445.556 1661.27 444.785C1661.48 444.014 1661.99 443.358 1662.68 442.96C1669.77 438.96 1686 435.51 1696.68 451.32C1697.13 451.977 1697.29 452.784 1697.14 453.563C1697 454.343 1696.55 455.032 1695.89 455.48C1695.42 455.802 1694.86 455.983 1694.29 456Z" fill="black"/>
<path d="M1652.92 514.3C1650.69 514.313 1648.47 513.975 1646.34 513.3C1645.59 513.045 1644.96 512.501 1644.61 511.788C1644.26 511.074 1644.2 510.249 1644.45 509.495C1644.71 508.74 1645.25 508.118 1645.97 507.764C1646.68 507.411 1647.51 507.355 1648.26 507.61C1651.46 508.7 1658.93 509.25 1664.32 503.61C1664.59 503.325 1664.92 503.096 1665.28 502.937C1665.64 502.778 1666.03 502.692 1666.42 502.683C1666.82 502.674 1667.21 502.743 1667.58 502.886C1667.94 503.029 1668.28 503.242 1668.56 503.515C1668.85 503.787 1669.08 504.113 1669.24 504.474C1669.4 504.835 1669.48 505.224 1669.49 505.618C1669.5 506.012 1669.43 506.404 1669.29 506.772C1669.15 507.139 1668.93 507.475 1668.66 507.76C1666.62 509.87 1664.18 511.54 1661.47 512.665C1658.76 513.79 1655.85 514.346 1652.92 514.3Z" fill="black"/>
<path d="M1689.13 471.34C1688.6 471.34 1688.08 471.199 1687.62 470.932C1687.16 470.665 1686.78 470.281 1686.52 469.82C1683.61 464.7 1680.04 461.72 1675.92 460.99C1671.02 460.12 1666.01 462.58 1663.22 464.99C1662.92 465.264 1662.57 465.475 1662.19 465.611C1661.81 465.746 1661.41 465.804 1661 465.779C1660.6 465.754 1660.21 465.648 1659.84 465.468C1659.48 465.287 1659.16 465.035 1658.9 464.726C1658.64 464.418 1658.44 464.06 1658.32 463.674C1658.2 463.288 1658.16 462.881 1658.2 462.479C1658.24 462.077 1658.36 461.687 1658.56 461.333C1658.76 460.979 1659.02 460.669 1659.34 460.42C1663.34 457.05 1670.02 453.89 1676.96 455.13C1682.96 456.18 1687.9 460.13 1691.74 466.9C1691.93 467.243 1692.06 467.62 1692.11 468.011C1692.16 468.402 1692.13 468.799 1692.02 469.179C1691.92 469.559 1691.74 469.914 1691.5 470.225C1691.25 470.536 1690.95 470.796 1690.61 470.99C1690.15 471.229 1689.64 471.35 1689.13 471.34Z" fill="black"/>
<path d="M1681.06 465.963C1681.7 462.819 1679.68 459.751 1676.53 459.11C1673.39 458.469 1670.32 460.499 1669.68 463.643C1669.04 466.787 1671.07 469.855 1674.21 470.496C1677.35 471.137 1680.42 469.107 1681.06 465.963Z" fill="black"/>
<path d="M1708.54 495.94C1707.95 495.94 1707.38 495.768 1706.89 495.446C1706.4 495.124 1706.02 494.665 1705.79 494.127C1705.55 493.589 1705.48 492.995 1705.59 492.418C1705.69 491.84 1705.96 491.306 1706.36 490.88C1709.58 487.46 1718.36 481.88 1728.68 485.31C1729.44 485.561 1730.06 486.101 1730.42 486.813C1730.78 487.525 1730.84 488.349 1730.58 489.105C1730.33 489.861 1729.79 490.486 1729.08 490.843C1728.37 491.201 1727.55 491.261 1726.79 491.01C1719.37 488.55 1713.04 492.54 1710.72 495.01C1710.44 495.305 1710.1 495.539 1709.73 495.699C1709.35 495.859 1708.95 495.941 1708.54 495.94Z" fill="black"/>
<path d="M1718.34 503.21C1717.76 503.205 1717.2 503.034 1716.72 502.717C1716.24 502.4 1715.86 501.951 1715.62 501.423C1715.39 500.895 1715.31 500.311 1715.4 499.742C1715.49 499.172 1715.75 498.64 1716.13 498.21C1717.89 496.3 1718.74 494.5 1718.53 493.15C1718.45 492.734 1718.27 492.34 1718.02 491.995C1717.78 491.651 1717.46 491.362 1717.09 491.15C1716.4 490.752 1715.89 490.096 1715.68 489.325C1715.48 488.554 1715.58 487.732 1715.98 487.04C1716.38 486.348 1717.03 485.842 1717.81 485.634C1718.58 485.426 1719.4 485.532 1720.09 485.93C1721.25 486.591 1722.24 487.501 1723.01 488.594C1723.77 489.687 1724.28 490.936 1724.5 492.25C1724.85 494.51 1724.5 498.09 1720.59 502.3C1720.3 502.6 1719.95 502.836 1719.56 502.993C1719.17 503.149 1718.76 503.223 1718.34 503.21Z" fill="black"/>
<path d="M1693.69 584.63C1693.07 584.628 1692.47 584.435 1691.96 584.077C1691.46 583.719 1691.08 583.213 1690.87 582.63L1678.36 548.14C1678.19 547.762 1678.11 547.355 1678.11 546.942C1678.11 546.53 1678.19 546.122 1678.35 545.743C1678.52 545.365 1678.76 545.024 1679.06 544.743C1679.36 544.461 1679.72 544.245 1680.1 544.107C1680.49 543.969 1680.91 543.913 1681.32 543.942C1681.73 543.971 1682.13 544.084 1682.5 544.275C1682.86 544.466 1683.18 544.73 1683.44 545.051C1683.7 545.371 1683.89 545.742 1684 546.14L1696.51 580.64C1696.67 581.092 1696.72 581.575 1696.65 582.05C1696.59 582.525 1696.41 582.977 1696.13 583.369C1695.86 583.76 1695.49 584.08 1695.07 584.301C1694.64 584.522 1694.17 584.639 1693.69 584.64V584.63ZM1750.5 557.63C1749.91 557.63 1749.33 557.454 1748.83 557.125C1748.34 556.795 1747.96 556.328 1747.73 555.78L1736.73 529.4C1736.42 528.665 1736.42 527.839 1736.72 527.103C1737.03 526.367 1737.61 525.781 1738.34 525.475C1739.08 525.169 1739.91 525.167 1740.64 525.47C1741.38 525.772 1741.96 526.355 1742.27 527.09L1753.27 553.47C1753.57 554.205 1753.58 555.03 1753.27 555.765C1752.97 556.5 1752.38 557.085 1751.65 557.39C1751.28 557.531 1750.89 557.595 1750.5 557.58V557.63Z" fill="black"/>
<path d="M1689.46 571.14L1681.18 548C1703.77 548.95 1725.76 538.25 1733.93 532.78C1718.24 556.3 1697.75 568.16 1689.46 571.14Z" fill="black"/>
<path d="M1614.7 609.06C1614.7 609.06 1785.31 537.06 1847.22 529.15C1909.13 521.24 1981.95 559.75 2007.15 584.22L2457.45 1065.08L2295.45 1231.99L2041 913L1692.31 1000.58L1652.64 898.12C1646.58 932.28 1620.25 1023.72 1563.4 1116.27C1506.55 1208.82 1397.59 1174.66 1350.22 1146.01L1049.44 898.16L1244.44 719.68L1403.09 942.78C1416.86 909.18 1447.23 822.78 1486.89 746.07C1526.55 669.36 1541.27 647.93 1614.7 609.06Z" fill="#FEDA00"/>
<path d="M2037.82 898.15C2037.18 898.138 2036.57 897.923 2036.06 897.536C2035.55 897.15 2035.18 896.612 2035 896L1973.39 698.83C1973.25 698.449 1973.19 698.043 1973.21 697.638C1973.23 697.233 1973.34 696.837 1973.52 696.473C1973.7 696.11 1973.95 695.786 1974.26 695.522C1974.57 695.259 1974.93 695.06 1975.31 694.939C1975.7 694.818 1976.11 694.777 1976.51 694.817C1976.91 694.858 1977.31 694.981 1977.66 695.177C1978.02 695.373 1978.33 695.64 1978.58 695.96C1978.83 696.28 1979.01 696.648 1979.11 697.04L2040.72 894.22C2040.84 894.597 2040.88 894.994 2040.84 895.387C2040.8 895.78 2040.68 896.162 2040.5 896.51C2040.31 896.859 2040.06 897.167 2039.75 897.417C2039.45 897.668 2039.1 897.856 2038.72 897.97C2038.43 898.08 2038.13 898.141 2037.82 898.15Z" fill="black"/>
<path d="M1647.18 883C1646.53 883.001 1645.89 882.788 1645.37 882.395C1644.85 882.001 1644.47 881.448 1644.29 880.82L1620.72 797.34C1620.5 796.573 1620.6 795.753 1620.99 795.058C1621.38 794.363 1622.03 793.851 1622.79 793.635C1623.56 793.419 1624.38 793.516 1625.08 793.905C1625.77 794.294 1626.28 794.943 1626.5 795.71L1650.07 879.19C1650.29 879.955 1650.19 880.774 1649.8 881.468C1649.41 882.162 1648.76 882.673 1648 882.89C1647.73 882.965 1647.46 883.002 1647.18 883Z" fill="black"/>
<path d="M1440.69 992.51C1440.23 992.51 1439.78 992.405 1439.37 992.204C1438.96 992.003 1438.6 991.711 1438.32 991.35L1407.75 952.06C1407.26 951.431 1407.04 950.634 1407.14 949.844C1407.24 949.053 1407.65 948.334 1408.27 947.845C1408.9 947.356 1409.7 947.136 1410.49 947.234C1411.28 947.333 1412 947.741 1412.49 948.37L1443.06 987.66C1443.3 987.971 1443.48 988.327 1443.58 988.707C1443.69 989.087 1443.72 989.484 1443.67 989.875C1443.62 990.266 1443.49 990.643 1443.3 990.985C1443.1 991.328 1442.84 991.628 1442.53 991.87C1442 992.282 1441.36 992.507 1440.69 992.51Z" fill="black"/>
<path d="M1977.36 2323.76L2040.36 2313.76L2047.94 1974.76H1876.13L1857.19 2139.24L1543.88 2379.58L1927.29 2323.79L1957.29 2265.13L1977.36 2323.76Z" fill="black"/>
<path d="M1532.92 2384.18L1854.35 2137.6L1873.15 1974.43V1974.35L1884.87 1870.88C1884.96 1870.08 1885.36 1869.36 1885.99 1868.86C1886.62 1868.36 1887.41 1868.13 1888.21 1868.22C1889.01 1868.31 1889.73 1868.71 1890.23 1869.34C1890.73 1869.97 1890.96 1870.76 1890.87 1871.56L1879.53 1971.73H2045L2047.7 1871.14C2047.72 1870.34 2048.06 1869.59 2048.64 1869.04C2049.21 1868.49 2049.98 1868.2 2050.78 1868.22C2051.58 1868.24 2052.33 1868.58 2052.88 1869.16C2053.43 1869.73 2053.72 1870.5 2053.7 1871.3L2050.92 1974.8L2043.28 2316.32L1975.37 2327.12L1956.81 2272.76L1929.28 2326.51L1927.75 2326.73L1532.92 2384.18ZM1878.8 1977.73L1860 2140.82L1859 2141.59L1554.82 2374.92L1925.33 2321L1957.88 2257.43L1979.38 2320.43L2037.38 2311.21L2044.83 1977.76L1878.8 1977.73Z" fill="black"/>
<path d="M1751.15 2324.15L1814.09 2314.15L1821.67 1975.15H1649.92L1630.92 2139.63L1317.67 2380L1701.07 2324.2L1731.07 2265.55L1751.15 2324.15Z" fill="black"/>
<path d="M1306.71 2384.58L1628.13 2138L1646.94 1974.83V1974.75L1658.65 1871.29C1658.74 1870.49 1659.14 1869.77 1659.77 1869.27C1660.4 1868.77 1661.19 1868.54 1661.99 1868.63C1662.79 1868.72 1663.51 1869.12 1664.01 1869.75C1664.51 1870.38 1664.74 1871.17 1664.65 1871.97L1653.32 1972.13H1818.79L1821.5 1871.55C1821.52 1870.75 1821.86 1870 1822.44 1869.45C1823.01 1868.9 1823.78 1868.61 1824.58 1868.63C1825.38 1868.65 1826.13 1868.99 1826.68 1869.57C1827.23 1870.14 1827.52 1870.91 1827.5 1871.71L1824.71 1975.21L1817 2316.71L1749.1 2327.51L1730.54 2273.16L1703 2326.9L1701.47 2327.12L1306.71 2384.58ZM1652.59 1978.12L1633.8 2141.21L1632.8 2141.98L1328.63 2375.32L1699.11 2321.4L1731.67 2257.84L1753.17 2320.79L1811.17 2311.57L1818.62 1978.12H1652.59Z" fill="black"/>
<path d="M1946.73 1963.93C1946.57 1963.94 1946.41 1963.94 1946.25 1963.93C1945.47 1963.8 1944.76 1963.37 1944.3 1962.72C1943.83 1962.08 1943.64 1961.28 1943.77 1960.49L1958.39 1871.18C1958.52 1870.4 1958.96 1869.69 1959.61 1869.23C1960.26 1868.77 1961.06 1868.59 1961.85 1868.72C1962.63 1868.85 1963.34 1869.29 1963.8 1869.94C1964.26 1870.59 1964.44 1871.4 1964.31 1872.18L1949.69 1961.49C1949.56 1962.18 1949.19 1962.8 1948.65 1963.24C1948.11 1963.69 1947.43 1963.93 1946.73 1963.93ZM1919.86 1958H1919.59C1919.2 1957.96 1918.82 1957.85 1918.47 1957.67C1918.12 1957.49 1917.81 1957.24 1917.55 1956.93C1917.3 1956.63 1917.11 1956.28 1916.99 1955.91C1916.88 1955.53 1916.83 1955.13 1916.87 1954.74L1924.38 1871.36C1924.42 1870.97 1924.53 1870.58 1924.71 1870.23C1924.9 1869.88 1925.15 1869.57 1925.45 1869.32C1925.75 1869.06 1926.1 1868.87 1926.48 1868.76C1926.86 1868.64 1927.26 1868.59 1927.65 1868.63C1928.04 1868.67 1928.43 1868.78 1928.78 1868.96C1929.13 1869.15 1929.44 1869.4 1929.69 1869.7C1929.95 1870 1930.14 1870.35 1930.25 1870.73C1930.37 1871.11 1930.42 1871.51 1930.38 1871.9L1922.87 1955.28C1922.8 1956.03 1922.45 1956.72 1921.89 1957.23C1921.34 1957.73 1920.61 1958.01 1919.86 1958ZM1997.71 1958H1997.61C1997.22 1957.99 1996.83 1957.9 1996.47 1957.73C1996.11 1957.57 1995.79 1957.34 1995.52 1957.05C1995.25 1956.76 1995.04 1956.43 1994.9 1956.06C1994.76 1955.69 1994.7 1955.29 1994.71 1954.9L1997.48 1871.52C1997.49 1871.13 1997.58 1870.74 1997.75 1870.38C1997.91 1870.02 1998.14 1869.7 1998.43 1869.43C1998.72 1869.16 1999.06 1868.95 1999.42 1868.81C1999.79 1868.67 2000.19 1868.61 2000.58 1868.62C2000.97 1868.63 2001.36 1868.72 2001.72 1868.89C2002.08 1869.05 2002.4 1869.28 2002.67 1869.57C2002.94 1869.86 2003.15 1870.2 2003.29 1870.56C2003.43 1870.93 2003.49 1871.33 2003.48 1871.72L2000.71 1955.1C2000.68 1955.88 2000.36 1956.62 1999.8 1957.16C1999.24 1957.7 1998.49 1958 1997.71 1958Z" fill="black"/>
<path d="M1720.52 1964.32C1720.36 1964.33 1720.2 1964.33 1720.04 1964.32C1719.26 1964.19 1718.55 1963.76 1718.09 1963.11C1717.62 1962.47 1717.43 1961.67 1717.56 1960.88L1732.18 1871.57C1732.31 1870.78 1732.75 1870.08 1733.4 1869.62C1734.05 1869.16 1734.85 1868.98 1735.64 1869.11C1736.43 1869.24 1737.13 1869.68 1737.59 1870.33C1738.05 1870.98 1738.23 1871.78 1738.1 1872.57L1723.48 1961.88C1723.35 1962.57 1722.98 1963.19 1722.44 1963.63C1721.9 1964.08 1721.22 1964.32 1720.52 1964.32ZM1693.64 1958.4H1693.37C1692.98 1958.36 1692.6 1958.25 1692.25 1958.07C1691.9 1957.89 1691.59 1957.64 1691.33 1957.33C1691.08 1957.03 1690.89 1956.68 1690.77 1956.31C1690.66 1955.93 1690.61 1955.53 1690.65 1955.14L1698.16 1871.75C1698.2 1871.36 1698.31 1870.97 1698.49 1870.62C1698.68 1870.27 1698.93 1869.96 1699.23 1869.71C1699.53 1869.45 1699.88 1869.26 1700.26 1869.15C1700.64 1869.03 1701.04 1868.98 1701.43 1869.02C1701.82 1869.06 1702.21 1869.17 1702.56 1869.35C1702.91 1869.54 1703.22 1869.79 1703.47 1870.09C1703.73 1870.39 1703.92 1870.74 1704.03 1871.12C1704.15 1871.5 1704.2 1871.9 1704.16 1872.29L1696.65 1955.68C1696.58 1956.43 1696.23 1957.12 1695.67 1957.63C1695.12 1958.13 1694.39 1958.41 1693.64 1958.4ZM1771.5 1958.4H1771.4C1771.01 1958.39 1770.62 1958.3 1770.26 1958.13C1769.9 1957.97 1769.58 1957.74 1769.31 1957.45C1769.04 1957.16 1768.83 1956.83 1768.69 1956.46C1768.55 1956.09 1768.49 1955.69 1768.5 1955.3L1771.26 1871.91C1771.27 1871.52 1771.36 1871.13 1771.53 1870.77C1771.69 1870.41 1771.92 1870.09 1772.21 1869.82C1772.5 1869.55 1772.84 1869.34 1773.2 1869.2C1773.57 1869.06 1773.97 1869 1774.36 1869.01C1774.75 1869.02 1775.14 1869.11 1775.5 1869.28C1775.86 1869.44 1776.18 1869.67 1776.45 1869.96C1776.72 1870.25 1776.93 1870.59 1777.07 1870.95C1777.21 1871.32 1777.27 1871.72 1777.26 1872.11L1774.5 1955.5C1774.47 1956.28 1774.15 1957.02 1773.59 1957.56C1773.03 1958.1 1772.28 1958.4 1771.5 1958.4Z" fill="black"/>
<path d="M2605.25 1249.85L2568.39 1244.71C2567.99 1244.67 2567.6 1244.55 2567.25 1244.35C2566.9 1244.16 2566.59 1243.9 2566.34 1243.58C2566.09 1243.26 2565.91 1242.9 2565.8 1242.51C2565.7 1242.12 2565.67 1241.71 2565.72 1241.32C2565.78 1240.92 2565.91 1240.53 2566.12 1240.19C2566.33 1239.84 2566.6 1239.54 2566.93 1239.3C2567.25 1239.07 2567.62 1238.9 2568.01 1238.8C2568.41 1238.71 2568.81 1238.7 2569.21 1238.77L2603.71 1243.57L2663.25 1200.91C2663.57 1200.68 2663.93 1200.52 2664.32 1200.43C2664.7 1200.34 2665.1 1200.32 2665.49 1200.39C2665.88 1200.45 2666.25 1200.59 2666.58 1200.8C2666.92 1201.01 2667.21 1201.28 2667.44 1201.6C2667.67 1201.92 2667.83 1202.28 2667.92 1202.67C2668.01 1203.05 2668.03 1203.45 2667.96 1203.84C2667.9 1204.23 2667.76 1204.6 2667.55 1204.93C2667.34 1205.27 2667.07 1205.56 2666.75 1205.79L2605.25 1249.85ZM2602.97 1213.69L2568.44 1209.49C2567.64 1209.39 2566.92 1208.99 2566.42 1208.36C2565.93 1207.73 2565.7 1206.93 2565.8 1206.13C2565.9 1205.33 2566.3 1204.61 2566.93 1204.11C2567.56 1203.62 2568.36 1203.39 2569.16 1203.49L2601.47 1207.43L2643.9 1178.7C2644.56 1178.25 2645.38 1178.09 2646.16 1178.24C2646.94 1178.4 2647.63 1178.86 2648.08 1179.52C2648.53 1180.18 2648.69 1181 2648.54 1181.78C2648.38 1182.56 2647.92 1183.25 2647.26 1183.7L2602.97 1213.69Z" fill="black"/>
</svg>
