<svg width="3000" height="3000" viewBox="0 0 3000 3000" fill="none" xmlns="http://www.w3.org/2000/svg">
<path d="M1905.91 1358.56C1904.26 1358.56 1902.65 1358.07 1901.28 1357.16C1899.91 1356.24 1898.84 1354.94 1898.21 1353.42C1897.58 1351.9 1897.42 1350.22 1897.74 1348.6C1898.06 1346.99 1898.85 1345.5 1900.02 1344.34C1901.18 1343.17 1902.67 1342.38 1904.28 1342.06C1905.9 1341.74 1907.58 1341.9 1909.1 1342.53C1910.62 1343.16 1911.92 1344.23 1912.84 1345.6C1913.75 1346.97 1914.24 1348.58 1914.24 1350.23C1914.24 1352.44 1913.36 1354.56 1911.8 1356.12C1910.24 1357.68 1908.12 1358.56 1905.91 1358.56ZM1905.91 1347.9C1905.45 1347.9 1905 1348.04 1904.62 1348.29C1904.23 1348.55 1903.93 1348.91 1903.76 1349.34C1903.58 1349.76 1903.53 1350.23 1903.62 1350.68C1903.71 1351.14 1903.94 1351.55 1904.26 1351.88C1904.59 1352.2 1905 1352.43 1905.46 1352.52C1905.91 1352.61 1906.38 1352.56 1906.8 1352.38C1907.23 1352.21 1907.59 1351.91 1907.85 1351.52C1908.1 1351.14 1908.24 1350.69 1908.24 1350.23C1908.24 1349.61 1907.99 1349.02 1907.56 1348.58C1907.12 1348.15 1906.53 1347.9 1905.91 1347.9Z" fill="#FFFFFF"/>
<path d="M1507.67 195.52C1506.02 195.522 1504.41 195.034 1503.03 194.119C1501.66 193.203 1500.59 191.901 1499.96 190.376C1499.32 188.852 1499.16 187.174 1499.48 185.555C1499.8 183.937 1500.6 182.45 1501.76 181.283C1502.93 180.116 1504.42 179.321 1506.04 179C1507.65 178.678 1509.33 178.844 1510.86 179.477C1512.38 180.109 1513.68 181.18 1514.6 182.553C1515.51 183.926 1516 185.54 1516 187.19C1516 189.399 1515.12 191.516 1513.56 193.077C1512 194.639 1509.88 195.517 1507.67 195.52ZM1507.67 184.85C1507.21 184.848 1506.75 184.984 1506.37 185.24C1505.98 185.495 1505.68 185.86 1505.5 186.288C1505.32 186.715 1505.27 187.186 1505.36 187.64C1505.45 188.095 1505.67 188.513 1506 188.841C1506.33 189.169 1506.75 189.393 1507.2 189.484C1507.65 189.575 1508.12 189.53 1508.55 189.353C1508.98 189.176 1509.35 188.876 1509.6 188.491C1509.86 188.106 1510 187.653 1510 187.19C1510 186.883 1509.94 186.579 1509.83 186.295C1509.71 186.012 1509.54 185.753 1509.32 185.536C1509.1 185.319 1508.85 185.146 1508.56 185.028C1508.28 184.911 1507.98 184.85 1507.67 184.85Z" fill="#FFFFFF"/>
<path d="M321.05 1114.18C319.402 1114.18 317.792 1113.69 316.422 1112.78C315.052 1111.86 313.985 1110.56 313.354 1109.04C312.724 1107.52 312.559 1105.84 312.88 1104.22C313.201 1102.61 313.995 1101.12 315.16 1099.96C316.325 1098.79 317.809 1098 319.425 1097.68C321.041 1097.36 322.716 1097.52 324.238 1098.15C325.76 1098.78 327.061 1099.85 327.976 1101.22C328.891 1102.59 329.38 1104.2 329.38 1105.85C329.377 1108.06 328.499 1110.18 326.937 1111.74C325.376 1113.3 323.258 1114.18 321.05 1114.18ZM321.05 1103.52C320.589 1103.52 320.139 1103.66 319.755 1103.91C319.372 1104.17 319.074 1104.53 318.897 1104.96C318.721 1105.38 318.675 1105.85 318.765 1106.3C318.855 1106.76 319.077 1107.17 319.402 1107.5C319.728 1107.82 320.143 1108.05 320.595 1108.14C321.047 1108.23 321.516 1108.18 321.942 1108C322.367 1107.83 322.731 1107.53 322.987 1107.14C323.243 1106.76 323.38 1106.31 323.38 1105.85C323.38 1105.23 323.134 1104.64 322.698 1104.2C322.261 1103.77 321.668 1103.52 321.05 1103.52Z" fill="#FFFFFF"/>
<path d="M2632.35 346.59C2630.7 346.59 2629.09 346.101 2627.72 345.186C2626.35 344.271 2625.28 342.97 2624.65 341.448C2624.02 339.926 2623.86 338.251 2624.18 336.635C2624.5 335.019 2625.29 333.535 2626.46 332.37C2627.62 331.205 2629.11 330.412 2630.72 330.09C2632.34 329.769 2634.02 329.934 2635.54 330.564C2637.06 331.195 2638.36 332.262 2639.28 333.632C2640.19 335.002 2640.68 336.613 2640.68 338.26C2640.68 340.469 2639.8 342.586 2638.24 344.147C2636.68 345.709 2634.56 346.587 2632.35 346.59ZM2632.35 335.93C2631.89 335.93 2631.44 336.067 2631.06 336.323C2630.67 336.579 2630.37 336.943 2630.2 337.368C2630.02 337.794 2629.97 338.263 2630.06 338.715C2630.15 339.167 2630.38 339.582 2630.7 339.908C2631.03 340.233 2631.44 340.455 2631.9 340.545C2632.35 340.635 2632.82 340.589 2633.24 340.413C2633.67 340.236 2634.03 339.938 2634.29 339.555C2634.54 339.171 2634.68 338.721 2634.68 338.26C2634.68 337.642 2634.43 337.049 2634 336.612C2633.56 336.176 2632.97 335.93 2632.35 335.93Z" fill="#FFFFFF"/>
<path d="M2754.81 1195.46C2753.16 1195.46 2751.55 1194.97 2750.18 1194.06C2748.81 1193.14 2747.74 1191.84 2747.11 1190.32C2746.48 1188.8 2746.32 1187.12 2746.64 1185.5C2746.96 1183.89 2747.75 1182.4 2748.92 1181.24C2750.08 1180.07 2751.57 1179.28 2753.18 1178.96C2754.8 1178.64 2756.48 1178.8 2758 1179.43C2759.52 1180.06 2760.82 1181.13 2761.74 1182.5C2762.65 1183.87 2763.14 1185.48 2763.14 1187.13C2763.14 1189.34 2762.26 1191.46 2760.7 1193.02C2759.14 1194.58 2757.02 1195.46 2754.81 1195.46ZM2754.81 1184.8C2754.35 1184.8 2753.9 1184.94 2753.52 1185.19C2753.13 1185.45 2752.83 1185.81 2752.66 1186.24C2752.48 1186.66 2752.43 1187.13 2752.52 1187.58C2752.61 1188.04 2752.84 1188.45 2753.16 1188.78C2753.49 1189.1 2753.9 1189.33 2754.36 1189.42C2754.81 1189.51 2755.28 1189.46 2755.7 1189.28C2756.13 1189.11 2756.49 1188.81 2756.75 1188.42C2757 1188.04 2757.14 1187.59 2757.14 1187.13C2757.14 1186.51 2756.89 1185.92 2756.46 1185.48C2756.02 1185.05 2755.43 1184.8 2754.81 1184.8Z" fill="#FFFFFF"/>
<path d="M1189.71 629.58C1188.06 629.58 1186.45 629.091 1185.08 628.176C1183.71 627.261 1182.64 625.96 1182.01 624.438C1181.38 622.916 1181.22 621.241 1181.54 619.625C1181.86 618.009 1182.65 616.525 1183.82 615.36C1184.98 614.195 1186.47 613.402 1188.08 613.08C1189.7 612.759 1191.38 612.924 1192.9 613.554C1194.42 614.185 1195.72 615.252 1196.64 616.622C1197.55 617.992 1198.04 619.603 1198.04 621.25C1198.04 623.458 1197.16 625.576 1195.6 627.137C1194.04 628.699 1191.92 629.577 1189.71 629.58ZM1189.71 618.92C1189.25 618.92 1188.8 619.057 1188.42 619.313C1188.03 619.569 1187.73 619.933 1187.56 620.358C1187.38 620.784 1187.33 621.253 1187.42 621.705C1187.51 622.157 1187.74 622.572 1188.06 622.898C1188.39 623.223 1188.8 623.445 1189.26 623.535C1189.71 623.625 1190.18 623.579 1190.6 623.403C1191.03 623.226 1191.39 622.928 1191.65 622.545C1191.9 622.161 1192.04 621.711 1192.04 621.25C1192.04 620.632 1191.79 620.039 1191.36 619.602C1190.92 619.165 1190.33 618.92 1189.71 618.92Z" fill="#FFFFFF"/>
<path d="M2651 2295.58C2649.35 2295.58 2647.74 2295.09 2646.37 2294.18C2645 2293.26 2643.93 2291.96 2643.3 2290.44C2642.67 2288.92 2642.51 2287.24 2642.83 2285.63C2643.15 2284.01 2643.94 2282.52 2645.11 2281.36C2646.27 2280.19 2647.76 2279.4 2649.37 2279.08C2650.99 2278.76 2652.67 2278.92 2654.19 2279.55C2655.71 2280.18 2657.01 2281.25 2657.93 2282.62C2658.84 2283.99 2659.33 2285.6 2659.33 2287.25C2659.33 2289.46 2658.45 2291.58 2656.89 2293.14C2655.33 2294.7 2653.21 2295.58 2651 2295.58ZM2651 2284.92C2650.54 2284.92 2650.09 2285.06 2649.71 2285.31C2649.32 2285.57 2649.02 2285.93 2648.85 2286.36C2648.67 2286.78 2648.62 2287.25 2648.71 2287.7C2648.8 2288.16 2649.03 2288.57 2649.35 2288.9C2649.68 2289.22 2650.09 2289.45 2650.55 2289.54C2651 2289.63 2651.47 2289.58 2651.89 2289.4C2652.32 2289.23 2652.68 2288.93 2652.94 2288.54C2653.19 2288.16 2653.33 2287.71 2653.33 2287.25C2653.33 2286.63 2653.08 2286.04 2652.65 2285.6C2652.21 2285.17 2651.62 2284.92 2651 2284.92Z" fill="#FFFFFF"/>
<path d="M2816 1763.38C2815.37 1763.38 2814.75 1763.18 2814.24 1762.81L2784.88 1741.46C2784.24 1740.99 2783.8 1740.29 2783.68 1739.5C2783.55 1738.72 2783.74 1737.91 2784.21 1737.27C2784.68 1736.63 2785.38 1736.19 2786.17 1736.07C2786.95 1735.94 2787.76 1736.13 2788.4 1736.6L2817.76 1757.95C2818.27 1758.32 2818.66 1758.85 2818.85 1759.45C2819.05 1760.05 2819.05 1760.7 2818.85 1761.31C2818.66 1761.91 2818.28 1762.43 2817.76 1762.81C2817.25 1763.18 2816.63 1763.38 2816 1763.38Z" fill="#FFFFFF"/>
<path d="M718.25 155.84C717.613 155.839 716.993 155.636 716.48 155.26L687.12 133.91C686.792 133.682 686.513 133.391 686.299 133.053C686.085 132.716 685.941 132.34 685.875 131.946C685.808 131.552 685.821 131.149 685.913 130.76C686.004 130.371 686.172 130.005 686.407 129.682C686.642 129.359 686.94 129.086 687.281 128.88C687.623 128.673 688.003 128.537 688.398 128.479C688.793 128.421 689.196 128.443 689.583 128.542C689.969 128.642 690.332 128.818 690.65 129.06L720 150.41C720.514 150.782 720.896 151.307 721.093 151.91C721.289 152.512 721.29 153.162 721.095 153.765C720.899 154.368 720.517 154.894 720.005 155.267C719.492 155.639 718.874 155.84 718.24 155.84H718.25Z" fill="#FFFFFF"/>
<path d="M1541.88 2777.38C1541.24 2777.38 1540.62 2777.17 1540.11 2776.8C1539.59 2776.42 1539.21 2775.89 1539.02 2775.28C1538.83 2774.67 1538.84 2774.01 1539.05 2773.41C1539.25 2772.81 1539.65 2772.29 1540.17 2771.92L1569.96 2751.17C1570.61 2750.76 1571.4 2750.63 1572.15 2750.78C1572.9 2750.94 1573.57 2751.38 1574.01 2752.01C1574.44 2752.64 1574.62 2753.41 1574.51 2754.17C1574.39 2754.93 1573.99 2755.62 1573.38 2756.09L1543.59 2776.84C1543.09 2777.19 1542.49 2777.38 1541.88 2777.38Z" fill="#FFFFFF"/>
<path d="M2410.3 2684.13C2409.66 2684.13 2409.04 2683.93 2408.52 2683.55C2408.01 2683.17 2407.63 2682.64 2407.44 2682.03C2407.24 2681.42 2407.25 2680.77 2407.46 2680.16C2407.66 2679.56 2408.06 2679.04 2408.58 2678.67L2438.38 2657.92C2439.03 2657.51 2439.82 2657.38 2440.57 2657.53C2441.32 2657.69 2441.99 2658.13 2442.43 2658.76C2442.86 2659.39 2443.04 2660.16 2442.93 2660.92C2442.81 2661.68 2442.41 2662.37 2441.8 2662.84L2412 2683.59C2411.5 2683.94 2410.91 2684.13 2410.3 2684.13Z" fill="#FFFFFF"/>
<path d="M347.72 586.7C347.082 586.699 346.461 586.494 345.948 586.116C345.434 585.737 345.055 585.205 344.864 584.597C344.674 583.988 344.682 583.335 344.888 582.731C345.094 582.127 345.487 581.605 346.01 581.24L375.79 560.49C376.112 560.251 376.479 560.08 376.869 559.986C377.259 559.891 377.664 559.876 378.06 559.941C378.456 560.006 378.834 560.15 379.174 560.363C379.513 560.577 379.806 560.857 380.035 561.186C380.265 561.515 380.426 561.887 380.509 562.279C380.592 562.671 380.596 563.076 380.52 563.47C380.444 563.864 380.29 564.239 380.066 564.572C379.843 564.905 379.555 565.19 379.22 565.41L349.44 586.16C348.936 586.512 348.335 586.701 347.72 586.7Z" fill="#FFFFFF"/>
<path d="M776 1036.9C775.361 1036.9 774.739 1036.7 774.224 1036.32C773.709 1035.94 773.328 1035.41 773.136 1034.8C772.944 1034.19 772.951 1033.54 773.157 1032.93C773.363 1032.33 773.756 1031.81 774.28 1031.44L804.07 1010.69C804.723 1010.26 805.517 1010.1 806.284 1010.25C807.051 1010.4 807.73 1010.84 808.176 1011.48C808.623 1012.12 808.802 1012.91 808.676 1013.68C808.55 1014.45 808.128 1015.15 807.5 1015.61L777.71 1036.36C777.21 1036.71 776.612 1036.9 776 1036.9Z" fill="#FFFFFF"/>
<path d="M221.79 1961.63C221.092 1961.63 220.416 1961.39 219.878 1960.94C219.341 1960.49 218.976 1959.88 218.845 1959.19C218.715 1958.5 218.828 1957.79 219.165 1957.18C219.501 1956.57 220.041 1956.1 220.69 1955.84L254.48 1942.56C254.849 1942.4 255.245 1942.32 255.645 1942.32C256.046 1942.32 256.442 1942.4 256.812 1942.56C257.181 1942.71 257.515 1942.94 257.795 1943.22C258.076 1943.51 258.295 1943.85 258.442 1944.22C258.589 1944.59 258.66 1944.99 258.651 1945.39C258.641 1945.79 258.552 1946.19 258.387 1946.55C258.223 1946.92 257.988 1947.25 257.694 1947.52C257.401 1947.79 257.056 1948 256.68 1948.14L222.89 1961.42C222.54 1961.56 222.167 1961.63 221.79 1961.63Z" fill="#FFFFFF"/>
<path d="M2109.1 166.37C2108.6 166.37 2108.11 166.245 2107.67 166.006C2107.23 165.766 2106.85 165.421 2106.58 165L2086.83 134.54C2086.48 133.879 2086.39 133.112 2086.58 132.388C2086.76 131.664 2087.21 131.035 2087.84 130.626C2088.47 130.217 2089.22 130.056 2089.96 130.175C2090.7 130.294 2091.36 130.685 2091.83 131.27L2111.58 161.74C2112.01 162.408 2112.16 163.218 2111.99 163.994C2111.82 164.77 2111.36 165.448 2110.69 165.88C2110.22 166.19 2109.67 166.36 2109.1 166.37Z" fill="#FFFFFF"/>
<path d="M2377.59 1262C2377.09 1262 2376.6 1261.88 2376.16 1261.64C2375.72 1261.4 2375.34 1261.05 2375.07 1260.63L2355.32 1230.16C2355.06 1229.83 2354.86 1229.46 2354.76 1229.05C2354.65 1228.64 2354.62 1228.22 2354.69 1227.81C2354.76 1227.39 2354.91 1227 2355.14 1226.64C2355.36 1226.29 2355.66 1225.99 2356.01 1225.76C2356.37 1225.53 2356.76 1225.38 2357.18 1225.31C2357.59 1225.25 2358.01 1225.27 2358.42 1225.37C2358.83 1225.48 2359.2 1225.67 2359.53 1225.94C2359.86 1226.2 2360.13 1226.53 2360.32 1226.9L2380.07 1257.37C2380.36 1257.82 2380.53 1258.35 2380.55 1258.89C2380.57 1259.43 2380.44 1259.96 2380.19 1260.43C2379.93 1260.91 2379.55 1261.3 2379.08 1261.58C2378.62 1261.85 2378.09 1262 2377.55 1262H2377.59Z" fill="#FFFFFF"/>
<path d="M783.26 2807.84C782.759 2807.84 782.266 2807.71 781.826 2807.48C781.385 2807.24 781.012 2806.89 780.74 2806.47L761 2776C760.66 2775.34 760.576 2774.58 760.766 2773.86C760.956 2773.14 761.406 2772.52 762.028 2772.11C762.65 2771.71 763.401 2771.55 764.135 2771.66C764.868 2771.78 765.533 2772.16 766 2772.74L785.75 2803.2C786.043 2803.65 786.209 2804.18 786.229 2804.72C786.25 2805.26 786.124 2805.79 785.866 2806.26C785.608 2806.74 785.227 2807.13 784.763 2807.41C784.299 2807.69 783.77 2807.83 783.23 2807.83L783.26 2807.84Z" fill="#FFFFFF"/>
<path d="M888.75 764.4H885.94C885.144 764.387 884.387 764.058 883.833 763.486C883.28 762.914 882.977 762.146 882.99 761.35C883.003 760.554 883.332 759.797 883.904 759.243C884.476 758.69 885.244 758.387 886.04 758.4C889.54 758.4 893.09 758.4 896.6 758.24C897.396 758.204 898.173 758.486 898.761 759.023C899.349 759.561 899.699 760.309 899.735 761.105C899.771 761.901 899.489 762.678 898.952 763.266C898.415 763.854 897.666 764.204 896.87 764.24C894.17 764.34 891.45 764.4 888.75 764.4ZM904.75 763.68C903.954 763.716 903.177 763.434 902.589 762.897C902.001 762.36 901.651 761.611 901.615 760.815C901.579 760.019 901.861 759.242 902.398 758.654C902.936 758.066 903.684 757.716 904.48 757.68C910.59 757.14 916.84 756.27 923.06 755.09C923.455 754.997 923.864 754.984 924.264 755.054C924.663 755.123 925.045 755.273 925.385 755.494C925.725 755.715 926.017 756.002 926.242 756.339C926.468 756.676 926.623 757.055 926.698 757.454C926.773 757.852 926.767 758.262 926.679 758.658C926.592 759.054 926.425 759.428 926.188 759.758C925.952 760.087 925.651 760.366 925.304 760.576C924.958 760.786 924.572 760.923 924.17 760.98C917.76 762.2 911.32 763.1 905.02 763.66L904.75 763.68ZM870.59 763.43H870.27C795.41 755.36 744.27 698.85 723.18 652.91V652.8C719.66 644.28 715.94 634.26 712.31 623.17C698.066 631.49 682.311 636.898 665.96 639.08C654.51 640.68 643.89 640.24 634.4 637.77C633.63 637.568 632.971 637.069 632.568 636.382C632.166 635.694 632.053 634.875 632.255 634.105C632.457 633.335 632.956 632.676 633.643 632.273C634.331 631.871 635.15 631.758 635.92 631.96C644.64 634.23 654.46 634.63 665.13 633.13C681.152 631.002 696.567 625.608 710.42 617.28C690.23 552.88 674.34 456.75 712.94 402.73C730.03 378.82 746.16 368.89 760.94 373.24C780.94 379.15 792.81 412.04 794.18 441.48V441.58C794.82 491.58 778.18 579.97 717.61 619.9C722.34 634.43 726.55 645.14 728.75 650.46C749.18 694.96 798.68 749.67 871 757.46C871.796 757.502 872.542 757.859 873.074 758.452C873.607 759.044 873.882 759.824 873.84 760.62C873.798 761.416 873.441 762.162 872.848 762.694C872.256 763.227 871.476 763.502 870.68 763.46L870.59 763.43ZM754.16 378.26C743.38 378.26 730.91 387.79 717.76 406.2C698.08 433.73 691.12 477 697.6 531.3C701.101 559.319 707.126 586.965 715.6 613.9C772.89 574.9 788.67 489.9 788.07 441.69C786.83 415.05 776.26 384 759.13 379C757.518 378.513 755.844 378.264 754.16 378.26ZM931.25 759.45C930.508 759.457 929.79 759.188 929.235 758.696C928.68 758.204 928.326 757.524 928.243 756.787C928.159 756.05 928.352 755.308 928.784 754.705C929.216 754.101 929.855 753.679 930.58 753.52C936.8 752.1 943.16 750.34 949.47 748.3C950.227 748.055 951.051 748.12 951.76 748.482C952.469 748.844 953.005 749.473 953.25 750.23C953.495 750.987 953.43 751.811 953.068 752.52C952.706 753.229 952.077 753.765 951.32 754.01C944.84 756.11 938.32 757.91 931.92 759.37C931.7 759.421 931.476 759.448 931.25 759.45ZM957 751.9C956.292 751.901 955.606 751.651 955.064 751.195C954.522 750.739 954.159 750.105 954.039 749.407C953.919 748.709 954.05 747.991 954.409 747.38C954.768 746.769 955.332 746.305 956 746.07C969.541 741.202 982.692 735.312 995.34 728.45C995.687 728.263 996.067 728.146 996.459 728.106C996.851 728.065 997.247 728.103 997.624 728.216C998.002 728.328 998.353 728.515 998.659 728.763C998.964 729.012 999.218 729.318 999.405 729.665C999.592 730.012 999.709 730.392 999.749 730.784C999.79 731.176 999.752 731.572 999.639 731.949C999.527 732.327 999.341 732.678 999.092 732.984C998.843 733.289 998.537 733.543 998.19 733.73C985.269 740.733 971.837 746.75 958.01 751.73C957.684 751.839 957.344 751.896 957 751.9ZM629 635.9C628.658 635.894 628.32 635.83 628 635.71C621.561 633.282 615.573 629.798 610.28 625.4C609.667 624.892 609.282 624.162 609.207 623.369C609.133 622.577 609.377 621.788 609.885 621.175C610.393 620.562 611.123 620.177 611.916 620.102C612.708 620.028 613.497 620.272 614.11 620.78C618.886 624.755 624.294 627.902 630.11 630.09C630.769 630.337 631.321 630.807 631.668 631.419C632.016 632.031 632.137 632.746 632.011 633.439C631.884 634.131 631.519 634.757 630.977 635.207C630.436 635.657 629.754 635.902 629.05 635.9H629ZM605.49 619.71C605.071 619.708 604.656 619.618 604.274 619.445C603.892 619.273 603.55 619.023 603.27 618.71C599.302 614.3 595.816 609.479 592.87 604.33C592.653 603.989 592.507 603.607 592.442 603.207C592.376 602.808 592.392 602.4 592.488 602.007C592.584 601.614 592.759 601.244 593.002 600.921C593.244 600.597 593.55 600.326 593.9 600.123C594.251 599.921 594.638 599.791 595.04 599.743C595.442 599.694 595.849 599.727 596.238 599.839C596.626 599.952 596.988 600.142 597.301 600.398C597.614 600.655 597.872 600.972 598.06 601.33C600.796 606.108 604.031 610.583 607.71 614.68C608.243 615.268 608.521 616.043 608.484 616.836C608.446 617.629 608.096 618.375 607.51 618.91C606.982 619.421 606.284 619.719 605.55 619.75L605.49 619.71ZM588.72 591.89C588.131 591.877 587.559 591.69 587.076 591.354C586.592 591.018 586.218 590.547 586 590C576.84 567.23 572.25 537.37 572.34 501.26C572.533 471.931 575.391 442.681 580.88 413.87C580.95 413.478 581.097 413.104 581.312 412.77C581.528 412.436 581.807 412.148 582.135 411.922C582.463 411.697 582.833 411.539 583.222 411.458C583.612 411.377 584.013 411.374 584.404 411.45C584.794 411.526 585.166 411.678 585.497 411.899C585.828 412.119 586.112 412.403 586.332 412.735C586.552 413.066 586.704 413.438 586.78 413.828C586.855 414.219 586.852 414.621 586.77 415.01C577.1 465.15 572.56 540.48 591.57 587.77C591.866 588.509 591.856 589.334 591.543 590.066C591.229 590.797 590.639 591.374 589.9 591.67C589.547 591.83 589.167 591.918 588.78 591.93L588.72 591.89Z" fill="#FFFFFF"/>
<path d="M2508.61 2008.39H2507.54C2507.26 2007.97 2506.89 2007.63 2506.45 2007.38C2506.01 2007.13 2505.53 2006.98 2505.02 2006.95C2504.52 2006.92 2504.02 2007.01 2503.56 2007.2C2503.09 2007.39 2502.68 2007.69 2502.35 2008.07C2477.63 2005.41 2460.76 1986.79 2453.82 1971.66V1971.56C2452.93 1969.41 2452 1966.97 2451.08 1964.3C2446.9 1966.41 2442.39 1967.8 2437.75 1968.42C2434.14 1968.99 2430.45 1968.83 2426.9 1967.96C2426.51 1967.86 2426.15 1967.69 2425.83 1967.45C2425.43 1967.46 2425.03 1967.4 2424.66 1967.26C2422.4 1966.4 2420.29 1965.18 2418.43 1963.63C2417.98 1963.25 2417.66 1962.76 2417.48 1962.2C2416.92 1962.05 2416.41 1961.75 2416.02 1961.32C2414.64 1959.79 2413.44 1958.11 2412.43 1956.32C2412.65 1955.86 2412.77 1955.35 2412.76 1954.83C2412.76 1954.32 2412.65 1953.81 2412.42 1953.35C2412.2 1952.88 2411.87 1952.48 2411.47 1952.15C2411.07 1951.83 2410.6 1951.61 2410.1 1951.49C2403.72 1935.62 2405.02 1911.49 2408.35 1894.19C2408.42 1893.8 2408.58 1893.43 2408.79 1893.1C2409.01 1892.78 2409.29 1892.49 2409.62 1892.27C2409.94 1892.05 2410.31 1891.9 2410.7 1891.82C2411.08 1891.74 2411.48 1891.74 2411.87 1891.81C2412.26 1891.88 2412.63 1892.04 2412.96 1892.25C2413.28 1892.47 2413.57 1892.75 2413.79 1893.08C2414.01 1893.4 2414.16 1893.77 2414.24 1894.16C2414.32 1894.54 2414.32 1894.94 2414.25 1895.33C2411.25 1911.03 2409.77 1934.58 2415.66 1949.25C2415.41 1949.63 2415.26 1950.07 2415.23 1950.53C2415.2 1950.99 2415.29 1951.45 2415.5 1951.86C2415.7 1952.27 2416 1952.62 2416.38 1952.88C2416.76 1953.13 2417.2 1953.29 2417.66 1953.32C2418.45 1954.72 2419.39 1956.03 2420.47 1957.22C2420.58 1957.66 2420.8 1958.05 2421.13 1958.36C2421.45 1958.67 2421.86 1958.88 2422.3 1958.96C2423.65 1960.08 2425.17 1960.97 2426.81 1961.59C2427.08 1961.7 2427.34 1961.84 2427.57 1962.01C2427.86 1962 2428.15 1962.03 2428.43 1962.11C2431.22 1962.77 2434.11 1962.88 2436.94 1962.43C2441.25 1961.85 2445.41 1960.49 2449.24 1958.43C2442.93 1937.5 2438.38 1907.21 2450.81 1889.82C2456.81 1881.41 2462.71 1877.98 2468.34 1879.65C2475.98 1881.9 2479.94 1893.47 2480.4 1903.26V1903.36C2480.61 1919.36 2475.34 1947.48 2456.4 1961.06C2457.4 1964.06 2458.4 1966.83 2459.4 1969.16C2465.7 1982.85 2480.9 1999.67 2503.09 2002.06C2503.55 2002.11 2503.99 2002.26 2504.38 2002.51C2504.76 2002.76 2505.09 2003.09 2505.33 2003.48C2505.61 2003.12 2505.97 2002.84 2506.38 2002.64C2506.79 2002.44 2507.24 2002.34 2507.69 2002.34C2508.85 2002.34 2509.9 2002.34 2510.91 2002.29C2511.33 2002.27 2511.76 2002.34 2512.15 2002.5C2512.52 2002.3 2512.93 2002.17 2513.35 2002.13C2515.27 2001.96 2517.17 2001.69 2519.06 2001.33C2519.47 2001.25 2519.88 2001.25 2520.29 2001.33C2520.63 2001.09 2521.01 2000.92 2521.41 2000.82C2523.29 2000.4 2525.26 1999.82 2527.25 1999.21C2527.61 1999.23 2527.98 1999.18 2528.32 1999.07C2528.66 1998.95 2528.98 1998.76 2529.25 1998.52C2533.47 1997 2537.57 1995.17 2541.51 1993.03C2541.86 1992.82 2542.24 1992.69 2542.64 1992.64C2543.04 1992.59 2543.45 1992.62 2543.84 1992.72C2544.23 1992.83 2544.59 1993.02 2544.91 1993.27C2545.22 1993.52 2545.48 1993.84 2545.68 1994.19C2545.87 1994.55 2545.98 1994.94 2546.02 1995.34C2546.06 1995.74 2546.01 1996.15 2545.89 1996.53C2545.77 1996.92 2545.57 1997.27 2545.3 1997.58C2545.04 1997.88 2544.71 1998.13 2544.35 1998.31C2540.14 2000.59 2535.77 2002.55 2531.27 2004.18C2530.47 2004.15 2529.68 2004.42 2529.06 2004.93C2526.9 2005.62 2524.76 2006.21 2522.7 2006.68C2522.26 2006.58 2521.81 2006.58 2521.37 2006.67C2520.93 2006.76 2520.51 2006.95 2520.15 2007.21C2518.06 2007.61 2515.96 2007.9 2513.84 2008.09C2513.38 2008.13 2512.92 2008.06 2512.49 2007.89C2512.09 2008.12 2511.64 2008.25 2511.18 2008.27C2510.34 2008.37 2509.5 2008.39 2508.61 2008.39ZM2465.55 1885.3C2462.84 1885.3 2459.37 1888.1 2455.62 1893.3C2449.62 1901.66 2447.55 1914.96 2449.56 1931.76C2450.55 1939.61 2452.17 1947.36 2454.4 1954.95C2470.1 1942.38 2474.5 1917.75 2474.33 1903.49C2473.91 1894.65 2470.43 1886.49 2466.57 1885.4C2466.24 1885.32 2465.89 1885.28 2465.55 1885.3Z" fill="#FEDA00"/>
<path d="M2320.84 1805.6L2301.52 1494.37L1890.16 1526.37L1889.7 1520.37L2307.14 1487.88L2326.82 1805.19L2320.84 1805.6ZM1420.24 1563L1419.78 1557L1574.88 1544.93L1575.34 1550.93L1420.24 1563Z" fill="#FFFFFF"/>
<path d="M1303.66 1710.33L1303.36 1716.33L2318.91 1767.59L2319.21 1761.6L1303.66 1710.33Z" fill="#FFFFFF"/>
<path d="M1235.9 1807.91C1235.35 1807.91 1234.8 1807.75 1234.33 1807.46C1233.86 1807.17 1233.48 1806.76 1233.23 1806.26C1232.98 1805.77 1232.87 1805.21 1232.92 1804.66C1232.96 1804.11 1233.16 1803.58 1233.49 1803.13L1520.81 1413.38L1638.28 1685.38L1911.18 1572.38C1881.91 1510.86 1829.35 1414.79 1767.82 1326.11C1717 1252.9 1641.61 1158.65 1571 1125.51C1570.64 1125.34 1570.32 1125.11 1570.06 1124.82C1569.79 1124.52 1569.58 1124.18 1569.45 1123.81C1569.32 1123.44 1569.26 1123.05 1569.27 1122.65C1569.29 1122.26 1569.39 1121.87 1569.55 1121.51C1569.72 1121.16 1569.96 1120.84 1570.25 1120.57C1570.54 1120.31 1570.88 1120.1 1571.25 1119.97C1571.62 1119.83 1572.02 1119.77 1572.41 1119.79C1572.81 1119.81 1573.19 1119.9 1573.55 1120.07C1604.18 1134.47 1638.12 1161.14 1674.41 1199.35C1705.68 1232.28 1738.75 1273.79 1772.7 1322.71C1835.41 1413.07 1888.83 1511.09 1917.91 1572.71L1919.26 1575.56L1916.35 1576.76L1635.08 1693.23L1633.91 1690.52L1519.41 1425.36L1238.27 1806.71C1237.99 1807.08 1237.64 1807.38 1237.22 1807.59C1236.81 1807.79 1236.36 1807.91 1235.9 1807.91Z" fill="#FFFFFF"/>
<path d="M1652 1807.32L1658 1681.38L1828.12 1609.98L1838.22 1635.98L2115.79 1790.98L2112.79 1807.32H1749.55L1732.08 1749.32L1716.08 1807.32H1652Z" fill="#FFFFFF"/>
<path d="M2592.61 1799.85L2466.86 1790.76L2324.71 1799.85L2312.4 1618.91H2399.72L2426.01 1609.47L2620.92 1362L2637.18 1365.4L2595.05 1702.34L2536.65 1718.34L2594.21 1735.77L2592.61 1799.85Z" fill="#FFFFFF"/>
<path d="M1059.09 1806.88C1058.53 1806.88 1057.98 1806.72 1057.5 1806.43C1057.03 1806.13 1056.64 1805.7 1056.4 1805.2C1056.15 1804.7 1056.05 1804.13 1056.11 1803.57C1056.16 1803.01 1056.38 1802.48 1056.72 1802.04L1343.91 1432.41C1344.15 1432.1 1344.45 1431.84 1344.79 1431.64C1345.14 1431.45 1345.51 1431.32 1345.91 1431.27C1346.3 1431.22 1346.69 1431.25 1347.07 1431.36C1347.45 1431.46 1347.81 1431.64 1348.12 1431.88C1348.43 1432.12 1348.69 1432.42 1348.89 1432.76C1349.08 1433.11 1349.21 1433.48 1349.26 1433.88C1349.31 1434.27 1349.28 1434.66 1349.17 1435.04C1349.07 1435.42 1348.89 1435.78 1348.65 1436.09L1061.46 1805.72C1061.18 1806.08 1060.82 1806.37 1060.41 1806.57C1060 1806.78 1059.55 1806.88 1059.09 1806.88ZM1793.69 1627.55C1793.24 1627.55 1792.79 1627.45 1792.38 1627.25C1791.98 1627.05 1791.62 1626.76 1791.34 1626.41L1508.93 1270.1C1508.48 1269.47 1508.29 1268.7 1508.39 1267.93C1508.5 1267.17 1508.9 1266.47 1509.5 1265.99C1510.11 1265.51 1510.87 1265.29 1511.64 1265.36C1512.41 1265.43 1513.12 1265.8 1513.63 1266.38L1796 1622.69C1796.35 1623.13 1796.57 1623.66 1796.63 1624.22C1796.69 1624.78 1796.59 1625.35 1796.35 1625.86C1796.1 1626.36 1795.72 1626.79 1795.24 1627.09C1794.76 1627.39 1794.21 1627.55 1793.65 1627.55H1793.69Z" fill="#FFFFFF"/>
<path d="M1354.38 1189.25C1353.8 1189.25 1353.23 1189.08 1352.75 1188.77C1352.26 1188.45 1351.88 1188.01 1351.64 1187.48C1351.4 1186.95 1351.32 1186.36 1351.41 1185.79C1351.5 1185.22 1351.75 1184.68 1352.14 1184.25C1375.14 1158.37 1399.49 1138.16 1424.48 1124.18C1450.64 1109.56 1467.18 1107.59 1471.63 1107.33C1472.43 1107.28 1473.21 1107.56 1473.8 1108.09C1474.4 1108.62 1474.75 1109.36 1474.8 1110.16C1474.85 1110.96 1474.57 1111.74 1474.04 1112.33C1473.51 1112.93 1472.77 1113.28 1471.97 1113.33C1454.2 1114.33 1407.22 1131.33 1356.62 1188.23C1356.34 1188.55 1356 1188.8 1355.61 1188.98C1355.22 1189.16 1354.8 1189.25 1354.38 1189.25Z" fill="#FFFFFF"/>
<path d="M1172.18 1396.76C1171.6 1396.76 1171.03 1396.6 1170.54 1396.29C1170.05 1395.97 1169.66 1395.53 1169.42 1395C1169.18 1394.47 1169.1 1393.88 1169.19 1393.3C1169.28 1392.73 1169.53 1392.19 1169.92 1391.76L1245.84 1304.76C1246.37 1304.19 1247.1 1303.85 1247.88 1303.81C1248.65 1303.78 1249.41 1304.04 1250 1304.55C1250.59 1305.06 1250.95 1305.78 1251.02 1306.55C1251.09 1307.33 1250.85 1308.1 1250.36 1308.7L1174.44 1395.7C1174.16 1396.03 1173.82 1396.29 1173.43 1396.48C1173.04 1396.66 1172.61 1396.76 1172.18 1396.76Z" fill="#FFFFFF"/>
<path d="M1382.24 1445.56C1362.18 1445.56 1344.66 1436.06 1334.9 1427.46L1334.67 1427.26L1334.48 1427.01L1232.22 1290.67C1231.98 1290.35 1231.81 1290 1231.71 1289.61C1231.62 1289.23 1231.59 1288.84 1231.65 1288.45C1231.71 1288.06 1231.84 1287.68 1232.04 1287.34C1232.24 1287 1232.5 1286.71 1232.82 1286.47C1233.13 1286.23 1233.49 1286.06 1233.88 1285.96C1234.26 1285.87 1234.65 1285.84 1235.04 1285.9C1235.43 1285.96 1235.81 1286.09 1236.15 1286.29C1236.49 1286.49 1236.78 1286.75 1237.02 1287.07L1339.09 1423.16C1355.54 1437.48 1395.33 1454.16 1429.86 1416.16C1445.54 1398.87 1471.6 1349.8 1505.23 1274.27C1540.67 1194.69 1571.23 1116.08 1579.72 1093.89C1579.85 1093.51 1580.05 1093.15 1580.32 1092.85C1580.59 1092.55 1580.92 1092.3 1581.28 1092.13C1581.65 1091.96 1582.05 1091.86 1582.45 1091.85C1582.85 1091.83 1583.26 1091.9 1583.63 1092.04C1584.01 1092.19 1584.36 1092.41 1584.65 1092.69C1584.94 1092.97 1585.17 1093.3 1585.33 1093.68C1585.48 1094.05 1585.56 1094.45 1585.56 1094.85C1585.56 1095.26 1585.48 1095.66 1585.32 1096.03C1549.07 1190.53 1470.85 1379.89 1434.32 1420.2C1417.18 1439.06 1398.84 1445.56 1382.24 1445.56ZM1393.47 1248.49L1334.47 1164.84C1334.03 1164.19 1333.87 1163.39 1334.01 1162.62C1334.15 1161.85 1334.59 1161.17 1335.23 1160.71C1335.87 1160.26 1336.66 1160.08 1337.43 1160.2C1338.21 1160.33 1338.9 1160.75 1339.37 1161.38L1393.15 1237.57L1480.6 1094.1V1075.4C1480.6 1074.6 1480.92 1073.84 1481.48 1073.28C1482.04 1072.72 1482.8 1072.4 1483.6 1072.4C1484.4 1072.4 1485.16 1072.72 1485.72 1073.28C1486.28 1073.84 1486.6 1074.6 1486.6 1075.4V1095.78L1393.47 1248.49Z" fill="#FFFFFF"/>
<path d="M1712.81 1164.33L1522 1071.39L1373.1 1097.2L1383.6 1065.7L1358.49 1064.7L1365.49 1038.31L1315.24 1027.74L1429.36 809.09L1606.59 882.94L1796.42 874.11L1790.14 887.29H1834.14L1817.76 920L1833.52 924.52L1712.81 1164.33ZM1558.92 1082.7L1710.11 1156.35L1824.9 928.28L1815.04 925.46L1713.04 1130.39L1558.92 1082.7ZM1553.92 1074.88L1709.92 1123.15L1810.79 920.55L1824.37 893.28H1787.24L1693.12 1090.75L1553.92 1074.88ZM1389.84 1066L1381.96 1089.63L1494.13 1070.18L1389.84 1066ZM1526.9 1065.81L1689.53 1084.36L1782.63 889L1786.63 880.57L1608 888.87L1526.9 1065.81ZM1324.17 1023.54L1520.72 1064.89L1602 887.53L1432.1 816.74L1324.17 1023.54ZM1366.17 1059.04L1486.78 1063.89L1371.3 1039.59L1366.17 1059.04Z" fill="#FFFFFF"/>
<path d="M1934.67 1091.15C1933.97 1091.14 1933.29 1090.89 1932.75 1090.44C1932.21 1089.98 1931.86 1089.35 1931.74 1088.66C1931.62 1087.96 1931.75 1087.25 1932.1 1086.64C1932.45 1086.03 1933.01 1085.57 1933.67 1085.33L2295.16 954C2295.54 953.834 2295.95 953.748 2296.36 953.747C2296.77 953.746 2297.18 953.83 2297.56 953.994C2297.94 954.157 2298.28 954.397 2298.56 954.698C2298.84 955 2299.06 955.356 2299.19 955.745C2299.33 956.133 2299.39 956.546 2299.36 956.957C2299.33 957.369 2299.22 957.77 2299.03 958.135C2298.83 958.501 2298.57 958.823 2298.25 959.082C2297.93 959.341 2297.56 959.531 2297.16 959.64L1935.69 1091C1935.36 1091.11 1935.02 1091.16 1934.67 1091.15ZM1911.31 829.15C1910.61 829.146 1909.94 828.899 1909.4 828.45C1908.79 827.943 1908.4 827.214 1908.33 826.423C1908.25 825.632 1908.49 824.843 1909 824.23L2208.32 463.31C2208.57 463.007 2208.88 462.756 2209.23 462.572C2209.58 462.388 2209.96 462.274 2210.35 462.238C2210.74 462.201 2211.14 462.242 2211.52 462.358C2211.89 462.474 2212.24 462.664 2212.54 462.915C2212.85 463.167 2213.1 463.475 2213.28 463.824C2213.47 464.172 2213.58 464.553 2213.62 464.946C2213.65 465.338 2213.61 465.734 2213.5 466.11C2213.38 466.487 2213.19 466.837 2212.94 467.14L1913.62 828.06C1913.34 828.401 1912.99 828.675 1912.59 828.863C1912.19 829.052 1911.75 829.15 1911.31 829.15ZM1465.54 732.3C1464.76 732.3 1464.01 731.995 1463.45 731.45C1462.89 730.904 1462.56 730.162 1462.54 729.38L1452 328.52C1451.98 327.724 1452.28 326.953 1452.83 326.377C1453.37 325.8 1454.13 325.465 1454.93 325.445C1455.72 325.425 1456.49 325.722 1457.07 326.271C1457.64 326.819 1457.98 327.574 1458 328.37L1468.5 729.22C1468.51 729.614 1468.44 730.006 1468.3 730.374C1468.16 730.742 1467.95 731.079 1467.68 731.365C1467.41 731.651 1467.08 731.881 1466.72 732.041C1466.36 732.202 1465.97 732.29 1465.58 732.3H1465.54ZM1844.43 660.24C1844.18 660.239 1843.94 660.209 1843.7 660.15C1843.32 660.054 1842.96 659.884 1842.64 659.649C1842.33 659.414 1842.06 659.12 1841.86 658.782C1841.65 658.444 1841.52 658.069 1841.46 657.679C1841.4 657.289 1841.42 656.892 1841.52 656.51L1883.09 490.23C1883.28 489.458 1883.78 488.795 1884.46 488.386C1885.14 487.977 1885.96 487.856 1886.73 488.05C1887.5 488.244 1888.17 488.736 1888.57 489.419C1888.98 490.101 1889.1 490.918 1888.91 491.69L1847.34 658C1847.17 658.643 1846.79 659.212 1846.27 659.617C1845.74 660.023 1845.09 660.242 1844.43 660.24ZM2145.6 483.46C2145.03 483.46 2144.48 483.299 2144 482.997C2143.52 482.694 2143.14 482.262 2142.89 481.75C2142.65 481.239 2142.55 480.668 2142.62 480.106C2142.69 479.543 2142.91 479.01 2143.27 478.57L2155.59 463.34C2155.83 463.014 2156.13 462.74 2156.48 462.535C2156.83 462.329 2157.22 462.197 2157.62 462.145C2158.02 462.094 2158.43 462.124 2158.82 462.235C2159.21 462.345 2159.58 462.534 2159.89 462.789C2160.21 463.044 2160.47 463.36 2160.66 463.718C2160.85 464.076 2160.96 464.469 2160.99 464.873C2161.03 465.277 2160.98 465.683 2160.85 466.068C2160.72 466.452 2160.52 466.807 2160.25 467.11L2147.93 482.34C2147.65 482.689 2147.29 482.97 2146.89 483.164C2146.49 483.358 2146.05 483.459 2145.6 483.46ZM2151.25 432.6C2150.71 432.599 2150.17 432.45 2149.71 432.17C2149.03 431.756 2148.55 431.089 2148.36 430.317C2148.17 429.544 2148.3 428.729 2148.71 428.05L2160.58 408.26C2161.01 407.621 2161.67 407.172 2162.42 407.004C2163.17 406.836 2163.95 406.963 2164.61 407.358C2165.27 407.753 2165.76 408.387 2165.96 409.128C2166.17 409.869 2166.08 410.661 2165.72 411.34L2153.85 431.14C2153.58 431.589 2153.2 431.96 2152.74 432.216C2152.29 432.472 2151.77 432.604 2151.25 432.6ZM2281.98 391.6C2281.36 391.608 2280.76 391.427 2280.25 391.08C2279.74 390.734 2279.35 390.24 2279.14 389.665C2278.92 389.089 2278.88 388.461 2279.03 387.864C2279.18 387.268 2279.51 386.732 2279.98 386.33L2294.21 374C2294.51 373.728 2294.85 373.517 2295.23 373.381C2295.61 373.245 2296.01 373.187 2296.41 373.209C2296.81 373.231 2297.2 373.334 2297.57 373.511C2297.93 373.688 2298.25 373.935 2298.51 374.238C2298.77 374.542 2298.97 374.895 2299.1 375.277C2299.22 375.659 2299.27 376.063 2299.23 376.463C2299.2 376.863 2299.08 377.252 2298.9 377.607C2298.71 377.962 2298.45 378.276 2298.14 378.53L2284 390.86C2283.45 391.343 2282.73 391.607 2282 391.6H2281.98ZM1299.9 359.4C1299.1 359.4 1298.34 359.084 1297.78 358.521C1297.22 357.959 1296.9 357.196 1296.9 356.4V344.09C1296.9 343.294 1297.22 342.531 1297.78 341.969C1298.34 341.406 1299.1 341.09 1299.9 341.09C1300.7 341.09 1301.46 341.406 1302.02 341.969C1302.58 342.531 1302.9 343.294 1302.9 344.09V356.4C1302.9 357.196 1302.58 357.959 1302.02 358.521C1301.46 359.084 1300.7 359.4 1299.9 359.4ZM1200.47 285.53C1199.67 285.53 1198.91 285.214 1198.35 284.651C1197.79 284.089 1197.47 283.326 1197.47 282.53V269.27C1197.47 268.474 1197.79 267.711 1198.35 267.149C1198.91 266.586 1199.67 266.27 1200.47 266.27C1201.27 266.27 1202.03 266.586 1202.59 267.149C1203.15 267.711 1203.47 268.474 1203.47 269.27V282.53C1203.47 283.326 1203.15 284.089 1202.59 284.651C1202.03 285.214 1201.27 285.53 1200.47 285.53ZM1306.53 242.91C1305.73 242.91 1304.97 242.594 1304.41 242.031C1303.85 241.469 1303.53 240.706 1303.53 239.91V222.91C1303.53 222.114 1303.85 221.351 1304.41 220.789C1304.97 220.226 1305.73 219.91 1306.53 219.91C1307.33 219.91 1308.09 220.226 1308.65 220.789C1309.21 221.351 1309.53 222.114 1309.53 222.91V239.91C1309.53 240.304 1309.45 240.694 1309.3 241.058C1309.15 241.422 1308.93 241.753 1308.65 242.031C1308.37 242.31 1308.04 242.531 1307.68 242.682C1307.31 242.832 1306.92 242.91 1306.53 242.91Z" fill="#FFFFFF"/>
<path d="M1674.12 1028.33H1673.56C1673.04 1027.99 1672.45 1027.79 1671.83 1027.75C1671.21 1027.71 1670.59 1027.84 1670.04 1028.12C1653.37 1026.35 1641.96 1013.83 1637.27 1003.64V1003.53C1636.95 1002.77 1636.44 1001.53 1635.83 999.79C1633.29 1000.95 1630.6 1001.73 1627.83 1002.11C1625.32 1002.51 1622.76 1002.4 1620.29 1001.8C1620.02 1001.73 1619.77 1001.63 1619.53 1001.49C1619.26 1001.46 1618.99 1001.4 1618.73 1001.31C1617.13 1000.71 1615.65 999.847 1614.33 998.76C1614.02 998.505 1613.76 998.189 1613.58 997.83C1613.2 997.671 1612.86 997.436 1612.58 997.14C1611.63 996.092 1610.8 994.946 1610.09 993.72C1609.75 993.158 1609.62 992.499 1609.7 991.85C1609.15 991.511 1608.72 991.002 1608.48 990.4C1604.19 979.77 1605.01 963.67 1607.21 952.15C1607.28 951.763 1607.43 951.394 1607.65 951.064C1607.87 950.735 1608.15 950.451 1608.47 950.229C1608.8 950.008 1609.17 949.853 1609.55 949.773C1609.94 949.694 1610.34 949.691 1610.72 949.765C1611.11 949.839 1611.48 949.989 1611.81 950.206C1612.14 950.423 1612.42 950.702 1612.65 951.029C1612.87 951.355 1613.02 951.722 1613.1 952.108C1613.18 952.494 1613.18 952.893 1613.11 953.28C1611.11 963.47 1610.24 978.72 1614.04 988.16C1613.94 988.659 1614.01 989.176 1614.23 989.634C1614.46 990.092 1614.82 990.466 1615.27 990.7C1615.76 991.554 1616.34 992.352 1617 993.08C1617.17 993.275 1617.33 993.49 1617.45 993.72C1617.68 993.828 1617.9 993.966 1618.1 994.13C1618.9 994.795 1619.8 995.319 1620.78 995.68C1620.94 995.745 1621.09 995.819 1621.24 995.9C1621.41 995.92 1621.58 995.95 1621.74 995.99C1623.44 996.392 1625.21 996.453 1626.94 996.17C1629.37 995.845 1631.74 995.122 1633.94 994.03C1632.33 988.659 1631.17 983.163 1630.47 977.6C1628.96 965.13 1630.58 955.45 1635.3 948.82C1639.52 942.89 1643.77 940.5 1647.93 941.72C1653.47 943.35 1656.29 951.16 1656.63 958.18V958.28C1656.78 968.88 1653.37 987.28 1641.07 996.65C1641.63 998.26 1642.21 999.78 1642.79 1001.18C1646.79 1009.93 1656.58 1020.65 1670.73 1022.18C1671.26 1022.23 1671.76 1022.42 1672.18 1022.74C1672.64 1022.47 1673.16 1022.33 1673.69 1022.35C1674.41 1022.35 1675.1 1022.35 1675.69 1022.35C1675.96 1022.34 1676.23 1022.36 1676.49 1022.42C1676.73 1022.33 1676.98 1022.28 1677.24 1022.25C1678.47 1022.15 1679.7 1021.97 1680.91 1021.73C1681.17 1021.7 1681.42 1021.7 1681.68 1021.73C1681.91 1021.61 1682.16 1021.52 1682.41 1021.46C1683.67 1021.17 1684.92 1020.82 1686.15 1020.41C1686.38 1020.33 1686.63 1020.29 1686.87 1020.27C1687.06 1020.15 1687.27 1020.05 1687.48 1019.97C1690.2 1018.98 1692.85 1017.79 1695.39 1016.4C1695.74 1016.21 1696.12 1016.09 1696.51 1016.05C1696.9 1016.01 1697.3 1016.05 1697.68 1016.16C1698.05 1016.27 1698.41 1016.46 1698.71 1016.71C1699.02 1016.96 1699.27 1017.26 1699.46 1017.61C1699.65 1017.96 1699.77 1018.34 1699.81 1018.73C1699.85 1019.12 1699.81 1019.52 1699.7 1019.9C1699.59 1020.27 1699.4 1020.63 1699.15 1020.93C1698.9 1021.24 1698.6 1021.49 1698.25 1021.68C1695.44 1023.21 1692.51 1024.52 1689.5 1025.61C1689.25 1025.71 1688.98 1025.76 1688.71 1025.78C1688.5 1025.92 1688.27 1026.03 1688.03 1026.11C1686.63 1026.57 1685.19 1026.97 1683.75 1027.3C1683.47 1027.37 1683.17 1027.39 1682.88 1027.37C1682.62 1027.51 1682.34 1027.61 1682.05 1027.67C1680.67 1027.93 1679.24 1028.13 1677.8 1028.27C1677.49 1028.3 1677.18 1028.28 1676.88 1028.21C1676.6 1028.31 1676.31 1028.37 1676.01 1028.39C1675.4 1028.32 1674.77 1028.33 1674.12 1028.33ZM1645.83 947.43C1644.69 947.43 1642.7 948.69 1640.13 952.3C1633.85 961.13 1635.49 977.3 1639.13 990.44C1648.18 982.15 1650.74 967.22 1650.62 958.44C1650.33 952.66 1648.08 948.04 1646.23 947.5C1646.1 947.457 1645.97 947.433 1645.83 947.43Z" fill="#FFFFFF"/>
<path d="M1286.21 1020.93L1361.74 1153.11L1225.51 1306.88L1209.32 1285.3L1178.62 1380.85C1178.62 1403.33 1178.62 1509.85 1141.88 1573.94C1106.68 1635.38 1034.8 1621.5 1021.79 1688.46C996.97 1816.22 966.09 1786.16 953.05 1807.29H754.77C715.66 1588.78 763.2 1413.35 818.17 1306.88C879.85 1187.4 975.98 1020.88 1077.17 965.63C1158.07 921.39 1241.15 956.9 1286.21 1020.93Z" fill="#FEDA00"/>
<path d="M1200.39 1277.8C1199.89 1277.8 1199.39 1277.67 1198.95 1277.43C1198.5 1277.19 1198.13 1276.84 1197.86 1276.41L1162.86 1221.29C1162.64 1220.96 1162.48 1220.58 1162.4 1220.19C1162.32 1219.8 1162.33 1219.39 1162.41 1219C1162.49 1218.61 1162.65 1218.23 1162.88 1217.9C1163.1 1217.57 1163.4 1217.29 1163.73 1217.08C1164.07 1216.86 1164.45 1216.72 1164.85 1216.65C1165.24 1216.58 1165.65 1216.6 1166.04 1216.69C1166.43 1216.78 1166.79 1216.95 1167.12 1217.19C1167.44 1217.43 1167.71 1217.73 1167.92 1218.07L1202.92 1273.19C1203.21 1273.64 1203.37 1274.17 1203.39 1274.7C1203.4 1275.24 1203.28 1275.77 1203.02 1276.24C1202.76 1276.71 1202.38 1277.11 1201.92 1277.38C1201.45 1277.66 1200.93 1277.8 1200.39 1277.8Z" fill="#FFFFFF"/>
<path d="M1186.86 959.14H1184.96C1156.36 958.14 1131.53 933.92 1123.17 898.95L1129.01 897.55C1136.73 929.87 1159.31 952.21 1185.18 953.14C1202.84 953.79 1220.03 944.39 1232.4 927.38L1233.87 925.38L1236.11 926.44C1240.69 928.495 1245.43 930.19 1250.28 931.51C1243.76 917.51 1245.09 904.41 1247.67 892.28C1248.93 886.278 1249.67 880.179 1249.89 874.05C1250.23 865.01 1249.4 855.965 1247.41 847.14L1253.27 845.81C1255.37 855.143 1256.25 864.71 1255.89 874.27C1255.66 880.742 1254.88 887.183 1253.54 893.52C1250.48 907.9 1250.13 920.28 1258.27 933.77L1260.11 934.77L1258.8 937.35C1257.53 939.8 1255.88 939.35 1247.95 937.05C1243.82 935.878 1239.76 934.469 1235.79 932.83C1222.79 949.66 1205.16 959.14 1186.86 959.14Z" fill="#FFFFFF"/>
<path d="M1243.65 881C1243.12 880.999 1242.6 880.857 1242.14 880.588C1241.68 880.319 1241.3 879.933 1241.04 879.47C1237.98 874.04 1228.66 865.4 1215.29 871.56C1214.93 871.744 1214.54 871.854 1214.13 871.882C1213.73 871.911 1213.33 871.858 1212.95 871.726C1212.56 871.594 1212.21 871.387 1211.91 871.116C1211.61 870.846 1211.37 870.517 1211.2 870.151C1211.03 869.784 1210.94 869.387 1210.92 868.983C1210.91 868.58 1210.98 868.178 1211.13 867.801C1211.27 867.425 1211.49 867.082 1211.78 866.793C1212.06 866.504 1212.4 866.275 1212.77 866.12C1230.12 858.12 1242.27 869.43 1246.26 876.53C1246.65 877.223 1246.75 878.041 1246.53 878.806C1246.32 879.57 1245.81 880.219 1245.12 880.61C1244.67 880.869 1244.17 881.004 1243.65 881Z" fill="#FFFFFF"/>
<path d="M1208.06 943.44C1207.68 943.439 1207.3 943.364 1206.94 943.22C1202.58 941.48 1194.18 935.32 1193.58 924.5C1193.54 923.704 1193.81 922.924 1194.34 922.33C1194.87 921.737 1195.62 921.379 1196.42 921.335C1197.21 921.291 1197.99 921.565 1198.58 922.097C1199.18 922.629 1199.54 923.374 1199.58 924.17C1200.01 931.97 1206.04 936.4 1209.18 937.66C1209.82 937.921 1210.36 938.398 1210.69 939.01C1211.02 939.621 1211.13 940.328 1211 941.011C1210.87 941.693 1210.5 942.309 1209.96 942.752C1209.43 943.195 1208.76 943.438 1208.06 943.44Z" fill="#FFFFFF"/>
<path d="M1237.34 897.09C1236.71 897.089 1236.1 896.89 1235.59 896.523C1235.08 896.155 1234.7 895.636 1234.5 895.04C1233.33 891.57 1230.31 886.88 1225.66 885.1C1221.75 883.6 1217.17 884.3 1212.03 887.19C1211.34 887.571 1210.52 887.662 1209.76 887.445C1209 887.228 1208.36 886.72 1207.97 886.031C1207.58 885.341 1207.48 884.527 1207.69 883.765C1207.9 883.003 1208.4 882.354 1209.09 881.96C1215.85 878.15 1222.15 877.33 1227.81 879.5C1234.4 882.03 1238.52 888.2 1240.18 893.13C1240.43 893.883 1240.38 894.706 1240.03 895.419C1239.67 896.131 1239.05 896.675 1238.3 896.93C1237.99 897.036 1237.67 897.091 1237.34 897.09Z" fill="#FFFFFF"/>
<path d="M1224.19 894.46C1227.4 894.46 1230 891.859 1230 888.65C1230 885.441 1227.4 882.84 1224.19 882.84C1220.98 882.84 1218.38 885.441 1218.38 888.65C1218.38 891.859 1220.98 894.46 1224.19 894.46Z" fill="#FFFFFF"/>
<path d="M1262.4 868.58L1251.67 841.07L1221.82 834.53L1124.35 885.84C1125.44 888.79 1122.35 896.75 1101.03 904.96C1074.45 915.22 1045.54 932.47 1041.81 956.72C1038.81 976.12 1002.63 984.72 984.91 986.57L1214.83 1013.15C1212.18 1007.09 1210.35 988.06 1224.15 960.45C1237.95 932.84 1213.43 887.7 1199.44 868.58H1262.4Z" fill="#FFFFFF"/>
<path d="M1101.21 917.27L1268.64 837.58L1260.23 803.94L1251.46 805.77C1244.15 788.96 1225.87 777.62 1204.67 769.21C1183.47 760.8 1175.79 753.13 1151.67 742.89C1132.37 734.71 1126.81 741.68 1126.44 746.18C1123.76 759.95 1114.53 793.85 1099.03 819.3C1083.53 844.75 1090.86 873.03 1096.47 884L1087.69 893.51L1101.21 917.27Z" fill="#FFFFFF"/>
<path d="M2712.49 2172.11H726.85V1800.55H2712.49C2814.93 1800.55 2898.27 1883.89 2898.27 1986.33C2898.27 2088.77 2814.93 2172.11 2712.49 2172.11ZM732.85 2166.11H2712.49C2811.62 2166.11 2892.27 2085.46 2892.27 1986.33C2892.27 1887.2 2811.62 1806.55 2712.49 1806.55H732.85V2166.11Z" fill="#FFFFFF"/>
<path d="M1995.81 2132.55H725.81V2126.55H1995.81C2072.44 2126.55 2134.81 2064.21 2134.81 1987.55C2134.81 1910.89 2072.47 1848.55 1995.81 1848.55H725.81V1842.55H1995.81C2075.75 1842.55 2140.81 1907.55 2140.81 1987.55C2140.81 2067.55 2075.75 2132.55 1995.81 2132.55Z" fill="#FFFFFF"/>
<path d="M1728 2038.48H1181.52C1180.72 2038.48 1179.96 2038.16 1179.4 2037.6C1178.84 2037.04 1178.52 2036.28 1178.52 2035.48C1178.52 2034.68 1178.84 2033.92 1179.4 2033.36C1179.96 2032.8 1180.72 2032.48 1181.52 2032.48H1728C1728.8 2032.48 1729.56 2032.8 1730.12 2033.36C1730.68 2033.92 1731 2034.68 1731 2035.48C1731 2036.28 1730.68 2037.04 1730.12 2037.6C1729.56 2038.16 1728.8 2038.48 1728 2038.48ZM811.65 2008.62C810.854 2008.64 810.084 2008.34 809.508 2007.79C808.932 2007.24 808.599 2006.49 808.58 2005.69C808.561 2004.89 808.86 2004.12 809.409 2003.55C809.959 2002.97 810.714 2002.64 811.51 2002.62L1947 1947.17C1947.8 1947.13 1948.57 1947.41 1949.17 1947.94C1949.76 1948.48 1950.11 1949.22 1950.15 1950.02C1950.19 1950.82 1949.91 1951.59 1949.38 1952.19C1948.84 1952.78 1948.1 1953.13 1947.3 1953.17L811.78 2008.62H811.65Z" fill="#FFFFFF"/>
<path d="M1021.75 1995.39L847.34 2004.39V2263.77L1025.88 2277.91L1021.75 1995.39Z" fill="#FFFFFF"/>
<path d="M2244.71 2171.61L2224.91 1806.45L2230.91 1806.13L2250.72 2171.29L2244.71 2171.61ZM2172.71 2171.51L2165.45 1806.35L2171.45 1806.23L2178.71 2171.39L2172.71 2171.51Z" fill="#FFFFFF"/>
<path d="M2557.51 2544H571.87C469.43 2544 386.09 2460.66 386.09 2358.22C386.09 2255.78 469.43 2172.44 571.87 2172.44H2557.51V2544ZM571.87 2178.45C472.74 2178.45 392.09 2259.1 392.09 2358.23C392.09 2457.36 472.74 2538 571.87 2538H2551.51V2178.45H571.87Z" fill="#FFFFFF"/>
<path d="M2556.7 2519.88H1241.46C1152.33 2519.88 1079.81 2447.36 1079.81 2358.23C1079.81 2269.1 1152.33 2196.57 1241.46 2196.57H2556.7V2202.57H1241.46C1155.63 2202.57 1085.81 2272.4 1085.81 2358.23C1085.81 2444.06 1155.63 2513.88 1241.46 2513.88H2556.7V2519.88Z" fill="#FFFFFF"/>
<path d="M2081 2414.75H1510.59C1509.79 2414.75 1509.03 2414.43 1508.47 2413.87C1507.91 2413.31 1507.59 2412.55 1507.59 2411.75C1507.59 2410.95 1507.91 2410.19 1508.47 2409.63C1509.03 2409.07 1509.79 2408.75 1510.59 2408.75H2081C2081.8 2408.75 2082.56 2409.07 2083.12 2409.63C2083.68 2410.19 2084 2410.95 2084 2411.75C2084 2412.55 2083.68 2413.31 2083.12 2413.87C2082.56 2414.43 2081.8 2414.75 2081 2414.75ZM2467.12 2381.38H2467L1281.63 2319.38C1281.24 2319.36 1280.85 2319.26 1280.49 2319.09C1280.14 2318.92 1279.82 2318.68 1279.56 2318.39C1279.29 2318.09 1279.09 2317.75 1278.96 2317.38C1278.83 2317.01 1278.77 2316.61 1278.79 2316.22C1278.81 2315.83 1278.91 2315.44 1279.08 2315.08C1279.25 2314.73 1279.49 2314.41 1279.78 2314.15C1280.08 2313.88 1280.42 2313.68 1280.79 2313.55C1281.16 2313.42 1281.56 2313.36 1281.95 2313.38L2467.32 2375.38C2467.71 2375.39 2468.1 2375.48 2468.46 2375.64C2468.82 2375.8 2469.15 2376.03 2469.42 2376.32C2469.69 2376.6 2469.9 2376.94 2470.04 2377.31C2470.18 2377.67 2470.25 2378.07 2470.24 2378.46C2470.23 2378.85 2470.14 2379.24 2469.98 2379.6C2469.82 2379.96 2469.59 2380.29 2469.3 2380.56C2469.02 2380.83 2468.68 2381.04 2468.31 2381.18C2467.95 2381.32 2467.55 2381.39 2467.16 2381.38H2467.12Z" fill="#FFFFFF"/>
<path d="M1907.29 2344.59L2089.35 2354.65V2644.51L1997.68 2563.29L1902.98 2660.29L1907.29 2344.59Z" fill="#FEDA00"/>
<path d="M851.12 2542.67L845.12 2542.35L864.93 2177.19L870.93 2177.51L851.12 2542.67ZM923.12 2542.57L917.12 2542.45L924.39 2177.29L930.39 2177.41L923.12 2542.57Z" fill="#FFFFFF"/>
</svg>
