<svg width="3000" height="3000" viewBox="0 0 3000 3000" fill="none" xmlns="http://www.w3.org/2000/svg">
<path d="M2355.31 2815.67H454.49C453.694 2815.67 452.931 2815.35 452.369 2814.79C451.806 2814.23 451.49 2813.47 451.49 2812.67C451.49 2811.87 451.806 2811.11 452.369 2810.55C452.931 2809.99 453.694 2809.67 454.49 2809.67H2355.31C2356.11 2809.67 2356.87 2809.99 2357.43 2810.55C2357.99 2811.11 2358.31 2811.87 2358.31 2812.67C2358.31 2813.47 2357.99 2814.23 2357.43 2814.79C2356.87 2815.35 2356.11 2815.67 2355.31 2815.67Z" fill="black"/>
<path d="M1905.91 1358.56C1904.26 1358.56 1902.65 1358.07 1901.28 1357.16C1899.91 1356.24 1898.84 1354.94 1898.21 1353.42C1897.58 1351.9 1897.42 1350.22 1897.74 1348.6C1898.06 1346.99 1898.85 1345.5 1900.02 1344.34C1901.18 1343.17 1902.67 1342.38 1904.28 1342.06C1905.9 1341.74 1907.58 1341.9 1909.1 1342.53C1910.62 1343.16 1911.92 1344.23 1912.84 1345.6C1913.75 1346.97 1914.24 1348.58 1914.24 1350.23C1914.24 1352.44 1913.36 1354.56 1911.8 1356.12C1910.24 1357.68 1908.12 1358.56 1905.91 1358.56ZM1905.91 1347.9C1905.45 1347.9 1905 1348.04 1904.62 1348.29C1904.23 1348.55 1903.93 1348.91 1903.76 1349.34C1903.58 1349.76 1903.53 1350.23 1903.62 1350.68C1903.71 1351.14 1903.94 1351.55 1904.26 1351.88C1904.59 1352.2 1905 1352.43 1905.46 1352.52C1905.91 1352.61 1906.38 1352.56 1906.8 1352.38C1907.23 1352.21 1907.59 1351.91 1907.85 1351.52C1908.1 1351.14 1908.24 1350.69 1908.24 1350.23C1908.24 1349.61 1907.99 1349.02 1907.56 1348.58C1907.12 1348.15 1906.53 1347.9 1905.91 1347.9Z" fill="black"/>
<path d="M1507.67 195.52C1506.02 195.522 1504.41 195.034 1503.03 194.119C1501.66 193.203 1500.59 191.901 1499.96 190.376C1499.32 188.852 1499.16 187.174 1499.48 185.555C1499.8 183.937 1500.6 182.45 1501.76 181.283C1502.93 180.116 1504.42 179.321 1506.04 179C1507.65 178.678 1509.33 178.844 1510.86 179.477C1512.38 180.109 1513.68 181.18 1514.6 182.553C1515.51 183.926 1516 185.54 1516 187.19C1516 189.399 1515.12 191.516 1513.56 193.077C1512 194.639 1509.88 195.517 1507.67 195.52ZM1507.67 184.85C1507.21 184.848 1506.75 184.984 1506.37 185.24C1505.98 185.495 1505.68 185.86 1505.5 186.288C1505.32 186.715 1505.27 187.186 1505.36 187.64C1505.45 188.095 1505.67 188.513 1506 188.841C1506.33 189.169 1506.75 189.393 1507.2 189.484C1507.65 189.575 1508.12 189.53 1508.55 189.353C1508.98 189.176 1509.35 188.876 1509.6 188.491C1509.86 188.106 1510 187.653 1510 187.19C1510 186.883 1509.94 186.579 1509.83 186.295C1509.71 186.012 1509.54 185.753 1509.32 185.536C1509.1 185.319 1508.85 185.146 1508.56 185.028C1508.28 184.911 1507.98 184.85 1507.67 184.85Z" fill="black"/>
<path d="M321.05 1114.18C319.402 1114.18 317.792 1113.69 316.422 1112.78C315.052 1111.86 313.985 1110.56 313.354 1109.04C312.724 1107.52 312.559 1105.84 312.88 1104.22C313.201 1102.61 313.995 1101.12 315.16 1099.96C316.325 1098.79 317.809 1098 319.425 1097.68C321.041 1097.36 322.716 1097.52 324.238 1098.15C325.76 1098.78 327.061 1099.85 327.976 1101.22C328.891 1102.59 329.38 1104.2 329.38 1105.85C329.377 1108.06 328.499 1110.18 326.937 1111.74C325.376 1113.3 323.258 1114.18 321.05 1114.18ZM321.05 1103.52C320.589 1103.52 320.139 1103.66 319.755 1103.91C319.372 1104.17 319.074 1104.53 318.897 1104.96C318.721 1105.38 318.675 1105.85 318.765 1106.3C318.855 1106.76 319.077 1107.17 319.402 1107.5C319.728 1107.82 320.143 1108.05 320.595 1108.14C321.047 1108.23 321.516 1108.18 321.942 1108C322.367 1107.83 322.731 1107.53 322.987 1107.14C323.243 1106.76 323.38 1106.31 323.38 1105.85C323.38 1105.23 323.134 1104.64 322.698 1104.2C322.261 1103.77 321.668 1103.52 321.05 1103.52Z" fill="black"/>
<path d="M2087.79 874.58C2086.14 874.58 2084.53 874.091 2083.16 873.176C2081.79 872.261 2080.72 870.96 2080.09 869.438C2079.46 867.916 2079.3 866.241 2079.62 864.625C2079.94 863.009 2080.73 861.525 2081.9 860.36C2083.06 859.195 2084.55 858.402 2086.16 858.08C2087.78 857.759 2089.46 857.924 2090.98 858.554C2092.5 859.185 2093.8 860.252 2094.72 861.622C2095.63 862.992 2096.12 864.603 2096.12 866.25C2096.12 868.458 2095.24 870.576 2093.68 872.137C2092.12 873.699 2090 874.577 2087.79 874.58ZM2087.79 863.92C2087.33 863.92 2086.88 864.057 2086.5 864.313C2086.11 864.569 2085.81 864.933 2085.64 865.358C2085.46 865.784 2085.41 866.253 2085.5 866.705C2085.59 867.157 2085.82 867.572 2086.14 867.898C2086.47 868.223 2086.88 868.445 2087.34 868.535C2087.79 868.625 2088.26 868.579 2088.68 868.403C2089.11 868.226 2089.47 867.928 2089.73 867.545C2089.98 867.161 2090.12 866.711 2090.12 866.25C2090.12 865.944 2090.06 865.641 2089.94 865.358C2089.83 865.076 2089.65 864.819 2089.44 864.602C2089.22 864.386 2088.96 864.214 2088.68 864.097C2088.4 863.98 2088.1 863.92 2087.79 863.92Z" fill="black"/>
<path d="M2754.81 1195.46C2753.16 1195.46 2751.55 1194.97 2750.18 1194.06C2748.81 1193.14 2747.74 1191.84 2747.11 1190.32C2746.48 1188.8 2746.32 1187.12 2746.64 1185.5C2746.96 1183.89 2747.75 1182.4 2748.92 1181.24C2750.08 1180.07 2751.57 1179.28 2753.18 1178.96C2754.8 1178.64 2756.48 1178.8 2758 1179.43C2759.52 1180.06 2760.82 1181.13 2761.74 1182.5C2762.65 1183.87 2763.14 1185.48 2763.14 1187.13C2763.14 1189.34 2762.26 1191.46 2760.7 1193.02C2759.14 1194.58 2757.02 1195.46 2754.81 1195.46ZM2754.81 1184.8C2754.35 1184.8 2753.9 1184.94 2753.52 1185.19C2753.13 1185.45 2752.83 1185.81 2752.66 1186.24C2752.48 1186.66 2752.43 1187.13 2752.52 1187.58C2752.61 1188.04 2752.84 1188.45 2753.16 1188.78C2753.49 1189.1 2753.9 1189.33 2754.36 1189.42C2754.81 1189.51 2755.28 1189.46 2755.7 1189.28C2756.13 1189.11 2756.49 1188.81 2756.75 1188.42C2757 1188.04 2757.14 1187.59 2757.14 1187.13C2757.14 1186.51 2756.89 1185.92 2756.46 1185.48C2756.02 1185.05 2755.43 1184.8 2754.81 1184.8Z" fill="black"/>
<path d="M620.49 2424.35C618.843 2424.35 617.232 2423.86 615.862 2422.95C614.492 2422.03 613.425 2420.73 612.794 2419.21C612.164 2417.69 611.999 2416.01 612.32 2414.4C612.642 2412.78 613.435 2411.29 614.6 2410.13C615.765 2408.96 617.249 2408.17 618.865 2407.85C620.481 2407.53 622.156 2407.69 623.678 2408.32C625.2 2408.95 626.501 2410.02 627.416 2411.39C628.332 2412.76 628.82 2414.37 628.82 2416.02C628.818 2418.23 627.939 2420.35 626.377 2421.91C624.816 2423.47 622.699 2424.35 620.49 2424.35ZM620.49 2413.69C620.029 2413.69 619.579 2413.83 619.196 2414.08C618.812 2414.34 618.514 2414.7 618.337 2415.13C618.161 2415.55 618.115 2416.02 618.205 2416.47C618.295 2416.93 618.517 2417.34 618.843 2417.67C619.168 2417.99 619.584 2418.22 620.036 2418.31C620.488 2418.4 620.956 2418.35 621.382 2418.17C621.808 2418 622.171 2417.7 622.427 2417.31C622.683 2416.93 622.82 2416.48 622.82 2416.02C622.82 2415.71 622.76 2415.41 622.643 2415.13C622.526 2414.85 622.354 2414.59 622.138 2414.37C621.921 2414.16 621.664 2413.98 621.382 2413.87C621.099 2413.75 620.796 2413.69 620.49 2413.69Z" fill="black"/>
<path d="M1189.71 629.58C1188.06 629.58 1186.45 629.091 1185.08 628.176C1183.71 627.261 1182.64 625.96 1182.01 624.438C1181.38 622.916 1181.22 621.241 1181.54 619.625C1181.86 618.009 1182.65 616.525 1183.82 615.36C1184.98 614.195 1186.47 613.402 1188.08 613.08C1189.7 612.759 1191.38 612.924 1192.9 613.554C1194.42 614.185 1195.72 615.252 1196.64 616.622C1197.55 617.992 1198.04 619.603 1198.04 621.25C1198.04 623.458 1197.16 625.576 1195.6 627.137C1194.04 628.699 1191.92 629.577 1189.71 629.58ZM1189.71 618.92C1189.25 618.92 1188.8 619.057 1188.42 619.313C1188.03 619.569 1187.73 619.933 1187.56 620.358C1187.38 620.784 1187.33 621.253 1187.42 621.705C1187.51 622.157 1187.74 622.572 1188.06 622.898C1188.39 623.223 1188.8 623.445 1189.26 623.535C1189.71 623.625 1190.18 623.579 1190.6 623.403C1191.03 623.226 1191.39 622.928 1191.65 622.545C1191.9 622.161 1192.04 621.711 1192.04 621.25C1192.04 620.632 1191.79 620.039 1191.36 619.602C1190.92 619.165 1190.33 618.92 1189.71 618.92Z" fill="black"/>
<path d="M2651 2295.58C2649.35 2295.58 2647.74 2295.09 2646.37 2294.18C2645 2293.26 2643.93 2291.96 2643.3 2290.44C2642.67 2288.92 2642.51 2287.24 2642.83 2285.63C2643.15 2284.01 2643.94 2282.52 2645.11 2281.36C2646.27 2280.19 2647.76 2279.4 2649.37 2279.08C2650.99 2278.76 2652.67 2278.92 2654.19 2279.55C2655.71 2280.18 2657.01 2281.25 2657.93 2282.62C2658.84 2283.99 2659.33 2285.6 2659.33 2287.25C2659.33 2289.46 2658.45 2291.58 2656.89 2293.14C2655.33 2294.7 2653.21 2295.58 2651 2295.58ZM2651 2284.92C2650.54 2284.92 2650.09 2285.06 2649.71 2285.31C2649.32 2285.57 2649.02 2285.93 2648.85 2286.36C2648.67 2286.78 2648.62 2287.25 2648.71 2287.7C2648.8 2288.16 2649.03 2288.57 2649.35 2288.9C2649.68 2289.22 2650.09 2289.45 2650.55 2289.54C2651 2289.63 2651.47 2289.58 2651.89 2289.4C2652.32 2289.23 2652.68 2288.93 2652.94 2288.54C2653.19 2288.16 2653.33 2287.71 2653.33 2287.25C2653.33 2286.63 2653.08 2286.04 2652.65 2285.6C2652.21 2285.17 2651.62 2284.92 2651 2284.92Z" fill="black"/>
<path d="M2425 1867.12C2424.37 1867.12 2423.75 1866.92 2423.24 1866.55L2393.88 1845.2C2393.24 1844.73 2392.8 1844.03 2392.68 1843.24C2392.55 1842.46 2392.74 1841.65 2393.21 1841.01C2393.68 1840.37 2394.38 1839.93 2395.17 1839.81C2395.95 1839.68 2396.76 1839.87 2397.4 1840.34L2426.77 1861.69C2427.28 1862.06 2427.67 1862.59 2427.86 1863.19C2428.06 1863.8 2428.06 1864.45 2427.86 1865.05C2427.67 1865.65 2427.28 1866.18 2426.77 1866.55C2426.25 1866.92 2425.63 1867.12 2425 1867.12Z" fill="black"/>
<path d="M718.25 155.84C717.614 155.839 716.994 155.636 716.48 155.26L687.12 133.91C686.792 133.682 686.513 133.391 686.299 133.053C686.085 132.716 685.941 132.34 685.875 131.946C685.808 131.552 685.821 131.149 685.913 130.76C686.004 130.371 686.172 130.005 686.407 129.682C686.642 129.359 686.94 129.086 687.281 128.88C687.623 128.673 688.003 128.537 688.398 128.479C688.793 128.421 689.196 128.443 689.583 128.542C689.969 128.642 690.332 128.818 690.65 129.06L720 150.41C720.514 150.782 720.896 151.307 721.093 151.91C721.29 152.512 721.29 153.162 721.095 153.765C720.899 154.368 720.518 154.894 720.005 155.267C719.492 155.639 718.874 155.84 718.24 155.84H718.25Z" fill="black"/>
<path d="M1541.88 2777.38C1541.24 2777.38 1540.62 2777.17 1540.11 2776.8C1539.59 2776.42 1539.21 2775.89 1539.02 2775.28C1538.83 2774.67 1538.84 2774.01 1539.05 2773.41C1539.25 2772.81 1539.65 2772.29 1540.17 2771.92L1569.96 2751.17C1570.61 2750.76 1571.4 2750.63 1572.15 2750.78C1572.9 2750.94 1573.57 2751.38 1574.01 2752.01C1574.44 2752.64 1574.62 2753.41 1574.51 2754.17C1574.39 2754.93 1573.99 2755.62 1573.38 2756.09L1543.59 2776.84C1543.09 2777.19 1542.49 2777.38 1541.88 2777.38Z" fill="black"/>
<path d="M2410.3 2684.13C2409.66 2684.13 2409.04 2683.93 2408.52 2683.55C2408.01 2683.17 2407.63 2682.64 2407.44 2682.03C2407.24 2681.42 2407.25 2680.77 2407.46 2680.16C2407.66 2679.56 2408.06 2679.04 2408.58 2678.67L2438.38 2657.92C2439.03 2657.51 2439.82 2657.38 2440.57 2657.53C2441.32 2657.69 2441.99 2658.13 2442.43 2658.76C2442.86 2659.39 2443.04 2660.16 2442.93 2660.92C2442.81 2661.68 2442.41 2662.37 2441.8 2662.84L2412 2683.59C2411.5 2683.94 2410.91 2684.13 2410.3 2684.13Z" fill="black"/>
<path d="M347.72 586.7C347.082 586.699 346.461 586.494 345.948 586.116C345.434 585.737 345.055 585.205 344.864 584.597C344.674 583.988 344.682 583.335 344.888 582.731C345.094 582.127 345.487 581.605 346.01 581.24L375.79 560.49C376.112 560.251 376.479 560.08 376.869 559.986C377.259 559.891 377.664 559.876 378.06 559.941C378.456 560.006 378.834 560.15 379.174 560.363C379.513 560.577 379.806 560.857 380.035 561.186C380.265 561.515 380.426 561.887 380.509 562.279C380.592 562.671 380.596 563.076 380.52 563.47C380.444 563.864 380.29 564.239 380.066 564.572C379.843 564.905 379.555 565.19 379.22 565.41L349.44 586.16C348.936 586.512 348.335 586.701 347.72 586.7Z" fill="black"/>
<path d="M698.07 1552.08C697.432 1552.08 696.812 1551.87 696.298 1551.5C695.785 1551.12 695.405 1550.59 695.214 1549.98C695.024 1549.37 695.032 1548.71 695.238 1548.11C695.444 1547.51 695.837 1546.99 696.36 1546.62L726.15 1525.87C726.803 1525.46 727.587 1525.33 728.34 1525.48C729.092 1525.64 729.757 1526.08 730.195 1526.71C730.634 1527.34 730.814 1528.11 730.698 1528.87C730.581 1529.63 730.178 1530.32 729.57 1530.79L699.79 1551.54C699.286 1551.89 698.685 1552.08 698.07 1552.08Z" fill="black"/>
<path d="M221.79 1961.63C221.092 1961.63 220.416 1961.39 219.879 1960.94C219.341 1960.49 218.976 1959.88 218.845 1959.19C218.715 1958.5 218.828 1957.79 219.165 1957.18C219.501 1956.57 220.041 1956.1 220.69 1955.84L254.48 1942.56C254.849 1942.4 255.245 1942.32 255.645 1942.32C256.046 1942.32 256.442 1942.4 256.812 1942.56C257.181 1942.71 257.515 1942.94 257.795 1943.22C258.076 1943.51 258.296 1943.85 258.442 1944.22C258.589 1944.59 258.66 1944.99 258.651 1945.39C258.641 1945.79 258.552 1946.19 258.388 1946.55C258.223 1946.92 257.988 1947.25 257.694 1947.52C257.401 1947.79 257.056 1948 256.68 1948.14L222.89 1961.42C222.54 1961.56 222.167 1961.63 221.79 1961.63Z" fill="black"/>
<path d="M2570.22 386.09C2569.72 386.09 2569.23 385.965 2568.79 385.726C2568.35 385.486 2567.97 385.141 2567.7 384.72L2548 354.26C2547.66 353.6 2547.58 352.837 2547.77 352.119C2547.96 351.4 2548.41 350.778 2549.03 350.373C2549.65 349.967 2550.4 349.806 2551.14 349.922C2551.87 350.038 2552.53 350.422 2553 351L2572.75 381.46C2573.04 381.913 2573.21 382.437 2573.23 382.976C2573.25 383.515 2573.12 384.05 2572.87 384.524C2572.61 384.998 2572.23 385.394 2571.76 385.669C2571.3 385.945 2570.77 386.09 2570.23 386.09H2570.22Z" fill="black"/>
<path d="M2377.59 1262C2377.09 1262 2376.6 1261.88 2376.16 1261.64C2375.72 1261.4 2375.34 1261.05 2375.07 1260.63L2355.32 1230.16C2355.06 1229.83 2354.86 1229.46 2354.76 1229.05C2354.65 1228.64 2354.62 1228.22 2354.69 1227.81C2354.76 1227.39 2354.91 1227 2355.14 1226.64C2355.36 1226.29 2355.66 1225.99 2356.01 1225.76C2356.37 1225.53 2356.76 1225.38 2357.18 1225.31C2357.59 1225.25 2358.01 1225.27 2358.42 1225.37C2358.83 1225.48 2359.2 1225.67 2359.53 1225.94C2359.86 1226.2 2360.13 1226.53 2360.32 1226.9L2380.07 1257.37C2380.36 1257.82 2380.53 1258.35 2380.55 1258.89C2380.57 1259.43 2380.44 1259.96 2380.19 1260.43C2379.93 1260.91 2379.55 1261.3 2379.08 1261.58C2378.62 1261.85 2378.09 1262 2377.55 1262H2377.59Z" fill="black"/>
<path d="M603.5 2717.5C602.999 2717.5 602.506 2717.38 602.066 2717.14C601.625 2716.9 601.252 2716.55 600.98 2716.13L581.23 2685.67C580.889 2685.01 580.806 2684.25 580.996 2683.53C581.186 2682.81 581.636 2682.19 582.258 2681.78C582.88 2681.38 583.631 2681.22 584.365 2681.33C585.098 2681.45 585.763 2681.83 586.23 2682.41L606 2712.87C606.293 2713.32 606.459 2713.85 606.479 2714.39C606.5 2714.93 606.374 2715.46 606.116 2715.93C605.858 2716.41 605.477 2716.8 605.013 2717.08C604.549 2717.35 604.019 2717.5 603.48 2717.5H603.5Z" fill="black"/>
<path d="M623.59 1990.22C622.59 1990.22 621.66 1990.22 620.7 1990.22C619.904 1990.22 619.141 1989.9 618.579 1989.34C618.016 1988.78 617.7 1988.02 617.7 1987.22C617.7 1986.42 618.016 1985.66 618.579 1985.1C619.141 1984.54 619.904 1984.22 620.7 1984.22H620.76C624.26 1984.28 627.81 1984.22 631.31 1984.06C632.106 1984.02 632.884 1984.3 633.472 1984.84C634.061 1985.38 634.413 1986.12 634.45 1986.92C634.487 1987.72 634.207 1988.49 633.67 1989.08C633.134 1989.67 632.386 1990.02 631.59 1990.06C629 1990.16 626.28 1990.22 623.59 1990.22ZM639.49 1989.5C638.694 1989.53 637.918 1989.25 637.331 1988.71C636.744 1988.18 636.395 1987.43 636.36 1986.63C636.326 1985.83 636.609 1985.06 637.147 1984.47C637.685 1983.88 638.434 1983.53 639.23 1983.5C645.46 1982.95 651.658 1982.09 657.8 1980.91C658.582 1980.76 659.392 1980.93 660.05 1981.38C660.708 1981.83 661.162 1982.52 661.31 1983.3C661.459 1984.08 661.29 1984.89 660.842 1985.55C660.394 1986.21 659.702 1986.66 658.92 1986.81C652.48 1988.03 646.03 1988.93 639.76 1989.48L639.49 1989.5ZM605.34 1989.25H605.01C530.16 1981.19 479.01 1924.68 457.93 1878.73L457.88 1878.63C454.36 1870.1 450.64 1860.08 447.01 1849C432.765 1857.32 417.01 1862.72 400.66 1864.9C389.22 1866.51 378.6 1866.06 369.11 1863.59C368.713 1863.51 368.337 1863.34 368.005 1863.11C367.673 1862.88 367.391 1862.58 367.178 1862.23C366.964 1861.89 366.823 1861.5 366.762 1861.1C366.701 1860.7 366.723 1860.29 366.825 1859.9C366.927 1859.51 367.108 1859.14 367.357 1858.82C367.605 1858.5 367.917 1858.23 368.271 1858.03C368.626 1857.83 369.017 1857.71 369.421 1857.67C369.825 1857.63 370.233 1857.67 370.62 1857.79C379.34 1860.06 389.17 1860.45 399.83 1858.96C415.85 1856.82 431.263 1851.43 445.12 1843.11C424.93 1778.71 409.04 1682.57 447.64 1628.56C464.73 1604.64 480.86 1594.72 495.59 1599.06C515.59 1604.97 527.47 1637.86 528.83 1667.3V1667.4C529.47 1717.4 512.83 1805.79 452.27 1845.72C456.99 1860.25 461.21 1870.96 463.4 1876.28C483.83 1920.79 533.33 1975.5 605.65 1983.28C606.446 1983.32 607.193 1983.68 607.726 1984.27C608.26 1984.86 608.536 1985.64 608.495 1986.44C608.454 1987.23 608.099 1987.98 607.507 1988.51C606.915 1989.04 606.136 1989.32 605.34 1989.28V1989.25ZM488.92 1604.09C478.14 1604.09 465.67 1613.62 452.52 1632.02C432.85 1659.56 425.88 1702.82 432.37 1757.13C435.879 1785.15 441.903 1812.79 450.37 1839.73C507.67 1800.73 523.45 1715.73 522.85 1667.51C521.6 1640.87 511.04 1609.85 493.85 1604.8C492.25 1604.33 490.589 1604.09 488.92 1604.09ZM666 1985.27C665.259 1985.27 664.543 1985 663.99 1984.51C663.436 1984.02 663.085 1983.34 663.003 1982.6C662.921 1981.87 663.114 1981.12 663.546 1980.52C663.977 1979.92 664.616 1979.5 665.34 1979.34C671.51 1977.93 677.87 1976.18 684.23 1974.12C684.989 1973.88 685.813 1973.94 686.522 1974.31C687.231 1974.67 687.766 1975.3 688.01 1976.06C688.254 1976.82 688.187 1977.64 687.823 1978.35C687.459 1979.06 686.829 1979.6 686.07 1979.84C679.55 1981.94 673.02 1983.74 666.67 1985.19C666.451 1985.25 666.226 1985.27 666 1985.27ZM691.79 1977.72C691.082 1977.72 690.396 1977.47 689.854 1977.02C689.312 1976.56 688.949 1975.93 688.829 1975.23C688.709 1974.53 688.84 1973.81 689.199 1973.2C689.558 1972.59 690.122 1972.13 690.79 1971.89C704.331 1967.01 717.485 1961.12 730.14 1954.27C730.488 1954.06 730.874 1953.93 731.274 1953.88C731.675 1953.83 732.082 1953.86 732.471 1953.96C732.86 1954.07 733.223 1954.26 733.538 1954.51C733.854 1954.76 734.115 1955.08 734.306 1955.43C734.498 1955.79 734.615 1956.18 734.652 1956.58C734.689 1956.98 734.644 1957.39 734.52 1957.77C734.396 1958.16 734.196 1958.51 733.931 1958.82C733.667 1959.12 733.343 1959.37 732.98 1959.55C720.059 1966.55 706.627 1972.57 692.8 1977.55C692.478 1977.66 692.14 1977.72 691.8 1977.72H691.79ZM363.79 1861.72C363.428 1861.72 363.069 1861.66 362.73 1861.53C356.292 1859.11 350.306 1855.62 345.02 1851.22C344.717 1850.97 344.466 1850.66 344.282 1850.31C344.098 1849.96 343.984 1849.58 343.948 1849.19C343.911 1848.8 343.952 1848.4 344.068 1848.02C344.184 1847.65 344.374 1847.3 344.625 1846.99C344.877 1846.69 345.185 1846.44 345.534 1846.26C345.882 1846.07 346.264 1845.96 346.656 1845.92C347.048 1845.89 347.444 1845.93 347.82 1846.04C348.197 1846.16 348.547 1846.35 348.85 1846.6C353.625 1850.58 359.034 1853.72 364.85 1855.91C365.509 1856.16 366.06 1856.63 366.407 1857.24C366.755 1857.85 366.877 1858.56 366.752 1859.25C366.627 1859.95 366.263 1860.57 365.723 1861.02C365.184 1861.47 364.503 1861.72 363.8 1861.72H363.79ZM340.27 1845.54C339.851 1845.54 339.437 1845.45 339.054 1845.28C338.672 1845.1 338.33 1844.85 338.05 1844.54C334.082 1840.13 330.596 1835.3 327.65 1830.15C327.453 1829.81 327.325 1829.43 327.274 1829.04C327.223 1828.65 327.249 1828.25 327.351 1827.87C327.453 1827.49 327.629 1827.13 327.869 1826.82C328.109 1826.51 328.409 1826.25 328.75 1826.05C329.092 1825.85 329.468 1825.73 329.859 1825.67C330.25 1825.62 330.647 1825.65 331.028 1825.75C331.409 1825.85 331.766 1826.03 332.078 1826.27C332.391 1826.51 332.653 1826.81 332.85 1827.15C335.581 1831.93 338.812 1836.4 342.49 1840.5C342.875 1840.93 343.128 1841.46 343.218 1842.03C343.307 1842.6 343.23 1843.19 342.996 1843.72C342.762 1844.25 342.38 1844.69 341.896 1845.01C341.412 1845.33 340.848 1845.5 340.27 1845.5V1845.54ZM323.51 1817.71C322.91 1817.71 322.324 1817.53 321.827 1817.2C321.329 1816.86 320.944 1816.39 320.72 1815.83C311.57 1793.05 306.97 1763.2 307.06 1727.08C307.253 1697.75 310.112 1668.5 315.6 1639.69C315.67 1639.3 315.817 1638.92 316.032 1638.59C316.248 1638.26 316.527 1637.97 316.855 1637.74C317.183 1637.52 317.553 1637.36 317.942 1637.28C318.332 1637.2 318.733 1637.19 319.124 1637.27C319.514 1637.35 319.886 1637.5 320.217 1637.72C320.548 1637.94 320.832 1638.22 321.052 1638.55C321.272 1638.89 321.425 1639.26 321.5 1639.65C321.575 1640.04 321.572 1640.44 321.49 1640.83C311.82 1690.97 307.28 1766.3 326.29 1813.59C326.586 1814.33 326.576 1815.15 326.263 1815.89C325.95 1816.62 325.359 1817.19 324.62 1817.49C324.283 1817.64 323.92 1817.73 323.55 1817.75L323.51 1817.71Z" fill="black"/>
<path d="M2163.58 680C2162.88 679.999 2162.21 679.755 2161.67 679.31C2161.13 678.865 2160.77 678.246 2160.64 677.56C2160.51 676.874 2160.62 676.164 2160.96 675.553C2161.29 674.941 2161.83 674.467 2162.48 674.21C2166.97 672.45 2171.31 670.354 2175.48 667.94C2175.82 667.738 2176.2 667.609 2176.59 667.56C2176.82 667.233 2177.12 666.954 2177.46 666.74C2179.35 665.56 2181.17 664.32 2182.84 663.06C2183.2 662.791 2183.61 662.603 2184.05 662.51C2184.25 662.121 2184.53 661.78 2184.87 661.51C2186.48 660.2 2188.04 658.8 2189.5 657.35C2189.82 657.029 2190.22 656.786 2190.65 656.64C2190.78 656.209 2191.01 655.812 2191.31 655.48C2192.17 654.55 2192.92 653.69 2193.6 652.85C2193.93 652.445 2194.36 652.132 2194.84 651.943C2195.33 651.753 2195.85 651.694 2196.37 651.77C2196.14 651.294 2196.04 650.766 2196.08 650.239C2196.12 649.712 2196.3 649.205 2196.6 648.77C2210.05 628.84 2206.78 604.64 2199.88 589.95C2198.61 587.5 2197.04 584.71 2195.22 581.72C2170.99 587.97 2144.32 572.84 2131.31 561.57L2131.24 561.51C2123.58 554.4 2116.88 543.24 2120.24 535.51C2122.73 529.85 2129.54 527.43 2140.49 528.31C2163.36 530.16 2185.03 554.93 2197.78 574.58C2202.2 572.861 2206.27 570.346 2209.78 567.16C2212.13 565.133 2214.06 562.663 2215.45 559.89C2215.68 559.673 2215.87 559.408 2215.99 559.113C2216.12 558.818 2216.18 558.5 2216.17 558.18C2216.81 556.381 2217.15 554.489 2217.17 552.58C2217.17 552.099 2217.29 551.625 2217.52 551.2C2217.24 550.799 2217.06 550.336 2217 549.85C2216.76 548.124 2216.33 546.429 2215.74 544.79C2216.09 544.407 2216.32 543.93 2216.4 543.418C2216.48 542.906 2216.41 542.382 2216.2 541.909C2215.99 541.437 2215.64 541.036 2215.2 540.758C2214.77 540.479 2214.26 540.334 2213.74 540.34C2205.74 525.34 2185.42 510.16 2170.41 501.76C2170.07 501.567 2169.76 501.308 2169.52 500.998C2169.28 500.688 2169.1 500.333 2168.99 499.953C2168.88 499.573 2168.85 499.176 2168.9 498.784C2168.94 498.393 2169.07 498.014 2169.26 497.67C2169.45 497.326 2169.71 497.023 2170.02 496.779C2170.33 496.535 2170.69 496.355 2171.07 496.248C2171.45 496.141 2171.84 496.11 2172.24 496.157C2172.63 496.204 2173.01 496.327 2173.35 496.52C2189.81 505.75 2210.47 521.36 2219.04 537.52C2218.72 537.995 2218.52 538.544 2218.47 539.116C2218.42 539.687 2218.52 540.262 2218.75 540.786C2218.99 541.31 2219.35 541.766 2219.81 542.112C2220.26 542.457 2220.8 542.68 2221.37 542.76C2222.12 544.798 2222.64 546.91 2222.93 549.06C2222.68 549.63 2222.57 550.252 2222.61 550.873C2222.65 551.494 2222.84 552.097 2223.16 552.63C2223.14 555.199 2222.69 557.747 2221.84 560.17C2221.7 560.574 2221.47 560.942 2221.17 561.25C2221.16 561.669 2221.06 562.081 2220.88 562.46C2219.14 565.951 2216.74 569.065 2213.79 571.62C2210.02 575.039 2205.69 577.791 2201 579.76C2202.61 582.44 2204 584.96 2205.18 587.23L2205.23 587.33C2212.82 603.44 2216.4 630.08 2201.53 652.12C2200.97 652.062 2200.41 652.149 2199.9 652.374C2199.39 652.598 2198.94 652.952 2198.61 653.401C2198.27 653.85 2198.06 654.378 2197.99 654.933C2197.92 655.489 2198 656.053 2198.21 656.57C2197.45 657.51 2196.62 658.46 2195.68 659.48C2195.34 659.852 2194.91 660.134 2194.43 660.3C2194.29 660.777 2194.02 661.21 2193.67 661.56C2192.07 663.14 2190.36 664.67 2188.6 666.1C2188.23 666.408 2187.78 666.62 2187.31 666.72C2187.1 667.153 2186.79 667.531 2186.41 667.82C2184.58 669.19 2182.62 670.53 2180.58 671.82C2180.22 672.042 2179.81 672.188 2179.39 672.25C2179.14 672.597 2178.82 672.887 2178.45 673.1C2174.01 675.668 2169.38 677.898 2164.61 679.77C2164.28 679.907 2163.93 679.985 2163.58 680ZM2135.3 557.1C2146.97 567.2 2170.46 580.76 2191.81 576.37C2187.08 569.161 2181.77 562.349 2175.94 556C2163.51 542.69 2151.11 535.18 2140.07 534.29C2132.17 533.65 2127.07 534.94 2125.79 537.92C2124 542 2128.28 550.57 2135.3 557.1Z" fill="#FEDA00"/>
<path d="M1582.06 1023.24C1507.67 989.83 1491.66 896.24 1491.66 896.24L1533 859.68C1536.6 869.3 1547.75 897.19 1573.24 933.68C1605.09 979.26 1669.24 974.99 1717.37 1005.36C1755.9 1029.65 1769.58 1082.36 1779.75 1122.84L1743.14 1176.4C1687.93 1045.39 1656.45 1056.65 1582.06 1023.24Z" fill="black"/>
<path d="M811.66 2473.51L811.76 2470.01C816.9 2303.5 835.49 1954.86 869.08 1827.19C883.93 1770.75 921.81 1675.64 981.66 1544.52C1038.81 1419.31 1097.49 1301.84 1120.07 1257.15C1120.43 1256.44 1121.05 1255.9 1121.81 1255.65C1122.57 1255.4 1123.39 1255.46 1124.1 1255.82C1124.81 1256.18 1125.35 1256.8 1125.6 1257.56C1125.85 1258.32 1125.79 1259.14 1125.43 1259.85C1103.88 1302.5 913.82 1680.76 874.88 1828.71C841.66 1954.98 823.15 2299.08 817.88 2466.71L934.09 2452.37L1002.49 1789.52L1002.69 1789.07L1256.51 1235.57C1256.84 1234.85 1257.45 1234.28 1258.19 1234.01C1258.94 1233.73 1259.77 1233.76 1260.49 1234.09C1261.21 1234.42 1261.78 1235.03 1262.05 1235.77C1262.33 1236.52 1262.3 1237.35 1261.97 1238.07L1008.34 1791.1L940.18 2451.59L1326.12 2403.94L1243.49 2023.57L1203.69 1840.38L1204.07 1839.5L1337.5 1528.78C1337.5 1528.74 1337.5 1528.71 1337.5 1528.67L1358.73 1479.22C1359.04 1478.49 1359.63 1477.91 1360.37 1477.61C1361.11 1477.32 1361.94 1477.33 1362.67 1477.64C1363.4 1477.95 1363.98 1478.54 1364.28 1479.28C1364.57 1480.02 1364.56 1480.85 1364.25 1481.58L1343.13 1530.77L1273 1943.26L1843 2378L1993.3 2024.7L1430.15 1829.92L1541.7 1259.54C1541.88 1258.79 1542.35 1258.14 1543 1257.73C1543.65 1257.31 1544.44 1257.17 1545.19 1257.32C1545.95 1257.46 1546.62 1257.9 1547.06 1258.53C1547.51 1259.16 1547.69 1259.94 1547.58 1260.7L1437 1826L2001.31 2021.18L1847 2383.85C1847 2383.89 1847 2383.93 1847 2383.97L1835.51 2410.97L1832.51 2408.97L1250.91 2029.38L1333.39 2409.03L937.25 2458H937.12L811.66 2473.51ZM1249.09 2021.09L1832.78 2402.09L1840.58 2383.75L1266.51 1945.87L1333.1 1554.26L1210 1841L1249.09 2021.09Z" fill="black"/>
<path d="M1483.84 498C1483.25 498 1482.68 497.828 1482.19 497.506C1481.7 497.184 1481.32 496.725 1481.09 496.187C1480.85 495.649 1480.78 495.055 1480.89 494.478C1480.99 493.901 1481.26 493.366 1481.66 492.94C1484.88 489.53 1493.66 483.94 1503.98 487.38C1504.74 487.632 1505.36 488.174 1505.72 488.887C1506.07 489.599 1506.13 490.424 1505.88 491.18C1505.63 491.936 1505.09 492.561 1504.37 492.917C1503.66 493.273 1502.84 493.332 1502.08 493.08C1494.68 490.62 1488.34 494.61 1486.02 497.08C1485.74 497.373 1485.4 497.606 1485.02 497.764C1484.65 497.922 1484.25 498.002 1483.84 498Z" fill="black"/>
<path d="M1493.63 505.3C1493.05 505.295 1492.49 505.124 1492.01 504.807C1491.53 504.49 1491.15 504.041 1490.91 503.513C1490.68 502.985 1490.6 502.401 1490.69 501.832C1490.78 501.262 1491.04 500.73 1491.42 500.3C1493.18 498.39 1494.04 496.59 1493.83 495.25C1493.75 494.834 1493.57 494.44 1493.32 494.095C1493.08 493.75 1492.76 493.462 1492.39 493.25C1491.7 492.852 1491.19 492.196 1490.98 491.425C1490.78 490.654 1490.88 489.832 1491.28 489.14C1491.68 488.448 1492.33 487.942 1493.1 487.734C1493.88 487.526 1494.7 487.632 1495.39 488.03C1496.55 488.691 1497.54 489.601 1498.31 490.694C1499.07 491.787 1499.58 493.036 1499.8 494.35C1500.15 496.61 1499.8 500.18 1495.88 504.4C1495.59 504.698 1495.24 504.932 1494.85 505.087C1494.46 505.242 1494.05 505.315 1493.63 505.3Z" fill="black"/>
<path d="M1262 671.8C1262 671.8 1337.34 610.34 1399 595.18C1416.14 590.97 1446.35 583.18 1446.35 583.18L1486.18 534.55C1461.89 553.85 1428.84 556.25 1415.35 555.04C1400.48 552.88 1371.25 537.56 1373.35 493.56C1375.45 449.56 1405.7 413.14 1420.57 400.43L1448.57 389.53C1451.68 444.11 1482.9 464.16 1498.12 467.36L1486.19 480.36C1491.89 479.36 1504.4 479.42 1508.76 488.14C1516.85 506.82 1499.3 514.49 1489.51 515.99L1501.51 528.2L1521.67 588.45C1579.67 614.61 1605.1 654.94 1610.58 671.84C1618.28 656.77 1630.27 621.21 1616.58 599.51C1599.5 572.39 1564.35 579.43 1585.44 481.99C1602.31 404.05 1552.29 369.16 1525.17 361.46C1430.75 324.3 1377.52 415.7 1335.33 435.79C1293.14 455.88 1245.93 429.79 1215.8 473.96C1191.69 509.32 1164.91 524.85 1154.53 528.2L1262 671.8Z" fill="black"/>
<path d="M1403.63 498.33C1396.63 498.33 1391.38 496.69 1390.11 495.86L1385.75 492.97L1390.45 490.66C1404.74 483.66 1413.76 467.47 1412.38 451.37C1411.38 440.03 1403.17 433.44 1395.78 431.05C1395.04 430.796 1394.42 430.26 1394.07 429.556C1393.71 428.853 1393.65 428.039 1393.89 427.29C1394.13 426.542 1394.66 425.917 1395.36 425.553C1396.05 425.188 1396.87 425.111 1397.62 425.34C1406.85 428.34 1417.15 436.6 1418.36 450.86C1418.95 458.761 1417.54 466.684 1414.25 473.894C1410.97 481.104 1405.92 487.37 1399.57 492.11C1405.4 492.747 1411.29 492.003 1416.78 489.94C1417.52 489.654 1418.35 489.674 1419.08 489.996C1419.8 490.319 1420.37 490.917 1420.66 491.66C1420.95 492.403 1420.93 493.229 1420.6 493.956C1420.28 494.684 1419.68 495.254 1418.94 495.54C1414.05 497.402 1408.86 498.347 1403.63 498.33Z" fill="black"/>
<path d="M1466.78 468.46C1466.1 468.46 1465.43 468.226 1464.9 467.796C1464.37 467.367 1464 466.769 1463.85 466.1C1462.47 459.81 1456.13 448.42 1442.01 450.34C1441.22 450.446 1440.42 450.234 1439.79 449.751C1439.16 449.269 1438.74 448.554 1438.64 447.765C1438.53 446.976 1438.74 446.177 1439.22 445.544C1439.71 444.911 1440.42 444.496 1441.21 444.39C1449.28 443.3 1465.62 446.15 1469.71 464.82C1469.88 465.597 1469.73 466.41 1469.3 467.079C1468.87 467.748 1468.2 468.22 1467.42 468.39C1467.21 468.438 1467 468.461 1466.78 468.46Z" fill="black"/>
<path d="M1419.88 518.87C1415.85 518.893 1411.89 517.858 1408.39 515.87C1407.72 515.447 1407.25 514.777 1407.07 514.007C1406.9 513.237 1407.03 512.429 1407.45 511.757C1407.86 511.086 1408.53 510.606 1409.3 510.421C1410.06 510.236 1410.87 510.361 1411.55 510.77C1414.42 512.54 1421.55 514.77 1428.09 510.48C1428.75 510.094 1429.54 509.975 1430.28 510.15C1431.03 510.325 1431.68 510.779 1432.11 511.419C1432.53 512.059 1432.69 512.836 1432.56 513.592C1432.42 514.347 1432.01 515.023 1431.39 515.48C1427.97 517.723 1423.97 518.903 1419.88 518.87Z" fill="black"/>
<path d="M1463.17 478.16C1462.6 478.16 1462.04 477.998 1461.56 477.691C1461.08 477.385 1460.69 476.947 1460.45 476.43C1457.95 471.09 1454.63 467.86 1450.57 466.8C1445.76 465.56 1440.57 467.62 1437.57 469.8C1437.25 470.031 1436.89 470.197 1436.5 470.288C1436.12 470.379 1435.72 470.394 1435.33 470.331C1434.94 470.269 1434.57 470.13 1434.23 469.923C1433.9 469.716 1433.61 469.445 1433.38 469.125C1433.14 468.805 1432.98 468.443 1432.89 468.059C1432.8 467.675 1432.78 467.277 1432.84 466.888C1432.91 466.498 1433.05 466.125 1433.25 465.789C1433.46 465.453 1433.73 465.161 1434.05 464.93C1438.28 461.93 1445.21 459.26 1452.05 461.03C1457.91 462.55 1462.56 466.88 1465.86 473.91C1466.03 474.268 1466.13 474.655 1466.14 475.05C1466.16 475.445 1466.1 475.84 1465.97 476.211C1465.83 476.583 1465.63 476.925 1465.36 477.216C1465.09 477.508 1464.77 477.743 1464.41 477.91C1464.02 478.084 1463.6 478.17 1463.17 478.16Z" fill="black"/>
<path d="M1413.13 463.4C1412.51 463.398 1411.91 463.205 1411.4 462.847C1410.9 462.489 1410.52 461.984 1410.31 461.4C1408.31 455.87 1405.31 452.34 1401.31 450.94C1396.62 449.26 1391.31 450.86 1388.12 452.73C1387.78 452.939 1387.4 453.079 1387.01 453.14C1386.62 453.202 1386.21 453.185 1385.83 453.089C1385.44 452.994 1385.08 452.823 1384.76 452.585C1384.44 452.348 1384.17 452.049 1383.97 451.707C1383.76 451.364 1383.63 450.984 1383.57 450.59C1383.52 450.195 1383.54 449.794 1383.65 449.409C1383.75 449.024 1383.92 448.663 1384.17 448.347C1384.41 448.031 1384.71 447.767 1385.06 447.57C1389.54 444.91 1396.69 442.91 1403.33 445.29C1409.03 447.29 1413.27 452.05 1415.93 459.35C1416.07 459.72 1416.13 460.114 1416.11 460.508C1416.09 460.902 1416 461.289 1415.83 461.646C1415.67 462.004 1415.43 462.325 1415.14 462.592C1414.85 462.858 1414.51 463.065 1414.14 463.2C1413.82 463.322 1413.48 463.39 1413.13 463.4Z" fill="black"/>
<path d="M1455.36 472.193C1456.24 469.108 1454.46 465.891 1451.37 465.008C1448.29 464.124 1445.07 465.909 1444.19 468.994C1443.31 472.078 1445.09 475.295 1448.18 476.179C1451.26 477.062 1454.48 475.277 1455.36 472.193Z" fill="black"/>
<path d="M1405.58 456.721C1406.74 453.727 1405.25 450.364 1402.25 449.209C1399.26 448.055 1395.9 449.545 1394.74 452.539C1393.59 455.533 1395.08 458.896 1398.07 460.051C1401.07 461.205 1404.43 459.714 1405.58 456.721Z" fill="black"/>
<path d="M1248.24 679.79C1380.55 569.79 1486.11 572.63 1522.34 587.79C1563.23 602.66 1622.7 652.79 1633.85 742.03C1645 887.03 1580.26 1148.7 1546.5 1261.44H1116.29L1148.82 1186.18C1143.24 1188.66 1124.1 1196.03 1092.14 1205.69C876.57 1245.09 864.14 1086.01 941.61 1003.13C958.68 983.4 981.68 957.25 1007.9 927.99C1019.22 951.31 1055.67 997.9 1073.85 990.99C1088.4 985.48 1067.79 911.54 1055.67 875.26C1070.58 858.98 1085.94 842.38 1101.38 825.92C1135.13 858.92 1205.97 921.34 1219.32 906.83C1232.67 892.32 1175.78 812.63 1147.08 774.74C1183.19 737.55 1220.42 704.07 1248.24 679.79Z" fill="#FEDA00"/>
<path d="M1192 1164.31C1191.58 1164.3 1191.17 1164.21 1190.79 1164.04C1190.42 1163.87 1190.08 1163.62 1189.8 1163.31C1189.26 1162.73 1188.98 1161.95 1189.01 1161.16C1189.04 1160.37 1189.39 1159.62 1189.97 1159.08L1419.19 947.5C1419.78 947.002 1420.54 946.751 1421.31 946.799C1422.08 946.848 1422.81 947.193 1423.33 947.762C1423.85 948.33 1424.14 949.079 1424.12 949.852C1424.11 950.625 1423.8 951.362 1423.25 951.91L1194 1163.51C1193.46 1164.02 1192.74 1164.31 1192 1164.31Z" fill="black"/>
<path d="M1285 2806.91H1391.19L1337.58 2509.73H1137.58L1161.35 2585.02L731.8 2806.91H1227.89L1275.44 2741.91L1285 2806.91Z" fill="black"/>
<path d="M1394.73 2812H1282.36L1273.53 2751.7L1229.41 2812H731.8L730.42 2806.33L1157.7 2585.6L1134.7 2512.79C1134.7 2512.74 1134.7 2512.7 1134.7 2512.65L1110.94 2437.44C1110.71 2436.68 1110.79 2435.87 1111.16 2435.17C1111.53 2434.47 1112.15 2433.95 1112.91 2433.71C1113.66 2433.47 1114.47 2433.54 1115.18 2433.9C1115.88 2434.26 1116.41 2434.88 1116.66 2435.63L1139.78 2508.82H1333.97L1316.11 2409.31C1316.02 2408.92 1316.01 2408.51 1316.09 2408.11C1316.16 2407.71 1316.31 2407.33 1316.54 2406.99C1316.76 2406.66 1317.05 2406.37 1317.39 2406.15C1317.73 2405.92 1318.11 2405.77 1318.51 2405.7C1318.91 2405.63 1319.31 2405.64 1319.71 2405.73C1320.1 2405.82 1320.48 2405.99 1320.8 2406.23C1321.13 2406.47 1321.41 2406.77 1321.61 2407.12C1321.82 2407.46 1321.96 2407.85 1322.01 2408.25L1340.5 2511.25C1340.51 2511.29 1340.51 2511.32 1340.5 2511.36L1394.73 2812ZM1287.54 2806H1387.54L1335 2514.82H1141.64L1164.94 2588.61L1162.7 2589.77L744.14 2806H1226.37L1277.37 2736.33L1287.54 2806Z" fill="black"/>
<path d="M2311.15 2288L2365.89 2197L2083.6 2089.73L1980.51 2261.1L2057.28 2279.53L2026 2762L2281.72 2336.89L2250.54 2262.65L2311.15 2288Z" fill="black"/>
<path d="M2028.59 2763.53L2023.03 2761.79L2054.12 2281.86L1979.88 2264H1979.74L1903.04 2245.58C1902.27 2245.39 1901.6 2244.91 1901.18 2244.23C1900.76 2243.55 1900.63 2242.73 1900.82 2241.96C1901.01 2241.19 1901.49 2240.52 1902.17 2240.1C1902.85 2239.68 1903.67 2239.55 1904.44 2239.74L1979.07 2257.67L2079.18 2091.26L1984.68 2055.26C1984.3 2055.13 1983.94 2054.93 1983.64 2054.66C1983.34 2054.39 1983.09 2054.06 1982.92 2053.7C1982.75 2053.33 1982.65 2052.93 1982.64 2052.53C1982.62 2052.13 1982.69 2051.72 1982.83 2051.35C1982.98 2050.97 1983.2 2050.62 1983.48 2050.33C1983.76 2050.04 1984.09 2049.81 1984.47 2049.65C1984.84 2049.5 1985.24 2049.42 1985.64 2049.42C1986.05 2049.42 1986.45 2049.5 1986.82 2049.66L2084.61 2086.89H2084.71L2370.31 2195.4L2312.38 2291.7L2256.17 2268.18L2285.1 2337.06L2284.31 2338.37L2028.59 2763.53ZM1985.19 2259.14L2060.44 2277.2L2060.27 2279.72L2029.81 2749.86L2278.38 2336.63L2245 2257L2310 2284.18L2361.55 2198.48L2084.96 2093.4L1985.19 2259.14Z" fill="black"/>
<path d="M1504.59 1082.43C1476.59 1005.85 1384.35 983.2 1384.35 983.2L1344.95 1021.84C1354.29 1026.12 1381.31 1039.24 1415.87 1067.25C1459.06 1102.25 1450.23 1165.94 1477.08 1216.14C1498.57 1256.3 1550.18 1273.71 1589.82 1286.73L1645.82 1254.05C1519.14 1189.61 1532.61 1159 1504.59 1082.43Z" fill="black"/>
<path d="M1850.19 1084.94C1706 1040.2 1693.5 1168.88 1706 1228.13C1687.9 1224.13 1642.8 1224.57 1607.25 1257.75C1515.47 1386.12 1633.97 1471.05 1698.16 1471.05H1997.31C1985.14 1349.59 1944.05 1126.42 1850.19 1084.94Z" fill="black"/>
<path d="M1965.3 1623C1907.45 1590.93 1890.6 1645 1890.67 1671.54C1883.26 1668.22 1863.88 1664.37 1845.67 1675.42C1794.84 1722.29 1838.08 1769.3 1865.61 1775.03L1993.92 1801.75C1999.55 1748.58 2001.85 1649.19 1965.3 1623Z" fill="black"/>
<path d="M2487.81 1492.26C2472.81 1483.93 2468.4 1497.98 2468.42 1504.87C2466.52 1504.14 2464.48 1503.85 2462.45 1504.02C2460.43 1504.19 2458.47 1504.83 2456.72 1505.87C2443.51 1518.05 2454.72 1530.26 2461.9 1531.75L2495.25 1538.69C2496.71 1524.88 2497.31 1499.06 2487.81 1492.26Z" fill="black"/>
<path d="M1793.1 1294.85C1799.31 1287.37 1797.31 1275.47 1788.64 1268.27C1779.97 1261.06 1767.91 1261.28 1761.7 1268.76C1755.49 1276.24 1757.48 1288.14 1766.15 1295.34C1774.82 1302.54 1786.88 1302.32 1793.1 1294.85Z" fill="white"/>
<path d="M1839.93 1300.85C1850.93 1309.95 1860.42 1332.01 1851.69 1342.53C1842.96 1353.05 1819.25 1348.02 1808.3 1338.92C1797.35 1329.82 1795.55 1313.92 1804.3 1303.41C1813.05 1292.9 1829 1291.75 1839.93 1300.85Z" fill="white"/>
<path d="M1833.71 1285.87C1840.96 1279.4 1840.76 1267.34 1833.25 1258.92C1825.75 1250.51 1813.79 1248.94 1806.53 1255.41C1799.28 1261.88 1799.48 1273.95 1806.99 1282.36C1814.49 1290.77 1826.46 1292.34 1833.71 1285.87Z" fill="white"/>
<path d="M1790.26 1334.74C1795.47 1326.54 1791.97 1314.99 1782.45 1308.95C1772.94 1302.91 1761 1304.66 1755.79 1312.87C1750.58 1321.08 1754.08 1332.63 1763.59 1338.67C1773.11 1344.71 1785.05 1342.95 1790.26 1334.74Z" fill="white"/>
<path d="M1069.38 994.07C1063.38 994.07 1055.62 990.26 1045.86 982.58C1023.03 964.58 1000.73 926.11 979.57 868.11C956.06 803.66 938.57 727.45 930.07 677.3C926.64 672.8 923.31 668.3 920.07 663.81C919.796 667.096 918.596 670.238 916.61 672.87C912.76 677.79 906.29 679.87 897.38 679.06L897 679C881.26 675.36 859.25 642.12 861.08 618.2C861.77 609.2 866.66 593.79 891.72 591.92H892C909 591.92 919.1 596.16 923.59 599.52L970.83 575.14C970.46 569.41 970.08 553.31 976.42 544.04C981.28 536.94 990.28 529.26 1000.96 528.98C1010.11 528.76 1018.63 533.77 1026.37 543.91C1045.37 568.82 1053.73 584.27 1055.49 588.91L1055.78 589.68L1055.63 590.5C1055.26 592.432 1054.43 594.246 1053.21 595.79C1052 597.334 1050.42 598.562 1048.63 599.37C1042.88 602.06 1035.05 601.37 1025.26 597.19C1031.57 608.361 1037.18 619.921 1042.03 631.8C1052.72 645.09 1224.61 859.56 1223.78 901.55C1223.65 908.39 1220.34 911.07 1217.59 912.12C1208.42 915.6 1188.95 905.62 1159.73 882.44C1137.56 864.85 1111.63 840.94 1093.67 821.53C1093.13 820.947 1092.84 820.172 1092.87 819.377C1092.9 818.582 1093.25 817.831 1093.83 817.29C1094.41 816.749 1095.19 816.462 1095.98 816.492C1096.78 816.522 1097.53 816.867 1098.07 817.45C1115.84 836.66 1141.51 860.33 1163.46 877.74C1201.84 908.19 1212.97 907.45 1215.46 906.51C1216.07 906.27 1217.7 905.66 1217.78 901.44C1218.34 873.1 1120.97 740.63 1048.68 649.71C1058.01 677.87 1065.62 716.8 1050.45 745.49C1045.78 754.32 1039.12 759.16 1030.63 759.86C1002.31 762.2 960.63 715.66 938.04 687.39C947 737 963.51 806.58 985.21 866.05C1005.98 922.99 1027.63 960.61 1049.56 977.87C1060.67 986.6 1068.85 989.87 1072.56 987.1C1083.1 979.29 1071.97 927.33 1044.88 857.82C1044.64 857.091 1044.69 856.299 1045.02 855.605C1045.34 854.912 1045.92 854.37 1046.64 854.091C1047.35 853.812 1048.15 853.817 1048.86 854.105C1049.57 854.393 1050.14 854.942 1050.46 855.64C1056.99 872.38 1069.04 904.91 1076.46 934.76C1080.02 949.08 1082.01 960.92 1082.38 969.95C1082.84 981.28 1080.81 988.47 1076.16 991.95C1074.19 993.378 1071.81 994.122 1069.38 994.07ZM935.33 674.31C974.62 725.81 1010.05 755.57 1030.05 753.91C1036.45 753.38 1041.36 749.72 1045.05 742.72C1062.56 709.59 1047.27 660.72 1036.57 634.57C1036.57 634.527 1036.57 634.483 1036.57 634.44C1030.52 619.588 1023.27 605.257 1014.88 591.59L1018.88 587.38C1035.15 596.55 1042.88 595.44 1046.02 593.96C1046.83 593.612 1047.56 593.099 1048.16 592.453C1048.76 591.807 1049.22 591.043 1049.51 590.21C1047.27 584.97 1039.13 570.53 1021.59 547.54C1015.08 539.02 1008.19 534.77 1001.1 534.97C992.66 535.19 985.19 541.81 981.36 547.42C974.96 556.76 976.92 576.42 976.94 576.57L977.16 578.57L922.45 606.81L920.9 605.09C919.1 603.09 910.42 597.9 892.09 597.88C876.47 599.08 868.09 606.05 867.09 618.63C865.43 640.36 886.09 670.02 898.19 673.08C904.83 673.64 909.46 672.32 911.95 669.14C915.25 664.94 914.52 657.95 912.95 653.24L918.26 650.58C923.53 658.31 929.26 666.24 935.26 674.18L935.33 674.31Z" fill="black"/>
<path d="M996.13 639.42C995.389 639.413 994.676 639.131 994.13 638.63C993.839 638.364 993.603 638.044 993.436 637.687C993.269 637.33 993.174 636.943 993.156 636.549C993.139 636.156 993.199 635.762 993.333 635.392C993.468 635.021 993.674 634.681 993.94 634.39C999.44 628.39 1013.82 620.1 1028.94 631.8C1029.57 632.288 1029.98 633.006 1030.08 633.795C1030.18 634.585 1029.96 635.382 1029.47 636.01C1028.98 636.639 1028.26 637.048 1027.47 637.147C1026.69 637.246 1025.89 637.028 1025.26 636.54C1020.17 632.6 1008.01 627.92 998.4 638.44C998.113 638.755 997.762 639.006 997.371 639.175C996.979 639.344 996.556 639.427 996.13 639.42Z" fill="black"/>
<path d="M952.13 686.7C951.479 686.699 950.847 686.487 950.327 686.096C949.808 685.705 949.43 685.155 949.25 684.53C943.93 666.18 956.93 655.86 964.55 652.97C965.287 652.717 966.094 652.761 966.8 653.092C967.506 653.424 968.055 654.017 968.33 654.747C968.606 655.476 968.587 656.284 968.277 657C967.967 657.716 967.39 658.282 966.67 658.58C960.85 660.79 950.91 668.71 955.02 682.86C955.244 683.619 955.16 684.435 954.785 685.132C954.411 685.828 953.776 686.349 953.02 686.58C952.731 686.664 952.431 686.705 952.13 686.7Z" fill="black"/>
<path d="M1017.21 654.83C1020.42 654.83 1023.02 652.229 1023.02 649.02C1023.02 645.811 1020.42 643.21 1017.21 643.21C1014 643.21 1011.4 645.811 1011.4 649.02C1011.4 652.229 1014 654.83 1017.21 654.83Z" fill="black"/>
<path d="M1037.38 747.509C1043.09 744.982 1046.63 740.494 1045.3 737.484C1043.97 734.475 1038.26 734.083 1032.55 736.609C1026.85 739.136 1023.3 743.624 1024.63 746.633C1025.97 749.643 1031.67 750.035 1037.38 747.509Z" fill="black"/>
<path d="M969.56 685.83C972.769 685.83 975.37 683.229 975.37 680.02C975.37 676.811 972.769 674.21 969.56 674.21C966.351 674.21 963.75 676.811 963.75 680.02C963.75 683.229 966.351 685.83 969.56 685.83Z" fill="black"/>
</svg>
